<?xml version="1.0" encoding="UTF-8" standalone="no"?>
<!DOCTYPE svg PUBLIC "-//W3C//DTD SVG 1.1//EN"
 "http://www.w3.org/Graphics/SVG/1.1/DTD/svg11.dtd">
<!-- Generated by graphviz version 2.40.1 (20161225.0304)
 -->
<!-- Title: mp3_mpeg_hdr_get_size Pages: 1 -->
<svg width="518pt" height="142pt"
 viewBox="0.00 0.00 518.00 142.00" xmlns="http://www.w3.org/2000/svg" xmlns:xlink="http://www.w3.org/1999/xlink">
<g id="graph0" class="graph" transform="scale(1 1) rotate(0) translate(4 138)">
<title>mp3_mpeg_hdr_get_size</title>
<polygon fill="#ffffff" stroke="transparent" points="-4,4 -4,-138 514,-138 514,4 -4,4"/>
<!-- Node107 -->
<g id="node1" class="node">
<title>Node107</title>
<polygon fill="#bfbfbf" stroke="#000000" points="0,-47.5 0,-66.5 125,-66.5 125,-47.5 0,-47.5"/>
<text text-anchor="middle" x="62.5" y="-54.5" font-family="Helvetica,sans-Serif" font-size="10.00" fill="#000000">mp3_mpeg_hdr_get_size</text>
</g>
<!-- Node108 -->
<g id="node2" class="node">
<title>Node108</title>
<g id="a_node2"><a xlink:href="a00089.xhtml#aa1f3d4311fe8115981f98b79a1fea672" target="_top" xlink:title="Saute la frame MP3 actuelle. ">
<polygon fill="#ffffff" stroke="#000000" points="161,-71.5 161,-90.5 263,-90.5 263,-71.5 161,-71.5"/>
<text text-anchor="middle" x="212" y="-78.5" font-family="Helvetica,sans-Serif" font-size="10.00" fill="#000000">mp3_mpeg_fr_seek</text>
</a>
</g>
</g>
<!-- Node107&#45;&gt;Node108 -->
<g id="edge1" class="edge">
<title>Node107&#45;&gt;Node108</title>
<path fill="none" stroke="#191970" d="M132.0643,-68.1675C141.774,-69.7263 151.6009,-71.3038 160.8855,-72.7943"/>
<polygon fill="#191970" stroke="#191970" points="132.4443,-64.6838 122.0159,-66.5544 131.3347,-71.5953 132.4443,-64.6838"/>
</g>
<!-- Node114 -->
<g id="node8" class="node">
<title>Node114</title>
<g id="a_node8"><a xlink:href="a00089.xhtml#ab0198bd0d67c778ff7493f1bcd0a409e" target="_top" xlink:title="Écris la frame MP3 actuelle. ">
<polygon fill="#ffffff" stroke="#000000" points="161,-28.5 161,-47.5 263,-47.5 263,-28.5 161,-28.5"/>
<text text-anchor="middle" x="212" y="-35.5" font-family="Helvetica,sans-Serif" font-size="10.00" fill="#000000">mp3_mpeg_fr_write</text>
</a>
</g>
</g>
<!-- Node107&#45;&gt;Node114 -->
<g id="edge7" class="edge">
<title>Node107&#45;&gt;Node114</title>
<path fill="none" stroke="#191970" d="M135.0992,-47.7733C143.7106,-46.6789 152.36,-45.5797 160.5898,-44.5337"/>
<polygon fill="#191970" stroke="#191970" points="134.5141,-44.3195 125.0352,-49.0524 135.3967,-51.2636 134.5141,-44.3195"/>
</g>
<!-- Node109 -->
<g id="node3" class="node">
<title>Node109</title>
<g id="a_node3"><a xlink:href="a00035.xhtml#abc757e2627fc9971e388a584e0e0c2ca" target="_top" xlink:title="Va extraire les donnees cachees en utilisant l&#39;algorithme LSB. ">
<polygon fill="#ffffff" stroke="#000000" points="302,-111.5 302,-130.5 367,-130.5 367,-111.5 302,-111.5"/>
<text text-anchor="middle" x="334.5" y="-118.5" font-family="Helvetica,sans-Serif" font-size="10.00" fill="#000000">extract_lsb</text>
</a>
</g>
</g>
<!-- Node108&#45;&gt;Node109 -->
<g id="edge2" class="edge">
<title>Node108&#45;&gt;Node109</title>
<path fill="none" stroke="#191970" d="M251.3131,-93.8369C268.8823,-99.5738 289.2261,-106.2167 305.3976,-111.4972"/>
<polygon fill="#191970" stroke="#191970" points="251.9343,-90.358 241.3418,-90.581 249.7614,-97.0122 251.9343,-90.358"/>
</g>
<!-- Node111 -->
<g id="node5" class="node">
<title>Node111</title>
<g id="a_node5"><a xlink:href="a00131.xhtml#a5501c9c7711252fa8d85ff12cb3390dc" target="_top" xlink:title="Remplit les informations du fichier hôte. ">
<polygon fill="#ffffff" stroke="#000000" points="299,-71.5 299,-90.5 370,-90.5 370,-71.5 299,-71.5"/>
<text text-anchor="middle" x="334.5" y="-78.5" font-family="Helvetica,sans-Serif" font-size="10.00" fill="#000000">fill_host_info</text>
</a>
</g>
</g>
<!-- Node108&#45;&gt;Node111 -->
<g id="edge4" class="edge">
<title>Node108&#45;&gt;Node111</title>
<path fill="none" stroke="#191970" d="M273.3911,-81C282.0713,-81 290.7478,-81 298.7232,-81"/>
<polygon fill="#191970" stroke="#191970" points="273.2413,-77.5001 263.2412,-81 273.2412,-84.5001 273.2413,-77.5001"/>
</g>
<!-- Node110 -->
<g id="node4" class="node">
<title>Node110</title>
<g id="a_node4"><a xlink:href="a00065.xhtml#a43c63dd958bfa1f4ab2ecbd7faa14abb" target="_top" xlink:title="Va faire l&#39;extraction selon l&#39;algorithme détecté, ainsi que les fichiers en entrée choisis par l&#39;util...">
<polygon fill="#ffffff" stroke="#000000" points="420,-114.5 420,-133.5 496,-133.5 496,-114.5 420,-114.5"/>
<text text-anchor="middle" x="458" y="-121.5" font-family="Helvetica,sans-Serif" font-size="10.00" fill="#000000">stegx_extract</text>
</a>
</g>
</g>
<!-- Node109&#45;&gt;Node110 -->
<g id="edge3" class="edge">
<title>Node109&#45;&gt;Node110</title>
<path fill="none" stroke="#191970" d="M377.4845,-122.0442C391.2585,-122.3787 406.4089,-122.7468 419.8157,-123.0724"/>
<polygon fill="#191970" stroke="#191970" points="377.3536,-118.54 367.2715,-121.7961 377.1835,-125.538 377.3536,-118.54"/>
</g>
<!-- Node112 -->
<g id="node6" class="node">
<title>Node112</title>
<g id="a_node6"><a xlink:href="a00050.xhtml#a2a3747fdc90ed4467eb3e468d8fba361" target="_top" xlink:title="Detecte l&#39;algorithme utilisé ainsi que le nom du fichier caché et la taille des données cachées...">
<polygon fill="#ffffff" stroke="#000000" points="410,-76.5 410,-95.5 506,-95.5 506,-76.5 410,-76.5"/>
<text text-anchor="middle" x="458" y="-83.5" font-family="Helvetica,sans-Serif" font-size="10.00" fill="#000000">stegx_detect_algo</text>
</a>
</g>
</g>
<!-- Node111&#45;&gt;Node112 -->
<g id="edge5" class="edge">
<title>Node111&#45;&gt;Node112</title>
<path fill="none" stroke="#191970" d="M380.4129,-82.8588C390.0496,-83.249 400.2382,-83.6615 409.9506,-84.0547"/>
<polygon fill="#191970" stroke="#191970" points="380.3547,-79.3537 370.2213,-82.4462 380.0715,-86.348 380.3547,-79.3537"/>
</g>
<!-- Node113 -->
<g id="node7" class="node">
<title>Node113</title>
<g id="a_node7"><a xlink:href="a00128.xhtml#adc277622e5fe0d1814be76f11263b350" target="_top" xlink:title="Propose les algorithmes de stéganographie utilisables. ">
<polygon fill="#ffffff" stroke="#000000" points="406,-38.5 406,-57.5 510,-57.5 510,-38.5 406,-38.5"/>
<text text-anchor="middle" x="458" y="-45.5" font-family="Helvetica,sans-Serif" font-size="10.00" fill="#000000">stegx_suggest_algo</text>
</a>
</g>
</g>
<!-- Node111&#45;&gt;Node113 -->
<g id="edge6" class="edge">
<title>Node111&#45;&gt;Node113</title>
<path fill="none" stroke="#191970" d="M380.1197,-68.8101C394.0611,-65.0849 409.1821,-61.0445 422.359,-57.5235"/>
<polygon fill="#191970" stroke="#191970" points="378.9788,-65.4921 370.2213,-71.455 380.7859,-72.2548 378.9788,-65.4921"/>
</g>
<!-- Node115 -->
<g id="node9" class="node">
<title>Node115</title>
<g id="a_node9"><a xlink:href="a00035.xhtml#a14e9d876697b0225ded31095c1076b64" target="_top" xlink:title="Va inserer les donnees cachees en utilisant l&#39;algorithme LSB. ">
<polygon fill="#ffffff" stroke="#000000" points="305,-19.5 305,-38.5 364,-38.5 364,-19.5 305,-19.5"/>
<text text-anchor="middle" x="334.5" y="-26.5" font-family="Helvetica,sans-Serif" font-size="10.00" fill="#000000">insert_lsb</text>
</a>
</g>
</g>
<!-- Node114&#45;&gt;Node115 -->
<g id="edge8" class="edge">
<title>Node114&#45;&gt;Node115</title>
<path fill="none" stroke="#191970" d="M273.2791,-33.4979C284.2528,-32.6916 295.2253,-31.8855 304.7875,-31.183"/>
<polygon fill="#191970" stroke="#191970" points="272.9579,-30.0119 263.2412,-34.2353 273.4708,-36.9931 272.9579,-30.0119"/>
</g>
<!-- Node116 -->
<g id="node10" class="node">
<title>Node116</title>
<g id="a_node10"><a xlink:href="a00110.xhtml#a45a1d0709604d55e9d467cb39d6a5b54" target="_top" xlink:title="Va faire l&#39;insertion selon l&#39;algorithme, ainsi que les fichiers en entrée choisis par l&#39;utilisateur...">
<polygon fill="#ffffff" stroke="#000000" points="423,-.5 423,-19.5 493,-19.5 493,-.5 423,-.5"/>
<text text-anchor="middle" x="458" y="-7.5" font-family="Helvetica,sans-Serif" font-size="10.00" fill="#000000">stegx_insert</text>
</a>
</g>
</g>
<!-- Node115&#45;&gt;Node116 -->
<g id="edge9" class="edge">
<title>Node115&#45;&gt;Node116</title>
<path fill="none" stroke="#191970" d="M374.0434,-22.9164C389.7671,-20.4974 407.707,-17.7374 422.9557,-15.3914"/>
<polygon fill="#191970" stroke="#191970" points="373.4328,-19.4691 364.0813,-24.449 374.4973,-26.3877 373.4328,-19.4691"/>
</g>
</g>
</svg>
