<?xml version="1.0" encoding="UTF-8" standalone="no"?>
<!DOCTYPE svg PUBLIC "-//W3C//DTD SVG 1.1//EN"
 "http://www.w3.org/Graphics/SVG/1.1/DTD/svg11.dtd">
<!-- Generated by graphviz version 2.40.1 (20161225.0304)
 -->
<!-- Title: extract_metadata Pages: 1 -->
<svg width="474pt" height="218pt"
 viewBox="0.00 0.00 474.00 218.00" xmlns="http://www.w3.org/2000/svg" xmlns:xlink="http://www.w3.org/1999/xlink">
<g id="graph0" class="graph" transform="scale(1 1) rotate(0) translate(4 214)">
<title>extract_metadata</title>
<polygon fill="#ffffff" stroke="transparent" points="-4,4 -4,-214 470,-214 470,4 -4,4"/>
<!-- Node0 -->
<g id="node1" class="node">
<title>Node0</title>
<polygon fill="#bfbfbf" stroke="#000000" points="0,-76.5 0,-95.5 92,-95.5 92,-76.5 0,-76.5"/>
<text text-anchor="middle" x="46" y="-83.5" font-family="Helvetica,sans-Serif" font-size="10.00" fill="#000000">extract_metadata</text>
</g>
<!-- Node1 -->
<g id="node2" class="node">
<title>Node1</title>
<g id="a_node2"><a xlink:href="a00074.xhtml#a14e9a0ddec04cc168cbfe21cd839166e" target="_top" xlink:title="Va extraire les donnees cachees en utilisant l&#39;algorithme Metadata dans le formar BMP...">
<polygon fill="#ffffff" stroke="#000000" points="128,-152.5 128,-171.5 244,-171.5 244,-152.5 128,-152.5"/>
<text text-anchor="middle" x="186" y="-159.5" font-family="Helvetica,sans-Serif" font-size="10.00" fill="#000000">extract_metadata_bmp</text>
</a>
</g>
</g>
<!-- Node0&#45;&gt;Node1 -->
<g id="edge1" class="edge">
<title>Node0&#45;&gt;Node1</title>
<path fill="none" stroke="#191970" d="M63.7311,-95.6255C87.9257,-108.7597 131.4756,-132.401 159.5395,-147.6358"/>
<polygon fill="#191970" stroke="#191970" points="157.9545,-150.7577 168.4129,-152.4527 161.2942,-144.6057 157.9545,-150.7577"/>
</g>
<!-- Node6 -->
<g id="node7" class="node">
<title>Node6</title>
<g id="a_node7"><a xlink:href="a00092.xhtml#a258c2aefc0d29e112eca90e652730a84" target="_top" xlink:title="Va extraire les donnees cachees en utilisant l&#39;algorithme Metadata dans le formar PNG...">
<polygon fill="#ffffff" stroke="#000000" points="129.5,-95.5 129.5,-114.5 242.5,-114.5 242.5,-95.5 129.5,-95.5"/>
<text text-anchor="middle" x="186" y="-102.5" font-family="Helvetica,sans-Serif" font-size="10.00" fill="#000000">extract_metadata_png</text>
</a>
</g>
</g>
<!-- Node0&#45;&gt;Node6 -->
<g id="edge9" class="edge">
<title>Node0&#45;&gt;Node6</title>
<path fill="none" stroke="#191970" d="M92.2292,-92.274C100.7937,-93.4363 109.8969,-94.6717 118.9347,-95.8983"/>
<polygon fill="#191970" stroke="#191970" points="118.6988,-99.3983 129.0787,-97.275 119.6403,-92.4619 118.6988,-99.3983"/>
</g>
<!-- Node8 -->
<g id="node9" class="node">
<title>Node8</title>
<g id="a_node9"><a xlink:href="a00068.xhtml#aa0a2b469d42533228d073a79868e775b" target="_top" xlink:title="Va extraire les donnees cachees en utilisant l&#39;algorithme Metadata dans le formar AVI...">
<polygon fill="#ffffff" stroke="#000000" points="131,-57.5 131,-76.5 241,-76.5 241,-57.5 131,-57.5"/>
<text text-anchor="middle" x="186" y="-64.5" font-family="Helvetica,sans-Serif" font-size="10.00" fill="#000000">extract_metadata_avi</text>
</a>
</g>
</g>
<!-- Node0&#45;&gt;Node8 -->
<g id="edge15" class="edge">
<title>Node0&#45;&gt;Node8</title>
<path fill="none" stroke="#191970" d="M92.2292,-79.726C101.3326,-78.4906 111.0445,-77.1725 120.6397,-75.8703"/>
<polygon fill="#191970" stroke="#191970" points="121.1278,-79.3363 130.5662,-74.5232 120.1863,-72.3999 121.1278,-79.3363"/>
</g>
<!-- Node9 -->
<g id="node10" class="node">
<title>Node9</title>
<g id="a_node10"><a xlink:href="a00080.xhtml#ac1c7c5c1221f121e1c0014efe23b82f8" target="_top" xlink:title="Va extraire les donnees cachees en utilisant l&#39;algorithme Metadata dans le formar FLV...">
<polygon fill="#ffffff" stroke="#000000" points="132,-19.5 132,-38.5 240,-38.5 240,-19.5 132,-19.5"/>
<text text-anchor="middle" x="186" y="-26.5" font-family="Helvetica,sans-Serif" font-size="10.00" fill="#000000">extract_metadata_flv</text>
</a>
</g>
</g>
<!-- Node0&#45;&gt;Node9 -->
<g id="edge16" class="edge">
<title>Node0&#45;&gt;Node9</title>
<path fill="none" stroke="#191970" d="M64.943,-76.4485C81.3881,-68.3441 105.9561,-56.6837 128,-48 133.4315,-45.8604 139.2114,-43.7617 144.9383,-41.7855"/>
<polygon fill="#191970" stroke="#191970" points="146.0897,-45.091 154.4552,-38.5895 143.8612,-38.4551 146.0897,-45.091"/>
</g>
<!-- Node2 -->
<g id="node3" class="node">
<title>Node2</title>
<g id="a_node3"><a xlink:href="a00122.xhtml#a4e9a217b960dc65fd08dff9f78e317e4" target="_top" xlink:title="Initialise la seed de la suite pseudo aléatoire. ">
<polygon fill="#ffffff" stroke="#000000" points="396,-190.5 396,-209.5 466,-209.5 466,-190.5 396,-190.5"/>
<text text-anchor="middle" x="431" y="-197.5" font-family="Helvetica,sans-Serif" font-size="10.00" fill="#000000">stegx_srand</text>
</a>
</g>
</g>
<!-- Node1&#45;&gt;Node2 -->
<g id="edge2" class="edge">
<title>Node1&#45;&gt;Node2</title>
<path fill="none" stroke="#191970" d="M206.3698,-171.5281C225.0571,-179.7416 253.7394,-191.0374 280,-196 315.037,-202.6211 355.4523,-203.3373 385.6491,-202.5533"/>
<polygon fill="#191970" stroke="#191970" points="385.9973,-206.0439 395.8783,-202.2207 385.7698,-199.0476 385.9973,-206.0439"/>
</g>
<!-- Node3 -->
<g id="node4" class="node">
<title>Node3</title>
<g id="a_node4"><a xlink:href="a00122.xhtml#a2a891bbe3514201de3cfc5acced104b7" target="_top" xlink:title="Cree un seed a partir d&#39;un mot de passe. ">
<polygon fill="#ffffff" stroke="#000000" points="396,-152.5 396,-171.5 466,-171.5 466,-152.5 396,-152.5"/>
<text text-anchor="middle" x="431" y="-159.5" font-family="Helvetica,sans-Serif" font-size="10.00" fill="#000000">create_seed</text>
</a>
</g>
</g>
<!-- Node1&#45;&gt;Node3 -->
<g id="edge3" class="edge">
<title>Node1&#45;&gt;Node3</title>
<path fill="none" stroke="#191970" d="M224.1541,-171.5098C241.1337,-175.2748 261.4452,-179.1436 280,-181 315.3789,-184.5397 324.7479,-185.6353 360,-181 370.7377,-179.5881 382.1598,-177.0239 392.6321,-174.2267"/>
<polygon fill="#191970" stroke="#191970" points="393.6472,-177.5771 402.3283,-171.5035 391.7543,-170.8379 393.6472,-177.5771"/>
</g>
<!-- Node4 -->
<g id="node5" class="node">
<title>Node4</title>
<g id="a_node5"><a xlink:href="a00122.xhtml#a9966534d45c62d0df7a3d5df48668715" target="_top" xlink:title="Renvoie un entier pseudo&#45;aléatoire. ">
<polygon fill="#ffffff" stroke="#000000" points="398.5,-114.5 398.5,-133.5 463.5,-133.5 463.5,-114.5 398.5,-114.5"/>
<text text-anchor="middle" x="431" y="-121.5" font-family="Helvetica,sans-Serif" font-size="10.00" fill="#000000">stegx_rand</text>
</a>
</g>
</g>
<!-- Node1&#45;&gt;Node4 -->
<g id="edge4" class="edge">
<title>Node1&#45;&gt;Node4</title>
<path fill="none" stroke="#191970" d="M229.8719,-152.4297C245.6319,-149.1782 263.5693,-145.6904 280,-143 316.3865,-137.0419 357.9721,-131.9337 388.2769,-128.5193"/>
<polygon fill="#191970" stroke="#191970" points="388.9462,-131.9665 398.4986,-127.3835 388.1732,-125.0093 388.9462,-131.9665"/>
</g>
<!-- Node5 -->
<g id="node6" class="node">
<title>Node5</title>
<g id="a_node6"><a xlink:href="a00116.xhtml#a3fd0a8f9ba189acd34f864c97f059b0f" target="_top" xlink:title="Fait le mélange ou réarrange les octets selon l&#39;algorithme de protection des données. ">
<polygon fill="#ffffff" stroke="#000000" points="284.5,-152.5 284.5,-171.5 355.5,-171.5 355.5,-152.5 284.5,-152.5"/>
<text text-anchor="middle" x="320" y="-159.5" font-family="Helvetica,sans-Serif" font-size="10.00" fill="#000000">protect_data</text>
</a>
</g>
</g>
<!-- Node1&#45;&gt;Node5 -->
<g id="edge5" class="edge">
<title>Node1&#45;&gt;Node5</title>
<path fill="none" stroke="#191970" d="M244.3845,-162C254.329,-162 264.5309,-162 274.0942,-162"/>
<polygon fill="#191970" stroke="#191970" points="274.1785,-165.5001 284.1785,-162 274.1785,-158.5001 274.1785,-165.5001"/>
</g>
<!-- Node5&#45;&gt;Node2 -->
<g id="edge6" class="edge">
<title>Node5&#45;&gt;Node2</title>
<path fill="none" stroke="#191970" d="M348.01,-171.589C361.6817,-176.2694 378.331,-181.9692 393.1184,-187.0315"/>
<polygon fill="#191970" stroke="#191970" points="392.4044,-190.4864 402.999,-190.4141 394.6716,-183.8638 392.4044,-190.4864"/>
</g>
<!-- Node5&#45;&gt;Node3 -->
<g id="edge7" class="edge">
<title>Node5&#45;&gt;Node3</title>
<path fill="none" stroke="#191970" d="M355.7321,-162C365.2336,-162 375.6243,-162 385.5688,-162"/>
<polygon fill="#191970" stroke="#191970" points="385.7145,-165.5001 395.7145,-162 385.7144,-158.5001 385.7145,-165.5001"/>
</g>
<!-- Node5&#45;&gt;Node4 -->
<g id="edge8" class="edge">
<title>Node5&#45;&gt;Node4</title>
<path fill="none" stroke="#191970" d="M348.01,-152.411C361.6817,-147.7306 378.331,-142.0308 393.1184,-136.9685"/>
<polygon fill="#191970" stroke="#191970" points="394.6716,-140.1362 402.999,-133.5859 392.4044,-133.5136 394.6716,-140.1362"/>
</g>
<!-- Node6&#45;&gt;Node2 -->
<g id="edge11" class="edge">
<title>Node6&#45;&gt;Node2</title>
<path fill="none" stroke="#191970" d="M202.7128,-114.5254C214.7042,-121.6923 230.9764,-132.1145 244,-143 261.8503,-157.9198 259.2455,-170.4889 280,-181 312.7192,-197.5706 354.3508,-201.7574 385.6104,-202.1181"/>
<polygon fill="#191970" stroke="#191970" points="385.7901,-205.618 395.7859,-202.1061 385.7818,-198.618 385.7901,-205.618"/>
</g>
<!-- Node6&#45;&gt;Node3 -->
<g id="edge12" class="edge">
<title>Node6&#45;&gt;Node3</title>
<path fill="none" stroke="#191970" d="M232.662,-114.576C267.7754,-121.9309 317.0329,-132.565 360,-143 368.7389,-145.1223 378.0472,-147.5161 386.9491,-149.871"/>
<polygon fill="#191970" stroke="#191970" points="386.2104,-153.2963 396.775,-152.4967 388.0176,-146.5336 386.2104,-153.2963"/>
</g>
<!-- Node6&#45;&gt;Node4 -->
<g id="edge13" class="edge">
<title>Node6&#45;&gt;Node4</title>
<path fill="none" stroke="#191970" d="M216.209,-95.4477C225.1874,-92.5162 235.0215,-89.2138 244,-86 260.1631,-80.2146 263.1271,-75.1654 280,-72 314.9459,-65.4441 326.2057,-60.9482 360,-72 381.1657,-78.9219 401.2448,-94.8175 414.6139,-107.225"/>
<polygon fill="#191970" stroke="#191970" points="412.3991,-109.9521 422.0206,-114.3882 417.2655,-104.9204 412.3991,-109.9521"/>
</g>
<!-- Node6&#45;&gt;Node5 -->
<g id="edge14" class="edge">
<title>Node6&#45;&gt;Node5</title>
<path fill="none" stroke="#191970" d="M208.4286,-114.5405C230.2655,-123.8294 263.6631,-138.0358 288.2296,-148.4857"/>
<polygon fill="#191970" stroke="#191970" points="286.9261,-151.7347 297.4982,-152.4284 289.6662,-145.2933 286.9261,-151.7347"/>
</g>
<!-- Node7 -->
<g id="node8" class="node">
<title>Node7</title>
<g id="a_node8"><a xlink:href="a00056.xhtml#a7434fd197d31a9571f92f9dca4f212e9" target="_top" xlink:title="Convertit un nombre en big endian dans l&#39;endian de la machine. ">
<polygon fill="#ffffff" stroke="#000000" points="280,-.5 280,-19.5 360,-19.5 360,-.5 280,-.5"/>
<text text-anchor="middle" x="320" y="-7.5" font-family="Helvetica,sans-Serif" font-size="10.00" fill="#000000">stegx_be32toh</text>
</a>
</g>
</g>
<!-- Node6&#45;&gt;Node7 -->
<g id="edge10" class="edge">
<title>Node6&#45;&gt;Node7</title>
<path fill="none" stroke="#191970" d="M226.672,-95.4493C232.8142,-92.9664 238.8191,-89.8647 244,-86 266.5309,-69.1928 259.4873,-53.2185 280,-34 283.4167,-30.7989 287.3302,-27.8196 291.3418,-25.1252"/>
<polygon fill="#191970" stroke="#191970" points="293.4527,-27.9355 300.1259,-19.7063 289.7775,-21.9779 293.4527,-27.9355"/>
</g>
</g>
</svg>
