<?xml version="1.0" encoding="UTF-8" standalone="no"?>
<!DOCTYPE svg PUBLIC "-//W3C//DTD SVG 1.1//EN"
 "http://www.w3.org/Graphics/SVG/1.1/DTD/svg11.dtd">
<!-- Generated by graphviz version 2.40.1 (20161225.0304)
 -->
<!-- Title: src/check_compa.c Pages: 1 -->
<!--zoomable 196 -->
<svg id="main" version="1.1" xmlns="http://www.w3.org/2000/svg" xmlns:xlink="http://www.w3.org/1999/xlink" xml:space="preserve" onload="init(evt)">
<style type="text/css"><![CDATA[
.edge:hover path { stroke: red; }
.edge:hover polygon { stroke: red; fill: red; }
]]></style>
<script type="text/javascript"><![CDATA[
var edges = document.getElementsByTagName('g');
if (edges && edges.length) {
  for (var i=0;i<edges.length;i++) {
    if (edges[i].id.substr(0,4)=='edge') {
      edges[i].setAttribute('class','edge');
    }
  }
}
]]></script>
        <defs>
                <circle id="rim" cx="0" cy="0" r="7"/>
                <circle id="rim2" cx="0" cy="0" r="3.5"/>
                <g id="zoomPlus">
                        <use xlink:href="#rim" fill="#404040">
                                <set attributeName="fill" to="#808080" begin="zoomplus.mouseover" end="zoomplus.mouseout"/>
                        </use>
                        <path d="M-4,0h8M0,-4v8" fill="none" stroke="white" stroke-width="1.5" pointer-events="none"/>
                </g>
                <g id="zoomMin">
                        <use xlink:href="#rim" fill="#404040">
                                <set attributeName="fill" to="#808080" begin="zoomminus.mouseover" end="zoomminus.mouseout"/>
                        </use>
                        <path d="M-4,0h8" fill="none" stroke="white" stroke-width="1.5" pointer-events="none"/>
                </g>
                <g id="dirArrow">
                        <path fill="none" stroke="white" stroke-width="1.5" d="M0,-3.0v7 M-2.5,-0.5L0,-3.0L2.5,-0.5"/>
                </g>
               <g id="resetDef">
                       <use xlink:href="#rim2" fill="#404040">
                               <set attributeName="fill" to="#808080" begin="reset.mouseover" end="reset.mouseout"/>
                       </use>
               </g>
        </defs>

<script type="text/javascript">
var viewWidth = 750;
var viewHeight = 196;
var sectionId = 'dynsection-0';
</script>
<script xlink:href="svgpan.js"/>
<svg id="graph" class="graph">
<g id="viewport">
<title>src/check_compa.c</title>
<polygon fill="#ffffff" stroke="transparent" points="-4,4 -4,-192 746.1559,-192 746.1559,4 -4,4"/>
<!-- Node0 -->
<g id="node1" class="node">
<title>Node0</title>
<polygon fill="#bfbfbf" stroke="#000000" points="392.1559,-168.5 392.1559,-187.5 494.1559,-187.5 494.1559,-168.5 392.1559,-168.5"/>
<text text-anchor="middle" x="443.1559" y="-175.5" font-family="Helvetica,sans-Serif" font-size="10.00" fill="#000000">src/check_compa.c</text>
</g>
<!-- Node1 -->
<g id="node2" class="node">
<title>Node1</title>
<polygon fill="#ffffff" stroke="#bfbfbf" points="184.1559,-.5 184.1559,-19.5 230.1559,-19.5 230.1559,-.5 184.1559,-.5"/>
<text text-anchor="middle" x="207.1559" y="-7.5" font-family="Helvetica,sans-Serif" font-size="10.00" fill="#000000">stdio.h</text>
</g>
<!-- Node0&#45;&gt;Node1 -->
<g id="edge1" class="edge">
<title>Node0&#45;&gt;Node1</title>
<path fill="none" stroke="#191970" d="M391.9895,-173.8972C286.8122,-164.2907 52.1528,-136.4272 4.1559,-76 -1.3727,-69.0396 -1.3916,-62.9453 4.1559,-56 25.0442,-29.8489 121.9899,-17.4584 173.988,-12.6067"/>
<polygon fill="#191970" stroke="#191970" points="174.4057,-16.0834 184.0554,-11.7092 173.7841,-9.111 174.4057,-16.0834"/>
</g>
<!-- Node2 -->
<g id="node3" class="node">
<title>Node2</title>
<polygon fill="#ffffff" stroke="#bfbfbf" points="445.1559,-112.5 445.1559,-131.5 493.1559,-131.5 493.1559,-112.5 445.1559,-112.5"/>
<text text-anchor="middle" x="469.1559" y="-119.5" font-family="Helvetica,sans-Serif" font-size="10.00" fill="#000000">stdlib.h</text>
</g>
<!-- Node0&#45;&gt;Node2 -->
<g id="edge2" class="edge">
<title>Node0&#45;&gt;Node2</title>
<path fill="none" stroke="#191970" d="M447.6848,-168.2455C451.1893,-160.6973 456.1486,-150.0158 460.4182,-140.8197"/>
<polygon fill="#191970" stroke="#191970" points="463.6423,-142.1867 464.679,-131.6427 457.2933,-139.2389 463.6423,-142.1867"/>
</g>
<!-- Node3 -->
<g id="node4" class="node">
<title>Node3</title>
<polygon fill="#ffffff" stroke="#bfbfbf" points="511.1559,-112.5 511.1559,-131.5 563.1559,-131.5 563.1559,-112.5 511.1559,-112.5"/>
<text text-anchor="middle" x="537.1559" y="-119.5" font-family="Helvetica,sans-Serif" font-size="10.00" fill="#000000">assert.h</text>
</g>
<!-- Node0&#45;&gt;Node3 -->
<g id="edge3" class="edge">
<title>Node0&#45;&gt;Node3</title>
<path fill="none" stroke="#191970" d="M459.5295,-168.2455C474.0868,-159.5731 495.5869,-146.7645 512.2711,-136.825"/>
<polygon fill="#191970" stroke="#191970" points="514.1703,-139.7676 520.97,-131.6427 510.5876,-133.7539 514.1703,-139.7676"/>
</g>
<!-- Node4 -->
<g id="node5" class="node">
<title>Node4</title>
<g id="a_node5"><a xlink:href="a00008.xhtml" target="_top" xlink:title="Définitions communes à la partie privée et public de la bibliothèque. ">
<polygon fill="#ffffff" stroke="#000000" points="650.1559,-56.5 650.1559,-75.5 742.1559,-75.5 742.1559,-56.5 650.1559,-56.5"/>
<text text-anchor="middle" x="696.1559" y="-63.5" font-family="Helvetica,sans-Serif" font-size="10.00" fill="#000000">stegx_common.h</text>
</a>
</g>
</g>
<!-- Node0&#45;&gt;Node4 -->
<g id="edge4" class="edge">
<title>Node0&#45;&gt;Node4</title>
<path fill="none" stroke="#191970" d="M438.1476,-168.205C431.7036,-154.0653 422.8287,-127.8921 436.1559,-112 442.6966,-104.2005 565.3577,-85.0751 639.8323,-74.0982"/>
<polygon fill="#191970" stroke="#191970" points="640.6182,-77.5204 650.004,-72.6054 639.6018,-70.5946 640.6182,-77.5204"/>
</g>
<!-- Node5 -->
<g id="node6" class="node">
<title>Node5</title>
<g id="a_node6"><a xlink:href="a00011.xhtml" target="_top" xlink:title="Module de gestion des erreurs. ">
<polygon fill="#ffffff" stroke="#000000" points="581.6559,-112.5 581.6559,-131.5 660.6559,-131.5 660.6559,-112.5 581.6559,-112.5"/>
<text text-anchor="middle" x="621.1559" y="-119.5" font-family="Helvetica,sans-Serif" font-size="10.00" fill="#000000">stegx_errors.h</text>
</a>
</g>
</g>
<!-- Node0&#45;&gt;Node5 -->
<g id="edge5" class="edge">
<title>Node0&#45;&gt;Node5</title>
<path fill="none" stroke="#191970" d="M473.7552,-168.3733C503.482,-159.021 548.7718,-144.7725 581.3015,-134.5385"/>
<polygon fill="#191970" stroke="#191970" points="582.4673,-137.8409 590.9559,-131.5011 580.3665,-131.1636 582.4673,-137.8409"/>
</g>
<!-- Node6 -->
<g id="node7" class="node">
<title>Node6</title>
<g id="a_node7"><a xlink:href="a00047.xhtml" target="_top" xlink:title="Définitions communes à la partie privée de la bibliothèque. ">
<polygon fill="#ffffff" stroke="#000000" points="327.1559,-112.5 327.1559,-131.5 389.1559,-131.5 389.1559,-112.5 327.1559,-112.5"/>
<text text-anchor="middle" x="358.1559" y="-119.5" font-family="Helvetica,sans-Serif" font-size="10.00" fill="#000000">common.h</text>
</a>
</g>
</g>
<!-- Node0&#45;&gt;Node6 -->
<g id="edge6" class="edge">
<title>Node0&#45;&gt;Node6</title>
<path fill="none" stroke="#191970" d="M428.3501,-168.2455C415.4303,-159.7337 396.4628,-147.2375 381.5007,-137.3801"/>
<polygon fill="#191970" stroke="#191970" points="383.0683,-134.2216 372.7921,-131.6427 379.2172,-140.067 383.0683,-134.2216"/>
</g>
<!-- Node6&#45;&gt;Node1 -->
<g id="edge7" class="edge">
<title>Node6&#45;&gt;Node1</title>
<path fill="none" stroke="#191970" d="M326.957,-120.1637C245.7732,-115.0691 32.7927,-99.562 12.1559,-76 6.2993,-69.3132 6.6391,-62.9697 12.1559,-56 31.9578,-30.9834 123.5166,-18.1988 173.8207,-12.9617"/>
<polygon fill="#191970" stroke="#191970" points="174.2852,-16.4329 183.8882,-11.9571 173.5901,-9.4675 174.2852,-16.4329"/>
</g>
<!-- Node6&#45;&gt;Node4 -->
<g id="edge9" class="edge">
<title>Node6&#45;&gt;Node4</title>
<path fill="none" stroke="#191970" d="M389.5733,-114.7436C394.1207,-113.7734 398.7515,-112.8287 403.1559,-112 506.1333,-92.6242 532.697,-92.6135 636.1559,-76 637.4169,-75.7975 638.6927,-75.5918 639.979,-75.3837"/>
<polygon fill="#191970" stroke="#191970" points="640.671,-78.8172 649.9772,-73.7531 639.5442,-71.9085 640.671,-78.8172"/>
</g>
<!-- Node7 -->
<g id="node8" class="node">
<title>Node7</title>
<polygon fill="#ffffff" stroke="#bfbfbf" points="381.6559,-.5 381.6559,-19.5 430.6559,-19.5 430.6559,-.5 381.6559,-.5"/>
<text text-anchor="middle" x="406.1559" y="-7.5" font-family="Helvetica,sans-Serif" font-size="10.00" fill="#000000">stdint.h</text>
</g>
<!-- Node6&#45;&gt;Node7 -->
<g id="edge8" class="edge">
<title>Node6&#45;&gt;Node7</title>
<path fill="none" stroke="#191970" d="M389.5927,-114.8435C394.1373,-113.8586 398.7621,-112.8833 403.1559,-112 447.4289,-103.1 574.1901,-110.6452 603.1559,-76 608.8575,-69.1806 608.6807,-62.9634 603.1559,-56 583.2858,-30.9556 492.0507,-18.2683 440.9996,-13.0282"/>
<polygon fill="#191970" stroke="#191970" points="441.0504,-9.5165 430.7559,-12.0213 440.3655,-16.4829 441.0504,-9.5165"/>
</g>
<!-- Node8 -->
<g id="node9" class="node">
<title>Node8</title>
<g id="a_node9"><a xlink:href="a00077.xhtml" target="_top" xlink:title="Fichier BMP. ">
<polygon fill="#ffffff" stroke="#000000" points="510.6559,-56.5 510.6559,-75.5 593.6559,-75.5 593.6559,-56.5 510.6559,-56.5"/>
<text text-anchor="middle" x="552.1559" y="-63.5" font-family="Helvetica,sans-Serif" font-size="10.00" fill="#000000">file_type/bmp.h</text>
</a>
</g>
</g>
<!-- Node6&#45;&gt;Node8 -->
<g id="edge10" class="edge">
<title>Node6&#45;&gt;Node8</title>
<path fill="none" stroke="#191970" d="M386.2637,-112.3733C417.0965,-102.9404 466.8786,-88.5265 503.9358,-78.2747"/>
<polygon fill="#191970" stroke="#191970" points="505.3097,-81.5269 514.024,-75.5011 503.4539,-74.7774 505.3097,-81.5269"/>
</g>
<!-- Node9 -->
<g id="node10" class="node">
<title>Node9</title>
<g id="a_node10"><a xlink:href="a00095.xhtml" target="_top" xlink:title="Fichier PNG. ">
<polygon fill="#ffffff" stroke="#000000" points="117.1559,-56.5 117.1559,-75.5 197.1559,-75.5 197.1559,-56.5 117.1559,-56.5"/>
<text text-anchor="middle" x="157.1559" y="-63.5" font-family="Helvetica,sans-Serif" font-size="10.00" fill="#000000">file_type/png.h</text>
</a>
</g>
</g>
<!-- Node6&#45;&gt;Node9 -->
<g id="edge14" class="edge">
<title>Node6&#45;&gt;Node9</title>
<path fill="none" stroke="#191970" d="M327.1474,-114.679C291.8234,-105.4802 234.3284,-89.5535 196.0553,-78.4314"/>
<polygon fill="#191970" stroke="#191970" points="196.8653,-75.0217 186.2848,-75.573 194.8998,-81.7401 196.8653,-75.0217"/>
</g>
<!-- Node10 -->
<g id="node11" class="node">
<title>Node10</title>
<g id="a_node11"><a xlink:href="a00104.xhtml" target="_top" xlink:title="Fichier WAVE. ">
<polygon fill="#ffffff" stroke="#000000" points="215.6559,-56.5 215.6559,-75.5 298.6559,-75.5 298.6559,-56.5 215.6559,-56.5"/>
<text text-anchor="middle" x="257.1559" y="-63.5" font-family="Helvetica,sans-Serif" font-size="10.00" fill="#000000">file_type/wav.h</text>
</a>
</g>
</g>
<!-- Node6&#45;&gt;Node10 -->
<g id="edge18" class="edge">
<title>Node6&#45;&gt;Node10</title>
<path fill="none" stroke="#191970" d="M335.5514,-112.3733C318.1438,-103.666 294.5247,-90.7145 277.664,-80.7102"/>
<polygon fill="#191970" stroke="#191970" points="279.44,-77.694 269.0746,-75.5011 275.8101,-83.6793 279.44,-77.694"/>
</g>
<!-- Node11 -->
<g id="node12" class="node">
<title>Node11</title>
<g id="a_node12"><a xlink:href="a00089.xhtml" target="_top" xlink:title="Fichier MP3. ">
<polygon fill="#ffffff" stroke="#000000" points="316.6559,-56.5 316.6559,-75.5 399.6559,-75.5 399.6559,-56.5 316.6559,-56.5"/>
<text text-anchor="middle" x="358.1559" y="-63.5" font-family="Helvetica,sans-Serif" font-size="10.00" fill="#000000">file_type/mp3.h</text>
</a>
</g>
</g>
<!-- Node6&#45;&gt;Node11 -->
<g id="edge22" class="edge">
<title>Node6&#45;&gt;Node11</title>
<path fill="none" stroke="#191970" d="M352.8891,-112.2455C351.478,-104.9382 351.0738,-94.6944 351.6764,-85.7046"/>
<polygon fill="#191970" stroke="#191970" points="355.167,-85.9945 352.9108,-75.6427 348.2191,-85.1421 355.167,-85.9945"/>
</g>
<!-- Node12 -->
<g id="node13" class="node">
<title>Node12</title>
<g id="a_node13"><a xlink:href="a00071.xhtml" target="_top" xlink:title="Fichier AVI. ">
<polygon fill="#ffffff" stroke="#000000" points="21.6559,-56.5 21.6559,-75.5 98.6559,-75.5 98.6559,-56.5 21.6559,-56.5"/>
<text text-anchor="middle" x="60.1559" y="-63.5" font-family="Helvetica,sans-Serif" font-size="10.00" fill="#000000">file_type/avi.h</text>
</a>
</g>
</g>
<!-- Node6&#45;&gt;Node12 -->
<g id="edge26" class="edge">
<title>Node6&#45;&gt;Node12</title>
<path fill="none" stroke="#191970" d="M326.7983,-117.4318C279.665,-109.698 188.2901,-93.3542 106.5459,-77.4396"/>
<polygon fill="#191970" stroke="#191970" points="107.1141,-73.9845 96.6285,-75.5016 105.7715,-80.8546 107.1141,-73.9845"/>
</g>
<!-- Node13 -->
<g id="node14" class="node">
<title>Node13</title>
<g id="a_node14"><a xlink:href="a00083.xhtml" target="_top" xlink:title="Fichier FLV. ">
<polygon fill="#ffffff" stroke="#000000" points="417.6559,-56.5 417.6559,-75.5 492.6559,-75.5 492.6559,-56.5 417.6559,-56.5"/>
<text text-anchor="middle" x="455.1559" y="-63.5" font-family="Helvetica,sans-Serif" font-size="10.00" fill="#000000">file_type/flv.h</text>
</a>
</g>
</g>
<!-- Node6&#45;&gt;Node13 -->
<g id="edge29" class="edge">
<title>Node6&#45;&gt;Node13</title>
<path fill="none" stroke="#191970" d="M369.7852,-112.2455C383.3178,-103.4527 405.6731,-90.4079 424.2042,-80.4125"/>
<polygon fill="#191970" stroke="#191970" points="426.01,-83.4167 433.2083,-75.6427 422.7332,-77.2311 426.01,-83.4167"/>
</g>
<!-- Node8&#45;&gt;Node1 -->
<g id="edge11" class="edge">
<title>Node8&#45;&gt;Node1</title>
<path fill="none" stroke="#191970" d="M510.4393,-57.5182C507.6385,-56.9915 504.8578,-56.4806 502.1559,-56 407.4258,-39.1492 294.9717,-22.5501 240.3028,-14.6972"/>
<polygon fill="#191970" stroke="#191970" points="240.5569,-11.198 230.1619,-13.2458 239.5651,-18.1274 240.5569,-11.198"/>
</g>
<!-- Node8&#45;&gt;Node6 -->
<g id="edge13" class="edge">
<title>Node8&#45;&gt;Node6</title>
<path fill="none" stroke="#191970" d="M524.3283,-75.541C491.488,-85.5933 436.8794,-101.3705 399.2069,-111.7001"/>
<polygon fill="#191970" stroke="#191970" points="398.2707,-108.3275 389.5409,-114.3309 400.1091,-115.0819 398.2707,-108.3275"/>
</g>
<!-- Node8&#45;&gt;Node7 -->
<g id="edge12" class="edge">
<title>Node8&#45;&gt;Node7</title>
<path fill="none" stroke="#191970" d="M527.0576,-56.3733C503.2004,-47.2226 467.1224,-33.3844 440.5849,-23.2057"/>
<polygon fill="#191970" stroke="#191970" points="441.5169,-19.8145 430.9267,-19.5011 439.01,-26.3503 441.5169,-19.8145"/>
</g>
<!-- Node9&#45;&gt;Node1 -->
<g id="edge15" class="edge">
<title>Node9&#45;&gt;Node1</title>
<path fill="none" stroke="#191970" d="M165.8653,-56.2455C172.9632,-48.2958 183.1644,-36.8706 191.6509,-27.3656"/>
<polygon fill="#191970" stroke="#191970" points="194.497,-29.4331 198.5464,-19.6427 189.2754,-24.771 194.497,-29.4331"/>
</g>
<!-- Node9&#45;&gt;Node6 -->
<g id="edge17" class="edge">
<title>Node9&#45;&gt;Node6</title>
<path fill="none" stroke="#191970" d="M196.4755,-75.5011C231.8815,-84.8494 283.4788,-99.1765 318.8693,-109.4561"/>
<polygon fill="#191970" stroke="#191970" points="318.2644,-112.9257 328.8448,-112.3733 320.2292,-106.2071 318.2644,-112.9257"/>
</g>
<!-- Node9&#45;&gt;Node7 -->
<g id="edge16" class="edge">
<title>Node9&#45;&gt;Node7</title>
<path fill="none" stroke="#191970" d="M197.1621,-57.0026C245.3718,-46.1603 325.5859,-28.1202 371.3463,-17.8287"/>
<polygon fill="#191970" stroke="#191970" points="372.393,-21.1808 381.3813,-15.5718 370.857,-14.3514 372.393,-21.1808"/>
</g>
<!-- Node10&#45;&gt;Node1 -->
<g id="edge19" class="edge">
<title>Node10&#45;&gt;Node1</title>
<path fill="none" stroke="#191970" d="M248.4466,-56.2455C241.3486,-48.2958 231.1475,-36.8706 222.6609,-27.3656"/>
<polygon fill="#191970" stroke="#191970" points="225.0364,-24.771 215.7655,-19.6427 219.8149,-29.4331 225.0364,-24.771"/>
</g>
<!-- Node10&#45;&gt;Node6 -->
<g id="edge21" class="edge">
<title>Node10&#45;&gt;Node6</title>
<path fill="none" stroke="#191970" d="M279.7923,-75.6427C297.056,-84.2794 320.4159,-97.0824 337.2375,-107.0465"/>
<polygon fill="#191970" stroke="#191970" points="335.4623,-110.0632 345.8299,-112.2455 339.0861,-104.0741 335.4623,-110.0632"/>
</g>
<!-- Node10&#45;&gt;Node7 -->
<g id="edge20" class="edge">
<title>Node10&#45;&gt;Node7</title>
<path fill="none" stroke="#191970" d="M282.7699,-56.3733C307.3728,-47.1265 344.7107,-33.0935 371.8687,-22.8865"/>
<polygon fill="#191970" stroke="#191970" points="373.2419,-26.1095 381.3713,-19.315 370.7792,-19.557 373.2419,-26.1095"/>
</g>
<!-- Node11&#45;&gt;Node1 -->
<g id="edge23" class="edge">
<title>Node11&#45;&gt;Node1</title>
<path fill="none" stroke="#191970" d="M332.1981,-56.3733C306.6642,-46.9037 267.5948,-32.4144 239.9321,-22.1554"/>
<polygon fill="#191970" stroke="#191970" points="240.8959,-18.7799 230.3028,-18.5843 238.4618,-25.3431 240.8959,-18.7799"/>
</g>
<!-- Node11&#45;&gt;Node6 -->
<g id="edge25" class="edge">
<title>Node11&#45;&gt;Node6</title>
<path fill="none" stroke="#191970" d="M363.4011,-75.6427C364.8224,-82.9199 365.2369,-93.155 364.6446,-102.1575"/>
<polygon fill="#191970" stroke="#191970" points="361.1506,-101.8972 363.4228,-112.2455 368.0998,-102.739 361.1506,-101.8972"/>
</g>
<!-- Node11&#45;&gt;Node7 -->
<g id="edge24" class="edge">
<title>Node11&#45;&gt;Node7</title>
<path fill="none" stroke="#191970" d="M366.5169,-56.2455C373.3309,-48.2958 383.124,-36.8706 391.2711,-27.3656"/>
<polygon fill="#191970" stroke="#191970" points="394.0402,-29.513 397.8908,-19.6427 388.7254,-24.9575 394.0402,-29.513"/>
</g>
<!-- Node12&#45;&gt;Node1 -->
<g id="edge27" class="edge">
<title>Node12&#45;&gt;Node1</title>
<path fill="none" stroke="#191970" d="M85.4261,-56.3733C110.1374,-46.9594 147.8711,-32.5847 174.7716,-22.3369"/>
<polygon fill="#191970" stroke="#191970" points="176.0492,-25.5956 184.148,-18.7649 173.5572,-19.0542 176.0492,-25.5956"/>
</g>
<!-- Node12&#45;&gt;Node6 -->
<g id="edge28" class="edge">
<title>Node12&#45;&gt;Node6</title>
<path fill="none" stroke="#191970" d="M98.9079,-72.3496C105.0704,-73.5858 111.3088,-74.8531 117.1559,-76 187.3577,-89.7693 268.8958,-104.5452 316.9792,-113.5319"/>
<polygon fill="#191970" stroke="#191970" points="316.5315,-117.0089 327.0055,-115.4139 317.8229,-110.129 316.5315,-117.0089"/>
</g>
<!-- Node13&#45;&gt;Node1 -->
<g id="edge30" class="edge">
<title>Node13&#45;&gt;Node1</title>
<path fill="none" stroke="#191970" d="M417.4901,-57.4948C369.2173,-46.5945 286.2901,-27.869 240.3043,-17.4851"/>
<polygon fill="#191970" stroke="#191970" points="240.7898,-14.0067 230.2645,-15.2181 239.2479,-20.8348 240.7898,-14.0067"/>
</g>
<!-- Node13&#45;&gt;Node6 -->
<g id="edge32" class="edge">
<title>Node13&#45;&gt;Node6</title>
<path fill="none" stroke="#191970" d="M443.6986,-75.6427C430.2411,-84.3993 407.9073,-97.4388 389.3439,-107.46"/>
<polygon fill="#191970" stroke="#191970" points="387.514,-104.4686 380.3189,-112.2455 390.7933,-110.653 387.514,-104.4686"/>
</g>
<!-- Node13&#45;&gt;Node7 -->
<g id="edge31" class="edge">
<title>Node13&#45;&gt;Node7</title>
<path fill="none" stroke="#191970" d="M446.6208,-56.2455C439.6648,-48.2958 429.6677,-36.8706 421.3508,-27.3656"/>
<polygon fill="#191970" stroke="#191970" points="423.8124,-24.8637 414.5933,-19.6427 418.5443,-29.4732 423.8124,-24.8637"/>
</g>
</g>
</svg>
        <g id="navigator" transform="translate(0 0)" fill="#404254">
                <rect fill="#f2f5e9" fill-opacity="0.5" stroke="#606060" stroke-width=".5" x="0" y="0" width="60" height="60"/>
                <use id="zoomplus" xlink:href="#zoomPlus" x="17" y="9" onmousedown="handleZoom(evt,'in')"/>
                <use id="zoomminus" xlink:href="#zoomMin" x="42" y="9" onmousedown="handleZoom(evt,'out')"/>
                <use id="reset" xlink:href="#resetDef" x="30" y="36" onmousedown="handleReset()"/>
                <g id="arrowUp" xlink:href="#dirArrow" transform="translate(30 24)" onmousedown="handlePan(0,-1)">
                  <use xlink:href="#rim" fill="#404040">
                        <set attributeName="fill" to="#808080" begin="arrowUp.mouseover" end="arrowUp.mouseout"/>
                  </use>
                  <path fill="none" stroke="white" stroke-width="1.5" d="M0,-3.0v7 M-2.5,-0.5L0,-3.0L2.5,-0.5"/>
                </g>
                <g id="arrowRight" xlink:href="#dirArrow" transform="rotate(90) translate(36 -43)" onmousedown="handlePan(1,0)">
                  <use xlink:href="#rim" fill="#404040">
                        <set attributeName="fill" to="#808080" begin="arrowRight.mouseover" end="arrowRight.mouseout"/>
                  </use>
                  <path fill="none" stroke="white" stroke-width="1.5" d="M0,-3.0v7 M-2.5,-0.5L0,-3.0L2.5,-0.5"/>
                </g>
                <g id="arrowDown" xlink:href="#dirArrow" transform="rotate(180) translate(-30 -48)" onmousedown="handlePan(0,1)">
                  <use xlink:href="#rim" fill="#404040">
                        <set attributeName="fill" to="#808080" begin="arrowDown.mouseover" end="arrowDown.mouseout"/>
                  </use>
                  <path fill="none" stroke="white" stroke-width="1.5" d="M0,-3.0v7 M-2.5,-0.5L0,-3.0L2.5,-0.5"/>
                </g>
                <g id="arrowLeft" xlink:href="#dirArrow" transform="rotate(270) translate(-36 17)" onmousedown="handlePan(-1,0)">
                  <use xlink:href="#rim" fill="#404040">
                        <set attributeName="fill" to="#808080" begin="arrowLeft.mouseover" end="arrowLeft.mouseout"/>
                  </use>
                  <path fill="none" stroke="white" stroke-width="1.5" d="M0,-3.0v7 M-2.5,-0.5L0,-3.0L2.5,-0.5"/>
                </g>
        </g>
        <svg viewBox="0 0 15 15" width="100%" height="30px" preserveAspectRatio="xMaxYMin meet">
         <g id="arrow_out" transform="scale(0.3 0.3)">
          <a xlink:href="a00045_org.svg" target="_base">
           <rect id="button" ry="5" rx="5" y="6" x="6" height="38" width="38"
                fill="#f2f5e9" fill-opacity="0.5" stroke="#606060" stroke-width="1.0"/>
           <path id="arrow"
             d="M 11.500037,31.436501 C 11.940474,20.09759 22.043105,11.32322 32.158766,21.979434 L 37.068811,17.246167 C 37.068811,17.246167 37.088388,32 37.088388,32 L 22.160133,31.978069 C 22.160133,31.978069 26.997745,27.140456 26.997745,27.140456 C 18.528582,18.264221 13.291696,25.230495 11.500037,31.436501 z"
             style="fill:#404040;"/>
          </a>
         </g>
        </svg>
</svg>
