<?xml version="1.0" encoding="UTF-8" standalone="no"?>
<!DOCTYPE svg PUBLIC "-//W3C//DTD SVG 1.1//EN"
 "http://www.w3.org/Graphics/SVG/1.1/DTD/svg11.dtd">
<!-- Generated by graphviz version 2.40.1 (20161225.0304)
 -->
<!-- Title: extract_metadata_bmp Pages: 1 -->
<svg width="337pt" height="122pt"
 viewBox="0.00 0.00 337.00 122.00" xmlns="http://www.w3.org/2000/svg" xmlns:xlink="http://www.w3.org/1999/xlink">
<g id="graph0" class="graph" transform="scale(1 1) rotate(0) translate(4 118)">
<title>extract_metadata_bmp</title>
<polygon fill="#ffffff" stroke="transparent" points="-4,4 -4,-118 333,-118 333,4 -4,4"/>
<!-- Node0 -->
<g id="node1" class="node">
<title>Node0</title>
<polygon fill="#bfbfbf" stroke="#000000" points="0,-47.5 0,-66.5 116,-66.5 116,-47.5 0,-47.5"/>
<text text-anchor="middle" x="58" y="-54.5" font-family="Helvetica,sans-Serif" font-size="10.00" fill="#000000">extract_metadata_bmp</text>
</g>
<!-- Node1 -->
<g id="node2" class="node">
<title>Node1</title>
<g id="a_node2"><a xlink:href="a00122.xhtml#a4e9a217b960dc65fd08dff9f78e317e4" target="_top" xlink:title="Initialise la seed de la suite pseudo aléatoire. ">
<polygon fill="#ffffff" stroke="#000000" points="259,-94.5 259,-113.5 329,-113.5 329,-94.5 259,-94.5"/>
<text text-anchor="middle" x="294" y="-101.5" font-family="Helvetica,sans-Serif" font-size="10.00" fill="#000000">stegx_srand</text>
</a>
</g>
</g>
<!-- Node0&#45;&gt;Node1 -->
<g id="edge1" class="edge">
<title>Node0&#45;&gt;Node1</title>
<path fill="none" stroke="#191970" d="M76.5054,-66.558C95.0578,-75.6354 124.7096,-88.7903 152,-95 183.7166,-102.2169 220.3747,-104.3907 248.4993,-104.8"/>
<polygon fill="#191970" stroke="#191970" points="248.8065,-108.3023 258.8325,-104.8773 248.859,-101.3025 248.8065,-108.3023"/>
</g>
<!-- Node2 -->
<g id="node3" class="node">
<title>Node2</title>
<g id="a_node3"><a xlink:href="a00122.xhtml#a2a891bbe3514201de3cfc5acced104b7" target="_top" xlink:title="Cree un seed a partir d&#39;un mot de passe. ">
<polygon fill="#ffffff" stroke="#000000" points="259,-47.5 259,-66.5 329,-66.5 329,-47.5 259,-47.5"/>
<text text-anchor="middle" x="294" y="-54.5" font-family="Helvetica,sans-Serif" font-size="10.00" fill="#000000">create_seed</text>
</a>
</g>
</g>
<!-- Node0&#45;&gt;Node2 -->
<g id="edge2" class="edge">
<title>Node0&#45;&gt;Node2</title>
<path fill="none" stroke="#191970" d="M116.0344,-57C156.9525,-57 210.973,-57 248.7205,-57"/>
<polygon fill="#191970" stroke="#191970" points="248.9114,-60.5001 258.9113,-57 248.9113,-53.5001 248.9114,-60.5001"/>
</g>
<!-- Node3 -->
<g id="node4" class="node">
<title>Node3</title>
<g id="a_node4"><a xlink:href="a00122.xhtml#a9966534d45c62d0df7a3d5df48668715" target="_top" xlink:title="Renvoie un entier pseudo&#45;aléatoire. ">
<polygon fill="#ffffff" stroke="#000000" points="261.5,-.5 261.5,-19.5 326.5,-19.5 326.5,-.5 261.5,-.5"/>
<text text-anchor="middle" x="294" y="-7.5" font-family="Helvetica,sans-Serif" font-size="10.00" fill="#000000">stegx_rand</text>
</a>
</g>
</g>
<!-- Node0&#45;&gt;Node3 -->
<g id="edge3" class="edge">
<title>Node0&#45;&gt;Node3</title>
<path fill="none" stroke="#191970" d="M105.7581,-47.4888C148.4708,-38.9825 210.489,-26.6314 251.5114,-18.4617"/>
<polygon fill="#191970" stroke="#191970" points="252.3401,-21.8655 261.4639,-16.4796 250.9729,-15.0003 252.3401,-21.8655"/>
</g>
<!-- Node4 -->
<g id="node5" class="node">
<title>Node4</title>
<g id="a_node5"><a xlink:href="a00116.xhtml#a3fd0a8f9ba189acd34f864c97f059b0f" target="_top" xlink:title="Fait le mélange ou réarrange les octets selon l&#39;algorithme de protection des données. ">
<polygon fill="#ffffff" stroke="#000000" points="152,-66.5 152,-85.5 223,-85.5 223,-66.5 152,-66.5"/>
<text text-anchor="middle" x="187.5" y="-73.5" font-family="Helvetica,sans-Serif" font-size="10.00" fill="#000000">protect_data</text>
</a>
</g>
</g>
<!-- Node0&#45;&gt;Node4 -->
<g id="edge4" class="edge">
<title>Node0&#45;&gt;Node4</title>
<path fill="none" stroke="#191970" d="M116.3098,-65.5551C124.8064,-66.8017 133.4525,-68.0702 141.6549,-69.2737"/>
<polygon fill="#191970" stroke="#191970" points="141.3605,-72.7679 151.7627,-70.7567 142.3767,-65.842 141.3605,-72.7679"/>
</g>
<!-- Node4&#45;&gt;Node1 -->
<g id="edge5" class="edge">
<title>Node4&#45;&gt;Node1</title>
<path fill="none" stroke="#191970" d="M223.2592,-85.4015C231.5115,-87.5711 240.3942,-89.9065 248.984,-92.1648"/>
<polygon fill="#191970" stroke="#191970" points="248.3165,-95.6082 258.8778,-94.766 250.0964,-88.8382 248.3165,-95.6082"/>
</g>
<!-- Node4&#45;&gt;Node2 -->
<g id="edge6" class="edge">
<title>Node4&#45;&gt;Node2</title>
<path fill="none" stroke="#191970" d="M223.2592,-69.6204C231.5115,-68.1482 240.3942,-66.5635 248.984,-65.031"/>
<polygon fill="#191970" stroke="#191970" points="249.6479,-68.4679 258.8778,-63.2659 248.4185,-61.5767 249.6479,-68.4679"/>
</g>
<!-- Node4&#45;&gt;Node3 -->
<g id="edge7" class="edge">
<title>Node4&#45;&gt;Node3</title>
<path fill="none" stroke="#191970" d="M203.2144,-66.2615C220.7761,-55.3782 249.4201,-37.627 269.8356,-24.9751"/>
<polygon fill="#191970" stroke="#191970" points="271.9109,-27.8067 278.5673,-19.5639 268.2235,-21.8566 271.9109,-27.8067"/>
</g>
</g>
</svg>
