<?xml version="1.0" encoding="UTF-8" standalone="no"?>
<!DOCTYPE svg PUBLIC "-//W3C//DTD SVG 1.1//EN"
 "http://www.w3.org/Graphics/SVG/1.1/DTD/svg11.dtd">
<!-- Generated by graphviz version 2.40.1 (20161225.0304)
 -->
<!-- Title: stegx_test_file_mp3 Pages: 1 -->
<svg width="253pt" height="104pt"
 viewBox="0.00 0.00 253.00 104.00" xmlns="http://www.w3.org/2000/svg" xmlns:xlink="http://www.w3.org/1999/xlink">
<g id="graph0" class="graph" transform="scale(1 1) rotate(0) translate(4 100)">
<title>stegx_test_file_mp3</title>
<polygon fill="#ffffff" stroke="transparent" points="-4,4 -4,-100 249,-100 249,4 -4,4"/>
<!-- Node69 -->
<g id="node1" class="node">
<title>Node69</title>
<polygon fill="#bfbfbf" stroke="#000000" points="0,-38.5 0,-57.5 104,-57.5 104,-38.5 0,-38.5"/>
<text text-anchor="middle" x="52" y="-45.5" font-family="Helvetica,sans-Serif" font-size="10.00" fill="#000000">stegx_test_file_mp3</text>
</g>
<!-- Node70 -->
<g id="node2" class="node">
<title>Node70</title>
<g id="a_node2"><a xlink:href="a00056.xhtml#a7434fd197d31a9571f92f9dca4f212e9" target="_top" xlink:title="Convertit un nombre en big endian dans l&#39;endian de la machine. ">
<polygon fill="#ffffff" stroke="#000000" points="152.5,-76.5 152.5,-95.5 232.5,-95.5 232.5,-76.5 152.5,-76.5"/>
<text text-anchor="middle" x="192.5" y="-83.5" font-family="Helvetica,sans-Serif" font-size="10.00" fill="#000000">stegx_be32toh</text>
</a>
</g>
</g>
<!-- Node69&#45;&gt;Node70 -->
<g id="edge1" class="edge">
<title>Node69&#45;&gt;Node70</title>
<path fill="none" stroke="#191970" d="M87.4541,-57.589C105.5913,-62.4944 127.8684,-68.5196 147.2334,-73.7571"/>
<polygon fill="#191970" stroke="#191970" points="146.4903,-77.1818 157.0573,-76.4141 148.3179,-70.4246 146.4903,-77.1818"/>
</g>
<!-- Node71 -->
<g id="node3" class="node">
<title>Node71</title>
<g id="a_node3"><a xlink:href="a00086.xhtml#ad5c1775e3137194eae404a93a564ab96" target="_top" xlink:title="Test si le header est un header ID3v2. ">
<polygon fill="#ffffff" stroke="#000000" points="140.5,-38.5 140.5,-57.5 244.5,-57.5 244.5,-38.5 140.5,-38.5"/>
<text text-anchor="middle" x="192.5" y="-45.5" font-family="Helvetica,sans-Serif" font-size="10.00" fill="#000000">mp3_id3v2_hdr_test</text>
</a>
</g>
</g>
<!-- Node69&#45;&gt;Node71 -->
<g id="edge2" class="edge">
<title>Node69&#45;&gt;Node71</title>
<path fill="none" stroke="#191970" d="M104.317,-48C112.7285,-48 121.5076,-48 130.1266,-48"/>
<polygon fill="#191970" stroke="#191970" points="130.1393,-51.5001 140.1393,-48 130.1393,-44.5001 130.1393,-51.5001"/>
</g>
<!-- Node72 -->
<g id="node4" class="node">
<title>Node72</title>
<g id="a_node4"><a xlink:href="a00086.xhtml#a75bc8b052a4d00ab95b05b576918360d" target="_top" xlink:title="Test si le header est un header MPEG 1/2 Layer III. ">
<polygon fill="#ffffff" stroke="#000000" points="140,-.5 140,-19.5 245,-19.5 245,-.5 140,-.5"/>
<text text-anchor="middle" x="192.5" y="-7.5" font-family="Helvetica,sans-Serif" font-size="10.00" fill="#000000">mp3_mpeg_hdr_test</text>
</a>
</g>
</g>
<!-- Node69&#45;&gt;Node72 -->
<g id="edge3" class="edge">
<title>Node69&#45;&gt;Node72</title>
<path fill="none" stroke="#191970" d="M87.4541,-38.411C105.5913,-33.5056 127.8684,-27.4804 147.2334,-22.2429"/>
<polygon fill="#191970" stroke="#191970" points="148.3179,-25.5754 157.0573,-19.5859 146.4903,-18.8182 148.3179,-25.5754"/>
</g>
</g>
</svg>
