<?xml version="1.0" encoding="UTF-8" standalone="no"?>
<!DOCTYPE svg PUBLIC "-//W3C//DTD SVG 1.1//EN"
 "http://www.w3.org/Graphics/SVG/1.1/DTD/svg11.dtd">
<!-- Generated by graphviz version 2.40.1 (20161225.0304)
 -->
<!-- Title: src/file_type/bmp.c Pages: 1 -->
<!--zoomable 196 -->
<svg id="main" version="1.1" xmlns="http://www.w3.org/2000/svg" xmlns:xlink="http://www.w3.org/1999/xlink" xml:space="preserve" onload="init(evt)">
<style type="text/css"><![CDATA[
.edge:hover path { stroke: red; }
.edge:hover polygon { stroke: red; fill: red; }
]]></style>
<script type="text/javascript"><![CDATA[
var edges = document.getElementsByTagName('g');
if (edges && edges.length) {
  for (var i=0;i<edges.length;i++) {
    if (edges[i].id.substr(0,4)=='edge') {
      edges[i].setAttribute('class','edge');
    }
  }
}
]]></script>
        <defs>
                <circle id="rim" cx="0" cy="0" r="7"/>
                <circle id="rim2" cx="0" cy="0" r="3.5"/>
                <g id="zoomPlus">
                        <use xlink:href="#rim" fill="#404040">
                                <set attributeName="fill" to="#808080" begin="zoomplus.mouseover" end="zoomplus.mouseout"/>
                        </use>
                        <path d="M-4,0h8M0,-4v8" fill="none" stroke="white" stroke-width="1.5" pointer-events="none"/>
                </g>
                <g id="zoomMin">
                        <use xlink:href="#rim" fill="#404040">
                                <set attributeName="fill" to="#808080" begin="zoomminus.mouseover" end="zoomminus.mouseout"/>
                        </use>
                        <path d="M-4,0h8" fill="none" stroke="white" stroke-width="1.5" pointer-events="none"/>
                </g>
                <g id="dirArrow">
                        <path fill="none" stroke="white" stroke-width="1.5" d="M0,-3.0v7 M-2.5,-0.5L0,-3.0L2.5,-0.5"/>
                </g>
               <g id="resetDef">
                       <use xlink:href="#rim2" fill="#404040">
                               <set attributeName="fill" to="#808080" begin="reset.mouseover" end="reset.mouseout"/>
                       </use>
               </g>
        </defs>

<script type="text/javascript">
var viewWidth = 1186;
var viewHeight = 196;
var sectionId = 'dynsection-0';
</script>
<script xlink:href="svgpan.js"/>
<svg id="graph" class="graph">
<g id="viewport">
<title>src/file_type/bmp.c</title>
<polygon fill="#ffffff" stroke="transparent" points="-4,4 -4,-192 1182.1292,-192 1182.1292,4 -4,4"/>
<!-- Node0 -->
<g id="node1" class="node">
<title>Node0</title>
<polygon fill="#bfbfbf" stroke="#000000" points="802.3611,-168.5 802.3611,-187.5 902.3611,-187.5 902.3611,-168.5 802.3611,-168.5"/>
<text text-anchor="middle" x="852.3611" y="-175.5" font-family="Helvetica,sans-Serif" font-size="10.00" fill="#000000">src/file_type/bmp.c</text>
</g>
<!-- Node1 -->
<g id="node2" class="node">
<title>Node1</title>
<polygon fill="#ffffff" stroke="#bfbfbf" points="316.3611,-.5 316.3611,-19.5 362.3611,-19.5 362.3611,-.5 316.3611,-.5"/>
<text text-anchor="middle" x="339.3611" y="-7.5" font-family="Helvetica,sans-Serif" font-size="10.00" fill="#000000">stdio.h</text>
</g>
<!-- Node0&#45;&gt;Node1 -->
<g id="edge1" class="edge">
<title>Node0&#45;&gt;Node1</title>
<path fill="none" stroke="#191970" d="M802.3434,-175.8579C628.2296,-167.8866 56.4277,-137.1994 4.3611,-76 -1.3988,-69.2298 -1.4812,-62.6993 4.3611,-56 24.0475,-33.4257 225.2549,-17.6092 306.0493,-12.1227"/>
<polygon fill="#191970" stroke="#191970" points="306.4317,-15.6051 316.1762,-11.4466 305.9652,-8.6207 306.4317,-15.6051"/>
</g>
<!-- Node2 -->
<g id="node3" class="node">
<title>Node2</title>
<polygon fill="#ffffff" stroke="#bfbfbf" points="1114.3611,-.5 1114.3611,-19.5 1162.3611,-19.5 1162.3611,-.5 1114.3611,-.5"/>
<text text-anchor="middle" x="1138.3611" y="-7.5" font-family="Helvetica,sans-Serif" font-size="10.00" fill="#000000">stdlib.h</text>
</g>
<!-- Node0&#45;&gt;Node2 -->
<g id="edge2" class="edge">
<title>Node0&#45;&gt;Node2</title>
<path fill="none" stroke="#191970" d="M902.4071,-169.9491C985.1355,-155.4512 1144.2968,-122.114 1174.3611,-76 1184.9465,-59.7636 1171.1375,-40.1556 1157.6736,-26.5509"/>
<polygon fill="#191970" stroke="#191970" points="1160.06,-23.9906 1150.3862,-19.67 1155.2542,-29.0802 1160.06,-23.9906"/>
</g>
<!-- Node3 -->
<g id="node4" class="node">
<title>Node3</title>
<polygon fill="#ffffff" stroke="#bfbfbf" points="595.8611,-.5 595.8611,-19.5 644.8611,-19.5 644.8611,-.5 595.8611,-.5"/>
<text text-anchor="middle" x="620.3611" y="-7.5" font-family="Helvetica,sans-Serif" font-size="10.00" fill="#000000">stdint.h</text>
</g>
<!-- Node0&#45;&gt;Node3 -->
<g id="edge3" class="edge">
<title>Node0&#45;&gt;Node3</title>
<path fill="none" stroke="#191970" d="M802.2107,-168.7261C760.3605,-160.1513 704.8369,-146.5652 687.3611,-132 658.5022,-107.9475 668.8805,-88.6862 650.3611,-56 645.0339,-46.5976 638.5431,-36.5038 632.9634,-28.1739"/>
<polygon fill="#191970" stroke="#191970" points="635.6815,-25.9471 627.1614,-19.6496 629.8948,-29.8858 635.6815,-25.9471"/>
</g>
<!-- Node4 -->
<g id="node5" class="node">
<title>Node4</title>
<polygon fill="#ffffff" stroke="#bfbfbf" points="696.3611,-112.5 696.3611,-131.5 748.3611,-131.5 748.3611,-112.5 696.3611,-112.5"/>
<text text-anchor="middle" x="722.3611" y="-119.5" font-family="Helvetica,sans-Serif" font-size="10.00" fill="#000000">assert.h</text>
</g>
<!-- Node0&#45;&gt;Node4 -->
<g id="edge4" class="edge">
<title>Node0&#45;&gt;Node4</title>
<path fill="none" stroke="#191970" d="M830.0133,-168.3733C808.9578,-159.3032 777.2116,-145.6279 753.6436,-135.4755"/>
<polygon fill="#191970" stroke="#191970" points="754.9861,-132.243 744.4173,-131.5011 752.2167,-138.6719 754.9861,-132.243"/>
</g>
<!-- Node5 -->
<g id="node6" class="node">
<title>Node5</title>
<g id="a_node6"><a xlink:href="a00047.xhtml" target="_top" xlink:title="Définitions communes à la partie privée de la bibliothèque. ">
<polygon fill="#ffffff" stroke="#000000" points="358.3611,-112.5 358.3611,-131.5 420.3611,-131.5 420.3611,-112.5 358.3611,-112.5"/>
<text text-anchor="middle" x="389.3611" y="-119.5" font-family="Helvetica,sans-Serif" font-size="10.00" fill="#000000">common.h</text>
</a>
</g>
</g>
<!-- Node0&#45;&gt;Node5 -->
<g id="edge5" class="edge">
<title>Node0&#45;&gt;Node5</title>
<path fill="none" stroke="#191970" d="M801.9306,-171.9004C709.6848,-160.7433 515.4621,-137.252 430.5562,-126.9826"/>
<polygon fill="#191970" stroke="#191970" points="430.866,-123.4946 420.5181,-125.7684 430.0254,-130.444 430.866,-123.4946"/>
</g>
<!-- Node6 -->
<g id="node7" class="node">
<title>Node6</title>
<g id="a_node7"><a xlink:href="a00008.xhtml" target="_top" xlink:title="Définitions communes à la partie privée et public de la bibliothèque. ">
<polygon fill="#ffffff" stroke="#000000" points="719.3611,-56.5 719.3611,-75.5 811.3611,-75.5 811.3611,-56.5 719.3611,-56.5"/>
<text text-anchor="middle" x="765.3611" y="-63.5" font-family="Helvetica,sans-Serif" font-size="10.00" fill="#000000">stegx_common.h</text>
</a>
</g>
</g>
<!-- Node0&#45;&gt;Node6 -->
<g id="edge32" class="edge">
<title>Node0&#45;&gt;Node6</title>
<path fill="none" stroke="#191970" d="M851.6181,-168.1351C850.1474,-154.3729 845.8338,-129.1726 833.3611,-112 823.7654,-98.7884 809.14,-88.1893 795.9083,-80.5102"/>
<polygon fill="#191970" stroke="#191970" points="797.5023,-77.3928 787.0494,-75.6642 794.1429,-83.534 797.5023,-77.3928"/>
</g>
<!-- Node13 -->
<g id="node14" class="node">
<title>Node13</title>
<g id="a_node14"><a xlink:href="a00011.xhtml" target="_top" xlink:title="Module de gestion des erreurs. ">
<polygon fill="#ffffff" stroke="#000000" points="934.8611,-56.5 934.8611,-75.5 1013.8611,-75.5 1013.8611,-56.5 934.8611,-56.5"/>
<text text-anchor="middle" x="974.3611" y="-63.5" font-family="Helvetica,sans-Serif" font-size="10.00" fill="#000000">stegx_errors.h</text>
</a>
</g>
</g>
<!-- Node0&#45;&gt;Node13 -->
<g id="edge33" class="edge">
<title>Node0&#45;&gt;Node13</title>
<path fill="none" stroke="#191970" d="M902.6457,-170.1073C925.9812,-163.7764 951.9163,-152.4022 967.3611,-132 977.239,-118.9515 978.3109,-100.0662 977.3075,-85.8372"/>
<polygon fill="#191970" stroke="#191970" points="980.7568,-85.1829 976.1865,-75.6245 973.7986,-85.9468 980.7568,-85.1829"/>
</g>
<!-- Node14 -->
<g id="node15" class="node">
<title>Node14</title>
<g id="a_node15"><a xlink:href="a00113.xhtml" target="_top" xlink:title="Insertion des données cachées dans une copie de l&#39;hôte. ">
<polygon fill="#ffffff" stroke="#000000" points="766.3611,-112.5 766.3611,-131.5 824.3611,-131.5 824.3611,-112.5 766.3611,-112.5"/>
<text text-anchor="middle" x="795.3611" y="-119.5" font-family="Helvetica,sans-Serif" font-size="10.00" fill="#000000">../insert.h</text>
</a>
</g>
</g>
<!-- Node0&#45;&gt;Node14 -->
<g id="edge34" class="edge">
<title>Node0&#45;&gt;Node14</title>
<path fill="none" stroke="#191970" d="M842.4325,-168.2455C834.1773,-160.1352 822.2402,-148.4075 812.4529,-138.7919"/>
<polygon fill="#191970" stroke="#191970" points="814.7622,-136.1542 805.176,-131.6427 809.8565,-141.1476 814.7622,-136.1542"/>
</g>
<!-- Node15 -->
<g id="node16" class="node">
<title>Node15</title>
<g id="a_node16"><a xlink:href="a00119.xhtml" target="_top" xlink:title="Algorithme de protection des données avec le mot de passe. ">
<polygon fill="#ffffff" stroke="#000000" points="880.8611,-112.5 880.8611,-131.5 957.8611,-131.5 957.8611,-112.5 880.8611,-112.5"/>
<text text-anchor="middle" x="919.3611" y="-119.5" font-family="Helvetica,sans-Serif" font-size="10.00" fill="#000000">../protection.h</text>
</a>
</g>
</g>
<!-- Node0&#45;&gt;Node15 -->
<g id="edge36" class="edge">
<title>Node0&#45;&gt;Node15</title>
<path fill="none" stroke="#191970" d="M864.0316,-168.2455C873.9272,-159.9746 888.3238,-147.9416 899.9512,-138.2232"/>
<polygon fill="#191970" stroke="#191970" points="902.3961,-140.7413 907.8243,-131.6427 897.9069,-135.3703 902.3961,-140.7413"/>
</g>
<!-- Node17 -->
<g id="node18" class="node">
<title>Node17</title>
<g id="a_node18"><a xlink:href="a00059.xhtml" target="_top" xlink:title="Module qui fait des conversions entre endianness. ">
<polygon fill="#ffffff" stroke="#000000" points="1031.3611,-56.5 1031.3611,-75.5 1093.3611,-75.5 1093.3611,-56.5 1031.3611,-56.5"/>
<text text-anchor="middle" x="1062.3611" y="-63.5" font-family="Helvetica,sans-Serif" font-size="10.00" fill="#000000">../endian.h</text>
</a>
</g>
</g>
<!-- Node0&#45;&gt;Node17 -->
<g id="edge41" class="edge">
<title>Node0&#45;&gt;Node17</title>
<path fill="none" stroke="#191970" d="M892.1461,-168.465C919.4877,-160.9204 956.0087,-148.8375 985.3611,-132 1008.5561,-118.6946 1031.3306,-97.947 1046.0198,-83.2706"/>
<polygon fill="#191970" stroke="#191970" points="1048.8097,-85.4237 1053.3,-75.8274 1043.8054,-80.529 1048.8097,-85.4237"/>
</g>
<!-- Node18 -->
<g id="node19" class="node">
<title>Node18</title>
<g id="a_node19"><a xlink:href="a00125.xhtml" target="_top" xlink:title="Module qui s&#39;occupe de l&#39;aléatoire. ">
<polygon fill="#ffffff" stroke="#000000" points="1111.8611,-56.5 1111.8611,-75.5 1164.8611,-75.5 1164.8611,-56.5 1111.8611,-56.5"/>
<text text-anchor="middle" x="1138.3611" y="-63.5" font-family="Helvetica,sans-Serif" font-size="10.00" fill="#000000">../rand.h</text>
</a>
</g>
</g>
<!-- Node0&#45;&gt;Node18 -->
<g id="edge45" class="edge">
<title>Node0&#45;&gt;Node18</title>
<path fill="none" stroke="#191970" d="M894.239,-168.433C926.978,-160.367 973.3264,-147.6467 1012.3611,-132 1048.9459,-117.3353 1088.89,-95.3012 1113.7834,-80.7874"/>
<polygon fill="#191970" stroke="#191970" points="1115.7089,-83.7154 1122.5487,-75.6241 1112.156,-77.684 1115.7089,-83.7154"/>
</g>
<!-- Node5&#45;&gt;Node1 -->
<g id="edge6" class="edge">
<title>Node5&#45;&gt;Node1</title>
<path fill="none" stroke="#191970" d="M358.1093,-121.0614C297.1738,-118.5033 166.0147,-109.1821 138.3611,-76 132.6704,-69.1715 132.821,-62.9512 138.3611,-56 158.9737,-30.1372 254.54,-17.6448 306.125,-12.6952"/>
<polygon fill="#191970" stroke="#191970" points="306.4832,-16.1771 316.1214,-11.7777 305.8434,-9.2064 306.4832,-16.1771"/>
</g>
<!-- Node5&#45;&gt;Node3 -->
<g id="edge7" class="edge">
<title>Node5&#45;&gt;Node3</title>
<path fill="none" stroke="#191970" d="M420.7948,-120.8974C480.6785,-118.0656 607.5554,-108.307 634.3611,-76 645.2997,-62.8164 639.1709,-43.1556 631.9055,-28.7211"/>
<polygon fill="#191970" stroke="#191970" points="634.8104,-26.7433 626.8898,-19.7067 628.6936,-30.1469 634.8104,-26.7433"/>
</g>
<!-- Node5&#45;&gt;Node6 -->
<g id="edge8" class="edge">
<title>Node5&#45;&gt;Node6</title>
<path fill="none" stroke="#191970" d="M420.4506,-117.3696C483.8933,-107.9207 629.043,-86.3027 709.3488,-74.3423"/>
<polygon fill="#191970" stroke="#191970" points="709.9102,-77.7973 719.2855,-72.8623 708.879,-70.8737 709.9102,-77.7973"/>
</g>
<!-- Node7 -->
<g id="node8" class="node">
<title>Node7</title>
<g id="a_node8"><a xlink:href="a00077.xhtml" target="_top" xlink:title="Fichier BMP. ">
<polygon fill="#ffffff" stroke="#000000" points="147.8611,-56.5 147.8611,-75.5 230.8611,-75.5 230.8611,-56.5 147.8611,-56.5"/>
<text text-anchor="middle" x="189.3611" y="-63.5" font-family="Helvetica,sans-Serif" font-size="10.00" fill="#000000">file_type/bmp.h</text>
</a>
</g>
</g>
<!-- Node5&#45;&gt;Node7 -->
<g id="edge9" class="edge">
<title>Node5&#45;&gt;Node7</title>
<path fill="none" stroke="#191970" d="M358.0426,-114.5636C322.7891,-105.3323 265.7666,-89.4549 227.8511,-78.3767"/>
<polygon fill="#191970" stroke="#191970" points="228.7547,-74.9942 218.1734,-75.5299 226.7792,-81.7097 228.7547,-74.9942"/>
</g>
<!-- Node8 -->
<g id="node9" class="node">
<title>Node8</title>
<g id="a_node9"><a xlink:href="a00095.xhtml" target="_top" xlink:title="Fichier PNG. ">
<polygon fill="#ffffff" stroke="#000000" points="249.3611,-56.5 249.3611,-75.5 329.3611,-75.5 329.3611,-56.5 249.3611,-56.5"/>
<text text-anchor="middle" x="289.3611" y="-63.5" font-family="Helvetica,sans-Serif" font-size="10.00" fill="#000000">file_type/png.h</text>
</a>
</g>
</g>
<!-- Node5&#45;&gt;Node8 -->
<g id="edge13" class="edge">
<title>Node5&#45;&gt;Node8</title>
<path fill="none" stroke="#191970" d="M366.9285,-112.3733C349.8361,-103.7466 326.7211,-90.954 310.0716,-80.9889"/>
<polygon fill="#191970" stroke="#191970" points="311.466,-77.7387 301.1101,-75.5011 307.8103,-83.7083 311.466,-77.7387"/>
</g>
<!-- Node9 -->
<g id="node10" class="node">
<title>Node9</title>
<g id="a_node10"><a xlink:href="a00104.xhtml" target="_top" xlink:title="Fichier WAVE. ">
<polygon fill="#ffffff" stroke="#000000" points="347.8611,-56.5 347.8611,-75.5 430.8611,-75.5 430.8611,-56.5 347.8611,-56.5"/>
<text text-anchor="middle" x="389.3611" y="-63.5" font-family="Helvetica,sans-Serif" font-size="10.00" fill="#000000">file_type/wav.h</text>
</a>
</g>
</g>
<!-- Node5&#45;&gt;Node9 -->
<g id="edge17" class="edge">
<title>Node5&#45;&gt;Node9</title>
<path fill="none" stroke="#191970" d="M384.0943,-112.2455C382.6832,-104.9382 382.279,-94.6944 382.8816,-85.7046"/>
<polygon fill="#191970" stroke="#191970" points="386.3722,-85.9945 384.116,-75.6427 379.4243,-85.1421 386.3722,-85.9945"/>
</g>
<!-- Node10 -->
<g id="node11" class="node">
<title>Node10</title>
<g id="a_node11"><a xlink:href="a00089.xhtml" target="_top" xlink:title="Fichier MP3. ">
<polygon fill="#ffffff" stroke="#000000" points="448.8611,-56.5 448.8611,-75.5 531.8611,-75.5 531.8611,-56.5 448.8611,-56.5"/>
<text text-anchor="middle" x="490.3611" y="-63.5" font-family="Helvetica,sans-Serif" font-size="10.00" fill="#000000">file_type/mp3.h</text>
</a>
</g>
</g>
<!-- Node5&#45;&gt;Node10 -->
<g id="edge21" class="edge">
<title>Node5&#45;&gt;Node10</title>
<path fill="none" stroke="#191970" d="M401.6871,-112.2455C415.9125,-103.4125 439.3477,-90.2887 458.6433,-80.2758"/>
<polygon fill="#191970" stroke="#191970" points="460.4076,-83.3049 467.7247,-75.6427 457.2264,-77.0695 460.4076,-83.3049"/>
</g>
<!-- Node11 -->
<g id="node12" class="node">
<title>Node11</title>
<g id="a_node12"><a xlink:href="a00071.xhtml" target="_top" xlink:title="Fichier AVI. ">
<polygon fill="#ffffff" stroke="#000000" points="13.8611,-56.5 13.8611,-75.5 90.8611,-75.5 90.8611,-56.5 13.8611,-56.5"/>
<text text-anchor="middle" x="52.3611" y="-63.5" font-family="Helvetica,sans-Serif" font-size="10.00" fill="#000000">file_type/avi.h</text>
</a>
</g>
</g>
<!-- Node5&#45;&gt;Node11 -->
<g id="edge25" class="edge">
<title>Node5&#45;&gt;Node11</title>
<path fill="none" stroke="#191970" d="M358.3356,-118.0377C306.3008,-110.5932 198.7649,-93.8085 101.0561,-76.8053"/>
<polygon fill="#191970" stroke="#191970" points="101.4797,-73.3264 91.0265,-75.0531 100.2749,-80.222 101.4797,-73.3264"/>
</g>
<!-- Node12 -->
<g id="node13" class="node">
<title>Node12</title>
<g id="a_node13"><a xlink:href="a00083.xhtml" target="_top" xlink:title="Fichier FLV. ">
<polygon fill="#ffffff" stroke="#000000" points="549.8611,-56.5 549.8611,-75.5 624.8611,-75.5 624.8611,-56.5 549.8611,-56.5"/>
<text text-anchor="middle" x="587.3611" y="-63.5" font-family="Helvetica,sans-Serif" font-size="10.00" fill="#000000">file_type/flv.h</text>
</a>
</g>
</g>
<!-- Node5&#45;&gt;Node12 -->
<g id="edge28" class="edge">
<title>Node5&#45;&gt;Node12</title>
<path fill="none" stroke="#191970" d="M418.1565,-112.3733C450.0854,-102.8139 501.8403,-88.1392 539.7766,-77.8647"/>
<polygon fill="#191970" stroke="#191970" points="540.8453,-81.2017 549.5917,-75.2225 539.0256,-74.4424 540.8453,-81.2017"/>
</g>
<!-- Node7&#45;&gt;Node1 -->
<g id="edge10" class="edge">
<title>Node7&#45;&gt;Node1</title>
<path fill="none" stroke="#191970" d="M215.147,-56.3733C240.3626,-46.9594 278.8663,-32.5847 306.3159,-22.3369"/>
<polygon fill="#191970" stroke="#191970" points="307.7394,-25.5415 315.8837,-18.7649 305.2911,-18.9836 307.7394,-25.5415"/>
</g>
<!-- Node7&#45;&gt;Node3 -->
<g id="edge11" class="edge">
<title>Node7&#45;&gt;Node3</title>
<path fill="none" stroke="#191970" d="M231.0655,-57.5648C234.2064,-57.0085 237.3311,-56.4798 240.3611,-56 367.1476,-35.9236 518.9535,-19.9544 585.8355,-13.3248"/>
<polygon fill="#191970" stroke="#191970" points="586.2146,-16.8045 595.8237,-12.3418 585.5289,-9.8382 586.2146,-16.8045"/>
</g>
<!-- Node7&#45;&gt;Node5 -->
<g id="edge12" class="edge">
<title>Node7&#45;&gt;Node5</title>
<path fill="none" stroke="#191970" d="M228.511,-75.5011C263.7501,-84.8494 315.0916,-99.1765 350.2985,-109.4561"/>
<polygon fill="#191970" stroke="#191970" points="349.6407,-112.9108 360.2219,-112.3733 351.615,-106.1949 349.6407,-112.9108"/>
</g>
<!-- Node8&#45;&gt;Node1 -->
<g id="edge14" class="edge">
<title>Node8&#45;&gt;Node1</title>
<path fill="none" stroke="#191970" d="M298.0704,-56.2455C305.1684,-48.2958 315.3695,-36.8706 323.8561,-27.3656"/>
<polygon fill="#191970" stroke="#191970" points="326.7022,-29.4331 330.7516,-19.6427 321.4806,-24.771 326.7022,-29.4331"/>
</g>
<!-- Node8&#45;&gt;Node3 -->
<g id="edge15" class="edge">
<title>Node8&#45;&gt;Node3</title>
<path fill="none" stroke="#191970" d="M329.4473,-57.6845C332.461,-57.1006 335.4576,-56.5329 338.3611,-56 427.3276,-39.6723 532.6267,-23.2666 585.8551,-15.1778"/>
<polygon fill="#191970" stroke="#191970" points="586.4233,-18.6317 595.7862,-13.6734 585.3748,-11.7107 586.4233,-18.6317"/>
</g>
<!-- Node8&#45;&gt;Node5 -->
<g id="edge16" class="edge">
<title>Node8&#45;&gt;Node5</title>
<path fill="none" stroke="#191970" d="M311.8253,-75.6427C328.7764,-84.1994 351.6382,-96.8456 368.2457,-106.769"/>
<polygon fill="#191970" stroke="#191970" points="366.8511,-110.0185 377.2093,-112.2455 370.5008,-104.0451 366.8511,-110.0185"/>
</g>
<!-- Node9&#45;&gt;Node1 -->
<g id="edge18" class="edge">
<title>Node9&#45;&gt;Node1</title>
<path fill="none" stroke="#191970" d="M380.6518,-56.2455C373.5538,-48.2958 363.3527,-36.8706 354.8661,-27.3656"/>
<polygon fill="#191970" stroke="#191970" points="357.2416,-24.771 347.9706,-19.6427 352.02,-29.4331 357.2416,-24.771"/>
</g>
<!-- Node9&#45;&gt;Node3 -->
<g id="edge19" class="edge">
<title>Node9&#45;&gt;Node3</title>
<path fill="none" stroke="#191970" d="M428.8089,-56.4369C472.9745,-45.7301 543.8475,-28.5488 585.8799,-18.3591"/>
<polygon fill="#191970" stroke="#191970" points="586.7637,-21.7463 595.6576,-15.9887 585.1145,-14.9433 586.7637,-21.7463"/>
</g>
<!-- Node9&#45;&gt;Node5 -->
<g id="edge20" class="edge">
<title>Node9&#45;&gt;Node5</title>
<path fill="none" stroke="#191970" d="M394.6062,-75.6427C396.0276,-82.9199 396.4421,-93.155 395.8498,-102.1575"/>
<polygon fill="#191970" stroke="#191970" points="392.3558,-101.8972 394.6279,-112.2455 399.305,-102.739 392.3558,-101.8972"/>
</g>
<!-- Node10&#45;&gt;Node1 -->
<g id="edge22" class="edge">
<title>Node10&#45;&gt;Node1</title>
<path fill="none" stroke="#191970" d="M464.4033,-56.3733C438.8694,-46.9037 399.8,-32.4144 372.1373,-22.1554"/>
<polygon fill="#191970" stroke="#191970" points="373.101,-18.7799 362.508,-18.5843 370.667,-25.3431 373.101,-18.7799"/>
</g>
<!-- Node10&#45;&gt;Node3 -->
<g id="edge23" class="edge">
<title>Node10&#45;&gt;Node3</title>
<path fill="none" stroke="#191970" d="M512.7089,-56.3733C533.7644,-47.3032 565.5106,-33.6279 589.0786,-23.4755"/>
<polygon fill="#191970" stroke="#191970" points="590.5055,-26.6719 598.3049,-19.5011 587.7361,-20.243 590.5055,-26.6719"/>
</g>
<!-- Node10&#45;&gt;Node5 -->
<g id="edge24" class="edge">
<title>Node10&#45;&gt;Node5</title>
<path fill="none" stroke="#191970" d="M478.4424,-75.5011C464.272,-84.3278 440.5989,-97.5932 421.127,-107.6992"/>
<polygon fill="#191970" stroke="#191970" points="419.2827,-104.7109 411.9656,-112.3733 422.464,-110.9463 419.2827,-104.7109"/>
</g>
<!-- Node11&#45;&gt;Node1 -->
<g id="edge26" class="edge">
<title>Node11&#45;&gt;Node1</title>
<path fill="none" stroke="#191970" d="M91.0672,-58.4476C147.8704,-47.364 252.8425,-26.8817 306.264,-16.458"/>
<polygon fill="#191970" stroke="#191970" points="307.0868,-19.8635 316.2314,-14.5131 305.7462,-12.9931 307.0868,-19.8635"/>
</g>
<!-- Node11&#45;&gt;Node5 -->
<g id="edge27" class="edge">
<title>Node11&#45;&gt;Node5</title>
<path fill="none" stroke="#191970" d="M91.0425,-71.7942C98.8412,-73.2084 106.8904,-74.6904 114.3611,-76 197.3245,-90.5431 294.2192,-105.8864 348.1206,-114.6653"/>
<polygon fill="#191970" stroke="#191970" points="347.5576,-118.1197 357.9913,-116.279 348.687,-111.2114 347.5576,-118.1197"/>
</g>
<!-- Node12&#45;&gt;Node1 -->
<g id="edge29" class="edge">
<title>Node12&#45;&gt;Node1</title>
<path fill="none" stroke="#191970" d="M549.6952,-57.4948C501.4225,-46.5945 418.4953,-27.869 372.5095,-17.4851"/>
<polygon fill="#191970" stroke="#191970" points="372.995,-14.0067 362.4696,-15.2181 371.4531,-20.8348 372.995,-14.0067"/>
</g>
<!-- Node12&#45;&gt;Node3 -->
<g id="edge30" class="edge">
<title>Node12&#45;&gt;Node3</title>
<path fill="none" stroke="#191970" d="M593.1093,-56.2455C597.6046,-48.617 603.9859,-37.7881 609.4436,-28.5267"/>
<polygon fill="#191970" stroke="#191970" points="612.6172,-30.035 614.6788,-19.6427 606.5864,-26.4811 612.6172,-30.035"/>
</g>
<!-- Node12&#45;&gt;Node5 -->
<g id="edge31" class="edge">
<title>Node12&#45;&gt;Node5</title>
<path fill="none" stroke="#191970" d="M558.8892,-75.5299C525.0766,-85.659 468.7124,-101.6101 430.2635,-111.9378"/>
<polygon fill="#191970" stroke="#191970" points="429.1749,-108.6057 420.414,-114.5636 430.9781,-115.3695 429.1749,-108.6057"/>
</g>
<!-- Node14&#45;&gt;Node6 -->
<g id="edge35" class="edge">
<title>Node14&#45;&gt;Node6</title>
<path fill="none" stroke="#191970" d="M790.1355,-112.2455C786.0488,-104.617 780.2476,-93.7881 775.2861,-84.5267"/>
<polygon fill="#191970" stroke="#191970" points="778.3343,-82.8047 770.5268,-75.6427 772.1639,-86.1103 778.3343,-82.8047"/>
</g>
<!-- Node15&#45;&gt;Node3 -->
<g id="edge38" class="edge">
<title>Node15&#45;&gt;Node3</title>
<path fill="none" stroke="#191970" d="M907.9811,-112.3748C890.3579,-97.9631 854.8849,-70.8836 820.3611,-56 765.1315,-32.1899 695.7775,-19.7794 654.9403,-14.0875"/>
<polygon fill="#191970" stroke="#191970" points="655.3281,-10.6083 644.9522,-12.7508 654.3995,-17.5465 655.3281,-10.6083"/>
</g>
<!-- Node15&#45;&gt;Node6 -->
<g id="edge39" class="edge">
<title>Node15&#45;&gt;Node6</title>
<path fill="none" stroke="#191970" d="M892.8876,-112.3733C867.5014,-103.1419 828.9966,-89.1402 800.9391,-78.9375"/>
<polygon fill="#191970" stroke="#191970" points="802.0833,-75.6293 791.4892,-75.5011 799.691,-82.2079 802.0833,-75.6293"/>
</g>
<!-- Node15&#45;&gt;Node13 -->
<g id="edge40" class="edge">
<title>Node15&#45;&gt;Node13</title>
<path fill="none" stroke="#191970" d="M928.9414,-112.2455C936.9069,-104.1352 948.4252,-92.4075 957.869,-82.7919"/>
<polygon fill="#191970" stroke="#191970" points="960.3806,-85.2297 964.8906,-75.6427 955.3864,-80.3247 960.3806,-85.2297"/>
</g>
<!-- Node16 -->
<g id="node17" class="node">
<title>Node16</title>
<polygon fill="#ffffff" stroke="#bfbfbf" points="867.8611,-56.5 867.8611,-75.5 916.8611,-75.5 916.8611,-56.5 867.8611,-56.5"/>
<text text-anchor="middle" x="892.3611" y="-63.5" font-family="Helvetica,sans-Serif" font-size="10.00" fill="#000000">string.h</text>
</g>
<!-- Node15&#45;&gt;Node16 -->
<g id="edge37" class="edge">
<title>Node15&#45;&gt;Node16</title>
<path fill="none" stroke="#191970" d="M914.6581,-112.2455C911.0187,-104.6973 905.8687,-94.0158 901.4349,-84.8197"/>
<polygon fill="#191970" stroke="#191970" points="904.506,-83.1303 897.0102,-75.6427 898.2006,-86.1704 904.506,-83.1303"/>
</g>
<!-- Node17&#45;&gt;Node1 -->
<g id="edge42" class="edge">
<title>Node17&#45;&gt;Node1</title>
<path fill="none" stroke="#191970" d="M1030.9627,-57.4208C1028.4027,-56.8829 1025.8457,-56.3986 1023.3611,-56 895.7282,-35.5236 492.2313,-16.6774 372.9094,-11.4374"/>
<polygon fill="#191970" stroke="#191970" points="372.7253,-7.9261 362.5822,-10.9868 372.42,-14.9195 372.7253,-7.9261"/>
</g>
<!-- Node17&#45;&gt;Node2 -->
<g id="edge43" class="edge">
<title>Node17&#45;&gt;Node2</title>
<path fill="none" stroke="#191970" d="M1075.5993,-56.2455C1087.0421,-47.814 1103.7907,-35.4729 1117.1086,-25.6598"/>
<polygon fill="#191970" stroke="#191970" points="1119.3002,-28.3924 1125.2746,-19.6427 1115.1478,-22.757 1119.3002,-28.3924"/>
</g>
<!-- Node17&#45;&gt;Node3 -->
<g id="edge44" class="edge">
<title>Node17&#45;&gt;Node3</title>
<path fill="none" stroke="#191970" d="M1030.9407,-57.5485C1028.3856,-56.982 1025.8357,-56.4563 1023.3611,-56 888.3258,-31.1029 725.1946,-17.4458 655.1095,-12.3504"/>
<polygon fill="#191970" stroke="#191970" points="655.2921,-8.8546 645.0681,-11.633 654.7932,-15.8368 655.2921,-8.8546"/>
</g>
<!-- Node18&#45;&gt;Node1 -->
<g id="edge46" class="edge">
<title>Node18&#45;&gt;Node1</title>
<path fill="none" stroke="#191970" d="M1111.7654,-57.9392C1108.6171,-57.1855 1105.4321,-56.5132 1102.3611,-56 1029.8002,-43.8743 510.4737,-18.2417 372.7917,-11.5991"/>
<polygon fill="#191970" stroke="#191970" points="372.6188,-8.0868 362.4621,-11.1019 372.2822,-15.0787 372.6188,-8.0868"/>
</g>
<!-- Node18&#45;&gt;Node2 -->
<g id="edge47" class="edge">
<title>Node18&#45;&gt;Node2</title>
<path fill="none" stroke="#191970" d="M1138.3611,-56.2455C1138.3611,-48.9382 1138.3611,-38.6944 1138.3611,-29.7046"/>
<polygon fill="#191970" stroke="#191970" points="1141.8612,-29.6426 1138.3611,-19.6427 1134.8612,-29.6427 1141.8612,-29.6426"/>
</g>
<!-- Node18&#45;&gt;Node3 -->
<g id="edge48" class="edge">
<title>Node18&#45;&gt;Node3</title>
<path fill="none" stroke="#191970" d="M1111.7467,-58.0453C1108.6018,-57.2725 1105.4227,-56.5668 1102.3611,-56 936.7775,-25.3473 735.188,-14.4997 655.3396,-11.2313"/>
<polygon fill="#191970" stroke="#191970" points="655.0273,-7.7163 644.897,-10.8191 654.7512,-14.7109 655.0273,-7.7163"/>
</g>
</g>
</svg>
        <g id="navigator" transform="translate(0 0)" fill="#404254">
                <rect fill="#f2f5e9" fill-opacity="0.5" stroke="#606060" stroke-width=".5" x="0" y="0" width="60" height="60"/>
                <use id="zoomplus" xlink:href="#zoomPlus" x="17" y="9" onmousedown="handleZoom(evt,'in')"/>
                <use id="zoomminus" xlink:href="#zoomMin" x="42" y="9" onmousedown="handleZoom(evt,'out')"/>
                <use id="reset" xlink:href="#resetDef" x="30" y="36" onmousedown="handleReset()"/>
                <g id="arrowUp" xlink:href="#dirArrow" transform="translate(30 24)" onmousedown="handlePan(0,-1)">
                  <use xlink:href="#rim" fill="#404040">
                        <set attributeName="fill" to="#808080" begin="arrowUp.mouseover" end="arrowUp.mouseout"/>
                  </use>
                  <path fill="none" stroke="white" stroke-width="1.5" d="M0,-3.0v7 M-2.5,-0.5L0,-3.0L2.5,-0.5"/>
                </g>
                <g id="arrowRight" xlink:href="#dirArrow" transform="rotate(90) translate(36 -43)" onmousedown="handlePan(1,0)">
                  <use xlink:href="#rim" fill="#404040">
                        <set attributeName="fill" to="#808080" begin="arrowRight.mouseover" end="arrowRight.mouseout"/>
                  </use>
                  <path fill="none" stroke="white" stroke-width="1.5" d="M0,-3.0v7 M-2.5,-0.5L0,-3.0L2.5,-0.5"/>
                </g>
                <g id="arrowDown" xlink:href="#dirArrow" transform="rotate(180) translate(-30 -48)" onmousedown="handlePan(0,1)">
                  <use xlink:href="#rim" fill="#404040">
                        <set attributeName="fill" to="#808080" begin="arrowDown.mouseover" end="arrowDown.mouseout"/>
                  </use>
                  <path fill="none" stroke="white" stroke-width="1.5" d="M0,-3.0v7 M-2.5,-0.5L0,-3.0L2.5,-0.5"/>
                </g>
                <g id="arrowLeft" xlink:href="#dirArrow" transform="rotate(270) translate(-36 17)" onmousedown="handlePan(-1,0)">
                  <use xlink:href="#rim" fill="#404040">
                        <set attributeName="fill" to="#808080" begin="arrowLeft.mouseover" end="arrowLeft.mouseout"/>
                  </use>
                  <path fill="none" stroke="white" stroke-width="1.5" d="M0,-3.0v7 M-2.5,-0.5L0,-3.0L2.5,-0.5"/>
                </g>
        </g>
        <svg viewBox="0 0 15 15" width="100%" height="30px" preserveAspectRatio="xMaxYMin meet">
         <g id="arrow_out" transform="scale(0.3 0.3)">
          <a xlink:href="a00075_org.svg" target="_base">
           <rect id="button" ry="5" rx="5" y="6" x="6" height="38" width="38"
                fill="#f2f5e9" fill-opacity="0.5" stroke="#606060" stroke-width="1.0"/>
           <path id="arrow"
             d="M 11.500037,31.436501 C 11.940474,20.09759 22.043105,11.32322 32.158766,21.979434 L 37.068811,17.246167 C 37.068811,17.246167 37.088388,32 37.088388,32 L 22.160133,31.978069 C 22.160133,31.978069 26.997745,27.140456 26.997745,27.140456 C 18.528582,18.264221 13.291696,25.230495 11.500037,31.436501 z"
             style="fill:#404040;"/>
          </a>
         </g>
        </svg>
</svg>
