<?xml version="1.0" encoding="UTF-8" standalone="no"?>
<!DOCTYPE svg PUBLIC "-//W3C//DTD SVG 1.1//EN"
 "http://www.w3.org/Graphics/SVG/1.1/DTD/svg11.dtd">
<!-- Generated by graphviz version 2.40.1 (20161225.0304)
 -->
<!-- Title: src/common.h Pages: 1 -->
<!--zoomable 140 -->
<svg id="main" version="1.1" xmlns="http://www.w3.org/2000/svg" xmlns:xlink="http://www.w3.org/1999/xlink" xml:space="preserve" onload="init(evt)">
<style type="text/css"><![CDATA[
.edge:hover path { stroke: red; }
.edge:hover polygon { stroke: red; fill: red; }
]]></style>
<script type="text/javascript"><![CDATA[
var edges = document.getElementsByTagName('g');
if (edges && edges.length) {
  for (var i=0;i<edges.length;i++) {
    if (edges[i].id.substr(0,4)=='edge') {
      edges[i].setAttribute('class','edge');
    }
  }
}
]]></script>
        <defs>
                <circle id="rim" cx="0" cy="0" r="7"/>
                <circle id="rim2" cx="0" cy="0" r="3.5"/>
                <g id="zoomPlus">
                        <use xlink:href="#rim" fill="#404040">
                                <set attributeName="fill" to="#808080" begin="zoomplus.mouseover" end="zoomplus.mouseout"/>
                        </use>
                        <path d="M-4,0h8M0,-4v8" fill="none" stroke="white" stroke-width="1.5" pointer-events="none"/>
                </g>
                <g id="zoomMin">
                        <use xlink:href="#rim" fill="#404040">
                                <set attributeName="fill" to="#808080" begin="zoomminus.mouseover" end="zoomminus.mouseout"/>
                        </use>
                        <path d="M-4,0h8" fill="none" stroke="white" stroke-width="1.5" pointer-events="none"/>
                </g>
                <g id="dirArrow">
                        <path fill="none" stroke="white" stroke-width="1.5" d="M0,-3.0v7 M-2.5,-0.5L0,-3.0L2.5,-0.5"/>
                </g>
               <g id="resetDef">
                       <use xlink:href="#rim2" fill="#404040">
                               <set attributeName="fill" to="#808080" begin="reset.mouseover" end="reset.mouseout"/>
                       </use>
               </g>
        </defs>

<script type="text/javascript">
var viewWidth = 2854;
var viewHeight = 140;
var sectionId = 'dynsection-1';
</script>
<script xlink:href="svgpan.js"/>
<svg id="graph" class="graph">
<g id="viewport">
<title>src/common.h</title>
<polygon fill="#ffffff" stroke="transparent" points="-4,4 -4,-136 2850,-136 2850,4 -4,4"/>
<!-- Node10 -->
<g id="node1" class="node">
<title>Node10</title>
<polygon fill="#bfbfbf" stroke="#000000" points="1413.5,-112.5 1413.5,-131.5 1492.5,-131.5 1492.5,-112.5 1413.5,-112.5"/>
<text text-anchor="middle" x="1453" y="-119.5" font-family="Helvetica,sans-Serif" font-size="10.00" fill="#000000">src/common.h</text>
</g>
<!-- Node11 -->
<g id="node2" class="node">
<title>Node11</title>
<g id="a_node2"><a xlink:href="a00014.xhtml" target="_top" xlink:title="Algorithme End Of Chunk (EOC). ">
<polygon fill="#ffffff" stroke="#000000" points="0,-56.5 0,-75.5 78,-75.5 78,-56.5 0,-56.5"/>
<text text-anchor="middle" x="39" y="-63.5" font-family="Helvetica,sans-Serif" font-size="10.00" fill="#000000">src/algo/eoc.c</text>
</a>
</g>
</g>
<!-- Node10&#45;&gt;Node11 -->
<g id="edge1" class="edge">
<title>Node10&#45;&gt;Node11</title>
<path fill="none" stroke="#191970" d="M1402.9483,-121.3329C1189.4032,-118.3288 353.5605,-104.9244 92,-76 87.5326,-75.506 82.8773,-74.8457 78.2614,-74.0988"/>
<polygon fill="#191970" stroke="#191970" points="1403.1777,-124.8363 1413.2256,-121.4762 1403.2753,-117.837 1403.1777,-124.8363"/>
</g>
<!-- Node12 -->
<g id="node3" class="node">
<title>Node12</title>
<g id="a_node3"><a xlink:href="a00017.xhtml" target="_top" xlink:title="Algorithme End Of Chunk (EOC). ">
<polygon fill="#ffffff" stroke="#000000" points="349,-56.5 349,-75.5 427,-75.5 427,-56.5 349,-56.5"/>
<text text-anchor="middle" x="388" y="-63.5" font-family="Helvetica,sans-Serif" font-size="10.00" fill="#000000">src/algo/eoc.h</text>
</a>
</g>
</g>
<!-- Node10&#45;&gt;Node12 -->
<g id="edge2" class="edge">
<title>Node10&#45;&gt;Node12</title>
<path fill="none" stroke="#191970" d="M1403.356,-120.8092C1226.3422,-116.3986 626.5227,-99.9978 436,-76 433.1285,-75.6383 430.1731,-75.1963 427.2067,-74.7017"/>
<polygon fill="#191970" stroke="#191970" points="1403.341,-124.3098 1413.4246,-121.0585 1403.5143,-117.3119 1403.341,-124.3098"/>
</g>
<!-- Node13 -->
<g id="node4" class="node">
<title>Node13</title>
<g id="a_node4"><a xlink:href="a00065.xhtml" target="_top" xlink:title="Extraction des données cachées dans un fichier hôte. ">
<polygon fill="#ffffff" stroke="#000000" points="302.5,-.5 302.5,-19.5 373.5,-19.5 373.5,-.5 302.5,-.5"/>
<text text-anchor="middle" x="338" y="-7.5" font-family="Helvetica,sans-Serif" font-size="10.00" fill="#000000">src/extract.c</text>
</a>
</g>
</g>
<!-- Node10&#45;&gt;Node13 -->
<g id="edge37" class="edge">
<title>Node10&#45;&gt;Node13</title>
<path fill="none" stroke="#191970" d="M1403.1526,-121.2129C1164.3196,-117.3263 147.6283,-99.4256 125,-76 118.8244,-69.6067 119.4173,-62.9171 125,-56 146.8595,-28.9157 247.3321,-17.0014 302.1188,-12.442"/>
<polygon fill="#191970" stroke="#191970" points="1403.2273,-124.7145 1413.2827,-121.3769 1403.3407,-117.7154 1403.2273,-124.7145"/>
</g>
<!-- Node14 -->
<g id="node5" class="node">
<title>Node14</title>
<g id="a_node5"><a xlink:href="a00110.xhtml" target="_top" xlink:title="Insertion des données cachées dans une copie de l&#39;hôte. ">
<polygon fill="#ffffff" stroke="#000000" points="402.5,-.5 402.5,-19.5 467.5,-19.5 467.5,-.5 402.5,-.5"/>
<text text-anchor="middle" x="435" y="-7.5" font-family="Helvetica,sans-Serif" font-size="10.00" fill="#000000">src/insert.c</text>
</a>
</g>
</g>
<!-- Node10&#45;&gt;Node14 -->
<g id="edge45" class="edge">
<title>Node10&#45;&gt;Node14</title>
<path fill="none" stroke="#191970" d="M1403.4536,-121.6929C1257.5533,-120.3618 831.3843,-113.2982 698,-76 679.6198,-70.8604 677.9731,-62.4199 660,-56 593.9171,-32.3954 512.3506,-19.505 467.8248,-13.7535"/>
<polygon fill="#191970" stroke="#191970" points="1403.4363,-125.1928 1413.4662,-121.7792 1403.4967,-118.193 1403.4363,-125.1928"/>
</g>
<!-- Node15 -->
<g id="node6" class="node">
<title>Node15</title>
<g id="a_node6"><a xlink:href="a00020.xhtml" target="_top" xlink:title="Algorithme EOF. ">
<polygon fill="#ffffff" stroke="#000000" points="707,-56.5 707,-75.5 783,-75.5 783,-56.5 707,-56.5"/>
<text text-anchor="middle" x="745" y="-63.5" font-family="Helvetica,sans-Serif" font-size="10.00" fill="#000000">src/algo/eof.c</text>
</a>
</g>
</g>
<!-- Node10&#45;&gt;Node15 -->
<g id="edge5" class="edge">
<title>Node10&#45;&gt;Node15</title>
<path fill="none" stroke="#191970" d="M1403.1296,-120.9136C1292.5821,-117.9847 1018.7819,-107.8567 792,-76 789.1086,-75.5938 786.1292,-75.1118 783.1401,-74.5823"/>
<polygon fill="#191970" stroke="#191970" points="1403.2244,-124.4171 1413.311,-121.1751 1403.4042,-117.4194 1403.2244,-124.4171"/>
</g>
<!-- Node16 -->
<g id="node7" class="node">
<title>Node16</title>
<g id="a_node7"><a xlink:href="a00023.xhtml" target="_top" xlink:title="Algorithme EOF. ">
<polygon fill="#ffffff" stroke="#000000" points="445,-56.5 445,-75.5 521,-75.5 521,-56.5 445,-56.5"/>
<text text-anchor="middle" x="483" y="-63.5" font-family="Helvetica,sans-Serif" font-size="10.00" fill="#000000">src/algo/eof.h</text>
</a>
</g>
</g>
<!-- Node10&#45;&gt;Node16 -->
<g id="edge6" class="edge">
<title>Node10&#45;&gt;Node16</title>
<path fill="none" stroke="#191970" d="M1403.0704,-120.5655C1236.5603,-115.6161 701.1462,-98.3261 530,-76 527.1047,-75.6223 524.1226,-75.161 521.1314,-74.6459"/>
<polygon fill="#191970" stroke="#191970" points="1403.3978,-124.0766 1413.4968,-120.8736 1403.6046,-117.0796 1403.3978,-124.0766"/>
</g>
<!-- Node17 -->
<g id="node8" class="node">
<title>Node17</title>
<g id="a_node8"><a xlink:href="a00026.xhtml" target="_top" xlink:title="Algorithme JUNK CHUNK. ">
<polygon fill="#ffffff" stroke="#000000" points="829,-.5 829,-19.5 941,-19.5 941,-.5 829,-.5"/>
<text text-anchor="middle" x="885" y="-7.5" font-family="Helvetica,sans-Serif" font-size="10.00" fill="#000000">src/algo/junk_chunk.c</text>
</a>
</g>
</g>
<!-- Node10&#45;&gt;Node17 -->
<g id="edge9" class="edge">
<title>Node10&#45;&gt;Node17</title>
<path fill="none" stroke="#191970" d="M1403.4102,-119.649C1283.0648,-113.6447 982.4275,-96.7452 942,-76 917.215,-63.2817 898.6122,-34.7503 890.1086,-19.7074"/>
<polygon fill="#191970" stroke="#191970" points="1403.3018,-123.1478 1413.4625,-120.1461 1403.6476,-116.1564 1403.3018,-123.1478"/>
</g>
<!-- Node18 -->
<g id="node9" class="node">
<title>Node18</title>
<g id="a_node9"><a xlink:href="a00071.xhtml" target="_top" xlink:title="Fichier AVI. ">
<polygon fill="#ffffff" stroke="#000000" points="801,-56.5 801,-75.5 895,-75.5 895,-56.5 801,-56.5"/>
<text text-anchor="middle" x="848" y="-63.5" font-family="Helvetica,sans-Serif" font-size="10.00" fill="#000000">src/file_type/avi.h</text>
</a>
</g>
</g>
<!-- Node10&#45;&gt;Node18 -->
<g id="edge10" class="edge">
<title>Node10&#45;&gt;Node18</title>
<path fill="none" stroke="#191970" d="M1403.2943,-119.4028C1306.0804,-113.7371 1084.6837,-98.9108 900,-76 898.4025,-75.8018 896.7828,-75.5925 895.1507,-75.3741"/>
<polygon fill="#191970" stroke="#191970" points="1403.2339,-122.9051 1413.4185,-119.9856 1403.6362,-115.9166 1403.2339,-122.9051"/>
</g>
<!-- Node19 -->
<g id="node10" class="node">
<title>Node19</title>
<g id="a_node10"><a xlink:href="a00029.xhtml" target="_top" xlink:title="Algorithme JUNK CHUNK. ">
<polygon fill="#ffffff" stroke="#000000" points="539,-56.5 539,-75.5 651,-75.5 651,-56.5 539,-56.5"/>
<text text-anchor="middle" x="595" y="-63.5" font-family="Helvetica,sans-Serif" font-size="10.00" fill="#000000">src/algo/junk_chunk.h</text>
</a>
</g>
</g>
<!-- Node10&#45;&gt;Node19 -->
<g id="edge13" class="edge">
<title>Node10&#45;&gt;Node19</title>
<path fill="none" stroke="#191970" d="M1403.1274,-120.5362C1278.4379,-116.5621 943.1789,-103.94 665,-76 660.4806,-75.5461 655.8053,-75.0145 651.1136,-74.4371"/>
<polygon fill="#191970" stroke="#191970" points="1403.0331,-124.0349 1413.1382,-120.851 1403.2531,-117.0383 1403.0331,-124.0349"/>
</g>
<!-- Node20 -->
<g id="node11" class="node">
<title>Node20</title>
<g id="a_node11"><a xlink:href="a00032.xhtml" target="_top" xlink:title="Algorithme LSB. ">
<polygon fill="#ffffff" stroke="#000000" points="951.5,-56.5 951.5,-75.5 1026.5,-75.5 1026.5,-56.5 951.5,-56.5"/>
<text text-anchor="middle" x="989" y="-63.5" font-family="Helvetica,sans-Serif" font-size="10.00" fill="#000000">src/algo/lsb.c</text>
</a>
</g>
</g>
<!-- Node10&#45;&gt;Node20 -->
<g id="edge16" class="edge">
<title>Node10&#45;&gt;Node20</title>
<path fill="none" stroke="#191970" d="M1403.2402,-118.2165C1324.6752,-111.8629 1167.2261,-97.5874 1035,-76 1032.2576,-75.5523 1029.4323,-75.0471 1026.5944,-74.5076"/>
<polygon fill="#191970" stroke="#191970" points="1403.0886,-121.7155 1413.336,-119.0244 1403.647,-114.7378 1403.0886,-121.7155"/>
</g>
<!-- Node21 -->
<g id="node12" class="node">
<title>Node21</title>
<g id="a_node12"><a xlink:href="a00035.xhtml" target="_top" xlink:title="Algorithme LSB. ">
<polygon fill="#ffffff" stroke="#000000" points="134.5,-56.5 134.5,-75.5 209.5,-75.5 209.5,-56.5 134.5,-56.5"/>
<text text-anchor="middle" x="172" y="-63.5" font-family="Helvetica,sans-Serif" font-size="10.00" fill="#000000">src/algo/lsb.h</text>
</a>
</g>
</g>
<!-- Node10&#45;&gt;Node21 -->
<g id="edge17" class="edge">
<title>Node10&#45;&gt;Node21</title>
<path fill="none" stroke="#191970" d="M1403.0362,-121.3186C1202.1786,-118.3967 453.1352,-105.7001 218,-76 215.2432,-75.6518 212.4073,-75.2197 209.5619,-74.7321"/>
<polygon fill="#191970" stroke="#191970" points="1403.2358,-124.8217 1413.2852,-121.4661 1403.3366,-117.8224 1403.2358,-124.8217"/>
</g>
<!-- Node22 -->
<g id="node13" class="node">
<title>Node22</title>
<g id="a_node13"><a xlink:href="a00038.xhtml" target="_top" xlink:title="Algorithme METADATA. ">
<polygon fill="#ffffff" stroke="#000000" points="1044.5,-56.5 1044.5,-75.5 1147.5,-75.5 1147.5,-56.5 1044.5,-56.5"/>
<text text-anchor="middle" x="1096" y="-63.5" font-family="Helvetica,sans-Serif" font-size="10.00" fill="#000000">src/algo/metadata.c</text>
</a>
</g>
</g>
<!-- Node10&#45;&gt;Node22 -->
<g id="edge20" class="edge">
<title>Node10&#45;&gt;Node22</title>
<path fill="none" stroke="#191970" d="M1403.1104,-114.3764C1344.2582,-105.3532 1243.4769,-89.8075 1157,-76 1153.9268,-75.5093 1150.767,-75.0015 1147.5798,-74.4866"/>
<polygon fill="#191970" stroke="#191970" points="1402.8307,-117.8743 1413.2454,-115.9293 1403.8909,-110.955 1402.8307,-117.8743"/>
</g>
<!-- Node23 -->
<g id="node14" class="node">
<title>Node23</title>
<g id="a_node14"><a xlink:href="a00041.xhtml" target="_top" xlink:title="Algorithme METADATA. ">
<polygon fill="#ffffff" stroke="#000000" points="227.5,-56.5 227.5,-75.5 330.5,-75.5 330.5,-56.5 227.5,-56.5"/>
<text text-anchor="middle" x="279" y="-63.5" font-family="Helvetica,sans-Serif" font-size="10.00" fill="#000000">src/algo/metadata.h</text>
</a>
</g>
</g>
<!-- Node10&#45;&gt;Node23 -->
<g id="edge21" class="edge">
<title>Node10&#45;&gt;Node23</title>
<path fill="none" stroke="#191970" d="M1403.1348,-120.744C1215.3283,-115.8883 550.6537,-97.5397 340,-76 336.904,-75.6834 333.7266,-75.3102 330.526,-74.8974"/>
<polygon fill="#191970" stroke="#191970" points="1403.1821,-124.2463 1413.2689,-121.0048 1403.3623,-117.2486 1403.1821,-124.2463"/>
</g>
<!-- Node24 -->
<g id="node15" class="node">
<title>Node24</title>
<g id="a_node15"><a xlink:href="a00044.xhtml" target="_top" xlink:title="Module de vérification de la compatibilité. ">
<polygon fill="#ffffff" stroke="#000000" points="1166,-56.5 1166,-75.5 1268,-75.5 1268,-56.5 1166,-56.5"/>
<text text-anchor="middle" x="1217" y="-63.5" font-family="Helvetica,sans-Serif" font-size="10.00" fill="#000000">src/check_compa.c</text>
</a>
</g>
</g>
<!-- Node10&#45;&gt;Node24 -->
<g id="edge24" class="edge">
<title>Node10&#45;&gt;Node24</title>
<path fill="none" stroke="#191970" d="M1403.7262,-110.3079C1360.341,-100.0131 1297.929,-85.2035 1257.421,-75.5914"/>
<polygon fill="#191970" stroke="#191970" points="1402.961,-113.7235 1413.4989,-112.6269 1404.5772,-106.9126 1402.961,-113.7235"/>
</g>
<!-- Node25 -->
<g id="node16" class="node">
<title>Node25</title>
<g id="a_node16"><a xlink:href="a00077.xhtml" target="_top" xlink:title="Fichier BMP. ">
<polygon fill="#ffffff" stroke="#000000" points="1286,-56.5 1286,-75.5 1386,-75.5 1386,-56.5 1286,-56.5"/>
<text text-anchor="middle" x="1336" y="-63.5" font-family="Helvetica,sans-Serif" font-size="10.00" fill="#000000">src/file_type/bmp.h</text>
</a>
</g>
</g>
<!-- Node10&#45;&gt;Node25 -->
<g id="edge25" class="edge">
<title>Node10&#45;&gt;Node25</title>
<path fill="none" stroke="#191970" d="M1418.3626,-108.2473C1395.7911,-98.0771 1367.6291,-84.4883 1350.6333,-75.5011"/>
<polygon fill="#191970" stroke="#191970" points="1417.0854,-111.5097 1427.645,-112.3733 1419.9286,-105.1131 1417.0854,-111.5097"/>
</g>
<!-- Node26 -->
<g id="node17" class="node">
<title>Node26</title>
<g id="a_node17"><a xlink:href="a00095.xhtml" target="_top" xlink:title="Fichier PNG. ">
<polygon fill="#ffffff" stroke="#000000" points="1404.5,-56.5 1404.5,-75.5 1501.5,-75.5 1501.5,-56.5 1404.5,-56.5"/>
<text text-anchor="middle" x="1453" y="-63.5" font-family="Helvetica,sans-Serif" font-size="10.00" fill="#000000">src/file_type/png.h</text>
</a>
</g>
</g>
<!-- Node10&#45;&gt;Node26 -->
<g id="edge27" class="edge">
<title>Node10&#45;&gt;Node26</title>
<path fill="none" stroke="#191970" d="M1446.5113,-102.1575C1445.919,-93.155 1446.3335,-82.9199 1447.7549,-75.6427"/>
<polygon fill="#191970" stroke="#191970" points="1443.0561,-102.739 1447.7332,-112.2455 1450.0053,-101.8972 1443.0561,-102.739"/>
</g>
<!-- Node27 -->
<g id="node18" class="node">
<title>Node27</title>
<g id="a_node18"><a xlink:href="a00104.xhtml" target="_top" xlink:title="Fichier WAVE. ">
<polygon fill="#ffffff" stroke="#000000" points="1519.5,-56.5 1519.5,-75.5 1618.5,-75.5 1618.5,-56.5 1519.5,-56.5"/>
<text text-anchor="middle" x="1569" y="-63.5" font-family="Helvetica,sans-Serif" font-size="10.00" fill="#000000">src/file_type/wav.h</text>
</a>
</g>
</g>
<!-- Node10&#45;&gt;Node27 -->
<g id="edge29" class="edge">
<title>Node10&#45;&gt;Node27</title>
<path fill="none" stroke="#191970" d="M1476.8486,-107.5971C1496.4197,-97.558 1523.8411,-84.4393 1543.7808,-75.6427"/>
<polygon fill="#191970" stroke="#191970" points="1475.1858,-104.5169 1467.9388,-112.2455 1478.4237,-110.723 1475.1858,-104.5169"/>
</g>
<!-- Node28 -->
<g id="node19" class="node">
<title>Node28</title>
<g id="a_node19"><a xlink:href="a00089.xhtml" target="_top" xlink:title="Fichier MP3. ">
<polygon fill="#ffffff" stroke="#000000" points="1637,-56.5 1637,-75.5 1737,-75.5 1737,-56.5 1637,-56.5"/>
<text text-anchor="middle" x="1687" y="-63.5" font-family="Helvetica,sans-Serif" font-size="10.00" fill="#000000">src/file_type/mp3.h</text>
</a>
</g>
</g>
<!-- Node10&#45;&gt;Node28 -->
<g id="edge31" class="edge">
<title>Node10&#45;&gt;Node28</title>
<path fill="none" stroke="#191970" d="M1497.5601,-109.982C1539.0263,-99.6781 1600.3672,-85.0331 1641.9829,-75.5237"/>
<polygon fill="#191970" stroke="#191970" points="1496.5845,-106.6181 1487.7306,-112.4369 1498.2807,-113.4095 1496.5845,-106.6181"/>
</g>
<!-- Node29 -->
<g id="node20" class="node">
<title>Node29</title>
<g id="a_node20"><a xlink:href="a00086.xhtml" target="_top" xlink:title="Fichier MP3. ">
<polygon fill="#ffffff" stroke="#000000" points="1676,-.5 1676,-19.5 1776,-19.5 1776,-.5 1676,-.5"/>
<text text-anchor="middle" x="1726" y="-7.5" font-family="Helvetica,sans-Serif" font-size="10.00" fill="#000000">src/file_type/mp3.c</text>
</a>
</g>
</g>
<!-- Node10&#45;&gt;Node29 -->
<g id="edge41" class="edge">
<title>Node10&#45;&gt;Node29</title>
<path fill="none" stroke="#191970" d="M1503.0672,-117.6614C1582.5903,-110.2587 1730.4258,-94.2101 1746,-76 1760.0075,-59.6218 1744.4292,-33.6461 1733.9451,-19.6664"/>
<polygon fill="#191970" stroke="#191970" points="1502.4251,-114.2055 1492.7872,-118.6056 1503.0654,-121.1762 1502.4251,-114.2055"/>
</g>
<!-- Node30 -->
<g id="node21" class="node">
<title>Node30</title>
<g id="a_node21"><a xlink:href="a00083.xhtml" target="_top" xlink:title="Fichier FLV. ">
<polygon fill="#ffffff" stroke="#000000" points="1793,-56.5 1793,-75.5 1885,-75.5 1885,-56.5 1793,-56.5"/>
<text text-anchor="middle" x="1839" y="-63.5" font-family="Helvetica,sans-Serif" font-size="10.00" fill="#000000">src/file_type/flv.h</text>
</a>
</g>
</g>
<!-- Node10&#45;&gt;Node30 -->
<g id="edge34" class="edge">
<title>Node10&#45;&gt;Node30</title>
<path fill="none" stroke="#191970" d="M1502.6177,-114.5174C1565.1063,-105.7463 1675.414,-90.5531 1770,-76 1777.3063,-74.8759 1785.103,-73.6188 1792.7597,-72.3856"/>
<polygon fill="#191970" stroke="#191970" points="1502.052,-111.0624 1492.637,-115.9213 1503.0271,-117.9941 1502.052,-111.0624"/>
</g>
<!-- Node31 -->
<g id="node22" class="node">
<title>Node31</title>
<g id="a_node22"><a xlink:href="a00050.xhtml" target="_top" xlink:title="Module de détection de l&#39;algorithme. ">
<polygon fill="#ffffff" stroke="#000000" points="1903,-56.5 1903,-75.5 1995,-75.5 1995,-56.5 1903,-56.5"/>
<text text-anchor="middle" x="1949" y="-63.5" font-family="Helvetica,sans-Serif" font-size="10.00" fill="#000000">src/detect_algo.c</text>
</a>
</g>
</g>
<!-- Node10&#45;&gt;Node31 -->
<g id="edge36" class="edge">
<title>Node10&#45;&gt;Node31</title>
<path fill="none" stroke="#191970" d="M1502.6692,-118.0569C1584.4762,-111.2853 1752.5927,-96.2005 1894,-76 1896.8823,-75.5883 1899.8443,-75.1357 1902.8279,-74.6575"/>
<polygon fill="#191970" stroke="#191970" points="1502.3348,-114.5725 1492.6551,-118.8799 1502.9082,-121.549 1502.3348,-114.5725"/>
</g>
<!-- Node32 -->
<g id="node23" class="node">
<title>Node32</title>
<g id="a_node23"><a xlink:href="a00068.xhtml" target="_top" xlink:title="Fichier AVI. ">
<polygon fill="#ffffff" stroke="#000000" points="2013,-56.5 2013,-75.5 2107,-75.5 2107,-56.5 2013,-56.5"/>
<text text-anchor="middle" x="2060" y="-63.5" font-family="Helvetica,sans-Serif" font-size="10.00" fill="#000000">src/file_type/avi.c</text>
</a>
</g>
</g>
<!-- Node10&#45;&gt;Node32 -->
<g id="edge38" class="edge">
<title>Node10&#45;&gt;Node32</title>
<path fill="none" stroke="#191970" d="M1502.6299,-119.4149C1599.3814,-114.0311 1819.8683,-100.0729 2004,-76 2006.9378,-75.6159 2009.9561,-75.1845 2012.9957,-74.7222"/>
<polygon fill="#191970" stroke="#191970" points="1502.347,-115.9251 1492.5544,-119.9693 1502.7316,-122.9145 1502.347,-115.9251"/>
</g>
<!-- Node33 -->
<g id="node24" class="node">
<title>Node33</title>
<g id="a_node24"><a xlink:href="a00074.xhtml" target="_top" xlink:title="Fichier BMP. ">
<polygon fill="#ffffff" stroke="#000000" points="2125,-56.5 2125,-75.5 2225,-75.5 2225,-56.5 2125,-56.5"/>
<text text-anchor="middle" x="2175" y="-63.5" font-family="Helvetica,sans-Serif" font-size="10.00" fill="#000000">src/file_type/bmp.c</text>
</a>
</g>
</g>
<!-- Node10&#45;&gt;Node33 -->
<g id="edge39" class="edge">
<title>Node10&#45;&gt;Node33</title>
<path fill="none" stroke="#191970" d="M1502.9298,-120.2192C1613.6289,-115.9025 1887.915,-103.1746 2116,-76 2118.8885,-75.6559 2121.851,-75.2674 2124.8367,-74.8483"/>
<polygon fill="#191970" stroke="#191970" points="1502.593,-116.7294 1492.7347,-120.6109 1502.8618,-123.7243 1502.593,-116.7294"/>
</g>
<!-- Node34 -->
<g id="node25" class="node">
<title>Node34</title>
<g id="a_node25"><a xlink:href="a00080.xhtml" target="_top" xlink:title="Fichier FLV. ">
<polygon fill="#ffffff" stroke="#000000" points="2243,-56.5 2243,-75.5 2335,-75.5 2335,-56.5 2243,-56.5"/>
<text text-anchor="middle" x="2289" y="-63.5" font-family="Helvetica,sans-Serif" font-size="10.00" fill="#000000">src/file_type/flv.c</text>
</a>
</g>
</g>
<!-- Node10&#45;&gt;Node34 -->
<g id="edge40" class="edge">
<title>Node10&#45;&gt;Node34</title>
<path fill="none" stroke="#191970" d="M1502.8741,-121.1534C1626.9129,-118.5944 1959.1438,-108.9586 2234,-76 2236.8908,-75.6534 2239.8594,-75.2506 2242.8479,-74.8097"/>
<polygon fill="#191970" stroke="#191970" points="1502.4937,-117.6603 1492.5657,-121.3596 1502.6337,-124.6589 1502.4937,-117.6603"/>
</g>
<!-- Node35 -->
<g id="node26" class="node">
<title>Node35</title>
<g id="a_node26"><a xlink:href="a00092.xhtml" target="_top" xlink:title="Fichier PNG. ">
<polygon fill="#ffffff" stroke="#000000" points="2353.5,-56.5 2353.5,-75.5 2450.5,-75.5 2450.5,-56.5 2353.5,-56.5"/>
<text text-anchor="middle" x="2402" y="-63.5" font-family="Helvetica,sans-Serif" font-size="10.00" fill="#000000">src/file_type/png.c</text>
</a>
</g>
</g>
<!-- Node10&#45;&gt;Node35 -->
<g id="edge42" class="edge">
<title>Node10&#45;&gt;Node35</title>
<path fill="none" stroke="#191970" d="M1502.7259,-121.5076C1638.1613,-119.7188 2024.8133,-111.6271 2344,-76 2347.0465,-75.66 2350.1755,-75.2623 2353.3258,-74.8252"/>
<polygon fill="#191970" stroke="#191970" points="1502.6128,-118.0086 1492.6579,-121.6349 1502.7014,-125.0081 1502.6128,-118.0086"/>
</g>
<!-- Node36 -->
<g id="node27" class="node">
<title>Node36</title>
<g id="a_node27"><a xlink:href="a00101.xhtml" target="_top" xlink:title="Fichier WAVE. ">
<polygon fill="#ffffff" stroke="#000000" points="2468.5,-56.5 2468.5,-75.5 2567.5,-75.5 2567.5,-56.5 2468.5,-56.5"/>
<text text-anchor="middle" x="2518" y="-63.5" font-family="Helvetica,sans-Serif" font-size="10.00" fill="#000000">src/file_type/wav.c</text>
</a>
</g>
</g>
<!-- Node10&#45;&gt;Node36 -->
<g id="edge43" class="edge">
<title>Node10&#45;&gt;Node36</title>
<path fill="none" stroke="#191970" d="M1502.7241,-120.5538C1678.6522,-115.3081 2271.1812,-96.5087 2460,-76 2462.7427,-75.7021 2465.5521,-75.3558 2468.3835,-74.9746"/>
<polygon fill="#191970" stroke="#191970" points="1502.6045,-117.0557 1492.7129,-120.8511 1502.8124,-124.0526 1502.6045,-117.0557"/>
</g>
<!-- Node37 -->
<g id="node28" class="node">
<title>Node37</title>
<g id="a_node28"><a xlink:href="a00107.xhtml" target="_top" xlink:title="Fonction d&#39;initialisation et de libération de la bibliothèque. ">
<polygon fill="#ffffff" stroke="#000000" points="2586,-56.5 2586,-75.5 2640,-75.5 2640,-56.5 2586,-56.5"/>
<text text-anchor="middle" x="2613" y="-63.5" font-family="Helvetica,sans-Serif" font-size="10.00" fill="#000000">src/init.c</text>
</a>
</g>
</g>
<!-- Node10&#45;&gt;Node37 -->
<g id="edge44" class="edge">
<title>Node10&#45;&gt;Node37</title>
<path fill="none" stroke="#191970" d="M1502.8145,-121.4832C1691.944,-119.2851 2365.5163,-109.2454 2577,-76 2579.8195,-75.5568 2582.7333,-74.9705 2585.6256,-74.3034"/>
<polygon fill="#191970" stroke="#191970" points="1502.573,-117.9857 1492.6136,-121.5996 1502.6529,-124.9852 1502.573,-117.9857"/>
</g>
<!-- Node38 -->
<g id="node29" class="node">
<title>Node38</title>
<g id="a_node29"><a xlink:href="a00116.xhtml" target="_top" xlink:title="Algorithme de protection des données avec le mot de passe. ">
<polygon fill="#ffffff" stroke="#000000" points="2658,-56.5 2658,-75.5 2742,-75.5 2742,-56.5 2658,-56.5"/>
<text text-anchor="middle" x="2700" y="-63.5" font-family="Helvetica,sans-Serif" font-size="10.00" fill="#000000">src/protection.c</text>
</a>
</g>
</g>
<!-- Node10&#45;&gt;Node38 -->
<g id="edge46" class="edge">
<title>Node10&#45;&gt;Node38</title>
<path fill="none" stroke="#191970" d="M1502.6754,-121.1182C1699.0474,-117.4732 2421.5206,-102.5141 2649,-76 2651.8679,-75.6657 2654.8156,-75.2588 2657.7785,-74.8025"/>
<polygon fill="#191970" stroke="#191970" points="1502.5795,-117.6193 1492.6457,-121.303 1502.7085,-124.6181 1502.5795,-117.6193"/>
</g>
<!-- Node39 -->
<g id="node30" class="node">
<title>Node39</title>
<g id="a_node30"><a xlink:href="a00128.xhtml" target="_top" xlink:title="Proposition des algorithmes. ">
<polygon fill="#ffffff" stroke="#000000" points="2760,-56.5 2760,-75.5 2846,-75.5 2846,-56.5 2760,-56.5"/>
<text text-anchor="middle" x="2803" y="-63.5" font-family="Helvetica,sans-Serif" font-size="10.00" fill="#000000">src/sugg_algo.c</text>
</a>
</g>
</g>
<!-- Node10&#45;&gt;Node39 -->
<g id="edge47" class="edge">
<title>Node10&#45;&gt;Node39</title>
<path fill="none" stroke="#191970" d="M1503.0903,-121.2609C1710.4735,-118.041 2502.5542,-104.1206 2751,-76 2753.9232,-75.6691 2756.928,-75.2647 2759.9485,-74.8104"/>
<polygon fill="#191970" stroke="#191970" points="1502.7541,-117.7656 1492.8092,-121.4192 1502.8619,-124.7648 1502.7541,-117.7656"/>
</g>
<!-- Node12&#45;&gt;Node13 -->
<g id="edge3" class="edge">
<title>Node12&#45;&gt;Node13</title>
<path fill="none" stroke="#191970" d="M372.3753,-48.5004C363.8727,-38.9775 353.6782,-27.5596 346.6095,-19.6427"/>
<polygon fill="#191970" stroke="#191970" points="370.0197,-51.1172 379.2907,-56.2455 375.2413,-46.4551 370.0197,-51.1172"/>
</g>
<!-- Node12&#45;&gt;Node14 -->
<g id="edge4" class="edge">
<title>Node12&#45;&gt;Node14</title>
<path fill="none" stroke="#191970" d="M402.6872,-48.5004C410.6796,-38.9775 420.2625,-27.5596 426.907,-19.6427"/>
<polygon fill="#191970" stroke="#191970" points="399.9346,-46.3357 396.1868,-56.2455 405.2964,-50.8358 399.9346,-46.3357"/>
</g>
<!-- Node16&#45;&gt;Node13 -->
<g id="edge7" class="edge">
<title>Node16&#45;&gt;Node13</title>
<path fill="none" stroke="#191970" d="M448.4435,-52.6541C422.0014,-42.4419 386.1831,-28.6086 362.6011,-19.5011"/>
<polygon fill="#191970" stroke="#191970" points="447.4842,-56.0354 458.0736,-56.3733 450.0061,-49.5055 447.4842,-56.0354"/>
</g>
<!-- Node16&#45;&gt;Node14 -->
<g id="edge8" class="edge">
<title>Node16&#45;&gt;Node14</title>
<path fill="none" stroke="#191970" d="M468.0003,-48.5004C459.8378,-38.9775 450.0511,-27.5596 443.2651,-19.6427"/>
<polygon fill="#191970" stroke="#191970" points="465.4737,-50.9307 474.639,-56.2455 470.7885,-46.3752 465.4737,-50.9307"/>
</g>
<!-- Node18&#45;&gt;Node10 -->
<g id="edge12" class="edge">
<title>Node18&#45;&gt;Node10</title>
<path fill="none" stroke="#191970" d="M905.2619,-74.2729C909.5842,-74.9001 913.8665,-75.4872 918,-76 1102.8289,-98.9288 1324.4284,-113.7604 1413.3829,-119.4162"/>
<polygon fill="#191970" stroke="#191970" points="905.5644,-70.7791 895.1551,-72.7529 904.5233,-77.7013 905.5644,-70.7791"/>
</g>
<!-- Node18&#45;&gt;Node17 -->
<g id="edge11" class="edge">
<title>Node18&#45;&gt;Node17</title>
<path fill="none" stroke="#191970" d="M860.1376,-47.6296C866.3093,-38.2887 873.5566,-27.3197 878.6289,-19.6427"/>
<polygon fill="#191970" stroke="#191970" points="857.0373,-45.9728 854.4449,-56.2455 862.8777,-49.8316 857.0373,-45.9728"/>
</g>
<!-- Node19&#45;&gt;Node13 -->
<g id="edge14" class="edge">
<title>Node19&#45;&gt;Node13</title>
<path fill="none" stroke="#191970" d="M541.0711,-54.249C490.8001,-43.295 417.2446,-27.2673 373.8324,-17.8078"/>
<polygon fill="#191970" stroke="#191970" points="540.5962,-57.7275 551.1121,-56.4369 542.0866,-50.888 540.5962,-57.7275"/>
</g>
<!-- Node19&#45;&gt;Node14 -->
<g id="edge15" class="edge">
<title>Node19&#45;&gt;Node14</title>
<path fill="none" stroke="#191970" d="M558.0201,-53.057C528.7382,-42.8084 488.5115,-28.729 462.1461,-19.5011"/>
<polygon fill="#191970" stroke="#191970" points="556.9002,-56.3732 567.495,-56.3733 559.2127,-49.7662 556.9002,-56.3732"/>
</g>
<!-- Node21&#45;&gt;Node13 -->
<g id="edge18" class="edge">
<title>Node21&#45;&gt;Node13</title>
<path fill="none" stroke="#191970" d="M210.3667,-53.057C240.7466,-42.8084 282.4819,-28.729 309.836,-19.5011"/>
<polygon fill="#191970" stroke="#191970" points="208.893,-49.8603 200.5364,-56.3733 211.1306,-56.4931 208.893,-49.8603"/>
</g>
<!-- Node21&#45;&gt;Node14 -->
<g id="edge19" class="edge">
<title>Node21&#45;&gt;Node14</title>
<path fill="none" stroke="#191970" d="M219.5945,-55.6645C290.1278,-40.5393 361.6878,-25.4297 402.2697,-16.8832"/>
<polygon fill="#191970" stroke="#191970" points="218.6951,-52.2778 209.6521,-57.7982 220.1639,-59.1219 218.6951,-52.2778"/>
</g>
<!-- Node23&#45;&gt;Node13 -->
<g id="edge22" class="edge">
<title>Node23&#45;&gt;Node13</title>
<path fill="none" stroke="#191970" d="M296.5307,-49.3607C306.7377,-39.6727 319.2469,-27.7995 327.8408,-19.6427"/>
<polygon fill="#191970" stroke="#191970" points="294.1206,-46.8227 289.277,-56.2455 298.9396,-51.8998 294.1206,-46.8227"/>
</g>
<!-- Node23&#45;&gt;Node14 -->
<g id="edge23" class="edge">
<title>Node23&#45;&gt;Node14</title>
<path fill="none" stroke="#191970" d="M315.4284,-52.9231C343.9461,-42.686 382.9381,-28.6889 408.5326,-19.5011"/>
<polygon fill="#191970" stroke="#191970" points="314.0468,-49.7004 305.8174,-56.3733 316.4119,-56.2887 314.0468,-49.7004"/>
</g>
<!-- Node25&#45;&gt;Node10 -->
<g id="edge26" class="edge">
<title>Node25&#45;&gt;Node10</title>
<path fill="none" stroke="#191970" d="M1370.5931,-79.7327C1392.961,-89.8101 1420.8334,-103.2519 1437.887,-112.2455"/>
<polygon fill="#191970" stroke="#191970" points="1371.951,-76.5062 1361.3914,-75.6427 1369.1078,-82.9028 1371.951,-76.5062"/>
</g>
<!-- Node26&#45;&gt;Node10 -->
<g id="edge28" class="edge">
<title>Node26&#45;&gt;Node10</title>
<path fill="none" stroke="#191970" d="M1459.4795,-85.7046C1460.0821,-94.6944 1459.6779,-104.9382 1458.2668,-112.2455"/>
<polygon fill="#191970" stroke="#191970" points="1462.9368,-85.1421 1458.2451,-75.6427 1455.9889,-85.9945 1462.9368,-85.1421"/>
</g>
<!-- Node27&#45;&gt;Node10 -->
<g id="edge30" class="edge">
<title>Node27&#45;&gt;Node10</title>
<path fill="none" stroke="#191970" d="M1545.6294,-80.1575C1526.0171,-90.2334 1498.2886,-103.5047 1478.1831,-112.3733"/>
<polygon fill="#191970" stroke="#191970" points="1547.2959,-83.2358 1554.5364,-75.5011 1544.0528,-77.0324 1547.2959,-83.2358"/>
</g>
<!-- Node28&#45;&gt;Node10 -->
<g id="edge32" class="edge">
<title>Node28&#45;&gt;Node10</title>
<path fill="none" stroke="#191970" d="M1642.1936,-78.0792C1598.9402,-88.8247 1534.2286,-104.2555 1492.7484,-113.6767"/>
<polygon fill="#191970" stroke="#191970" points="1643.3054,-81.4091 1652.1596,-75.5907 1641.6095,-74.6176 1643.3054,-81.4091"/>
</g>
<!-- Node28&#45;&gt;Node29 -->
<g id="edge33" class="edge">
<title>Node28&#45;&gt;Node29</title>
<path fill="none" stroke="#191970" d="M1699.5908,-47.9209C1706.1395,-38.5176 1713.8824,-27.3997 1719.2846,-19.6427"/>
<polygon fill="#191970" stroke="#191970" points="1696.6361,-46.0392 1693.7933,-56.2455 1702.3804,-50.0397 1696.6361,-46.0392"/>
</g>
<!-- Node30&#45;&gt;Node10 -->
<g id="edge35" class="edge">
<title>Node30&#45;&gt;Node10</title>
<path fill="none" stroke="#191970" d="M1782.6378,-76.8118C1674.22,-93.371 1553.8556,-109.7302 1492.7396,-117.4463"/>
<polygon fill="#191970" stroke="#191970" points="1783.4006,-80.2358 1792.7546,-75.2606 1782.3397,-73.3166 1783.4006,-80.2358"/>
</g>
</g>
</svg>
        <g id="navigator" transform="translate(0 0)" fill="#404254">
                <rect fill="#f2f5e9" fill-opacity="0.5" stroke="#606060" stroke-width=".5" x="0" y="0" width="60" height="60"/>
                <use id="zoomplus" xlink:href="#zoomPlus" x="17" y="9" onmousedown="handleZoom(evt,'in')"/>
                <use id="zoomminus" xlink:href="#zoomMin" x="42" y="9" onmousedown="handleZoom(evt,'out')"/>
                <use id="reset" xlink:href="#resetDef" x="30" y="36" onmousedown="handleReset()"/>
                <g id="arrowUp" xlink:href="#dirArrow" transform="translate(30 24)" onmousedown="handlePan(0,-1)">
                  <use xlink:href="#rim" fill="#404040">
                        <set attributeName="fill" to="#808080" begin="arrowUp.mouseover" end="arrowUp.mouseout"/>
                  </use>
                  <path fill="none" stroke="white" stroke-width="1.5" d="M0,-3.0v7 M-2.5,-0.5L0,-3.0L2.5,-0.5"/>
                </g>
                <g id="arrowRight" xlink:href="#dirArrow" transform="rotate(90) translate(36 -43)" onmousedown="handlePan(1,0)">
                  <use xlink:href="#rim" fill="#404040">
                        <set attributeName="fill" to="#808080" begin="arrowRight.mouseover" end="arrowRight.mouseout"/>
                  </use>
                  <path fill="none" stroke="white" stroke-width="1.5" d="M0,-3.0v7 M-2.5,-0.5L0,-3.0L2.5,-0.5"/>
                </g>
                <g id="arrowDown" xlink:href="#dirArrow" transform="rotate(180) translate(-30 -48)" onmousedown="handlePan(0,1)">
                  <use xlink:href="#rim" fill="#404040">
                        <set attributeName="fill" to="#808080" begin="arrowDown.mouseover" end="arrowDown.mouseout"/>
                  </use>
                  <path fill="none" stroke="white" stroke-width="1.5" d="M0,-3.0v7 M-2.5,-0.5L0,-3.0L2.5,-0.5"/>
                </g>
                <g id="arrowLeft" xlink:href="#dirArrow" transform="rotate(270) translate(-36 17)" onmousedown="handlePan(-1,0)">
                  <use xlink:href="#rim" fill="#404040">
                        <set attributeName="fill" to="#808080" begin="arrowLeft.mouseover" end="arrowLeft.mouseout"/>
                  </use>
                  <path fill="none" stroke="white" stroke-width="1.5" d="M0,-3.0v7 M-2.5,-0.5L0,-3.0L2.5,-0.5"/>
                </g>
        </g>
        <svg viewBox="0 0 15 15" width="100%" height="30px" preserveAspectRatio="xMaxYMin meet">
         <g id="arrow_out" transform="scale(0.3 0.3)">
          <a xlink:href="a00049_org.svg" target="_base">
           <rect id="button" ry="5" rx="5" y="6" x="6" height="38" width="38"
                fill="#f2f5e9" fill-opacity="0.5" stroke="#606060" stroke-width="1.0"/>
           <path id="arrow"
             d="M 11.500037,31.436501 C 11.940474,20.09759 22.043105,11.32322 32.158766,21.979434 L 37.068811,17.246167 C 37.068811,17.246167 37.088388,32 37.088388,32 L 22.160133,31.978069 C 22.160133,31.978069 26.997745,27.140456 26.997745,27.140456 C 18.528582,18.264221 13.291696,25.230495 11.500037,31.436501 z"
             style="fill:#404040;"/>
          </a>
         </g>
        </svg>
</svg>
