<?xml version="1.0" encoding="UTF-8" standalone="no"?>
<!DOCTYPE svg PUBLIC "-//W3C//DTD SVG 1.1//EN"
 "http://www.w3.org/Graphics/SVG/1.1/DTD/svg11.dtd">
<!-- Generated by graphviz version 2.40.1 (20161225.0304)
 -->
<!-- Title: mp3_id3v2_hdr_test Pages: 1 -->
<svg width="565pt" height="104pt"
 viewBox="0.00 0.00 565.00 104.00" xmlns="http://www.w3.org/2000/svg" xmlns:xlink="http://www.w3.org/1999/xlink">
<g id="graph0" class="graph" transform="scale(1 1) rotate(0) translate(4 100)">
<title>mp3_id3v2_hdr_test</title>
<polygon fill="#ffffff" stroke="transparent" points="-4,4 -4,-100 561,-100 561,4 -4,4"/>
<!-- Node17 -->
<g id="node1" class="node">
<title>Node17</title>
<polygon fill="#bfbfbf" stroke="#000000" points="0,-19.5 0,-38.5 104,-38.5 104,-19.5 0,-19.5"/>
<text text-anchor="middle" x="52" y="-26.5" font-family="Helvetica,sans-Serif" font-size="10.00" fill="#000000">mp3_id3v2_hdr_test</text>
</g>
<!-- Node18 -->
<g id="node2" class="node">
<title>Node18</title>
<g id="a_node2"><a xlink:href="a00089.xhtml#afc3c44f7f4f0993fbc17c150c728e677" target="_top" xlink:title="Trouve la première frame MPEG 1/2 Layer III. ">
<polygon fill="#ffffff" stroke="#000000" points="140,-38.5 140,-57.5 259,-57.5 259,-38.5 140,-38.5"/>
<text text-anchor="middle" x="199.5" y="-45.5" font-family="Helvetica,sans-Serif" font-size="10.00" fill="#000000">mp3_mpeg_fr_find_first</text>
</a>
</g>
</g>
<!-- Node17&#45;&gt;Node18 -->
<g id="edge1" class="edge">
<title>Node17&#45;&gt;Node18</title>
<path fill="none" stroke="#191970" d="M113.959,-36.9812C122.5504,-38.0879 131.361,-39.2228 139.908,-40.3237"/>
<polygon fill="#191970" stroke="#191970" points="114.3682,-33.505 104.003,-35.6987 113.4739,-40.4477 114.3682,-33.505"/>
</g>
<!-- Node22 -->
<g id="node6" class="node">
<title>Node22</title>
<g id="a_node6"><a xlink:href="a00089.xhtml#a581193a38ac3c779c8920bd3be9883fc" target="_top" xlink:title="Test si le fichier est un fichier MP3. ">
<polygon fill="#ffffff" stroke="#000000" points="147.5,-.5 147.5,-19.5 251.5,-19.5 251.5,-.5 147.5,-.5"/>
<text text-anchor="middle" x="199.5" y="-7.5" font-family="Helvetica,sans-Serif" font-size="10.00" fill="#000000">stegx_test_file_mp3</text>
</a>
</g>
</g>
<!-- Node17&#45;&gt;Node22 -->
<g id="edge5" class="edge">
<title>Node17&#45;&gt;Node22</title>
<path fill="none" stroke="#191970" d="M114.0791,-21.0034C125.1945,-19.5716 136.6729,-18.093 147.4695,-16.7022"/>
<polygon fill="#191970" stroke="#191970" points="113.4739,-17.5523 104.003,-22.3013 114.3682,-24.495 113.4739,-17.5523"/>
</g>
<!-- Node19 -->
<g id="node3" class="node">
<title>Node19</title>
<g id="a_node3"><a xlink:href="a00131.xhtml#a5501c9c7711252fa8d85ff12cb3390dc" target="_top" xlink:title="Remplit les informations du fichier hôte. ">
<polygon fill="#ffffff" stroke="#000000" points="306.5,-38.5 306.5,-57.5 377.5,-57.5 377.5,-38.5 306.5,-38.5"/>
<text text-anchor="middle" x="342" y="-45.5" font-family="Helvetica,sans-Serif" font-size="10.00" fill="#000000">fill_host_info</text>
</a>
</g>
</g>
<!-- Node18&#45;&gt;Node19 -->
<g id="edge2" class="edge">
<title>Node18&#45;&gt;Node19</title>
<path fill="none" stroke="#191970" d="M269.3185,-48C282.1069,-48 294.9568,-48 306.2194,-48"/>
<polygon fill="#191970" stroke="#191970" points="269.1072,-44.5001 259.1072,-48 269.1071,-51.5001 269.1072,-44.5001"/>
</g>
<!-- Node20 -->
<g id="node4" class="node">
<title>Node20</title>
<g id="a_node4"><a xlink:href="a00050.xhtml#a2a3747fdc90ed4467eb3e468d8fba361" target="_top" xlink:title="Detecte l&#39;algorithme utilisé ainsi que le nom du fichier caché et la taille des données cachées...">
<polygon fill="#ffffff" stroke="#000000" points="443,-76.5 443,-95.5 539,-95.5 539,-76.5 443,-76.5"/>
<text text-anchor="middle" x="491" y="-83.5" font-family="Helvetica,sans-Serif" font-size="10.00" fill="#000000">stegx_detect_algo</text>
</a>
</g>
</g>
<!-- Node19&#45;&gt;Node20 -->
<g id="edge3" class="edge">
<title>Node19&#45;&gt;Node20</title>
<path fill="none" stroke="#191970" d="M387.4291,-59.5859C408.588,-64.9822 433.4575,-71.3247 453.5227,-76.442"/>
<polygon fill="#191970" stroke="#191970" points="388.244,-56.1818 377.6892,-57.1019 386.5141,-62.9647 388.244,-56.1818"/>
</g>
<!-- Node21 -->
<g id="node5" class="node">
<title>Node21</title>
<g id="a_node5"><a xlink:href="a00128.xhtml#adc277622e5fe0d1814be76f11263b350" target="_top" xlink:title="Propose les algorithmes de stéganographie utilisables. ">
<polygon fill="#ffffff" stroke="#000000" points="439,-38.5 439,-57.5 543,-57.5 543,-38.5 439,-38.5"/>
<text text-anchor="middle" x="491" y="-45.5" font-family="Helvetica,sans-Serif" font-size="10.00" fill="#000000">stegx_suggest_algo</text>
</a>
</g>
</g>
<!-- Node19&#45;&gt;Node21 -->
<g id="edge4" class="edge">
<title>Node19&#45;&gt;Node21</title>
<path fill="none" stroke="#191970" d="M387.9568,-48C404.103,-48 422.3565,-48 438.9663,-48"/>
<polygon fill="#191970" stroke="#191970" points="387.6892,-44.5001 377.6892,-48 387.6892,-51.5001 387.6892,-44.5001"/>
</g>
<!-- Node23 -->
<g id="node7" class="node">
<title>Node23</title>
<g id="a_node7"><a xlink:href="a00044.xhtml#aa5fe126b37cde4faccaaf190a3b977d3" target="_top" xlink:title="Retourne le type du fichier. ">
<polygon fill="#ffffff" stroke="#000000" points="295,-.5 295,-19.5 389,-19.5 389,-.5 295,-.5"/>
<text text-anchor="middle" x="342" y="-7.5" font-family="Helvetica,sans-Serif" font-size="10.00" fill="#000000">check_file_format</text>
</a>
</g>
</g>
<!-- Node22&#45;&gt;Node23 -->
<g id="edge6" class="edge">
<title>Node22&#45;&gt;Node23</title>
<path fill="none" stroke="#191970" d="M261.8399,-10C272.9481,-10 284.3498,-10 294.9422,-10"/>
<polygon fill="#191970" stroke="#191970" points="261.7526,-6.5001 251.7526,-10 261.7525,-13.5001 261.7526,-6.5001"/>
</g>
<!-- Node24 -->
<g id="node8" class="node">
<title>Node24</title>
<g id="a_node8"><a xlink:href="a00044.xhtml#aa5b31aaae617d7c5d0c29d564e2c8a42" target="_top" xlink:title="Vérifie la compatibilité des fichiers. ">
<polygon fill="#ffffff" stroke="#000000" points="425,-.5 425,-19.5 557,-19.5 557,-.5 425,-.5"/>
<text text-anchor="middle" x="491" y="-7.5" font-family="Helvetica,sans-Serif" font-size="10.00" fill="#000000">stegx_check_compatibility</text>
</a>
</g>
</g>
<!-- Node23&#45;&gt;Node24 -->
<g id="edge7" class="edge">
<title>Node23&#45;&gt;Node24</title>
<path fill="none" stroke="#191970" d="M399.1932,-10C407.5826,-10 416.2819,-10 424.833,-10"/>
<polygon fill="#191970" stroke="#191970" points="399.1446,-6.5001 389.1445,-10 399.1445,-13.5001 399.1446,-6.5001"/>
</g>
</g>
</svg>
