<?xml version="1.0" encoding="UTF-8" standalone="no"?>
<!DOCTYPE svg PUBLIC "-//W3C//DTD SVG 1.1//EN"
 "http://www.w3.org/Graphics/SVG/1.1/DTD/svg11.dtd">
<!-- Generated by graphviz version 2.40.1 (20161225.0304)
 -->
<!-- Title: insert_metadata Pages: 1 -->
<svg width="475pt" height="313pt"
 viewBox="0.00 0.00 475.00 313.00" xmlns="http://www.w3.org/2000/svg" xmlns:xlink="http://www.w3.org/1999/xlink">
<g id="graph0" class="graph" transform="scale(1 1) rotate(0) translate(4 309)">
<title>insert_metadata</title>
<polygon fill="#ffffff" stroke="transparent" points="-4,4 -4,-309 471,-309 471,4 -4,4"/>
<!-- Node12 -->
<g id="node1" class="node">
<title>Node12</title>
<polygon fill="#bfbfbf" stroke="#000000" points="0,-57.5 0,-76.5 86,-76.5 86,-57.5 0,-57.5"/>
<text text-anchor="middle" x="43" y="-64.5" font-family="Helvetica,sans-Serif" font-size="10.00" fill="#000000">insert_metadata</text>
</g>
<!-- Node13 -->
<g id="node2" class="node">
<title>Node13</title>
<g id="a_node2"><a xlink:href="a00074.xhtml#a9b0bec96351bc1e6be9134900590d215" target="_top" xlink:title="Va inserer les donnees cachees en utilisant l&#39;algorithme Metadata dans le format BMP. ">
<polygon fill="#ffffff" stroke="#000000" points="122,-76.5 122,-95.5 232,-95.5 232,-76.5 122,-76.5"/>
<text text-anchor="middle" x="177" y="-83.5" font-family="Helvetica,sans-Serif" font-size="10.00" fill="#000000">insert_metadata_bmp</text>
</a>
</g>
</g>
<!-- Node12&#45;&gt;Node13 -->
<g id="edge1" class="edge">
<title>Node12&#45;&gt;Node13</title>
<path fill="none" stroke="#191970" d="M86.136,-73.1163C94.2747,-74.2703 102.9537,-75.5009 111.5972,-76.7265"/>
<polygon fill="#191970" stroke="#191970" points="111.3008,-80.2194 121.6932,-78.158 112.2836,-73.2887 111.3008,-80.2194"/>
</g>
<!-- Node19 -->
<g id="node8" class="node">
<title>Node19</title>
<g id="a_node8"><a xlink:href="a00092.xhtml#a2386f518ec5df78485cca31c6fe4f858" target="_top" xlink:title="Va inserer les donnees cachees en utilisant l&#39;algorithme Metadata dans le format PNG. ">
<polygon fill="#ffffff" stroke="#000000" points="123.5,-171.5 123.5,-190.5 230.5,-190.5 230.5,-171.5 123.5,-171.5"/>
<text text-anchor="middle" x="177" y="-178.5" font-family="Helvetica,sans-Serif" font-size="10.00" fill="#000000">insert_metadata_png</text>
</a>
</g>
</g>
<!-- Node12&#45;&gt;Node19 -->
<g id="edge10" class="edge">
<title>Node12&#45;&gt;Node19</title>
<path fill="none" stroke="#191970" d="M54.4248,-76.7196C77.4666,-96.3223 129.7149,-140.7724 157.9846,-164.8227"/>
<polygon fill="#191970" stroke="#191970" points="155.7196,-167.491 165.6042,-171.305 160.2555,-162.1594 155.7196,-167.491"/>
</g>
<!-- Node22 -->
<g id="node11" class="node">
<title>Node22</title>
<g id="a_node11"><a xlink:href="a00068.xhtml#ac4b663dd386f05a601c55cd34b99cca4" target="_top" xlink:title="Va inserer les donnees cachees en utilisant l&#39;algorithme Metadata dans le format AVI. ">
<polygon fill="#ffffff" stroke="#000000" points="125,-38.5 125,-57.5 229,-57.5 229,-38.5 125,-38.5"/>
<text text-anchor="middle" x="177" y="-45.5" font-family="Helvetica,sans-Serif" font-size="10.00" fill="#000000">insert_metadata_avi</text>
</a>
</g>
</g>
<!-- Node12&#45;&gt;Node22 -->
<g id="edge18" class="edge">
<title>Node12&#45;&gt;Node22</title>
<path fill="none" stroke="#191970" d="M86.136,-60.8837C95.2214,-59.5955 104.9803,-58.2117 114.6115,-56.8461"/>
<polygon fill="#191970" stroke="#191970" points="115.1588,-60.3036 124.5684,-55.4343 114.176,-53.373 115.1588,-60.3036"/>
</g>
<!-- Node23 -->
<g id="node12" class="node">
<title>Node23</title>
<g id="a_node12"><a xlink:href="a00080.xhtml#aca61ada38d1e29a78be8587538cabdf6" target="_top" xlink:title="Va inserer les donnees cachees en utilisant l&#39;algorithme Metadata dans le format FLV. ">
<polygon fill="#ffffff" stroke="#000000" points="126,-.5 126,-19.5 228,-19.5 228,-.5 126,-.5"/>
<text text-anchor="middle" x="177" y="-7.5" font-family="Helvetica,sans-Serif" font-size="10.00" fill="#000000">insert_metadata_flv</text>
</a>
</g>
</g>
<!-- Node12&#45;&gt;Node23 -->
<g id="edge19" class="edge">
<title>Node12&#45;&gt;Node23</title>
<path fill="none" stroke="#191970" d="M61.2428,-57.4807C77.0818,-49.3965 100.7485,-37.7475 122,-29 127.0796,-26.9091 132.4827,-24.8493 137.8427,-22.9016"/>
<polygon fill="#191970" stroke="#191970" points="139.1038,-26.1681 147.3649,-19.5345 136.7702,-19.5686 139.1038,-26.1681"/>
</g>
<!-- Node14 -->
<g id="node3" class="node">
<title>Node14</title>
<g id="a_node3"><a xlink:href="a00122.xhtml#a4e9a217b960dc65fd08dff9f78e317e4" target="_top" xlink:title="Initialise la seed de la suite pseudo aléatoire. ">
<polygon fill="#ffffff" stroke="#000000" points="392,-209.5 392,-228.5 462,-228.5 462,-209.5 392,-209.5"/>
<text text-anchor="middle" x="427" y="-216.5" font-family="Helvetica,sans-Serif" font-size="10.00" fill="#000000">stegx_srand</text>
</a>
</g>
</g>
<!-- Node13&#45;&gt;Node14 -->
<g id="edge2" class="edge">
<title>Node13&#45;&gt;Node14</title>
<path fill="none" stroke="#191970" d="M206.0711,-76.4363C243.4566,-66.095 308.6043,-54.9287 351,-86 393.8558,-117.4085 352.1004,-159.9359 387,-200 388.1457,-201.3152 389.4024,-202.5465 390.7416,-203.6985"/>
<polygon fill="#191970" stroke="#191970" points="388.891,-206.6736 399.1128,-209.4601 392.8597,-200.9074 388.891,-206.6736"/>
</g>
<!-- Node15 -->
<g id="node4" class="node">
<title>Node15</title>
<g id="a_node4"><a xlink:href="a00122.xhtml#a2a891bbe3514201de3cfc5acced104b7" target="_top" xlink:title="Cree un seed a partir d&#39;un mot de passe. ">
<polygon fill="#ffffff" stroke="#000000" points="392,-171.5 392,-190.5 462,-190.5 462,-171.5 392,-171.5"/>
<text text-anchor="middle" x="427" y="-178.5" font-family="Helvetica,sans-Serif" font-size="10.00" fill="#000000">create_seed</text>
</a>
</g>
</g>
<!-- Node13&#45;&gt;Node15 -->
<g id="edge3" class="edge">
<title>Node13&#45;&gt;Node15</title>
<path fill="none" stroke="#191970" d="M205.3362,-76.4431C213.9254,-73.4838 223.3698,-70.1675 232,-67 281.9929,-48.6517 307.8413,-21.8026 351,-53 392.347,-82.8879 353.2378,-123.7511 387,-162 388.1543,-163.3077 389.4181,-164.5328 390.763,-165.6797"/>
<polygon fill="#191970" stroke="#191970" points="388.9253,-168.6632 399.1542,-171.4239 392.8795,-162.8869 388.9253,-168.6632"/>
</g>
<!-- Node16 -->
<g id="node5" class="node">
<title>Node16</title>
<g id="a_node5"><a xlink:href="a00122.xhtml#a9966534d45c62d0df7a3d5df48668715" target="_top" xlink:title="Renvoie un entier pseudo&#45;aléatoire. ">
<polygon fill="#ffffff" stroke="#000000" points="394.5,-133.5 394.5,-152.5 459.5,-152.5 459.5,-133.5 394.5,-133.5"/>
<text text-anchor="middle" x="427" y="-140.5" font-family="Helvetica,sans-Serif" font-size="10.00" fill="#000000">stegx_rand</text>
</a>
</g>
</g>
<!-- Node13&#45;&gt;Node16 -->
<g id="edge4" class="edge">
<title>Node13&#45;&gt;Node16</title>
<path fill="none" stroke="#191970" d="M215.0004,-76.4441C221.0234,-73.9502 226.9293,-70.8463 232,-67 254.3953,-50.0126 243.1015,-28.0456 268,-15 300.6754,2.1204 318.9413,3.249 351,-15 392.0267,-38.3539 413.1994,-93.5486 421.9632,-123.2552"/>
<polygon fill="#191970" stroke="#191970" points="418.694,-124.5656 424.7299,-133.273 425.4414,-122.7021 418.694,-124.5656"/>
</g>
<!-- Node17 -->
<g id="node6" class="node">
<title>Node17</title>
<g id="a_node6"><a xlink:href="a00116.xhtml#a3fd0a8f9ba189acd34f864c97f059b0f" target="_top" xlink:title="Fait le mélange ou réarrange les octets selon l&#39;algorithme de protection des données. ">
<polygon fill="#ffffff" stroke="#000000" points="274,-171.5 274,-190.5 345,-190.5 345,-171.5 274,-171.5"/>
<text text-anchor="middle" x="309.5" y="-178.5" font-family="Helvetica,sans-Serif" font-size="10.00" fill="#000000">protect_data</text>
</a>
</g>
</g>
<!-- Node13&#45;&gt;Node17 -->
<g id="edge5" class="edge">
<title>Node13&#45;&gt;Node17</title>
<path fill="none" stroke="#191970" d="M190.6808,-95.8089C213.7107,-112.3209 260.3946,-145.7924 287.8918,-165.5073"/>
<polygon fill="#191970" stroke="#191970" points="285.9246,-168.4035 296.091,-171.386 290.0034,-162.7146 285.9246,-168.4035"/>
</g>
<!-- Node18 -->
<g id="node7" class="node">
<title>Node18</title>
<g id="a_node7"><a xlink:href="a00110.xhtml#a66a71cd33131eb29010132269d237356" target="_top" xlink:title="Ecrit la signature StegX. ">
<polygon fill="#ffffff" stroke="#000000" points="268,-95.5 268,-114.5 351,-114.5 351,-95.5 268,-95.5"/>
<text text-anchor="middle" x="309.5" y="-102.5" font-family="Helvetica,sans-Serif" font-size="10.00" fill="#000000">write_signature</text>
</a>
</g>
</g>
<!-- Node13&#45;&gt;Node18 -->
<g id="edge9" class="edge">
<title>Node13&#45;&gt;Node18</title>
<path fill="none" stroke="#191970" d="M232.0408,-93.8926C240.5331,-95.1104 249.2784,-96.3644 257.6966,-97.5716"/>
<polygon fill="#191970" stroke="#191970" points="257.3681,-101.0602 267.7637,-99.0152 258.3618,-94.1311 257.3681,-101.0602"/>
</g>
<!-- Node17&#45;&gt;Node14 -->
<g id="edge6" class="edge">
<title>Node17&#45;&gt;Node14</title>
<path fill="none" stroke="#191970" d="M339.1502,-190.589C353.9009,-195.3594 371.9258,-201.1888 387.801,-206.3229"/>
<polygon fill="#191970" stroke="#191970" points="386.7675,-209.667 397.3593,-209.4141 388.9215,-203.0067 386.7675,-209.667"/>
</g>
<!-- Node17&#45;&gt;Node15 -->
<g id="edge7" class="edge">
<title>Node17&#45;&gt;Node15</title>
<path fill="none" stroke="#191970" d="M345.0727,-181C356.6821,-181 369.7295,-181 381.9412,-181"/>
<polygon fill="#191970" stroke="#191970" points="381.9525,-184.5001 391.9525,-181 381.9525,-177.5001 381.9525,-184.5001"/>
</g>
<!-- Node17&#45;&gt;Node16 -->
<g id="edge8" class="edge">
<title>Node17&#45;&gt;Node16</title>
<path fill="none" stroke="#191970" d="M339.1502,-171.411C353.9009,-166.6406 371.9258,-160.8112 387.801,-155.6771"/>
<polygon fill="#191970" stroke="#191970" points="388.9215,-158.9933 397.3593,-152.5859 386.7675,-152.333 388.9215,-158.9933"/>
</g>
<!-- Node19&#45;&gt;Node14 -->
<g id="edge11" class="edge">
<title>Node19&#45;&gt;Node14</title>
<path fill="none" stroke="#191970" d="M196.6835,-190.5389C214.75,-198.7598 242.5015,-210.0602 268,-215 305.7512,-222.3135 349.4806,-222.8539 381.5132,-221.8259"/>
<polygon fill="#191970" stroke="#191970" points="382.0451,-225.3081 391.9025,-221.4246 381.7748,-218.3133 382.0451,-225.3081"/>
</g>
<!-- Node19&#45;&gt;Node15 -->
<g id="edge12" class="edge">
<title>Node19&#45;&gt;Node15</title>
<path fill="none" stroke="#191970" d="M213.9195,-190.5092C230.3541,-194.2741 250.0196,-198.143 268,-200 304.6937,-203.7898 314.3875,-204.5072 351,-200 362.6932,-198.5605 375.1749,-195.9197 386.5727,-193.0554"/>
<polygon fill="#191970" stroke="#191970" points="387.4829,-196.4351 396.2628,-190.5053 385.7013,-189.6656 387.4829,-196.4351"/>
</g>
<!-- Node19&#45;&gt;Node16 -->
<g id="edge13" class="edge">
<title>Node19&#45;&gt;Node16</title>
<path fill="none" stroke="#191970" d="M218.9917,-171.437C234.356,-168.1487 251.9137,-164.6353 268,-162 307.0678,-155.5997 351.8705,-150.4408 383.9393,-147.1226"/>
<polygon fill="#191970" stroke="#191970" points="384.7055,-150.5628 394.2999,-146.0687 383.997,-143.5987 384.7055,-150.5628"/>
</g>
<!-- Node19&#45;&gt;Node17 -->
<g id="edge14" class="edge">
<title>Node19&#45;&gt;Node17</title>
<path fill="none" stroke="#191970" d="M230.5109,-181C241.3922,-181 252.7499,-181 263.3494,-181"/>
<polygon fill="#191970" stroke="#191970" points="263.6504,-184.5001 273.6504,-181 263.6504,-177.5001 263.6504,-184.5001"/>
</g>
<!-- Node19&#45;&gt;Node18 -->
<g id="edge17" class="edge">
<title>Node19&#45;&gt;Node18</title>
<path fill="none" stroke="#191970" d="M193.7812,-171.3745C216.5801,-158.2975 257.5385,-134.8043 284.1098,-119.5634"/>
<polygon fill="#191970" stroke="#191970" points="285.9221,-122.5589 292.855,-114.5473 282.4392,-116.4868 285.9221,-122.5589"/>
</g>
<!-- Node20 -->
<g id="node9" class="node">
<title>Node20</title>
<g id="a_node9"><a xlink:href="a00056.xhtml#aa1a29df598338a94ef478f60e90b20ba" target="_top" xlink:title="Convertit un nombre en little endian vers le big endian. ">
<polygon fill="#ffffff" stroke="#000000" points="269.5,-285.5 269.5,-304.5 349.5,-304.5 349.5,-285.5 269.5,-285.5"/>
<text text-anchor="middle" x="309.5" y="-292.5" font-family="Helvetica,sans-Serif" font-size="10.00" fill="#000000">stegx_htobe32</text>
</a>
</g>
</g>
<!-- Node19&#45;&gt;Node20 -->
<g id="edge15" class="edge">
<title>Node19&#45;&gt;Node20</title>
<path fill="none" stroke="#191970" d="M185.3357,-190.7529C200.5712,-208.2137 234.4443,-245.3796 268,-271 272.273,-274.2625 277.0318,-277.4066 281.7591,-280.2843"/>
<polygon fill="#191970" stroke="#191970" points="280.2682,-283.4655 290.6753,-285.451 283.7779,-277.4089 280.2682,-283.4655"/>
</g>
<!-- Node21 -->
<g id="node10" class="node">
<title>Node21</title>
<g id="a_node10"><a xlink:href="a00056.xhtml#a7434fd197d31a9571f92f9dca4f212e9" target="_top" xlink:title="Convertit un nombre en big endian dans l&#39;endian de la machine. ">
<polygon fill="#ffffff" stroke="#000000" points="387,-285.5 387,-304.5 467,-304.5 467,-285.5 387,-285.5"/>
<text text-anchor="middle" x="427" y="-292.5" font-family="Helvetica,sans-Serif" font-size="10.00" fill="#000000">stegx_be32toh</text>
</a>
</g>
</g>
<!-- Node20&#45;&gt;Node21 -->
<g id="edge16" class="edge">
<title>Node20&#45;&gt;Node21</title>
<path fill="none" stroke="#191970" d="M349.6082,-295C358.3028,-295 367.6051,-295 376.6374,-295"/>
<polygon fill="#191970" stroke="#191970" points="376.6737,-298.5001 386.6736,-295 376.6736,-291.5001 376.6737,-298.5001"/>
</g>
</g>
</svg>
