<?xml version="1.0" encoding="UTF-8" standalone="no"?>
<!DOCTYPE svg PUBLIC "-//W3C//DTD SVG 1.1//EN"
 "http://www.w3.org/Graphics/SVG/1.1/DTD/svg11.dtd">
<!-- Generated by graphviz version 2.40.1 (20161225.0304)
 -->
<!-- Title: src/file_type/mp3.c Pages: 1 -->
<svg width="1044pt" height="196pt"
 viewBox="0.00 0.00 1043.79 196.00" xmlns="http://www.w3.org/2000/svg" xmlns:xlink="http://www.w3.org/1999/xlink">
<g id="graph0" class="graph" transform="scale(1 1) rotate(0) translate(4 192)">
<title>src/file_type/mp3.c</title>
<polygon fill="#ffffff" stroke="transparent" points="-4,4 -4,-192 1039.7869,-192 1039.7869,4 -4,4"/>
<!-- Node0 -->
<g id="node1" class="node">
<title>Node0</title>
<polygon fill="#bfbfbf" stroke="#000000" points="705.2869,-168.5 705.2869,-187.5 805.2869,-187.5 805.2869,-168.5 705.2869,-168.5"/>
<text text-anchor="middle" x="755.2869" y="-175.5" font-family="Helvetica,sans-Serif" font-size="10.00" fill="#000000">src/file_type/mp3.c</text>
</g>
<!-- Node1 -->
<g id="node2" class="node">
<title>Node1</title>
<polygon fill="#ffffff" stroke="#bfbfbf" points="215.2869,-.5 215.2869,-19.5 261.2869,-19.5 261.2869,-.5 215.2869,-.5"/>
<text text-anchor="middle" x="238.2869" y="-7.5" font-family="Helvetica,sans-Serif" font-size="10.00" fill="#000000">stdio.h</text>
</g>
<!-- Node0&#45;&gt;Node1 -->
<g id="edge1" class="edge">
<title>Node0&#45;&gt;Node1</title>
<path fill="none" stroke="#191970" d="M705.2358,-175.0167C544.5996,-164.9316 49.8535,-129.7113 4.2869,-76 -1.4635,-69.2217 -1.3599,-62.8649 4.2869,-56 29.2948,-25.5974 146.2693,-14.9801 204.7804,-11.5299"/>
<polygon fill="#191970" stroke="#191970" points="205.1983,-15.0123 214.99,-10.9659 204.8122,-8.0229 205.1983,-15.0123"/>
</g>
<!-- Node2 -->
<g id="node3" class="node">
<title>Node2</title>
<polygon fill="#ffffff" stroke="#bfbfbf" points="820.2869,-112.5 820.2869,-131.5 868.2869,-131.5 868.2869,-112.5 820.2869,-112.5"/>
<text text-anchor="middle" x="844.2869" y="-119.5" font-family="Helvetica,sans-Serif" font-size="10.00" fill="#000000">stdlib.h</text>
</g>
<!-- Node0&#45;&gt;Node2 -->
<g id="edge2" class="edge">
<title>Node0&#45;&gt;Node2</title>
<path fill="none" stroke="#191970" d="M770.7895,-168.2455C784.4449,-159.6534 804.5526,-147.0014 820.2858,-137.1018"/>
<polygon fill="#191970" stroke="#191970" points="822.362,-139.9307 828.9619,-131.6427 818.634,-134.006 822.362,-139.9307"/>
</g>
<!-- Node3 -->
<g id="node4" class="node">
<title>Node3</title>
<polygon fill="#ffffff" stroke="#bfbfbf" points="458.7869,-.5 458.7869,-19.5 507.7869,-19.5 507.7869,-.5 458.7869,-.5"/>
<text text-anchor="middle" x="483.2869" y="-7.5" font-family="Helvetica,sans-Serif" font-size="10.00" fill="#000000">stdint.h</text>
</g>
<!-- Node0&#45;&gt;Node3 -->
<g id="edge3" class="edge">
<title>Node0&#45;&gt;Node3</title>
<path fill="none" stroke="#191970" d="M762.1928,-168.4444C777.5133,-145.9902 810.8194,-89.2578 782.2869,-56 765.2562,-36.1488 593.6862,-19.3386 518.3945,-12.8567"/>
<polygon fill="#191970" stroke="#191970" points="518.2744,-9.334 508.0143,-11.9761 517.6827,-16.3089 518.2744,-9.334"/>
</g>
<!-- Node4 -->
<g id="node5" class="node">
<title>Node4</title>
<polygon fill="#ffffff" stroke="#bfbfbf" points="886.2869,-112.5 886.2869,-131.5 938.2869,-131.5 938.2869,-112.5 886.2869,-112.5"/>
<text text-anchor="middle" x="912.2869" y="-119.5" font-family="Helvetica,sans-Serif" font-size="10.00" fill="#000000">assert.h</text>
</g>
<!-- Node0&#45;&gt;Node4 -->
<g id="edge4" class="edge">
<title>Node0&#45;&gt;Node4</title>
<path fill="none" stroke="#191970" d="M782.2762,-168.3733C808.3137,-159.086 847.888,-144.9703 876.5347,-134.7524"/>
<polygon fill="#191970" stroke="#191970" points="877.9286,-137.9712 886.1715,-131.315 875.5769,-131.3781 877.9286,-137.9712"/>
</g>
<!-- Node5 -->
<g id="node6" class="node">
<title>Node5</title>
<g id="a_node6"><a xlink:href="a00047.xhtml" target="_top" xlink:title="Définitions communes à la partie privée de la bibliothèque. ">
<polygon fill="#ffffff" stroke="#000000" points="352.2869,-112.5 352.2869,-131.5 414.2869,-131.5 414.2869,-112.5 352.2869,-112.5"/>
<text text-anchor="middle" x="383.2869" y="-119.5" font-family="Helvetica,sans-Serif" font-size="10.00" fill="#000000">common.h</text>
</a>
</g>
</g>
<!-- Node0&#45;&gt;Node5 -->
<g id="edge5" class="edge">
<title>Node0&#45;&gt;Node5</title>
<path fill="none" stroke="#191970" d="M705.1173,-170.4476C630.983,-159.2876 493.5496,-138.5987 424.7632,-128.2437"/>
<polygon fill="#191970" stroke="#191970" points="425.1399,-124.7611 414.7303,-126.7334 424.0979,-131.6831 425.1399,-124.7611"/>
</g>
<!-- Node6 -->
<g id="node7" class="node">
<title>Node6</title>
<g id="a_node7"><a xlink:href="a00008.xhtml" target="_top" xlink:title="Définitions communes à la partie privée et public de la bibliothèque. ">
<polygon fill="#ffffff" stroke="#000000" points="681.2869,-56.5 681.2869,-75.5 773.2869,-75.5 773.2869,-56.5 681.2869,-56.5"/>
<text text-anchor="middle" x="727.2869" y="-63.5" font-family="Helvetica,sans-Serif" font-size="10.00" fill="#000000">stegx_common.h</text>
</a>
</g>
</g>
<!-- Node0&#45;&gt;Node6 -->
<g id="edge32" class="edge">
<title>Node0&#45;&gt;Node6</title>
<path fill="none" stroke="#191970" d="M752.8996,-168.4509C748.3122,-150.1013 738.1846,-109.5908 732.1292,-85.3693"/>
<polygon fill="#191970" stroke="#191970" points="735.4891,-84.3774 729.6681,-75.5249 728.6981,-86.0752 735.4891,-84.3774"/>
</g>
<!-- Node10 -->
<g id="node11" class="node">
<title>Node10</title>
<g id="a_node11"><a xlink:href="a00089.xhtml" target="_top" xlink:title="Fichier MP3. ">
<polygon fill="#ffffff" stroke="#000000" points="579.7869,-56.5 579.7869,-75.5 662.7869,-75.5 662.7869,-56.5 579.7869,-56.5"/>
<text text-anchor="middle" x="621.2869" y="-63.5" font-family="Helvetica,sans-Serif" font-size="10.00" fill="#000000">file_type/mp3.h</text>
</a>
</g>
</g>
<!-- Node0&#45;&gt;Node10 -->
<g id="edge34" class="edge">
<title>Node0&#45;&gt;Node10</title>
<path fill="none" stroke="#191970" d="M743.8621,-168.4509C720.9192,-149.2747 669.0199,-105.8962 640.6676,-82.1988"/>
<polygon fill="#191970" stroke="#191970" points="642.6002,-79.2525 632.6827,-75.5249 638.111,-84.6235 642.6002,-79.2525"/>
</g>
<!-- Node13 -->
<g id="node14" class="node">
<title>Node13</title>
<g id="a_node14"><a xlink:href="a00011.xhtml" target="_top" xlink:title="Module de gestion des erreurs. ">
<polygon fill="#ffffff" stroke="#000000" points="956.7869,-112.5 956.7869,-131.5 1035.7869,-131.5 1035.7869,-112.5 956.7869,-112.5"/>
<text text-anchor="middle" x="996.2869" y="-119.5" font-family="Helvetica,sans-Serif" font-size="10.00" fill="#000000">stegx_errors.h</text>
</a>
</g>
</g>
<!-- Node0&#45;&gt;Node13 -->
<g id="edge33" class="edge">
<title>Node0&#45;&gt;Node13</title>
<path fill="none" stroke="#191970" d="M796.4424,-168.4369C837.9752,-158.7861 902.1463,-143.875 946.515,-133.5652"/>
<polygon fill="#191970" stroke="#191970" points="947.5545,-136.917 956.5028,-131.2444 945.9701,-130.0987 947.5545,-136.917"/>
</g>
<!-- Node5&#45;&gt;Node1 -->
<g id="edge6" class="edge">
<title>Node5&#45;&gt;Node1</title>
<path fill="none" stroke="#191970" d="M351.8532,-120.8974C291.9695,-118.0656 165.0926,-108.307 138.2869,-76 115.583,-48.6366 167.7792,-28.3902 204.9765,-17.9558"/>
<polygon fill="#191970" stroke="#191970" points="206.24,-21.2409 214.9956,-15.2752 204.4307,-14.4788 206.24,-21.2409"/>
</g>
<!-- Node5&#45;&gt;Node3 -->
<g id="edge7" class="edge">
<title>Node5&#45;&gt;Node3</title>
<path fill="none" stroke="#191970" d="M414.3737,-116.8236C453.7589,-109.5582 518.2224,-95.0616 532.2869,-76 545.0295,-58.73 525.8899,-38.9735 507.9298,-25.6121"/>
<polygon fill="#191970" stroke="#191970" points="509.5515,-22.4749 499.3526,-19.6055 505.536,-28.2087 509.5515,-22.4749"/>
</g>
<!-- Node5&#45;&gt;Node6 -->
<g id="edge8" class="edge">
<title>Node5&#45;&gt;Node6</title>
<path fill="none" stroke="#191970" d="M414.5431,-117.2557C465.8856,-109.4125 571.5358,-93.0638 671.1567,-76.1658"/>
<polygon fill="#191970" stroke="#191970" points="671.8152,-79.6042 681.0864,-74.4762 670.641,-72.7034 671.8152,-79.6042"/>
</g>
<!-- Node7 -->
<g id="node8" class="node">
<title>Node7</title>
<g id="a_node8"><a xlink:href="a00077.xhtml" target="_top" xlink:title="Fichier BMP. ">
<polygon fill="#ffffff" stroke="#000000" points="341.7869,-56.5 341.7869,-75.5 424.7869,-75.5 424.7869,-56.5 341.7869,-56.5"/>
<text text-anchor="middle" x="383.2869" y="-63.5" font-family="Helvetica,sans-Serif" font-size="10.00" fill="#000000">file_type/bmp.h</text>
</a>
</g>
</g>
<!-- Node5&#45;&gt;Node7 -->
<g id="edge9" class="edge">
<title>Node5&#45;&gt;Node7</title>
<path fill="none" stroke="#191970" d="M378.0201,-112.2455C376.609,-104.9382 376.2048,-94.6944 376.8074,-85.7046"/>
<polygon fill="#191970" stroke="#191970" points="380.298,-85.9945 378.0418,-75.6427 373.3501,-85.1421 380.298,-85.9945"/>
</g>
<!-- Node8 -->
<g id="node9" class="node">
<title>Node8</title>
<g id="a_node9"><a xlink:href="a00095.xhtml" target="_top" xlink:title="Fichier PNG. ">
<polygon fill="#ffffff" stroke="#000000" points="443.2869,-56.5 443.2869,-75.5 523.2869,-75.5 523.2869,-56.5 443.2869,-56.5"/>
<text text-anchor="middle" x="483.2869" y="-63.5" font-family="Helvetica,sans-Serif" font-size="10.00" fill="#000000">file_type/png.h</text>
</a>
</g>
</g>
<!-- Node5&#45;&gt;Node8 -->
<g id="edge13" class="edge">
<title>Node5&#45;&gt;Node8</title>
<path fill="none" stroke="#191970" d="M395.4387,-112.2455C409.5063,-103.4125 432.7072,-90.2887 451.8241,-80.2758"/>
<polygon fill="#191970" stroke="#191970" points="453.5341,-83.3321 460.8227,-75.6427 450.3297,-77.1085 453.5341,-83.3321"/>
</g>
<!-- Node9 -->
<g id="node10" class="node">
<title>Node9</title>
<g id="a_node10"><a xlink:href="a00104.xhtml" target="_top" xlink:title="Fichier WAVE. ">
<polygon fill="#ffffff" stroke="#000000" points="147.7869,-56.5 147.7869,-75.5 230.7869,-75.5 230.7869,-56.5 147.7869,-56.5"/>
<text text-anchor="middle" x="189.2869" y="-63.5" font-family="Helvetica,sans-Serif" font-size="10.00" fill="#000000">file_type/wav.h</text>
</a>
</g>
</g>
<!-- Node5&#45;&gt;Node9 -->
<g id="edge17" class="edge">
<title>Node5&#45;&gt;Node9</title>
<path fill="none" stroke="#191970" d="M351.9019,-114.3309C317.7116,-105.1035 263.2995,-89.485 226.8784,-78.5056"/>
<polygon fill="#191970" stroke="#191970" points="227.7001,-75.0974 217.1146,-75.541 225.6663,-81.7954 227.7001,-75.0974"/>
</g>
<!-- Node5&#45;&gt;Node10 -->
<g id="edge21" class="edge">
<title>Node5&#45;&gt;Node10</title>
<path fill="none" stroke="#191970" d="M414.4246,-113.4948C454.0261,-103.6683 522.6678,-87.4823 570.0115,-76.7812"/>
<polygon fill="#191970" stroke="#191970" points="570.7848,-80.1948 579.7728,-74.5852 569.2484,-73.3655 570.7848,-80.1948"/>
</g>
<!-- Node11 -->
<g id="node12" class="node">
<title>Node11</title>
<g id="a_node12"><a xlink:href="a00071.xhtml" target="_top" xlink:title="Fichier AVI. ">
<polygon fill="#ffffff" stroke="#000000" points="13.7869,-56.5 13.7869,-75.5 90.7869,-75.5 90.7869,-56.5 13.7869,-56.5"/>
<text text-anchor="middle" x="52.2869" y="-63.5" font-family="Helvetica,sans-Serif" font-size="10.00" fill="#000000">file_type/avi.h</text>
</a>
</g>
</g>
<!-- Node5&#45;&gt;Node11 -->
<g id="edge25" class="edge">
<title>Node5&#45;&gt;Node11</title>
<path fill="none" stroke="#191970" d="M351.9878,-117.8828C300.7204,-110.3298 196.237,-93.5727 101.0246,-76.8232"/>
<polygon fill="#191970" stroke="#191970" points="101.4099,-73.3372 90.9537,-75.0454 100.1929,-80.2306 101.4099,-73.3372"/>
</g>
<!-- Node12 -->
<g id="node13" class="node">
<title>Node12</title>
<g id="a_node13"><a xlink:href="a00083.xhtml" target="_top" xlink:title="Fichier FLV. ">
<polygon fill="#ffffff" stroke="#000000" points="248.7869,-56.5 248.7869,-75.5 323.7869,-75.5 323.7869,-56.5 248.7869,-56.5"/>
<text text-anchor="middle" x="286.2869" y="-63.5" font-family="Helvetica,sans-Serif" font-size="10.00" fill="#000000">file_type/flv.h</text>
</a>
</g>
</g>
<!-- Node5&#45;&gt;Node12 -->
<g id="edge28" class="edge">
<title>Node5&#45;&gt;Node12</title>
<path fill="none" stroke="#191970" d="M361.1239,-112.2455C344.582,-103.6534 322.3997,-91.0014 306.3771,-81.1018"/>
<polygon fill="#191970" stroke="#191970" points="308.0668,-78.0292 297.7443,-75.6427 304.3255,-83.9456 308.0668,-78.0292"/>
</g>
<!-- Node7&#45;&gt;Node1 -->
<g id="edge10" class="edge">
<title>Node7&#45;&gt;Node1</title>
<path fill="none" stroke="#191970" d="M358.3605,-56.3733C334.2359,-47.0562 297.5289,-32.8797 271.0521,-22.6541"/>
<polygon fill="#191970" stroke="#191970" points="272.0425,-19.2847 261.453,-18.9469 269.5205,-25.8147 272.0425,-19.2847"/>
</g>
<!-- Node7&#45;&gt;Node3 -->
<g id="edge11" class="edge">
<title>Node7&#45;&gt;Node3</title>
<path fill="none" stroke="#191970" d="M400.7056,-56.2455C416.3354,-47.4928 439.4888,-34.527 457.3054,-24.5496"/>
<polygon fill="#191970" stroke="#191970" points="459.0529,-27.5825 466.0678,-19.6427 455.6326,-21.475 459.0529,-27.5825"/>
</g>
<!-- Node7&#45;&gt;Node5 -->
<g id="edge12" class="edge">
<title>Node7&#45;&gt;Node5</title>
<path fill="none" stroke="#191970" d="M388.532,-75.6427C389.9534,-82.9199 390.3679,-93.155 389.7756,-102.1575"/>
<polygon fill="#191970" stroke="#191970" points="386.2816,-101.8972 388.5537,-112.2455 393.2308,-102.739 386.2816,-101.8972"/>
</g>
<!-- Node8&#45;&gt;Node1 -->
<g id="edge14" class="edge">
<title>Node8&#45;&gt;Node1</title>
<path fill="none" stroke="#191970" d="M443.1045,-56.8154C395.2211,-45.8707 316.1063,-27.7873 271.5169,-17.5954"/>
<polygon fill="#191970" stroke="#191970" points="272.0209,-14.1204 261.4924,-15.3041 270.4611,-20.9444 272.0209,-14.1204"/>
</g>
<!-- Node8&#45;&gt;Node3 -->
<g id="edge15" class="edge">
<title>Node8&#45;&gt;Node3</title>
<path fill="none" stroke="#191970" d="M483.2869,-56.2455C483.2869,-48.9382 483.2869,-38.6944 483.2869,-29.7046"/>
<polygon fill="#191970" stroke="#191970" points="486.787,-29.6426 483.2869,-19.6427 479.787,-29.6427 486.787,-29.6426"/>
</g>
<!-- Node8&#45;&gt;Node5 -->
<g id="edge16" class="edge">
<title>Node8&#45;&gt;Node5</title>
<path fill="none" stroke="#191970" d="M471.5379,-75.5011C457.5251,-84.3278 434.0889,-97.5932 414.7975,-107.6992"/>
<polygon fill="#191970" stroke="#191970" points="413.0081,-104.6838 405.7195,-112.3733 416.2125,-110.9073 413.0081,-104.6838"/>
</g>
<!-- Node9&#45;&gt;Node1 -->
<g id="edge18" class="edge">
<title>Node9&#45;&gt;Node1</title>
<path fill="none" stroke="#191970" d="M197.822,-56.2455C204.7781,-48.2958 214.7752,-36.8706 223.092,-27.3656"/>
<polygon fill="#191970" stroke="#191970" points="225.8985,-29.4732 229.8496,-19.6427 220.6305,-24.8637 225.8985,-29.4732"/>
</g>
<!-- Node9&#45;&gt;Node3 -->
<g id="edge19" class="edge">
<title>Node9&#45;&gt;Node3</title>
<path fill="none" stroke="#191970" d="M231.0311,-57.7918C234.1628,-57.1831 237.2746,-56.5804 240.2869,-56 314.3687,-41.7254 401.2338,-25.3753 448.4338,-16.5237"/>
<polygon fill="#191970" stroke="#191970" points="449.2557,-19.9306 458.4397,-14.6481 447.966,-13.0505 449.2557,-19.9306"/>
</g>
<!-- Node9&#45;&gt;Node5 -->
<g id="edge20" class="edge">
<title>Node9&#45;&gt;Node5</title>
<path fill="none" stroke="#191970" d="M227.4188,-75.5011C261.6563,-84.8494 311.4627,-99.1765 345.5683,-109.4561"/>
<polygon fill="#191970" stroke="#191970" points="344.5936,-112.8179 355.1791,-112.3733 346.6268,-106.1196 344.5936,-112.8179"/>
</g>
<!-- Node10&#45;&gt;Node1 -->
<g id="edge22" class="edge">
<title>Node10&#45;&gt;Node1</title>
<path fill="none" stroke="#191970" d="M579.5701,-59.9004C503.0397,-48.7106 341.6579,-25.1143 271.7495,-14.8927"/>
<polygon fill="#191970" stroke="#191970" points="272.1316,-11.4114 261.7304,-13.4278 271.1188,-18.3378 272.1316,-11.4114"/>
</g>
<!-- Node10&#45;&gt;Node3 -->
<g id="edge23" class="edge">
<title>Node10&#45;&gt;Node3</title>
<path fill="none" stroke="#191970" d="M597.5639,-56.3733C575.1132,-47.2629 541.213,-33.5062 516.1614,-23.3404"/>
<polygon fill="#191970" stroke="#191970" points="517.2826,-20.0182 506.7004,-19.5011 514.6504,-26.5045 517.2826,-20.0182"/>
</g>
<!-- Node10&#45;&gt;Node5 -->
<g id="edge24" class="edge">
<title>Node10&#45;&gt;Node5</title>
<path fill="none" stroke="#191970" d="M585.8873,-75.5596C542.7038,-86.2143 470.086,-103.2836 424.455,-113.4922"/>
<polygon fill="#191970" stroke="#191970" points="423.5916,-110.0986 414.5893,-115.6849 425.1105,-116.9319 423.5916,-110.0986"/>
</g>
<!-- Node11&#45;&gt;Node1 -->
<g id="edge26" class="edge">
<title>Node11&#45;&gt;Node1</title>
<path fill="none" stroke="#191970" d="M84.2614,-56.3733C118.0541,-46.1991 171.093,-30.2304 205.2737,-19.9394"/>
<polygon fill="#191970" stroke="#191970" points="206.6676,-23.1751 215.2339,-16.9407 204.6495,-16.4723 206.6676,-23.1751"/>
</g>
<!-- Node11&#45;&gt;Node5 -->
<g id="edge27" class="edge">
<title>Node11&#45;&gt;Node5</title>
<path fill="none" stroke="#191970" d="M90.9715,-71.7764C98.7701,-73.191 106.8184,-74.6777 114.2869,-76 194.898,-90.2722 288.9114,-105.5414 341.8458,-114.4055"/>
<polygon fill="#191970" stroke="#191970" points="341.4269,-117.8842 351.8688,-116.0908 342.5876,-110.981 341.4269,-117.8842"/>
</g>
<!-- Node12&#45;&gt;Node1 -->
<g id="edge29" class="edge">
<title>Node12&#45;&gt;Node1</title>
<path fill="none" stroke="#191970" d="M277.9259,-56.2455C271.1119,-48.2958 261.3188,-36.8706 253.1717,-27.3656"/>
<polygon fill="#191970" stroke="#191970" points="255.7174,-24.9575 246.552,-19.6427 250.4026,-29.513 255.7174,-24.9575"/>
</g>
<!-- Node12&#45;&gt;Node3 -->
<g id="edge30" class="edge">
<title>Node12&#45;&gt;Node3</title>
<path fill="none" stroke="#191970" d="M320.1524,-56.3733C356.1515,-46.14 412.7727,-30.0446 448.9504,-19.7606"/>
<polygon fill="#191970" stroke="#191970" points="449.9163,-23.1248 458.5782,-17.0238 448.0022,-16.3916 449.9163,-23.1248"/>
</g>
<!-- Node12&#45;&gt;Node5 -->
<g id="edge31" class="edge">
<title>Node12&#45;&gt;Node5</title>
<path fill="none" stroke="#191970" d="M308.2345,-75.6427C324.7272,-84.1994 346.9116,-96.8456 362.9875,-106.769"/>
<polygon fill="#191970" stroke="#191970" points="361.3339,-109.8642 371.6576,-112.2455 365.0722,-103.946 361.3339,-109.8642"/>
</g>
</g>
</svg>
