<?xml version="1.0" encoding="UTF-8" standalone="no"?>
<!DOCTYPE svg PUBLIC "-//W3C//DTD SVG 1.1//EN"
 "http://www.w3.org/Graphics/SVG/1.1/DTD/svg11.dtd">
<!-- Generated by graphviz version 2.40.1 (20161225.0304)
 -->
<!-- Title: mp3_mpeg_hdr_is_padding Pages: 1 -->
<svg width="689pt" height="142pt"
 viewBox="0.00 0.00 689.00 142.00" xmlns="http://www.w3.org/2000/svg" xmlns:xlink="http://www.w3.org/1999/xlink">
<g id="graph0" class="graph" transform="scale(1 1) rotate(0) translate(4 138)">
<title>mp3_mpeg_hdr_is_padding</title>
<polygon fill="#ffffff" stroke="transparent" points="-4,4 -4,-138 685,-138 685,4 -4,4"/>
<!-- Node134 -->
<g id="node1" class="node">
<title>Node134</title>
<polygon fill="#bfbfbf" stroke="#000000" points="0,-47.5 0,-66.5 135,-66.5 135,-47.5 0,-47.5"/>
<text text-anchor="middle" x="67.5" y="-54.5" font-family="Helvetica,sans-Serif" font-size="10.00" fill="#000000">mp3_mpeg_hdr_is_padding</text>
</g>
<!-- Node135 -->
<g id="node2" class="node">
<title>Node135</title>
<g id="a_node2"><a xlink:href="a00086.xhtml#a3f5f1c770ad5013ccf94bce56b7d0a04" target="_top" xlink:title="Obtient la taille d&#39;une frame MP3. ">
<polygon fill="#ffffff" stroke="#000000" points="171,-47.5 171,-66.5 296,-66.5 296,-47.5 171,-47.5"/>
<text text-anchor="middle" x="233.5" y="-54.5" font-family="Helvetica,sans-Serif" font-size="10.00" fill="#000000">mp3_mpeg_hdr_get_size</text>
</a>
</g>
</g>
<!-- Node134&#45;&gt;Node135 -->
<g id="edge1" class="edge">
<title>Node134&#45;&gt;Node135</title>
<path fill="none" stroke="#191970" d="M145.0968,-57C153.7318,-57 162.4451,-57 170.8608,-57"/>
<polygon fill="#191970" stroke="#191970" points="145.0186,-53.5001 135.0186,-57 145.0185,-60.5001 145.0186,-53.5001"/>
</g>
<!-- Node136 -->
<g id="node3" class="node">
<title>Node136</title>
<g id="a_node3"><a xlink:href="a00089.xhtml#aa1f3d4311fe8115981f98b79a1fea672" target="_top" xlink:title="Saute la frame MP3 actuelle. ">
<polygon fill="#ffffff" stroke="#000000" points="332,-71.5 332,-90.5 434,-90.5 434,-71.5 332,-71.5"/>
<text text-anchor="middle" x="383" y="-78.5" font-family="Helvetica,sans-Serif" font-size="10.00" fill="#000000">mp3_mpeg_fr_seek</text>
</a>
</g>
</g>
<!-- Node135&#45;&gt;Node136 -->
<g id="edge2" class="edge">
<title>Node135&#45;&gt;Node136</title>
<path fill="none" stroke="#191970" d="M303.0643,-68.1675C312.774,-69.7263 322.6009,-71.3038 331.8855,-72.7943"/>
<polygon fill="#191970" stroke="#191970" points="303.4443,-64.6838 293.0159,-66.5544 302.3347,-71.5953 303.4443,-64.6838"/>
</g>
<!-- Node142 -->
<g id="node9" class="node">
<title>Node142</title>
<g id="a_node9"><a xlink:href="a00089.xhtml#ab0198bd0d67c778ff7493f1bcd0a409e" target="_top" xlink:title="Écris la frame MP3 actuelle. ">
<polygon fill="#ffffff" stroke="#000000" points="332,-28.5 332,-47.5 434,-47.5 434,-28.5 332,-28.5"/>
<text text-anchor="middle" x="383" y="-35.5" font-family="Helvetica,sans-Serif" font-size="10.00" fill="#000000">mp3_mpeg_fr_write</text>
</a>
</g>
</g>
<!-- Node135&#45;&gt;Node142 -->
<g id="edge8" class="edge">
<title>Node135&#45;&gt;Node142</title>
<path fill="none" stroke="#191970" d="M306.0992,-47.7733C314.7106,-46.6789 323.36,-45.5797 331.5898,-44.5337"/>
<polygon fill="#191970" stroke="#191970" points="305.5141,-44.3195 296.0352,-49.0524 306.3967,-51.2636 305.5141,-44.3195"/>
</g>
<!-- Node137 -->
<g id="node4" class="node">
<title>Node137</title>
<g id="a_node4"><a xlink:href="a00035.xhtml#abc757e2627fc9971e388a584e0e0c2ca" target="_top" xlink:title="Va extraire les donnees cachees en utilisant l&#39;algorithme LSB. ">
<polygon fill="#ffffff" stroke="#000000" points="473,-111.5 473,-130.5 538,-130.5 538,-111.5 473,-111.5"/>
<text text-anchor="middle" x="505.5" y="-118.5" font-family="Helvetica,sans-Serif" font-size="10.00" fill="#000000">extract_lsb</text>
</a>
</g>
</g>
<!-- Node136&#45;&gt;Node137 -->
<g id="edge3" class="edge">
<title>Node136&#45;&gt;Node137</title>
<path fill="none" stroke="#191970" d="M422.3131,-93.8369C439.8823,-99.5738 460.2261,-106.2167 476.3976,-111.4972"/>
<polygon fill="#191970" stroke="#191970" points="422.9343,-90.358 412.3418,-90.581 420.7614,-97.0122 422.9343,-90.358"/>
</g>
<!-- Node139 -->
<g id="node6" class="node">
<title>Node139</title>
<g id="a_node6"><a xlink:href="a00131.xhtml#a5501c9c7711252fa8d85ff12cb3390dc" target="_top" xlink:title="Remplit les informations du fichier hôte. ">
<polygon fill="#ffffff" stroke="#000000" points="470,-71.5 470,-90.5 541,-90.5 541,-71.5 470,-71.5"/>
<text text-anchor="middle" x="505.5" y="-78.5" font-family="Helvetica,sans-Serif" font-size="10.00" fill="#000000">fill_host_info</text>
</a>
</g>
</g>
<!-- Node136&#45;&gt;Node139 -->
<g id="edge5" class="edge">
<title>Node136&#45;&gt;Node139</title>
<path fill="none" stroke="#191970" d="M444.3911,-81C453.0713,-81 461.7478,-81 469.7232,-81"/>
<polygon fill="#191970" stroke="#191970" points="444.2413,-77.5001 434.2412,-81 444.2412,-84.5001 444.2413,-77.5001"/>
</g>
<!-- Node138 -->
<g id="node5" class="node">
<title>Node138</title>
<g id="a_node5"><a xlink:href="a00065.xhtml#a43c63dd958bfa1f4ab2ecbd7faa14abb" target="_top" xlink:title="Va faire l&#39;extraction selon l&#39;algorithme détecté, ainsi que les fichiers en entrée choisis par l&#39;util...">
<polygon fill="#ffffff" stroke="#000000" points="591,-114.5 591,-133.5 667,-133.5 667,-114.5 591,-114.5"/>
<text text-anchor="middle" x="629" y="-121.5" font-family="Helvetica,sans-Serif" font-size="10.00" fill="#000000">stegx_extract</text>
</a>
</g>
</g>
<!-- Node137&#45;&gt;Node138 -->
<g id="edge4" class="edge">
<title>Node137&#45;&gt;Node138</title>
<path fill="none" stroke="#191970" d="M548.4845,-122.0442C562.2585,-122.3787 577.4089,-122.7468 590.8157,-123.0724"/>
<polygon fill="#191970" stroke="#191970" points="548.3536,-118.54 538.2715,-121.7961 548.1835,-125.538 548.3536,-118.54"/>
</g>
<!-- Node140 -->
<g id="node7" class="node">
<title>Node140</title>
<g id="a_node7"><a xlink:href="a00050.xhtml#a2a3747fdc90ed4467eb3e468d8fba361" target="_top" xlink:title="Detecte l&#39;algorithme utilisé ainsi que le nom du fichier caché et la taille des données cachées...">
<polygon fill="#ffffff" stroke="#000000" points="581,-76.5 581,-95.5 677,-95.5 677,-76.5 581,-76.5"/>
<text text-anchor="middle" x="629" y="-83.5" font-family="Helvetica,sans-Serif" font-size="10.00" fill="#000000">stegx_detect_algo</text>
</a>
</g>
</g>
<!-- Node139&#45;&gt;Node140 -->
<g id="edge6" class="edge">
<title>Node139&#45;&gt;Node140</title>
<path fill="none" stroke="#191970" d="M551.4129,-82.8588C561.0496,-83.249 571.2382,-83.6615 580.9506,-84.0547"/>
<polygon fill="#191970" stroke="#191970" points="551.3547,-79.3537 541.2213,-82.4462 551.0715,-86.348 551.3547,-79.3537"/>
</g>
<!-- Node141 -->
<g id="node8" class="node">
<title>Node141</title>
<g id="a_node8"><a xlink:href="a00128.xhtml#adc277622e5fe0d1814be76f11263b350" target="_top" xlink:title="Propose les algorithmes de stéganographie utilisables. ">
<polygon fill="#ffffff" stroke="#000000" points="577,-38.5 577,-57.5 681,-57.5 681,-38.5 577,-38.5"/>
<text text-anchor="middle" x="629" y="-45.5" font-family="Helvetica,sans-Serif" font-size="10.00" fill="#000000">stegx_suggest_algo</text>
</a>
</g>
</g>
<!-- Node139&#45;&gt;Node141 -->
<g id="edge7" class="edge">
<title>Node139&#45;&gt;Node141</title>
<path fill="none" stroke="#191970" d="M551.1197,-68.8101C565.0611,-65.0849 580.1821,-61.0445 593.359,-57.5235"/>
<polygon fill="#191970" stroke="#191970" points="549.9788,-65.4921 541.2213,-71.455 551.7859,-72.2548 549.9788,-65.4921"/>
</g>
<!-- Node143 -->
<g id="node10" class="node">
<title>Node143</title>
<g id="a_node10"><a xlink:href="a00035.xhtml#a14e9d876697b0225ded31095c1076b64" target="_top" xlink:title="Va inserer les donnees cachees en utilisant l&#39;algorithme LSB. ">
<polygon fill="#ffffff" stroke="#000000" points="476,-19.5 476,-38.5 535,-38.5 535,-19.5 476,-19.5"/>
<text text-anchor="middle" x="505.5" y="-26.5" font-family="Helvetica,sans-Serif" font-size="10.00" fill="#000000">insert_lsb</text>
</a>
</g>
</g>
<!-- Node142&#45;&gt;Node143 -->
<g id="edge9" class="edge">
<title>Node142&#45;&gt;Node143</title>
<path fill="none" stroke="#191970" d="M444.2791,-33.4979C455.2528,-32.6916 466.2253,-31.8855 475.7875,-31.183"/>
<polygon fill="#191970" stroke="#191970" points="443.9579,-30.0119 434.2412,-34.2353 444.4708,-36.9931 443.9579,-30.0119"/>
</g>
<!-- Node144 -->
<g id="node11" class="node">
<title>Node144</title>
<g id="a_node11"><a xlink:href="a00110.xhtml#a45a1d0709604d55e9d467cb39d6a5b54" target="_top" xlink:title="Va faire l&#39;insertion selon l&#39;algorithme, ainsi que les fichiers en entrée choisis par l&#39;utilisateur...">
<polygon fill="#ffffff" stroke="#000000" points="594,-.5 594,-19.5 664,-19.5 664,-.5 594,-.5"/>
<text text-anchor="middle" x="629" y="-7.5" font-family="Helvetica,sans-Serif" font-size="10.00" fill="#000000">stegx_insert</text>
</a>
</g>
</g>
<!-- Node143&#45;&gt;Node144 -->
<g id="edge10" class="edge">
<title>Node143&#45;&gt;Node144</title>
<path fill="none" stroke="#191970" d="M545.0434,-22.9164C560.7671,-20.4974 578.707,-17.7374 593.9557,-15.3914"/>
<polygon fill="#191970" stroke="#191970" points="544.4328,-19.4691 535.0813,-24.449 545.4973,-26.3877 544.4328,-19.4691"/>
</g>
</g>
</svg>
