<?xml version="1.0" encoding="UTF-8" standalone="no"?>
<!DOCTYPE svg PUBLIC "-//W3C//DTD SVG 1.1//EN"
 "http://www.w3.org/Graphics/SVG/1.1/DTD/svg11.dtd">
<!-- Generated by graphviz version 2.40.1 (20161225.0304)
 -->
<!-- Title: mp3_mpeg_fr_write Pages: 1 -->
<svg width="771pt" height="192pt"
 viewBox="0.00 0.00 771.00 191.78" xmlns="http://www.w3.org/2000/svg" xmlns:xlink="http://www.w3.org/1999/xlink">
<g id="graph0" class="graph" transform="scale(1 1) rotate(0) translate(4 187.7803)">
<title>mp3_mpeg_fr_write</title>
<polygon fill="#ffffff" stroke="transparent" points="-4,4 -4,-187.7803 767,-187.7803 767,4 -4,4"/>
<!-- Node63 -->
<g id="node1" class="node">
<title>Node63</title>
<polygon fill="#bfbfbf" stroke="#000000" points="0,-152.5 0,-171.5 102,-171.5 102,-152.5 0,-152.5"/>
<text text-anchor="middle" x="51" y="-159.5" font-family="Helvetica,sans-Serif" font-size="10.00" fill="#000000">mp3_mpeg_fr_write</text>
</g>
<!-- Node64 -->
<g id="node2" class="node">
<title>Node64</title>
<g id="a_node2"><a xlink:href="a00086.xhtml#a75bc8b052a4d00ab95b05b576918360d" target="_top" xlink:title="Test si le header est un header MPEG 1/2 Layer III. ">
<polygon fill="#ffffff" stroke="#000000" points="658,-95.5 658,-114.5 763,-114.5 763,-95.5 658,-95.5"/>
<text text-anchor="middle" x="710.5" y="-102.5" font-family="Helvetica,sans-Serif" font-size="10.00" fill="#000000">mp3_mpeg_hdr_test</text>
</a>
</g>
</g>
<!-- Node63&#45;&gt;Node64 -->
<g id="edge1" class="edge">
<title>Node63&#45;&gt;Node64</title>
<path fill="none" stroke="#191970" d="M102.1986,-169.2053C203.5786,-181.701 436.1419,-201.511 622,-151 645.8274,-144.5244 670.5685,-130.9909 687.8128,-120.2712"/>
<polygon fill="#191970" stroke="#191970" points="690.032,-123.0064 696.5682,-114.668 686.2587,-117.1104 690.032,-123.0064"/>
</g>
<!-- Node65 -->
<g id="node3" class="node">
<title>Node65</title>
<g id="a_node3"><a xlink:href="a00086.xhtml#a3f5f1c770ad5013ccf94bce56b7d0a04" target="_top" xlink:title="Obtient la taille d&#39;une frame MP3. ">
<polygon fill="#ffffff" stroke="#000000" points="138,-114.5 138,-133.5 263,-133.5 263,-114.5 138,-114.5"/>
<text text-anchor="middle" x="200.5" y="-121.5" font-family="Helvetica,sans-Serif" font-size="10.00" fill="#000000">mp3_mpeg_hdr_get_size</text>
</a>
</g>
</g>
<!-- Node63&#45;&gt;Node65 -->
<g id="edge2" class="edge">
<title>Node63&#45;&gt;Node65</title>
<path fill="none" stroke="#191970" d="M88.7252,-152.411C108.2756,-147.4417 132.3466,-141.3233 153.1374,-136.0387"/>
<polygon fill="#191970" stroke="#191970" points="154.2165,-139.3757 163.0461,-133.5201 152.4921,-132.5915 154.2165,-139.3757"/>
</g>
<!-- Node65&#45;&gt;Node64 -->
<g id="edge3" class="edge">
<title>Node65&#45;&gt;Node64</title>
<path fill="none" stroke="#191970" d="M240.5049,-133.5106C258.3019,-137.2757 279.5826,-141.1444 299,-143 442.0797,-156.6735 480.2779,-150.9501 622,-127 636.823,-124.495 652.8253,-120.8216 667.0929,-117.1912"/>
<polygon fill="#191970" stroke="#191970" points="668.3405,-120.483 677.1336,-114.5726 666.574,-113.7095 668.3405,-120.483"/>
</g>
<!-- Node66 -->
<g id="node4" class="node">
<title>Node66</title>
<g id="a_node4"><a xlink:href="a00086.xhtml#aa48df36af23103ce104d13854d4cbb87" target="_top" xlink:title="Obtient la débit binaire d&#39;une frame MP3. ">
<polygon fill="#ffffff" stroke="#000000" points="306,-114.5 306,-133.5 440,-133.5 440,-114.5 306,-114.5"/>
<text text-anchor="middle" x="373" y="-121.5" font-family="Helvetica,sans-Serif" font-size="10.00" fill="#000000">mp3_mpeg_hdr_get_bitrate</text>
</a>
</g>
</g>
<!-- Node65&#45;&gt;Node66 -->
<g id="edge4" class="edge">
<title>Node65&#45;&gt;Node66</title>
<path fill="none" stroke="#191970" d="M263.2644,-124C273.7767,-124 284.7927,-124 295.6204,-124"/>
<polygon fill="#191970" stroke="#191970" points="295.9212,-127.5001 305.9212,-124 295.9211,-120.5001 295.9212,-127.5001"/>
</g>
<!-- Node68 -->
<g id="node6" class="node">
<title>Node68</title>
<g id="a_node6"><a xlink:href="a00086.xhtml#a85aeeafb97867c551e217ba3283e6fec" target="_top" xlink:title="Obtient la fréquence d&#39;échantillonage d&#39;une frame MP3. ">
<polygon fill="#ffffff" stroke="#000000" points="299,-76.5 299,-95.5 447,-95.5 447,-76.5 299,-76.5"/>
<text text-anchor="middle" x="373" y="-83.5" font-family="Helvetica,sans-Serif" font-size="10.00" fill="#000000">mp3_mpeg_hdr_get_samprate</text>
</a>
</g>
</g>
<!-- Node65&#45;&gt;Node68 -->
<g id="edge8" class="edge">
<title>Node65&#45;&gt;Node68</title>
<path fill="none" stroke="#191970" d="M244.029,-114.411C267.0999,-109.3287 295.6266,-103.0446 319.9805,-97.6797"/>
<polygon fill="#191970" stroke="#191970" points="320.7711,-101.0895 329.784,-95.5201 319.2651,-94.2534 320.7711,-101.0895"/>
</g>
<!-- Node69 -->
<g id="node7" class="node">
<title>Node69</title>
<g id="a_node7"><a xlink:href="a00086.xhtml#a407e3a1d9a7c3350620818a2ef19f142" target="_top" xlink:title="Permet de savoir si une frame MP3 contient du padding. ">
<polygon fill="#ffffff" stroke="#000000" points="485,-.5 485,-19.5 620,-19.5 620,-.5 485,-.5"/>
<text text-anchor="middle" x="552.5" y="-7.5" font-family="Helvetica,sans-Serif" font-size="10.00" fill="#000000">mp3_mpeg_hdr_is_padding</text>
</a>
</g>
</g>
<!-- Node65&#45;&gt;Node69 -->
<g id="edge11" class="edge">
<title>Node65&#45;&gt;Node69</title>
<path fill="none" stroke="#191970" d="M213.858,-114.4911C232.2035,-101.8589 266.6163,-79.668 299,-67 356.008,-44.6993 423.8097,-30.0246 474.9427,-21.1574"/>
<polygon fill="#191970" stroke="#191970" points="475.6656,-24.5848 484.939,-19.4608 474.4943,-17.6835 475.6656,-24.5848"/>
</g>
<!-- Node66&#45;&gt;Node64 -->
<g id="edge5" class="edge">
<title>Node66&#45;&gt;Node64</title>
<path fill="none" stroke="#191970" d="M440.0827,-120.2235C500.4716,-116.8238 588.5546,-111.8651 647.615,-108.5402"/>
<polygon fill="#191970" stroke="#191970" points="648.1396,-112.0163 657.927,-107.9597 647.7461,-105.0274 648.1396,-112.0163"/>
</g>
<!-- Node67 -->
<g id="node5" class="node">
<title>Node67</title>
<g id="a_node5"><a xlink:href="a00086.xhtml#a2f08a046bc257029ca74b86b48204380" target="_top" xlink:title="Obtient la version de la norme MPEG du header d&#39;une frame MP3. ">
<polygon fill="#ffffff" stroke="#000000" points="483,-76.5 483,-95.5 622,-95.5 622,-76.5 483,-76.5"/>
<text text-anchor="middle" x="552.5" y="-83.5" font-family="Helvetica,sans-Serif" font-size="10.00" fill="#000000">mp3_mpeg_hdr_get_version</text>
</a>
</g>
</g>
<!-- Node66&#45;&gt;Node67 -->
<g id="edge6" class="edge">
<title>Node66&#45;&gt;Node67</title>
<path fill="none" stroke="#191970" d="M418.2954,-114.411C442.4092,-109.3061 472.2508,-102.9887 497.6666,-97.6082"/>
<polygon fill="#191970" stroke="#191970" points="498.472,-101.0153 507.5303,-95.5201 497.0222,-94.1671 498.472,-101.0153"/>
</g>
<!-- Node67&#45;&gt;Node64 -->
<g id="edge7" class="edge">
<title>Node67&#45;&gt;Node64</title>
<path fill="none" stroke="#191970" d="M622.261,-94.389C630.7242,-95.4067 639.3307,-96.4417 647.6849,-97.4463"/>
<polygon fill="#191970" stroke="#191970" points="647.3772,-100.9344 657.7236,-98.6535 648.213,-93.9845 647.3772,-100.9344"/>
</g>
<!-- Node68&#45;&gt;Node64 -->
<g id="edge9" class="edge">
<title>Node68&#45;&gt;Node64</title>
<path fill="none" stroke="#191970" d="M411.8106,-76.4472C461.1558,-65.8012 548.7454,-51.9379 622,-67 644.2491,-71.5747 667.8054,-81.9943 685.0167,-90.7677"/>
<polygon fill="#191970" stroke="#191970" points="683.397,-93.8703 693.8772,-95.4248 686.6538,-87.6741 683.397,-93.8703"/>
</g>
<!-- Node68&#45;&gt;Node67 -->
<g id="edge10" class="edge">
<title>Node68&#45;&gt;Node67</title>
<path fill="none" stroke="#191970" d="M447.0459,-86C455.5835,-86 464.3168,-86 472.9237,-86"/>
<polygon fill="#191970" stroke="#191970" points="472.9501,-89.5001 482.9501,-86 472.9501,-82.5001 472.9501,-89.5001"/>
</g>
<!-- Node69&#45;&gt;Node64 -->
<g id="edge12" class="edge">
<title>Node69&#45;&gt;Node64</title>
<path fill="none" stroke="#191970" d="M587.7927,-19.5848C599.0747,-23.3245 611.3828,-28.1402 622,-34 649.2698,-49.0505 676.6166,-72.5965 693.5413,-88.401"/>
<polygon fill="#191970" stroke="#191970" points="691.3094,-91.1086 700.9665,-95.4665 696.1348,-86.0375 691.3094,-91.1086"/>
</g>
</g>
</svg>
