<?xml version="1.0" encoding="UTF-8" standalone="no"?>
<!DOCTYPE svg PUBLIC "-//W3C//DTD SVG 1.1//EN"
 "http://www.w3.org/Graphics/SVG/1.1/DTD/svg11.dtd">
<!-- Generated by graphviz version 2.40.1 (20161225.0304)
 -->
<!-- Title: mp3_mpeg_hdr_get_bitrate Pages: 1 -->
<svg width="688pt" height="142pt"
 viewBox="0.00 0.00 688.00 142.00" xmlns="http://www.w3.org/2000/svg" xmlns:xlink="http://www.w3.org/1999/xlink">
<g id="graph0" class="graph" transform="scale(1 1) rotate(0) translate(4 138)">
<title>mp3_mpeg_hdr_get_bitrate</title>
<polygon fill="#ffffff" stroke="transparent" points="-4,4 -4,-138 684,-138 684,4 -4,4"/>
<!-- Node76 -->
<g id="node1" class="node">
<title>Node76</title>
<polygon fill="#bfbfbf" stroke="#000000" points="0,-47.5 0,-66.5 134,-66.5 134,-47.5 0,-47.5"/>
<text text-anchor="middle" x="67" y="-54.5" font-family="Helvetica,sans-Serif" font-size="10.00" fill="#000000">mp3_mpeg_hdr_get_bitrate</text>
</g>
<!-- Node77 -->
<g id="node2" class="node">
<title>Node77</title>
<g id="a_node2"><a xlink:href="a00086.xhtml#a3f5f1c770ad5013ccf94bce56b7d0a04" target="_top" xlink:title="Obtient la taille d&#39;une frame MP3. ">
<polygon fill="#ffffff" stroke="#000000" points="170,-47.5 170,-66.5 295,-66.5 295,-47.5 170,-47.5"/>
<text text-anchor="middle" x="232.5" y="-54.5" font-family="Helvetica,sans-Serif" font-size="10.00" fill="#000000">mp3_mpeg_hdr_get_size</text>
</a>
</g>
</g>
<!-- Node76&#45;&gt;Node77 -->
<g id="edge1" class="edge">
<title>Node76&#45;&gt;Node77</title>
<path fill="none" stroke="#191970" d="M144.5651,-57C153.0172,-57 161.5417,-57 169.7841,-57"/>
<polygon fill="#191970" stroke="#191970" points="144.3152,-53.5001 134.3152,-57 144.3152,-60.5001 144.3152,-53.5001"/>
</g>
<!-- Node78 -->
<g id="node3" class="node">
<title>Node78</title>
<g id="a_node3"><a xlink:href="a00089.xhtml#aa1f3d4311fe8115981f98b79a1fea672" target="_top" xlink:title="Saute la frame MP3 actuelle. ">
<polygon fill="#ffffff" stroke="#000000" points="331,-71.5 331,-90.5 433,-90.5 433,-71.5 331,-71.5"/>
<text text-anchor="middle" x="382" y="-78.5" font-family="Helvetica,sans-Serif" font-size="10.00" fill="#000000">mp3_mpeg_fr_seek</text>
</a>
</g>
</g>
<!-- Node77&#45;&gt;Node78 -->
<g id="edge2" class="edge">
<title>Node77&#45;&gt;Node78</title>
<path fill="none" stroke="#191970" d="M302.0643,-68.1675C311.774,-69.7263 321.6009,-71.3038 330.8855,-72.7943"/>
<polygon fill="#191970" stroke="#191970" points="302.4443,-64.6838 292.0159,-66.5544 301.3347,-71.5953 302.4443,-64.6838"/>
</g>
<!-- Node84 -->
<g id="node9" class="node">
<title>Node84</title>
<g id="a_node9"><a xlink:href="a00089.xhtml#ab0198bd0d67c778ff7493f1bcd0a409e" target="_top" xlink:title="Écris la frame MP3 actuelle. ">
<polygon fill="#ffffff" stroke="#000000" points="331,-28.5 331,-47.5 433,-47.5 433,-28.5 331,-28.5"/>
<text text-anchor="middle" x="382" y="-35.5" font-family="Helvetica,sans-Serif" font-size="10.00" fill="#000000">mp3_mpeg_fr_write</text>
</a>
</g>
</g>
<!-- Node77&#45;&gt;Node84 -->
<g id="edge8" class="edge">
<title>Node77&#45;&gt;Node84</title>
<path fill="none" stroke="#191970" d="M305.0992,-47.7733C313.7106,-46.6789 322.36,-45.5797 330.5898,-44.5337"/>
<polygon fill="#191970" stroke="#191970" points="304.5141,-44.3195 295.0352,-49.0524 305.3967,-51.2636 304.5141,-44.3195"/>
</g>
<!-- Node79 -->
<g id="node4" class="node">
<title>Node79</title>
<g id="a_node4"><a xlink:href="a00035.xhtml#abc757e2627fc9971e388a584e0e0c2ca" target="_top" xlink:title="Va extraire les donnees cachees en utilisant l&#39;algorithme LSB. ">
<polygon fill="#ffffff" stroke="#000000" points="472,-111.5 472,-130.5 537,-130.5 537,-111.5 472,-111.5"/>
<text text-anchor="middle" x="504.5" y="-118.5" font-family="Helvetica,sans-Serif" font-size="10.00" fill="#000000">extract_lsb</text>
</a>
</g>
</g>
<!-- Node78&#45;&gt;Node79 -->
<g id="edge3" class="edge">
<title>Node78&#45;&gt;Node79</title>
<path fill="none" stroke="#191970" d="M421.3131,-93.8369C438.8823,-99.5738 459.2261,-106.2167 475.3976,-111.4972"/>
<polygon fill="#191970" stroke="#191970" points="421.9343,-90.358 411.3418,-90.581 419.7614,-97.0122 421.9343,-90.358"/>
</g>
<!-- Node81 -->
<g id="node6" class="node">
<title>Node81</title>
<g id="a_node6"><a xlink:href="a00131.xhtml#a5501c9c7711252fa8d85ff12cb3390dc" target="_top" xlink:title="Remplit les informations du fichier hôte. ">
<polygon fill="#ffffff" stroke="#000000" points="469,-71.5 469,-90.5 540,-90.5 540,-71.5 469,-71.5"/>
<text text-anchor="middle" x="504.5" y="-78.5" font-family="Helvetica,sans-Serif" font-size="10.00" fill="#000000">fill_host_info</text>
</a>
</g>
</g>
<!-- Node78&#45;&gt;Node81 -->
<g id="edge5" class="edge">
<title>Node78&#45;&gt;Node81</title>
<path fill="none" stroke="#191970" d="M443.3911,-81C452.0713,-81 460.7478,-81 468.7232,-81"/>
<polygon fill="#191970" stroke="#191970" points="443.2413,-77.5001 433.2412,-81 443.2412,-84.5001 443.2413,-77.5001"/>
</g>
<!-- Node80 -->
<g id="node5" class="node">
<title>Node80</title>
<g id="a_node5"><a xlink:href="a00065.xhtml#a43c63dd958bfa1f4ab2ecbd7faa14abb" target="_top" xlink:title="Va faire l&#39;extraction selon l&#39;algorithme détecté, ainsi que les fichiers en entrée choisis par l&#39;util...">
<polygon fill="#ffffff" stroke="#000000" points="590,-114.5 590,-133.5 666,-133.5 666,-114.5 590,-114.5"/>
<text text-anchor="middle" x="628" y="-121.5" font-family="Helvetica,sans-Serif" font-size="10.00" fill="#000000">stegx_extract</text>
</a>
</g>
</g>
<!-- Node79&#45;&gt;Node80 -->
<g id="edge4" class="edge">
<title>Node79&#45;&gt;Node80</title>
<path fill="none" stroke="#191970" d="M547.4845,-122.0442C561.2585,-122.3787 576.4089,-122.7468 589.8157,-123.0724"/>
<polygon fill="#191970" stroke="#191970" points="547.3536,-118.54 537.2715,-121.7961 547.1835,-125.538 547.3536,-118.54"/>
</g>
<!-- Node82 -->
<g id="node7" class="node">
<title>Node82</title>
<g id="a_node7"><a xlink:href="a00050.xhtml#a2a3747fdc90ed4467eb3e468d8fba361" target="_top" xlink:title="Detecte l&#39;algorithme utilisé ainsi que le nom du fichier caché et la taille des données cachées...">
<polygon fill="#ffffff" stroke="#000000" points="580,-76.5 580,-95.5 676,-95.5 676,-76.5 580,-76.5"/>
<text text-anchor="middle" x="628" y="-83.5" font-family="Helvetica,sans-Serif" font-size="10.00" fill="#000000">stegx_detect_algo</text>
</a>
</g>
</g>
<!-- Node81&#45;&gt;Node82 -->
<g id="edge6" class="edge">
<title>Node81&#45;&gt;Node82</title>
<path fill="none" stroke="#191970" d="M550.4129,-82.8588C560.0496,-83.249 570.2382,-83.6615 579.9506,-84.0547"/>
<polygon fill="#191970" stroke="#191970" points="550.3547,-79.3537 540.2213,-82.4462 550.0715,-86.348 550.3547,-79.3537"/>
</g>
<!-- Node83 -->
<g id="node8" class="node">
<title>Node83</title>
<g id="a_node8"><a xlink:href="a00128.xhtml#adc277622e5fe0d1814be76f11263b350" target="_top" xlink:title="Propose les algorithmes de stéganographie utilisables. ">
<polygon fill="#ffffff" stroke="#000000" points="576,-38.5 576,-57.5 680,-57.5 680,-38.5 576,-38.5"/>
<text text-anchor="middle" x="628" y="-45.5" font-family="Helvetica,sans-Serif" font-size="10.00" fill="#000000">stegx_suggest_algo</text>
</a>
</g>
</g>
<!-- Node81&#45;&gt;Node83 -->
<g id="edge7" class="edge">
<title>Node81&#45;&gt;Node83</title>
<path fill="none" stroke="#191970" d="M550.1197,-68.8101C564.0611,-65.0849 579.1821,-61.0445 592.359,-57.5235"/>
<polygon fill="#191970" stroke="#191970" points="548.9788,-65.4921 540.2213,-71.455 550.7859,-72.2548 548.9788,-65.4921"/>
</g>
<!-- Node85 -->
<g id="node10" class="node">
<title>Node85</title>
<g id="a_node10"><a xlink:href="a00035.xhtml#a14e9d876697b0225ded31095c1076b64" target="_top" xlink:title="Va inserer les donnees cachees en utilisant l&#39;algorithme LSB. ">
<polygon fill="#ffffff" stroke="#000000" points="475,-19.5 475,-38.5 534,-38.5 534,-19.5 475,-19.5"/>
<text text-anchor="middle" x="504.5" y="-26.5" font-family="Helvetica,sans-Serif" font-size="10.00" fill="#000000">insert_lsb</text>
</a>
</g>
</g>
<!-- Node84&#45;&gt;Node85 -->
<g id="edge9" class="edge">
<title>Node84&#45;&gt;Node85</title>
<path fill="none" stroke="#191970" d="M443.2791,-33.4979C454.2528,-32.6916 465.2253,-31.8855 474.7875,-31.183"/>
<polygon fill="#191970" stroke="#191970" points="442.9579,-30.0119 433.2412,-34.2353 443.4708,-36.9931 442.9579,-30.0119"/>
</g>
<!-- Node86 -->
<g id="node11" class="node">
<title>Node86</title>
<g id="a_node11"><a xlink:href="a00110.xhtml#a45a1d0709604d55e9d467cb39d6a5b54" target="_top" xlink:title="Va faire l&#39;insertion selon l&#39;algorithme, ainsi que les fichiers en entrée choisis par l&#39;utilisateur...">
<polygon fill="#ffffff" stroke="#000000" points="593,-.5 593,-19.5 663,-19.5 663,-.5 593,-.5"/>
<text text-anchor="middle" x="628" y="-7.5" font-family="Helvetica,sans-Serif" font-size="10.00" fill="#000000">stegx_insert</text>
</a>
</g>
</g>
<!-- Node85&#45;&gt;Node86 -->
<g id="edge10" class="edge">
<title>Node85&#45;&gt;Node86</title>
<path fill="none" stroke="#191970" d="M544.0434,-22.9164C559.7671,-20.4974 577.707,-17.7374 592.9557,-15.3914"/>
<polygon fill="#191970" stroke="#191970" points="543.4328,-19.4691 534.0813,-24.449 544.4973,-26.3877 543.4328,-19.4691"/>
</g>
</g>
</svg>
