<?xml version="1.0" encoding="UTF-8" standalone="no"?>
<!DOCTYPE svg PUBLIC "-//W3C//DTD SVG 1.1//EN"
 "http://www.w3.org/Graphics/SVG/1.1/DTD/svg11.dtd">
<!-- Generated by graphviz version 2.40.1 (20161225.0304)
 -->
<!-- Title: stegx_suggest_algo Pages: 1 -->
<svg width="1072pt" height="411pt"
 viewBox="0.00 0.00 1072.00 410.77" xmlns="http://www.w3.org/2000/svg" xmlns:xlink="http://www.w3.org/1999/xlink">
<g id="graph0" class="graph" transform="scale(1 1) rotate(0) translate(4 406.7683)">
<title>stegx_suggest_algo</title>
<polygon fill="#ffffff" stroke="transparent" points="-4,4 -4,-406.7683 1068,-406.7683 1068,4 -4,4"/>
<!-- Node97 -->
<g id="node1" class="node">
<title>Node97</title>
<polygon fill="#bfbfbf" stroke="#000000" points="0,-114.5 0,-133.5 104,-133.5 104,-114.5 0,-114.5"/>
<text text-anchor="middle" x="52" y="-121.5" font-family="Helvetica,sans-Serif" font-size="10.00" fill="#000000">stegx_suggest_algo</text>
</g>
<!-- Node98 -->
<g id="node2" class="node">
<title>Node98</title>
<g id="a_node2"><a xlink:href="a00128.xhtml#a5501c9c7711252fa8d85ff12cb3390dc" target="_top" xlink:title="Remplit les informations du fichier hôte. ">
<polygon fill="#ffffff" stroke="#000000" points="158.5,-209.5 158.5,-228.5 229.5,-228.5 229.5,-209.5 158.5,-209.5"/>
<text text-anchor="middle" x="194" y="-216.5" font-family="Helvetica,sans-Serif" font-size="10.00" fill="#000000">fill_host_info</text>
</a>
</g>
</g>
<!-- Node97&#45;&gt;Node98 -->
<g id="edge1" class="edge">
<title>Node97&#45;&gt;Node98</title>
<path fill="none" stroke="#191970" d="M60.8542,-133.7159C75.7806,-149.5823 107.5158,-181.1697 140,-200 143.4796,-202.017 147.2085,-203.8712 151.021,-205.5635"/>
<polygon fill="#191970" stroke="#191970" points="149.9931,-208.9234 160.5754,-209.4375 152.6234,-202.4364 149.9931,-208.9234"/>
</g>
<!-- Node113 -->
<g id="node17" class="node">
<title>Node113</title>
<g id="a_node17"><a xlink:href="a00128.xhtml#adb74030cbeeeadb4f0872cd6cb067796" target="_top" xlink:title="Teste si l&#39;on peut utiliser l&#39;algorithme LSB pour la dissimulation. ">
<polygon fill="#ffffff" stroke="#000000" points="158.5,-171.5 158.5,-190.5 229.5,-190.5 229.5,-171.5 158.5,-171.5"/>
<text text-anchor="middle" x="194" y="-178.5" font-family="Helvetica,sans-Serif" font-size="10.00" fill="#000000">can_use_lsb</text>
</a>
</g>
</g>
<!-- Node97&#45;&gt;Node113 -->
<g id="edge26" class="edge">
<title>Node97&#45;&gt;Node113</title>
<path fill="none" stroke="#191970" d="M73.1673,-133.6308C90.8866,-141.5742 116.9092,-152.9647 140,-162 145.1481,-164.0144 150.6085,-166.0505 156.0025,-168.0037"/>
<polygon fill="#191970" stroke="#191970" points="154.9632,-171.3488 165.5579,-171.4073 157.3121,-164.7547 154.9632,-171.3488"/>
</g>
<!-- Node114 -->
<g id="node18" class="node">
<title>Node114</title>
<g id="a_node18"><a xlink:href="a00128.xhtml#a28857a3fb0be2252aa54849431d1582f" target="_top" xlink:title="Teste si l&#39;on peut utiliser l&#39;algorithme EOF pour la dissimulation. ">
<polygon fill="#ffffff" stroke="#000000" points="158,-133.5 158,-152.5 230,-152.5 230,-133.5 158,-133.5"/>
<text text-anchor="middle" x="194" y="-140.5" font-family="Helvetica,sans-Serif" font-size="10.00" fill="#000000">can_use_eof</text>
</a>
</g>
</g>
<!-- Node97&#45;&gt;Node114 -->
<g id="edge27" class="edge">
<title>Node97&#45;&gt;Node114</title>
<path fill="none" stroke="#191970" d="M104.0692,-130.967C118.3243,-132.8744 133.6778,-134.9287 147.5932,-136.7906"/>
<polygon fill="#191970" stroke="#191970" points="147.5362,-140.3141 157.9121,-138.1713 148.4646,-133.376 147.5362,-140.3141"/>
</g>
<!-- Node115 -->
<g id="node19" class="node">
<title>Node115</title>
<g id="a_node19"><a xlink:href="a00128.xhtml#ac1012fe713837a597197f24dedc7314f" target="_top" xlink:title="Teste si l&#39;on peut utiliser l&#39;algorithme Metadata pour la dissimulation. ">
<polygon fill="#ffffff" stroke="#000000" points="144.5,-95.5 144.5,-114.5 243.5,-114.5 243.5,-95.5 144.5,-95.5"/>
<text text-anchor="middle" x="194" y="-102.5" font-family="Helvetica,sans-Serif" font-size="10.00" fill="#000000">can_use_metadata</text>
</a>
</g>
</g>
<!-- Node97&#45;&gt;Node115 -->
<g id="edge28" class="edge">
<title>Node97&#45;&gt;Node115</title>
<path fill="none" stroke="#191970" d="M104.0692,-117.033C113.9239,-115.7144 124.3034,-114.3256 134.3699,-112.9787"/>
<polygon fill="#191970" stroke="#191970" points="134.8535,-116.4452 144.301,-111.6499 133.9251,-109.5071 134.8535,-116.4452"/>
</g>
<!-- Node116 -->
<g id="node20" class="node">
<title>Node116</title>
<g id="a_node20"><a xlink:href="a00128.xhtml#a39a800f242ed5484ff790ee9e92070ab" target="_top" xlink:title="Teste si l&#39;on peut utiliser l&#39;algorithme EOC pour la dissimulation. ">
<polygon fill="#ffffff" stroke="#000000" points="157,-57.5 157,-76.5 231,-76.5 231,-57.5 157,-57.5"/>
<text text-anchor="middle" x="194" y="-64.5" font-family="Helvetica,sans-Serif" font-size="10.00" fill="#000000">can_use_eoc</text>
</a>
</g>
</g>
<!-- Node97&#45;&gt;Node116 -->
<g id="edge29" class="edge">
<title>Node97&#45;&gt;Node116</title>
<path fill="none" stroke="#191970" d="M73.1673,-114.3692C90.8866,-106.4258 116.9092,-95.0353 140,-86 145.1481,-83.9856 150.6085,-81.9495 156.0025,-79.9963"/>
<polygon fill="#191970" stroke="#191970" points="157.3121,-83.2453 165.5579,-76.5927 154.9632,-76.6512 157.3121,-83.2453"/>
</g>
<!-- Node117 -->
<g id="node21" class="node">
<title>Node117</title>
<g id="a_node21"><a xlink:href="a00128.xhtml#a7003efd2a5625e2be5923b960397de06" target="_top" xlink:title="Teste si l&#39;on peut utiliser l&#39;algorithme Junk Chunk pour la dissimulation. ">
<polygon fill="#ffffff" stroke="#000000" points="140,-19.5 140,-38.5 248,-38.5 248,-19.5 140,-19.5"/>
<text text-anchor="middle" x="194" y="-26.5" font-family="Helvetica,sans-Serif" font-size="10.00" fill="#000000">can_use_junk_chunk</text>
</a>
</g>
</g>
<!-- Node97&#45;&gt;Node117 -->
<g id="edge30" class="edge">
<title>Node97&#45;&gt;Node117</title>
<path fill="none" stroke="#191970" d="M60.8542,-114.2841C75.7806,-98.4177 107.5158,-66.8303 140,-48 143.4796,-45.983 147.2085,-44.1288 151.021,-42.4365"/>
<polygon fill="#191970" stroke="#191970" points="152.6234,-45.5636 160.5754,-38.5625 149.9931,-39.0766 152.6234,-45.5636"/>
</g>
<!-- Node99 -->
<g id="node3" class="node">
<title>Node99</title>
<g id="a_node3"><a xlink:href="a00056.xhtml#a7434fd197d31a9571f92f9dca4f212e9" target="_top" xlink:title="Convertit un nombre en big endian dans l&#39;endian de la machine. ">
<polygon fill="#ffffff" stroke="#000000" points="634,-380.5 634,-399.5 714,-399.5 714,-380.5 634,-380.5"/>
<text text-anchor="middle" x="674" y="-387.5" font-family="Helvetica,sans-Serif" font-size="10.00" fill="#000000">stegx_be32toh</text>
</a>
</g>
</g>
<!-- Node98&#45;&gt;Node99 -->
<g id="edge2" class="edge">
<title>Node98&#45;&gt;Node99</title>
<path fill="none" stroke="#191970" d="M199.2353,-228.6463C211.3907,-250.2167 243.594,-302.8212 284,-333 343.4452,-377.3989 366.1432,-380.9691 439,-395 501.7182,-407.0784 575.5882,-402.5186 623.5299,-397.1506"/>
<polygon fill="#191970" stroke="#191970" points="624.1262,-400.6047 633.6497,-395.9621 623.3097,-393.6525 624.1262,-400.6047"/>
</g>
<!-- Node100 -->
<g id="node4" class="node">
<title>Node100</title>
<g id="a_node4"><a xlink:href="a00086.xhtml#afc3c44f7f4f0993fbc17c150c728e677" target="_top" xlink:title="Trouve la première frame MPEG 1/2 Layer III. ">
<polygon fill="#ffffff" stroke="#000000" points="284,-304.5 284,-323.5 403,-323.5 403,-304.5 284,-304.5"/>
<text text-anchor="middle" x="343.5" y="-311.5" font-family="Helvetica,sans-Serif" font-size="10.00" fill="#000000">mp3_mpeg_fr_find_first</text>
</a>
</g>
</g>
<!-- Node98&#45;&gt;Node100 -->
<g id="edge3" class="edge">
<title>Node98&#45;&gt;Node100</title>
<path fill="none" stroke="#191970" d="M209.1576,-228.6319C235.2371,-245.2042 288.7793,-279.2277 319.8169,-298.9505"/>
<polygon fill="#191970" stroke="#191970" points="317.985,-301.9333 328.3023,-304.3426 321.7393,-296.0252 317.985,-301.9333"/>
</g>
<!-- Node104 -->
<g id="node8" class="node">
<title>Node104</title>
<g id="a_node8"><a xlink:href="a00086.xhtml#a75bc8b052a4d00ab95b05b576918360d" target="_top" xlink:title="Test si le header est un header MPEG 1/2 Layer III. ">
<polygon fill="#ffffff" stroke="#000000" points="959,-133.5 959,-152.5 1064,-152.5 1064,-133.5 959,-133.5"/>
<text text-anchor="middle" x="1011.5" y="-140.5" font-family="Helvetica,sans-Serif" font-size="10.00" fill="#000000">mp3_mpeg_hdr_test</text>
</a>
</g>
</g>
<!-- Node98&#45;&gt;Node104 -->
<g id="edge10" class="edge">
<title>Node98&#45;&gt;Node104</title>
<path fill="none" stroke="#191970" d="M229.9344,-222.6634C287.2857,-228.1846 403.0835,-238 501.5,-238 501.5,-238 501.5,-238 674,-238 787.1458,-238 815.8284,-221.2798 923,-185 944.7472,-177.6381 968.169,-166.3609 985.4515,-157.345"/>
<polygon fill="#191970" stroke="#191970" points="987.1812,-160.3894 994.3716,-152.6081 983.8981,-154.2071 987.1812,-160.3894"/>
</g>
<!-- Node105 -->
<g id="node9" class="node">
<title>Node105</title>
<g id="a_node9"><a xlink:href="a00086.xhtml#aee166f42b332d8c5b51d25a9ef8c14b7" target="_top" xlink:title="Saute la frame MP3 actuelle. ">
<polygon fill="#ffffff" stroke="#000000" points="292.5,-190.5 292.5,-209.5 394.5,-209.5 394.5,-190.5 292.5,-190.5"/>
<text text-anchor="middle" x="343.5" y="-197.5" font-family="Helvetica,sans-Serif" font-size="10.00" fill="#000000">mp3_mpeg_fr_seek</text>
</a>
</g>
</g>
<!-- Node98&#45;&gt;Node105 -->
<g id="edge11" class="edge">
<title>Node98&#45;&gt;Node105</title>
<path fill="none" stroke="#191970" d="M229.809,-214.449C245.4788,-212.4575 264.3161,-210.0635 282.1096,-207.8021"/>
<polygon fill="#191970" stroke="#191970" points="282.9547,-211.223 292.4336,-206.49 282.0721,-204.2788 282.9547,-211.223"/>
</g>
<!-- Node111 -->
<g id="node15" class="node">
<title>Node111</title>
<g id="a_node15"><a xlink:href="a00086.xhtml#aaccf359620da01d34de43ba7ce7f3513" target="_top" xlink:title="Test si le header est un header ID3v1. ">
<polygon fill="#ffffff" stroke="#000000" points="291.5,-152.5 291.5,-171.5 395.5,-171.5 395.5,-152.5 291.5,-152.5"/>
<text text-anchor="middle" x="343.5" y="-159.5" font-family="Helvetica,sans-Serif" font-size="10.00" fill="#000000">mp3_id3v1_hdr_test</text>
</a>
</g>
</g>
<!-- Node98&#45;&gt;Node111 -->
<g id="edge24" class="edge">
<title>Node98&#45;&gt;Node111</title>
<path fill="none" stroke="#191970" d="M223.7322,-209.4207C231.7055,-206.6136 240.2592,-203.3826 248,-200 264.578,-192.7558 267.3179,-188.0012 284,-181 289.1869,-178.8231 294.7149,-176.7483 300.2327,-174.8236"/>
<polygon fill="#191970" stroke="#191970" points="301.704,-178.0222 310.0779,-171.5316 299.4841,-171.3835 301.704,-178.0222"/>
</g>
<!-- Node112 -->
<g id="node16" class="node">
<title>Node112</title>
<g id="a_node16"><a xlink:href="a00086.xhtml#ab0fd93a465f2e320e749093c17f20823" target="_top" xlink:title="Saute le tag ID3v1 actuel. ">
<polygon fill="#ffffff" stroke="#000000" points="289,-114.5 289,-133.5 398,-133.5 398,-114.5 289,-114.5"/>
<text text-anchor="middle" x="343.5" y="-121.5" font-family="Helvetica,sans-Serif" font-size="10.00" fill="#000000">mp3_id3v1_tag_seek</text>
</a>
</g>
</g>
<!-- Node98&#45;&gt;Node112 -->
<g id="edge25" class="edge">
<title>Node98&#45;&gt;Node112</title>
<path fill="none" stroke="#191970" d="M229.7616,-210.2384C236.2425,-207.6243 242.6373,-204.274 248,-200 271.4315,-181.3254 260.2981,-161.3302 284,-143 286.3321,-141.1964 288.8399,-139.5617 291.4599,-138.0802"/>
<polygon fill="#191970" stroke="#191970" points="293.2264,-141.1138 300.7071,-133.6111 290.1804,-134.8112 293.2264,-141.1138"/>
</g>
<!-- Node100&#45;&gt;Node99 -->
<g id="edge4" class="edge">
<title>Node100&#45;&gt;Node99</title>
<path fill="none" stroke="#191970" d="M355.287,-323.512C372.5052,-336.8018 406.0788,-360.4765 439,-371 500.386,-390.6224 575.1548,-393.2951 623.6249,-392.4448"/>
<polygon fill="#191970" stroke="#191970" points="623.9385,-395.9385 633.854,-392.206 623.775,-388.9404 623.9385,-395.9385"/>
</g>
<!-- Node101 -->
<g id="node5" class="node">
<title>Node101</title>
<g id="a_node5"><a xlink:href="a00086.xhtml#ad5c1775e3137194eae404a93a564ab96" target="_top" xlink:title="Test si le header est un header ID3v2. ">
<polygon fill="#ffffff" stroke="#000000" points="449.5,-342.5 449.5,-361.5 553.5,-361.5 553.5,-342.5 449.5,-342.5"/>
<text text-anchor="middle" x="501.5" y="-349.5" font-family="Helvetica,sans-Serif" font-size="10.00" fill="#000000">mp3_id3v2_hdr_test</text>
</a>
</g>
</g>
<!-- Node100&#45;&gt;Node101 -->
<g id="edge5" class="edge">
<title>Node100&#45;&gt;Node101</title>
<path fill="none" stroke="#191970" d="M383.3701,-323.589C404.2199,-328.6035 429.9346,-334.7881 452.0429,-340.1053"/>
<polygon fill="#191970" stroke="#191970" points="451.3754,-343.5445 461.9166,-342.4799 453.0123,-336.7385 451.3754,-343.5445"/>
</g>
<!-- Node102 -->
<g id="node6" class="node">
<title>Node102</title>
<g id="a_node6"><a xlink:href="a00086.xhtml#acc4a0b82043fbdeadb8c669eda06d2cb" target="_top" xlink:title="Saute le tag ID3v2 actuel. ">
<polygon fill="#ffffff" stroke="#000000" points="447,-304.5 447,-323.5 556,-323.5 556,-304.5 447,-304.5"/>
<text text-anchor="middle" x="501.5" y="-311.5" font-family="Helvetica,sans-Serif" font-size="10.00" fill="#000000">mp3_id3v2_tag_seek</text>
</a>
</g>
</g>
<!-- Node100&#45;&gt;Node102 -->
<g id="edge6" class="edge">
<title>Node100&#45;&gt;Node102</title>
<path fill="none" stroke="#191970" d="M403.233,-314C414.2057,-314 425.7066,-314 436.8165,-314"/>
<polygon fill="#191970" stroke="#191970" points="436.8834,-317.5001 446.8834,-314 436.8833,-310.5001 436.8834,-317.5001"/>
</g>
<!-- Node100&#45;&gt;Node104 -->
<g id="edge9" class="edge">
<title>Node100&#45;&gt;Node104</title>
<path fill="none" stroke="#191970" d="M386.5922,-304.402C402.9386,-301.0315 421.7645,-297.4728 439,-295 545.8847,-279.665 827.6613,-302.6956 923,-252 961.19,-231.6927 988.9575,-187.1681 1002.4026,-161.7551"/>
<polygon fill="#191970" stroke="#191970" points="1005.5711,-163.2458 1006.9907,-152.7465 999.3335,-160.069 1005.5711,-163.2458"/>
</g>
<!-- Node102&#45;&gt;Node99 -->
<g id="edge8" class="edge">
<title>Node102&#45;&gt;Node99</title>
<path fill="none" stroke="#191970" d="M536.9332,-323.541C545.8788,-326.2841 555.3867,-329.4936 564,-333 594.0214,-345.2215 626.8159,-362.8064 648.7152,-375.2051"/>
<polygon fill="#191970" stroke="#191970" points="647.2597,-378.4047 657.6773,-380.3345 650.7369,-372.3294 647.2597,-378.4047"/>
</g>
<!-- Node103 -->
<g id="node7" class="node">
<title>Node103</title>
<g id="a_node7"><a xlink:href="a00086.xhtml#a98007b4129951e18b3ba95b3d5ad973e" target="_top" xlink:title="Retire la sécurité de synchronisation de la taille d&#39;un tag ID3v2. ">
<polygon fill="#ffffff" stroke="#000000" points="602.5,-304.5 602.5,-323.5 745.5,-323.5 745.5,-304.5 602.5,-304.5"/>
<text text-anchor="middle" x="674" y="-311.5" font-family="Helvetica,sans-Serif" font-size="10.00" fill="#000000">mp3_id3v2_size_unsyncsafe</text>
</a>
</g>
</g>
<!-- Node102&#45;&gt;Node103 -->
<g id="edge7" class="edge">
<title>Node102&#45;&gt;Node103</title>
<path fill="none" stroke="#191970" d="M556.0801,-314C567.57,-314 579.9307,-314 592.1722,-314"/>
<polygon fill="#191970" stroke="#191970" points="592.4055,-317.5001 602.4054,-314 592.4054,-310.5001 592.4055,-317.5001"/>
</g>
<!-- Node105&#45;&gt;Node104 -->
<g id="edge12" class="edge">
<title>Node105&#45;&gt;Node104</title>
<path fill="none" stroke="#191970" d="M394.5783,-199.7501C495.9108,-198.611 729.3194,-192.7791 923,-164 937.58,-161.8335 953.2937,-158.455 967.376,-155.0363"/>
<polygon fill="#191970" stroke="#191970" points="968.4486,-158.376 977.3021,-152.5567 966.752,-151.5847 968.4486,-158.376"/>
</g>
<!-- Node106 -->
<g id="node10" class="node">
<title>Node106</title>
<g id="a_node10"><a xlink:href="a00086.xhtml#a3f5f1c770ad5013ccf94bce56b7d0a04" target="_top" xlink:title="Obtient la taille d&#39;une frame MP3. ">
<polygon fill="#ffffff" stroke="#000000" points="439,-114.5 439,-133.5 564,-133.5 564,-114.5 439,-114.5"/>
<text text-anchor="middle" x="501.5" y="-121.5" font-family="Helvetica,sans-Serif" font-size="10.00" fill="#000000">mp3_mpeg_hdr_get_size</text>
</a>
</g>
</g>
<!-- Node105&#45;&gt;Node106 -->
<g id="edge13" class="edge">
<title>Node105&#45;&gt;Node106</title>
<path fill="none" stroke="#191970" d="M377.6402,-190.4882C386.063,-187.7642 394.9687,-184.5562 403,-181 430.1367,-168.9841 459.3403,-151.4446 478.8424,-139.0006"/>
<polygon fill="#191970" stroke="#191970" points="480.8328,-141.8816 487.3314,-133.5139 477.033,-136.0027 480.8328,-141.8816"/>
</g>
<!-- Node106&#45;&gt;Node104 -->
<g id="edge14" class="edge">
<title>Node106&#45;&gt;Node104</title>
<path fill="none" stroke="#191970" d="M542.9684,-133.5596C560.4708,-137.1869 581.129,-140.9375 600,-143 722.9299,-156.4353 867.7536,-151.7018 948.6612,-147.227"/>
<polygon fill="#191970" stroke="#191970" points="948.9004,-150.7191 958.685,-146.6557 948.502,-143.7305 948.9004,-150.7191"/>
</g>
<!-- Node107 -->
<g id="node11" class="node">
<title>Node107</title>
<g id="a_node11"><a xlink:href="a00086.xhtml#aa48df36af23103ce104d13854d4cbb87" target="_top" xlink:title="Obtient la débit binaire d&#39;une frame MP3. ">
<polygon fill="#ffffff" stroke="#000000" points="607,-114.5 607,-133.5 741,-133.5 741,-114.5 607,-114.5"/>
<text text-anchor="middle" x="674" y="-121.5" font-family="Helvetica,sans-Serif" font-size="10.00" fill="#000000">mp3_mpeg_hdr_get_bitrate</text>
</a>
</g>
</g>
<!-- Node106&#45;&gt;Node107 -->
<g id="edge15" class="edge">
<title>Node106&#45;&gt;Node107</title>
<path fill="none" stroke="#191970" d="M564.2644,-124C574.7767,-124 585.7927,-124 596.6204,-124"/>
<polygon fill="#191970" stroke="#191970" points="596.9212,-127.5001 606.9212,-124 596.9211,-120.5001 596.9212,-127.5001"/>
</g>
<!-- Node109 -->
<g id="node13" class="node">
<title>Node109</title>
<g id="a_node13"><a xlink:href="a00086.xhtml#a85aeeafb97867c551e217ba3283e6fec" target="_top" xlink:title="Obtient la fréquence d&#39;échantillonage d&#39;une frame MP3. ">
<polygon fill="#ffffff" stroke="#000000" points="600,-76.5 600,-95.5 748,-95.5 748,-76.5 600,-76.5"/>
<text text-anchor="middle" x="674" y="-83.5" font-family="Helvetica,sans-Serif" font-size="10.00" fill="#000000">mp3_mpeg_hdr_get_samprate</text>
</a>
</g>
</g>
<!-- Node106&#45;&gt;Node109 -->
<g id="edge19" class="edge">
<title>Node106&#45;&gt;Node109</title>
<path fill="none" stroke="#191970" d="M545.029,-114.411C568.0999,-109.3287 596.6266,-103.0446 620.9805,-97.6797"/>
<polygon fill="#191970" stroke="#191970" points="621.7711,-101.0895 630.784,-95.5201 620.2651,-94.2534 621.7711,-101.0895"/>
</g>
<!-- Node110 -->
<g id="node14" class="node">
<title>Node110</title>
<g id="a_node14"><a xlink:href="a00086.xhtml#a407e3a1d9a7c3350620818a2ef19f142" target="_top" xlink:title="Permet de savoir si une frame MP3 contient du padding. ">
<polygon fill="#ffffff" stroke="#000000" points="786,-.5 786,-19.5 921,-19.5 921,-.5 786,-.5"/>
<text text-anchor="middle" x="853.5" y="-7.5" font-family="Helvetica,sans-Serif" font-size="10.00" fill="#000000">mp3_mpeg_hdr_is_padding</text>
</a>
</g>
</g>
<!-- Node106&#45;&gt;Node110 -->
<g id="edge22" class="edge">
<title>Node106&#45;&gt;Node110</title>
<path fill="none" stroke="#191970" d="M514.858,-114.4911C533.2035,-101.8589 567.6163,-79.668 600,-67 657.008,-44.6993 724.8097,-30.0246 775.9427,-21.1574"/>
<polygon fill="#191970" stroke="#191970" points="776.6656,-24.5848 785.939,-19.4608 775.4943,-17.6835 776.6656,-24.5848"/>
</g>
<!-- Node107&#45;&gt;Node104 -->
<g id="edge16" class="edge">
<title>Node107&#45;&gt;Node104</title>
<path fill="none" stroke="#191970" d="M741.0827,-127.7765C801.4716,-131.1762 889.5546,-136.1349 948.615,-139.4598"/>
<polygon fill="#191970" stroke="#191970" points="948.7461,-142.9726 958.927,-140.0403 949.1396,-135.9837 948.7461,-142.9726"/>
</g>
<!-- Node108 -->
<g id="node12" class="node">
<title>Node108</title>
<g id="a_node12"><a xlink:href="a00086.xhtml#a2f08a046bc257029ca74b86b48204380" target="_top" xlink:title="Obtient la version de la norme MPEG du header d&#39;une frame MP3. ">
<polygon fill="#ffffff" stroke="#000000" points="784,-76.5 784,-95.5 923,-95.5 923,-76.5 784,-76.5"/>
<text text-anchor="middle" x="853.5" y="-83.5" font-family="Helvetica,sans-Serif" font-size="10.00" fill="#000000">mp3_mpeg_hdr_get_version</text>
</a>
</g>
</g>
<!-- Node107&#45;&gt;Node108 -->
<g id="edge17" class="edge">
<title>Node107&#45;&gt;Node108</title>
<path fill="none" stroke="#191970" d="M719.2954,-114.411C743.4092,-109.3061 773.2508,-102.9887 798.6666,-97.6082"/>
<polygon fill="#191970" stroke="#191970" points="799.472,-101.0153 808.5303,-95.5201 798.0222,-94.1671 799.472,-101.0153"/>
</g>
<!-- Node108&#45;&gt;Node104 -->
<g id="edge18" class="edge">
<title>Node108&#45;&gt;Node104</title>
<path fill="none" stroke="#191970" d="M881.6221,-95.5369C894.2916,-99.8783 909.4239,-105.1256 923,-110 940.7652,-116.3785 960.4474,-123.6928 976.7308,-129.8118"/>
<polygon fill="#191970" stroke="#191970" points="975.7909,-133.1978 986.3828,-133.4482 978.2589,-126.6473 975.7909,-133.1978"/>
</g>
<!-- Node109&#45;&gt;Node104 -->
<g id="edge20" class="edge">
<title>Node109&#45;&gt;Node104</title>
<path fill="none" stroke="#191970" d="M701.9473,-76.4652C749.1554,-61.9562 846.9754,-38.8365 923,-67 954.4557,-78.6529 982.2548,-107.0414 997.9612,-125.6316"/>
<polygon fill="#191970" stroke="#191970" points="995.2599,-127.8572 1004.2964,-133.3882 1000.6814,-123.4291 995.2599,-127.8572"/>
</g>
<!-- Node109&#45;&gt;Node108 -->
<g id="edge21" class="edge">
<title>Node109&#45;&gt;Node108</title>
<path fill="none" stroke="#191970" d="M748.0459,-86C756.5835,-86 765.3168,-86 773.9237,-86"/>
<polygon fill="#191970" stroke="#191970" points="773.9501,-89.5001 783.9501,-86 773.9501,-82.5001 773.9501,-89.5001"/>
</g>
<!-- Node110&#45;&gt;Node104 -->
<g id="edge23" class="edge">
<title>Node110&#45;&gt;Node104</title>
<path fill="none" stroke="#191970" d="M893.5655,-19.6172C903.7127,-23.1539 914.2152,-27.8515 923,-34 957.9283,-58.4466 986.4397,-100.3677 1000.9986,-124.4745"/>
<polygon fill="#191970" stroke="#191970" points="998.1188,-126.4825 1006.2019,-133.3319 1004.1544,-122.9368 998.1188,-126.4825"/>
</g>
</g>
</svg>
