<?xml version="1.0" encoding="UTF-8" standalone="no"?>
<!DOCTYPE svg PUBLIC "-//W3C//DTD SVG 1.1//EN"
 "http://www.w3.org/Graphics/SVG/1.1/DTD/svg11.dtd">
<!-- Generated by graphviz version 2.40.1 (20161225.0304)
 -->
<!-- Title: src/endian.c Pages: 1 -->
<svg width="194pt" height="140pt"
 viewBox="0.00 0.00 193.50 140.00" xmlns="http://www.w3.org/2000/svg" xmlns:xlink="http://www.w3.org/1999/xlink">
<g id="graph0" class="graph" transform="scale(1 1) rotate(0) translate(4 136)">
<title>src/endian.c</title>
<polygon fill="#ffffff" stroke="transparent" points="-4,4 -4,-136 189.5,-136 189.5,4 -4,4"/>
<!-- Node0 -->
<g id="node1" class="node">
<title>Node0</title>
<polygon fill="#bfbfbf" stroke="#000000" points="62,-112.5 62,-131.5 132,-131.5 132,-112.5 62,-112.5"/>
<text text-anchor="middle" x="97" y="-119.5" font-family="Helvetica,sans-Serif" font-size="10.00" fill="#000000">src/endian.c</text>
</g>
<!-- Node1 -->
<g id="node2" class="node">
<title>Node1</title>
<polygon fill="#ffffff" stroke="#bfbfbf" points="0,-.5 0,-19.5 46,-19.5 46,-.5 0,-.5"/>
<text text-anchor="middle" x="23" y="-7.5" font-family="Helvetica,sans-Serif" font-size="10.00" fill="#000000">stdio.h</text>
</g>
<!-- Node0&#45;&gt;Node1 -->
<g id="edge1" class="edge">
<title>Node0&#45;&gt;Node1</title>
<path fill="none" stroke="#191970" d="M76.6528,-112.496C62.3744,-104.7311 44.0948,-92.3682 34,-76 25.5203,-62.2506 23.0073,-43.9636 22.4808,-30.1259"/>
<polygon fill="#191970" stroke="#191970" points="25.9785,-29.7248 22.4184,-19.7461 18.9786,-29.767 25.9785,-29.7248"/>
</g>
<!-- Node2 -->
<g id="node3" class="node">
<title>Node2</title>
<polygon fill="#ffffff" stroke="#bfbfbf" points="68,-.5 68,-19.5 116,-19.5 116,-.5 68,-.5"/>
<text text-anchor="middle" x="92" y="-7.5" font-family="Helvetica,sans-Serif" font-size="10.00" fill="#000000">stdlib.h</text>
</g>
<!-- Node0&#45;&gt;Node2 -->
<g id="edge2" class="edge">
<title>Node0&#45;&gt;Node2</title>
<path fill="none" stroke="#191970" d="M99.7852,-112.1464C103.0704,-99.2345 107.757,-75.8933 105,-56 103.7643,-47.0835 101.2419,-37.4647 98.745,-29.3395"/>
<polygon fill="#191970" stroke="#191970" points="102.0274,-28.1164 95.5876,-19.7033 95.3753,-30.296 102.0274,-28.1164"/>
</g>
<!-- Node3 -->
<g id="node4" class="node">
<title>Node3</title>
<polygon fill="#ffffff" stroke="#bfbfbf" points="136.5,-.5 136.5,-19.5 185.5,-19.5 185.5,-.5 136.5,-.5"/>
<text text-anchor="middle" x="161" y="-7.5" font-family="Helvetica,sans-Serif" font-size="10.00" fill="#000000">stdint.h</text>
</g>
<!-- Node0&#45;&gt;Node3 -->
<g id="edge3" class="edge">
<title>Node0&#45;&gt;Node3</title>
<path fill="none" stroke="#191970" d="M102.4566,-112.4509C113.0838,-93.8533 136.7189,-52.4919 150.4878,-28.3964"/>
<polygon fill="#191970" stroke="#191970" points="153.6346,-29.9438 155.5572,-19.5249 147.5569,-26.4708 153.6346,-29.9438"/>
</g>
<!-- Node4 -->
<g id="node5" class="node">
<title>Node4</title>
<g id="a_node5"><a xlink:href="a00059.xhtml" target="_top" xlink:title="Module qui fait des conversions entre endianness. ">
<polygon fill="#ffffff" stroke="#000000" points="43.5,-56.5 43.5,-75.5 96.5,-75.5 96.5,-56.5 43.5,-56.5"/>
<text text-anchor="middle" x="70" y="-63.5" font-family="Helvetica,sans-Serif" font-size="10.00" fill="#000000">endian.h</text>
</a>
</g>
</g>
<!-- Node0&#45;&gt;Node4 -->
<g id="edge4" class="edge">
<title>Node0&#45;&gt;Node4</title>
<path fill="none" stroke="#191970" d="M92.297,-112.2455C88.6576,-104.6973 83.5076,-94.0158 79.0738,-84.8197"/>
<polygon fill="#191970" stroke="#191970" points="82.1449,-83.1303 74.6491,-75.6427 75.8395,-86.1704 82.1449,-83.1303"/>
</g>
<!-- Node4&#45;&gt;Node1 -->
<g id="edge5" class="edge">
<title>Node4&#45;&gt;Node1</title>
<path fill="none" stroke="#191970" d="M61.8132,-56.2455C55.1411,-48.2958 45.5521,-36.8706 37.5747,-27.3656"/>
<polygon fill="#191970" stroke="#191970" points="40.2026,-25.0524 31.093,-19.6427 34.8408,-29.5525 40.2026,-25.0524"/>
</g>
<!-- Node4&#45;&gt;Node2 -->
<g id="edge6" class="edge">
<title>Node4&#45;&gt;Node2</title>
<path fill="none" stroke="#191970" d="M73.8321,-56.2455C76.7659,-48.7776 80.9047,-38.2427 84.491,-29.1137"/>
<polygon fill="#191970" stroke="#191970" points="87.8129,-30.23 88.2118,-19.6427 81.2976,-27.6704 87.8129,-30.23"/>
</g>
<!-- Node4&#45;&gt;Node3 -->
<g id="edge7" class="edge">
<title>Node4&#45;&gt;Node3</title>
<path fill="none" stroke="#191970" d="M85.851,-56.2455C99.8132,-47.6534 120.3728,-35.0014 136.4596,-25.1018"/>
<polygon fill="#191970" stroke="#191970" points="138.6484,-27.8645 145.3307,-19.6427 134.9797,-21.9029 138.6484,-27.8645"/>
</g>
</g>
</svg>
