<?xml version="1.0" encoding="UTF-8" standalone="no"?>
<!DOCTYPE svg PUBLIC "-//W3C//DTD SVG 1.1//EN"
 "http://www.w3.org/Graphics/SVG/1.1/DTD/svg11.dtd">
<!-- Generated by graphviz version 2.40.1 (20161225.0304)
 -->
<!-- Title: extract_metadata_png Pages: 1 -->
<svg width="343pt" height="170pt"
 viewBox="0.00 0.00 343.00 170.00" xmlns="http://www.w3.org/2000/svg" xmlns:xlink="http://www.w3.org/1999/xlink">
<g id="graph0" class="graph" transform="scale(1 1) rotate(0) translate(4 166)">
<title>extract_metadata_png</title>
<polygon fill="#ffffff" stroke="transparent" points="-4,4 -4,-166 339,-166 339,4 -4,4"/>
<!-- Node0 -->
<g id="node1" class="node">
<title>Node0</title>
<polygon fill="#bfbfbf" stroke="#000000" points="0,-66.5 0,-85.5 113,-85.5 113,-66.5 0,-66.5"/>
<text text-anchor="middle" x="56.5" y="-73.5" font-family="Helvetica,sans-Serif" font-size="10.00" fill="#000000">extract_metadata_png</text>
</g>
<!-- Node1 -->
<g id="node2" class="node">
<title>Node1</title>
<g id="a_node2"><a xlink:href="a00056.xhtml#a7434fd197d31a9571f92f9dca4f212e9" target="_top" xlink:title="Convertit un nombre en big endian dans l&#39;endian de la machine. ">
<polygon fill="#ffffff" stroke="#000000" points="149,-142.5 149,-161.5 229,-161.5 229,-142.5 149,-142.5"/>
<text text-anchor="middle" x="189" y="-149.5" font-family="Helvetica,sans-Serif" font-size="10.00" fill="#000000">stegx_be32toh</text>
</a>
</g>
</g>
<!-- Node0&#45;&gt;Node1 -->
<g id="edge1" class="edge">
<title>Node0&#45;&gt;Node1</title>
<path fill="none" stroke="#191970" d="M73.2812,-85.6255C96.0801,-98.7025 137.0385,-122.1957 163.6098,-137.4366"/>
<polygon fill="#191970" stroke="#191970" points="161.9392,-140.5132 172.355,-142.4527 165.4221,-134.4411 161.9392,-140.5132"/>
</g>
<!-- Node2 -->
<g id="node3" class="node">
<title>Node2</title>
<g id="a_node3"><a xlink:href="a00122.xhtml#a4e9a217b960dc65fd08dff9f78e317e4" target="_top" xlink:title="Initialise la seed de la suite pseudo aléatoire. ">
<polygon fill="#ffffff" stroke="#000000" points="265,-94.5 265,-113.5 335,-113.5 335,-94.5 265,-94.5"/>
<text text-anchor="middle" x="300" y="-101.5" font-family="Helvetica,sans-Serif" font-size="10.00" fill="#000000">stegx_srand</text>
</a>
</g>
</g>
<!-- Node0&#45;&gt;Node2 -->
<g id="edge2" class="edge">
<title>Node0&#45;&gt;Node2</title>
<path fill="none" stroke="#191970" d="M113.2826,-82.5294C156.3323,-87.4797 214.7078,-94.1923 254.6594,-98.7863"/>
<polygon fill="#191970" stroke="#191970" points="254.3171,-102.2699 264.6515,-99.9353 255.1168,-95.3157 254.3171,-102.2699"/>
</g>
<!-- Node3 -->
<g id="node4" class="node">
<title>Node3</title>
<g id="a_node4"><a xlink:href="a00122.xhtml#a2a891bbe3514201de3cfc5acced104b7" target="_top" xlink:title="Cree un seed a partir d&#39;un mot de passe. ">
<polygon fill="#ffffff" stroke="#000000" points="265,-47.5 265,-66.5 335,-66.5 335,-47.5 265,-47.5"/>
<text text-anchor="middle" x="300" y="-54.5" font-family="Helvetica,sans-Serif" font-size="10.00" fill="#000000">create_seed</text>
</a>
</g>
</g>
<!-- Node0&#45;&gt;Node3 -->
<g id="edge3" class="edge">
<title>Node0&#45;&gt;Node3</title>
<path fill="none" stroke="#191970" d="M113.2826,-71.5693C156.3323,-68.2102 214.7078,-63.6552 254.6594,-60.5379"/>
<polygon fill="#191970" stroke="#191970" points="254.9541,-64.0256 264.6515,-59.7582 254.4095,-57.0468 254.9541,-64.0256"/>
</g>
<!-- Node4 -->
<g id="node5" class="node">
<title>Node4</title>
<g id="a_node5"><a xlink:href="a00122.xhtml#a9966534d45c62d0df7a3d5df48668715" target="_top" xlink:title="Renvoie un entier pseudo&#45;aléatoire. ">
<polygon fill="#ffffff" stroke="#000000" points="267.5,-.5 267.5,-19.5 332.5,-19.5 332.5,-.5 267.5,-.5"/>
<text text-anchor="middle" x="300" y="-7.5" font-family="Helvetica,sans-Serif" font-size="10.00" fill="#000000">stegx_rand</text>
</a>
</g>
</g>
<!-- Node0&#45;&gt;Node4 -->
<g id="edge4" class="edge">
<title>Node0&#45;&gt;Node4</title>
<path fill="none" stroke="#191970" d="M67.8324,-66.3916C84.4072,-52.9845 116.8023,-29.1683 149,-19 184.1703,-7.893 226.1969,-6.2639 256.9722,-7.0564"/>
<polygon fill="#191970" stroke="#191970" points="257.2407,-10.5681 267.3589,-7.4261 257.4898,-3.5725 257.2407,-10.5681"/>
</g>
<!-- Node5 -->
<g id="node6" class="node">
<title>Node5</title>
<g id="a_node6"><a xlink:href="a00116.xhtml#a3fd0a8f9ba189acd34f864c97f059b0f" target="_top" xlink:title="Fait le mélange ou réarrange les octets selon l&#39;algorithme de protection des données. ">
<polygon fill="#ffffff" stroke="#000000" points="153.5,-28.5 153.5,-47.5 224.5,-47.5 224.5,-28.5 153.5,-28.5"/>
<text text-anchor="middle" x="189" y="-35.5" font-family="Helvetica,sans-Serif" font-size="10.00" fill="#000000">protect_data</text>
</a>
</g>
</g>
<!-- Node0&#45;&gt;Node5 -->
<g id="edge5" class="edge">
<title>Node0&#45;&gt;Node5</title>
<path fill="none" stroke="#191970" d="M89.9353,-66.411C106.8829,-61.5506 127.6634,-55.5909 145.8075,-50.3873"/>
<polygon fill="#191970" stroke="#191970" points="146.9278,-53.7072 155.5754,-47.5859 144.9979,-46.9784 146.9278,-53.7072"/>
</g>
<!-- Node5&#45;&gt;Node2 -->
<g id="edge6" class="edge">
<title>Node5&#45;&gt;Node2</title>
<path fill="none" stroke="#191970" d="M205.3784,-47.7385C223.7646,-58.6708 253.8056,-76.5331 275.1016,-89.1955"/>
<polygon fill="#191970" stroke="#191970" points="273.5311,-92.3337 283.9153,-94.4361 277.1087,-86.3169 273.5311,-92.3337"/>
</g>
<!-- Node5&#45;&gt;Node3 -->
<g id="edge7" class="edge">
<title>Node5&#45;&gt;Node3</title>
<path fill="none" stroke="#191970" d="M224.7321,-44.1163C234.2336,-45.7427 244.6243,-47.5213 254.5688,-49.2235"/>
<polygon fill="#191970" stroke="#191970" points="254.2673,-52.7227 264.7145,-50.9601 255.4484,-45.8231 254.2673,-52.7227"/>
</g>
<!-- Node5&#45;&gt;Node4 -->
<g id="edge8" class="edge">
<title>Node5&#45;&gt;Node4</title>
<path fill="none" stroke="#191970" d="M224.7321,-28.9865C235.213,-26.3427 246.7758,-23.4259 257.6282,-20.6884"/>
<polygon fill="#191970" stroke="#191970" points="258.5033,-24.0774 267.3435,-18.2377 256.7911,-17.29 258.5033,-24.0774"/>
</g>
</g>
</svg>
