<?xml version="1.0" encoding="UTF-8" standalone="no"?>
<!DOCTYPE svg PUBLIC "-//W3C//DTD SVG 1.1//EN"
 "http://www.w3.org/Graphics/SVG/1.1/DTD/svg11.dtd">
<!-- Generated by graphviz version 2.40.1 (20161225.0304)
 -->
<!-- Title: src/file_type/png.h Pages: 1 -->
<!--zoomable 196 -->
<svg id="main" version="1.1" xmlns="http://www.w3.org/2000/svg" xmlns:xlink="http://www.w3.org/1999/xlink" xml:space="preserve" onload="init(evt)">
<style type="text/css"><![CDATA[
.edge:hover path { stroke: red; }
.edge:hover polygon { stroke: red; fill: red; }
]]></style>
<script type="text/javascript"><![CDATA[
var edges = document.getElementsByTagName('g');
if (edges && edges.length) {
  for (var i=0;i<edges.length;i++) {
    if (edges[i].id.substr(0,4)=='edge') {
      edges[i].setAttribute('class','edge');
    }
  }
}
]]></script>
        <defs>
                <circle id="rim" cx="0" cy="0" r="7"/>
                <circle id="rim2" cx="0" cy="0" r="3.5"/>
                <g id="zoomPlus">
                        <use xlink:href="#rim" fill="#404040">
                                <set attributeName="fill" to="#808080" begin="zoomplus.mouseover" end="zoomplus.mouseout"/>
                        </use>
                        <path d="M-4,0h8M0,-4v8" fill="none" stroke="white" stroke-width="1.5" pointer-events="none"/>
                </g>
                <g id="zoomMin">
                        <use xlink:href="#rim" fill="#404040">
                                <set attributeName="fill" to="#808080" begin="zoomminus.mouseover" end="zoomminus.mouseout"/>
                        </use>
                        <path d="M-4,0h8" fill="none" stroke="white" stroke-width="1.5" pointer-events="none"/>
                </g>
                <g id="dirArrow">
                        <path fill="none" stroke="white" stroke-width="1.5" d="M0,-3.0v7 M-2.5,-0.5L0,-3.0L2.5,-0.5"/>
                </g>
               <g id="resetDef">
                       <use xlink:href="#rim2" fill="#404040">
                               <set attributeName="fill" to="#808080" begin="reset.mouseover" end="reset.mouseout"/>
                       </use>
               </g>
        </defs>

<script type="text/javascript">
var viewWidth = 675;
var viewHeight = 196;
var sectionId = 'dynsection-0';
</script>
<script xlink:href="svgpan.js"/>
<svg id="graph" class="graph">
<g id="viewport">
<title>src/file_type/png.h</title>
<polygon fill="#ffffff" stroke="transparent" points="-4,4 -4,-192 670.5315,-192 670.5315,4 -4,4"/>
<!-- Node0 -->
<g id="node1" class="node">
<title>Node0</title>
<polygon fill="#bfbfbf" stroke="#000000" points="343.7439,-168.5 343.7439,-187.5 440.7439,-187.5 440.7439,-168.5 343.7439,-168.5"/>
<text text-anchor="middle" x="392.2439" y="-175.5" font-family="Helvetica,sans-Serif" font-size="10.00" fill="#000000">src/file_type/png.h</text>
</g>
<!-- Node1 -->
<g id="node2" class="node">
<title>Node1</title>
<polygon fill="#ffffff" stroke="#bfbfbf" points="272.2439,-.5 272.2439,-19.5 318.2439,-19.5 318.2439,-.5 272.2439,-.5"/>
<text text-anchor="middle" x="295.2439" y="-7.5" font-family="Helvetica,sans-Serif" font-size="10.00" fill="#000000">stdio.h</text>
</g>
<!-- Node0&#45;&gt;Node1 -->
<g id="edge1" class="edge">
<title>Node0&#45;&gt;Node1</title>
<path fill="none" stroke="#191970" d="M343.7163,-172.546C249.1293,-160.8104 45.7113,-129.7776 4.2439,-76 -1.184,-68.9608 -1.53,-62.7583 4.2439,-56 20.8689,-36.5406 189.387,-19.3902 262.1168,-12.8338"/>
<polygon fill="#191970" stroke="#191970" points="262.4722,-16.3161 272.123,-11.9443 261.8523,-9.3436 262.4722,-16.3161"/>
</g>
<!-- Node2 -->
<g id="node3" class="node">
<title>Node2</title>
<polygon fill="#ffffff" stroke="#bfbfbf" points="518.7439,-.5 518.7439,-19.5 567.7439,-19.5 567.7439,-.5 518.7439,-.5"/>
<text text-anchor="middle" x="543.2439" y="-7.5" font-family="Helvetica,sans-Serif" font-size="10.00" fill="#000000">stdint.h</text>
</g>
<!-- Node0&#45;&gt;Node2 -->
<g id="edge2" class="edge">
<title>Node0&#45;&gt;Node2</title>
<path fill="none" stroke="#191970" d="M433.1815,-168.4786C501.6485,-151.6337 634.5371,-114.6891 661.2439,-76 684.6499,-42.0927 620.4848,-23.6548 577.8319,-15.4135"/>
<polygon fill="#191970" stroke="#191970" points="578.247,-11.9315 567.7812,-13.5799 576.9907,-18.8178 578.247,-11.9315"/>
</g>
<!-- Node3 -->
<g id="node4" class="node">
<title>Node3</title>
<g id="a_node4"><a xlink:href="a00047.xhtml" target="_top" xlink:title="Définitions communes à la partie privée de la bibliothèque. ">
<polygon fill="#ffffff" stroke="#000000" points="361.2439,-112.5 361.2439,-131.5 423.2439,-131.5 423.2439,-112.5 361.2439,-112.5"/>
<text text-anchor="middle" x="392.2439" y="-119.5" font-family="Helvetica,sans-Serif" font-size="10.00" fill="#000000">common.h</text>
</a>
</g>
</g>
<!-- Node0&#45;&gt;Node3 -->
<g id="edge3" class="edge">
<title>Node0&#45;&gt;Node3</title>
<path fill="none" stroke="#191970" d="M386.9771,-168.2455C385.566,-160.9382 385.1618,-150.6944 385.7644,-141.7046"/>
<polygon fill="#191970" stroke="#191970" points="389.255,-141.9945 386.9988,-131.6427 382.3071,-141.1421 389.255,-141.9945"/>
</g>
<!-- Node3&#45;&gt;Node0 -->
<g id="edge11" class="edge">
<title>Node3&#45;&gt;Node0</title>
<path fill="none" stroke="#191970" d="M397.4891,-131.6427C398.9104,-138.9199 399.3249,-149.155 398.7326,-158.1575"/>
<polygon fill="#191970" stroke="#191970" points="395.2386,-157.8972 397.5108,-168.2455 402.1878,-158.739 395.2386,-157.8972"/>
</g>
<!-- Node3&#45;&gt;Node1 -->
<g id="edge4" class="edge">
<title>Node3&#45;&gt;Node1</title>
<path fill="none" stroke="#191970" d="M361.0855,-116.3783C323.1646,-108.8288 262.5303,-94.2308 249.2439,-76 236.8727,-59.0249 254.912,-39.2169 271.9011,-25.7627"/>
<polygon fill="#191970" stroke="#191970" points="274.0952,-28.4926 280.019,-19.7085 269.9103,-22.8812 274.0952,-28.4926"/>
</g>
<!-- Node3&#45;&gt;Node2 -->
<g id="edge5" class="edge">
<title>Node3&#45;&gt;Node2</title>
<path fill="none" stroke="#191970" d="M423.271,-121.1206C484.4794,-118.6629 617.2822,-109.5041 645.2439,-76 668.2572,-48.4251 615.5252,-28.3325 577.6325,-17.9687"/>
<polygon fill="#191970" stroke="#191970" points="578.4541,-14.5659 567.8942,-15.4249 576.685,-21.3387 578.4541,-14.5659"/>
</g>
<!-- Node4 -->
<g id="node5" class="node">
<title>Node4</title>
<g id="a_node5"><a xlink:href="a00008.xhtml" target="_top" xlink:title="Définitions communes à la partie privée et public de la bibliothèque. ">
<polygon fill="#ffffff" stroke="#000000" points="109.2439,-56.5 109.2439,-75.5 201.2439,-75.5 201.2439,-56.5 109.2439,-56.5"/>
<text text-anchor="middle" x="155.2439" y="-63.5" font-family="Helvetica,sans-Serif" font-size="10.00" fill="#000000">stegx_common.h</text>
</a>
</g>
</g>
<!-- Node3&#45;&gt;Node4 -->
<g id="edge6" class="edge">
<title>Node3&#45;&gt;Node4</title>
<path fill="none" stroke="#191970" d="M360.7721,-114.5636C321.1221,-105.1948 252.5008,-88.9805 205.5425,-77.8849"/>
<polygon fill="#191970" stroke="#191970" points="206.1126,-74.4233 195.5757,-75.5299 204.5028,-81.2357 206.1126,-74.4233"/>
</g>
<!-- Node5 -->
<g id="node6" class="node">
<title>Node5</title>
<g id="a_node6"><a xlink:href="a00077.xhtml" target="_top" xlink:title="Fichier BMP. ">
<polygon fill="#ffffff" stroke="#000000" points="552.7439,-56.5 552.7439,-75.5 635.7439,-75.5 635.7439,-56.5 552.7439,-56.5"/>
<text text-anchor="middle" x="594.2439" y="-63.5" font-family="Helvetica,sans-Serif" font-size="10.00" fill="#000000">file_type/bmp.h</text>
</a>
</g>
</g>
<!-- Node3&#45;&gt;Node5 -->
<g id="edge7" class="edge">
<title>Node3&#45;&gt;Node5</title>
<path fill="none" stroke="#191970" d="M421.7269,-112.3733C454.0449,-102.9001 506.192,-88.4032 544.7634,-78.1435"/>
<polygon fill="#191970" stroke="#191970" points="545.982,-81.4416 554.7547,-75.5011 544.1922,-74.6743 545.982,-81.4416"/>
</g>
<!-- Node6 -->
<g id="node7" class="node">
<title>Node6</title>
<g id="a_node7"><a xlink:href="a00104.xhtml" target="_top" xlink:title="Fichier WAVE. ">
<polygon fill="#ffffff" stroke="#000000" points="451.7439,-56.5 451.7439,-75.5 534.7439,-75.5 534.7439,-56.5 451.7439,-56.5"/>
<text text-anchor="middle" x="493.2439" y="-63.5" font-family="Helvetica,sans-Serif" font-size="10.00" fill="#000000">file_type/wav.h</text>
</a>
</g>
</g>
<!-- Node3&#45;&gt;Node6 -->
<g id="edge12" class="edge">
<title>Node3&#45;&gt;Node6</title>
<path fill="none" stroke="#191970" d="M404.5699,-112.2455C418.7953,-103.4125 442.2305,-90.2887 461.5261,-80.2758"/>
<polygon fill="#191970" stroke="#191970" points="463.2904,-83.3049 470.6075,-75.6427 460.1092,-77.0695 463.2904,-83.3049"/>
</g>
<!-- Node7 -->
<g id="node8" class="node">
<title>Node7</title>
<g id="a_node8"><a xlink:href="a00089.xhtml" target="_top" xlink:title="Fichier MP3. ">
<polygon fill="#ffffff" stroke="#000000" points="350.7439,-56.5 350.7439,-75.5 433.7439,-75.5 433.7439,-56.5 350.7439,-56.5"/>
<text text-anchor="middle" x="392.2439" y="-63.5" font-family="Helvetica,sans-Serif" font-size="10.00" fill="#000000">file_type/mp3.h</text>
</a>
</g>
</g>
<!-- Node3&#45;&gt;Node7 -->
<g id="edge16" class="edge">
<title>Node3&#45;&gt;Node7</title>
<path fill="none" stroke="#191970" d="M386.9771,-112.2455C385.566,-104.9382 385.1618,-94.6944 385.7644,-85.7046"/>
<polygon fill="#191970" stroke="#191970" points="389.255,-85.9945 386.9988,-75.6427 382.3071,-85.1421 389.255,-85.9945"/>
</g>
<!-- Node8 -->
<g id="node9" class="node">
<title>Node8</title>
<g id="a_node9"><a xlink:href="a00071.xhtml" target="_top" xlink:title="Fichier AVI. ">
<polygon fill="#ffffff" stroke="#000000" points="13.7439,-56.5 13.7439,-75.5 90.7439,-75.5 90.7439,-56.5 13.7439,-56.5"/>
<text text-anchor="middle" x="52.2439" y="-63.5" font-family="Helvetica,sans-Serif" font-size="10.00" fill="#000000">file_type/avi.h</text>
</a>
</g>
</g>
<!-- Node3&#45;&gt;Node8 -->
<g id="edge20" class="edge">
<title>Node3&#45;&gt;Node8</title>
<path fill="none" stroke="#191970" d="M360.8825,-118.3067C307.5978,-111.2435 196.6192,-94.9861 98.7455,-77.3527"/>
<polygon fill="#191970" stroke="#191970" points="99.1751,-73.8735 88.7108,-75.5313 97.925,-80.761 99.1751,-73.8735"/>
</g>
<!-- Node9 -->
<g id="node10" class="node">
<title>Node9</title>
<g id="a_node10"><a xlink:href="a00083.xhtml" target="_top" xlink:title="Fichier FLV. ">
<polygon fill="#ffffff" stroke="#000000" points="257.7439,-56.5 257.7439,-75.5 332.7439,-75.5 332.7439,-56.5 257.7439,-56.5"/>
<text text-anchor="middle" x="295.2439" y="-63.5" font-family="Helvetica,sans-Serif" font-size="10.00" fill="#000000">file_type/flv.h</text>
</a>
</g>
</g>
<!-- Node3&#45;&gt;Node9 -->
<g id="edge23" class="edge">
<title>Node3&#45;&gt;Node9</title>
<path fill="none" stroke="#191970" d="M370.081,-112.2455C353.539,-103.6534 331.3567,-91.0014 315.3341,-81.1018"/>
<polygon fill="#191970" stroke="#191970" points="317.0238,-78.0292 306.7013,-75.6427 313.2825,-83.9456 317.0238,-78.0292"/>
</g>
<!-- Node5&#45;&gt;Node1 -->
<g id="edge8" class="edge">
<title>Node5&#45;&gt;Node1</title>
<path fill="none" stroke="#191970" d="M552.511,-57.6057C549.7142,-57.0579 546.9388,-56.5184 544.2439,-56 466.9862,-41.1388 376.0573,-24.5751 328.3288,-15.9522"/>
<polygon fill="#191970" stroke="#191970" points="328.7282,-12.4678 318.2656,-14.1361 327.485,-19.3565 328.7282,-12.4678"/>
</g>
<!-- Node5&#45;&gt;Node2 -->
<g id="edge9" class="edge">
<title>Node5&#45;&gt;Node2</title>
<path fill="none" stroke="#191970" d="M585.3604,-56.2455C578.0473,-48.2155 567.5048,-36.6394 558.7972,-27.0781"/>
<polygon fill="#191970" stroke="#191970" points="561.3467,-24.6795 552.0256,-19.6427 556.1713,-29.3928 561.3467,-24.6795"/>
</g>
<!-- Node5&#45;&gt;Node3 -->
<g id="edge10" class="edge">
<title>Node5&#45;&gt;Node3</title>
<path fill="none" stroke="#191970" d="M564.9441,-75.573C530.1814,-85.7661 472.2957,-101.819 433.1518,-112.1257"/>
<polygon fill="#191970" stroke="#191970" points="432.173,-108.7639 423.3831,-114.679 433.9432,-115.5363 432.173,-108.7639"/>
</g>
<!-- Node6&#45;&gt;Node1 -->
<g id="edge13" class="edge">
<title>Node6&#45;&gt;Node1</title>
<path fill="none" stroke="#191970" d="M459.2065,-56.3733C422.5755,-46.013 364.6999,-29.6441 328.41,-19.3803"/>
<polygon fill="#191970" stroke="#191970" points="328.9105,-15.8846 318.3354,-16.5309 327.0054,-22.6204 328.9105,-15.8846"/>
</g>
<!-- Node6&#45;&gt;Node2 -->
<g id="edge14" class="edge">
<title>Node6&#45;&gt;Node2</title>
<path fill="none" stroke="#191970" d="M501.9532,-56.2455C509.0512,-48.2958 519.2523,-36.8706 527.7389,-27.3656"/>
<polygon fill="#191970" stroke="#191970" points="530.585,-29.4331 534.6344,-19.6427 525.3634,-24.771 530.585,-29.4331"/>
</g>
<!-- Node6&#45;&gt;Node3 -->
<g id="edge15" class="edge">
<title>Node6&#45;&gt;Node3</title>
<path fill="none" stroke="#191970" d="M481.3252,-75.5011C467.1548,-84.3278 443.4817,-97.5932 424.0098,-107.6992"/>
<polygon fill="#191970" stroke="#191970" points="422.1655,-104.7109 414.8485,-112.3733 425.3468,-110.9463 422.1655,-104.7109"/>
</g>
<!-- Node7&#45;&gt;Node1 -->
<g id="edge17" class="edge">
<title>Node7&#45;&gt;Node1</title>
<path fill="none" stroke="#191970" d="M375.3478,-56.2455C360.3259,-47.5731 338.1396,-34.7645 320.9229,-24.825"/>
<polygon fill="#191970" stroke="#191970" points="322.3567,-21.6114 311.9464,-19.6427 318.8568,-27.6737 322.3567,-21.6114"/>
</g>
<!-- Node7&#45;&gt;Node2 -->
<g id="edge18" class="edge">
<title>Node7&#45;&gt;Node2</title>
<path fill="none" stroke="#191970" d="M418.2017,-56.3733C443.2851,-47.0708 481.4303,-32.9242 508.9927,-22.7024"/>
<polygon fill="#191970" stroke="#191970" points="510.4658,-25.8892 518.6247,-19.1303 508.0317,-19.326 510.4658,-25.8892"/>
</g>
<!-- Node7&#45;&gt;Node3 -->
<g id="edge19" class="edge">
<title>Node7&#45;&gt;Node3</title>
<path fill="none" stroke="#191970" d="M397.4891,-75.6427C398.9104,-82.9199 399.3249,-93.155 398.7326,-102.1575"/>
<polygon fill="#191970" stroke="#191970" points="395.2386,-101.8972 397.5108,-112.2455 402.1878,-102.739 395.2386,-101.8972"/>
</g>
<!-- Node8&#45;&gt;Node1 -->
<g id="edge21" class="edge">
<title>Node8&#45;&gt;Node1</title>
<path fill="none" stroke="#191970" d="M90.748,-57.1266C138.0514,-46.2254 217.5051,-27.9151 262.1732,-17.6212"/>
<polygon fill="#191970" stroke="#191970" points="262.9881,-21.0253 271.9466,-15.3689 261.416,-14.2041 262.9881,-21.0253"/>
</g>
<!-- Node8&#45;&gt;Node3 -->
<g id="edge22" class="edge">
<title>Node8&#45;&gt;Node3</title>
<path fill="none" stroke="#191970" d="M90.9733,-72.4688C97.1377,-73.6952 103.3825,-74.9284 109.2439,-76 195.0856,-91.6935 295.7193,-106.8339 350.9845,-115.2321"/>
<polygon fill="#191970" stroke="#191970" points="350.6756,-118.7253 361.0885,-116.7702 351.7291,-111.805 350.6756,-118.7253"/>
</g>
<!-- Node9&#45;&gt;Node1 -->
<g id="edge24" class="edge">
<title>Node9&#45;&gt;Node1</title>
<path fill="none" stroke="#191970" d="M295.2439,-56.2455C295.2439,-48.9382 295.2439,-38.6944 295.2439,-29.7046"/>
<polygon fill="#191970" stroke="#191970" points="298.744,-29.6426 295.2439,-19.6427 291.744,-29.6427 298.744,-29.6426"/>
</g>
<!-- Node9&#45;&gt;Node2 -->
<g id="edge25" class="edge">
<title>Node9&#45;&gt;Node2</title>
<path fill="none" stroke="#191970" d="M332.9098,-57.4948C380.6543,-46.7138 462.2989,-28.2779 508.5727,-17.829"/>
<polygon fill="#191970" stroke="#191970" points="509.4513,-21.2188 518.4348,-15.6021 507.9095,-14.3907 509.4513,-21.2188"/>
</g>
<!-- Node9&#45;&gt;Node3 -->
<g id="edge26" class="edge">
<title>Node9&#45;&gt;Node3</title>
<path fill="none" stroke="#191970" d="M317.1915,-75.6427C333.6842,-84.1994 355.8686,-96.8456 371.9445,-106.769"/>
<polygon fill="#191970" stroke="#191970" points="370.2909,-109.8642 380.6146,-112.2455 374.0292,-103.946 370.2909,-109.8642"/>
</g>
</g>
</svg>
        <g id="navigator" transform="translate(0 0)" fill="#404254">
                <rect fill="#f2f5e9" fill-opacity="0.5" stroke="#606060" stroke-width=".5" x="0" y="0" width="60" height="60"/>
                <use id="zoomplus" xlink:href="#zoomPlus" x="17" y="9" onmousedown="handleZoom(evt,'in')"/>
                <use id="zoomminus" xlink:href="#zoomMin" x="42" y="9" onmousedown="handleZoom(evt,'out')"/>
                <use id="reset" xlink:href="#resetDef" x="30" y="36" onmousedown="handleReset()"/>
                <g id="arrowUp" xlink:href="#dirArrow" transform="translate(30 24)" onmousedown="handlePan(0,-1)">
                  <use xlink:href="#rim" fill="#404040">
                        <set attributeName="fill" to="#808080" begin="arrowUp.mouseover" end="arrowUp.mouseout"/>
                  </use>
                  <path fill="none" stroke="white" stroke-width="1.5" d="M0,-3.0v7 M-2.5,-0.5L0,-3.0L2.5,-0.5"/>
                </g>
                <g id="arrowRight" xlink:href="#dirArrow" transform="rotate(90) translate(36 -43)" onmousedown="handlePan(1,0)">
                  <use xlink:href="#rim" fill="#404040">
                        <set attributeName="fill" to="#808080" begin="arrowRight.mouseover" end="arrowRight.mouseout"/>
                  </use>
                  <path fill="none" stroke="white" stroke-width="1.5" d="M0,-3.0v7 M-2.5,-0.5L0,-3.0L2.5,-0.5"/>
                </g>
                <g id="arrowDown" xlink:href="#dirArrow" transform="rotate(180) translate(-30 -48)" onmousedown="handlePan(0,1)">
                  <use xlink:href="#rim" fill="#404040">
                        <set attributeName="fill" to="#808080" begin="arrowDown.mouseover" end="arrowDown.mouseout"/>
                  </use>
                  <path fill="none" stroke="white" stroke-width="1.5" d="M0,-3.0v7 M-2.5,-0.5L0,-3.0L2.5,-0.5"/>
                </g>
                <g id="arrowLeft" xlink:href="#dirArrow" transform="rotate(270) translate(-36 17)" onmousedown="handlePan(-1,0)">
                  <use xlink:href="#rim" fill="#404040">
                        <set attributeName="fill" to="#808080" begin="arrowLeft.mouseover" end="arrowLeft.mouseout"/>
                  </use>
                  <path fill="none" stroke="white" stroke-width="1.5" d="M0,-3.0v7 M-2.5,-0.5L0,-3.0L2.5,-0.5"/>
                </g>
        </g>
        <svg viewBox="0 0 15 15" width="100%" height="30px" preserveAspectRatio="xMaxYMin meet">
         <g id="arrow_out" transform="scale(0.3 0.3)">
          <a xlink:href="a00096_org.svg" target="_base">
           <rect id="button" ry="5" rx="5" y="6" x="6" height="38" width="38"
                fill="#f2f5e9" fill-opacity="0.5" stroke="#606060" stroke-width="1.0"/>
           <path id="arrow"
             d="M 11.500037,31.436501 C 11.940474,20.09759 22.043105,11.32322 32.158766,21.979434 L 37.068811,17.246167 C 37.068811,17.246167 37.088388,32 37.088388,32 L 22.160133,31.978069 C 22.160133,31.978069 26.997745,27.140456 26.997745,27.140456 C 18.528582,18.264221 13.291696,25.230495 11.500037,31.436501 z"
             style="fill:#404040;"/>
          </a>
         </g>
        </svg>
</svg>
