<?xml version="1.0" encoding="UTF-8" standalone="no"?>
<!DOCTYPE svg PUBLIC "-//W3C//DTD SVG 1.1//EN"
 "http://www.w3.org/Graphics/SVG/1.1/DTD/svg11.dtd">
<!-- Generated by graphviz version 2.40.1 (20161225.0304)
 -->
<!-- Title: stegx_htobe32 Pages: 1 -->
<svg width="459pt" height="104pt"
 viewBox="0.00 0.00 459.00 104.00" xmlns="http://www.w3.org/2000/svg" xmlns:xlink="http://www.w3.org/1999/xlink">
<g id="graph0" class="graph" transform="scale(1 1) rotate(0) translate(4 100)">
<title>stegx_htobe32</title>
<polygon fill="#ffffff" stroke="transparent" points="-4,4 -4,-100 455,-100 455,4 -4,4"/>
<!-- Node23 -->
<g id="node1" class="node">
<title>Node23</title>
<polygon fill="#bfbfbf" stroke="#000000" points="0,-38.5 0,-57.5 80,-57.5 80,-38.5 0,-38.5"/>
<text text-anchor="middle" x="40" y="-45.5" font-family="Helvetica,sans-Serif" font-size="10.00" fill="#000000">stegx_htobe32</text>
</g>
<!-- Node24 -->
<g id="node2" class="node">
<title>Node24</title>
<g id="a_node2"><a xlink:href="a00017.xhtml#a049b8f5bf7a416fe54b10c6de98487a1" target="_top" xlink:title="Va inserer les donnees cachees en utilisant l&#39;algorithme EOC. ">
<polygon fill="#ffffff" stroke="#000000" points="271,-76.5 271,-95.5 333,-95.5 333,-76.5 271,-76.5"/>
<text text-anchor="middle" x="302" y="-83.5" font-family="Helvetica,sans-Serif" font-size="10.00" fill="#000000">insert_eoc</text>
</a>
</g>
</g>
<!-- Node23&#45;&gt;Node24 -->
<g id="edge1" class="edge">
<title>Node23&#45;&gt;Node24</title>
<path fill="none" stroke="#191970" d="M83.6517,-60.0488C94.1814,-62.6394 105.4418,-65.1508 116,-67 170.0344,-76.4639 233.7865,-81.7128 270.8773,-84.1874"/>
<polygon fill="#191970" stroke="#191970" points="84.3804,-56.6228 73.827,-57.5597 82.6612,-63.4085 84.3804,-56.6228"/>
</g>
<!-- Node26 -->
<g id="node4" class="node">
<title>Node26</title>
<g id="a_node4"><a xlink:href="a00035.xhtml#a14e9d876697b0225ded31095c1076b64" target="_top" xlink:title="Va inserer les donnees cachees en utilisant l&#39;algorithme LSB. ">
<polygon fill="#ffffff" stroke="#000000" points="140,-38.5 140,-57.5 199,-57.5 199,-38.5 140,-38.5"/>
<text text-anchor="middle" x="169.5" y="-45.5" font-family="Helvetica,sans-Serif" font-size="10.00" fill="#000000">insert_lsb</text>
</a>
</g>
</g>
<!-- Node23&#45;&gt;Node26 -->
<g id="edge3" class="edge">
<title>Node23&#45;&gt;Node26</title>
<path fill="none" stroke="#191970" d="M90.4776,-48C107.2271,-48 125.3175,-48 139.9575,-48"/>
<polygon fill="#191970" stroke="#191970" points="90.2648,-44.5001 80.2647,-48 90.2647,-51.5001 90.2648,-44.5001"/>
</g>
<!-- Node27 -->
<g id="node5" class="node">
<title>Node27</title>
<g id="a_node5"><a xlink:href="a00095.xhtml#a2386f518ec5df78485cca31c6fe4f858" target="_top" xlink:title="Va inserer les donnees cachees en utilisant l&#39;algorithme Metadata dans le format PNG. ">
<polygon fill="#ffffff" stroke="#000000" points="116,-.5 116,-19.5 223,-19.5 223,-.5 116,-.5"/>
<text text-anchor="middle" x="169.5" y="-7.5" font-family="Helvetica,sans-Serif" font-size="10.00" fill="#000000">insert_metadata_png</text>
</a>
</g>
</g>
<!-- Node23&#45;&gt;Node27 -->
<g id="edge5" class="edge">
<title>Node23&#45;&gt;Node27</title>
<path fill="none" stroke="#191970" d="M82.719,-35.4647C100.336,-30.2952 120.4232,-24.4009 136.8321,-19.5859"/>
<polygon fill="#191970" stroke="#191970" points="81.2882,-32.2369 72.6783,-38.411 83.2592,-38.9537 81.2882,-32.2369"/>
</g>
<!-- Node25 -->
<g id="node3" class="node">
<title>Node25</title>
<g id="a_node3"><a xlink:href="a00110.xhtml#a45a1d0709604d55e9d467cb39d6a5b54" target="_top" xlink:title="Va faire l&#39;insertion selon l&#39;algorithme, ainsi que les fichiers en entrée choisis par l&#39;utilisateur...">
<polygon fill="#ffffff" stroke="#000000" points="381,-38.5 381,-57.5 451,-57.5 451,-38.5 381,-38.5"/>
<text text-anchor="middle" x="416" y="-45.5" font-family="Helvetica,sans-Serif" font-size="10.00" fill="#000000">stegx_insert</text>
</a>
</g>
</g>
<!-- Node24&#45;&gt;Node25 -->
<g id="edge2" class="edge">
<title>Node24&#45;&gt;Node25</title>
<path fill="none" stroke="#191970" d="M340.4778,-73.1741C355.7742,-68.0753 373.0673,-62.3109 387.2422,-57.5859"/>
<polygon fill="#191970" stroke="#191970" points="339.147,-69.9283 330.767,-76.411 341.3607,-76.569 339.147,-69.9283"/>
</g>
<!-- Node26&#45;&gt;Node25 -->
<g id="edge4" class="edge">
<title>Node26&#45;&gt;Node25</title>
<path fill="none" stroke="#191970" d="M209.4661,-48C257.0402,-48 335.7234,-48 380.9984,-48"/>
<polygon fill="#191970" stroke="#191970" points="209.2337,-44.5001 199.2337,-48 209.2336,-51.5001 209.2337,-44.5001"/>
</g>
<!-- Node28 -->
<g id="node6" class="node">
<title>Node28</title>
<g id="a_node6"><a xlink:href="a00041.xhtml#a77aaebb61a9a73cbe45380c64c3d8389" target="_top" xlink:title="Va inserer les donnees cachees en utilisant l&#39;algorithme Metadata. ">
<polygon fill="#ffffff" stroke="#000000" points="259,-.5 259,-19.5 345,-19.5 345,-.5 259,-.5"/>
<text text-anchor="middle" x="302" y="-7.5" font-family="Helvetica,sans-Serif" font-size="10.00" fill="#000000">insert_metadata</text>
</a>
</g>
</g>
<!-- Node27&#45;&gt;Node28 -->
<g id="edge6" class="edge">
<title>Node27&#45;&gt;Node28</title>
<path fill="none" stroke="#191970" d="M233.1703,-10C241.8787,-10 250.6466,-10 258.8709,-10"/>
<polygon fill="#191970" stroke="#191970" points="233.0109,-6.5001 223.0109,-10 233.0109,-13.5001 233.0109,-6.5001"/>
</g>
<!-- Node28&#45;&gt;Node25 -->
<g id="edge7" class="edge">
<title>Node28&#45;&gt;Node25</title>
<path fill="none" stroke="#191970" d="M340.4778,-22.8259C355.7742,-27.9247 373.0673,-33.6891 387.2422,-38.4141"/>
<polygon fill="#191970" stroke="#191970" points="341.3607,-19.431 330.767,-19.589 339.147,-26.0717 341.3607,-19.431"/>
</g>
</g>
</svg>
