<?xml version="1.0" encoding="UTF-8" standalone="no"?>
<!DOCTYPE svg PUBLIC "-//W3C//DTD SVG 1.1//EN"
 "http://www.w3.org/Graphics/SVG/1.1/DTD/svg11.dtd">
<!-- Generated by graphviz version 2.40.1 (20161225.0304)
 -->
<!-- Title: insert_lsb Pages: 1 -->
<!--zoomable 424 -->
<svg id="main" version="1.1" xmlns="http://www.w3.org/2000/svg" xmlns:xlink="http://www.w3.org/1999/xlink" xml:space="preserve" onload="init(evt)">
<style type="text/css"><![CDATA[
.edge:hover path { stroke: red; }
.edge:hover polygon { stroke: red; fill: red; }
]]></style>
<script type="text/javascript"><![CDATA[
var edges = document.getElementsByTagName('g');
if (edges && edges.length) {
  for (var i=0;i<edges.length;i++) {
    if (edges[i].id.substr(0,4)=='edge') {
      edges[i].setAttribute('class','edge');
    }
  }
}
]]></script>
        <defs>
                <circle id="rim" cx="0" cy="0" r="7"/>
                <circle id="rim2" cx="0" cy="0" r="3.5"/>
                <g id="zoomPlus">
                        <use xlink:href="#rim" fill="#404040">
                                <set attributeName="fill" to="#808080" begin="zoomplus.mouseover" end="zoomplus.mouseout"/>
                        </use>
                        <path d="M-4,0h8M0,-4v8" fill="none" stroke="white" stroke-width="1.5" pointer-events="none"/>
                </g>
                <g id="zoomMin">
                        <use xlink:href="#rim" fill="#404040">
                                <set attributeName="fill" to="#808080" begin="zoomminus.mouseover" end="zoomminus.mouseout"/>
                        </use>
                        <path d="M-4,0h8" fill="none" stroke="white" stroke-width="1.5" pointer-events="none"/>
                </g>
                <g id="dirArrow">
                        <path fill="none" stroke="white" stroke-width="1.5" d="M0,-3.0v7 M-2.5,-0.5L0,-3.0L2.5,-0.5"/>
                </g>
               <g id="resetDef">
                       <use xlink:href="#rim2" fill="#404040">
                               <set attributeName="fill" to="#808080" begin="reset.mouseover" end="reset.mouseout"/>
                       </use>
               </g>
        </defs>

<script type="text/javascript">
var viewWidth = 873;
var viewHeight = 424;
var sectionId = 'dynsection-4';
</script>
<script xlink:href="svgpan.js"/>
<svg id="graph" class="graph">
<g id="viewport">
<title>insert_lsb</title>
<polygon fill="#ffffff" stroke="transparent" points="-4,4 -4,-419.8 869,-419.8 869,4 -4,4"/>
<!-- Node15 -->
<g id="node1" class="node">
<title>Node15</title>
<polygon fill="#bfbfbf" stroke="#000000" points="0,-209.5 0,-228.5 59,-228.5 59,-209.5 0,-209.5"/>
<text text-anchor="middle" x="29.5" y="-216.5" font-family="Helvetica,sans-Serif" font-size="10.00" fill="#000000">insert_lsb</text>
</g>
<!-- Node16 -->
<g id="node2" class="node">
<title>Node16</title>
<g id="a_node2"><a xlink:href="a00122.xhtml#a4e9a217b960dc65fd08dff9f78e317e4" target="_top" xlink:title="Initialise la seed de la suite pseudo aléatoire. ">
<polygon fill="#ffffff" stroke="#000000" points="267.5,-386.5 267.5,-405.5 337.5,-405.5 337.5,-386.5 267.5,-386.5"/>
<text text-anchor="middle" x="302.5" y="-393.5" font-family="Helvetica,sans-Serif" font-size="10.00" fill="#000000">stegx_srand</text>
</a>
</g>
</g>
<!-- Node15&#45;&gt;Node16 -->
<g id="edge1" class="edge">
<title>Node15&#45;&gt;Node16</title>
<path fill="none" stroke="#191970" d="M31.7465,-228.7649C39.6182,-262.0552 66.9955,-370.1359 95,-390 142.8249,-423.923 213.6701,-417.1513 258.9593,-407.7088"/>
<polygon fill="#191970" stroke="#191970" points="259.7676,-411.1147 268.7754,-405.537 258.2554,-404.28 259.7676,-411.1147"/>
</g>
<!-- Node17 -->
<g id="node3" class="node">
<title>Node17</title>
<g id="a_node3"><a xlink:href="a00122.xhtml#a2a891bbe3514201de3cfc5acced104b7" target="_top" xlink:title="Cree un seed a partir d&#39;un mot de passe. ">
<polygon fill="#ffffff" stroke="#000000" points="267.5,-335.5 267.5,-354.5 337.5,-354.5 337.5,-335.5 267.5,-335.5"/>
<text text-anchor="middle" x="302.5" y="-342.5" font-family="Helvetica,sans-Serif" font-size="10.00" fill="#000000">create_seed</text>
</a>
</g>
</g>
<!-- Node15&#45;&gt;Node17 -->
<g id="edge2" class="edge">
<title>Node15&#45;&gt;Node17</title>
<path fill="none" stroke="#191970" d="M34.0731,-228.6219C43.0596,-246.4085 64.8067,-284.3169 95,-303 144.6242,-333.7065 212.5092,-342.4799 256.9163,-344.7148"/>
<polygon fill="#191970" stroke="#191970" points="256.987,-348.2205 267.1223,-345.1341 257.2745,-341.2264 256.987,-348.2205"/>
</g>
<!-- Node18 -->
<g id="node4" class="node">
<title>Node18</title>
<g id="a_node4"><a xlink:href="a00122.xhtml#a9966534d45c62d0df7a3d5df48668715" target="_top" xlink:title="Renvoie un entier pseudo&#45;aléatoire. ">
<polygon fill="#ffffff" stroke="#000000" points="270,-297.5 270,-316.5 335,-316.5 335,-297.5 270,-297.5"/>
<text text-anchor="middle" x="302.5" y="-304.5" font-family="Helvetica,sans-Serif" font-size="10.00" fill="#000000">stegx_rand</text>
</a>
</g>
</g>
<!-- Node15&#45;&gt;Node18 -->
<g id="edge3" class="edge">
<title>Node15&#45;&gt;Node18</title>
<path fill="none" stroke="#191970" d="M37.2508,-228.5199C48.4859,-241.5937 70.6349,-264.7604 95,-276 148.1662,-300.5255 216.3771,-306.4738 259.777,-307.5048"/>
<polygon fill="#191970" stroke="#191970" points="259.9294,-311.0075 269.9839,-307.6672 260.0409,-304.0084 259.9294,-311.0075"/>
</g>
<!-- Node19 -->
<g id="node5" class="node">
<title>Node19</title>
<g id="a_node5"><a xlink:href="a00032.xhtml#a72239fe09f5e932458901b822ccdf945" target="_top" xlink:title="Cache les octets de data dans pixels selon l&#39;algorithme de protection des données en LSB...">
<polygon fill="#ffffff" stroke="#000000" points="105,-361.5 105,-380.5 194,-380.5 194,-361.5 105,-361.5"/>
<text text-anchor="middle" x="149.5" y="-368.5" font-family="Helvetica,sans-Serif" font-size="10.00" fill="#000000">protect_data_lsb</text>
</a>
</g>
</g>
<!-- Node15&#45;&gt;Node19 -->
<g id="edge4" class="edge">
<title>Node15&#45;&gt;Node19</title>
<path fill="none" stroke="#191970" d="M32.0204,-228.7157C38.5517,-252.1146 58.141,-312.2249 95,-347 99.042,-350.8135 103.7892,-354.0836 108.7674,-356.8704"/>
<polygon fill="#191970" stroke="#191970" points="107.36,-360.079 117.8749,-361.3777 110.4648,-353.8053 107.36,-360.079"/>
</g>
<!-- Node20 -->
<g id="node6" class="node">
<title>Node20</title>
<g id="a_node6"><a xlink:href="a00110.xhtml#a66a71cd33131eb29010132269d237356" target="_top" xlink:title="Ecrit la signature StegX. ">
<polygon fill="#ffffff" stroke="#000000" points="108,-247.5 108,-266.5 191,-266.5 191,-247.5 108,-247.5"/>
<text text-anchor="middle" x="149.5" y="-254.5" font-family="Helvetica,sans-Serif" font-size="10.00" fill="#000000">write_signature</text>
</a>
</g>
</g>
<!-- Node15&#45;&gt;Node20 -->
<g id="edge8" class="edge">
<title>Node15&#45;&gt;Node20</title>
<path fill="none" stroke="#191970" d="M59.1629,-228.3933C74.3366,-233.1983 93.0231,-239.1157 109.4559,-244.3194"/>
<polygon fill="#191970" stroke="#191970" points="108.7547,-247.7686 119.3448,-247.4509 110.868,-241.0952 108.7547,-247.7686"/>
</g>
<!-- Node21 -->
<g id="node7" class="node">
<title>Node21</title>
<g id="a_node7"><a xlink:href="a00086.xhtml#a75bc8b052a4d00ab95b05b576918360d" target="_top" xlink:title="Test si le header est un header MPEG 1/2 Layer III. ">
<polygon fill="#ffffff" stroke="#000000" points="760,-152.5 760,-171.5 865,-171.5 865,-152.5 760,-152.5"/>
<text text-anchor="middle" x="812.5" y="-159.5" font-family="Helvetica,sans-Serif" font-size="10.00" fill="#000000">mp3_mpeg_hdr_test</text>
</a>
</g>
</g>
<!-- Node15&#45;&gt;Node21 -->
<g id="edge9" class="edge">
<title>Node15&#45;&gt;Node21</title>
<path fill="none" stroke="#191970" d="M59.2531,-221.1175C183.9788,-229.8181 661.1553,-261.281 724,-238 755.4557,-226.3471 783.2548,-197.9586 798.9612,-179.3684"/>
<polygon fill="#191970" stroke="#191970" points="801.6814,-181.5709 805.2964,-171.6118 796.2599,-177.1428 801.6814,-181.5709"/>
</g>
<!-- Node22 -->
<g id="node8" class="node">
<title>Node22</title>
<g id="a_node8"><a xlink:href="a00056.xhtml#a7434fd197d31a9571f92f9dca4f212e9" target="_top" xlink:title="Convertit un nombre en big endian dans l&#39;endian de la machine. ">
<polygon fill="#ffffff" stroke="#000000" points="262.5,-.5 262.5,-19.5 342.5,-19.5 342.5,-.5 262.5,-.5"/>
<text text-anchor="middle" x="302.5" y="-7.5" font-family="Helvetica,sans-Serif" font-size="10.00" fill="#000000">stegx_be32toh</text>
</a>
</g>
</g>
<!-- Node15&#45;&gt;Node22 -->
<g id="edge10" class="edge">
<title>Node15&#45;&gt;Node22</title>
<path fill="none" stroke="#191970" d="M33.5926,-209.4227C42.1901,-190.4065 63.932,-147.6822 95,-124 135.8016,-92.8981 163.1686,-117.0628 204,-86 226.3713,-68.9809 217.8968,-51.3659 240,-34 245.1582,-29.9473 251.0797,-26.5151 257.1773,-23.6267"/>
<polygon fill="#191970" stroke="#191970" points="258.988,-26.66 266.8196,-19.5245 256.2476,-20.2187 258.988,-26.66"/>
</g>
<!-- Node23 -->
<g id="node9" class="node">
<title>Node23</title>
<g id="a_node9"><a xlink:href="a00056.xhtml#aa1a29df598338a94ef478f60e90b20ba" target="_top" xlink:title="Convertit un nombre en little endian vers le big endian. ">
<polygon fill="#ffffff" stroke="#000000" points="109.5,-133.5 109.5,-152.5 189.5,-152.5 189.5,-133.5 109.5,-133.5"/>
<text text-anchor="middle" x="149.5" y="-140.5" font-family="Helvetica,sans-Serif" font-size="10.00" fill="#000000">stegx_htobe32</text>
</a>
</g>
</g>
<!-- Node15&#45;&gt;Node23 -->
<g id="edge11" class="edge">
<title>Node15&#45;&gt;Node23</title>
<path fill="none" stroke="#191970" d="M38.3727,-209.2539C50.2069,-196.766 72.3133,-175.1644 95,-162 98.6076,-159.9066 102.4829,-157.9917 106.4434,-156.2525"/>
<polygon fill="#191970" stroke="#191970" points="107.7793,-159.4878 115.7536,-152.5121 105.1697,-152.9924 107.7793,-159.4878"/>
</g>
<!-- Node24 -->
<g id="node10" class="node">
<title>Node24</title>
<g id="a_node10"><a xlink:href="a00086.xhtml#ab0198bd0d67c778ff7493f1bcd0a409e" target="_top" xlink:title="Écris la frame MP3 actuelle. ">
<polygon fill="#ffffff" stroke="#000000" points="98.5,-171.5 98.5,-190.5 200.5,-190.5 200.5,-171.5 98.5,-171.5"/>
<text text-anchor="middle" x="149.5" y="-178.5" font-family="Helvetica,sans-Serif" font-size="10.00" fill="#000000">mp3_mpeg_fr_write</text>
</a>
</g>
</g>
<!-- Node15&#45;&gt;Node24 -->
<g id="edge13" class="edge">
<title>Node15&#45;&gt;Node24</title>
<path fill="none" stroke="#191970" d="M59.1629,-209.6067C74.3366,-204.8017 93.0231,-198.8843 109.4559,-193.6806"/>
<polygon fill="#191970" stroke="#191970" points="110.868,-196.9048 119.3448,-190.5491 108.7547,-190.2314 110.868,-196.9048"/>
</g>
<!-- Node30 -->
<g id="node16" class="node">
<title>Node30</title>
<g id="a_node16"><a xlink:href="a00086.xhtml#aaccf359620da01d34de43ba7ce7f3513" target="_top" xlink:title="Test si le header est un header ID3v1. ">
<polygon fill="#ffffff" stroke="#000000" points="97.5,-57.5 97.5,-76.5 201.5,-76.5 201.5,-57.5 97.5,-57.5"/>
<text text-anchor="middle" x="149.5" y="-64.5" font-family="Helvetica,sans-Serif" font-size="10.00" fill="#000000">mp3_id3v1_hdr_test</text>
</a>
</g>
</g>
<!-- Node15&#45;&gt;Node30 -->
<g id="edge26" class="edge">
<title>Node15&#45;&gt;Node30</title>
<path fill="none" stroke="#191970" d="M32.0204,-209.2843C38.5517,-185.8854 58.141,-125.7751 95,-91 99.042,-87.1865 103.7892,-83.9164 108.7674,-81.1296"/>
<polygon fill="#191970" stroke="#191970" points="110.4648,-84.1947 117.8749,-76.6223 107.36,-77.921 110.4648,-84.1947"/>
</g>
<!-- Node31 -->
<g id="node17" class="node">
<title>Node31</title>
<g id="a_node17"><a xlink:href="a00086.xhtml#a0f2f8f49760a8be1dc011675b01f63d1" target="_top" xlink:title="Écris le tag ID3v1 actuel. ">
<polygon fill="#ffffff" stroke="#000000" points="95,-19.5 95,-38.5 204,-38.5 204,-19.5 95,-19.5"/>
<text text-anchor="middle" x="149.5" y="-26.5" font-family="Helvetica,sans-Serif" font-size="10.00" fill="#000000">mp3_id3v1_tag_write</text>
</a>
</g>
</g>
<!-- Node15&#45;&gt;Node31 -->
<g id="edge27" class="edge">
<title>Node15&#45;&gt;Node31</title>
<path fill="none" stroke="#191970" d="M30.3971,-209.3359C33.5771,-180.5868 46.8538,-94.7065 95,-48 96.6362,-46.4127 98.412,-44.9575 100.2897,-43.6234"/>
<polygon fill="#191970" stroke="#191970" points="102.1784,-46.5738 109.0575,-38.516 98.6549,-40.5252 102.1784,-46.5738"/>
</g>
<!-- Node19&#45;&gt;Node16 -->
<g id="edge5" class="edge">
<title>Node19&#45;&gt;Node16</title>
<path fill="none" stroke="#191970" d="M194.1652,-378.2982C213.9944,-381.5383 237.2968,-385.3459 257.1993,-388.5979"/>
<polygon fill="#191970" stroke="#191970" points="256.8271,-392.0834 267.2607,-390.2419 257.956,-385.1751 256.8271,-392.0834"/>
</g>
<!-- Node19&#45;&gt;Node17 -->
<g id="edge6" class="edge">
<title>Node19&#45;&gt;Node17</title>
<path fill="none" stroke="#191970" d="M194.1652,-363.4098C213.9944,-360.0402 237.2968,-356.0803 257.1993,-352.6982"/>
<polygon fill="#191970" stroke="#191970" points="257.9884,-356.1143 267.2607,-350.9884 256.8156,-349.2133 257.9884,-356.1143"/>
</g>
<!-- Node19&#45;&gt;Node18 -->
<g id="edge7" class="edge">
<title>Node19&#45;&gt;Node18</title>
<path fill="none" stroke="#191970" d="M166.7926,-361.3188C184.7203,-351.5422 213.7467,-336.4336 240,-326 246.3729,-323.4673 253.2223,-321.071 259.9674,-318.8879"/>
<polygon fill="#191970" stroke="#191970" points="261.2027,-322.1691 269.7077,-315.8511 259.1191,-315.4863 261.2027,-322.1691"/>
</g>
<!-- Node23&#45;&gt;Node22 -->
<g id="edge12" class="edge">
<title>Node23&#45;&gt;Node22</title>
<path fill="none" stroke="#191970" d="M181.9904,-133.4312C189.9392,-129.8941 197.9029,-125.1842 204,-119 232.8034,-89.7849 210.5012,-62.5129 240,-34 244.0742,-30.062 248.8632,-26.7535 253.9469,-23.9775"/>
<polygon fill="#191970" stroke="#191970" points="255.7863,-26.9791 263.3254,-19.535 252.7897,-20.6529 255.7863,-26.9791"/>
</g>
<!-- Node24&#45;&gt;Node21 -->
<g id="edge14" class="edge">
<title>Node24&#45;&gt;Node21</title>
<path fill="none" stroke="#191970" d="M179.5115,-171.443C187.5586,-168.6358 196.1905,-165.3992 204,-162 220.5884,-154.7796 223.4894,-150.3965 240,-143 309.6896,-111.7803 326.5065,-99.7938 401,-83 481.0767,-64.9475 502.9908,-70.5589 585,-67 646.7197,-64.3216 667.3522,-42.352 724,-67 759.8092,-82.5809 787.6832,-120.5829 801.9617,-143.5227"/>
<polygon fill="#191970" stroke="#191970" points="799.0913,-145.5419 807.2322,-152.3225 805.0966,-141.9451 799.0913,-145.5419"/>
</g>
<!-- Node25 -->
<g id="node11" class="node">
<title>Node25</title>
<g id="a_node11"><a xlink:href="a00086.xhtml#a3f5f1c770ad5013ccf94bce56b7d0a04" target="_top" xlink:title="Obtient la taille d&#39;une frame MP3. ">
<polygon fill="#ffffff" stroke="#000000" points="240,-152.5 240,-171.5 365,-171.5 365,-152.5 240,-152.5"/>
<text text-anchor="middle" x="302.5" y="-159.5" font-family="Helvetica,sans-Serif" font-size="10.00" fill="#000000">mp3_mpeg_hdr_get_size</text>
</a>
</g>
</g>
<!-- Node24&#45;&gt;Node25 -->
<g id="edge15" class="edge">
<title>Node24&#45;&gt;Node25</title>
<path fill="none" stroke="#191970" d="M200.8724,-174.6204C210.1505,-173.4682 219.9834,-172.2472 229.7351,-171.0362"/>
<polygon fill="#191970" stroke="#191970" points="230.349,-174.4869 239.8414,-169.7811 229.4863,-167.5403 230.349,-174.4869"/>
</g>
<!-- Node25&#45;&gt;Node21 -->
<g id="edge16" class="edge">
<title>Node25&#45;&gt;Node21</title>
<path fill="none" stroke="#191970" d="M342.5049,-152.4894C360.3019,-148.7243 381.5826,-144.8556 401,-143 524.2322,-131.2232 668.9494,-144.059 749.7563,-153.6076"/>
<polygon fill="#191970" stroke="#191970" points="749.4206,-157.0924 759.7672,-154.8125 750.2572,-150.1425 749.4206,-157.0924"/>
</g>
<!-- Node26 -->
<g id="node12" class="node">
<title>Node26</title>
<g id="a_node12"><a xlink:href="a00086.xhtml#aa48df36af23103ce104d13854d4cbb87" target="_top" xlink:title="Obtient la débit binaire d&#39;une frame MP3. ">
<polygon fill="#ffffff" stroke="#000000" points="408,-152.5 408,-171.5 542,-171.5 542,-152.5 408,-152.5"/>
<text text-anchor="middle" x="475" y="-159.5" font-family="Helvetica,sans-Serif" font-size="10.00" fill="#000000">mp3_mpeg_hdr_get_bitrate</text>
</a>
</g>
</g>
<!-- Node25&#45;&gt;Node26 -->
<g id="edge17" class="edge">
<title>Node25&#45;&gt;Node26</title>
<path fill="none" stroke="#191970" d="M365.2644,-162C375.7767,-162 386.7927,-162 397.6204,-162"/>
<polygon fill="#191970" stroke="#191970" points="397.9212,-165.5001 407.9212,-162 397.9211,-158.5001 397.9212,-165.5001"/>
</g>
<!-- Node28 -->
<g id="node14" class="node">
<title>Node28</title>
<g id="a_node14"><a xlink:href="a00086.xhtml#a85aeeafb97867c551e217ba3283e6fec" target="_top" xlink:title="Obtient la fréquence d&#39;échantillonage d&#39;une frame MP3. ">
<polygon fill="#ffffff" stroke="#000000" points="401,-190.5 401,-209.5 549,-209.5 549,-190.5 401,-190.5"/>
<text text-anchor="middle" x="475" y="-197.5" font-family="Helvetica,sans-Serif" font-size="10.00" fill="#000000">mp3_mpeg_hdr_get_samprate</text>
</a>
</g>
</g>
<!-- Node25&#45;&gt;Node28 -->
<g id="edge21" class="edge">
<title>Node25&#45;&gt;Node28</title>
<path fill="none" stroke="#191970" d="M346.029,-171.589C369.0999,-176.6713 397.6266,-182.9554 421.9805,-188.3203"/>
<polygon fill="#191970" stroke="#191970" points="421.2651,-191.7466 431.784,-190.4799 422.7711,-184.9105 421.2651,-191.7466"/>
</g>
<!-- Node29 -->
<g id="node15" class="node">
<title>Node29</title>
<g id="a_node15"><a xlink:href="a00086.xhtml#a407e3a1d9a7c3350620818a2ef19f142" target="_top" xlink:title="Permet de savoir si une frame MP3 contient du padding. ">
<polygon fill="#ffffff" stroke="#000000" points="587,-76.5 587,-95.5 722,-95.5 722,-76.5 587,-76.5"/>
<text text-anchor="middle" x="654.5" y="-83.5" font-family="Helvetica,sans-Serif" font-size="10.00" fill="#000000">mp3_mpeg_hdr_is_padding</text>
</a>
</g>
</g>
<!-- Node25&#45;&gt;Node29 -->
<g id="edge24" class="edge">
<title>Node25&#45;&gt;Node29</title>
<path fill="none" stroke="#191970" d="M316.4202,-152.3744C334.8408,-140.1877 368.7585,-119.6235 401,-110 458.2657,-92.9073 525.7416,-87.1743 576.6752,-85.57"/>
<polygon fill="#191970" stroke="#191970" points="577.0551,-89.0612 586.9579,-85.2948 576.8678,-82.0637 577.0551,-89.0612"/>
</g>
<!-- Node26&#45;&gt;Node21 -->
<g id="edge18" class="edge">
<title>Node26&#45;&gt;Node21</title>
<path fill="none" stroke="#191970" d="M542.0827,-162C602.4716,-162 690.5546,-162 749.615,-162"/>
<polygon fill="#191970" stroke="#191970" points="749.9271,-165.5001 759.927,-162 749.927,-158.5001 749.9271,-165.5001"/>
</g>
<!-- Node27 -->
<g id="node13" class="node">
<title>Node27</title>
<g id="a_node13"><a xlink:href="a00086.xhtml#a2f08a046bc257029ca74b86b48204380" target="_top" xlink:title="Obtient la version de la norme MPEG du header d&#39;une frame MP3. ">
<polygon fill="#ffffff" stroke="#000000" points="585,-190.5 585,-209.5 724,-209.5 724,-190.5 585,-190.5"/>
<text text-anchor="middle" x="654.5" y="-197.5" font-family="Helvetica,sans-Serif" font-size="10.00" fill="#000000">mp3_mpeg_hdr_get_version</text>
</a>
</g>
</g>
<!-- Node26&#45;&gt;Node27 -->
<g id="edge19" class="edge">
<title>Node26&#45;&gt;Node27</title>
<path fill="none" stroke="#191970" d="M520.2954,-171.589C544.4092,-176.6939 574.2508,-183.0113 599.6666,-188.3918"/>
<polygon fill="#191970" stroke="#191970" points="599.0222,-191.8329 609.5303,-190.4799 600.472,-184.9847 599.0222,-191.8329"/>
</g>
<!-- Node27&#45;&gt;Node21 -->
<g id="edge20" class="edge">
<title>Node27&#45;&gt;Node21</title>
<path fill="none" stroke="#191970" d="M694.3701,-190.411C715.2199,-185.3965 740.9346,-179.2119 763.0429,-173.8947"/>
<polygon fill="#191970" stroke="#191970" points="764.0123,-177.2615 772.9166,-171.5201 762.3754,-170.4555 764.0123,-177.2615"/>
</g>
<!-- Node28&#45;&gt;Node21 -->
<g id="edge22" class="edge">
<title>Node28&#45;&gt;Node21</title>
<path fill="none" stroke="#191970" d="M506.8098,-209.5329C554.9001,-222.3745 648.5095,-241.2068 724,-219 750.8744,-211.0944 777.2944,-192.2209 794.1694,-178.3479"/>
<polygon fill="#191970" stroke="#191970" points="796.719,-180.7745 802.0758,-171.6336 792.1879,-175.4389 796.719,-180.7745"/>
</g>
<!-- Node28&#45;&gt;Node27 -->
<g id="edge23" class="edge">
<title>Node28&#45;&gt;Node27</title>
<path fill="none" stroke="#191970" d="M549.0459,-200C557.5835,-200 566.3168,-200 574.9237,-200"/>
<polygon fill="#191970" stroke="#191970" points="574.9501,-203.5001 584.9501,-200 574.9501,-196.5001 574.9501,-203.5001"/>
</g>
<!-- Node29&#45;&gt;Node21 -->
<g id="edge25" class="edge">
<title>Node29&#45;&gt;Node21</title>
<path fill="none" stroke="#191970" d="M686.5056,-95.5736C698.4762,-99.5366 712.0591,-104.4966 724,-110 747.2916,-120.7347 772.3643,-135.8335 789.8548,-146.9973"/>
<polygon fill="#191970" stroke="#191970" points="787.9626,-149.9417 798.2604,-152.4326 791.7635,-144.0636 787.9626,-149.9417"/>
</g>
</g>
</svg>
        <g id="navigator" transform="translate(0 0)" fill="#404254">
                <rect fill="#f2f5e9" fill-opacity="0.5" stroke="#606060" stroke-width=".5" x="0" y="0" width="60" height="60"/>
                <use id="zoomplus" xlink:href="#zoomPlus" x="17" y="9" onmousedown="handleZoom(evt,'in')"/>
                <use id="zoomminus" xlink:href="#zoomMin" x="42" y="9" onmousedown="handleZoom(evt,'out')"/>
                <use id="reset" xlink:href="#resetDef" x="30" y="36" onmousedown="handleReset()"/>
                <g id="arrowUp" xlink:href="#dirArrow" transform="translate(30 24)" onmousedown="handlePan(0,-1)">
                  <use xlink:href="#rim" fill="#404040">
                        <set attributeName="fill" to="#808080" begin="arrowUp.mouseover" end="arrowUp.mouseout"/>
                  </use>
                  <path fill="none" stroke="white" stroke-width="1.5" d="M0,-3.0v7 M-2.5,-0.5L0,-3.0L2.5,-0.5"/>
                </g>
                <g id="arrowRight" xlink:href="#dirArrow" transform="rotate(90) translate(36 -43)" onmousedown="handlePan(1,0)">
                  <use xlink:href="#rim" fill="#404040">
                        <set attributeName="fill" to="#808080" begin="arrowRight.mouseover" end="arrowRight.mouseout"/>
                  </use>
                  <path fill="none" stroke="white" stroke-width="1.5" d="M0,-3.0v7 M-2.5,-0.5L0,-3.0L2.5,-0.5"/>
                </g>
                <g id="arrowDown" xlink:href="#dirArrow" transform="rotate(180) translate(-30 -48)" onmousedown="handlePan(0,1)">
                  <use xlink:href="#rim" fill="#404040">
                        <set attributeName="fill" to="#808080" begin="arrowDown.mouseover" end="arrowDown.mouseout"/>
                  </use>
                  <path fill="none" stroke="white" stroke-width="1.5" d="M0,-3.0v7 M-2.5,-0.5L0,-3.0L2.5,-0.5"/>
                </g>
                <g id="arrowLeft" xlink:href="#dirArrow" transform="rotate(270) translate(-36 17)" onmousedown="handlePan(-1,0)">
                  <use xlink:href="#rim" fill="#404040">
                        <set attributeName="fill" to="#808080" begin="arrowLeft.mouseover" end="arrowLeft.mouseout"/>
                  </use>
                  <path fill="none" stroke="white" stroke-width="1.5" d="M0,-3.0v7 M-2.5,-0.5L0,-3.0L2.5,-0.5"/>
                </g>
        </g>
        <svg viewBox="0 0 15 15" width="100%" height="30px" preserveAspectRatio="xMaxYMin meet">
         <g id="arrow_out" transform="scale(0.3 0.3)">
          <a xlink:href="a00035_a14e9d876697b0225ded31095c1076b64_cgraph_org.svg" target="_base">
           <rect id="button" ry="5" rx="5" y="6" x="6" height="38" width="38"
                fill="#f2f5e9" fill-opacity="0.5" stroke="#606060" stroke-width="1.0"/>
           <path id="arrow"
             d="M 11.500037,31.436501 C 11.940474,20.09759 22.043105,11.32322 32.158766,21.979434 L 37.068811,17.246167 C 37.068811,17.246167 37.088388,32 37.088388,32 L 22.160133,31.978069 C 22.160133,31.978069 26.997745,27.140456 26.997745,27.140456 C 18.528582,18.264221 13.291696,25.230495 11.500037,31.436501 z"
             style="fill:#404040;"/>
          </a>
         </g>
        </svg>
</svg>
