<?xml version="1.0" encoding="UTF-8" standalone="no"?>
<!DOCTYPE svg PUBLIC "-//W3C//DTD SVG 1.1//EN"
 "http://www.w3.org/Graphics/SVG/1.1/DTD/svg11.dtd">
<!-- Generated by graphviz version 2.40.1 (20161225.0304)
 -->
<!-- Title: src/algo/eof.c Pages: 1 -->
<!--zoomable 196 -->
<svg id="main" version="1.1" xmlns="http://www.w3.org/2000/svg" xmlns:xlink="http://www.w3.org/1999/xlink" xml:space="preserve" onload="init(evt)">
<style type="text/css"><![CDATA[
.edge:hover path { stroke: red; }
.edge:hover polygon { stroke: red; fill: red; }
]]></style>
<script type="text/javascript"><![CDATA[
var edges = document.getElementsByTagName('g');
if (edges && edges.length) {
  for (var i=0;i<edges.length;i++) {
    if (edges[i].id.substr(0,4)=='edge') {
      edges[i].setAttribute('class','edge');
    }
  }
}
]]></script>
        <defs>
                <circle id="rim" cx="0" cy="0" r="7"/>
                <circle id="rim2" cx="0" cy="0" r="3.5"/>
                <g id="zoomPlus">
                        <use xlink:href="#rim" fill="#404040">
                                <set attributeName="fill" to="#808080" begin="zoomplus.mouseover" end="zoomplus.mouseout"/>
                        </use>
                        <path d="M-4,0h8M0,-4v8" fill="none" stroke="white" stroke-width="1.5" pointer-events="none"/>
                </g>
                <g id="zoomMin">
                        <use xlink:href="#rim" fill="#404040">
                                <set attributeName="fill" to="#808080" begin="zoomminus.mouseover" end="zoomminus.mouseout"/>
                        </use>
                        <path d="M-4,0h8" fill="none" stroke="white" stroke-width="1.5" pointer-events="none"/>
                </g>
                <g id="dirArrow">
                        <path fill="none" stroke="white" stroke-width="1.5" d="M0,-3.0v7 M-2.5,-0.5L0,-3.0L2.5,-0.5"/>
                </g>
               <g id="resetDef">
                       <use xlink:href="#rim2" fill="#404040">
                               <set attributeName="fill" to="#808080" begin="reset.mouseover" end="reset.mouseout"/>
                       </use>
               </g>
        </defs>

<script type="text/javascript">
var viewWidth = 1210;
var viewHeight = 196;
var sectionId = 'dynsection-0';
</script>
<script xlink:href="svgpan.js"/>
<svg id="graph" class="graph">
<g id="viewport">
<title>src/algo/eof.c</title>
<polygon fill="#ffffff" stroke="transparent" points="-4,4 -4,-192 1205.7923,-192 1205.7923,4 -4,4"/>
<!-- Node0 -->
<g id="node1" class="node">
<title>Node0</title>
<polygon fill="#bfbfbf" stroke="#000000" points="833.2923,-168.5 833.2923,-187.5 909.2923,-187.5 909.2923,-168.5 833.2923,-168.5"/>
<text text-anchor="middle" x="871.2923" y="-175.5" font-family="Helvetica,sans-Serif" font-size="10.00" fill="#000000">src/algo/eof.c</text>
</g>
<!-- Node1 -->
<g id="node2" class="node">
<title>Node1</title>
<polygon fill="#ffffff" stroke="#bfbfbf" points="216.2923,-.5 216.2923,-19.5 262.2923,-19.5 262.2923,-.5 216.2923,-.5"/>
<text text-anchor="middle" x="239.2923" y="-7.5" font-family="Helvetica,sans-Serif" font-size="10.00" fill="#000000">stdio.h</text>
</g>
<!-- Node0&#45;&gt;Node1 -->
<g id="edge1" class="edge">
<title>Node0&#45;&gt;Node1</title>
<path fill="none" stroke="#191970" d="M833.1744,-176.5046C672.8357,-169.8232 58.8901,-140.1746 4.2923,-76 -1.4676,-69.2298 -1.3572,-62.8626 4.2923,-56 29.4154,-25.4824 146.8858,-14.921 205.6443,-11.5071"/>
<polygon fill="#191970" stroke="#191970" points="206.1019,-14.9875 215.8971,-10.9496 205.7218,-7.9978 206.1019,-14.9875"/>
</g>
<!-- Node2 -->
<g id="node3" class="node">
<title>Node2</title>
<polygon fill="#ffffff" stroke="#bfbfbf" points="990.2923,-112.5 990.2923,-131.5 1038.2923,-131.5 1038.2923,-112.5 990.2923,-112.5"/>
<text text-anchor="middle" x="1014.2923" y="-119.5" font-family="Helvetica,sans-Serif" font-size="10.00" fill="#000000">stdlib.h</text>
</g>
<!-- Node0&#45;&gt;Node2 -->
<g id="edge2" class="edge">
<title>Node0&#45;&gt;Node2</title>
<path fill="none" stroke="#191970" d="M895.8749,-168.3733C919.2419,-159.2226 954.5786,-145.3844 980.5707,-135.2057"/>
<polygon fill="#191970" stroke="#191970" points="981.9953,-138.4066 990.0305,-131.5011 979.4428,-131.8886 981.9953,-138.4066"/>
</g>
<!-- Node3 -->
<g id="node4" class="node">
<title>Node3</title>
<polygon fill="#ffffff" stroke="#bfbfbf" points="513.7923,-.5 513.7923,-19.5 562.7923,-19.5 562.7923,-.5 513.7923,-.5"/>
<text text-anchor="middle" x="538.2923" y="-7.5" font-family="Helvetica,sans-Serif" font-size="10.00" fill="#000000">stdint.h</text>
</g>
<!-- Node0&#45;&gt;Node3 -->
<g id="edge3" class="edge">
<title>Node0&#45;&gt;Node3</title>
<path fill="none" stroke="#191970" d="M833.2516,-168.9825C805.7225,-161.4916 768.2484,-149.2581 738.2923,-132 693.5139,-106.2025 694.3212,-83.0569 650.2923,-56 625.7994,-40.9484 595.5115,-28.8505 572.6105,-20.846"/>
<polygon fill="#191970" stroke="#191970" points="573.5662,-17.4741 562.9717,-17.5651 571.3105,-24.1008 573.5662,-17.4741"/>
</g>
<!-- Node4 -->
<g id="node5" class="node">
<title>Node4</title>
<polygon fill="#ffffff" stroke="#bfbfbf" points="1056.2923,-112.5 1056.2923,-131.5 1108.2923,-131.5 1108.2923,-112.5 1056.2923,-112.5"/>
<text text-anchor="middle" x="1082.2923" y="-119.5" font-family="Helvetica,sans-Serif" font-size="10.00" fill="#000000">assert.h</text>
</g>
<!-- Node0&#45;&gt;Node4 -->
<g id="edge4" class="edge">
<title>Node0&#45;&gt;Node4</title>
<path fill="none" stroke="#191970" d="M908.7813,-168.464C942.3671,-159.8625 993.2204,-146.6958 1046.0527,-132.3006"/>
<polygon fill="#191970" stroke="#191970" points="1047.2135,-135.6118 1055.937,-129.5992 1045.368,-128.8594 1047.2135,-135.6118"/>
</g>
<!-- Node5 -->
<g id="node6" class="node">
<title>Node5</title>
<polygon fill="#ffffff" stroke="#bfbfbf" points="719.7923,-56.5 719.7923,-75.5 768.7923,-75.5 768.7923,-56.5 719.7923,-56.5"/>
<text text-anchor="middle" x="744.2923" y="-63.5" font-family="Helvetica,sans-Serif" font-size="10.00" fill="#000000">string.h</text>
</g>
<!-- Node0&#45;&gt;Node5 -->
<g id="edge5" class="edge">
<title>Node0&#45;&gt;Node5</title>
<path fill="none" stroke="#191970" d="M833.1544,-173.812C805.898,-168.6872 770.733,-157.2987 751.2923,-132 741.3204,-119.0232 740.2588,-100.13 741.29,-85.8798"/>
<polygon fill="#191970" stroke="#191970" points="744.801,-85.9759 742.4354,-75.6486 737.8445,-85.1971 744.801,-85.9759"/>
</g>
<!-- Node6 -->
<g id="node7" class="node">
<title>Node6</title>
<g id="a_node7"><a xlink:href="a00047.xhtml" target="_top" xlink:title="Définitions communes à la partie privée de la bibliothèque. ">
<polygon fill="#ffffff" stroke="#000000" points="358.2923,-112.5 358.2923,-131.5 420.2923,-131.5 420.2923,-112.5 358.2923,-112.5"/>
<text text-anchor="middle" x="389.2923" y="-119.5" font-family="Helvetica,sans-Serif" font-size="10.00" fill="#000000">common.h</text>
</a>
</g>
</g>
<!-- Node0&#45;&gt;Node6 -->
<g id="edge6" class="edge">
<title>Node0&#45;&gt;Node6</title>
<path fill="none" stroke="#191970" d="M833.0677,-173.559C743.8774,-163.1966 522.6216,-137.4905 430.5335,-126.7915"/>
<polygon fill="#191970" stroke="#191970" points="430.814,-123.3006 420.4769,-125.6231 430.0061,-130.2539 430.814,-123.3006"/>
</g>
<!-- Node7 -->
<g id="node8" class="node">
<title>Node7</title>
<g id="a_node8"><a xlink:href="a00008.xhtml" target="_top" xlink:title="Définitions communes à la partie privée et public de la bibliothèque. ">
<polygon fill="#ffffff" stroke="#000000" points="825.2923,-56.5 825.2923,-75.5 917.2923,-75.5 917.2923,-56.5 825.2923,-56.5"/>
<text text-anchor="middle" x="871.2923" y="-63.5" font-family="Helvetica,sans-Serif" font-size="10.00" fill="#000000">stegx_common.h</text>
</a>
</g>
</g>
<!-- Node0&#45;&gt;Node7 -->
<g id="edge33" class="edge">
<title>Node0&#45;&gt;Node7</title>
<path fill="none" stroke="#191970" d="M882.1126,-168.1466C894.4967,-155.6117 912.2294,-133.0564 905.2923,-112 901.7868,-101.3594 894.7682,-91.164 888.0137,-83.0877"/>
<polygon fill="#191970" stroke="#191970" points="890.5063,-80.6247 881.2285,-75.5087 885.2909,-85.2937 890.5063,-80.6247"/>
</g>
<!-- Node14 -->
<g id="node15" class="node">
<title>Node14</title>
<g id="a_node15"><a xlink:href="a00011.xhtml" target="_top" xlink:title="Module de gestion des erreurs. ">
<polygon fill="#ffffff" stroke="#000000" points="935.7923,-56.5 935.7923,-75.5 1014.7923,-75.5 1014.7923,-56.5 935.7923,-56.5"/>
<text text-anchor="middle" x="975.2923" y="-63.5" font-family="Helvetica,sans-Serif" font-size="10.00" fill="#000000">stegx_errors.h</text>
</a>
</g>
</g>
<!-- Node0&#45;&gt;Node14 -->
<g id="edge34" class="edge">
<title>Node0&#45;&gt;Node14</title>
<path fill="none" stroke="#191970" d="M881.8936,-168.4284C891.8267,-159.3248 906.9513,-145.1114 919.2923,-132 934.1622,-116.202 950.0711,-97.2313 961.1176,-83.6911"/>
<polygon fill="#191970" stroke="#191970" points="964.0429,-85.6401 967.6147,-75.6655 958.6023,-81.2356 964.0429,-85.6401"/>
</g>
<!-- Node15 -->
<g id="node16" class="node">
<title>Node15</title>
<g id="a_node16"><a xlink:href="a00113.xhtml" target="_top" xlink:title="Insertion des données cachées dans une copie de l&#39;hôte. ">
<polygon fill="#ffffff" stroke="#000000" points="846.7923,-112.5 846.7923,-131.5 895.7923,-131.5 895.7923,-112.5 846.7923,-112.5"/>
<text text-anchor="middle" x="871.2923" y="-119.5" font-family="Helvetica,sans-Serif" font-size="10.00" fill="#000000">insert.h</text>
</a>
</g>
</g>
<!-- Node0&#45;&gt;Node15 -->
<g id="edge35" class="edge">
<title>Node0&#45;&gt;Node15</title>
<path fill="none" stroke="#191970" d="M871.2923,-168.2455C871.2923,-160.9382 871.2923,-150.6944 871.2923,-141.7046"/>
<polygon fill="#191970" stroke="#191970" points="874.7924,-141.6426 871.2923,-131.6427 867.7924,-141.6427 874.7924,-141.6426"/>
</g>
<!-- Node16 -->
<g id="node17" class="node">
<title>Node16</title>
<g id="a_node17"><a xlink:href="a00119.xhtml" target="_top" xlink:title="Algorithme de protection des données avec le mot de passe. ">
<polygon fill="#ffffff" stroke="#000000" points="760.2923,-112.5 760.2923,-131.5 828.2923,-131.5 828.2923,-112.5 760.2923,-112.5"/>
<text text-anchor="middle" x="794.2923" y="-119.5" font-family="Helvetica,sans-Serif" font-size="10.00" fill="#000000">protection.h</text>
</a>
</g>
</g>
<!-- Node0&#45;&gt;Node16 -->
<g id="edge37" class="edge">
<title>Node0&#45;&gt;Node16</title>
<path fill="none" stroke="#191970" d="M857.88,-168.2455C846.2866,-159.814 829.3176,-147.4729 815.8245,-137.6598"/>
<polygon fill="#191970" stroke="#191970" points="817.697,-134.6938 807.551,-131.6427 813.5798,-140.355 817.697,-134.6938"/>
</g>
<!-- Node17 -->
<g id="node18" class="node">
<title>Node17</title>
<g id="a_node18"><a xlink:href="a00053.xhtml" target="_top" xlink:title="Module de détection de l&#39;algorithme. ">
<polygon fill="#ffffff" stroke="#000000" points="1126.7923,-112.5 1126.7923,-131.5 1201.7923,-131.5 1201.7923,-112.5 1126.7923,-112.5"/>
<text text-anchor="middle" x="1164.2923" y="-119.5" font-family="Helvetica,sans-Serif" font-size="10.00" fill="#000000">detect_algo.h</text>
</a>
</g>
</g>
<!-- Node0&#45;&gt;Node17 -->
<g id="edge42" class="edge">
<title>Node0&#45;&gt;Node17</title>
<path fill="none" stroke="#191970" d="M909.6984,-171.1227C956.165,-162.7349 1037.0298,-147.924 1116.4232,-132.1363"/>
<polygon fill="#191970" stroke="#191970" points="1117.4775,-135.495 1126.5993,-130.1057 1116.1076,-128.6303 1117.4775,-135.495"/>
</g>
<!-- Node6&#45;&gt;Node1 -->
<g id="edge7" class="edge">
<title>Node6&#45;&gt;Node1</title>
<path fill="none" stroke="#191970" d="M358.0405,-121.0614C297.1051,-118.5033 165.9459,-109.1821 138.2923,-76 115.309,-48.4218 168.3679,-28.1883 205.9528,-17.8259"/>
<polygon fill="#191970" stroke="#191970" points="207.2857,-21.0945 216.0672,-15.167 205.506,-14.3245 207.2857,-21.0945"/>
</g>
<!-- Node6&#45;&gt;Node3 -->
<g id="edge8" class="edge">
<title>Node6&#45;&gt;Node3</title>
<path fill="none" stroke="#191970" d="M420.7261,-120.8974C480.6098,-118.0656 607.4866,-108.307 634.2923,-76 655.8954,-49.9634 608.2801,-29.7735 572.6793,-18.906"/>
<polygon fill="#191970" stroke="#191970" points="573.6042,-15.53 563.0242,-16.0909 571.6448,-22.2502 573.6042,-15.53"/>
</g>
<!-- Node6&#45;&gt;Node7 -->
<g id="edge9" class="edge">
<title>Node6&#45;&gt;Node7</title>
<path fill="none" stroke="#191970" d="M420.5463,-118.3688C500.4132,-109.0897 712.8684,-84.4061 814.9674,-72.544"/>
<polygon fill="#191970" stroke="#191970" points="815.5572,-75.9991 825.0864,-71.3683 814.7492,-69.0459 815.5572,-75.9991"/>
</g>
<!-- Node8 -->
<g id="node9" class="node">
<title>Node8</title>
<g id="a_node9"><a xlink:href="a00077.xhtml" target="_top" xlink:title="Fichier BMP. ">
<polygon fill="#ffffff" stroke="#000000" points="147.7923,-56.5 147.7923,-75.5 230.7923,-75.5 230.7923,-56.5 147.7923,-56.5"/>
<text text-anchor="middle" x="189.2923" y="-63.5" font-family="Helvetica,sans-Serif" font-size="10.00" fill="#000000">file_type/bmp.h</text>
</a>
</g>
</g>
<!-- Node6&#45;&gt;Node8 -->
<g id="edge10" class="edge">
<title>Node6&#45;&gt;Node8</title>
<path fill="none" stroke="#191970" d="M357.9739,-114.5636C322.7203,-105.3323 265.6979,-89.4549 227.7823,-78.3767"/>
<polygon fill="#191970" stroke="#191970" points="228.6859,-74.9942 218.1046,-75.5299 226.7104,-81.7097 228.6859,-74.9942"/>
</g>
<!-- Node9 -->
<g id="node10" class="node">
<title>Node9</title>
<g id="a_node10"><a xlink:href="a00095.xhtml" target="_top" xlink:title="Fichier PNG. ">
<polygon fill="#ffffff" stroke="#000000" points="249.2923,-56.5 249.2923,-75.5 329.2923,-75.5 329.2923,-56.5 249.2923,-56.5"/>
<text text-anchor="middle" x="289.2923" y="-63.5" font-family="Helvetica,sans-Serif" font-size="10.00" fill="#000000">file_type/png.h</text>
</a>
</g>
</g>
<!-- Node6&#45;&gt;Node9 -->
<g id="edge14" class="edge">
<title>Node6&#45;&gt;Node9</title>
<path fill="none" stroke="#191970" d="M366.8597,-112.3733C349.7673,-103.7466 326.6523,-90.954 310.0028,-80.9889"/>
<polygon fill="#191970" stroke="#191970" points="311.3972,-77.7387 301.0413,-75.5011 307.7415,-83.7083 311.3972,-77.7387"/>
</g>
<!-- Node10 -->
<g id="node11" class="node">
<title>Node10</title>
<g id="a_node11"><a xlink:href="a00104.xhtml" target="_top" xlink:title="Fichier WAVE. ">
<polygon fill="#ffffff" stroke="#000000" points="347.7923,-56.5 347.7923,-75.5 430.7923,-75.5 430.7923,-56.5 347.7923,-56.5"/>
<text text-anchor="middle" x="389.2923" y="-63.5" font-family="Helvetica,sans-Serif" font-size="10.00" fill="#000000">file_type/wav.h</text>
</a>
</g>
</g>
<!-- Node6&#45;&gt;Node10 -->
<g id="edge18" class="edge">
<title>Node6&#45;&gt;Node10</title>
<path fill="none" stroke="#191970" d="M384.0255,-112.2455C382.6145,-104.9382 382.2102,-94.6944 382.8128,-85.7046"/>
<polygon fill="#191970" stroke="#191970" points="386.3034,-85.9945 384.0472,-75.6427 379.3555,-85.1421 386.3034,-85.9945"/>
</g>
<!-- Node11 -->
<g id="node12" class="node">
<title>Node11</title>
<g id="a_node12"><a xlink:href="a00089.xhtml" target="_top" xlink:title="Fichier MP3. ">
<polygon fill="#ffffff" stroke="#000000" points="448.7923,-56.5 448.7923,-75.5 531.7923,-75.5 531.7923,-56.5 448.7923,-56.5"/>
<text text-anchor="middle" x="490.2923" y="-63.5" font-family="Helvetica,sans-Serif" font-size="10.00" fill="#000000">file_type/mp3.h</text>
</a>
</g>
</g>
<!-- Node6&#45;&gt;Node11 -->
<g id="edge22" class="edge">
<title>Node6&#45;&gt;Node11</title>
<path fill="none" stroke="#191970" d="M401.6183,-112.2455C415.8437,-103.4125 439.2789,-90.2887 458.5746,-80.2758"/>
<polygon fill="#191970" stroke="#191970" points="460.3388,-83.3049 467.6559,-75.6427 457.1576,-77.0695 460.3388,-83.3049"/>
</g>
<!-- Node12 -->
<g id="node13" class="node">
<title>Node12</title>
<g id="a_node13"><a xlink:href="a00071.xhtml" target="_top" xlink:title="Fichier AVI. ">
<polygon fill="#ffffff" stroke="#000000" points="13.7923,-56.5 13.7923,-75.5 90.7923,-75.5 90.7923,-56.5 13.7923,-56.5"/>
<text text-anchor="middle" x="52.2923" y="-63.5" font-family="Helvetica,sans-Serif" font-size="10.00" fill="#000000">file_type/avi.h</text>
</a>
</g>
</g>
<!-- Node6&#45;&gt;Node12 -->
<g id="edge26" class="edge">
<title>Node6&#45;&gt;Node12</title>
<path fill="none" stroke="#191970" d="M358.2669,-118.0377C306.232,-110.5932 198.6962,-93.8085 100.9873,-76.8053"/>
<polygon fill="#191970" stroke="#191970" points="101.4109,-73.3264 90.9577,-75.0531 100.2061,-80.222 101.4109,-73.3264"/>
</g>
<!-- Node13 -->
<g id="node14" class="node">
<title>Node13</title>
<g id="a_node14"><a xlink:href="a00083.xhtml" target="_top" xlink:title="Fichier FLV. ">
<polygon fill="#ffffff" stroke="#000000" points="549.7923,-56.5 549.7923,-75.5 624.7923,-75.5 624.7923,-56.5 549.7923,-56.5"/>
<text text-anchor="middle" x="587.2923" y="-63.5" font-family="Helvetica,sans-Serif" font-size="10.00" fill="#000000">file_type/flv.h</text>
</a>
</g>
</g>
<!-- Node6&#45;&gt;Node13 -->
<g id="edge29" class="edge">
<title>Node6&#45;&gt;Node13</title>
<path fill="none" stroke="#191970" d="M418.0877,-112.3733C450.0166,-102.8139 501.7716,-88.1392 539.7078,-77.8647"/>
<polygon fill="#191970" stroke="#191970" points="540.7765,-81.2017 549.5229,-75.2225 538.9568,-74.4424 540.7765,-81.2017"/>
</g>
<!-- Node8&#45;&gt;Node1 -->
<g id="edge11" class="edge">
<title>Node8&#45;&gt;Node1</title>
<path fill="none" stroke="#191970" d="M198.0017,-56.2455C205.0996,-48.2958 215.3008,-36.8706 223.7873,-27.3656"/>
<polygon fill="#191970" stroke="#191970" points="226.6334,-29.4331 230.6828,-19.6427 221.4118,-24.771 226.6334,-29.4331"/>
</g>
<!-- Node8&#45;&gt;Node3 -->
<g id="edge12" class="edge">
<title>Node8&#45;&gt;Node3</title>
<path fill="none" stroke="#191970" d="M231.0153,-57.6763C234.1519,-57.0943 237.2706,-56.5292 240.2923,-56 335.2385,-39.3705 447.7706,-22.8652 503.4705,-14.9086"/>
<polygon fill="#191970" stroke="#191970" points="504.1049,-18.3537 513.5118,-13.479 503.1182,-11.4236 504.1049,-18.3537"/>
</g>
<!-- Node8&#45;&gt;Node6 -->
<g id="edge13" class="edge">
<title>Node8&#45;&gt;Node6</title>
<path fill="none" stroke="#191970" d="M228.4422,-75.5011C263.6813,-84.8494 315.0228,-99.1765 350.2297,-109.4561"/>
<polygon fill="#191970" stroke="#191970" points="349.5719,-112.9108 360.1531,-112.3733 351.5462,-106.1949 349.5719,-112.9108"/>
</g>
<!-- Node9&#45;&gt;Node1 -->
<g id="edge15" class="edge">
<title>Node9&#45;&gt;Node1</title>
<path fill="none" stroke="#191970" d="M280.583,-56.2455C273.485,-48.2958 263.2839,-36.8706 254.7973,-27.3656"/>
<polygon fill="#191970" stroke="#191970" points="257.1728,-24.771 247.9019,-19.6427 251.9513,-29.4331 257.1728,-24.771"/>
</g>
<!-- Node9&#45;&gt;Node3 -->
<g id="edge16" class="edge">
<title>Node9&#45;&gt;Node3</title>
<path fill="none" stroke="#191970" d="M329.2985,-57.0026C377.5083,-46.1603 457.7223,-28.1202 503.4827,-17.8287"/>
<polygon fill="#191970" stroke="#191970" points="504.5294,-21.1808 513.5177,-15.5718 502.9934,-14.3514 504.5294,-21.1808"/>
</g>
<!-- Node9&#45;&gt;Node6 -->
<g id="edge17" class="edge">
<title>Node9&#45;&gt;Node6</title>
<path fill="none" stroke="#191970" d="M311.7565,-75.6427C328.7076,-84.1994 351.5694,-96.8456 368.1769,-106.769"/>
<polygon fill="#191970" stroke="#191970" points="366.7824,-110.0185 377.1405,-112.2455 370.432,-104.0451 366.7824,-110.0185"/>
</g>
<!-- Node10&#45;&gt;Node1 -->
<g id="edge19" class="edge">
<title>Node10&#45;&gt;Node1</title>
<path fill="none" stroke="#191970" d="M363.5064,-56.3733C338.2908,-46.9594 299.7871,-32.5847 272.3375,-22.3369"/>
<polygon fill="#191970" stroke="#191970" points="273.3623,-18.9836 262.7698,-18.7649 270.914,-25.5415 273.3623,-18.9836"/>
</g>
<!-- Node10&#45;&gt;Node3 -->
<g id="edge20" class="edge">
<title>Node10&#45;&gt;Node3</title>
<path fill="none" stroke="#191970" d="M414.9063,-56.3733C439.5092,-47.1265 476.8471,-33.0935 504.0051,-22.8865"/>
<polygon fill="#191970" stroke="#191970" points="505.3783,-26.1095 513.5077,-19.315 502.9156,-19.557 505.3783,-26.1095"/>
</g>
<!-- Node10&#45;&gt;Node6 -->
<g id="edge21" class="edge">
<title>Node10&#45;&gt;Node6</title>
<path fill="none" stroke="#191970" d="M394.5375,-75.6427C395.9588,-82.9199 396.3733,-93.155 395.781,-102.1575"/>
<polygon fill="#191970" stroke="#191970" points="392.287,-101.8972 394.5592,-112.2455 399.2362,-102.739 392.287,-101.8972"/>
</g>
<!-- Node11&#45;&gt;Node1 -->
<g id="edge23" class="edge">
<title>Node11&#45;&gt;Node1</title>
<path fill="none" stroke="#191970" d="M448.563,-56.6899C399.1604,-45.6678 317.885,-27.5346 272.5293,-17.4154"/>
<polygon fill="#191970" stroke="#191970" points="273.1385,-13.9654 262.6163,-15.2038 271.6142,-20.7974 273.1385,-13.9654"/>
</g>
<!-- Node11&#45;&gt;Node3 -->
<g id="edge24" class="edge">
<title>Node11&#45;&gt;Node3</title>
<path fill="none" stroke="#191970" d="M498.6533,-56.2455C505.4673,-48.2958 515.2604,-36.8706 523.4075,-27.3656"/>
<polygon fill="#191970" stroke="#191970" points="526.1766,-29.513 530.0272,-19.6427 520.8618,-24.9575 526.1766,-29.513"/>
</g>
<!-- Node11&#45;&gt;Node6 -->
<g id="edge25" class="edge">
<title>Node11&#45;&gt;Node6</title>
<path fill="none" stroke="#191970" d="M478.3737,-75.5011C464.2032,-84.3278 440.5301,-97.5932 421.0583,-107.6992"/>
<polygon fill="#191970" stroke="#191970" points="419.2139,-104.7109 411.8969,-112.3733 422.3952,-110.9463 419.2139,-104.7109"/>
</g>
<!-- Node12&#45;&gt;Node1 -->
<g id="edge27" class="edge">
<title>Node12&#45;&gt;Node1</title>
<path fill="none" stroke="#191970" d="M84.4388,-56.3733C118.4131,-46.1991 171.7371,-30.2304 206.1017,-19.9394"/>
<polygon fill="#191970" stroke="#191970" points="207.5399,-23.1624 216.1154,-16.9407 205.5317,-16.4566 207.5399,-23.1624"/>
</g>
<!-- Node12&#45;&gt;Node6 -->
<g id="edge28" class="edge">
<title>Node12&#45;&gt;Node6</title>
<path fill="none" stroke="#191970" d="M90.9738,-71.7942C98.7725,-73.2084 106.8216,-74.6904 114.2923,-76 197.2558,-90.5431 294.1505,-105.8864 348.0519,-114.6653"/>
<polygon fill="#191970" stroke="#191970" points="347.4889,-118.1197 357.9226,-116.279 348.6182,-111.2114 347.4889,-118.1197"/>
</g>
<!-- Node13&#45;&gt;Node1 -->
<g id="edge30" class="edge">
<title>Node13&#45;&gt;Node1</title>
<path fill="none" stroke="#191970" d="M549.6756,-57.6207C546.8429,-57.0516 544.0248,-56.5046 541.2923,-56 444.0358,-38.0401 328.2209,-21.8368 272.4922,-14.3609"/>
<polygon fill="#191970" stroke="#191970" points="272.8621,-10.8794 262.487,-13.0261 271.9363,-17.8179 272.8621,-10.8794"/>
</g>
<!-- Node13&#45;&gt;Node3 -->
<g id="edge31" class="edge">
<title>Node13&#45;&gt;Node3</title>
<path fill="none" stroke="#191970" d="M578.7572,-56.2455C571.8012,-48.2958 561.8041,-36.8706 553.4872,-27.3656"/>
<polygon fill="#191970" stroke="#191970" points="555.9488,-24.8637 546.7297,-19.6427 550.6807,-29.4732 555.9488,-24.8637"/>
</g>
<!-- Node13&#45;&gt;Node6 -->
<g id="edge32" class="edge">
<title>Node13&#45;&gt;Node6</title>
<path fill="none" stroke="#191970" d="M558.8204,-75.5299C525.0078,-85.659 468.6436,-101.6101 430.1947,-111.9378"/>
<polygon fill="#191970" stroke="#191970" points="429.1061,-108.6057 420.3452,-114.5636 430.9093,-115.3695 429.1061,-108.6057"/>
</g>
<!-- Node15&#45;&gt;Node7 -->
<g id="edge36" class="edge">
<title>Node15&#45;&gt;Node7</title>
<path fill="none" stroke="#191970" d="M871.2923,-112.2455C871.2923,-104.9382 871.2923,-94.6944 871.2923,-85.7046"/>
<polygon fill="#191970" stroke="#191970" points="874.7924,-85.6426 871.2923,-75.6427 867.7924,-85.6427 874.7924,-85.6426"/>
</g>
<!-- Node16&#45;&gt;Node3 -->
<g id="edge39" class="edge">
<title>Node16&#45;&gt;Node3</title>
<path fill="none" stroke="#191970" d="M794.949,-112.3541C795.3613,-97.9154 793.8288,-70.8011 778.2923,-56 749.2426,-28.3251 632.1062,-16.4341 572.9053,-12.1108"/>
<polygon fill="#191970" stroke="#191970" points="573.1195,-8.6173 562.8999,-11.4121 572.6318,-15.6003 573.1195,-8.6173"/>
</g>
<!-- Node16&#45;&gt;Node5 -->
<g id="edge38" class="edge">
<title>Node16&#45;&gt;Node5</title>
<path fill="none" stroke="#191970" d="M785.583,-112.2455C778.485,-104.2958 768.2839,-92.8706 759.7973,-83.3656"/>
<polygon fill="#191970" stroke="#191970" points="762.1728,-80.771 752.9019,-75.6427 756.9513,-85.4331 762.1728,-80.771"/>
</g>
<!-- Node16&#45;&gt;Node7 -->
<g id="edge40" class="edge">
<title>Node16&#45;&gt;Node7</title>
<path fill="none" stroke="#191970" d="M807.7047,-112.2455C819.298,-103.814 836.2671,-91.4729 849.7602,-81.6598"/>
<polygon fill="#191970" stroke="#191970" points="852.0049,-84.355 858.0337,-75.6427 847.8877,-78.6938 852.0049,-84.355"/>
</g>
<!-- Node16&#45;&gt;Node14 -->
<g id="edge41" class="edge">
<title>Node16&#45;&gt;Node14</title>
<path fill="none" stroke="#191970" d="M825.4073,-112.3733C855.6352,-103.021 901.6883,-88.7725 934.7662,-78.5385"/>
<polygon fill="#191970" stroke="#191970" points="936.0646,-81.8005 944.5833,-75.5011 933.9956,-75.1133 936.0646,-81.8005"/>
</g>
</g>
</svg>
        <g id="navigator" transform="translate(0 0)" fill="#404254">
                <rect fill="#f2f5e9" fill-opacity="0.5" stroke="#606060" stroke-width=".5" x="0" y="0" width="60" height="60"/>
                <use id="zoomplus" xlink:href="#zoomPlus" x="17" y="9" onmousedown="handleZoom(evt,'in')"/>
                <use id="zoomminus" xlink:href="#zoomMin" x="42" y="9" onmousedown="handleZoom(evt,'out')"/>
                <use id="reset" xlink:href="#resetDef" x="30" y="36" onmousedown="handleReset()"/>
                <g id="arrowUp" xlink:href="#dirArrow" transform="translate(30 24)" onmousedown="handlePan(0,-1)">
                  <use xlink:href="#rim" fill="#404040">
                        <set attributeName="fill" to="#808080" begin="arrowUp.mouseover" end="arrowUp.mouseout"/>
                  </use>
                  <path fill="none" stroke="white" stroke-width="1.5" d="M0,-3.0v7 M-2.5,-0.5L0,-3.0L2.5,-0.5"/>
                </g>
                <g id="arrowRight" xlink:href="#dirArrow" transform="rotate(90) translate(36 -43)" onmousedown="handlePan(1,0)">
                  <use xlink:href="#rim" fill="#404040">
                        <set attributeName="fill" to="#808080" begin="arrowRight.mouseover" end="arrowRight.mouseout"/>
                  </use>
                  <path fill="none" stroke="white" stroke-width="1.5" d="M0,-3.0v7 M-2.5,-0.5L0,-3.0L2.5,-0.5"/>
                </g>
                <g id="arrowDown" xlink:href="#dirArrow" transform="rotate(180) translate(-30 -48)" onmousedown="handlePan(0,1)">
                  <use xlink:href="#rim" fill="#404040">
                        <set attributeName="fill" to="#808080" begin="arrowDown.mouseover" end="arrowDown.mouseout"/>
                  </use>
                  <path fill="none" stroke="white" stroke-width="1.5" d="M0,-3.0v7 M-2.5,-0.5L0,-3.0L2.5,-0.5"/>
                </g>
                <g id="arrowLeft" xlink:href="#dirArrow" transform="rotate(270) translate(-36 17)" onmousedown="handlePan(-1,0)">
                  <use xlink:href="#rim" fill="#404040">
                        <set attributeName="fill" to="#808080" begin="arrowLeft.mouseover" end="arrowLeft.mouseout"/>
                  </use>
                  <path fill="none" stroke="white" stroke-width="1.5" d="M0,-3.0v7 M-2.5,-0.5L0,-3.0L2.5,-0.5"/>
                </g>
        </g>
        <svg viewBox="0 0 15 15" width="100%" height="30px" preserveAspectRatio="xMaxYMin meet">
         <g id="arrow_out" transform="scale(0.3 0.3)">
          <a xlink:href="a00021_org.svg" target="_base">
           <rect id="button" ry="5" rx="5" y="6" x="6" height="38" width="38"
                fill="#f2f5e9" fill-opacity="0.5" stroke="#606060" stroke-width="1.0"/>
           <path id="arrow"
             d="M 11.500037,31.436501 C 11.940474,20.09759 22.043105,11.32322 32.158766,21.979434 L 37.068811,17.246167 C 37.068811,17.246167 37.088388,32 37.088388,32 L 22.160133,31.978069 C 22.160133,31.978069 26.997745,27.140456 26.997745,27.140456 C 18.528582,18.264221 13.291696,25.230495 11.500037,31.436501 z"
             style="fill:#404040;"/>
          </a>
         </g>
        </svg>
</svg>
