<?xml version="1.0" encoding="UTF-8" standalone="no"?>
<!DOCTYPE svg PUBLIC "-//W3C//DTD SVG 1.1//EN"
 "http://www.w3.org/Graphics/SVG/1.1/DTD/svg11.dtd">
<!-- Generated by graphviz version 2.40.1 (20161225.0304)
 -->
<!-- Title: stegx_check_compatibility Pages: 1 -->
<svg width="551pt" height="218pt"
 viewBox="0.00 0.00 551.00 218.00" xmlns="http://www.w3.org/2000/svg" xmlns:xlink="http://www.w3.org/1999/xlink">
<g id="graph0" class="graph" transform="scale(1 1) rotate(0) translate(4 214)">
<title>stegx_check_compatibility</title>
<polygon fill="#ffffff" stroke="transparent" points="-4,4 -4,-214 547,-214 547,4 -4,4"/>
<!-- Node0 -->
<g id="node1" class="node">
<title>Node0</title>
<polygon fill="#bfbfbf" stroke="#000000" points="0,-95.5 0,-114.5 132,-114.5 132,-95.5 0,-95.5"/>
<text text-anchor="middle" x="66" y="-102.5" font-family="Helvetica,sans-Serif" font-size="10.00" fill="#000000">stegx_check_compatibility</text>
</g>
<!-- Node1 -->
<g id="node2" class="node">
<title>Node1</title>
<g id="a_node2"><a xlink:href="a00044.xhtml#aa5fe126b37cde4faccaaf190a3b977d3" target="_top" xlink:title="Retourne le type du fichier. ">
<polygon fill="#ffffff" stroke="#000000" points="168,-95.5 168,-114.5 262,-114.5 262,-95.5 168,-95.5"/>
<text text-anchor="middle" x="215" y="-102.5" font-family="Helvetica,sans-Serif" font-size="10.00" fill="#000000">check_file_format</text>
</a>
</g>
</g>
<!-- Node0&#45;&gt;Node1 -->
<g id="edge1" class="edge">
<title>Node0&#45;&gt;Node1</title>
<path fill="none" stroke="#191970" d="M132.2213,-105C140.7307,-105 149.3861,-105 157.7358,-105"/>
<polygon fill="#191970" stroke="#191970" points="157.7388,-108.5001 167.7387,-105 157.7387,-101.5001 157.7388,-108.5001"/>
</g>
<!-- Node2 -->
<g id="node3" class="node">
<title>Node2</title>
<g id="a_node3"><a xlink:href="a00074.xhtml#a9981cb05f84d85245b570a20ece33548" target="_top" xlink:title="Test si le fichier est un fichier BMP. ">
<polygon fill="#ffffff" stroke="#000000" points="298,-190.5 298,-209.5 402,-209.5 402,-190.5 298,-190.5"/>
<text text-anchor="middle" x="350" y="-197.5" font-family="Helvetica,sans-Serif" font-size="10.00" fill="#000000">stegx_test_file_bmp</text>
</a>
</g>
</g>
<!-- Node1&#45;&gt;Node2 -->
<g id="edge2" class="edge">
<title>Node1&#45;&gt;Node2</title>
<path fill="none" stroke="#191970" d="M223.2567,-114.7078C237.1991,-130.5626 266.9403,-162.1337 298,-181 301.2294,-182.9616 304.6933,-184.7688 308.2434,-186.4228"/>
<polygon fill="#191970" stroke="#191970" points="307.1672,-189.7679 317.7405,-190.4438 309.8965,-183.3219 307.1672,-189.7679"/>
</g>
<!-- Node3 -->
<g id="node4" class="node">
<title>Node3</title>
<g id="a_node4"><a xlink:href="a00092.xhtml#a576071ea25bd3721014ca3e596adcdfb" target="_top" xlink:title="Test si le fichier est un fichier PNG. ">
<polygon fill="#ffffff" stroke="#000000" points="299.5,-152.5 299.5,-171.5 400.5,-171.5 400.5,-152.5 299.5,-152.5"/>
<text text-anchor="middle" x="350" y="-159.5" font-family="Helvetica,sans-Serif" font-size="10.00" fill="#000000">stegx_test_file_png</text>
</a>
</g>
</g>
<!-- Node1&#45;&gt;Node3 -->
<g id="edge3" class="edge">
<title>Node1&#45;&gt;Node3</title>
<path fill="none" stroke="#191970" d="M234.5964,-114.5031C251.2949,-122.4723 276.0113,-133.9658 298,-143 302.8217,-144.981 307.9342,-146.9754 312.998,-148.8886"/>
<polygon fill="#191970" stroke="#191970" points="311.9933,-152.2489 322.5864,-152.4428 314.4264,-145.6853 311.9933,-152.2489"/>
</g>
<!-- Node4 -->
<g id="node5" class="node">
<title>Node4</title>
<g id="a_node5"><a xlink:href="a00101.xhtml#ade2af55cc4dbaf47d31e91a4681415f1" target="_top" xlink:title="Test si le fichier est un fichier WAVE. ">
<polygon fill="#ffffff" stroke="#000000" points="298,-114.5 298,-133.5 402,-133.5 402,-114.5 298,-114.5"/>
<text text-anchor="middle" x="350" y="-121.5" font-family="Helvetica,sans-Serif" font-size="10.00" fill="#000000">stegx_test_file_wav</text>
</a>
</g>
</g>
<!-- Node1&#45;&gt;Node4 -->
<g id="edge4" class="edge">
<title>Node1&#45;&gt;Node4</title>
<path fill="none" stroke="#191970" d="M262.2164,-111.6453C270.5233,-112.8144 279.282,-114.0471 287.9214,-115.263"/>
<polygon fill="#191970" stroke="#191970" points="287.5842,-118.75 297.9744,-116.6779 288.5599,-111.8183 287.5842,-118.75"/>
</g>
<!-- Node5 -->
<g id="node6" class="node">
<title>Node5</title>
<g id="a_node6"><a xlink:href="a00086.xhtml#a581193a38ac3c779c8920bd3be9883fc" target="_top" xlink:title="Test si le fichier est un fichier MP3. ">
<polygon fill="#ffffff" stroke="#000000" points="298,-76.5 298,-95.5 402,-95.5 402,-76.5 298,-76.5"/>
<text text-anchor="middle" x="350" y="-83.5" font-family="Helvetica,sans-Serif" font-size="10.00" fill="#000000">stegx_test_file_mp3</text>
</a>
</g>
</g>
<!-- Node1&#45;&gt;Node5 -->
<g id="edge5" class="edge">
<title>Node1&#45;&gt;Node5</title>
<path fill="none" stroke="#191970" d="M262.2164,-98.3547C270.5233,-97.1856 279.282,-95.9529 287.9214,-94.737"/>
<polygon fill="#191970" stroke="#191970" points="288.5599,-98.1817 297.9744,-93.3221 287.5842,-91.25 288.5599,-98.1817"/>
</g>
<!-- Node9 -->
<g id="node10" class="node">
<title>Node9</title>
<g id="a_node10"><a xlink:href="a00068.xhtml#a219859c3514ef04eb40cb27845b208b0" target="_top" xlink:title="Test si le fichier est un fichier AVI. ">
<polygon fill="#ffffff" stroke="#000000" points="301,-38.5 301,-57.5 399,-57.5 399,-38.5 301,-38.5"/>
<text text-anchor="middle" x="350" y="-45.5" font-family="Helvetica,sans-Serif" font-size="10.00" fill="#000000">stegx_test_file_avi</text>
</a>
</g>
</g>
<!-- Node1&#45;&gt;Node9 -->
<g id="edge9" class="edge">
<title>Node1&#45;&gt;Node9</title>
<path fill="none" stroke="#191970" d="M234.5964,-95.4969C251.2949,-87.5277 276.0113,-76.0342 298,-67 302.8217,-65.019 307.9342,-63.0246 312.998,-61.1114"/>
<polygon fill="#191970" stroke="#191970" points="314.4264,-64.3147 322.5864,-57.5572 311.9933,-57.7511 314.4264,-64.3147"/>
</g>
<!-- Node10 -->
<g id="node11" class="node">
<title>Node10</title>
<g id="a_node11"><a xlink:href="a00080.xhtml#aeb8aa72db41eb744e933e7fed2a920a7" target="_top" xlink:title="Test si le fichier est un fichier FLV. ">
<polygon fill="#ffffff" stroke="#000000" points="302,-.5 302,-19.5 398,-19.5 398,-.5 302,-.5"/>
<text text-anchor="middle" x="350" y="-7.5" font-family="Helvetica,sans-Serif" font-size="10.00" fill="#000000">stegx_test_file_flv</text>
</a>
</g>
</g>
<!-- Node1&#45;&gt;Node10 -->
<g id="edge10" class="edge">
<title>Node1&#45;&gt;Node10</title>
<path fill="none" stroke="#191970" d="M223.2567,-95.2922C237.1991,-79.4374 266.9403,-47.8663 298,-29 301.2294,-27.0384 304.6933,-25.2312 308.2434,-23.5772"/>
<polygon fill="#191970" stroke="#191970" points="309.8965,-26.6781 317.7405,-19.5562 307.1672,-20.2321 309.8965,-26.6781"/>
</g>
<!-- Node6 -->
<g id="node7" class="node">
<title>Node6</title>
<g id="a_node7"><a xlink:href="a00056.xhtml#a7434fd197d31a9571f92f9dca4f212e9" target="_top" xlink:title="Convertit un nombre en big endian dans l&#39;endian de la machine. ">
<polygon fill="#ffffff" stroke="#000000" points="450.5,-114.5 450.5,-133.5 530.5,-133.5 530.5,-114.5 450.5,-114.5"/>
<text text-anchor="middle" x="490.5" y="-121.5" font-family="Helvetica,sans-Serif" font-size="10.00" fill="#000000">stegx_be32toh</text>
</a>
</g>
</g>
<!-- Node5&#45;&gt;Node6 -->
<g id="edge6" class="edge">
<title>Node5&#45;&gt;Node6</title>
<path fill="none" stroke="#191970" d="M385.4541,-95.589C403.5913,-100.4944 425.8684,-106.5196 445.2334,-111.7571"/>
<polygon fill="#191970" stroke="#191970" points="444.4903,-115.1818 455.0573,-114.4141 446.3179,-108.4246 444.4903,-115.1818"/>
</g>
<!-- Node7 -->
<g id="node8" class="node">
<title>Node7</title>
<g id="a_node8"><a xlink:href="a00086.xhtml#ad5c1775e3137194eae404a93a564ab96" target="_top" xlink:title="Test si le header est un header ID3v2. ">
<polygon fill="#ffffff" stroke="#000000" points="438.5,-76.5 438.5,-95.5 542.5,-95.5 542.5,-76.5 438.5,-76.5"/>
<text text-anchor="middle" x="490.5" y="-83.5" font-family="Helvetica,sans-Serif" font-size="10.00" fill="#000000">mp3_id3v2_hdr_test</text>
</a>
</g>
</g>
<!-- Node5&#45;&gt;Node7 -->
<g id="edge7" class="edge">
<title>Node5&#45;&gt;Node7</title>
<path fill="none" stroke="#191970" d="M402.317,-86C410.7285,-86 419.5076,-86 428.1266,-86"/>
<polygon fill="#191970" stroke="#191970" points="428.1393,-89.5001 438.1393,-86 428.1393,-82.5001 428.1393,-89.5001"/>
</g>
<!-- Node8 -->
<g id="node9" class="node">
<title>Node8</title>
<g id="a_node9"><a xlink:href="a00086.xhtml#a75bc8b052a4d00ab95b05b576918360d" target="_top" xlink:title="Test si le header est un header MPEG 1/2 Layer III. ">
<polygon fill="#ffffff" stroke="#000000" points="438,-38.5 438,-57.5 543,-57.5 543,-38.5 438,-38.5"/>
<text text-anchor="middle" x="490.5" y="-45.5" font-family="Helvetica,sans-Serif" font-size="10.00" fill="#000000">mp3_mpeg_hdr_test</text>
</a>
</g>
</g>
<!-- Node5&#45;&gt;Node8 -->
<g id="edge8" class="edge">
<title>Node5&#45;&gt;Node8</title>
<path fill="none" stroke="#191970" d="M385.4541,-76.411C403.5913,-71.5056 425.8684,-65.4804 445.2334,-60.2429"/>
<polygon fill="#191970" stroke="#191970" points="446.3179,-63.5754 455.0573,-57.5859 444.4903,-56.8182 446.3179,-63.5754"/>
</g>
</g>
</svg>
