<?xml version="1.0" encoding="UTF-8" standalone="no"?>
<!DOCTYPE svg PUBLIC "-//W3C//DTD SVG 1.1//EN"
 "http://www.w3.org/Graphics/SVG/1.1/DTD/svg11.dtd">
<!-- Generated by graphviz version 2.40.1 (20161225.0304)
 -->
<!-- Title: insert_eoc Pages: 1 -->
<svg width="305pt" height="251pt"
 viewBox="0.00 0.00 305.00 251.00" xmlns="http://www.w3.org/2000/svg" xmlns:xlink="http://www.w3.org/1999/xlink">
<g id="graph0" class="graph" transform="scale(1 1) rotate(0) translate(4 247)">
<title>insert_eoc</title>
<polygon fill="#ffffff" stroke="transparent" points="-4,4 -4,-247 301,-247 301,4 -4,4"/>
<!-- Node8 -->
<g id="node1" class="node">
<title>Node8</title>
<polygon fill="#bfbfbf" stroke="#000000" points="0,-114.5 0,-133.5 62,-133.5 62,-114.5 0,-114.5"/>
<text text-anchor="middle" x="31" y="-121.5" font-family="Helvetica,sans-Serif" font-size="10.00" fill="#000000">insert_eoc</text>
</g>
<!-- Node9 -->
<g id="node2" class="node">
<title>Node9</title>
<g id="a_node2"><a xlink:href="a00116.xhtml#a3fd0a8f9ba189acd34f864c97f059b0f" target="_top" xlink:title="Fait le mélange ou réarrange les octets selon l&#39;algorithme de protection des données. ">
<polygon fill="#ffffff" stroke="#000000" points="104,-152.5 104,-171.5 175,-171.5 175,-152.5 104,-152.5"/>
<text text-anchor="middle" x="139.5" y="-159.5" font-family="Helvetica,sans-Serif" font-size="10.00" fill="#000000">protect_data</text>
</a>
</g>
</g>
<!-- Node8&#45;&gt;Node9 -->
<g id="edge1" class="edge">
<title>Node8&#45;&gt;Node9</title>
<path fill="none" stroke="#191970" d="M58.3791,-133.589C71.743,-138.2694 88.0172,-143.9692 102.4716,-149.0315"/>
<polygon fill="#191970" stroke="#191970" points="101.5348,-152.4118 112.1296,-152.4141 103.8486,-145.8053 101.5348,-152.4118"/>
</g>
<!-- Node10 -->
<g id="node3" class="node">
<title>Node10</title>
<g id="a_node3"><a xlink:href="a00122.xhtml#a4e9a217b960dc65fd08dff9f78e317e4" target="_top" xlink:title="Initialise la seed de la suite pseudo aléatoire. ">
<polygon fill="#ffffff" stroke="#000000" points="222,-223.5 222,-242.5 292,-242.5 292,-223.5 222,-223.5"/>
<text text-anchor="middle" x="257" y="-230.5" font-family="Helvetica,sans-Serif" font-size="10.00" fill="#000000">stegx_srand</text>
</a>
</g>
</g>
<!-- Node8&#45;&gt;Node10 -->
<g id="edge6" class="edge">
<title>Node8&#45;&gt;Node10</title>
<path fill="none" stroke="#191970" d="M36.3726,-133.7457C46.2152,-150.6057 68.8355,-185.0358 98,-202 132.6594,-222.1604 178.0287,-229.4803 211.4291,-232.0091"/>
<polygon fill="#191970" stroke="#191970" points="211.6216,-235.5284 221.8241,-232.6719 212.0671,-228.5425 211.6216,-235.5284"/>
</g>
<!-- Node11 -->
<g id="node4" class="node">
<title>Node11</title>
<g id="a_node4"><a xlink:href="a00122.xhtml#a2a891bbe3514201de3cfc5acced104b7" target="_top" xlink:title="Cree un seed a partir d&#39;un mot de passe. ">
<polygon fill="#ffffff" stroke="#000000" points="222,-180.5 222,-199.5 292,-199.5 292,-180.5 222,-180.5"/>
<text text-anchor="middle" x="257" y="-187.5" font-family="Helvetica,sans-Serif" font-size="10.00" fill="#000000">create_seed</text>
</a>
</g>
</g>
<!-- Node8&#45;&gt;Node11 -->
<g id="edge7" class="edge">
<title>Node8&#45;&gt;Node11</title>
<path fill="none" stroke="#191970" d="M38.8408,-133.8368C50.2292,-147.2871 72.7627,-170.8984 98,-181 134.2482,-195.5089 178.8881,-196.7494 211.6313,-194.945"/>
<polygon fill="#191970" stroke="#191970" points="212.0738,-198.4234 221.8185,-194.2651 211.6076,-191.4389 212.0738,-198.4234"/>
</g>
<!-- Node12 -->
<g id="node5" class="node">
<title>Node12</title>
<g id="a_node5"><a xlink:href="a00122.xhtml#a9966534d45c62d0df7a3d5df48668715" target="_top" xlink:title="Renvoie un entier pseudo&#45;aléatoire. ">
<polygon fill="#ffffff" stroke="#000000" points="224.5,-133.5 224.5,-152.5 289.5,-152.5 289.5,-133.5 224.5,-133.5"/>
<text text-anchor="middle" x="257" y="-140.5" font-family="Helvetica,sans-Serif" font-size="10.00" fill="#000000">stegx_rand</text>
</a>
</g>
</g>
<!-- Node8&#45;&gt;Node12 -->
<g id="edge8" class="edge">
<title>Node8&#45;&gt;Node12</title>
<path fill="none" stroke="#191970" d="M62.4243,-126.6419C101.9485,-129.9647 169.983,-135.6844 214.2244,-139.4038"/>
<polygon fill="#191970" stroke="#191970" points="214.1209,-142.9074 224.379,-140.2575 214.7074,-135.932 214.1209,-142.9074"/>
</g>
<!-- Node13 -->
<g id="node6" class="node">
<title>Node13</title>
<g id="a_node6"><a xlink:href="a00056.xhtml#a7434fd197d31a9571f92f9dca4f212e9" target="_top" xlink:title="Convertit un nombre en big endian dans l&#39;endian de la machine. ">
<polygon fill="#ffffff" stroke="#000000" points="217,-57.5 217,-76.5 297,-76.5 297,-57.5 217,-57.5"/>
<text text-anchor="middle" x="257" y="-64.5" font-family="Helvetica,sans-Serif" font-size="10.00" fill="#000000">stegx_be32toh</text>
</a>
</g>
</g>
<!-- Node8&#45;&gt;Node13 -->
<g id="edge5" class="edge">
<title>Node8&#45;&gt;Node13</title>
<path fill="none" stroke="#191970" d="M38.3875,-114.4209C49.5578,-100.8144 72.2006,-76.4896 98,-67 132.7151,-54.231 174.651,-54.8293 206.7374,-58.2997"/>
<polygon fill="#191970" stroke="#191970" points="206.4396,-61.7891 216.7873,-59.5141 207.2794,-54.8397 206.4396,-61.7891"/>
</g>
<!-- Node14 -->
<g id="node7" class="node">
<title>Node14</title>
<g id="a_node7"><a xlink:href="a00056.xhtml#aa1a29df598338a94ef478f60e90b20ba" target="_top" xlink:title="Convertit un nombre en little endian vers le big endian. ">
<polygon fill="#ffffff" stroke="#000000" points="99.5,-76.5 99.5,-95.5 179.5,-95.5 179.5,-76.5 99.5,-76.5"/>
<text text-anchor="middle" x="139.5" y="-83.5" font-family="Helvetica,sans-Serif" font-size="10.00" fill="#000000">stegx_htobe32</text>
</a>
</g>
</g>
<!-- Node8&#45;&gt;Node14 -->
<g id="edge9" class="edge">
<title>Node8&#45;&gt;Node14</title>
<path fill="none" stroke="#191970" d="M58.3791,-114.411C71.743,-109.7306 88.0172,-104.0308 102.4716,-98.9685"/>
<polygon fill="#191970" stroke="#191970" points="103.8486,-102.1947 112.1296,-95.5859 101.5348,-95.5882 103.8486,-102.1947"/>
</g>
<!-- Node15 -->
<g id="node8" class="node">
<title>Node15</title>
<g id="a_node8"><a xlink:href="a00110.xhtml#a66a71cd33131eb29010132269d237356" target="_top" xlink:title="Ecrit la signature StegX. ">
<polygon fill="#ffffff" stroke="#000000" points="98,-.5 98,-19.5 181,-19.5 181,-.5 98,-.5"/>
<text text-anchor="middle" x="139.5" y="-7.5" font-family="Helvetica,sans-Serif" font-size="10.00" fill="#000000">write_signature</text>
</a>
</g>
</g>
<!-- Node8&#45;&gt;Node15 -->
<g id="edge11" class="edge">
<title>Node8&#45;&gt;Node15</title>
<path fill="none" stroke="#191970" d="M36.3911,-114.3256C46.5949,-96.6645 70.2158,-58.7443 98,-34 101.6904,-30.7134 105.9013,-27.6603 110.1929,-24.9092"/>
<polygon fill="#191970" stroke="#191970" points="112.1536,-27.8158 118.974,-19.7082 108.5863,-21.7929 112.1536,-27.8158"/>
</g>
<!-- Node9&#45;&gt;Node10 -->
<g id="edge2" class="edge">
<title>Node9&#45;&gt;Node10</title>
<path fill="none" stroke="#191970" d="M155.2206,-171.5636C170.8685,-181.0759 195.5761,-196.0767 217,-209 221.9409,-211.9804 227.23,-215.1609 232.2907,-218.1993"/>
<polygon fill="#191970" stroke="#191970" points="230.6529,-221.2982 241.0288,-223.4408 234.2537,-215.2953 230.6529,-221.2982"/>
</g>
<!-- Node9&#45;&gt;Node11 -->
<g id="edge3" class="edge">
<title>Node9&#45;&gt;Node11</title>
<path fill="none" stroke="#191970" d="M175.0727,-170.4769C186.6821,-173.2434 199.7295,-176.3526 211.9412,-179.2626"/>
<polygon fill="#191970" stroke="#191970" points="211.4135,-182.7348 221.9525,-181.6483 213.0362,-175.9254 211.4135,-182.7348"/>
</g>
<!-- Node9&#45;&gt;Node12 -->
<g id="edge4" class="edge">
<title>Node9&#45;&gt;Node12</title>
<path fill="none" stroke="#191970" d="M175.0727,-156.2478C187.4378,-154.2484 201.4341,-151.9851 214.3145,-149.9023"/>
<polygon fill="#191970" stroke="#191970" points="215.0396,-153.3306 224.3526,-148.2792 213.9221,-146.4204 215.0396,-153.3306"/>
</g>
<!-- Node14&#45;&gt;Node13 -->
<g id="edge10" class="edge">
<title>Node14&#45;&gt;Node13</title>
<path fill="none" stroke="#191970" d="M179.6082,-79.5144C188.3028,-78.1085 197.6051,-76.6043 206.6374,-75.1437"/>
<polygon fill="#191970" stroke="#191970" points="207.3606,-78.5723 216.6736,-73.5209 206.2431,-71.6621 207.3606,-78.5723"/>
</g>
</g>
</svg>
