<?xml version="1.0" encoding="UTF-8" standalone="no"?>
<!DOCTYPE svg PUBLIC "-//W3C//DTD SVG 1.1//EN"
 "http://www.w3.org/Graphics/SVG/1.1/DTD/svg11.dtd">
<!-- Generated by graphviz version 2.40.1 (20161225.0304)
 -->
<!-- Title: stegx_detect_algo Pages: 1 -->
<!--zoomable 411 -->
<svg id="main" version="1.1" xmlns="http://www.w3.org/2000/svg" xmlns:xlink="http://www.w3.org/1999/xlink" xml:space="preserve" onload="init(evt)">
<style type="text/css"><![CDATA[
.edge:hover path { stroke: red; }
.edge:hover polygon { stroke: red; fill: red; }
]]></style>
<script type="text/javascript"><![CDATA[
var edges = document.getElementsByTagName('g');
if (edges && edges.length) {
  for (var i=0;i<edges.length;i++) {
    if (edges[i].id.substr(0,4)=='edge') {
      edges[i].setAttribute('class','edge');
    }
  }
}
]]></script>
        <defs>
                <circle id="rim" cx="0" cy="0" r="7"/>
                <circle id="rim2" cx="0" cy="0" r="3.5"/>
                <g id="zoomPlus">
                        <use xlink:href="#rim" fill="#404040">
                                <set attributeName="fill" to="#808080" begin="zoomplus.mouseover" end="zoomplus.mouseout"/>
                        </use>
                        <path d="M-4,0h8M0,-4v8" fill="none" stroke="white" stroke-width="1.5" pointer-events="none"/>
                </g>
                <g id="zoomMin">
                        <use xlink:href="#rim" fill="#404040">
                                <set attributeName="fill" to="#808080" begin="zoomminus.mouseover" end="zoomminus.mouseout"/>
                        </use>
                        <path d="M-4,0h8" fill="none" stroke="white" stroke-width="1.5" pointer-events="none"/>
                </g>
                <g id="dirArrow">
                        <path fill="none" stroke="white" stroke-width="1.5" d="M0,-3.0v7 M-2.5,-0.5L0,-3.0L2.5,-0.5"/>
                </g>
               <g id="resetDef">
                       <use xlink:href="#rim2" fill="#404040">
                               <set attributeName="fill" to="#808080" begin="reset.mouseover" end="reset.mouseout"/>
                       </use>
               </g>
        </defs>

<script type="text/javascript">
var viewWidth = 1036;
var viewHeight = 411;
var sectionId = 'dynsection-3';
</script>
<script xlink:href="svgpan.js"/>
<svg id="graph" class="graph">
<g id="viewport">
<title>stegx_detect_algo</title>
<polygon fill="#ffffff" stroke="transparent" points="-4,4 -4,-406.7683 1032,-406.7683 1032,4 -4,4"/>
<!-- Node18 -->
<g id="node1" class="node">
<title>Node18</title>
<polygon fill="#bfbfbf" stroke="#000000" points="0,-190.5 0,-209.5 96,-209.5 96,-190.5 0,-190.5"/>
<text text-anchor="middle" x="48" y="-197.5" font-family="Helvetica,sans-Serif" font-size="10.00" fill="#000000">stegx_detect_algo</text>
</g>
<!-- Node19 -->
<g id="node2" class="node">
<title>Node19</title>
<g id="a_node2"><a xlink:href="a00128.xhtml#a5501c9c7711252fa8d85ff12cb3390dc" target="_top" xlink:title="Remplit les informations du fichier hôte. ">
<polygon fill="#ffffff" stroke="#000000" points="136.5,-209.5 136.5,-228.5 207.5,-228.5 207.5,-209.5 136.5,-209.5"/>
<text text-anchor="middle" x="172" y="-216.5" font-family="Helvetica,sans-Serif" font-size="10.00" fill="#000000">fill_host_info</text>
</a>
</g>
</g>
<!-- Node18&#45;&gt;Node19 -->
<g id="edge1" class="edge">
<title>Node18&#45;&gt;Node19</title>
<path fill="none" stroke="#191970" d="M96.2967,-207.4003C106.1889,-208.916 116.571,-210.5068 126.3661,-212.0077"/>
<polygon fill="#191970" stroke="#191970" points="125.9012,-215.4772 136.316,-213.5323 126.9615,-208.558 125.9012,-215.4772"/>
</g>
<!-- Node34 -->
<g id="node17" class="node">
<title>Node34</title>
<g id="a_node17"><a xlink:href="a00050.xhtml#a4ff8628a8b7e85f4a4b8dda0d66c23b5" target="_top" xlink:title="Lit la signature contenu dans le fichier hôte. ">
<polygon fill="#ffffff" stroke="#000000" points="132,-171.5 132,-190.5 212,-190.5 212,-171.5 132,-171.5"/>
<text text-anchor="middle" x="172" y="-178.5" font-family="Helvetica,sans-Serif" font-size="10.00" fill="#000000">read_signature</text>
</a>
</g>
</g>
<!-- Node18&#45;&gt;Node34 -->
<g id="edge26" class="edge">
<title>Node18&#45;&gt;Node34</title>
<path fill="none" stroke="#191970" d="M96.2967,-192.5997C104.6121,-191.3256 113.2737,-189.9984 121.6418,-188.7162"/>
<polygon fill="#191970" stroke="#191970" points="122.3059,-192.1554 131.6604,-187.1811 121.2457,-185.2361 122.3059,-192.1554"/>
</g>
<!-- Node20 -->
<g id="node3" class="node">
<title>Node20</title>
<g id="a_node3"><a xlink:href="a00056.xhtml#a7434fd197d31a9571f92f9dca4f212e9" target="_top" xlink:title="Convertit un nombre en big endian dans l&#39;endian de la machine. ">
<polygon fill="#ffffff" stroke="#000000" points="598,-380.5 598,-399.5 678,-399.5 678,-380.5 598,-380.5"/>
<text text-anchor="middle" x="638" y="-387.5" font-family="Helvetica,sans-Serif" font-size="10.00" fill="#000000">stegx_be32toh</text>
</a>
</g>
</g>
<!-- Node19&#45;&gt;Node20 -->
<g id="edge2" class="edge">
<title>Node19&#45;&gt;Node20</title>
<path fill="none" stroke="#191970" d="M176.0159,-228.6756C185.451,-250.306 211.0578,-303.0253 248,-333 305.6154,-379.7488 330.1432,-380.9691 403,-395 465.7182,-407.0784 539.5882,-402.5186 587.5299,-397.1506"/>
<polygon fill="#191970" stroke="#191970" points="588.1262,-400.6047 597.6497,-395.9621 587.3097,-393.6525 588.1262,-400.6047"/>
</g>
<!-- Node21 -->
<g id="node4" class="node">
<title>Node21</title>
<g id="a_node4"><a xlink:href="a00086.xhtml#afc3c44f7f4f0993fbc17c150c728e677" target="_top" xlink:title="Trouve la première frame MPEG 1/2 Layer III. ">
<polygon fill="#ffffff" stroke="#000000" points="248,-304.5 248,-323.5 367,-323.5 367,-304.5 248,-304.5"/>
<text text-anchor="middle" x="307.5" y="-311.5" font-family="Helvetica,sans-Serif" font-size="10.00" fill="#000000">mp3_mpeg_fr_find_first</text>
</a>
</g>
</g>
<!-- Node19&#45;&gt;Node21 -->
<g id="edge3" class="edge">
<title>Node19&#45;&gt;Node21</title>
<path fill="none" stroke="#191970" d="M185.7381,-228.6319C209.1725,-245.0619 257.0724,-278.6449 285.3058,-298.4395"/>
<polygon fill="#191970" stroke="#191970" points="283.5282,-301.4677 293.7255,-304.3426 287.5467,-295.736 283.5282,-301.4677"/>
</g>
<!-- Node25 -->
<g id="node8" class="node">
<title>Node25</title>
<g id="a_node8"><a xlink:href="a00086.xhtml#a75bc8b052a4d00ab95b05b576918360d" target="_top" xlink:title="Test si le header est un header MPEG 1/2 Layer III. ">
<polygon fill="#ffffff" stroke="#000000" points="923,-133.5 923,-152.5 1028,-152.5 1028,-133.5 923,-133.5"/>
<text text-anchor="middle" x="975.5" y="-140.5" font-family="Helvetica,sans-Serif" font-size="10.00" fill="#000000">mp3_mpeg_hdr_test</text>
</a>
</g>
</g>
<!-- Node19&#45;&gt;Node25 -->
<g id="edge10" class="edge">
<title>Node19&#45;&gt;Node25</title>
<path fill="none" stroke="#191970" d="M207.6439,-222.7993C262.8296,-228.344 372.3127,-238 465.5,-238 465.5,-238 465.5,-238 638,-238 751.1458,-238 779.8284,-221.2798 887,-185 908.7472,-177.6381 932.169,-166.3609 949.4515,-157.345"/>
<polygon fill="#191970" stroke="#191970" points="951.1812,-160.3894 958.3716,-152.6081 947.8981,-154.2071 951.1812,-160.3894"/>
</g>
<!-- Node26 -->
<g id="node9" class="node">
<title>Node26</title>
<g id="a_node9"><a xlink:href="a00086.xhtml#aee166f42b332d8c5b51d25a9ef8c14b7" target="_top" xlink:title="Saute la frame MP3 actuelle. ">
<polygon fill="#ffffff" stroke="#000000" points="256.5,-190.5 256.5,-209.5 358.5,-209.5 358.5,-190.5 256.5,-190.5"/>
<text text-anchor="middle" x="307.5" y="-197.5" font-family="Helvetica,sans-Serif" font-size="10.00" fill="#000000">mp3_mpeg_fr_seek</text>
</a>
</g>
</g>
<!-- Node19&#45;&gt;Node26 -->
<g id="edge11" class="edge">
<title>Node19&#45;&gt;Node26</title>
<path fill="none" stroke="#191970" d="M207.601,-214.008C219.4729,-212.3433 233.0593,-210.4382 246.3081,-208.5804"/>
<polygon fill="#191970" stroke="#191970" points="246.9226,-212.0286 256.3396,-207.1738 245.9505,-205.0964 246.9226,-212.0286"/>
</g>
<!-- Node32 -->
<g id="node15" class="node">
<title>Node32</title>
<g id="a_node15"><a xlink:href="a00086.xhtml#aaccf359620da01d34de43ba7ce7f3513" target="_top" xlink:title="Test si le header est un header ID3v1. ">
<polygon fill="#ffffff" stroke="#000000" points="255.5,-152.5 255.5,-171.5 359.5,-171.5 359.5,-152.5 255.5,-152.5"/>
<text text-anchor="middle" x="307.5" y="-159.5" font-family="Helvetica,sans-Serif" font-size="10.00" fill="#000000">mp3_id3v1_hdr_test</text>
</a>
</g>
</g>
<!-- Node19&#45;&gt;Node32 -->
<g id="edge24" class="edge">
<title>Node19&#45;&gt;Node32</title>
<path fill="none" stroke="#191970" d="M192.4296,-209.4992C198.732,-206.5138 205.6765,-203.1688 212,-200 228.1745,-191.8948 231.3179,-188.0012 248,-181 253.1869,-178.8231 258.7149,-176.7483 264.2327,-174.8236"/>
<polygon fill="#191970" stroke="#191970" points="265.704,-178.0222 274.0779,-171.5316 263.4841,-171.3835 265.704,-178.0222"/>
</g>
<!-- Node33 -->
<g id="node16" class="node">
<title>Node33</title>
<g id="a_node16"><a xlink:href="a00086.xhtml#ab0fd93a465f2e320e749093c17f20823" target="_top" xlink:title="Saute le tag ID3v1 actuel. ">
<polygon fill="#ffffff" stroke="#000000" points="253,-114.5 253,-133.5 362,-133.5 362,-114.5 253,-114.5"/>
<text text-anchor="middle" x="307.5" y="-121.5" font-family="Helvetica,sans-Serif" font-size="10.00" fill="#000000">mp3_id3v1_tag_seek</text>
</a>
</g>
</g>
<!-- Node19&#45;&gt;Node33 -->
<g id="edge25" class="edge">
<title>Node19&#45;&gt;Node33</title>
<path fill="none" stroke="#191970" d="M197.869,-209.3553C202.8825,-206.7824 207.8585,-203.6726 212,-200 234.418,-180.1201 224.2981,-161.3302 248,-143 250.3321,-141.1964 252.8399,-139.5617 255.4599,-138.0802"/>
<polygon fill="#191970" stroke="#191970" points="257.2264,-141.1138 264.7071,-133.6111 254.1804,-134.8112 257.2264,-141.1138"/>
</g>
<!-- Node21&#45;&gt;Node20 -->
<g id="edge4" class="edge">
<title>Node21&#45;&gt;Node20</title>
<path fill="none" stroke="#191970" d="M319.287,-323.512C336.5052,-336.8018 370.0788,-360.4765 403,-371 464.386,-390.6224 539.1548,-393.2951 587.6249,-392.4448"/>
<polygon fill="#191970" stroke="#191970" points="587.9385,-395.9385 597.854,-392.206 587.775,-388.9404 587.9385,-395.9385"/>
</g>
<!-- Node22 -->
<g id="node5" class="node">
<title>Node22</title>
<g id="a_node5"><a xlink:href="a00086.xhtml#ad5c1775e3137194eae404a93a564ab96" target="_top" xlink:title="Test si le header est un header ID3v2. ">
<polygon fill="#ffffff" stroke="#000000" points="413.5,-342.5 413.5,-361.5 517.5,-361.5 517.5,-342.5 413.5,-342.5"/>
<text text-anchor="middle" x="465.5" y="-349.5" font-family="Helvetica,sans-Serif" font-size="10.00" fill="#000000">mp3_id3v2_hdr_test</text>
</a>
</g>
</g>
<!-- Node21&#45;&gt;Node22 -->
<g id="edge5" class="edge">
<title>Node21&#45;&gt;Node22</title>
<path fill="none" stroke="#191970" d="M347.3701,-323.589C368.2199,-328.6035 393.9346,-334.7881 416.0429,-340.1053"/>
<polygon fill="#191970" stroke="#191970" points="415.3754,-343.5445 425.9166,-342.4799 417.0123,-336.7385 415.3754,-343.5445"/>
</g>
<!-- Node23 -->
<g id="node6" class="node">
<title>Node23</title>
<g id="a_node6"><a xlink:href="a00086.xhtml#acc4a0b82043fbdeadb8c669eda06d2cb" target="_top" xlink:title="Saute le tag ID3v2 actuel. ">
<polygon fill="#ffffff" stroke="#000000" points="411,-304.5 411,-323.5 520,-323.5 520,-304.5 411,-304.5"/>
<text text-anchor="middle" x="465.5" y="-311.5" font-family="Helvetica,sans-Serif" font-size="10.00" fill="#000000">mp3_id3v2_tag_seek</text>
</a>
</g>
</g>
<!-- Node21&#45;&gt;Node23 -->
<g id="edge6" class="edge">
<title>Node21&#45;&gt;Node23</title>
<path fill="none" stroke="#191970" d="M367.233,-314C378.2057,-314 389.7066,-314 400.8165,-314"/>
<polygon fill="#191970" stroke="#191970" points="400.8834,-317.5001 410.8834,-314 400.8833,-310.5001 400.8834,-317.5001"/>
</g>
<!-- Node21&#45;&gt;Node25 -->
<g id="edge9" class="edge">
<title>Node21&#45;&gt;Node25</title>
<path fill="none" stroke="#191970" d="M350.5922,-304.402C366.9386,-301.0315 385.7645,-297.4728 403,-295 509.8847,-279.665 791.6613,-302.6956 887,-252 925.19,-231.6927 952.9575,-187.1681 966.4026,-161.7551"/>
<polygon fill="#191970" stroke="#191970" points="969.5711,-163.2458 970.9907,-152.7465 963.3335,-160.069 969.5711,-163.2458"/>
</g>
<!-- Node23&#45;&gt;Node20 -->
<g id="edge8" class="edge">
<title>Node23&#45;&gt;Node20</title>
<path fill="none" stroke="#191970" d="M500.9332,-323.541C509.8788,-326.2841 519.3867,-329.4936 528,-333 558.0214,-345.2215 590.8159,-362.8064 612.7152,-375.2051"/>
<polygon fill="#191970" stroke="#191970" points="611.2597,-378.4047 621.6773,-380.3345 614.7369,-372.3294 611.2597,-378.4047"/>
</g>
<!-- Node24 -->
<g id="node7" class="node">
<title>Node24</title>
<g id="a_node7"><a xlink:href="a00086.xhtml#a98007b4129951e18b3ba95b3d5ad973e" target="_top" xlink:title="Retire la sécurité de synchronisation de la taille d&#39;un tag ID3v2. ">
<polygon fill="#ffffff" stroke="#000000" points="566.5,-304.5 566.5,-323.5 709.5,-323.5 709.5,-304.5 566.5,-304.5"/>
<text text-anchor="middle" x="638" y="-311.5" font-family="Helvetica,sans-Serif" font-size="10.00" fill="#000000">mp3_id3v2_size_unsyncsafe</text>
</a>
</g>
</g>
<!-- Node23&#45;&gt;Node24 -->
<g id="edge7" class="edge">
<title>Node23&#45;&gt;Node24</title>
<path fill="none" stroke="#191970" d="M520.0801,-314C531.57,-314 543.9307,-314 556.1722,-314"/>
<polygon fill="#191970" stroke="#191970" points="556.4055,-317.5001 566.4054,-314 556.4054,-310.5001 556.4055,-317.5001"/>
</g>
<!-- Node26&#45;&gt;Node25 -->
<g id="edge12" class="edge">
<title>Node26&#45;&gt;Node25</title>
<path fill="none" stroke="#191970" d="M358.5783,-199.7501C459.9108,-198.611 693.3194,-192.7791 887,-164 901.58,-161.8335 917.2937,-158.455 931.376,-155.0363"/>
<polygon fill="#191970" stroke="#191970" points="932.4486,-158.376 941.3021,-152.5567 930.752,-151.5847 932.4486,-158.376"/>
</g>
<!-- Node27 -->
<g id="node10" class="node">
<title>Node27</title>
<g id="a_node10"><a xlink:href="a00086.xhtml#a3f5f1c770ad5013ccf94bce56b7d0a04" target="_top" xlink:title="Obtient la taille d&#39;une frame MP3. ">
<polygon fill="#ffffff" stroke="#000000" points="403,-114.5 403,-133.5 528,-133.5 528,-114.5 403,-114.5"/>
<text text-anchor="middle" x="465.5" y="-121.5" font-family="Helvetica,sans-Serif" font-size="10.00" fill="#000000">mp3_mpeg_hdr_get_size</text>
</a>
</g>
</g>
<!-- Node26&#45;&gt;Node27 -->
<g id="edge13" class="edge">
<title>Node26&#45;&gt;Node27</title>
<path fill="none" stroke="#191970" d="M341.6402,-190.4882C350.063,-187.7642 358.9687,-184.5562 367,-181 394.1367,-168.9841 423.3403,-151.4446 442.8424,-139.0006"/>
<polygon fill="#191970" stroke="#191970" points="444.8328,-141.8816 451.3314,-133.5139 441.033,-136.0027 444.8328,-141.8816"/>
</g>
<!-- Node27&#45;&gt;Node25 -->
<g id="edge14" class="edge">
<title>Node27&#45;&gt;Node25</title>
<path fill="none" stroke="#191970" d="M506.9684,-133.5596C524.4708,-137.1869 545.129,-140.9375 564,-143 686.9299,-156.4353 831.7536,-151.7018 912.6612,-147.227"/>
<polygon fill="#191970" stroke="#191970" points="912.9004,-150.7191 922.685,-146.6557 912.502,-143.7305 912.9004,-150.7191"/>
</g>
<!-- Node28 -->
<g id="node11" class="node">
<title>Node28</title>
<g id="a_node11"><a xlink:href="a00086.xhtml#aa48df36af23103ce104d13854d4cbb87" target="_top" xlink:title="Obtient la débit binaire d&#39;une frame MP3. ">
<polygon fill="#ffffff" stroke="#000000" points="571,-114.5 571,-133.5 705,-133.5 705,-114.5 571,-114.5"/>
<text text-anchor="middle" x="638" y="-121.5" font-family="Helvetica,sans-Serif" font-size="10.00" fill="#000000">mp3_mpeg_hdr_get_bitrate</text>
</a>
</g>
</g>
<!-- Node27&#45;&gt;Node28 -->
<g id="edge15" class="edge">
<title>Node27&#45;&gt;Node28</title>
<path fill="none" stroke="#191970" d="M528.2644,-124C538.7767,-124 549.7927,-124 560.6204,-124"/>
<polygon fill="#191970" stroke="#191970" points="560.9212,-127.5001 570.9212,-124 560.9211,-120.5001 560.9212,-127.5001"/>
</g>
<!-- Node30 -->
<g id="node13" class="node">
<title>Node30</title>
<g id="a_node13"><a xlink:href="a00086.xhtml#a85aeeafb97867c551e217ba3283e6fec" target="_top" xlink:title="Obtient la fréquence d&#39;échantillonage d&#39;une frame MP3. ">
<polygon fill="#ffffff" stroke="#000000" points="564,-76.5 564,-95.5 712,-95.5 712,-76.5 564,-76.5"/>
<text text-anchor="middle" x="638" y="-83.5" font-family="Helvetica,sans-Serif" font-size="10.00" fill="#000000">mp3_mpeg_hdr_get_samprate</text>
</a>
</g>
</g>
<!-- Node27&#45;&gt;Node30 -->
<g id="edge19" class="edge">
<title>Node27&#45;&gt;Node30</title>
<path fill="none" stroke="#191970" d="M509.029,-114.411C532.0999,-109.3287 560.6266,-103.0446 584.9805,-97.6797"/>
<polygon fill="#191970" stroke="#191970" points="585.7711,-101.0895 594.784,-95.5201 584.2651,-94.2534 585.7711,-101.0895"/>
</g>
<!-- Node31 -->
<g id="node14" class="node">
<title>Node31</title>
<g id="a_node14"><a xlink:href="a00086.xhtml#a407e3a1d9a7c3350620818a2ef19f142" target="_top" xlink:title="Permet de savoir si une frame MP3 contient du padding. ">
<polygon fill="#ffffff" stroke="#000000" points="750,-.5 750,-19.5 885,-19.5 885,-.5 750,-.5"/>
<text text-anchor="middle" x="817.5" y="-7.5" font-family="Helvetica,sans-Serif" font-size="10.00" fill="#000000">mp3_mpeg_hdr_is_padding</text>
</a>
</g>
</g>
<!-- Node27&#45;&gt;Node31 -->
<g id="edge22" class="edge">
<title>Node27&#45;&gt;Node31</title>
<path fill="none" stroke="#191970" d="M478.858,-114.4911C497.2035,-101.8589 531.6163,-79.668 564,-67 621.008,-44.6993 688.8097,-30.0246 739.9427,-21.1574"/>
<polygon fill="#191970" stroke="#191970" points="740.6656,-24.5848 749.939,-19.4608 739.4943,-17.6835 740.6656,-24.5848"/>
</g>
<!-- Node28&#45;&gt;Node25 -->
<g id="edge16" class="edge">
<title>Node28&#45;&gt;Node25</title>
<path fill="none" stroke="#191970" d="M705.0827,-127.7765C765.4716,-131.1762 853.5546,-136.1349 912.615,-139.4598"/>
<polygon fill="#191970" stroke="#191970" points="912.7461,-142.9726 922.927,-140.0403 913.1396,-135.9837 912.7461,-142.9726"/>
</g>
<!-- Node29 -->
<g id="node12" class="node">
<title>Node29</title>
<g id="a_node12"><a xlink:href="a00086.xhtml#a2f08a046bc257029ca74b86b48204380" target="_top" xlink:title="Obtient la version de la norme MPEG du header d&#39;une frame MP3. ">
<polygon fill="#ffffff" stroke="#000000" points="748,-76.5 748,-95.5 887,-95.5 887,-76.5 748,-76.5"/>
<text text-anchor="middle" x="817.5" y="-83.5" font-family="Helvetica,sans-Serif" font-size="10.00" fill="#000000">mp3_mpeg_hdr_get_version</text>
</a>
</g>
</g>
<!-- Node28&#45;&gt;Node29 -->
<g id="edge17" class="edge">
<title>Node28&#45;&gt;Node29</title>
<path fill="none" stroke="#191970" d="M683.2954,-114.411C707.4092,-109.3061 737.2508,-102.9887 762.6666,-97.6082"/>
<polygon fill="#191970" stroke="#191970" points="763.472,-101.0153 772.5303,-95.5201 762.0222,-94.1671 763.472,-101.0153"/>
</g>
<!-- Node29&#45;&gt;Node25 -->
<g id="edge18" class="edge">
<title>Node29&#45;&gt;Node25</title>
<path fill="none" stroke="#191970" d="M845.6221,-95.5369C858.2916,-99.8783 873.4239,-105.1256 887,-110 904.7652,-116.3785 924.4474,-123.6928 940.7308,-129.8118"/>
<polygon fill="#191970" stroke="#191970" points="939.7909,-133.1978 950.3828,-133.4482 942.2589,-126.6473 939.7909,-133.1978"/>
</g>
<!-- Node30&#45;&gt;Node25 -->
<g id="edge20" class="edge">
<title>Node30&#45;&gt;Node25</title>
<path fill="none" stroke="#191970" d="M665.9473,-76.4652C713.1554,-61.9562 810.9754,-38.8365 887,-67 918.4557,-78.6529 946.2548,-107.0414 961.9612,-125.6316"/>
<polygon fill="#191970" stroke="#191970" points="959.2599,-127.8572 968.2964,-133.3882 964.6814,-123.4291 959.2599,-127.8572"/>
</g>
<!-- Node30&#45;&gt;Node29 -->
<g id="edge21" class="edge">
<title>Node30&#45;&gt;Node29</title>
<path fill="none" stroke="#191970" d="M712.0459,-86C720.5835,-86 729.3168,-86 737.9237,-86"/>
<polygon fill="#191970" stroke="#191970" points="737.9501,-89.5001 747.9501,-86 737.9501,-82.5001 737.9501,-89.5001"/>
</g>
<!-- Node31&#45;&gt;Node25 -->
<g id="edge23" class="edge">
<title>Node31&#45;&gt;Node25</title>
<path fill="none" stroke="#191970" d="M857.5655,-19.6172C867.7127,-23.1539 878.2152,-27.8515 887,-34 921.9283,-58.4466 950.4397,-100.3677 964.9986,-124.4745"/>
<polygon fill="#191970" stroke="#191970" points="962.1188,-126.4825 970.2019,-133.3319 968.1544,-122.9368 962.1188,-126.4825"/>
</g>
</g>
</svg>
        <g id="navigator" transform="translate(0 0)" fill="#404254">
                <rect fill="#f2f5e9" fill-opacity="0.5" stroke="#606060" stroke-width=".5" x="0" y="0" width="60" height="60"/>
                <use id="zoomplus" xlink:href="#zoomPlus" x="17" y="9" onmousedown="handleZoom(evt,'in')"/>
                <use id="zoomminus" xlink:href="#zoomMin" x="42" y="9" onmousedown="handleZoom(evt,'out')"/>
                <use id="reset" xlink:href="#resetDef" x="30" y="36" onmousedown="handleReset()"/>
                <g id="arrowUp" xlink:href="#dirArrow" transform="translate(30 24)" onmousedown="handlePan(0,-1)">
                  <use xlink:href="#rim" fill="#404040">
                        <set attributeName="fill" to="#808080" begin="arrowUp.mouseover" end="arrowUp.mouseout"/>
                  </use>
                  <path fill="none" stroke="white" stroke-width="1.5" d="M0,-3.0v7 M-2.5,-0.5L0,-3.0L2.5,-0.5"/>
                </g>
                <g id="arrowRight" xlink:href="#dirArrow" transform="rotate(90) translate(36 -43)" onmousedown="handlePan(1,0)">
                  <use xlink:href="#rim" fill="#404040">
                        <set attributeName="fill" to="#808080" begin="arrowRight.mouseover" end="arrowRight.mouseout"/>
                  </use>
                  <path fill="none" stroke="white" stroke-width="1.5" d="M0,-3.0v7 M-2.5,-0.5L0,-3.0L2.5,-0.5"/>
                </g>
                <g id="arrowDown" xlink:href="#dirArrow" transform="rotate(180) translate(-30 -48)" onmousedown="handlePan(0,1)">
                  <use xlink:href="#rim" fill="#404040">
                        <set attributeName="fill" to="#808080" begin="arrowDown.mouseover" end="arrowDown.mouseout"/>
                  </use>
                  <path fill="none" stroke="white" stroke-width="1.5" d="M0,-3.0v7 M-2.5,-0.5L0,-3.0L2.5,-0.5"/>
                </g>
                <g id="arrowLeft" xlink:href="#dirArrow" transform="rotate(270) translate(-36 17)" onmousedown="handlePan(-1,0)">
                  <use xlink:href="#rim" fill="#404040">
                        <set attributeName="fill" to="#808080" begin="arrowLeft.mouseover" end="arrowLeft.mouseout"/>
                  </use>
                  <path fill="none" stroke="white" stroke-width="1.5" d="M0,-3.0v7 M-2.5,-0.5L0,-3.0L2.5,-0.5"/>
                </g>
        </g>
        <svg viewBox="0 0 15 15" width="100%" height="30px" preserveAspectRatio="xMaxYMin meet">
         <g id="arrow_out" transform="scale(0.3 0.3)">
          <a xlink:href="a00005_a2a3747fdc90ed4467eb3e468d8fba361_cgraph_org.svg" target="_base">
           <rect id="button" ry="5" rx="5" y="6" x="6" height="38" width="38"
                fill="#f2f5e9" fill-opacity="0.5" stroke="#606060" stroke-width="1.0"/>
           <path id="arrow"
             d="M 11.500037,31.436501 C 11.940474,20.09759 22.043105,11.32322 32.158766,21.979434 L 37.068811,17.246167 C 37.068811,17.246167 37.088388,32 37.088388,32 L 22.160133,31.978069 C 22.160133,31.978069 26.997745,27.140456 26.997745,27.140456 C 18.528582,18.264221 13.291696,25.230495 11.500037,31.436501 z"
             style="fill:#404040;"/>
          </a>
         </g>
        </svg>
</svg>
