<?xml version="1.0" encoding="UTF-8" standalone="no"?>
<!DOCTYPE svg PUBLIC "-//W3C//DTD SVG 1.1//EN"
 "http://www.w3.org/Graphics/SVG/1.1/DTD/svg11.dtd">
<!-- Generated by graphviz version 2.40.1 (20161225.0304)
 -->
<!-- Title: mp3_mpeg_hdr_get_size Pages: 1 -->
<svg width="633pt" height="151pt"
 viewBox="0.00 0.00 633.00 151.15" xmlns="http://www.w3.org/2000/svg" xmlns:xlink="http://www.w3.org/1999/xlink">
<g id="graph0" class="graph" transform="scale(1 1) rotate(0) translate(4 147.148)">
<title>mp3_mpeg_hdr_get_size</title>
<polygon fill="#ffffff" stroke="transparent" points="-4,4 -4,-147.148 629,-147.148 629,4 -4,4"/>
<!-- Node101 -->
<g id="node1" class="node">
<title>Node101</title>
<polygon fill="#bfbfbf" stroke="#000000" points="0,-76.5 0,-95.5 125,-95.5 125,-76.5 0,-76.5"/>
<text text-anchor="middle" x="62.5" y="-83.5" font-family="Helvetica,sans-Serif" font-size="10.00" fill="#000000">mp3_mpeg_hdr_get_size</text>
</g>
<!-- Node102 -->
<g id="node2" class="node">
<title>Node102</title>
<g id="a_node2"><a xlink:href="a00086.xhtml#a75bc8b052a4d00ab95b05b576918360d" target="_top" xlink:title="Test si le header est un header MPEG 1/2 Layer III. ">
<polygon fill="#ffffff" stroke="#000000" points="520,-76.5 520,-95.5 625,-95.5 625,-76.5 520,-76.5"/>
<text text-anchor="middle" x="572.5" y="-83.5" font-family="Helvetica,sans-Serif" font-size="10.00" fill="#000000">mp3_mpeg_hdr_test</text>
</a>
</g>
</g>
<!-- Node101&#45;&gt;Node102 -->
<g id="edge1" class="edge">
<title>Node101&#45;&gt;Node102</title>
<path fill="none" stroke="#191970" d="M81.1406,-95.5834C100.5092,-104.9608 131.9888,-118.598 161,-124 302.1358,-150.2802 343.2114,-149.0811 484,-121 505.1302,-116.7855 527.6976,-107.7826 544.755,-99.9634"/>
<polygon fill="#191970" stroke="#191970" points="546.5641,-102.9796 554.1089,-95.5415 543.5723,-96.6512 546.5641,-102.9796"/>
</g>
<!-- Node103 -->
<g id="node3" class="node">
<title>Node103</title>
<g id="a_node3"><a xlink:href="a00086.xhtml#aa48df36af23103ce104d13854d4cbb87" target="_top" xlink:title="Obtient la débit binaire d&#39;une frame MP3. ">
<polygon fill="#ffffff" stroke="#000000" points="168,-95.5 168,-114.5 302,-114.5 302,-95.5 168,-95.5"/>
<text text-anchor="middle" x="235" y="-102.5" font-family="Helvetica,sans-Serif" font-size="10.00" fill="#000000">mp3_mpeg_hdr_get_bitrate</text>
</a>
</g>
</g>
<!-- Node101&#45;&gt;Node103 -->
<g id="edge2" class="edge">
<title>Node101&#45;&gt;Node103</title>
<path fill="none" stroke="#191970" d="M125.2644,-92.9132C135.885,-94.083 147.0199,-95.3094 157.9552,-96.5139"/>
<polygon fill="#191970" stroke="#191970" points="157.598,-99.9956 167.9212,-97.6116 158.3645,-93.0377 157.598,-99.9956"/>
</g>
<!-- Node105 -->
<g id="node5" class="node">
<title>Node105</title>
<g id="a_node5"><a xlink:href="a00086.xhtml#a85aeeafb97867c551e217ba3283e6fec" target="_top" xlink:title="Obtient la fréquence d&#39;échantillonage d&#39;une frame MP3. ">
<polygon fill="#ffffff" stroke="#000000" points="161,-57.5 161,-76.5 309,-76.5 309,-57.5 161,-57.5"/>
<text text-anchor="middle" x="235" y="-64.5" font-family="Helvetica,sans-Serif" font-size="10.00" fill="#000000">mp3_mpeg_hdr_get_samprate</text>
</a>
</g>
</g>
<!-- Node101&#45;&gt;Node105 -->
<g id="edge6" class="edge">
<title>Node101&#45;&gt;Node105</title>
<path fill="none" stroke="#191970" d="M125.2644,-79.0868C133.5731,-78.1717 142.1965,-77.2218 150.7928,-76.275"/>
<polygon fill="#191970" stroke="#191970" points="151.2945,-79.741 160.8512,-75.1671 150.5281,-72.7831 151.2945,-79.741"/>
</g>
<!-- Node106 -->
<g id="node6" class="node">
<title>Node106</title>
<g id="a_node6"><a xlink:href="a00086.xhtml#a407e3a1d9a7c3350620818a2ef19f142" target="_top" xlink:title="Permet de savoir si une frame MP3 contient du padding. ">
<polygon fill="#ffffff" stroke="#000000" points="347,-.5 347,-19.5 482,-19.5 482,-.5 347,-.5"/>
<text text-anchor="middle" x="414.5" y="-7.5" font-family="Helvetica,sans-Serif" font-size="10.00" fill="#000000">mp3_mpeg_hdr_is_padding</text>
</a>
</g>
</g>
<!-- Node101&#45;&gt;Node106 -->
<g id="edge9" class="edge">
<title>Node101&#45;&gt;Node106</title>
<path fill="none" stroke="#191970" d="M83.1934,-76.4808C102.8268,-67.8211 133.3565,-55.3092 161,-48 218.9609,-32.6746 286.1212,-22.9556 336.7474,-17.1863"/>
<polygon fill="#191970" stroke="#191970" points="337.4152,-20.6337 346.967,-16.0497 336.6413,-13.6766 337.4152,-20.6337"/>
</g>
<!-- Node103&#45;&gt;Node102 -->
<g id="edge3" class="edge">
<title>Node103&#45;&gt;Node102</title>
<path fill="none" stroke="#191970" d="M302.0474,-108.8238C352.2831,-110.7625 422.635,-111.513 484,-105 497.947,-103.5197 512.926,-100.7622 526.5222,-97.798"/>
<polygon fill="#191970" stroke="#191970" points="527.6323,-101.1352 536.6097,-95.5087 526.083,-94.3088 527.6323,-101.1352"/>
</g>
<!-- Node104 -->
<g id="node4" class="node">
<title>Node104</title>
<g id="a_node4"><a xlink:href="a00086.xhtml#a2f08a046bc257029ca74b86b48204380" target="_top" xlink:title="Obtient la version de la norme MPEG du header d&#39;une frame MP3. ">
<polygon fill="#ffffff" stroke="#000000" points="345,-76.5 345,-95.5 484,-95.5 484,-76.5 345,-76.5"/>
<text text-anchor="middle" x="414.5" y="-83.5" font-family="Helvetica,sans-Serif" font-size="10.00" fill="#000000">mp3_mpeg_hdr_get_version</text>
</a>
</g>
</g>
<!-- Node103&#45;&gt;Node104 -->
<g id="edge4" class="edge">
<title>Node103&#45;&gt;Node104</title>
<path fill="none" stroke="#191970" d="M302.0944,-97.8981C312.768,-96.7683 323.8991,-95.5901 334.8282,-94.4332"/>
<polygon fill="#191970" stroke="#191970" points="335.2135,-97.9121 344.7895,-93.3788 334.4766,-90.951 335.2135,-97.9121"/>
</g>
<!-- Node104&#45;&gt;Node102 -->
<g id="edge5" class="edge">
<title>Node104&#45;&gt;Node102</title>
<path fill="none" stroke="#191970" d="M484.261,-86C492.7242,-86 501.3307,-86 509.6849,-86"/>
<polygon fill="#191970" stroke="#191970" points="509.7236,-89.5001 519.7236,-86 509.7235,-82.5001 509.7236,-89.5001"/>
</g>
<!-- Node105&#45;&gt;Node102 -->
<g id="edge7" class="edge">
<title>Node105&#45;&gt;Node102</title>
<path fill="none" stroke="#191970" d="M309.0321,-62.9193C358.6713,-61.1842 425.4292,-60.7836 484,-67 497.947,-68.4803 512.926,-71.2378 526.5222,-74.202"/>
<polygon fill="#191970" stroke="#191970" points="526.083,-77.6912 536.6097,-76.4913 527.6323,-70.8648 526.083,-77.6912"/>
</g>
<!-- Node105&#45;&gt;Node104 -->
<g id="edge8" class="edge">
<title>Node105&#45;&gt;Node104</title>
<path fill="none" stroke="#191970" d="M309.0459,-74.8377C317.5835,-75.7414 326.3168,-76.6658 334.9237,-77.5769"/>
<polygon fill="#191970" stroke="#191970" points="334.6372,-81.066 344.9501,-78.6382 335.3741,-74.1049 334.6372,-81.066"/>
</g>
<!-- Node106&#45;&gt;Node102 -->
<g id="edge10" class="edge">
<title>Node106&#45;&gt;Node102</title>
<path fill="none" stroke="#191970" d="M446.5056,-19.5736C458.4762,-23.5366 472.0591,-28.4966 484,-34 507.2916,-44.7347 532.3643,-59.8335 549.8548,-70.9973"/>
<polygon fill="#191970" stroke="#191970" points="547.9626,-73.9417 558.2604,-76.4326 551.7635,-68.0636 547.9626,-73.9417"/>
</g>
</g>
</svg>
