<?xml version="1.0" encoding="UTF-8" standalone="no"?>
<!DOCTYPE svg PUBLIC "-//W3C//DTD SVG 1.1//EN"
 "http://www.w3.org/Graphics/SVG/1.1/DTD/svg11.dtd">
<!-- Generated by graphviz version 2.40.1 (20161225.0304)
 -->
<!-- Title: insert_metadata_png Pages: 1 -->
<svg width="350pt" height="208pt"
 viewBox="0.00 0.00 350.00 208.00" xmlns="http://www.w3.org/2000/svg" xmlns:xlink="http://www.w3.org/1999/xlink">
<g id="graph0" class="graph" transform="scale(1 1) rotate(0) translate(4 204)">
<title>insert_metadata_png</title>
<polygon fill="#ffffff" stroke="transparent" points="-4,4 -4,-204 346,-204 346,4 -4,4"/>
<!-- Node9 -->
<g id="node1" class="node">
<title>Node9</title>
<polygon fill="#bfbfbf" stroke="#000000" points="0,-95.5 0,-114.5 107,-114.5 107,-95.5 0,-95.5"/>
<text text-anchor="middle" x="53.5" y="-102.5" font-family="Helvetica,sans-Serif" font-size="10.00" fill="#000000">insert_metadata_png</text>
</g>
<!-- Node10 -->
<g id="node2" class="node">
<title>Node10</title>
<g id="a_node2"><a xlink:href="a00122.xhtml#a4e9a217b960dc65fd08dff9f78e317e4" target="_top" xlink:title="Initialise la seed de la suite pseudo aléatoire. ">
<polygon fill="#ffffff" stroke="#000000" points="267,-180.5 267,-199.5 337,-199.5 337,-180.5 267,-180.5"/>
<text text-anchor="middle" x="302" y="-187.5" font-family="Helvetica,sans-Serif" font-size="10.00" fill="#000000">stegx_srand</text>
</a>
</g>
</g>
<!-- Node9&#45;&gt;Node10 -->
<g id="edge1" class="edge">
<title>Node9&#45;&gt;Node10</title>
<path fill="none" stroke="#191970" d="M61.1079,-114.6833C75.1558,-131.7234 107.0362,-166.6241 143,-181 179.2549,-195.4922 223.894,-196.7345 256.6353,-194.935"/>
<polygon fill="#191970" stroke="#191970" points="257.0765,-198.4134 266.8218,-194.2567 256.6114,-191.4289 257.0765,-198.4134"/>
</g>
<!-- Node11 -->
<g id="node3" class="node">
<title>Node11</title>
<g id="a_node3"><a xlink:href="a00122.xhtml#a2a891bbe3514201de3cfc5acced104b7" target="_top" xlink:title="Cree un seed a partir d&#39;un mot de passe. ">
<polygon fill="#ffffff" stroke="#000000" points="267,-133.5 267,-152.5 337,-152.5 337,-133.5 267,-133.5"/>
<text text-anchor="middle" x="302" y="-140.5" font-family="Helvetica,sans-Serif" font-size="10.00" fill="#000000">create_seed</text>
</a>
</g>
</g>
<!-- Node9&#45;&gt;Node11 -->
<g id="edge2" class="edge">
<title>Node9&#45;&gt;Node11</title>
<path fill="none" stroke="#191970" d="M107.1149,-113.1987C151.7991,-120.0316 214.7344,-129.6556 256.875,-136.0996"/>
<polygon fill="#191970" stroke="#191970" points="256.4385,-139.5735 266.8527,-137.6254 257.4967,-132.6539 256.4385,-139.5735"/>
</g>
<!-- Node12 -->
<g id="node4" class="node">
<title>Node12</title>
<g id="a_node4"><a xlink:href="a00122.xhtml#a9966534d45c62d0df7a3d5df48668715" target="_top" xlink:title="Renvoie un entier pseudo&#45;aléatoire. ">
<polygon fill="#ffffff" stroke="#000000" points="269.5,-95.5 269.5,-114.5 334.5,-114.5 334.5,-95.5 269.5,-95.5"/>
<text text-anchor="middle" x="302" y="-102.5" font-family="Helvetica,sans-Serif" font-size="10.00" fill="#000000">stegx_rand</text>
</a>
</g>
</g>
<!-- Node9&#45;&gt;Node12 -->
<g id="edge3" class="edge">
<title>Node9&#45;&gt;Node12</title>
<path fill="none" stroke="#191970" d="M107.1149,-105C152.6253,-105 217.0682,-105 259.1911,-105"/>
<polygon fill="#191970" stroke="#191970" points="259.3943,-108.5001 269.3943,-105 259.3942,-101.5001 259.3943,-108.5001"/>
</g>
<!-- Node13 -->
<g id="node5" class="node">
<title>Node13</title>
<g id="a_node5"><a xlink:href="a00116.xhtml#a3fd0a8f9ba189acd34f864c97f059b0f" target="_top" xlink:title="Fait le mélange ou réarrange les octets selon l&#39;algorithme de protection des données. ">
<polygon fill="#ffffff" stroke="#000000" points="149,-152.5 149,-171.5 220,-171.5 220,-152.5 149,-152.5"/>
<text text-anchor="middle" x="184.5" y="-159.5" font-family="Helvetica,sans-Serif" font-size="10.00" fill="#000000">protect_data</text>
</a>
</g>
</g>
<!-- Node9&#45;&gt;Node13 -->
<g id="edge4" class="edge">
<title>Node9&#45;&gt;Node13</title>
<path fill="none" stroke="#191970" d="M75.4265,-114.5405C96.68,-123.7883 129.1356,-137.9102 153.1216,-148.3468"/>
<polygon fill="#191970" stroke="#191970" points="151.936,-151.6478 162.502,-152.4284 154.7289,-145.2291 151.936,-151.6478"/>
</g>
<!-- Node14 -->
<g id="node6" class="node">
<title>Node14</title>
<g id="a_node6"><a xlink:href="a00056.xhtml#aa1a29df598338a94ef478f60e90b20ba" target="_top" xlink:title="Convertit un nombre en little endian vers le big endian. ">
<polygon fill="#ffffff" stroke="#000000" points="144.5,-38.5 144.5,-57.5 224.5,-57.5 224.5,-38.5 144.5,-38.5"/>
<text text-anchor="middle" x="184.5" y="-45.5" font-family="Helvetica,sans-Serif" font-size="10.00" fill="#000000">stegx_htobe32</text>
</a>
</g>
</g>
<!-- Node9&#45;&gt;Node14 -->
<g id="edge8" class="edge">
<title>Node9&#45;&gt;Node14</title>
<path fill="none" stroke="#191970" d="M75.4265,-95.4595C96.68,-86.2117 129.1356,-72.0898 153.1216,-61.6532"/>
<polygon fill="#191970" stroke="#191970" points="154.7289,-64.7709 162.502,-57.5716 151.936,-58.3522 154.7289,-64.7709"/>
</g>
<!-- Node16 -->
<g id="node8" class="node">
<title>Node16</title>
<g id="a_node8"><a xlink:href="a00110.xhtml#a66a71cd33131eb29010132269d237356" target="_top" xlink:title="Ecrit la signature StegX. ">
<polygon fill="#ffffff" stroke="#000000" points="143,-.5 143,-19.5 226,-19.5 226,-.5 143,-.5"/>
<text text-anchor="middle" x="184.5" y="-7.5" font-family="Helvetica,sans-Serif" font-size="10.00" fill="#000000">write_signature</text>
</a>
</g>
</g>
<!-- Node9&#45;&gt;Node16 -->
<g id="edge10" class="edge">
<title>Node9&#45;&gt;Node16</title>
<path fill="none" stroke="#191970" d="M63.2471,-95.1246C78.964,-79.5878 111.3553,-49.1352 143,-29 145.741,-27.2559 148.6686,-25.5831 151.6525,-24.0035"/>
<polygon fill="#191970" stroke="#191970" points="153.2253,-27.1304 160.6437,-19.5663 150.1273,-20.8532 153.2253,-27.1304"/>
</g>
<!-- Node13&#45;&gt;Node10 -->
<g id="edge5" class="edge">
<title>Node13&#45;&gt;Node10</title>
<path fill="none" stroke="#191970" d="M220.0727,-170.4769C231.6821,-173.2434 244.7295,-176.3526 256.9412,-179.2626"/>
<polygon fill="#191970" stroke="#191970" points="256.4135,-182.7348 266.9525,-181.6483 258.0362,-175.9254 256.4135,-182.7348"/>
</g>
<!-- Node13&#45;&gt;Node11 -->
<g id="edge6" class="edge">
<title>Node13&#45;&gt;Node11</title>
<path fill="none" stroke="#191970" d="M220.0727,-156.2478C231.6821,-154.3706 244.7295,-152.2608 256.9412,-150.2861"/>
<polygon fill="#191970" stroke="#191970" points="257.6395,-153.7187 266.9525,-148.6673 256.522,-146.8085 257.6395,-153.7187"/>
</g>
<!-- Node13&#45;&gt;Node12 -->
<g id="edge7" class="edge">
<title>Node13&#45;&gt;Node12</title>
<path fill="none" stroke="#191970" d="M203.8959,-152.4069C219.5524,-144.6832 242.1615,-133.5748 262,-124 265.384,-122.3667 268.9339,-120.6646 272.4629,-118.9794"/>
<polygon fill="#191970" stroke="#191970" points="274.1026,-122.0752 281.6276,-114.617 271.094,-115.7547 274.1026,-122.0752"/>
</g>
<!-- Node15 -->
<g id="node7" class="node">
<title>Node15</title>
<g id="a_node7"><a xlink:href="a00056.xhtml#a7434fd197d31a9571f92f9dca4f212e9" target="_top" xlink:title="Convertit un nombre en big endian dans l&#39;endian de la machine. ">
<polygon fill="#ffffff" stroke="#000000" points="262,-38.5 262,-57.5 342,-57.5 342,-38.5 262,-38.5"/>
<text text-anchor="middle" x="302" y="-45.5" font-family="Helvetica,sans-Serif" font-size="10.00" fill="#000000">stegx_be32toh</text>
</a>
</g>
</g>
<!-- Node14&#45;&gt;Node15 -->
<g id="edge9" class="edge">
<title>Node14&#45;&gt;Node15</title>
<path fill="none" stroke="#191970" d="M224.6082,-48C233.3028,-48 242.6051,-48 251.6374,-48"/>
<polygon fill="#191970" stroke="#191970" points="251.6737,-51.5001 261.6736,-48 251.6736,-44.5001 251.6737,-51.5001"/>
</g>
</g>
</svg>
