<?xml version="1.0" encoding="UTF-8" standalone="no"?>
<!DOCTYPE svg PUBLIC "-//W3C//DTD SVG 1.1//EN"
 "http://www.w3.org/Graphics/SVG/1.1/DTD/svg11.dtd">
<!-- Generated by graphviz version 2.40.1 (20161225.0304)
 -->
<!-- Title: mp3_mpeg_fr_seek Pages: 1 -->
<svg width="357pt" height="104pt"
 viewBox="0.00 0.00 357.00 104.00" xmlns="http://www.w3.org/2000/svg" xmlns:xlink="http://www.w3.org/1999/xlink">
<g id="graph0" class="graph" transform="scale(1 1) rotate(0) translate(4 100)">
<title>mp3_mpeg_fr_seek</title>
<polygon fill="#ffffff" stroke="transparent" points="-4,4 -4,-100 353,-100 353,4 -4,4"/>
<!-- Node33 -->
<g id="node1" class="node">
<title>Node33</title>
<polygon fill="#bfbfbf" stroke="#000000" points="0,-57.5 0,-76.5 102,-76.5 102,-57.5 0,-57.5"/>
<text text-anchor="middle" x="51" y="-64.5" font-family="Helvetica,sans-Serif" font-size="10.00" fill="#000000">mp3_mpeg_fr_seek</text>
</g>
<!-- Node34 -->
<g id="node2" class="node">
<title>Node34</title>
<g id="a_node2"><a xlink:href="a00035.xhtml#abc757e2627fc9971e388a584e0e0c2ca" target="_top" xlink:title="Va extraire les donnees cachees en utilisant l&#39;algorithme LSB. ">
<polygon fill="#ffffff" stroke="#000000" points="141,-76.5 141,-95.5 206,-95.5 206,-76.5 141,-76.5"/>
<text text-anchor="middle" x="173.5" y="-83.5" font-family="Helvetica,sans-Serif" font-size="10.00" fill="#000000">extract_lsb</text>
</a>
</g>
</g>
<!-- Node33&#45;&gt;Node34 -->
<g id="edge1" class="edge">
<title>Node33&#45;&gt;Node34</title>
<path fill="none" stroke="#191970" d="M112.1547,-76.4852C122.1082,-78.029 132.065,-79.5733 140.9738,-80.9551"/>
<polygon fill="#191970" stroke="#191970" points="112.6596,-73.0218 102.2412,-74.9476 111.5866,-79.939 112.6596,-73.0218"/>
</g>
<!-- Node36 -->
<g id="node4" class="node">
<title>Node36</title>
<g id="a_node4"><a xlink:href="a00131.xhtml#a5501c9c7711252fa8d85ff12cb3390dc" target="_top" xlink:title="Remplit les informations du fichier hôte. ">
<polygon fill="#ffffff" stroke="#000000" points="138,-38.5 138,-57.5 209,-57.5 209,-38.5 138,-38.5"/>
<text text-anchor="middle" x="173.5" y="-45.5" font-family="Helvetica,sans-Serif" font-size="10.00" fill="#000000">fill_host_info</text>
</a>
</g>
</g>
<!-- Node33&#45;&gt;Node36 -->
<g id="edge3" class="edge">
<title>Node33&#45;&gt;Node36</title>
<path fill="none" stroke="#191970" d="M112.3911,-57.4781C121.0713,-56.1318 129.7478,-54.7861 137.7232,-53.5491"/>
<polygon fill="#191970" stroke="#191970" points="111.5866,-54.061 102.2412,-59.0524 112.6596,-60.9782 111.5866,-54.061"/>
</g>
<!-- Node35 -->
<g id="node3" class="node">
<title>Node35</title>
<g id="a_node3"><a xlink:href="a00065.xhtml#a43c63dd958bfa1f4ab2ecbd7faa14abb" target="_top" xlink:title="Va faire l&#39;extraction selon l&#39;algorithme détecté, ainsi que les fichiers en entrée choisis par l&#39;util...">
<polygon fill="#ffffff" stroke="#000000" points="259,-76.5 259,-95.5 335,-95.5 335,-76.5 259,-76.5"/>
<text text-anchor="middle" x="297" y="-83.5" font-family="Helvetica,sans-Serif" font-size="10.00" fill="#000000">stegx_extract</text>
</a>
</g>
</g>
<!-- Node34&#45;&gt;Node35 -->
<g id="edge2" class="edge">
<title>Node34&#45;&gt;Node35</title>
<path fill="none" stroke="#191970" d="M216.4845,-86C230.2585,-86 245.4089,-86 258.8157,-86"/>
<polygon fill="#191970" stroke="#191970" points="216.2715,-82.5001 206.2715,-86 216.2715,-89.5001 216.2715,-82.5001"/>
</g>
<!-- Node37 -->
<g id="node5" class="node">
<title>Node37</title>
<g id="a_node5"><a xlink:href="a00050.xhtml#a2a3747fdc90ed4467eb3e468d8fba361" target="_top" xlink:title="Detecte l&#39;algorithme utilisé ainsi que le nom du fichier caché et la taille des données cachées...">
<polygon fill="#ffffff" stroke="#000000" points="249,-38.5 249,-57.5 345,-57.5 345,-38.5 249,-38.5"/>
<text text-anchor="middle" x="297" y="-45.5" font-family="Helvetica,sans-Serif" font-size="10.00" fill="#000000">stegx_detect_algo</text>
</a>
</g>
</g>
<!-- Node36&#45;&gt;Node37 -->
<g id="edge4" class="edge">
<title>Node36&#45;&gt;Node37</title>
<path fill="none" stroke="#191970" d="M219.4129,-48C229.0496,-48 239.2382,-48 248.9506,-48"/>
<polygon fill="#191970" stroke="#191970" points="219.2214,-44.5001 209.2213,-48 219.2213,-51.5001 219.2214,-44.5001"/>
</g>
<!-- Node38 -->
<g id="node6" class="node">
<title>Node38</title>
<g id="a_node6"><a xlink:href="a00128.xhtml#adc277622e5fe0d1814be76f11263b350" target="_top" xlink:title="Propose les algorithmes de stéganographie utilisables. ">
<polygon fill="#ffffff" stroke="#000000" points="245,-.5 245,-19.5 349,-19.5 349,-.5 245,-.5"/>
<text text-anchor="middle" x="297" y="-7.5" font-family="Helvetica,sans-Serif" font-size="10.00" fill="#000000">stegx_suggest_algo</text>
</a>
</g>
</g>
<!-- Node36&#45;&gt;Node38 -->
<g id="edge5" class="edge">
<title>Node36&#45;&gt;Node38</title>
<path fill="none" stroke="#191970" d="M214.2397,-35.4647C231.0405,-30.2952 250.197,-24.4009 265.8457,-19.5859"/>
<polygon fill="#191970" stroke="#191970" points="213.1927,-32.1248 204.6643,-38.411 215.2514,-38.8153 213.1927,-32.1248"/>
</g>
</g>
</svg>
