<?xml version="1.0" encoding="UTF-8" standalone="no"?>
<!DOCTYPE svg PUBLIC "-//W3C//DTD SVG 1.1//EN"
 "http://www.w3.org/Graphics/SVG/1.1/DTD/svg11.dtd">
<!-- Generated by graphviz version 2.40.1 (20161225.0304)
 -->
<!-- Title: src/file_type/flv.h Pages: 1 -->
<!--zoomable 196 -->
<svg id="main" version="1.1" xmlns="http://www.w3.org/2000/svg" xmlns:xlink="http://www.w3.org/1999/xlink" xml:space="preserve" onload="init(evt)">
<style type="text/css"><![CDATA[
.edge:hover path { stroke: red; }
.edge:hover polygon { stroke: red; fill: red; }
]]></style>
<script type="text/javascript"><![CDATA[
var edges = document.getElementsByTagName('g');
if (edges && edges.length) {
  for (var i=0;i<edges.length;i++) {
    if (edges[i].id.substr(0,4)=='edge') {
      edges[i].setAttribute('class','edge');
    }
  }
}
]]></script>
        <defs>
                <circle id="rim" cx="0" cy="0" r="7"/>
                <circle id="rim2" cx="0" cy="0" r="3.5"/>
                <g id="zoomPlus">
                        <use xlink:href="#rim" fill="#404040">
                                <set attributeName="fill" to="#808080" begin="zoomplus.mouseover" end="zoomplus.mouseout"/>
                        </use>
                        <path d="M-4,0h8M0,-4v8" fill="none" stroke="white" stroke-width="1.5" pointer-events="none"/>
                </g>
                <g id="zoomMin">
                        <use xlink:href="#rim" fill="#404040">
                                <set attributeName="fill" to="#808080" begin="zoomminus.mouseover" end="zoomminus.mouseout"/>
                        </use>
                        <path d="M-4,0h8" fill="none" stroke="white" stroke-width="1.5" pointer-events="none"/>
                </g>
                <g id="dirArrow">
                        <path fill="none" stroke="white" stroke-width="1.5" d="M0,-3.0v7 M-2.5,-0.5L0,-3.0L2.5,-0.5"/>
                </g>
               <g id="resetDef">
                       <use xlink:href="#rim2" fill="#404040">
                               <set attributeName="fill" to="#808080" begin="reset.mouseover" end="reset.mouseout"/>
                       </use>
               </g>
        </defs>

<script type="text/javascript">
var viewWidth = 680;
var viewHeight = 196;
var sectionId = 'dynsection-0';
</script>
<script xlink:href="svgpan.js"/>
<svg id="graph" class="graph">
<g id="viewport">
<title>src/file_type/flv.h</title>
<polygon fill="#ffffff" stroke="transparent" points="-4,4 -4,-192 676.4986,-192 676.4986,4 -4,4"/>
<!-- Node0 -->
<g id="node1" class="node">
<title>Node0</title>
<polygon fill="#bfbfbf" stroke="#000000" points="354.2518,-168.5 354.2518,-187.5 446.2518,-187.5 446.2518,-168.5 354.2518,-168.5"/>
<text text-anchor="middle" x="400.2518" y="-175.5" font-family="Helvetica,sans-Serif" font-size="10.00" fill="#000000">src/file_type/flv.h</text>
</g>
<!-- Node1 -->
<g id="node2" class="node">
<title>Node1</title>
<polygon fill="#ffffff" stroke="#bfbfbf" points="276.2518,-.5 276.2518,-19.5 322.2518,-19.5 322.2518,-.5 276.2518,-.5"/>
<text text-anchor="middle" x="299.2518" y="-7.5" font-family="Helvetica,sans-Serif" font-size="10.00" fill="#000000">stdio.h</text>
</g>
<!-- Node0&#45;&gt;Node1 -->
<g id="edge1" class="edge">
<title>Node0&#45;&gt;Node1</title>
<path fill="none" stroke="#191970" d="M354.0335,-173.0936C259.0373,-161.9564 47.145,-131.3414 4.2518,-76 -1.1935,-68.9743 -1.5291,-62.7523 4.2518,-56 21.1204,-36.2973 191.9464,-19.284 265.6715,-12.7991"/>
<polygon fill="#191970" stroke="#191970" points="266.1543,-16.2704 275.8146,-11.9196 265.5496,-9.2966 266.1543,-16.2704"/>
</g>
<!-- Node2 -->
<g id="node3" class="node">
<title>Node2</title>
<polygon fill="#ffffff" stroke="#bfbfbf" points="525.7518,-.5 525.7518,-19.5 574.7518,-19.5 574.7518,-.5 525.7518,-.5"/>
<text text-anchor="middle" x="550.2518" y="-7.5" font-family="Helvetica,sans-Serif" font-size="10.00" fill="#000000">stdint.h</text>
</g>
<!-- Node0&#45;&gt;Node2 -->
<g id="edge2" class="edge">
<title>Node0&#45;&gt;Node2</title>
<path fill="none" stroke="#191970" d="M440.6194,-168.5C508.5044,-151.6164 640.731,-114.5217 667.2518,-76 690.404,-42.3713 627.1759,-23.8716 584.8826,-15.5355"/>
<polygon fill="#191970" stroke="#191970" points="585.38,-12.068 574.9082,-13.678 584.0984,-18.9497 585.38,-12.068"/>
</g>
<!-- Node3 -->
<g id="node4" class="node">
<title>Node3</title>
<g id="a_node4"><a xlink:href="a00047.xhtml" target="_top" xlink:title="Définitions communes à la partie privée de la bibliothèque. ">
<polygon fill="#ffffff" stroke="#000000" points="369.2518,-112.5 369.2518,-131.5 431.2518,-131.5 431.2518,-112.5 369.2518,-112.5"/>
<text text-anchor="middle" x="400.2518" y="-119.5" font-family="Helvetica,sans-Serif" font-size="10.00" fill="#000000">common.h</text>
</a>
</g>
</g>
<!-- Node0&#45;&gt;Node3 -->
<g id="edge3" class="edge">
<title>Node0&#45;&gt;Node3</title>
<path fill="none" stroke="#191970" d="M394.985,-168.2455C393.5739,-160.9382 393.1697,-150.6944 393.7723,-141.7046"/>
<polygon fill="#191970" stroke="#191970" points="397.2629,-141.9945 395.0067,-131.6427 390.315,-141.1421 397.2629,-141.9945"/>
</g>
<!-- Node3&#45;&gt;Node0 -->
<g id="edge26" class="edge">
<title>Node3&#45;&gt;Node0</title>
<path fill="none" stroke="#191970" d="M405.497,-131.6427C406.9183,-138.9199 407.3328,-149.155 406.7405,-158.1575"/>
<polygon fill="#191970" stroke="#191970" points="403.2465,-157.8972 405.5187,-168.2455 410.1957,-158.739 403.2465,-157.8972"/>
</g>
<!-- Node3&#45;&gt;Node1 -->
<g id="edge4" class="edge">
<title>Node3&#45;&gt;Node1</title>
<path fill="none" stroke="#191970" d="M369.0951,-116.9473C329.22,-109.7716 263.5656,-95.3237 249.2518,-76 236.3837,-58.6279 255.8903,-38.8893 274.1747,-25.56"/>
<polygon fill="#191970" stroke="#191970" points="276.6397,-28.1134 282.9053,-19.5698 272.6794,-22.3414 276.6397,-28.1134"/>
</g>
<!-- Node3&#45;&gt;Node2 -->
<g id="edge5" class="edge">
<title>Node3&#45;&gt;Node2</title>
<path fill="none" stroke="#191970" d="M431.5037,-121.0614C492.4391,-118.5033 623.5983,-109.1821 651.2518,-76 673.9287,-48.7895 622.5776,-28.7292 585.1028,-18.2456"/>
<polygon fill="#191970" stroke="#191970" points="585.5382,-14.7395 574.974,-15.5447 583.7346,-21.5032 585.5382,-14.7395"/>
</g>
<!-- Node4 -->
<g id="node5" class="node">
<title>Node4</title>
<g id="a_node5"><a xlink:href="a00008.xhtml" target="_top" xlink:title="Définitions communes à la partie privée et public de la bibliothèque. ">
<polygon fill="#ffffff" stroke="#000000" points="109.2518,-56.5 109.2518,-75.5 201.2518,-75.5 201.2518,-56.5 109.2518,-56.5"/>
<text text-anchor="middle" x="155.2518" y="-63.5" font-family="Helvetica,sans-Serif" font-size="10.00" fill="#000000">stegx_common.h</text>
</a>
</g>
</g>
<!-- Node3&#45;&gt;Node4 -->
<g id="edge6" class="edge">
<title>Node3&#45;&gt;Node4</title>
<path fill="none" stroke="#191970" d="M369.2224,-114.9076C328.3855,-105.5734 256.0399,-89.0373 206.8898,-77.803"/>
<polygon fill="#191970" stroke="#191970" points="207.6081,-74.377 197.0796,-75.5606 206.0483,-81.201 207.6081,-74.377"/>
</g>
<!-- Node5 -->
<g id="node6" class="node">
<title>Node5</title>
<g id="a_node6"><a xlink:href="a00077.xhtml" target="_top" xlink:title="Fichier BMP. ">
<polygon fill="#ffffff" stroke="#000000" points="558.7518,-56.5 558.7518,-75.5 641.7518,-75.5 641.7518,-56.5 558.7518,-56.5"/>
<text text-anchor="middle" x="600.2518" y="-63.5" font-family="Helvetica,sans-Serif" font-size="10.00" fill="#000000">file_type/bmp.h</text>
</a>
</g>
</g>
<!-- Node3&#45;&gt;Node5 -->
<g id="edge7" class="edge">
<title>Node3&#45;&gt;Node5</title>
<path fill="none" stroke="#191970" d="M429.391,-112.3733C461.3706,-102.9001 513,-88.4032 551.205,-78.1435"/>
<polygon fill="#191970" stroke="#191970" points="552.3432,-81.4623 561.1019,-75.5011 550.5375,-74.6992 552.3432,-81.4623"/>
</g>
<!-- Node6 -->
<g id="node7" class="node">
<title>Node6</title>
<g id="a_node7"><a xlink:href="a00095.xhtml" target="_top" xlink:title="Fichier PNG. ">
<polygon fill="#ffffff" stroke="#000000" points="460.2518,-56.5 460.2518,-75.5 540.2518,-75.5 540.2518,-56.5 460.2518,-56.5"/>
<text text-anchor="middle" x="500.2518" y="-63.5" font-family="Helvetica,sans-Serif" font-size="10.00" fill="#000000">file_type/png.h</text>
</a>
</g>
</g>
<!-- Node3&#45;&gt;Node6 -->
<g id="edge11" class="edge">
<title>Node3&#45;&gt;Node6</title>
<path fill="none" stroke="#191970" d="M412.4036,-112.2455C426.4713,-103.4125 449.6721,-90.2887 468.789,-80.2758"/>
<polygon fill="#191970" stroke="#191970" points="470.499,-83.3321 477.7876,-75.6427 467.2947,-77.1085 470.499,-83.3321"/>
</g>
<!-- Node7 -->
<g id="node8" class="node">
<title>Node7</title>
<g id="a_node8"><a xlink:href="a00104.xhtml" target="_top" xlink:title="Fichier WAVE. ">
<polygon fill="#ffffff" stroke="#000000" points="358.7518,-56.5 358.7518,-75.5 441.7518,-75.5 441.7518,-56.5 358.7518,-56.5"/>
<text text-anchor="middle" x="400.2518" y="-63.5" font-family="Helvetica,sans-Serif" font-size="10.00" fill="#000000">file_type/wav.h</text>
</a>
</g>
</g>
<!-- Node3&#45;&gt;Node7 -->
<g id="edge15" class="edge">
<title>Node3&#45;&gt;Node7</title>
<path fill="none" stroke="#191970" d="M394.985,-112.2455C393.5739,-104.9382 393.1697,-94.6944 393.7723,-85.7046"/>
<polygon fill="#191970" stroke="#191970" points="397.2629,-85.9945 395.0067,-75.6427 390.315,-85.1421 397.2629,-85.9945"/>
</g>
<!-- Node8 -->
<g id="node9" class="node">
<title>Node8</title>
<g id="a_node9"><a xlink:href="a00089.xhtml" target="_top" xlink:title="Fichier MP3. ">
<polygon fill="#ffffff" stroke="#000000" points="257.7518,-56.5 257.7518,-75.5 340.7518,-75.5 340.7518,-56.5 257.7518,-56.5"/>
<text text-anchor="middle" x="299.2518" y="-63.5" font-family="Helvetica,sans-Serif" font-size="10.00" fill="#000000">file_type/mp3.h</text>
</a>
</g>
</g>
<!-- Node3&#45;&gt;Node8 -->
<g id="edge19" class="edge">
<title>Node3&#45;&gt;Node8</title>
<path fill="none" stroke="#191970" d="M377.6473,-112.3733C360.2397,-103.666 336.6205,-90.7145 319.7599,-80.7102"/>
<polygon fill="#191970" stroke="#191970" points="321.5359,-77.694 311.1705,-75.5011 317.906,-83.6793 321.5359,-77.694"/>
</g>
<!-- Node9 -->
<g id="node10" class="node">
<title>Node9</title>
<g id="a_node10"><a xlink:href="a00071.xhtml" target="_top" xlink:title="Fichier AVI. ">
<polygon fill="#ffffff" stroke="#000000" points="13.7518,-56.5 13.7518,-75.5 90.7518,-75.5 90.7518,-56.5 13.7518,-56.5"/>
<text text-anchor="middle" x="52.2518" y="-63.5" font-family="Helvetica,sans-Serif" font-size="10.00" fill="#000000">file_type/avi.h</text>
</a>
</g>
</g>
<!-- Node3&#45;&gt;Node9 -->
<g id="edge23" class="edge">
<title>Node3&#45;&gt;Node9</title>
<path fill="none" stroke="#191970" d="M369.0378,-118.4665C314.6912,-111.54 199.8219,-95.3151 98.7647,-77.3376"/>
<polygon fill="#191970" stroke="#191970" points="99.1786,-73.8561 88.7179,-75.5361 97.9431,-80.7462 99.1786,-73.8561"/>
</g>
<!-- Node5&#45;&gt;Node1 -->
<g id="edge8" class="edge">
<title>Node5&#45;&gt;Node1</title>
<path fill="none" stroke="#191970" d="M558.5109,-57.7744C555.3785,-57.1697 552.2656,-56.5727 549.2518,-56 471.6607,-41.2552 380.3759,-24.6451 332.4633,-15.9838"/>
<polygon fill="#191970" stroke="#191970" points="332.8243,-12.4924 322.3614,-14.1592 331.58,-19.3809 332.8243,-12.4924"/>
</g>
<!-- Node5&#45;&gt;Node2 -->
<g id="edge9" class="edge">
<title>Node5&#45;&gt;Node2</title>
<path fill="none" stroke="#191970" d="M591.5425,-56.2455C584.4445,-48.2958 574.2434,-36.8706 565.7568,-27.3656"/>
<polygon fill="#191970" stroke="#191970" points="568.1323,-24.771 558.8613,-19.6427 562.9107,-29.4331 568.1323,-24.771"/>
</g>
<!-- Node5&#45;&gt;Node3 -->
<g id="edge10" class="edge">
<title>Node5&#45;&gt;Node3</title>
<path fill="none" stroke="#191970" d="M571.4396,-75.5299C537.2652,-85.659 480.3313,-101.6101 441.5136,-111.9378"/>
<polygon fill="#191970" stroke="#191970" points="440.3452,-108.6263 431.5703,-114.5636 442.1325,-115.3943 440.3452,-108.6263"/>
</g>
<!-- Node6&#45;&gt;Node1 -->
<g id="edge12" class="edge">
<title>Node6&#45;&gt;Node1</title>
<path fill="none" stroke="#191970" d="M465.6987,-56.3733C428.2504,-45.9399 368.9305,-29.413 332.1445,-19.1641"/>
<polygon fill="#191970" stroke="#191970" points="332.9758,-15.7625 322.4033,-16.4502 331.0971,-22.5057 332.9758,-15.7625"/>
</g>
<!-- Node6&#45;&gt;Node2 -->
<g id="edge13" class="edge">
<title>Node6&#45;&gt;Node2</title>
<path fill="none" stroke="#191970" d="M508.9612,-56.2455C516.0591,-48.2958 526.2603,-36.8706 534.7468,-27.3656"/>
<polygon fill="#191970" stroke="#191970" points="537.5929,-29.4331 541.6423,-19.6427 532.3713,-24.771 537.5929,-29.4331"/>
</g>
<!-- Node6&#45;&gt;Node3 -->
<g id="edge14" class="edge">
<title>Node6&#45;&gt;Node3</title>
<path fill="none" stroke="#191970" d="M488.5028,-75.5011C474.49,-84.3278 451.0538,-97.5932 431.7624,-107.6992"/>
<polygon fill="#191970" stroke="#191970" points="429.973,-104.6838 422.6845,-112.3733 433.1774,-110.9073 429.973,-104.6838"/>
</g>
<!-- Node7&#45;&gt;Node1 -->
<g id="edge16" class="edge">
<title>Node7&#45;&gt;Node1</title>
<path fill="none" stroke="#191970" d="M382.659,-56.2455C366.8728,-47.4928 343.4879,-34.527 325.4931,-24.5496"/>
<polygon fill="#191970" stroke="#191970" points="327.0859,-21.4308 316.6431,-19.6427 323.6915,-27.5528 327.0859,-21.4308"/>
</g>
<!-- Node7&#45;&gt;Node2 -->
<g id="edge17" class="edge">
<title>Node7&#45;&gt;Node2</title>
<path fill="none" stroke="#191970" d="M426.0377,-56.3733C450.8057,-47.1265 488.3942,-33.0935 515.7345,-22.8865"/>
<polygon fill="#191970" stroke="#191970" points="517.1566,-26.0916 525.3008,-19.315 514.7082,-19.5337 517.1566,-26.0916"/>
</g>
<!-- Node7&#45;&gt;Node3 -->
<g id="edge18" class="edge">
<title>Node7&#45;&gt;Node3</title>
<path fill="none" stroke="#191970" d="M405.497,-75.6427C406.9183,-82.9199 407.3328,-93.155 406.7405,-102.1575"/>
<polygon fill="#191970" stroke="#191970" points="403.2465,-101.8972 405.5187,-112.2455 410.1957,-102.739 403.2465,-101.8972"/>
</g>
<!-- Node8&#45;&gt;Node1 -->
<g id="edge20" class="edge">
<title>Node8&#45;&gt;Node1</title>
<path fill="none" stroke="#191970" d="M299.2518,-56.2455C299.2518,-48.9382 299.2518,-38.6944 299.2518,-29.7046"/>
<polygon fill="#191970" stroke="#191970" points="302.7519,-29.6426 299.2518,-19.6427 295.7519,-29.6427 302.7519,-29.6426"/>
</g>
<!-- Node8&#45;&gt;Node2 -->
<g id="edge21" class="edge">
<title>Node8&#45;&gt;Node2</title>
<path fill="none" stroke="#191970" d="M340.9811,-56.6899C389.8665,-45.7832 469.9605,-27.9136 515.5783,-17.7359"/>
<polygon fill="#191970" stroke="#191970" points="516.582,-21.0981 525.5798,-15.5045 515.0576,-14.2661 516.582,-21.0981"/>
</g>
<!-- Node8&#45;&gt;Node3 -->
<g id="edge22" class="edge">
<title>Node8&#45;&gt;Node3</title>
<path fill="none" stroke="#191970" d="M321.8882,-75.6427C339.1519,-84.2794 362.5118,-97.0824 379.3334,-107.0465"/>
<polygon fill="#191970" stroke="#191970" points="377.5582,-110.0632 387.9258,-112.2455 381.182,-104.0741 377.5582,-110.0632"/>
</g>
<!-- Node9&#45;&gt;Node1 -->
<g id="edge24" class="edge">
<title>Node9&#45;&gt;Node1</title>
<path fill="none" stroke="#191970" d="M90.8456,-57.25C139.0561,-46.3197 220.7242,-27.8038 266.1923,-17.4953"/>
<polygon fill="#191970" stroke="#191970" points="267.1471,-20.8677 276.1257,-15.2432 265.5993,-14.041 267.1471,-20.8677"/>
</g>
<!-- Node9&#45;&gt;Node3 -->
<g id="edge25" class="edge">
<title>Node9&#45;&gt;Node3</title>
<path fill="none" stroke="#191970" d="M90.9778,-72.4878C97.1424,-73.7126 103.3882,-74.9404 109.2518,-76 198.0934,-92.0538 302.3961,-107.2237 358.9707,-115.5017"/>
<polygon fill="#191970" stroke="#191970" points="358.5628,-118.9793 368.9645,-116.9659 359.5775,-112.0532 358.5628,-118.9793"/>
</g>
</g>
</svg>
        <g id="navigator" transform="translate(0 0)" fill="#404254">
                <rect fill="#f2f5e9" fill-opacity="0.5" stroke="#606060" stroke-width=".5" x="0" y="0" width="60" height="60"/>
                <use id="zoomplus" xlink:href="#zoomPlus" x="17" y="9" onmousedown="handleZoom(evt,'in')"/>
                <use id="zoomminus" xlink:href="#zoomMin" x="42" y="9" onmousedown="handleZoom(evt,'out')"/>
                <use id="reset" xlink:href="#resetDef" x="30" y="36" onmousedown="handleReset()"/>
                <g id="arrowUp" xlink:href="#dirArrow" transform="translate(30 24)" onmousedown="handlePan(0,-1)">
                  <use xlink:href="#rim" fill="#404040">
                        <set attributeName="fill" to="#808080" begin="arrowUp.mouseover" end="arrowUp.mouseout"/>
                  </use>
                  <path fill="none" stroke="white" stroke-width="1.5" d="M0,-3.0v7 M-2.5,-0.5L0,-3.0L2.5,-0.5"/>
                </g>
                <g id="arrowRight" xlink:href="#dirArrow" transform="rotate(90) translate(36 -43)" onmousedown="handlePan(1,0)">
                  <use xlink:href="#rim" fill="#404040">
                        <set attributeName="fill" to="#808080" begin="arrowRight.mouseover" end="arrowRight.mouseout"/>
                  </use>
                  <path fill="none" stroke="white" stroke-width="1.5" d="M0,-3.0v7 M-2.5,-0.5L0,-3.0L2.5,-0.5"/>
                </g>
                <g id="arrowDown" xlink:href="#dirArrow" transform="rotate(180) translate(-30 -48)" onmousedown="handlePan(0,1)">
                  <use xlink:href="#rim" fill="#404040">
                        <set attributeName="fill" to="#808080" begin="arrowDown.mouseover" end="arrowDown.mouseout"/>
                  </use>
                  <path fill="none" stroke="white" stroke-width="1.5" d="M0,-3.0v7 M-2.5,-0.5L0,-3.0L2.5,-0.5"/>
                </g>
                <g id="arrowLeft" xlink:href="#dirArrow" transform="rotate(270) translate(-36 17)" onmousedown="handlePan(-1,0)">
                  <use xlink:href="#rim" fill="#404040">
                        <set attributeName="fill" to="#808080" begin="arrowLeft.mouseover" end="arrowLeft.mouseout"/>
                  </use>
                  <path fill="none" stroke="white" stroke-width="1.5" d="M0,-3.0v7 M-2.5,-0.5L0,-3.0L2.5,-0.5"/>
                </g>
        </g>
        <svg viewBox="0 0 15 15" width="100%" height="30px" preserveAspectRatio="xMaxYMin meet">
         <g id="arrow_out" transform="scale(0.3 0.3)">
          <a xlink:href="a00084_org.svg" target="_base">
           <rect id="button" ry="5" rx="5" y="6" x="6" height="38" width="38"
                fill="#f2f5e9" fill-opacity="0.5" stroke="#606060" stroke-width="1.0"/>
           <path id="arrow"
             d="M 11.500037,31.436501 C 11.940474,20.09759 22.043105,11.32322 32.158766,21.979434 L 37.068811,17.246167 C 37.068811,17.246167 37.088388,32 37.088388,32 L 22.160133,31.978069 C 22.160133,31.978069 26.997745,27.140456 26.997745,27.140456 C 18.528582,18.264221 13.291696,25.230495 11.500037,31.436501 z"
             style="fill:#404040;"/>
          </a>
         </g>
        </svg>
</svg>
