<?xml version="1.0" encoding="UTF-8" standalone="no"?>
<!DOCTYPE svg PUBLIC "-//W3C//DTD SVG 1.1//EN"
 "http://www.w3.org/Graphics/SVG/1.1/DTD/svg11.dtd">
<!-- Generated by graphviz version 2.40.1 (20161225.0304)
 -->
<!-- Title: check_file_format Pages: 1 -->
<svg width="383pt" height="218pt"
 viewBox="0.00 0.00 383.00 218.00" xmlns="http://www.w3.org/2000/svg" xmlns:xlink="http://www.w3.org/1999/xlink">
<g id="graph0" class="graph" transform="scale(1 1) rotate(0) translate(4 214)">
<title>check_file_format</title>
<polygon fill="#ffffff" stroke="transparent" points="-4,4 -4,-214 379,-214 379,4 -4,4"/>
<!-- Node0 -->
<g id="node1" class="node">
<title>Node0</title>
<polygon fill="#bfbfbf" stroke="#000000" points="0,-95.5 0,-114.5 94,-114.5 94,-95.5 0,-95.5"/>
<text text-anchor="middle" x="47" y="-102.5" font-family="Helvetica,sans-Serif" font-size="10.00" fill="#000000">check_file_format</text>
</g>
<!-- Node1 -->
<g id="node2" class="node">
<title>Node1</title>
<g id="a_node2"><a xlink:href="a00074.xhtml#a9981cb05f84d85245b570a20ece33548" target="_top" xlink:title="Test si le fichier est un fichier BMP. ">
<polygon fill="#ffffff" stroke="#000000" points="130,-190.5 130,-209.5 234,-209.5 234,-190.5 130,-190.5"/>
<text text-anchor="middle" x="182" y="-197.5" font-family="Helvetica,sans-Serif" font-size="10.00" fill="#000000">stegx_test_file_bmp</text>
</a>
</g>
</g>
<!-- Node0&#45;&gt;Node1 -->
<g id="edge1" class="edge">
<title>Node0&#45;&gt;Node1</title>
<path fill="none" stroke="#191970" d="M55.2567,-114.7078C69.1991,-130.5626 98.9403,-162.1337 130,-181 133.2294,-182.9616 136.6933,-184.7688 140.2434,-186.4228"/>
<polygon fill="#191970" stroke="#191970" points="139.1672,-189.7679 149.7405,-190.4438 141.8965,-183.3219 139.1672,-189.7679"/>
</g>
<!-- Node2 -->
<g id="node3" class="node">
<title>Node2</title>
<g id="a_node3"><a xlink:href="a00092.xhtml#a576071ea25bd3721014ca3e596adcdfb" target="_top" xlink:title="Test si le fichier est un fichier PNG. ">
<polygon fill="#ffffff" stroke="#000000" points="131.5,-152.5 131.5,-171.5 232.5,-171.5 232.5,-152.5 131.5,-152.5"/>
<text text-anchor="middle" x="182" y="-159.5" font-family="Helvetica,sans-Serif" font-size="10.00" fill="#000000">stegx_test_file_png</text>
</a>
</g>
</g>
<!-- Node0&#45;&gt;Node2 -->
<g id="edge2" class="edge">
<title>Node0&#45;&gt;Node2</title>
<path fill="none" stroke="#191970" d="M66.5964,-114.5031C83.2949,-122.4723 108.0113,-133.9658 130,-143 134.8217,-144.981 139.9342,-146.9754 144.998,-148.8886"/>
<polygon fill="#191970" stroke="#191970" points="143.9933,-152.2489 154.5864,-152.4428 146.4264,-145.6853 143.9933,-152.2489"/>
</g>
<!-- Node3 -->
<g id="node4" class="node">
<title>Node3</title>
<g id="a_node4"><a xlink:href="a00101.xhtml#ade2af55cc4dbaf47d31e91a4681415f1" target="_top" xlink:title="Test si le fichier est un fichier WAVE. ">
<polygon fill="#ffffff" stroke="#000000" points="130,-114.5 130,-133.5 234,-133.5 234,-114.5 130,-114.5"/>
<text text-anchor="middle" x="182" y="-121.5" font-family="Helvetica,sans-Serif" font-size="10.00" fill="#000000">stegx_test_file_wav</text>
</a>
</g>
</g>
<!-- Node0&#45;&gt;Node3 -->
<g id="edge3" class="edge">
<title>Node0&#45;&gt;Node3</title>
<path fill="none" stroke="#191970" d="M94.2164,-111.6453C102.5233,-112.8144 111.282,-114.0471 119.9214,-115.263"/>
<polygon fill="#191970" stroke="#191970" points="119.5842,-118.75 129.9744,-116.6779 120.5599,-111.8183 119.5842,-118.75"/>
</g>
<!-- Node4 -->
<g id="node5" class="node">
<title>Node4</title>
<g id="a_node5"><a xlink:href="a00086.xhtml#a581193a38ac3c779c8920bd3be9883fc" target="_top" xlink:title="Test si le fichier est un fichier MP3. ">
<polygon fill="#ffffff" stroke="#000000" points="130,-76.5 130,-95.5 234,-95.5 234,-76.5 130,-76.5"/>
<text text-anchor="middle" x="182" y="-83.5" font-family="Helvetica,sans-Serif" font-size="10.00" fill="#000000">stegx_test_file_mp3</text>
</a>
</g>
</g>
<!-- Node0&#45;&gt;Node4 -->
<g id="edge4" class="edge">
<title>Node0&#45;&gt;Node4</title>
<path fill="none" stroke="#191970" d="M94.2164,-98.3547C102.5233,-97.1856 111.282,-95.9529 119.9214,-94.737"/>
<polygon fill="#191970" stroke="#191970" points="120.5599,-98.1817 129.9744,-93.3221 119.5842,-91.25 120.5599,-98.1817"/>
</g>
<!-- Node8 -->
<g id="node9" class="node">
<title>Node8</title>
<g id="a_node9"><a xlink:href="a00068.xhtml#a219859c3514ef04eb40cb27845b208b0" target="_top" xlink:title="Test si le fichier est un fichier AVI. ">
<polygon fill="#ffffff" stroke="#000000" points="133,-38.5 133,-57.5 231,-57.5 231,-38.5 133,-38.5"/>
<text text-anchor="middle" x="182" y="-45.5" font-family="Helvetica,sans-Serif" font-size="10.00" fill="#000000">stegx_test_file_avi</text>
</a>
</g>
</g>
<!-- Node0&#45;&gt;Node8 -->
<g id="edge8" class="edge">
<title>Node0&#45;&gt;Node8</title>
<path fill="none" stroke="#191970" d="M66.5964,-95.4969C83.2949,-87.5277 108.0113,-76.0342 130,-67 134.8217,-65.019 139.9342,-63.0246 144.998,-61.1114"/>
<polygon fill="#191970" stroke="#191970" points="146.4264,-64.3147 154.5864,-57.5572 143.9933,-57.7511 146.4264,-64.3147"/>
</g>
<!-- Node9 -->
<g id="node10" class="node">
<title>Node9</title>
<g id="a_node10"><a xlink:href="a00080.xhtml#aeb8aa72db41eb744e933e7fed2a920a7" target="_top" xlink:title="Test si le fichier est un fichier FLV. ">
<polygon fill="#ffffff" stroke="#000000" points="134,-.5 134,-19.5 230,-19.5 230,-.5 134,-.5"/>
<text text-anchor="middle" x="182" y="-7.5" font-family="Helvetica,sans-Serif" font-size="10.00" fill="#000000">stegx_test_file_flv</text>
</a>
</g>
</g>
<!-- Node0&#45;&gt;Node9 -->
<g id="edge9" class="edge">
<title>Node0&#45;&gt;Node9</title>
<path fill="none" stroke="#191970" d="M55.2567,-95.2922C69.1991,-79.4374 98.9403,-47.8663 130,-29 133.2294,-27.0384 136.6933,-25.2312 140.2434,-23.5772"/>
<polygon fill="#191970" stroke="#191970" points="141.8965,-26.6781 149.7405,-19.5562 139.1672,-20.2321 141.8965,-26.6781"/>
</g>
<!-- Node5 -->
<g id="node6" class="node">
<title>Node5</title>
<g id="a_node6"><a xlink:href="a00056.xhtml#a7434fd197d31a9571f92f9dca4f212e9" target="_top" xlink:title="Convertit un nombre en big endian dans l&#39;endian de la machine. ">
<polygon fill="#ffffff" stroke="#000000" points="282.5,-114.5 282.5,-133.5 362.5,-133.5 362.5,-114.5 282.5,-114.5"/>
<text text-anchor="middle" x="322.5" y="-121.5" font-family="Helvetica,sans-Serif" font-size="10.00" fill="#000000">stegx_be32toh</text>
</a>
</g>
</g>
<!-- Node4&#45;&gt;Node5 -->
<g id="edge5" class="edge">
<title>Node4&#45;&gt;Node5</title>
<path fill="none" stroke="#191970" d="M217.4541,-95.589C235.5913,-100.4944 257.8684,-106.5196 277.2334,-111.7571"/>
<polygon fill="#191970" stroke="#191970" points="276.4903,-115.1818 287.0573,-114.4141 278.3179,-108.4246 276.4903,-115.1818"/>
</g>
<!-- Node6 -->
<g id="node7" class="node">
<title>Node6</title>
<g id="a_node7"><a xlink:href="a00086.xhtml#ad5c1775e3137194eae404a93a564ab96" target="_top" xlink:title="Test si le header est un header ID3v2. ">
<polygon fill="#ffffff" stroke="#000000" points="270.5,-76.5 270.5,-95.5 374.5,-95.5 374.5,-76.5 270.5,-76.5"/>
<text text-anchor="middle" x="322.5" y="-83.5" font-family="Helvetica,sans-Serif" font-size="10.00" fill="#000000">mp3_id3v2_hdr_test</text>
</a>
</g>
</g>
<!-- Node4&#45;&gt;Node6 -->
<g id="edge6" class="edge">
<title>Node4&#45;&gt;Node6</title>
<path fill="none" stroke="#191970" d="M234.317,-86C242.7285,-86 251.5076,-86 260.1266,-86"/>
<polygon fill="#191970" stroke="#191970" points="260.1393,-89.5001 270.1393,-86 260.1393,-82.5001 260.1393,-89.5001"/>
</g>
<!-- Node7 -->
<g id="node8" class="node">
<title>Node7</title>
<g id="a_node8"><a xlink:href="a00086.xhtml#a75bc8b052a4d00ab95b05b576918360d" target="_top" xlink:title="Test si le header est un header MPEG 1/2 Layer III. ">
<polygon fill="#ffffff" stroke="#000000" points="270,-38.5 270,-57.5 375,-57.5 375,-38.5 270,-38.5"/>
<text text-anchor="middle" x="322.5" y="-45.5" font-family="Helvetica,sans-Serif" font-size="10.00" fill="#000000">mp3_mpeg_hdr_test</text>
</a>
</g>
</g>
<!-- Node4&#45;&gt;Node7 -->
<g id="edge7" class="edge">
<title>Node4&#45;&gt;Node7</title>
<path fill="none" stroke="#191970" d="M217.4541,-76.411C235.5913,-71.5056 257.8684,-65.4804 277.2334,-60.2429"/>
<polygon fill="#191970" stroke="#191970" points="278.3179,-63.5754 287.0573,-57.5859 276.4903,-56.8182 278.3179,-63.5754"/>
</g>
</g>
</svg>
