<?xml version="1.0" encoding="UTF-8" standalone="no"?>
<!DOCTYPE svg PUBLIC "-//W3C//DTD SVG 1.1//EN"
 "http://www.w3.org/Graphics/SVG/1.1/DTD/svg11.dtd">
<!-- Generated by graphviz version 2.40.1 (20161225.0304)
 -->
<!-- Title: src/algo/lsb.h Pages: 1 -->
<svg width="758pt" height="196pt"
 viewBox="0.00 0.00 757.82 196.00" xmlns="http://www.w3.org/2000/svg" xmlns:xlink="http://www.w3.org/1999/xlink">
<g id="graph0" class="graph" transform="scale(1 1) rotate(0) translate(4 192)">
<title>src/algo/lsb.h</title>
<polygon fill="#ffffff" stroke="transparent" points="-4,4 -4,-192 753.8201,-192 753.8201,4 -4,4"/>
<!-- Node0 -->
<g id="node1" class="node">
<title>Node0</title>
<polygon fill="#bfbfbf" stroke="#000000" points="75.8201,-168.5 75.8201,-187.5 150.8201,-187.5 150.8201,-168.5 75.8201,-168.5"/>
<text text-anchor="middle" x="113.3201" y="-175.5" font-family="Helvetica,sans-Serif" font-size="10.00" fill="#000000">src/algo/lsb.h</text>
</g>
<!-- Node1 -->
<g id="node2" class="node">
<title>Node1</title>
<polygon fill="#ffffff" stroke="#bfbfbf" points="143.8201,-.5 143.8201,-19.5 192.8201,-19.5 192.8201,-.5 143.8201,-.5"/>
<text text-anchor="middle" x="168.3201" y="-7.5" font-family="Helvetica,sans-Serif" font-size="10.00" fill="#000000">stdint.h</text>
</g>
<!-- Node0&#45;&gt;Node1 -->
<g id="edge1" class="edge">
<title>Node0&#45;&gt;Node1</title>
<path fill="none" stroke="#191970" d="M93.5874,-168.4011C54.8291,-148.2703 -24.7114,-99.866 8.3201,-56 23.3781,-36.0029 91.3116,-22.0069 133.672,-15.0463"/>
<polygon fill="#191970" stroke="#191970" points="134.2591,-18.497 143.5846,-13.4686 133.1588,-11.584 134.2591,-18.497"/>
</g>
<!-- Node2 -->
<g id="node3" class="node">
<title>Node2</title>
<g id="a_node3"><a xlink:href="a00047.xhtml" target="_top" xlink:title="Définitions communes à la partie privée de la bibliothèque. ">
<polygon fill="#ffffff" stroke="#000000" points="282.3201,-112.5 282.3201,-131.5 344.3201,-131.5 344.3201,-112.5 282.3201,-112.5"/>
<text text-anchor="middle" x="313.3201" y="-119.5" font-family="Helvetica,sans-Serif" font-size="10.00" fill="#000000">common.h</text>
</a>
</g>
</g>
<!-- Node0&#45;&gt;Node2 -->
<g id="edge2" class="edge">
<title>Node0&#45;&gt;Node2</title>
<path fill="none" stroke="#191970" d="M147.7013,-168.3733C182.2069,-158.7117 235.3747,-143.8247 272.118,-133.5366"/>
<polygon fill="#191970" stroke="#191970" points="273.3309,-136.8317 282.0168,-130.7649 271.4435,-130.0909 273.3309,-136.8317"/>
</g>
<!-- Node2&#45;&gt;Node1 -->
<g id="edge4" class="edge">
<title>Node2&#45;&gt;Node1</title>
<path fill="none" stroke="#191970" d="M282.1269,-119.3928C209.9553,-113.0458 36.3035,-95.8474 19.3201,-76 -14.9109,-35.9967 79.3604,-19.2764 133.3986,-13.1277"/>
<polygon fill="#191970" stroke="#191970" points="134.0485,-16.5783 143.6198,-12.0352 133.3044,-9.6179 134.0485,-16.5783"/>
</g>
<!-- Node3 -->
<g id="node4" class="node">
<title>Node3</title>
<polygon fill="#ffffff" stroke="#bfbfbf" points="339.3201,-.5 339.3201,-19.5 385.3201,-19.5 385.3201,-.5 339.3201,-.5"/>
<text text-anchor="middle" x="362.3201" y="-7.5" font-family="Helvetica,sans-Serif" font-size="10.00" fill="#000000">stdio.h</text>
</g>
<!-- Node2&#45;&gt;Node3 -->
<g id="edge3" class="edge">
<title>Node2&#45;&gt;Node3</title>
<path fill="none" stroke="#191970" d="M344.4508,-119.6934C419.7837,-113.7969 607.0718,-97.136 625.3201,-76 631.129,-69.2718 631.0384,-62.8053 625.3201,-56 596.3561,-21.5304 459.9065,-12.8861 395.7773,-10.7214"/>
<polygon fill="#191970" stroke="#191970" points="395.5099,-7.2118 385.4084,-10.4071 395.2977,-14.2086 395.5099,-7.2118"/>
</g>
<!-- Node4 -->
<g id="node5" class="node">
<title>Node4</title>
<g id="a_node5"><a xlink:href="a00008.xhtml" target="_top" xlink:title="Définitions communes à la partie privée et public de la bibliothèque. ">
<polygon fill="#ffffff" stroke="#000000" points="422.3201,-56.5 422.3201,-75.5 514.3201,-75.5 514.3201,-56.5 422.3201,-56.5"/>
<text text-anchor="middle" x="468.3201" y="-63.5" font-family="Helvetica,sans-Serif" font-size="10.00" fill="#000000">stegx_common.h</text>
</a>
</g>
</g>
<!-- Node2&#45;&gt;Node4 -->
<g id="edge5" class="edge">
<title>Node2&#45;&gt;Node4</title>
<path fill="none" stroke="#191970" d="M339.9655,-112.3733C365.5165,-103.1419 404.2713,-89.1402 432.511,-78.9375"/>
<polygon fill="#191970" stroke="#191970" points="433.8066,-82.1909 442.0223,-75.5011 431.428,-75.6074 433.8066,-82.1909"/>
</g>
<!-- Node5 -->
<g id="node6" class="node">
<title>Node5</title>
<g id="a_node6"><a xlink:href="a00077.xhtml" target="_top" xlink:title="Fichier BMP. ">
<polygon fill="#ffffff" stroke="#000000" points="320.8201,-56.5 320.8201,-75.5 403.8201,-75.5 403.8201,-56.5 320.8201,-56.5"/>
<text text-anchor="middle" x="362.3201" y="-63.5" font-family="Helvetica,sans-Serif" font-size="10.00" fill="#000000">file_type/bmp.h</text>
</a>
</g>
</g>
<!-- Node2&#45;&gt;Node5 -->
<g id="edge6" class="edge">
<title>Node2&#45;&gt;Node5</title>
<path fill="none" stroke="#191970" d="M316.5884,-112.2455C322.1188,-104.1352 332.0547,-92.4075 341.3828,-82.7919"/>
<polygon fill="#191970" stroke="#191970" points="343.9715,-85.1547 348.6376,-75.6427 339.0582,-80.1688 343.9715,-85.1547"/>
</g>
<!-- Node6 -->
<g id="node7" class="node">
<title>Node6</title>
<g id="a_node7"><a xlink:href="a00095.xhtml" target="_top" xlink:title="Fichier PNG. ">
<polygon fill="#ffffff" stroke="#000000" points="28.3201,-56.5 28.3201,-75.5 108.3201,-75.5 108.3201,-56.5 28.3201,-56.5"/>
<text text-anchor="middle" x="68.3201" y="-63.5" font-family="Helvetica,sans-Serif" font-size="10.00" fill="#000000">file_type/png.h</text>
</a>
</g>
</g>
<!-- Node2&#45;&gt;Node6 -->
<g id="edge10" class="edge">
<title>Node2&#45;&gt;Node6</title>
<path fill="none" stroke="#191970" d="M282.2328,-115.9004C239.7907,-106.8039 163.7125,-89.5085 114.5934,-77.8646"/>
<polygon fill="#191970" stroke="#191970" points="115.384,-74.455 104.8452,-75.543 113.7622,-81.2646 115.384,-74.455"/>
</g>
<!-- Node7 -->
<g id="node8" class="node">
<title>Node7</title>
<g id="a_node8"><a xlink:href="a00104.xhtml" target="_top" xlink:title="Fichier WAVE. ">
<polygon fill="#ffffff" stroke="#000000" points="126.8201,-56.5 126.8201,-75.5 209.8201,-75.5 209.8201,-56.5 126.8201,-56.5"/>
<text text-anchor="middle" x="168.3201" y="-63.5" font-family="Helvetica,sans-Serif" font-size="10.00" fill="#000000">file_type/wav.h</text>
</a>
</g>
</g>
<!-- Node2&#45;&gt;Node7 -->
<g id="edge14" class="edge">
<title>Node2&#45;&gt;Node7</title>
<path fill="none" stroke="#191970" d="M283.1517,-112.3733C257.78,-103.2629 221.9577,-89.5062 197.0128,-79.3404"/>
<polygon fill="#191970" stroke="#191970" points="198.283,-76.0783 187.7039,-75.5011 195.6141,-82.5495 198.283,-76.0783"/>
</g>
<!-- Node8 -->
<g id="node9" class="node">
<title>Node8</title>
<g id="a_node9"><a xlink:href="a00089.xhtml" target="_top" xlink:title="Fichier MP3. ">
<polygon fill="#ffffff" stroke="#000000" points="532.8201,-56.5 532.8201,-75.5 615.8201,-75.5 615.8201,-56.5 532.8201,-56.5"/>
<text text-anchor="middle" x="574.3201" y="-63.5" font-family="Helvetica,sans-Serif" font-size="10.00" fill="#000000">file_type/mp3.h</text>
</a>
</g>
</g>
<!-- Node2&#45;&gt;Node8 -->
<g id="edge18" class="edge">
<title>Node2&#45;&gt;Node8</title>
<path fill="none" stroke="#191970" d="M344.506,-114.2722C388.6233,-104.2938 469.4776,-86.9118 522.6218,-75.9541"/>
<polygon fill="#191970" stroke="#191970" points="523.4426,-79.3587 532.5345,-73.9192 522.0349,-72.5017 523.4426,-79.3587"/>
</g>
<!-- Node9 -->
<g id="node10" class="node">
<title>Node9</title>
<g id="a_node10"><a xlink:href="a00071.xhtml" target="_top" xlink:title="Fichier AVI. ">
<polygon fill="#ffffff" stroke="#000000" points="672.8201,-56.5 672.8201,-75.5 749.8201,-75.5 749.8201,-56.5 672.8201,-56.5"/>
<text text-anchor="middle" x="711.3201" y="-63.5" font-family="Helvetica,sans-Serif" font-size="10.00" fill="#000000">file_type/avi.h</text>
</a>
</g>
</g>
<!-- Node2&#45;&gt;Node9 -->
<g id="edge22" class="edge">
<title>Node2&#45;&gt;Node9</title>
<path fill="none" stroke="#191970" d="M344.7142,-117.7476C404.385,-110.3074 537.46,-93.9967 649.3201,-76 653.6493,-75.3035 658.1681,-74.5272 662.7173,-73.7236"/>
<polygon fill="#191970" stroke="#191970" points="663.4376,-77.1504 672.6633,-71.9412 662.2027,-70.2601 663.4376,-77.1504"/>
</g>
<!-- Node10 -->
<g id="node11" class="node">
<title>Node10</title>
<g id="a_node11"><a xlink:href="a00083.xhtml" target="_top" xlink:title="Fichier FLV. ">
<polygon fill="#ffffff" stroke="#000000" points="227.8201,-56.5 227.8201,-75.5 302.8201,-75.5 302.8201,-56.5 227.8201,-56.5"/>
<text text-anchor="middle" x="265.3201" y="-63.5" font-family="Helvetica,sans-Serif" font-size="10.00" fill="#000000">file_type/flv.h</text>
</a>
</g>
</g>
<!-- Node2&#45;&gt;Node10 -->
<g id="edge25" class="edge">
<title>Node2&#45;&gt;Node10</title>
<path fill="none" stroke="#191970" d="M299.6923,-112.2455C291.5118,-104.4564 281.6154,-93.3308 274.3534,-83.9439"/>
<polygon fill="#191970" stroke="#191970" points="277.041,-81.6879 268.3401,-75.6427 271.3721,-85.7944 277.041,-81.6879"/>
</g>
<!-- Node5&#45;&gt;Node1 -->
<g id="edge8" class="edge">
<title>Node5&#45;&gt;Node1</title>
<path fill="none" stroke="#191970" d="M328.9703,-56.3733C293.7695,-46.2122 238.5462,-30.2715 202.8907,-19.9791"/>
<polygon fill="#191970" stroke="#191970" points="203.5203,-16.518 192.9418,-17.1073 201.5789,-23.2434 203.5203,-16.518"/>
</g>
<!-- Node5&#45;&gt;Node2 -->
<g id="edge9" class="edge">
<title>Node5&#45;&gt;Node2</title>
<path fill="none" stroke="#191970" d="M359.1279,-75.6427C353.6381,-83.7196 343.7198,-95.4402 334.3862,-105.0751"/>
<polygon fill="#191970" stroke="#191970" points="331.7802,-102.7296 327.1221,-112.2455 336.6977,-107.7114 331.7802,-102.7296"/>
</g>
<!-- Node5&#45;&gt;Node3 -->
<g id="edge7" class="edge">
<title>Node5&#45;&gt;Node3</title>
<path fill="none" stroke="#191970" d="M362.3201,-56.2455C362.3201,-48.9382 362.3201,-38.6944 362.3201,-29.7046"/>
<polygon fill="#191970" stroke="#191970" points="365.8202,-29.6426 362.3201,-19.6427 358.8202,-29.6427 365.8202,-29.6426"/>
</g>
<!-- Node6&#45;&gt;Node1 -->
<g id="edge12" class="edge">
<title>Node6&#45;&gt;Node1</title>
<path fill="none" stroke="#191970" d="M85.7387,-56.2455C101.3686,-47.4928 124.5219,-34.527 142.3386,-24.5496"/>
<polygon fill="#191970" stroke="#191970" points="144.0861,-27.5825 151.101,-19.6427 140.6658,-21.475 144.0861,-27.5825"/>
</g>
<!-- Node6&#45;&gt;Node2 -->
<g id="edge13" class="edge">
<title>Node6&#45;&gt;Node2</title>
<path fill="none" stroke="#191970" d="M108.3275,-74.0244C153.5598,-83.8431 226.6069,-100.4995 272.2604,-111.3743"/>
<polygon fill="#191970" stroke="#191970" points="271.5846,-114.8113 282.1249,-113.737 273.2152,-108.0039 271.5846,-114.8113"/>
</g>
<!-- Node6&#45;&gt;Node3 -->
<g id="edge11" class="edge">
<title>Node6&#45;&gt;Node3</title>
<path fill="none" stroke="#191970" d="M108.4211,-57.7627C111.4314,-57.1607 114.4232,-56.5675 117.3201,-56 192.9327,-41.187 281.8701,-24.7295 329.0288,-16.0791"/>
<polygon fill="#191970" stroke="#191970" points="329.7824,-19.4994 338.9879,-14.2545 328.5209,-12.614 329.7824,-19.4994"/>
</g>
<!-- Node7&#45;&gt;Node1 -->
<g id="edge16" class="edge">
<title>Node7&#45;&gt;Node1</title>
<path fill="none" stroke="#191970" d="M168.3201,-56.2455C168.3201,-48.9382 168.3201,-38.6944 168.3201,-29.7046"/>
<polygon fill="#191970" stroke="#191970" points="171.8202,-29.6426 168.3201,-19.6427 164.8202,-29.6427 171.8202,-29.6426"/>
</g>
<!-- Node7&#45;&gt;Node2 -->
<g id="edge17" class="edge">
<title>Node7&#45;&gt;Node2</title>
<path fill="none" stroke="#191970" d="M198.1385,-75.5011C223.4134,-84.5685 259.2372,-98.3201 284.2819,-108.5189"/>
<polygon fill="#191970" stroke="#191970" points="283.0564,-111.7994 293.6357,-112.3733 285.7234,-105.3273 283.0564,-111.7994"/>
</g>
<!-- Node7&#45;&gt;Node3 -->
<g id="edge15" class="edge">
<title>Node7&#45;&gt;Node3</title>
<path fill="none" stroke="#191970" d="M201.6699,-56.3733C237.3637,-46.0699 293.6448,-29.8238 329.236,-19.55"/>
<polygon fill="#191970" stroke="#191970" points="330.4943,-22.8298 339.1314,-16.6936 328.5529,-16.1044 330.4943,-22.8298"/>
</g>
<!-- Node8&#45;&gt;Node1 -->
<g id="edge20" class="edge">
<title>Node8&#45;&gt;Node1</title>
<path fill="none" stroke="#191970" d="M532.6111,-57.5934C529.4713,-57.0306 526.348,-56.4925 523.3201,-56 406.4773,-36.9952 266.9723,-20.8049 203.2173,-13.7625"/>
<polygon fill="#191970" stroke="#191970" points="203.2543,-10.2456 192.932,-12.6333 202.4903,-17.2038 203.2543,-10.2456"/>
</g>
<!-- Node8&#45;&gt;Node2 -->
<g id="edge21" class="edge">
<title>Node8&#45;&gt;Node2</title>
<path fill="none" stroke="#191970" d="M534.9609,-75.5671C486.314,-86.465 404.1509,-104.0669 354.625,-114.1789"/>
<polygon fill="#191970" stroke="#191970" points="353.6802,-110.7992 344.5759,-116.2179 355.0722,-117.6594 353.6802,-110.7992"/>
</g>
<!-- Node8&#45;&gt;Node3 -->
<g id="edge19" class="edge">
<title>Node8&#45;&gt;Node3</title>
<path fill="none" stroke="#191970" d="M537.876,-56.3733C497.7748,-45.7805 433.8947,-28.9065 395.2511,-18.6988"/>
<polygon fill="#191970" stroke="#191970" points="396.0932,-15.3012 385.5309,-16.1312 394.3054,-22.0691 396.0932,-15.3012"/>
</g>
<!-- Node9&#45;&gt;Node2 -->
<g id="edge24" class="edge">
<title>Node9&#45;&gt;Node2</title>
<path fill="none" stroke="#191970" d="M672.6653,-75.1163C670.8643,-75.4217 669.0766,-75.7174 667.3201,-76 554.9112,-94.085 421.0787,-110.4674 354.6644,-117.8565"/>
<polygon fill="#191970" stroke="#191970" points="354.155,-114.3913 344.5978,-118.964 354.9206,-121.3493 354.155,-114.3913"/>
</g>
<!-- Node9&#45;&gt;Node3 -->
<g id="edge23" class="edge">
<title>Node9&#45;&gt;Node3</title>
<path fill="none" stroke="#191970" d="M672.5589,-58.537C667.7677,-57.6587 662.9342,-56.7936 658.3201,-56 563.1814,-39.6365 450.3855,-22.818 395.5595,-14.8077"/>
<polygon fill="#191970" stroke="#191970" points="395.7898,-11.3044 385.3896,-13.3259 394.7804,-18.2313 395.7898,-11.3044"/>
</g>
<!-- Node10&#45;&gt;Node1 -->
<g id="edge27" class="edge">
<title>Node10&#45;&gt;Node1</title>
<path fill="none" stroke="#191970" d="M248.424,-56.2455C233.4021,-47.5731 211.2157,-34.7645 193.9991,-24.825"/>
<polygon fill="#191970" stroke="#191970" points="195.4329,-21.6114 185.0226,-19.6427 191.933,-27.6737 195.4329,-21.6114"/>
</g>
<!-- Node10&#45;&gt;Node2 -->
<g id="edge28" class="edge">
<title>Node10&#45;&gt;Node2</title>
<path fill="none" stroke="#191970" d="M278.8304,-75.6427C286.9943,-83.3997 296.895,-94.5176 304.1821,-103.9209"/>
<polygon fill="#191970" stroke="#191970" points="301.5186,-106.2097 310.226,-112.2455 307.1831,-102.0971 301.5186,-106.2097"/>
</g>
<!-- Node10&#45;&gt;Node3 -->
<g id="edge26" class="edge">
<title>Node10&#45;&gt;Node3</title>
<path fill="none" stroke="#191970" d="M282.2162,-56.2455C297.2381,-47.5731 319.4244,-34.7645 336.6411,-24.825"/>
<polygon fill="#191970" stroke="#191970" points="338.7072,-27.6737 345.6176,-19.6427 335.2073,-21.6114 338.7072,-27.6737"/>
</g>
</g>
</svg>
