<?xml version="1.0" encoding="UTF-8" standalone="no"?>
<!DOCTYPE svg PUBLIC "-//W3C//DTD SVG 1.1//EN"
 "http://www.w3.org/Graphics/SVG/1.1/DTD/svg11.dtd">
<!-- Generated by graphviz version 2.40.1 (20161225.0304)
 -->
<!-- Title: mp3_mpeg_hdr_get_samprate Pages: 1 -->
<svg width="472pt" height="47pt"
 viewBox="0.00 0.00 472.00 47.00" xmlns="http://www.w3.org/2000/svg" xmlns:xlink="http://www.w3.org/1999/xlink">
<g id="graph0" class="graph" transform="scale(1 1) rotate(0) translate(4 43)">
<title>mp3_mpeg_hdr_get_samprate</title>
<polygon fill="#ffffff" stroke="transparent" points="-4,4 -4,-43 468,-43 468,4 -4,4"/>
<!-- Node87 -->
<g id="node1" class="node">
<title>Node87</title>
<polygon fill="#bfbfbf" stroke="#000000" points="0,-19.5 0,-38.5 148,-38.5 148,-19.5 0,-19.5"/>
<text text-anchor="middle" x="74" y="-26.5" font-family="Helvetica,sans-Serif" font-size="10.00" fill="#000000">mp3_mpeg_hdr_get_samprate</text>
</g>
<!-- Node88 -->
<g id="node2" class="node">
<title>Node88</title>
<g id="a_node2"><a xlink:href="a00086.xhtml#a75bc8b052a4d00ab95b05b576918360d" target="_top" xlink:title="Test si le header est un header MPEG 1/2 Layer III. ">
<polygon fill="#ffffff" stroke="#000000" points="359,-19.5 359,-38.5 464,-38.5 464,-19.5 359,-19.5"/>
<text text-anchor="middle" x="411.5" y="-26.5" font-family="Helvetica,sans-Serif" font-size="10.00" fill="#000000">mp3_mpeg_hdr_test</text>
</a>
</g>
</g>
<!-- Node87&#45;&gt;Node88 -->
<g id="edge1" class="edge">
<title>Node87&#45;&gt;Node88</title>
<path fill="none" stroke="#191970" d="M148.0658,-29C208.0732,-29 291.6982,-29 348.5181,-29"/>
<polygon fill="#191970" stroke="#191970" points="348.804,-32.5001 358.804,-29 348.804,-25.5001 348.804,-32.5001"/>
</g>
<!-- Node89 -->
<g id="node3" class="node">
<title>Node89</title>
<g id="a_node3"><a xlink:href="a00086.xhtml#a2f08a046bc257029ca74b86b48204380" target="_top" xlink:title="Obtient la version de la norme MPEG du header d&#39;une frame MP3. ">
<polygon fill="#ffffff" stroke="#000000" points="184,-.5 184,-19.5 323,-19.5 323,-.5 184,-.5"/>
<text text-anchor="middle" x="253.5" y="-7.5" font-family="Helvetica,sans-Serif" font-size="10.00" fill="#000000">mp3_mpeg_hdr_get_version</text>
</a>
</g>
</g>
<!-- Node87&#45;&gt;Node89 -->
<g id="edge2" class="edge">
<title>Node87&#45;&gt;Node89</title>
<path fill="none" stroke="#191970" d="M148.0459,-21.1623C156.5835,-20.2586 165.3168,-19.3342 173.9237,-18.4231"/>
<polygon fill="#191970" stroke="#191970" points="174.3741,-21.8951 183.9501,-17.3618 173.6372,-14.934 174.3741,-21.8951"/>
</g>
<!-- Node89&#45;&gt;Node88 -->
<g id="edge3" class="edge">
<title>Node89&#45;&gt;Node88</title>
<path fill="none" stroke="#191970" d="M323.261,-18.389C331.7242,-19.4067 340.3307,-20.4417 348.6849,-21.4463"/>
<polygon fill="#191970" stroke="#191970" points="348.3772,-24.9344 358.7236,-22.6535 349.213,-17.9845 348.3772,-24.9344"/>
</g>
</g>
</svg>
