<?xml version="1.0" encoding="UTF-8" standalone="no"?>
<!DOCTYPE svg PUBLIC "-//W3C//DTD SVG 1.1//EN"
 "http://www.w3.org/Graphics/SVG/1.1/DTD/svg11.dtd">
<!-- Generated by graphviz version 2.40.1 (20161225.0304)
 -->
<!-- Title: src/common.h Pages: 1 -->
<!--zoomable 140 -->
<svg id="main" version="1.1" xmlns="http://www.w3.org/2000/svg" xmlns:xlink="http://www.w3.org/1999/xlink" xml:space="preserve" onload="init(evt)">
<style type="text/css"><![CDATA[
.edge:hover path { stroke: red; }
.edge:hover polygon { stroke: red; fill: red; }
]]></style>
<script type="text/javascript"><![CDATA[
var edges = document.getElementsByTagName('g');
if (edges && edges.length) {
  for (var i=0;i<edges.length;i++) {
    if (edges[i].id.substr(0,4)=='edge') {
      edges[i].setAttribute('class','edge');
    }
  }
}
]]></script>
        <defs>
                <circle id="rim" cx="0" cy="0" r="7"/>
                <circle id="rim2" cx="0" cy="0" r="3.5"/>
                <g id="zoomPlus">
                        <use xlink:href="#rim" fill="#404040">
                                <set attributeName="fill" to="#808080" begin="zoomplus.mouseover" end="zoomplus.mouseout"/>
                        </use>
                        <path d="M-4,0h8M0,-4v8" fill="none" stroke="white" stroke-width="1.5" pointer-events="none"/>
                </g>
                <g id="zoomMin">
                        <use xlink:href="#rim" fill="#404040">
                                <set attributeName="fill" to="#808080" begin="zoomminus.mouseover" end="zoomminus.mouseout"/>
                        </use>
                        <path d="M-4,0h8" fill="none" stroke="white" stroke-width="1.5" pointer-events="none"/>
                </g>
                <g id="dirArrow">
                        <path fill="none" stroke="white" stroke-width="1.5" d="M0,-3.0v7 M-2.5,-0.5L0,-3.0L2.5,-0.5"/>
                </g>
               <g id="resetDef">
                       <use xlink:href="#rim2" fill="#404040">
                               <set attributeName="fill" to="#808080" begin="reset.mouseover" end="reset.mouseout"/>
                       </use>
               </g>
        </defs>

<script type="text/javascript">
var viewWidth = 768;
var viewHeight = 140;
var sectionId = 'dynsection-0';
</script>
<script xlink:href="svgpan.js"/>
<svg id="graph" class="graph">
<g id="viewport">
<title>src/common.h</title>
<polygon fill="#ffffff" stroke="transparent" points="-4,4 -4,-136 763.5,-136 763.5,4 -4,4"/>
<!-- Node0 -->
<g id="node1" class="node">
<title>Node0</title>
<polygon fill="#bfbfbf" stroke="#000000" points="330,-112.5 330,-131.5 409,-131.5 409,-112.5 330,-112.5"/>
<text text-anchor="middle" x="369.5" y="-119.5" font-family="Helvetica,sans-Serif" font-size="10.00" fill="#000000">src/common.h</text>
</g>
<!-- Node1 -->
<g id="node2" class="node">
<title>Node1</title>
<polygon fill="#ffffff" stroke="#bfbfbf" points="249.5,-.5 249.5,-19.5 295.5,-19.5 295.5,-.5 249.5,-.5"/>
<text text-anchor="middle" x="272.5" y="-7.5" font-family="Helvetica,sans-Serif" font-size="10.00" fill="#000000">stdio.h</text>
</g>
<!-- Node0&#45;&gt;Node1 -->
<g id="edge1" class="edge">
<title>Node0&#45;&gt;Node1</title>
<path fill="none" stroke="#191970" d="M329.9833,-120.4584C267.6696,-117.1053 151.0187,-106.7792 125.5,-76 92.0214,-35.6201 186.4407,-18.9853 239.3667,-12.9742"/>
<polygon fill="#191970" stroke="#191970" points="239.7761,-16.4505 249.3485,-11.9097 239.0337,-9.4899 239.7761,-16.4505"/>
</g>
<!-- Node2 -->
<g id="node3" class="node">
<title>Node2</title>
<polygon fill="#ffffff" stroke="#bfbfbf" points="395,-.5 395,-19.5 444,-19.5 444,-.5 395,-.5"/>
<text text-anchor="middle" x="419.5" y="-7.5" font-family="Helvetica,sans-Serif" font-size="10.00" fill="#000000">stdint.h</text>
</g>
<!-- Node0&#45;&gt;Node2 -->
<g id="edge2" class="edge">
<title>Node0&#45;&gt;Node2</title>
<path fill="none" stroke="#191970" d="M409.1062,-120.6869C472.925,-117.6453 594.0518,-107.7357 620.5,-76 626.1907,-69.1715 626.0401,-62.9512 620.5,-56 600.0962,-30.3991 506.249,-17.8991 454.3167,-12.8479"/>
<polygon fill="#191970" stroke="#191970" points="454.4991,-9.3498 444.2178,-11.9081 453.8505,-16.3197 454.4991,-9.3498"/>
</g>
<!-- Node3 -->
<g id="node4" class="node">
<title>Node3</title>
<g id="a_node4"><a xlink:href="a00008.xhtml" target="_top" xlink:title="Définitions communes à la partie privée et public de la bibliothèque. ">
<polygon fill="#ffffff" stroke="#000000" points="667.5,-56.5 667.5,-75.5 759.5,-75.5 759.5,-56.5 667.5,-56.5"/>
<text text-anchor="middle" x="713.5" y="-63.5" font-family="Helvetica,sans-Serif" font-size="10.00" fill="#000000">stegx_common.h</text>
</a>
</g>
</g>
<!-- Node0&#45;&gt;Node3 -->
<g id="edge3" class="edge">
<title>Node0&#45;&gt;Node3</title>
<path fill="none" stroke="#191970" d="M409.0209,-115.6572C463.8935,-106.8373 566.2617,-90.3349 653.5,-76 654.7602,-75.7929 656.0353,-75.5831 657.321,-75.3712"/>
<polygon fill="#191970" stroke="#191970" points="658.0204,-78.8032 667.3157,-73.7192 656.8788,-71.8969 658.0204,-78.8032"/>
</g>
<!-- Node4 -->
<g id="node5" class="node">
<title>Node4</title>
<g id="a_node5"><a xlink:href="a00077.xhtml" target="_top" xlink:title="Fichier BMP. ">
<polygon fill="#ffffff" stroke="#000000" points="328,-56.5 328,-75.5 411,-75.5 411,-56.5 328,-56.5"/>
<text text-anchor="middle" x="369.5" y="-63.5" font-family="Helvetica,sans-Serif" font-size="10.00" fill="#000000">file_type/bmp.h</text>
</a>
</g>
</g>
<!-- Node0&#45;&gt;Node4 -->
<g id="edge4" class="edge">
<title>Node0&#45;&gt;Node4</title>
<path fill="none" stroke="#191970" d="M364.2332,-112.2455C362.8221,-104.9382 362.4179,-94.6944 363.0205,-85.7046"/>
<polygon fill="#191970" stroke="#191970" points="366.5111,-85.9945 364.2549,-75.6427 359.5632,-85.1421 366.5111,-85.9945"/>
</g>
<!-- Node5 -->
<g id="node6" class="node">
<title>Node5</title>
<g id="a_node6"><a xlink:href="a00095.xhtml" target="_top" xlink:title="Fichier PNG. ">
<polygon fill="#ffffff" stroke="#000000" points="429.5,-56.5 429.5,-75.5 509.5,-75.5 509.5,-56.5 429.5,-56.5"/>
<text text-anchor="middle" x="469.5" y="-63.5" font-family="Helvetica,sans-Serif" font-size="10.00" fill="#000000">file_type/png.h</text>
</a>
</g>
</g>
<!-- Node0&#45;&gt;Node5 -->
<g id="edge8" class="edge">
<title>Node0&#45;&gt;Node5</title>
<path fill="none" stroke="#191970" d="M381.6518,-112.2455C395.7194,-103.4125 418.9203,-90.2887 438.0372,-80.2758"/>
<polygon fill="#191970" stroke="#191970" points="439.7472,-83.3321 447.0358,-75.6427 436.5428,-77.1085 439.7472,-83.3321"/>
</g>
<!-- Node6 -->
<g id="node7" class="node">
<title>Node6</title>
<g id="a_node7"><a xlink:href="a00104.xhtml" target="_top" xlink:title="Fichier WAVE. ">
<polygon fill="#ffffff" stroke="#000000" points="528,-56.5 528,-75.5 611,-75.5 611,-56.5 528,-56.5"/>
<text text-anchor="middle" x="569.5" y="-63.5" font-family="Helvetica,sans-Serif" font-size="10.00" fill="#000000">file_type/wav.h</text>
</a>
</g>
</g>
<!-- Node0&#45;&gt;Node6 -->
<g id="edge12" class="edge">
<title>Node0&#45;&gt;Node6</title>
<path fill="none" stroke="#191970" d="M398.6392,-112.3733C430.6188,-102.9001 482.2482,-88.4032 520.4532,-78.1435"/>
<polygon fill="#191970" stroke="#191970" points="521.5914,-81.4623 530.3501,-75.5011 519.7857,-74.6992 521.5914,-81.4623"/>
</g>
<!-- Node7 -->
<g id="node8" class="node">
<title>Node7</title>
<g id="a_node8"><a xlink:href="a00089.xhtml" target="_top" xlink:title="Fichier MP3. ">
<polygon fill="#ffffff" stroke="#000000" points="134,-56.5 134,-75.5 217,-75.5 217,-56.5 134,-56.5"/>
<text text-anchor="middle" x="175.5" y="-63.5" font-family="Helvetica,sans-Serif" font-size="10.00" fill="#000000">file_type/mp3.h</text>
</a>
</g>
</g>
<!-- Node0&#45;&gt;Node7 -->
<g id="edge16" class="edge">
<title>Node0&#45;&gt;Node7</title>
<path fill="none" stroke="#191970" d="M330.9082,-112.3733C296.6797,-103.021 247.1542,-88.7725 213.2005,-78.5385"/>
<polygon fill="#191970" stroke="#191970" points="213.7829,-75.0575 203.1973,-75.5011 211.749,-81.7556 213.7829,-75.0575"/>
</g>
<!-- Node8 -->
<g id="node9" class="node">
<title>Node8</title>
<g id="a_node9"><a xlink:href="a00071.xhtml" target="_top" xlink:title="Fichier AVI. ">
<polygon fill="#ffffff" stroke="#000000" points="0,-56.5 0,-75.5 77,-75.5 77,-56.5 0,-56.5"/>
<text text-anchor="middle" x="38.5" y="-63.5" font-family="Helvetica,sans-Serif" font-size="10.00" fill="#000000">file_type/avi.h</text>
</a>
</g>
</g>
<!-- Node0&#45;&gt;Node8 -->
<g id="edge20" class="edge">
<title>Node0&#45;&gt;Node8</title>
<path fill="none" stroke="#191970" d="M329.9116,-116.6509C276.2203,-108.6085 177.6545,-92.7322 87.038,-76.7882"/>
<polygon fill="#191970" stroke="#191970" points="87.623,-73.3374 77.1668,-75.0454 86.4059,-80.2308 87.623,-73.3374"/>
</g>
<!-- Node9 -->
<g id="node10" class="node">
<title>Node9</title>
<g id="a_node10"><a xlink:href="a00083.xhtml" target="_top" xlink:title="Fichier FLV. ">
<polygon fill="#ffffff" stroke="#000000" points="235,-56.5 235,-75.5 310,-75.5 310,-56.5 235,-56.5"/>
<text text-anchor="middle" x="272.5" y="-63.5" font-family="Helvetica,sans-Serif" font-size="10.00" fill="#000000">file_type/flv.h</text>
</a>
</g>
</g>
<!-- Node0&#45;&gt;Node9 -->
<g id="edge23" class="edge">
<title>Node0&#45;&gt;Node9</title>
<path fill="none" stroke="#191970" d="M347.337,-112.2455C330.7951,-103.6534 308.6128,-91.0014 292.5902,-81.1018"/>
<polygon fill="#191970" stroke="#191970" points="294.2799,-78.0292 283.9574,-75.6427 290.5386,-83.9456 294.2799,-78.0292"/>
</g>
<!-- Node4&#45;&gt;Node0 -->
<g id="edge7" class="edge">
<title>Node4&#45;&gt;Node0</title>
<path fill="none" stroke="#191970" d="M374.7451,-75.6427C376.1665,-82.9199 376.581,-93.155 375.9887,-102.1575"/>
<polygon fill="#191970" stroke="#191970" points="372.4947,-101.8972 374.7668,-112.2455 379.4439,-102.739 372.4947,-101.8972"/>
</g>
<!-- Node4&#45;&gt;Node1 -->
<g id="edge5" class="edge">
<title>Node4&#45;&gt;Node1</title>
<path fill="none" stroke="#191970" d="M352.6039,-56.2455C337.582,-47.5731 315.3957,-34.7645 298.179,-24.825"/>
<polygon fill="#191970" stroke="#191970" points="299.6128,-21.6114 289.2025,-19.6427 296.1129,-27.6737 299.6128,-21.6114"/>
</g>
<!-- Node4&#45;&gt;Node2 -->
<g id="edge6" class="edge">
<title>Node4&#45;&gt;Node2</title>
<path fill="none" stroke="#191970" d="M378.2093,-56.2455C385.3073,-48.2958 395.5084,-36.8706 403.995,-27.3656"/>
<polygon fill="#191970" stroke="#191970" points="406.8411,-29.4331 410.8905,-19.6427 401.6195,-24.771 406.8411,-29.4331"/>
</g>
<!-- Node5&#45;&gt;Node0 -->
<g id="edge11" class="edge">
<title>Node5&#45;&gt;Node0</title>
<path fill="none" stroke="#191970" d="M457.751,-75.5011C443.7382,-84.3278 420.302,-97.5932 401.0106,-107.6992"/>
<polygon fill="#191970" stroke="#191970" points="399.2212,-104.6838 391.9326,-112.3733 402.4256,-110.9073 399.2212,-104.6838"/>
</g>
<!-- Node5&#45;&gt;Node1 -->
<g id="edge9" class="edge">
<title>Node5&#45;&gt;Node1</title>
<path fill="none" stroke="#191970" d="M435.6345,-56.3733C399.2886,-46.0414 341.9214,-29.734 305.7967,-19.465"/>
<polygon fill="#191970" stroke="#191970" points="306.3363,-15.9798 295.7604,-16.6121 304.4223,-22.7131 306.3363,-15.9798"/>
</g>
<!-- Node5&#45;&gt;Node2 -->
<g id="edge10" class="edge">
<title>Node5&#45;&gt;Node2</title>
<path fill="none" stroke="#191970" d="M460.7907,-56.2455C453.6927,-48.2958 443.4916,-36.8706 435.005,-27.3656"/>
<polygon fill="#191970" stroke="#191970" points="437.3805,-24.771 428.1095,-19.6427 432.1589,-29.4331 437.3805,-24.771"/>
</g>
<!-- Node6&#45;&gt;Node0 -->
<g id="edge15" class="edge">
<title>Node6&#45;&gt;Node0</title>
<path fill="none" stroke="#191970" d="M540.7847,-75.5011C508.9799,-84.9296 457.3787,-99.4228 419.0555,-109.7199"/>
<polygon fill="#191970" stroke="#191970" points="417.8811,-106.4108 409.1232,-112.3733 419.6878,-113.1736 417.8811,-106.4108"/>
</g>
<!-- Node6&#45;&gt;Node1 -->
<g id="edge13" class="edge">
<title>Node6&#45;&gt;Node1</title>
<path fill="none" stroke="#191970" d="M527.7572,-57.7842C524.6252,-57.1773 521.513,-56.5771 518.5,-56 442.3288,-41.4108 352.7806,-24.8025 305.5429,-16.0837"/>
<polygon fill="#191970" stroke="#191970" points="306.0443,-12.6172 295.5752,-14.2451 304.7745,-19.5011 306.0443,-12.6172"/>
</g>
<!-- Node6&#45;&gt;Node2 -->
<g id="edge14" class="edge">
<title>Node6&#45;&gt;Node2</title>
<path fill="none" stroke="#191970" d="M543.7141,-56.3733C518.9461,-47.1265 481.3576,-33.0935 454.0173,-22.8865"/>
<polygon fill="#191970" stroke="#191970" points="455.0436,-19.5337 444.451,-19.315 452.5953,-26.0916 455.0436,-19.5337"/>
</g>
<!-- Node7&#45;&gt;Node0 -->
<g id="edge19" class="edge">
<title>Node7&#45;&gt;Node0</title>
<path fill="none" stroke="#191970" d="M213.6319,-75.5011C247.8694,-84.8494 297.6758,-99.1765 331.7814,-109.4561"/>
<polygon fill="#191970" stroke="#191970" points="330.8067,-112.8179 341.3922,-112.3733 332.8399,-106.1196 330.8067,-112.8179"/>
</g>
<!-- Node7&#45;&gt;Node1 -->
<g id="edge17" class="edge">
<title>Node7&#45;&gt;Node1</title>
<path fill="none" stroke="#191970" d="M192.3961,-56.2455C207.418,-47.5731 229.6043,-34.7645 246.821,-24.825"/>
<polygon fill="#191970" stroke="#191970" points="248.8871,-27.6737 255.7975,-19.6427 245.3872,-21.6114 248.8871,-27.6737"/>
</g>
<!-- Node7&#45;&gt;Node2 -->
<g id="edge18" class="edge">
<title>Node7&#45;&gt;Node2</title>
<path fill="none" stroke="#191970" d="M217.1679,-56.4369C264.4216,-45.5918 340.6193,-28.1038 384.7836,-17.9677"/>
<polygon fill="#191970" stroke="#191970" points="385.7927,-21.3272 394.7563,-15.6789 384.2268,-14.5046 385.7927,-21.3272"/>
</g>
<!-- Node8&#45;&gt;Node0 -->
<g id="edge22" class="edge">
<title>Node8&#45;&gt;Node0</title>
<path fill="none" stroke="#191970" d="M77.1846,-71.7764C84.9832,-73.191 93.0315,-74.6777 100.5,-76 176.9799,-89.5408 265.5236,-103.979 319.6041,-112.9932"/>
<polygon fill="#191970" stroke="#191970" points="319.1783,-116.4706 329.6185,-114.6668 320.3322,-109.5663 319.1783,-116.4706"/>
</g>
<!-- Node8&#45;&gt;Node1 -->
<g id="edge21" class="edge">
<title>Node8&#45;&gt;Node1</title>
<path fill="none" stroke="#191970" d="M77.1403,-56.7527C122.4708,-45.9044 196.8449,-28.1055 239.5574,-17.8837"/>
<polygon fill="#191970" stroke="#191970" points="240.5321,-21.2493 249.4429,-15.5179 238.9029,-14.4416 240.5321,-21.2493"/>
</g>
<!-- Node9&#45;&gt;Node0 -->
<g id="edge26" class="edge">
<title>Node9&#45;&gt;Node0</title>
<path fill="none" stroke="#191970" d="M294.4476,-75.6427C310.9403,-84.1994 333.1247,-96.8456 349.2006,-106.769"/>
<polygon fill="#191970" stroke="#191970" points="347.547,-109.8642 357.8707,-112.2455 351.2853,-103.946 347.547,-109.8642"/>
</g>
<!-- Node9&#45;&gt;Node1 -->
<g id="edge24" class="edge">
<title>Node9&#45;&gt;Node1</title>
<path fill="none" stroke="#191970" d="M272.5,-56.2455C272.5,-48.9382 272.5,-38.6944 272.5,-29.7046"/>
<polygon fill="#191970" stroke="#191970" points="276.0001,-29.6426 272.5,-19.6427 269.0001,-29.6427 276.0001,-29.6426"/>
</g>
<!-- Node9&#45;&gt;Node2 -->
<g id="edge25" class="edge">
<title>Node9&#45;&gt;Node2</title>
<path fill="none" stroke="#191970" d="M297.7702,-56.3733C321.8966,-47.1822 358.4362,-33.2624 385.1877,-23.0713"/>
<polygon fill="#191970" stroke="#191970" points="386.4607,-26.3318 394.5596,-19.5011 383.9687,-19.7904 386.4607,-26.3318"/>
</g>
</g>
</svg>
        <g id="navigator" transform="translate(0 0)" fill="#404254">
                <rect fill="#f2f5e9" fill-opacity="0.5" stroke="#606060" stroke-width=".5" x="0" y="0" width="60" height="60"/>
                <use id="zoomplus" xlink:href="#zoomPlus" x="17" y="9" onmousedown="handleZoom(evt,'in')"/>
                <use id="zoomminus" xlink:href="#zoomMin" x="42" y="9" onmousedown="handleZoom(evt,'out')"/>
                <use id="reset" xlink:href="#resetDef" x="30" y="36" onmousedown="handleReset()"/>
                <g id="arrowUp" xlink:href="#dirArrow" transform="translate(30 24)" onmousedown="handlePan(0,-1)">
                  <use xlink:href="#rim" fill="#404040">
                        <set attributeName="fill" to="#808080" begin="arrowUp.mouseover" end="arrowUp.mouseout"/>
                  </use>
                  <path fill="none" stroke="white" stroke-width="1.5" d="M0,-3.0v7 M-2.5,-0.5L0,-3.0L2.5,-0.5"/>
                </g>
                <g id="arrowRight" xlink:href="#dirArrow" transform="rotate(90) translate(36 -43)" onmousedown="handlePan(1,0)">
                  <use xlink:href="#rim" fill="#404040">
                        <set attributeName="fill" to="#808080" begin="arrowRight.mouseover" end="arrowRight.mouseout"/>
                  </use>
                  <path fill="none" stroke="white" stroke-width="1.5" d="M0,-3.0v7 M-2.5,-0.5L0,-3.0L2.5,-0.5"/>
                </g>
                <g id="arrowDown" xlink:href="#dirArrow" transform="rotate(180) translate(-30 -48)" onmousedown="handlePan(0,1)">
                  <use xlink:href="#rim" fill="#404040">
                        <set attributeName="fill" to="#808080" begin="arrowDown.mouseover" end="arrowDown.mouseout"/>
                  </use>
                  <path fill="none" stroke="white" stroke-width="1.5" d="M0,-3.0v7 M-2.5,-0.5L0,-3.0L2.5,-0.5"/>
                </g>
                <g id="arrowLeft" xlink:href="#dirArrow" transform="rotate(270) translate(-36 17)" onmousedown="handlePan(-1,0)">
                  <use xlink:href="#rim" fill="#404040">
                        <set attributeName="fill" to="#808080" begin="arrowLeft.mouseover" end="arrowLeft.mouseout"/>
                  </use>
                  <path fill="none" stroke="white" stroke-width="1.5" d="M0,-3.0v7 M-2.5,-0.5L0,-3.0L2.5,-0.5"/>
                </g>
        </g>
        <svg viewBox="0 0 15 15" width="100%" height="30px" preserveAspectRatio="xMaxYMin meet">
         <g id="arrow_out" transform="scale(0.3 0.3)">
          <a xlink:href="a00048_org.svg" target="_base">
           <rect id="button" ry="5" rx="5" y="6" x="6" height="38" width="38"
                fill="#f2f5e9" fill-opacity="0.5" stroke="#606060" stroke-width="1.0"/>
           <path id="arrow"
             d="M 11.500037,31.436501 C 11.940474,20.09759 22.043105,11.32322 32.158766,21.979434 L 37.068811,17.246167 C 37.068811,17.246167 37.088388,32 37.088388,32 L 22.160133,31.978069 C 22.160133,31.978069 26.997745,27.140456 26.997745,27.140456 C 18.528582,18.264221 13.291696,25.230495 11.500037,31.436501 z"
             style="fill:#404040;"/>
          </a>
         </g>
        </svg>
</svg>
