<?xml version="1.0" encoding="UTF-8" standalone="no"?>
<!DOCTYPE svg PUBLIC "-//W3C//DTD SVG 1.1//EN"
 "http://www.w3.org/Graphics/SVG/1.1/DTD/svg11.dtd">
<!-- Generated by graphviz version 2.40.1 (20161225.0304)
 -->
<!-- Title: src/algo/junk_chunk.c Pages: 1 -->
<!--zoomable 196 -->
<svg id="main" version="1.1" xmlns="http://www.w3.org/2000/svg" xmlns:xlink="http://www.w3.org/1999/xlink" xml:space="preserve" onload="init(evt)">
<style type="text/css"><![CDATA[
.edge:hover path { stroke: red; }
.edge:hover polygon { stroke: red; fill: red; }
]]></style>
<script type="text/javascript"><![CDATA[
var edges = document.getElementsByTagName('g');
if (edges && edges.length) {
  for (var i=0;i<edges.length;i++) {
    if (edges[i].id.substr(0,4)=='edge') {
      edges[i].setAttribute('class','edge');
    }
  }
}
]]></script>
        <defs>
                <circle id="rim" cx="0" cy="0" r="7"/>
                <circle id="rim2" cx="0" cy="0" r="3.5"/>
                <g id="zoomPlus">
                        <use xlink:href="#rim" fill="#404040">
                                <set attributeName="fill" to="#808080" begin="zoomplus.mouseover" end="zoomplus.mouseout"/>
                        </use>
                        <path d="M-4,0h8M0,-4v8" fill="none" stroke="white" stroke-width="1.5" pointer-events="none"/>
                </g>
                <g id="zoomMin">
                        <use xlink:href="#rim" fill="#404040">
                                <set attributeName="fill" to="#808080" begin="zoomminus.mouseover" end="zoomminus.mouseout"/>
                        </use>
                        <path d="M-4,0h8" fill="none" stroke="white" stroke-width="1.5" pointer-events="none"/>
                </g>
                <g id="dirArrow">
                        <path fill="none" stroke="white" stroke-width="1.5" d="M0,-3.0v7 M-2.5,-0.5L0,-3.0L2.5,-0.5"/>
                </g>
               <g id="resetDef">
                       <use xlink:href="#rim2" fill="#404040">
                               <set attributeName="fill" to="#808080" begin="reset.mouseover" end="reset.mouseout"/>
                       </use>
               </g>
        </defs>

<script type="text/javascript">
var viewWidth = 1233;
var viewHeight = 196;
var sectionId = 'dynsection-0';
</script>
<script xlink:href="svgpan.js"/>
<svg id="graph" class="graph">
<g id="viewport">
<title>src/algo/junk_chunk.c</title>
<polygon fill="#ffffff" stroke="transparent" points="-4,4 -4,-192 1228.6898,-192 1228.6898,4 -4,4"/>
<!-- Node0 -->
<g id="node1" class="node">
<title>Node0</title>
<polygon fill="#bfbfbf" stroke="#000000" points="799.1898,-168.5 799.1898,-187.5 911.1898,-187.5 911.1898,-168.5 799.1898,-168.5"/>
<text text-anchor="middle" x="855.1898" y="-175.5" font-family="Helvetica,sans-Serif" font-size="10.00" fill="#000000">src/algo/junk_chunk.c</text>
</g>
<!-- Node1 -->
<g id="node2" class="node">
<title>Node1</title>
<polygon fill="#ffffff" stroke="#bfbfbf" points="211.1898,-.5 211.1898,-19.5 257.1898,-19.5 257.1898,-.5 211.1898,-.5"/>
<text text-anchor="middle" x="234.1898" y="-7.5" font-family="Helvetica,sans-Serif" font-size="10.00" fill="#000000">stdio.h</text>
</g>
<!-- Node0&#45;&gt;Node1 -->
<g id="edge1" class="edge">
<title>Node0&#45;&gt;Node1</title>
<path fill="none" stroke="#191970" d="M798.9154,-175.7624C616.9597,-167.9266 53.4291,-138.7312 4.1898,-76 -1.2985,-69.0078 -1.4456,-62.8742 4.1898,-56 28.6763,-26.1313 143.1594,-15.2704 200.8213,-11.648"/>
<polygon fill="#191970" stroke="#191970" points="201.1162,-15.1368 210.8923,-11.0529 200.7033,-8.1489 201.1162,-15.1368"/>
</g>
<!-- Node2 -->
<g id="node3" class="node">
<title>Node2</title>
<polygon fill="#ffffff" stroke="#bfbfbf" points="1013.1898,-112.5 1013.1898,-131.5 1061.1898,-131.5 1061.1898,-112.5 1013.1898,-112.5"/>
<text text-anchor="middle" x="1037.1898" y="-119.5" font-family="Helvetica,sans-Serif" font-size="10.00" fill="#000000">stdlib.h</text>
</g>
<!-- Node0&#45;&gt;Node2 -->
<g id="edge2" class="edge">
<title>Node0&#45;&gt;Node2</title>
<path fill="none" stroke="#191970" d="M886.4767,-168.3733C918.99,-158.3692 969.7114,-142.7626 1003.1944,-132.4601"/>
<polygon fill="#191970" stroke="#191970" points="1004.4645,-135.7313 1012.993,-129.4452 1002.4059,-129.0409 1004.4645,-135.7313"/>
</g>
<!-- Node3 -->
<g id="node4" class="node">
<title>Node3</title>
<polygon fill="#ffffff" stroke="#bfbfbf" points="507.6898,-.5 507.6898,-19.5 556.6898,-19.5 556.6898,-.5 507.6898,-.5"/>
<text text-anchor="middle" x="532.1898" y="-7.5" font-family="Helvetica,sans-Serif" font-size="10.00" fill="#000000">stdint.h</text>
</g>
<!-- Node0&#45;&gt;Node3 -->
<g id="edge3" class="edge">
<title>Node0&#45;&gt;Node3</title>
<path fill="none" stroke="#191970" d="M879.9683,-168.4541C928.0512,-148.6132 1025.8619,-101.0113 985.1898,-56 957.261,-25.0915 668.1973,-13.8957 566.9708,-10.9053"/>
<polygon fill="#191970" stroke="#191970" points="567.0456,-7.4061 556.9494,-10.6181 566.845,-14.4032 567.0456,-7.4061"/>
</g>
<!-- Node4 -->
<g id="node5" class="node">
<title>Node4</title>
<polygon fill="#ffffff" stroke="#bfbfbf" points="1079.1898,-112.5 1079.1898,-131.5 1131.1898,-131.5 1131.1898,-112.5 1079.1898,-112.5"/>
<text text-anchor="middle" x="1105.1898" y="-119.5" font-family="Helvetica,sans-Serif" font-size="10.00" fill="#000000">assert.h</text>
</g>
<!-- Node0&#45;&gt;Node4 -->
<g id="edge4" class="edge">
<title>Node0&#45;&gt;Node4</title>
<path fill="none" stroke="#191970" d="M904.5069,-168.4338C946.0056,-160.162 1007.1159,-147.4646 1068.9418,-132.1985"/>
<polygon fill="#191970" stroke="#191970" points="1070.0099,-135.5395 1078.8677,-129.7266 1068.3183,-128.7469 1070.0099,-135.5395"/>
</g>
<!-- Node5 -->
<g id="node6" class="node">
<title>Node5</title>
<g id="a_node6"><a xlink:href="a00047.xhtml" target="_top" xlink:title="Définitions communes à la partie privée de la bibliothèque. ">
<polygon fill="#ffffff" stroke="#000000" points="351.1898,-112.5 351.1898,-131.5 413.1898,-131.5 413.1898,-112.5 351.1898,-112.5"/>
<text text-anchor="middle" x="382.1898" y="-119.5" font-family="Helvetica,sans-Serif" font-size="10.00" fill="#000000">common.h</text>
</a>
</g>
</g>
<!-- Node0&#45;&gt;Node5 -->
<g id="edge5" class="edge">
<title>Node0&#45;&gt;Node5</title>
<path fill="none" stroke="#191970" d="M799.0731,-171.3562C702.7582,-159.9531 508.1732,-136.9156 423.3175,-126.8692"/>
<polygon fill="#191970" stroke="#191970" points="423.6297,-123.3818 413.2875,-125.6818 422.8066,-130.3333 423.6297,-123.3818"/>
</g>
<!-- Node6 -->
<g id="node7" class="node">
<title>Node6</title>
<g id="a_node7"><a xlink:href="a00008.xhtml" target="_top" xlink:title="Définitions communes à la partie privée et public de la bibliothèque. ">
<polygon fill="#ffffff" stroke="#000000" points="681.1898,-56.5 681.1898,-75.5 773.1898,-75.5 773.1898,-56.5 681.1898,-56.5"/>
<text text-anchor="middle" x="727.1898" y="-63.5" font-family="Helvetica,sans-Serif" font-size="10.00" fill="#000000">stegx_common.h</text>
</a>
</g>
</g>
<!-- Node0&#45;&gt;Node6 -->
<g id="edge32" class="edge">
<title>Node0&#45;&gt;Node6</title>
<path fill="none" stroke="#191970" d="M808.3614,-168.4826C786.3527,-161.7524 761.4412,-150.5112 745.1898,-132 734.0606,-119.3233 729.74,-100.3972 728.0987,-86.0582"/>
<polygon fill="#191970" stroke="#191970" points="731.5606,-85.4398 727.2779,-75.7491 724.5827,-85.9954 731.5606,-85.4398"/>
</g>
<!-- Node11 -->
<g id="node12" class="node">
<title>Node11</title>
<g id="a_node12"><a xlink:href="a00071.xhtml" target="_top" xlink:title="Fichier AVI. ">
<polygon fill="#ffffff" stroke="#000000" points="13.6898,-56.5 13.6898,-75.5 90.6898,-75.5 90.6898,-56.5 13.6898,-56.5"/>
<text text-anchor="middle" x="52.1898" y="-63.5" font-family="Helvetica,sans-Serif" font-size="10.00" fill="#000000">file_type/avi.h</text>
</a>
</g>
</g>
<!-- Node0&#45;&gt;Node11 -->
<g id="edge42" class="edge">
<title>Node0&#45;&gt;Node11</title>
<path fill="none" stroke="#191970" d="M799.0932,-175.4404C704.4268,-170.5698 507.1379,-158.0445 342.1898,-132 254.3818,-118.1356 153.5187,-93.0691 96.873,-78.1382"/>
<polygon fill="#191970" stroke="#191970" points="97.7234,-74.7428 87.1604,-75.563 95.9294,-81.509 97.7234,-74.7428"/>
</g>
<!-- Node13 -->
<g id="node14" class="node">
<title>Node13</title>
<g id="a_node14"><a xlink:href="a00011.xhtml" target="_top" xlink:title="Module de gestion des erreurs. ">
<polygon fill="#ffffff" stroke="#000000" points="896.6898,-56.5 896.6898,-75.5 975.6898,-75.5 975.6898,-56.5 896.6898,-56.5"/>
<text text-anchor="middle" x="936.1898" y="-63.5" font-family="Helvetica,sans-Serif" font-size="10.00" fill="#000000">stegx_errors.h</text>
</a>
</g>
</g>
<!-- Node0&#45;&gt;Node13 -->
<g id="edge33" class="edge">
<title>Node0&#45;&gt;Node13</title>
<path fill="none" stroke="#191970" d="M865.4598,-168.3567C874.6491,-159.4305 888.1757,-145.5331 898.1898,-132 909.3282,-116.9475 919.7727,-98.3502 926.8821,-84.737"/>
<polygon fill="#191970" stroke="#191970" points="930.001,-86.3252 931.4316,-75.8274 923.7667,-83.1417 930.001,-86.3252"/>
</g>
<!-- Node14 -->
<g id="node15" class="node">
<title>Node14</title>
<g id="a_node15"><a xlink:href="a00113.xhtml" target="_top" xlink:title="Insertion des données cachées dans une copie de l&#39;hôte. ">
<polygon fill="#ffffff" stroke="#000000" points="753.6898,-112.5 753.6898,-131.5 802.6898,-131.5 802.6898,-112.5 753.6898,-112.5"/>
<text text-anchor="middle" x="778.1898" y="-119.5" font-family="Helvetica,sans-Serif" font-size="10.00" fill="#000000">insert.h</text>
</a>
</g>
</g>
<!-- Node0&#45;&gt;Node14 -->
<g id="edge34" class="edge">
<title>Node0&#45;&gt;Node14</title>
<path fill="none" stroke="#191970" d="M841.7774,-168.2455C830.1841,-159.814 813.2151,-147.4729 799.722,-137.6598"/>
<polygon fill="#191970" stroke="#191970" points="801.5945,-134.6938 791.4485,-131.6427 797.4773,-140.355 801.5945,-134.6938"/>
</g>
<!-- Node15 -->
<g id="node16" class="node">
<title>Node15</title>
<g id="a_node16"><a xlink:href="a00119.xhtml" target="_top" xlink:title="Algorithme de protection des données avec le mot de passe. ">
<polygon fill="#ffffff" stroke="#000000" points="821.1898,-112.5 821.1898,-131.5 889.1898,-131.5 889.1898,-112.5 821.1898,-112.5"/>
<text text-anchor="middle" x="855.1898" y="-119.5" font-family="Helvetica,sans-Serif" font-size="10.00" fill="#000000">protection.h</text>
</a>
</g>
</g>
<!-- Node0&#45;&gt;Node15 -->
<g id="edge36" class="edge">
<title>Node0&#45;&gt;Node15</title>
<path fill="none" stroke="#191970" d="M855.1898,-168.2455C855.1898,-160.9382 855.1898,-150.6944 855.1898,-141.7046"/>
<polygon fill="#191970" stroke="#191970" points="858.6899,-141.6426 855.1898,-131.6427 851.6899,-141.6427 858.6899,-141.6426"/>
</g>
<!-- Node17 -->
<g id="node18" class="node">
<title>Node17</title>
<g id="a_node18"><a xlink:href="a00053.xhtml" target="_top" xlink:title="Module de détection de l&#39;algorithme. ">
<polygon fill="#ffffff" stroke="#000000" points="1149.6898,-112.5 1149.6898,-131.5 1224.6898,-131.5 1224.6898,-112.5 1149.6898,-112.5"/>
<text text-anchor="middle" x="1187.1898" y="-119.5" font-family="Helvetica,sans-Serif" font-size="10.00" fill="#000000">detect_algo.h</text>
</a>
</g>
</g>
<!-- Node0&#45;&gt;Node17 -->
<g id="edge41" class="edge">
<title>Node0&#45;&gt;Node17</title>
<path fill="none" stroke="#191970" d="M911.303,-169.7839C966.7467,-161.4761 1054.2061,-147.8638 1139.6453,-132.0288"/>
<polygon fill="#191970" stroke="#191970" points="1140.3241,-135.4627 1149.5127,-130.1883 1139.0405,-128.5813 1140.3241,-135.4627"/>
</g>
<!-- Node5&#45;&gt;Node1 -->
<g id="edge6" class="edge">
<title>Node5&#45;&gt;Node1</title>
<path fill="none" stroke="#191970" d="M351.0098,-120.8561C291.6099,-117.9518 165.7602,-108.0721 139.1898,-76 117.5587,-49.8899 165.7796,-29.5127 201.1252,-18.6632"/>
<polygon fill="#191970" stroke="#191970" points="202.5225,-21.9011 211.1363,-15.7324 200.5558,-15.1831 202.5225,-21.9011"/>
</g>
<!-- Node5&#45;&gt;Node3 -->
<g id="edge7" class="edge">
<title>Node5&#45;&gt;Node3</title>
<path fill="none" stroke="#191970" d="M413.5648,-121.0815C474.7405,-118.5596 606.4179,-109.3003 634.1898,-76 657.1935,-48.4171 604.4647,-28.3271 566.5752,-17.966"/>
<polygon fill="#191970" stroke="#191970" points="567.3976,-14.5634 556.8377,-15.423 565.6288,-21.3363 567.3976,-14.5634"/>
</g>
<!-- Node5&#45;&gt;Node6 -->
<g id="edge8" class="edge">
<title>Node5&#45;&gt;Node6</title>
<path fill="none" stroke="#191970" d="M413.4058,-117.0153C465.8468,-108.6292 574.9496,-91.1305 667.1898,-76 668.4501,-75.7933 669.7252,-75.5838 671.011,-75.3722"/>
<polygon fill="#191970" stroke="#191970" points="671.7098,-78.8043 681.006,-73.7218 670.5693,-71.8978 671.7098,-78.8043"/>
</g>
<!-- Node7 -->
<g id="node8" class="node">
<title>Node7</title>
<g id="a_node8"><a xlink:href="a00077.xhtml" target="_top" xlink:title="Fichier BMP. ">
<polygon fill="#ffffff" stroke="#000000" points="240.6898,-56.5 240.6898,-75.5 323.6898,-75.5 323.6898,-56.5 240.6898,-56.5"/>
<text text-anchor="middle" x="282.1898" y="-63.5" font-family="Helvetica,sans-Serif" font-size="10.00" fill="#000000">file_type/bmp.h</text>
</a>
</g>
</g>
<!-- Node5&#45;&gt;Node7 -->
<g id="edge9" class="edge">
<title>Node5&#45;&gt;Node7</title>
<path fill="none" stroke="#191970" d="M359.7572,-112.3733C342.6648,-103.7466 319.5498,-90.954 302.9003,-80.9889"/>
<polygon fill="#191970" stroke="#191970" points="304.2947,-77.7387 293.9388,-75.5011 300.639,-83.7083 304.2947,-77.7387"/>
</g>
<!-- Node8 -->
<g id="node9" class="node">
<title>Node8</title>
<g id="a_node9"><a xlink:href="a00095.xhtml" target="_top" xlink:title="Fichier PNG. ">
<polygon fill="#ffffff" stroke="#000000" points="342.1898,-56.5 342.1898,-75.5 422.1898,-75.5 422.1898,-56.5 342.1898,-56.5"/>
<text text-anchor="middle" x="382.1898" y="-63.5" font-family="Helvetica,sans-Serif" font-size="10.00" fill="#000000">file_type/png.h</text>
</a>
</g>
</g>
<!-- Node5&#45;&gt;Node8 -->
<g id="edge13" class="edge">
<title>Node5&#45;&gt;Node8</title>
<path fill="none" stroke="#191970" d="M376.923,-112.2455C375.5119,-104.9382 375.1077,-94.6944 375.7103,-85.7046"/>
<polygon fill="#191970" stroke="#191970" points="379.2009,-85.9945 376.9447,-75.6427 372.253,-85.1421 379.2009,-85.9945"/>
</g>
<!-- Node9 -->
<g id="node10" class="node">
<title>Node9</title>
<g id="a_node10"><a xlink:href="a00104.xhtml" target="_top" xlink:title="Fichier WAVE. ">
<polygon fill="#ffffff" stroke="#000000" points="440.6898,-56.5 440.6898,-75.5 523.6898,-75.5 523.6898,-56.5 440.6898,-56.5"/>
<text text-anchor="middle" x="482.1898" y="-63.5" font-family="Helvetica,sans-Serif" font-size="10.00" fill="#000000">file_type/wav.h</text>
</a>
</g>
</g>
<!-- Node5&#45;&gt;Node9 -->
<g id="edge17" class="edge">
<title>Node5&#45;&gt;Node9</title>
<path fill="none" stroke="#191970" d="M394.3416,-112.2455C408.4092,-103.4125 431.6101,-90.2887 450.727,-80.2758"/>
<polygon fill="#191970" stroke="#191970" points="452.437,-83.3321 459.7256,-75.6427 449.2327,-77.1085 452.437,-83.3321"/>
</g>
<!-- Node10 -->
<g id="node11" class="node">
<title>Node10</title>
<g id="a_node11"><a xlink:href="a00089.xhtml" target="_top" xlink:title="Fichier MP3. ">
<polygon fill="#ffffff" stroke="#000000" points="541.6898,-56.5 541.6898,-75.5 624.6898,-75.5 624.6898,-56.5 541.6898,-56.5"/>
<text text-anchor="middle" x="583.1898" y="-63.5" font-family="Helvetica,sans-Serif" font-size="10.00" fill="#000000">file_type/mp3.h</text>
</a>
</g>
</g>
<!-- Node5&#45;&gt;Node10 -->
<g id="edge21" class="edge">
<title>Node5&#45;&gt;Node10</title>
<path fill="none" stroke="#191970" d="M411.5009,-112.3733C443.6497,-102.9001 495.538,-88.4032 533.9261,-78.1435"/>
<polygon fill="#191970" stroke="#191970" points="535.1045,-81.4519 543.8703,-75.5011 533.3068,-74.6867 535.1045,-81.4519"/>
</g>
<!-- Node5&#45;&gt;Node11 -->
<g id="edge25" class="edge">
<title>Node5&#45;&gt;Node11</title>
<path fill="none" stroke="#191970" d="M350.9854,-117.8771C299.8904,-110.3149 195.7844,-93.5431 100.8938,-76.8191"/>
<polygon fill="#191970" stroke="#191970" points="101.3135,-73.3391 90.8568,-75.0441 100.0945,-80.2321 101.3135,-73.3391"/>
</g>
<!-- Node12 -->
<g id="node13" class="node">
<title>Node12</title>
<g id="a_node13"><a xlink:href="a00083.xhtml" target="_top" xlink:title="Fichier FLV. ">
<polygon fill="#ffffff" stroke="#000000" points="147.6898,-56.5 147.6898,-75.5 222.6898,-75.5 222.6898,-56.5 147.6898,-56.5"/>
<text text-anchor="middle" x="185.1898" y="-63.5" font-family="Helvetica,sans-Serif" font-size="10.00" fill="#000000">file_type/flv.h</text>
</a>
</g>
</g>
<!-- Node5&#45;&gt;Node12 -->
<g id="edge28" class="edge">
<title>Node5&#45;&gt;Node12</title>
<path fill="none" stroke="#191970" d="M350.833,-114.4476C316.2351,-105.2512 260.8035,-89.5841 223.6384,-78.5611"/>
<polygon fill="#191970" stroke="#191970" points="224.2563,-75.0929 213.6729,-75.5845 222.2529,-81.8001 224.2563,-75.0929"/>
</g>
<!-- Node7&#45;&gt;Node1 -->
<g id="edge10" class="edge">
<title>Node7&#45;&gt;Node1</title>
<path fill="none" stroke="#191970" d="M273.8288,-56.2455C267.0148,-48.2958 257.2217,-36.8706 249.0746,-27.3656"/>
<polygon fill="#191970" stroke="#191970" points="251.6203,-24.9575 242.455,-19.6427 246.3055,-29.513 251.6203,-24.9575"/>
</g>
<!-- Node7&#45;&gt;Node3 -->
<g id="edge11" class="edge">
<title>Node7&#45;&gt;Node3</title>
<path fill="none" stroke="#191970" d="M323.7529,-56.6899C372.4435,-45.7832 452.2184,-27.9136 497.6544,-17.7359"/>
<polygon fill="#191970" stroke="#191970" points="498.623,-21.1058 507.6161,-15.5045 497.0929,-14.275 498.623,-21.1058"/>
</g>
<!-- Node7&#45;&gt;Node5 -->
<g id="edge12" class="edge">
<title>Node7&#45;&gt;Node5</title>
<path fill="none" stroke="#191970" d="M304.654,-75.6427C321.6051,-84.1994 344.4669,-96.8456 361.0744,-106.769"/>
<polygon fill="#191970" stroke="#191970" points="359.6799,-110.0185 370.038,-112.2455 363.3295,-104.0451 359.6799,-110.0185"/>
</g>
<!-- Node8&#45;&gt;Node1 -->
<g id="edge14" class="edge">
<title>Node8&#45;&gt;Node1</title>
<path fill="none" stroke="#191970" d="M356.7477,-56.3733C331.8683,-46.9594 293.878,-32.5847 266.7944,-22.3369"/>
<polygon fill="#191970" stroke="#191970" points="267.9457,-19.0304 257.3542,-18.7649 265.4684,-25.5774 267.9457,-19.0304"/>
</g>
<!-- Node8&#45;&gt;Node3 -->
<g id="edge15" class="edge">
<title>Node8&#45;&gt;Node3</title>
<path fill="none" stroke="#191970" d="M407.9757,-56.3733C432.7437,-47.1265 470.3322,-33.0935 497.6725,-22.8865"/>
<polygon fill="#191970" stroke="#191970" points="499.0945,-26.0916 507.2388,-19.315 496.6462,-19.5337 499.0945,-26.0916"/>
</g>
<!-- Node8&#45;&gt;Node5 -->
<g id="edge16" class="edge">
<title>Node8&#45;&gt;Node5</title>
<path fill="none" stroke="#191970" d="M387.4349,-75.6427C388.8563,-82.9199 389.2708,-93.155 388.6785,-102.1575"/>
<polygon fill="#191970" stroke="#191970" points="385.1845,-101.8972 387.4567,-112.2455 392.1337,-102.739 385.1845,-101.8972"/>
</g>
<!-- Node9&#45;&gt;Node1 -->
<g id="edge18" class="edge">
<title>Node9&#45;&gt;Node1</title>
<path fill="none" stroke="#191970" d="M440.6802,-56.6269C391.9407,-45.6212 312.0832,-27.5888 267.3027,-17.4771"/>
<polygon fill="#191970" stroke="#191970" points="268.0333,-14.054 257.508,-15.2654 266.4914,-20.8821 268.0333,-14.054"/>
</g>
<!-- Node9&#45;&gt;Node3 -->
<g id="edge19" class="edge">
<title>Node9&#45;&gt;Node3</title>
<path fill="none" stroke="#191970" d="M490.8991,-56.2455C497.9971,-48.2958 508.1982,-36.8706 516.6848,-27.3656"/>
<polygon fill="#191970" stroke="#191970" points="519.5309,-29.4331 523.5803,-19.6427 514.3093,-24.771 519.5309,-29.4331"/>
</g>
<!-- Node9&#45;&gt;Node5 -->
<g id="edge20" class="edge">
<title>Node9&#45;&gt;Node5</title>
<path fill="none" stroke="#191970" d="M470.4408,-75.5011C456.428,-84.3278 432.9918,-97.5932 413.7004,-107.6992"/>
<polygon fill="#191970" stroke="#191970" points="411.911,-104.6838 404.6224,-112.3733 415.1154,-110.9073 411.911,-104.6838"/>
</g>
<!-- Node10&#45;&gt;Node1 -->
<g id="edge22" class="edge">
<title>Node10&#45;&gt;Node1</title>
<path fill="none" stroke="#191970" d="M541.4743,-57.5118C538.6732,-56.9866 535.8922,-56.4779 533.1898,-56 436.9881,-38.9885 322.7284,-22.4122 267.4435,-14.6201"/>
<polygon fill="#191970" stroke="#191970" points="267.8994,-11.1499 257.5098,-13.2252 266.9259,-18.0819 267.8994,-11.1499"/>
</g>
<!-- Node10&#45;&gt;Node3 -->
<g id="edge23" class="edge">
<title>Node10&#45;&gt;Node3</title>
<path fill="none" stroke="#191970" d="M574.3063,-56.2455C566.9932,-48.2155 556.4507,-36.6394 547.7431,-27.0781"/>
<polygon fill="#191970" stroke="#191970" points="550.2926,-24.6795 540.9715,-19.6427 545.1172,-29.3928 550.2926,-24.6795"/>
</g>
<!-- Node10&#45;&gt;Node5 -->
<g id="edge24" class="edge">
<title>Node10&#45;&gt;Node5</title>
<path fill="none" stroke="#191970" d="M554.0609,-75.573C519.5537,-85.7444 462.1257,-101.7508 423.1698,-112.06"/>
<polygon fill="#191970" stroke="#191970" points="421.9811,-108.7534 413.1983,-114.679 423.7594,-115.5237 421.9811,-108.7534"/>
</g>
<!-- Node11&#45;&gt;Node1 -->
<g id="edge26" class="edge">
<title>Node11&#45;&gt;Node1</title>
<path fill="none" stroke="#191970" d="M83.4767,-56.3733C116.3584,-46.2558 167.8632,-30.4082 201.3259,-20.112"/>
<polygon fill="#191970" stroke="#191970" points="202.5626,-23.3935 211.0911,-17.1073 200.5039,-16.703 202.5626,-23.3935"/>
</g>
<!-- Node11&#45;&gt;Node5 -->
<g id="edge27" class="edge">
<title>Node11&#45;&gt;Node5</title>
<path fill="none" stroke="#191970" d="M90.8749,-71.7734C98.6735,-73.1881 106.7217,-74.6755 114.1898,-76 194.5146,-90.2456 288.1887,-105.523 340.9224,-114.396"/>
<polygon fill="#191970" stroke="#191970" points="340.4638,-117.868 350.9072,-116.083 341.63,-110.9658 340.4638,-117.868"/>
</g>
<!-- Node12&#45;&gt;Node1 -->
<g id="edge29" class="edge">
<title>Node12&#45;&gt;Node1</title>
<path fill="none" stroke="#191970" d="M193.725,-56.2455C200.681,-48.2958 210.6781,-36.8706 218.9949,-27.3656"/>
<polygon fill="#191970" stroke="#191970" points="221.8014,-29.4732 225.7525,-19.6427 216.5334,-24.8637 221.8014,-29.4732"/>
</g>
<!-- Node12&#45;&gt;Node3 -->
<g id="edge30" class="edge">
<title>Node12&#45;&gt;Node3</title>
<path fill="none" stroke="#191970" d="M222.8621,-57.7855C226.0131,-57.159 229.1535,-56.5553 232.1898,-56 327.8735,-38.5001 441.5586,-22.3191 497.5288,-14.6547"/>
<polygon fill="#191970" stroke="#191970" points="498.1751,-18.099 507.611,-13.2808 497.23,-11.1631 498.1751,-18.099"/>
</g>
<!-- Node12&#45;&gt;Node5 -->
<g id="edge31" class="edge">
<title>Node12&#45;&gt;Node5</title>
<path fill="none" stroke="#191970" d="M222.7945,-75.2225C257.5262,-84.5545 308.7058,-99.048 343.7058,-109.4284"/>
<polygon fill="#191970" stroke="#191970" points="342.9829,-112.8652 353.5663,-112.3733 344.9861,-106.1579 342.9829,-112.8652"/>
</g>
<!-- Node14&#45;&gt;Node6 -->
<g id="edge35" class="edge">
<title>Node14&#45;&gt;Node6</title>
<path fill="none" stroke="#191970" d="M769.3063,-112.2455C761.9932,-104.2155 751.4507,-92.6394 742.7431,-83.0781"/>
<polygon fill="#191970" stroke="#191970" points="745.2926,-80.6795 735.9715,-75.6427 740.1172,-85.3928 745.2926,-80.6795"/>
</g>
<!-- Node15&#45;&gt;Node3 -->
<g id="edge38" class="edge">
<title>Node15&#45;&gt;Node3</title>
<path fill="none" stroke="#191970" d="M847.4068,-112.0941C835.2066,-97.3156 810.0734,-69.7637 782.1898,-56 744.765,-37.5267 626.1703,-21.2403 566.779,-13.9936"/>
<polygon fill="#191970" stroke="#191970" points="567.0983,-10.5068 556.7518,-12.7875 566.2623,-17.4567 567.0983,-10.5068"/>
</g>
<!-- Node15&#45;&gt;Node6 -->
<g id="edge39" class="edge">
<title>Node15&#45;&gt;Node6</title>
<path fill="none" stroke="#191970" d="M833.1858,-112.3733C812.5464,-103.3435 781.4741,-89.7494 758.3009,-79.6111"/>
<polygon fill="#191970" stroke="#191970" points="759.4711,-76.3028 748.9067,-75.5011 756.6654,-82.7159 759.4711,-76.3028"/>
</g>
<!-- Node15&#45;&gt;Node13 -->
<g id="edge40" class="edge">
<title>Node15&#45;&gt;Node13</title>
<path fill="none" stroke="#191970" d="M869.2989,-112.2455C881.6107,-103.7337 899.6856,-91.2375 913.9436,-81.3801"/>
<polygon fill="#191970" stroke="#191970" points="916.0072,-84.2085 922.2424,-75.6427 912.0264,-78.4506 916.0072,-84.2085"/>
</g>
<!-- Node16 -->
<g id="node17" class="node">
<title>Node16</title>
<polygon fill="#ffffff" stroke="#bfbfbf" points="829.6898,-56.5 829.6898,-75.5 878.6898,-75.5 878.6898,-56.5 829.6898,-56.5"/>
<text text-anchor="middle" x="854.1898" y="-63.5" font-family="Helvetica,sans-Serif" font-size="10.00" fill="#000000">string.h</text>
</g>
<!-- Node15&#45;&gt;Node16 -->
<g id="edge37" class="edge">
<title>Node15&#45;&gt;Node16</title>
<path fill="none" stroke="#191970" d="M855.0156,-112.2455C854.8851,-104.9382 854.7022,-94.6944 854.5417,-85.7046"/>
<polygon fill="#191970" stroke="#191970" points="858.0401,-85.5786 854.362,-75.6427 851.0412,-85.7036 858.0401,-85.5786"/>
</g>
</g>
</svg>
        <g id="navigator" transform="translate(0 0)" fill="#404254">
                <rect fill="#f2f5e9" fill-opacity="0.5" stroke="#606060" stroke-width=".5" x="0" y="0" width="60" height="60"/>
                <use id="zoomplus" xlink:href="#zoomPlus" x="17" y="9" onmousedown="handleZoom(evt,'in')"/>
                <use id="zoomminus" xlink:href="#zoomMin" x="42" y="9" onmousedown="handleZoom(evt,'out')"/>
                <use id="reset" xlink:href="#resetDef" x="30" y="36" onmousedown="handleReset()"/>
                <g id="arrowUp" xlink:href="#dirArrow" transform="translate(30 24)" onmousedown="handlePan(0,-1)">
                  <use xlink:href="#rim" fill="#404040">
                        <set attributeName="fill" to="#808080" begin="arrowUp.mouseover" end="arrowUp.mouseout"/>
                  </use>
                  <path fill="none" stroke="white" stroke-width="1.5" d="M0,-3.0v7 M-2.5,-0.5L0,-3.0L2.5,-0.5"/>
                </g>
                <g id="arrowRight" xlink:href="#dirArrow" transform="rotate(90) translate(36 -43)" onmousedown="handlePan(1,0)">
                  <use xlink:href="#rim" fill="#404040">
                        <set attributeName="fill" to="#808080" begin="arrowRight.mouseover" end="arrowRight.mouseout"/>
                  </use>
                  <path fill="none" stroke="white" stroke-width="1.5" d="M0,-3.0v7 M-2.5,-0.5L0,-3.0L2.5,-0.5"/>
                </g>
                <g id="arrowDown" xlink:href="#dirArrow" transform="rotate(180) translate(-30 -48)" onmousedown="handlePan(0,1)">
                  <use xlink:href="#rim" fill="#404040">
                        <set attributeName="fill" to="#808080" begin="arrowDown.mouseover" end="arrowDown.mouseout"/>
                  </use>
                  <path fill="none" stroke="white" stroke-width="1.5" d="M0,-3.0v7 M-2.5,-0.5L0,-3.0L2.5,-0.5"/>
                </g>
                <g id="arrowLeft" xlink:href="#dirArrow" transform="rotate(270) translate(-36 17)" onmousedown="handlePan(-1,0)">
                  <use xlink:href="#rim" fill="#404040">
                        <set attributeName="fill" to="#808080" begin="arrowLeft.mouseover" end="arrowLeft.mouseout"/>
                  </use>
                  <path fill="none" stroke="white" stroke-width="1.5" d="M0,-3.0v7 M-2.5,-0.5L0,-3.0L2.5,-0.5"/>
                </g>
        </g>
        <svg viewBox="0 0 15 15" width="100%" height="30px" preserveAspectRatio="xMaxYMin meet">
         <g id="arrow_out" transform="scale(0.3 0.3)">
          <a xlink:href="a00027_org.svg" target="_base">
           <rect id="button" ry="5" rx="5" y="6" x="6" height="38" width="38"
                fill="#f2f5e9" fill-opacity="0.5" stroke="#606060" stroke-width="1.0"/>
           <path id="arrow"
             d="M 11.500037,31.436501 C 11.940474,20.09759 22.043105,11.32322 32.158766,21.979434 L 37.068811,17.246167 C 37.068811,17.246167 37.088388,32 37.088388,32 L 22.160133,31.978069 C 22.160133,31.978069 26.997745,27.140456 26.997745,27.140456 C 18.528582,18.264221 13.291696,25.230495 11.500037,31.436501 z"
             style="fill:#404040;"/>
          </a>
         </g>
        </svg>
</svg>
