<?xml version="1.0" encoding="UTF-8" standalone="no"?>
<!DOCTYPE svg PUBLIC "-//W3C//DTD SVG 1.1//EN"
 "http://www.w3.org/Graphics/SVG/1.1/DTD/svg11.dtd">
<!-- Generated by graphviz version 2.40.1 (20161225.0304)
 -->
<!-- Title: mp3_id3v2_tag_seek Pages: 1 -->
<svg width="519pt" height="66pt"
 viewBox="0.00 0.00 519.00 66.00" xmlns="http://www.w3.org/2000/svg" xmlns:xlink="http://www.w3.org/1999/xlink">
<g id="graph0" class="graph" transform="scale(1 1) rotate(0) translate(4 62)">
<title>mp3_id3v2_tag_seek</title>
<polygon fill="#ffffff" stroke="transparent" points="-4,4 -4,-62 515,-62 515,4 -4,4"/>
<!-- Node35 -->
<g id="node1" class="node">
<title>Node35</title>
<polygon fill="#bfbfbf" stroke="#000000" points="0,-19.5 0,-38.5 109,-38.5 109,-19.5 0,-19.5"/>
<text text-anchor="middle" x="54.5" y="-26.5" font-family="Helvetica,sans-Serif" font-size="10.00" fill="#000000">mp3_id3v2_tag_seek</text>
</g>
<!-- Node36 -->
<g id="node2" class="node">
<title>Node36</title>
<g id="a_node2"><a xlink:href="a00089.xhtml#afc3c44f7f4f0993fbc17c150c728e677" target="_top" xlink:title="Trouve la première frame MPEG 1/2 Layer III. ">
<polygon fill="#ffffff" stroke="#000000" points="145,-19.5 145,-38.5 264,-38.5 264,-19.5 145,-19.5"/>
<text text-anchor="middle" x="204.5" y="-26.5" font-family="Helvetica,sans-Serif" font-size="10.00" fill="#000000">mp3_mpeg_fr_find_first</text>
</a>
</g>
</g>
<!-- Node35&#45;&gt;Node36 -->
<g id="edge1" class="edge">
<title>Node35&#45;&gt;Node36</title>
<path fill="none" stroke="#191970" d="M119.3231,-29C127.8192,-29 136.4929,-29 144.897,-29"/>
<polygon fill="#191970" stroke="#191970" points="119.0778,-25.5001 109.0778,-29 119.0777,-32.5001 119.0778,-25.5001"/>
</g>
<!-- Node37 -->
<g id="node3" class="node">
<title>Node37</title>
<g id="a_node3"><a xlink:href="a00131.xhtml#a5501c9c7711252fa8d85ff12cb3390dc" target="_top" xlink:title="Remplit les informations du fichier hôte. ">
<polygon fill="#ffffff" stroke="#000000" points="300,-19.5 300,-38.5 371,-38.5 371,-19.5 300,-19.5"/>
<text text-anchor="middle" x="335.5" y="-26.5" font-family="Helvetica,sans-Serif" font-size="10.00" fill="#000000">fill_host_info</text>
</a>
</g>
</g>
<!-- Node36&#45;&gt;Node37 -->
<g id="edge2" class="edge">
<title>Node36&#45;&gt;Node37</title>
<path fill="none" stroke="#191970" d="M274.5238,-29C283.2656,-29 291.8994,-29 299.7983,-29"/>
<polygon fill="#191970" stroke="#191970" points="274.2498,-25.5001 264.2498,-29 274.2497,-32.5001 274.2498,-25.5001"/>
</g>
<!-- Node38 -->
<g id="node4" class="node">
<title>Node38</title>
<g id="a_node4"><a xlink:href="a00050.xhtml#a2a3747fdc90ed4467eb3e468d8fba361" target="_top" xlink:title="Detecte l&#39;algorithme utilisé ainsi que le nom du fichier caché et la taille des données cachées...">
<polygon fill="#ffffff" stroke="#000000" points="411,-38.5 411,-57.5 507,-57.5 507,-38.5 411,-38.5"/>
<text text-anchor="middle" x="459" y="-45.5" font-family="Helvetica,sans-Serif" font-size="10.00" fill="#000000">stegx_detect_algo</text>
</a>
</g>
</g>
<!-- Node37&#45;&gt;Node38 -->
<g id="edge3" class="edge">
<title>Node37&#45;&gt;Node38</title>
<path fill="none" stroke="#191970" d="M381.1055,-36.0162C390.8328,-37.5127 401.1349,-39.0977 410.9506,-40.6078"/>
<polygon fill="#191970" stroke="#191970" points="381.6373,-32.5569 371.2213,-34.4956 380.5728,-39.4755 381.6373,-32.5569"/>
</g>
<!-- Node39 -->
<g id="node5" class="node">
<title>Node39</title>
<g id="a_node5"><a xlink:href="a00128.xhtml#adc277622e5fe0d1814be76f11263b350" target="_top" xlink:title="Propose les algorithmes de stéganographie utilisables. ">
<polygon fill="#ffffff" stroke="#000000" points="407,-.5 407,-19.5 511,-19.5 511,-.5 407,-.5"/>
<text text-anchor="middle" x="459" y="-7.5" font-family="Helvetica,sans-Serif" font-size="10.00" fill="#000000">stegx_suggest_algo</text>
</a>
</g>
</g>
<!-- Node37&#45;&gt;Node39 -->
<g id="edge4" class="edge">
<title>Node37&#45;&gt;Node39</title>
<path fill="none" stroke="#191970" d="M381.1585,-21.9756C389.5141,-20.6901 398.2922,-19.3397 406.8207,-18.0276"/>
<polygon fill="#191970" stroke="#191970" points="380.5728,-18.5245 371.2213,-23.5044 381.6373,-25.4431 380.5728,-18.5245"/>
</g>
</g>
</svg>
