<?xml version="1.0" encoding="UTF-8" standalone="no"?>
<!DOCTYPE svg PUBLIC "-//W3C//DTD SVG 1.1//EN"
 "http://www.w3.org/Graphics/SVG/1.1/DTD/svg11.dtd">
<!-- Generated by graphviz version 2.40.1 (20161225.0304)
 -->
<!-- Title: src/file_type/avi.h Pages: 1 -->
<svg width="635pt" height="196pt"
 viewBox="0.00 0.00 635.48 196.00" xmlns="http://www.w3.org/2000/svg" xmlns:xlink="http://www.w3.org/1999/xlink">
<g id="graph0" class="graph" transform="scale(1 1) rotate(0) translate(4 192)">
<title>src/file_type/avi.h</title>
<polygon fill="#ffffff" stroke="transparent" points="-4,4 -4,-192 631.4828,-192 631.4828,4 -4,4"/>
<!-- Node0 -->
<g id="node1" class="node">
<title>Node0</title>
<polygon fill="#bfbfbf" stroke="#000000" points="215.1204,-168.5 215.1204,-187.5 309.1204,-187.5 309.1204,-168.5 215.1204,-168.5"/>
<text text-anchor="middle" x="262.1204" y="-175.5" font-family="Helvetica,sans-Serif" font-size="10.00" fill="#000000">src/file_type/avi.h</text>
</g>
<!-- Node1 -->
<g id="node2" class="node">
<title>Node1</title>
<polygon fill="#ffffff" stroke="#bfbfbf" points="142.1204,-.5 142.1204,-19.5 188.1204,-19.5 188.1204,-.5 142.1204,-.5"/>
<text text-anchor="middle" x="165.1204" y="-7.5" font-family="Helvetica,sans-Serif" font-size="10.00" fill="#000000">stdio.h</text>
</g>
<!-- Node0&#45;&gt;Node1 -->
<g id="edge1" class="edge">
<title>Node0&#45;&gt;Node1</title>
<path fill="none" stroke="#191970" d="M215.0473,-174.5788C154.8974,-167.3897 52.971,-145.0996 6.1204,-76 -25.6302,-29.1713 76.5149,-15.5097 131.8976,-11.5696"/>
<polygon fill="#191970" stroke="#191970" points="132.2194,-15.0563 141.9746,-10.9227 131.7709,-8.0706 132.2194,-15.0563"/>
</g>
<!-- Node2 -->
<g id="node3" class="node">
<title>Node2</title>
<g id="a_node3"><a xlink:href="a00047.xhtml" target="_top" xlink:title="Définitions communes à la partie privée de la bibliothèque. ">
<polygon fill="#ffffff" stroke="#000000" points="231.1204,-112.5 231.1204,-131.5 293.1204,-131.5 293.1204,-112.5 231.1204,-112.5"/>
<text text-anchor="middle" x="262.1204" y="-119.5" font-family="Helvetica,sans-Serif" font-size="10.00" fill="#000000">common.h</text>
</a>
</g>
</g>
<!-- Node0&#45;&gt;Node2 -->
<g id="edge2" class="edge">
<title>Node0&#45;&gt;Node2</title>
<path fill="none" stroke="#191970" d="M256.8536,-168.2455C255.4425,-160.9382 255.0383,-150.6944 255.6409,-141.7046"/>
<polygon fill="#191970" stroke="#191970" points="259.1315,-141.9945 256.8753,-131.6427 252.1836,-141.1421 259.1315,-141.9945"/>
</g>
<!-- Node2&#45;&gt;Node0 -->
<g id="edge22" class="edge">
<title>Node2&#45;&gt;Node0</title>
<path fill="none" stroke="#191970" d="M267.3655,-131.6427C268.7869,-138.9199 269.2014,-149.155 268.6091,-158.1575"/>
<polygon fill="#191970" stroke="#191970" points="265.1151,-157.8972 267.3872,-168.2455 272.0643,-158.739 265.1151,-157.8972"/>
</g>
<!-- Node2&#45;&gt;Node1 -->
<g id="edge3" class="edge">
<title>Node2&#45;&gt;Node1</title>
<path fill="none" stroke="#191970" d="M230.6867,-120.8974C170.803,-118.0656 43.9261,-108.307 17.1204,-76 -16.5629,-35.4039 78.4879,-18.8696 131.7667,-12.9277"/>
<polygon fill="#191970" stroke="#191970" points="132.2334,-16.3981 141.8149,-11.8766 131.505,-9.4361 132.2334,-16.3981"/>
</g>
<!-- Node3 -->
<g id="node4" class="node">
<title>Node3</title>
<polygon fill="#ffffff" stroke="#bfbfbf" points="343.6204,-.5 343.6204,-19.5 392.6204,-19.5 392.6204,-.5 343.6204,-.5"/>
<text text-anchor="middle" x="368.1204" y="-7.5" font-family="Helvetica,sans-Serif" font-size="10.00" fill="#000000">stdint.h</text>
</g>
<!-- Node2&#45;&gt;Node3 -->
<g id="edge4" class="edge">
<title>Node2&#45;&gt;Node3</title>
<path fill="none" stroke="#191970" d="M293.1453,-120.3553C376.6615,-115.6131 601.4071,-100.6557 623.1204,-76 628.9951,-69.3292 628.8206,-62.8205 623.1204,-56 595.509,-22.9621 466.61,-13.6124 403.3391,-10.9977"/>
<polygon fill="#191970" stroke="#191970" points="403.1747,-7.489 393.0494,-10.6082 402.9099,-14.484 403.1747,-7.489"/>
</g>
<!-- Node4 -->
<g id="node5" class="node">
<title>Node4</title>
<g id="a_node5"><a xlink:href="a00008.xhtml" target="_top" xlink:title="Définitions communes à la partie privée et public de la bibliothèque. ">
<polygon fill="#ffffff" stroke="#000000" points="322.1204,-56.5 322.1204,-75.5 414.1204,-75.5 414.1204,-56.5 322.1204,-56.5"/>
<text text-anchor="middle" x="368.1204" y="-63.5" font-family="Helvetica,sans-Serif" font-size="10.00" fill="#000000">stegx_common.h</text>
</a>
</g>
</g>
<!-- Node2&#45;&gt;Node4 -->
<g id="edge5" class="edge">
<title>Node2&#45;&gt;Node4</title>
<path fill="none" stroke="#191970" d="M280.5842,-112.2455C297.2278,-103.4527 321.9197,-90.4079 340.8396,-80.4125"/>
<polygon fill="#191970" stroke="#191970" points="342.6612,-83.4086 349.8682,-75.6427 339.3913,-77.2193 342.6612,-83.4086"/>
</g>
<!-- Node5 -->
<g id="node6" class="node">
<title>Node5</title>
<g id="a_node6"><a xlink:href="a00077.xhtml" target="_top" xlink:title="Fichier BMP. ">
<polygon fill="#ffffff" stroke="#000000" points="432.6204,-56.5 432.6204,-75.5 515.6204,-75.5 515.6204,-56.5 432.6204,-56.5"/>
<text text-anchor="middle" x="474.1204" y="-63.5" font-family="Helvetica,sans-Serif" font-size="10.00" fill="#000000">file_type/bmp.h</text>
</a>
</g>
</g>
<!-- Node2&#45;&gt;Node5 -->
<g id="edge6" class="edge">
<title>Node2&#45;&gt;Node5</title>
<path fill="none" stroke="#191970" d="M293.3225,-112.3733C327.4768,-102.8598 382.5341,-88.2797 422.9864,-78.0127"/>
<polygon fill="#191970" stroke="#191970" points="424.0956,-81.3426 432.9346,-75.5011 422.382,-74.5556 424.0956,-81.3426"/>
</g>
<!-- Node6 -->
<g id="node7" class="node">
<title>Node6</title>
<g id="a_node7"><a xlink:href="a00095.xhtml" target="_top" xlink:title="Fichier PNG. ">
<polygon fill="#ffffff" stroke="#000000" points="534.1204,-56.5 534.1204,-75.5 614.1204,-75.5 614.1204,-56.5 534.1204,-56.5"/>
<text text-anchor="middle" x="574.1204" y="-63.5" font-family="Helvetica,sans-Serif" font-size="10.00" fill="#000000">file_type/png.h</text>
</a>
</g>
</g>
<!-- Node2&#45;&gt;Node6 -->
<g id="edge10" class="edge">
<title>Node2&#45;&gt;Node6</title>
<path fill="none" stroke="#191970" d="M293.1512,-115.8527C341.1792,-107.3245 435.7375,-91.2289 516.1204,-76 518.7102,-75.5093 521.3749,-74.9944 524.0753,-74.4679"/>
<polygon fill="#191970" stroke="#191970" points="524.8004,-77.8925 533.9397,-72.533 523.453,-71.0233 524.8004,-77.8925"/>
</g>
<!-- Node7 -->
<g id="node8" class="node">
<title>Node7</title>
<g id="a_node8"><a xlink:href="a00104.xhtml" target="_top" xlink:title="Fichier WAVE. ">
<polygon fill="#ffffff" stroke="#000000" points="220.6204,-56.5 220.6204,-75.5 303.6204,-75.5 303.6204,-56.5 220.6204,-56.5"/>
<text text-anchor="middle" x="262.1204" y="-63.5" font-family="Helvetica,sans-Serif" font-size="10.00" fill="#000000">file_type/wav.h</text>
</a>
</g>
</g>
<!-- Node2&#45;&gt;Node7 -->
<g id="edge14" class="edge">
<title>Node2&#45;&gt;Node7</title>
<path fill="none" stroke="#191970" d="M256.8536,-112.2455C255.4425,-104.9382 255.0383,-94.6944 255.6409,-85.7046"/>
<polygon fill="#191970" stroke="#191970" points="259.1315,-85.9945 256.8753,-75.6427 252.1836,-85.1421 259.1315,-85.9945"/>
</g>
<!-- Node8 -->
<g id="node9" class="node">
<title>Node8</title>
<g id="a_node9"><a xlink:href="a00089.xhtml" target="_top" xlink:title="Fichier MP3. ">
<polygon fill="#ffffff" stroke="#000000" points="26.6204,-56.5 26.6204,-75.5 109.6204,-75.5 109.6204,-56.5 26.6204,-56.5"/>
<text text-anchor="middle" x="68.1204" y="-63.5" font-family="Helvetica,sans-Serif" font-size="10.00" fill="#000000">file_type/mp3.h</text>
</a>
</g>
</g>
<!-- Node2&#45;&gt;Node8 -->
<g id="edge18" class="edge">
<title>Node2&#45;&gt;Node8</title>
<path fill="none" stroke="#191970" d="M230.7355,-114.3309C196.5451,-105.1035 142.133,-89.485 105.7119,-78.5056"/>
<polygon fill="#191970" stroke="#191970" points="106.5336,-75.0974 95.9481,-75.541 104.4998,-81.7954 106.5336,-75.0974"/>
</g>
<!-- Node9 -->
<g id="node10" class="node">
<title>Node9</title>
<g id="a_node10"><a xlink:href="a00083.xhtml" target="_top" xlink:title="Fichier FLV. ">
<polygon fill="#ffffff" stroke="#000000" points="127.6204,-56.5 127.6204,-75.5 202.6204,-75.5 202.6204,-56.5 127.6204,-56.5"/>
<text text-anchor="middle" x="165.1204" y="-63.5" font-family="Helvetica,sans-Serif" font-size="10.00" fill="#000000">file_type/flv.h</text>
</a>
</g>
</g>
<!-- Node2&#45;&gt;Node9 -->
<g id="edge23" class="edge">
<title>Node2&#45;&gt;Node9</title>
<path fill="none" stroke="#191970" d="M239.9574,-112.2455C223.4155,-103.6534 201.2332,-91.0014 185.2106,-81.1018"/>
<polygon fill="#191970" stroke="#191970" points="186.9003,-78.0292 176.5778,-75.6427 183.159,-83.9456 186.9003,-78.0292"/>
</g>
<!-- Node5&#45;&gt;Node1 -->
<g id="edge7" class="edge">
<title>Node5&#45;&gt;Node1</title>
<path fill="none" stroke="#191970" d="M432.3831,-57.7556C429.2498,-57.1553 426.1358,-56.5644 423.1204,-56 342.5,-40.9101 247.486,-24.2619 198.3282,-15.7329"/>
<polygon fill="#191970" stroke="#191970" points="198.7225,-12.2491 188.2718,-13.9904 197.5274,-19.1464 198.7225,-12.2491"/>
</g>
<!-- Node5&#45;&gt;Node2 -->
<g id="edge9" class="edge">
<title>Node5&#45;&gt;Node2</title>
<path fill="none" stroke="#191970" d="M443.3567,-75.5046C406.3102,-85.8308 344.2282,-102.229 303.1489,-112.5384"/>
<polygon fill="#191970" stroke="#191970" points="302.0427,-109.2069 293.1855,-115.0208 303.7351,-115.9993 302.0427,-109.2069"/>
</g>
<!-- Node5&#45;&gt;Node3 -->
<g id="edge8" class="edge">
<title>Node5&#45;&gt;Node3</title>
<path fill="none" stroke="#191970" d="M455.6566,-56.2455C439.013,-47.4527 414.3211,-34.4079 395.4012,-24.4125"/>
<polygon fill="#191970" stroke="#191970" points="396.8495,-21.2193 386.3726,-19.6427 393.5796,-27.4086 396.8495,-21.2193"/>
</g>
<!-- Node6&#45;&gt;Node1 -->
<g id="edge11" class="edge">
<title>Node6&#45;&gt;Node1</title>
<path fill="none" stroke="#191970" d="M534.054,-57.571C531.0357,-57.0133 528.0327,-56.4825 525.1204,-56 405.5413,-36.1863 262.394,-20.1755 198.6226,-13.4405"/>
<polygon fill="#191970" stroke="#191970" points="198.6822,-9.9277 188.3718,-12.3658 197.9523,-16.8895 198.6822,-9.9277"/>
</g>
<!-- Node6&#45;&gt;Node2 -->
<g id="edge13" class="edge">
<title>Node6&#45;&gt;Node2</title>
<path fill="none" stroke="#191970" d="M536.7015,-75.5077C535.8346,-75.6741 534.9735,-75.8384 534.1204,-76 452.7839,-91.4096 356.9338,-107.7065 303.3502,-116.153"/>
<polygon fill="#191970" stroke="#191970" points="302.5545,-112.7347 293.2139,-117.735 303.634,-119.651 302.5545,-112.7347"/>
</g>
<!-- Node6&#45;&gt;Node3 -->
<g id="edge12" class="edge">
<title>Node6&#45;&gt;Node3</title>
<path fill="none" stroke="#191970" d="M538.7077,-56.3733C500.6434,-46.0257 440.5303,-29.6842 402.7655,-19.4181"/>
<polygon fill="#191970" stroke="#191970" points="403.3114,-15.9395 392.7435,-16.6936 401.4751,-22.6944 403.3114,-15.9395"/>
</g>
<!-- Node7&#45;&gt;Node1 -->
<g id="edge15" class="edge">
<title>Node7&#45;&gt;Node1</title>
<path fill="none" stroke="#191970" d="M245.2243,-56.2455C230.2024,-47.5731 208.0161,-34.7645 190.7994,-24.825"/>
<polygon fill="#191970" stroke="#191970" points="192.2332,-21.6114 181.8229,-19.6427 188.7333,-27.6737 192.2332,-21.6114"/>
</g>
<!-- Node7&#45;&gt;Node2 -->
<g id="edge17" class="edge">
<title>Node7&#45;&gt;Node2</title>
<path fill="none" stroke="#191970" d="M267.3655,-75.6427C268.7869,-82.9199 269.2014,-93.155 268.6091,-102.1575"/>
<polygon fill="#191970" stroke="#191970" points="265.1151,-101.8972 267.3872,-112.2455 272.0643,-102.739 265.1151,-101.8972"/>
</g>
<!-- Node7&#45;&gt;Node3 -->
<g id="edge16" class="edge">
<title>Node7&#45;&gt;Node3</title>
<path fill="none" stroke="#191970" d="M280.5842,-56.2455C297.2278,-47.4527 321.9197,-34.4079 340.8396,-24.4125"/>
<polygon fill="#191970" stroke="#191970" points="342.6612,-27.4086 349.8682,-19.6427 339.3913,-21.2193 342.6612,-27.4086"/>
</g>
<!-- Node8&#45;&gt;Node1 -->
<g id="edge19" class="edge">
<title>Node8&#45;&gt;Node1</title>
<path fill="none" stroke="#191970" d="M85.0165,-56.2455C100.0384,-47.5731 122.2247,-34.7645 139.4414,-24.825"/>
<polygon fill="#191970" stroke="#191970" points="141.5075,-27.6737 148.4179,-19.6427 138.0076,-21.6114 141.5075,-27.6737"/>
</g>
<!-- Node8&#45;&gt;Node2 -->
<g id="edge21" class="edge">
<title>Node8&#45;&gt;Node2</title>
<path fill="none" stroke="#191970" d="M106.2523,-75.5011C140.4898,-84.8494 190.2962,-99.1765 224.4018,-109.4561"/>
<polygon fill="#191970" stroke="#191970" points="223.4271,-112.8179 234.0126,-112.3733 225.4603,-106.1196 223.4271,-112.8179"/>
</g>
<!-- Node8&#45;&gt;Node3 -->
<g id="edge20" class="edge">
<title>Node8&#45;&gt;Node3</title>
<path fill="none" stroke="#191970" d="M109.8618,-57.7768C112.9941,-57.1716 116.1068,-56.5738 119.1204,-56 195.5626,-41.4452 285.3409,-25.0254 333.4654,-16.2785"/>
<polygon fill="#191970" stroke="#191970" points="334.1506,-19.7114 343.3643,-14.4808 332.8998,-12.824 334.1506,-19.7114"/>
</g>
<!-- Node9&#45;&gt;Node1 -->
<g id="edge24" class="edge">
<title>Node9&#45;&gt;Node1</title>
<path fill="none" stroke="#191970" d="M165.1204,-56.2455C165.1204,-48.9382 165.1204,-38.6944 165.1204,-29.7046"/>
<polygon fill="#191970" stroke="#191970" points="168.6205,-29.6426 165.1204,-19.6427 161.6205,-29.6427 168.6205,-29.6426"/>
</g>
<!-- Node9&#45;&gt;Node2 -->
<g id="edge26" class="edge">
<title>Node9&#45;&gt;Node2</title>
<path fill="none" stroke="#191970" d="M187.068,-75.6427C203.5607,-84.1994 225.7451,-96.8456 241.821,-106.769"/>
<polygon fill="#191970" stroke="#191970" points="240.1674,-109.8642 250.4911,-112.2455 243.9057,-103.946 240.1674,-109.8642"/>
</g>
<!-- Node9&#45;&gt;Node3 -->
<g id="edge25" class="edge">
<title>Node9&#45;&gt;Node3</title>
<path fill="none" stroke="#191970" d="M200.0173,-56.3733C237.4237,-46.0543 296.4379,-29.7745 333.6709,-19.5033"/>
<polygon fill="#191970" stroke="#191970" points="334.8497,-22.8089 343.5589,-16.7756 332.9882,-16.061 334.8497,-22.8089"/>
</g>
</g>
</svg>
