<?xml version="1.0" encoding="UTF-8" standalone="no"?>
<!DOCTYPE svg PUBLIC "-//W3C//DTD SVG 1.1//EN"
 "http://www.w3.org/Graphics/SVG/1.1/DTD/svg11.dtd">
<!-- Generated by graphviz version 2.40.1 (20161225.0304)
 -->
<!-- Title: mp3_mpeg_fr_find_first Pages: 1 -->
<svg width="451pt" height="123pt"
 viewBox="0.00 0.00 451.00 123.00" xmlns="http://www.w3.org/2000/svg" xmlns:xlink="http://www.w3.org/1999/xlink">
<g id="graph0" class="graph" transform="scale(1 1) rotate(0) translate(4 119)">
<title>mp3_mpeg_fr_find_first</title>
<polygon fill="#ffffff" stroke="transparent" points="-4,4 -4,-119 447,-119 447,4 -4,4"/>
<!-- Node16 -->
<g id="node1" class="node">
<title>Node16</title>
<polygon fill="#bfbfbf" stroke="#000000" points="0,-57.5 0,-76.5 119,-76.5 119,-57.5 0,-57.5"/>
<text text-anchor="middle" x="59.5" y="-64.5" font-family="Helvetica,sans-Serif" font-size="10.00" fill="#000000">mp3_mpeg_fr_find_first</text>
</g>
<!-- Node17 -->
<g id="node2" class="node">
<title>Node17</title>
<g id="a_node2"><a xlink:href="a00056.xhtml#a7434fd197d31a9571f92f9dca4f212e9" target="_top" xlink:title="Convertit un nombre en big endian dans l&#39;endian de la machine. ">
<polygon fill="#ffffff" stroke="#000000" points="331.5,-95.5 331.5,-114.5 411.5,-114.5 411.5,-95.5 331.5,-95.5"/>
<text text-anchor="middle" x="371.5" y="-102.5" font-family="Helvetica,sans-Serif" font-size="10.00" fill="#000000">stegx_be32toh</text>
</a>
</g>
</g>
<!-- Node16&#45;&gt;Node17 -->
<g id="edge1" class="edge">
<title>Node16&#45;&gt;Node17</title>
<path fill="none" stroke="#191970" d="M77.5365,-76.5812C96.2862,-85.9568 126.7843,-99.5926 155,-105 211.0474,-115.7412 276.7659,-113.7417 320.9699,-110.3358"/>
<polygon fill="#191970" stroke="#191970" points="321.4916,-113.8047 331.1704,-109.4953 320.9167,-106.8284 321.4916,-113.8047"/>
</g>
<!-- Node18 -->
<g id="node3" class="node">
<title>Node18</title>
<g id="a_node3"><a xlink:href="a00086.xhtml#ad5c1775e3137194eae404a93a564ab96" target="_top" xlink:title="Test si le header est un header ID3v2. ">
<polygon fill="#ffffff" stroke="#000000" points="157.5,-76.5 157.5,-95.5 261.5,-95.5 261.5,-76.5 157.5,-76.5"/>
<text text-anchor="middle" x="209.5" y="-83.5" font-family="Helvetica,sans-Serif" font-size="10.00" fill="#000000">mp3_id3v2_hdr_test</text>
</a>
</g>
</g>
<!-- Node16&#45;&gt;Node18 -->
<g id="edge2" class="edge">
<title>Node16&#45;&gt;Node18</title>
<path fill="none" stroke="#191970" d="M119.215,-74.5639C128.4547,-75.7343 138.0176,-76.9456 147.3102,-78.1226"/>
<polygon fill="#191970" stroke="#191970" points="146.8988,-81.5984 157.2594,-79.3829 147.7785,-74.6539 146.8988,-81.5984"/>
</g>
<!-- Node19 -->
<g id="node4" class="node">
<title>Node19</title>
<g id="a_node4"><a xlink:href="a00086.xhtml#acc4a0b82043fbdeadb8c669eda06d2cb" target="_top" xlink:title="Saute le tag ID3v2 actuel. ">
<polygon fill="#ffffff" stroke="#000000" points="155,-38.5 155,-57.5 264,-57.5 264,-38.5 155,-38.5"/>
<text text-anchor="middle" x="209.5" y="-45.5" font-family="Helvetica,sans-Serif" font-size="10.00" fill="#000000">mp3_id3v2_tag_seek</text>
</a>
</g>
</g>
<!-- Node16&#45;&gt;Node19 -->
<g id="edge3" class="edge">
<title>Node16&#45;&gt;Node19</title>
<path fill="none" stroke="#191970" d="M119.215,-59.4361C127.579,-58.3767 136.2078,-57.2837 144.6612,-56.2129"/>
<polygon fill="#191970" stroke="#191970" points="145.375,-59.6506 154.8559,-54.9216 144.4953,-52.706 145.375,-59.6506"/>
</g>
<!-- Node21 -->
<g id="node6" class="node">
<title>Node21</title>
<g id="a_node6"><a xlink:href="a00086.xhtml#a75bc8b052a4d00ab95b05b576918360d" target="_top" xlink:title="Test si le header est un header MPEG 1/2 Layer III. ">
<polygon fill="#ffffff" stroke="#000000" points="157,-.5 157,-19.5 262,-19.5 262,-.5 157,-.5"/>
<text text-anchor="middle" x="209.5" y="-7.5" font-family="Helvetica,sans-Serif" font-size="10.00" fill="#000000">mp3_mpeg_hdr_test</text>
</a>
</g>
</g>
<!-- Node16&#45;&gt;Node21 -->
<g id="edge6" class="edge">
<title>Node16&#45;&gt;Node21</title>
<path fill="none" stroke="#191970" d="M82.9382,-57.3456C102.2038,-49.4893 130.2564,-38.231 155,-29 160.3396,-27.008 165.9966,-24.9633 171.5665,-22.9876"/>
<polygon fill="#191970" stroke="#191970" points="173.1344,-26.1467 181.4109,-19.5323 170.816,-19.5418 173.1344,-26.1467"/>
</g>
<!-- Node19&#45;&gt;Node17 -->
<g id="edge5" class="edge">
<title>Node19&#45;&gt;Node17</title>
<path fill="none" stroke="#191970" d="M236.9541,-57.5452C245.6104,-60.5617 255.2072,-63.9132 264,-67 287.5949,-75.2831 314.0806,-84.6447 334.8584,-92.0034"/>
<polygon fill="#191970" stroke="#191970" points="333.9675,-95.4009 344.5623,-95.4415 336.3052,-88.8028 333.9675,-95.4009"/>
</g>
<!-- Node20 -->
<g id="node5" class="node">
<title>Node20</title>
<g id="a_node5"><a xlink:href="a00086.xhtml#a98007b4129951e18b3ba95b3d5ad973e" target="_top" xlink:title="Retire la sécurité de synchronisation de la taille d&#39;un tag ID3v2. ">
<polygon fill="#ffffff" stroke="#000000" points="300,-38.5 300,-57.5 443,-57.5 443,-38.5 300,-38.5"/>
<text text-anchor="middle" x="371.5" y="-45.5" font-family="Helvetica,sans-Serif" font-size="10.00" fill="#000000">mp3_id3v2_size_unsyncsafe</text>
</a>
</g>
</g>
<!-- Node19&#45;&gt;Node20 -->
<g id="edge4" class="edge">
<title>Node19&#45;&gt;Node20</title>
<path fill="none" stroke="#191970" d="M264.3458,-48C272.5268,-48 281.1065,-48 289.6982,-48"/>
<polygon fill="#191970" stroke="#191970" points="289.7665,-51.5001 299.7665,-48 289.7664,-44.5001 289.7665,-51.5001"/>
</g>
</g>
</svg>
