<?xml version="1.0" encoding="UTF-8" standalone="no"?>
<!DOCTYPE svg PUBLIC "-//W3C//DTD SVG 1.1//EN"
 "http://www.w3.org/Graphics/SVG/1.1/DTD/svg11.dtd">
<!-- Generated by graphviz version 2.40.1 (20161225.0304)
 -->
<!-- Title: extract_eoc Pages: 1 -->
<svg width="298pt" height="170pt"
 viewBox="0.00 0.00 298.00 170.00" xmlns="http://www.w3.org/2000/svg" xmlns:xlink="http://www.w3.org/1999/xlink">
<g id="graph0" class="graph" transform="scale(1 1) rotate(0) translate(4 166)">
<title>extract_eoc</title>
<polygon fill="#ffffff" stroke="transparent" points="-4,4 -4,-166 294,-166 294,4 -4,4"/>
<!-- Node0 -->
<g id="node1" class="node">
<title>Node0</title>
<polygon fill="#bfbfbf" stroke="#000000" points="0,-76.5 0,-95.5 68,-95.5 68,-76.5 0,-76.5"/>
<text text-anchor="middle" x="34" y="-83.5" font-family="Helvetica,sans-Serif" font-size="10.00" fill="#000000">extract_eoc</text>
</g>
<!-- Node1 -->
<g id="node2" class="node">
<title>Node1</title>
<g id="a_node2"><a xlink:href="a00116.xhtml#a3fd0a8f9ba189acd34f864c97f059b0f" target="_top" xlink:title="Fait le mélange ou réarrange les octets selon l&#39;algorithme de protection des données. ">
<polygon fill="#ffffff" stroke="#000000" points="108.5,-76.5 108.5,-95.5 179.5,-95.5 179.5,-76.5 108.5,-76.5"/>
<text text-anchor="middle" x="144" y="-83.5" font-family="Helvetica,sans-Serif" font-size="10.00" fill="#000000">protect_data</text>
</a>
</g>
</g>
<!-- Node0&#45;&gt;Node1 -->
<g id="edge1" class="edge">
<title>Node0&#45;&gt;Node1</title>
<path fill="none" stroke="#191970" d="M68.2017,-86C77.657,-86 88.074,-86 98.0788,-86"/>
<polygon fill="#191970" stroke="#191970" points="98.2981,-89.5001 108.298,-86 98.298,-82.5001 98.2981,-89.5001"/>
</g>
<!-- Node2 -->
<g id="node3" class="node">
<title>Node2</title>
<g id="a_node3"><a xlink:href="a00122.xhtml#a4e9a217b960dc65fd08dff9f78e317e4" target="_top" xlink:title="Initialise la seed de la suite pseudo aléatoire. ">
<polygon fill="#ffffff" stroke="#000000" points="220,-142.5 220,-161.5 290,-161.5 290,-142.5 220,-142.5"/>
<text text-anchor="middle" x="255" y="-149.5" font-family="Helvetica,sans-Serif" font-size="10.00" fill="#000000">stegx_srand</text>
</a>
</g>
</g>
<!-- Node0&#45;&gt;Node2 -->
<g id="edge6" class="edge">
<title>Node0&#45;&gt;Node2</title>
<path fill="none" stroke="#191970" d="M50.7651,-95.5835C64.6458,-103.1614 85.0866,-113.5113 104,-120 138.7287,-131.9146 179.5363,-140.2418 209.9682,-145.4089"/>
<polygon fill="#191970" stroke="#191970" points="209.4309,-148.8675 219.867,-147.0406 210.5695,-141.9607 209.4309,-148.8675"/>
</g>
<!-- Node3 -->
<g id="node4" class="node">
<title>Node3</title>
<g id="a_node4"><a xlink:href="a00122.xhtml#a2a891bbe3514201de3cfc5acced104b7" target="_top" xlink:title="Cree un seed a partir d&#39;un mot de passe. ">
<polygon fill="#ffffff" stroke="#000000" points="220,-95.5 220,-114.5 290,-114.5 290,-95.5 220,-95.5"/>
<text text-anchor="middle" x="255" y="-102.5" font-family="Helvetica,sans-Serif" font-size="10.00" fill="#000000">create_seed</text>
</a>
</g>
</g>
<!-- Node0&#45;&gt;Node3 -->
<g id="edge7" class="edge">
<title>Node0&#45;&gt;Node3</title>
<path fill="none" stroke="#191970" d="M62.2583,-95.503C74.8741,-99.2668 90.0201,-103.1364 104,-105 139.2158,-109.6944 179.4633,-109.4185 209.5462,-108.1192"/>
<polygon fill="#191970" stroke="#191970" points="209.9199,-111.6052 219.738,-107.6233 209.5797,-104.6135 209.9199,-111.6052"/>
</g>
<!-- Node4 -->
<g id="node5" class="node">
<title>Node4</title>
<g id="a_node5"><a xlink:href="a00122.xhtml#a9966534d45c62d0df7a3d5df48668715" target="_top" xlink:title="Renvoie un entier pseudo&#45;aléatoire. ">
<polygon fill="#ffffff" stroke="#000000" points="222.5,-57.5 222.5,-76.5 287.5,-76.5 287.5,-57.5 222.5,-57.5"/>
<text text-anchor="middle" x="255" y="-64.5" font-family="Helvetica,sans-Serif" font-size="10.00" fill="#000000">stegx_rand</text>
</a>
</g>
</g>
<!-- Node0&#45;&gt;Node4 -->
<g id="edge8" class="edge">
<title>Node0&#45;&gt;Node4</title>
<path fill="none" stroke="#191970" d="M62.2583,-76.497C74.8741,-72.7332 90.0201,-68.8636 104,-67 140.2618,-62.1662 181.8587,-62.6023 212.1995,-63.9992"/>
<polygon fill="#191970" stroke="#191970" points="212.268,-67.5073 222.4348,-64.5264 212.6281,-60.5166 212.268,-67.5073"/>
</g>
<!-- Node5 -->
<g id="node6" class="node">
<title>Node5</title>
<g id="a_node6"><a xlink:href="a00056.xhtml#a7434fd197d31a9571f92f9dca4f212e9" target="_top" xlink:title="Convertit un nombre en big endian dans l&#39;endian de la machine. ">
<polygon fill="#ffffff" stroke="#000000" points="104,-.5 104,-19.5 184,-19.5 184,-.5 104,-.5"/>
<text text-anchor="middle" x="144" y="-7.5" font-family="Helvetica,sans-Serif" font-size="10.00" fill="#000000">stegx_be32toh</text>
</a>
</g>
</g>
<!-- Node0&#45;&gt;Node5 -->
<g id="edge5" class="edge">
<title>Node0&#45;&gt;Node5</title>
<path fill="none" stroke="#191970" d="M46.1273,-76.4197C59.8809,-65.6906 83.1131,-47.9748 104,-34 108.5118,-30.9813 113.4033,-27.8979 118.1663,-24.9908"/>
<polygon fill="#191970" stroke="#191970" points="120.2524,-27.8212 127.0337,-19.6808 116.6561,-21.8156 120.2524,-27.8212"/>
</g>
<!-- Node1&#45;&gt;Node2 -->
<g id="edge2" class="edge">
<title>Node1&#45;&gt;Node2</title>
<path fill="none" stroke="#191970" d="M160.3784,-95.7385C178.7646,-106.6708 208.8056,-124.5331 230.1016,-137.1955"/>
<polygon fill="#191970" stroke="#191970" points="228.5311,-140.3337 238.9153,-142.4361 232.1087,-134.3169 228.5311,-140.3337"/>
</g>
<!-- Node1&#45;&gt;Node3 -->
<g id="edge3" class="edge">
<title>Node1&#45;&gt;Node3</title>
<path fill="none" stroke="#191970" d="M179.7321,-92.1163C189.2336,-93.7427 199.6243,-95.5213 209.5688,-97.2235"/>
<polygon fill="#191970" stroke="#191970" points="209.2673,-100.7227 219.7145,-98.9601 210.4484,-93.8231 209.2673,-100.7227"/>
</g>
<!-- Node1&#45;&gt;Node4 -->
<g id="edge4" class="edge">
<title>Node1&#45;&gt;Node4</title>
<path fill="none" stroke="#191970" d="M179.7321,-79.8837C190.1061,-78.108 201.54,-76.1508 212.2957,-74.3097"/>
<polygon fill="#191970" stroke="#191970" points="213.0774,-77.7269 222.3435,-72.5899 211.8963,-70.8273 213.0774,-77.7269"/>
</g>
</g>
</svg>
