<?xml version="1.0" encoding="UTF-8" standalone="no"?>
<!DOCTYPE svg PUBLIC "-//W3C//DTD SVG 1.1//EN"
 "http://www.w3.org/Graphics/SVG/1.1/DTD/svg11.dtd">
<!-- Generated by graphviz version 2.40.1 (20161225.0304)
 -->
<!-- Title: src/endian.h Pages: 1 -->
<svg width="512pt" height="84pt"
 viewBox="0.00 0.00 512.00 84.00" xmlns="http://www.w3.org/2000/svg" xmlns:xlink="http://www.w3.org/1999/xlink">
<g id="graph0" class="graph" transform="scale(1 1) rotate(0) translate(4 80)">
<title>src/endian.h</title>
<polygon fill="#ffffff" stroke="transparent" points="-4,4 -4,-80 508,-80 508,4 -4,4"/>
<!-- Node4 -->
<g id="node1" class="node">
<title>Node4</title>
<polygon fill="#bfbfbf" stroke="#000000" points="199,-56.5 199,-75.5 269,-75.5 269,-56.5 199,-56.5"/>
<text text-anchor="middle" x="234" y="-63.5" font-family="Helvetica,sans-Serif" font-size="10.00" fill="#000000">src/endian.h</text>
</g>
<!-- Node5 -->
<g id="node2" class="node">
<title>Node5</title>
<g id="a_node2"><a xlink:href="a00014.xhtml" target="_top" xlink:title="Algorithme End Of Chunk (EOC). ">
<polygon fill="#ffffff" stroke="#000000" points="0,-.5 0,-19.5 78,-19.5 78,-.5 0,-.5"/>
<text text-anchor="middle" x="39" y="-7.5" font-family="Helvetica,sans-Serif" font-size="10.00" fill="#000000">src/algo/eoc.c</text>
</a>
</g>
</g>
<!-- Node4&#45;&gt;Node5 -->
<g id="edge1" class="edge">
<title>Node4&#45;&gt;Node5</title>
<path fill="none" stroke="#191970" d="M190.7804,-53.5882C154.9538,-43.2996 104.7759,-28.8895 72.0843,-19.5011"/>
<polygon fill="#191970" stroke="#191970" points="189.9007,-56.977 200.4783,-56.3733 191.8329,-50.2489 189.9007,-56.977"/>
</g>
<!-- Node6 -->
<g id="node3" class="node">
<title>Node6</title>
<g id="a_node3"><a xlink:href="a00056.xhtml" target="_top" xlink:title="Module qui fait des conversions entre endianness. ">
<polygon fill="#ffffff" stroke="#000000" points="96,-.5 96,-19.5 166,-19.5 166,-.5 96,-.5"/>
<text text-anchor="middle" x="131" y="-7.5" font-family="Helvetica,sans-Serif" font-size="10.00" fill="#000000">src/endian.c</text>
</a>
</g>
</g>
<!-- Node4&#45;&gt;Node6 -->
<g id="edge2" class="edge">
<title>Node4&#45;&gt;Node6</title>
<path fill="none" stroke="#191970" d="M207.2568,-51.46C188.825,-41.4388 164.8416,-28.3993 148.7356,-19.6427"/>
<polygon fill="#191970" stroke="#191970" points="205.6015,-54.5438 216.0588,-56.2455 208.9451,-48.394 205.6015,-54.5438"/>
</g>
<!-- Node7 -->
<g id="node4" class="node">
<title>Node7</title>
<g id="a_node4"><a xlink:href="a00074.xhtml" target="_top" xlink:title="Fichier BMP. ">
<polygon fill="#ffffff" stroke="#000000" points="184,-.5 184,-19.5 284,-19.5 284,-.5 184,-.5"/>
<text text-anchor="middle" x="234" y="-7.5" font-family="Helvetica,sans-Serif" font-size="10.00" fill="#000000">src/file_type/bmp.c</text>
</a>
</g>
</g>
<!-- Node4&#45;&gt;Node7 -->
<g id="edge3" class="edge">
<title>Node4&#45;&gt;Node7</title>
<path fill="none" stroke="#191970" d="M234,-46.1575C234,-37.155 234,-26.9199 234,-19.6427"/>
<polygon fill="#191970" stroke="#191970" points="230.5001,-46.2455 234,-56.2455 237.5001,-46.2456 230.5001,-46.2455"/>
</g>
<!-- Node8 -->
<g id="node5" class="node">
<title>Node8</title>
<g id="a_node5"><a xlink:href="a00092.xhtml" target="_top" xlink:title="Fichier PNG. ">
<polygon fill="#ffffff" stroke="#000000" points="302.5,-.5 302.5,-19.5 399.5,-19.5 399.5,-.5 302.5,-.5"/>
<text text-anchor="middle" x="351" y="-7.5" font-family="Helvetica,sans-Serif" font-size="10.00" fill="#000000">src/file_type/png.c</text>
</a>
</g>
</g>
<!-- Node4&#45;&gt;Node8 -->
<g id="edge4" class="edge">
<title>Node4&#45;&gt;Node8</title>
<path fill="none" stroke="#191970" d="M263.3042,-51.9741C284.488,-41.8348 312.5403,-28.408 331.1494,-19.5011"/>
<polygon fill="#191970" stroke="#191970" points="261.622,-48.8989 254.113,-56.3733 264.6441,-55.2129 261.622,-48.8989"/>
</g>
<!-- Node9 -->
<g id="node6" class="node">
<title>Node9</title>
<g id="a_node6"><a xlink:href="a00128.xhtml" target="_top" xlink:title="Proposition des algorithmes. ">
<polygon fill="#ffffff" stroke="#000000" points="418,-.5 418,-19.5 504,-19.5 504,-.5 418,-.5"/>
<text text-anchor="middle" x="461" y="-7.5" font-family="Helvetica,sans-Serif" font-size="10.00" fill="#000000">src/sugg_algo.c</text>
</a>
</g>
</g>
<!-- Node4&#45;&gt;Node9 -->
<g id="edge5" class="edge">
<title>Node4&#45;&gt;Node9</title>
<path fill="none" stroke="#191970" d="M279.4043,-54.7989C321.2832,-44.4676 382.7853,-29.2953 422.364,-19.5314"/>
<polygon fill="#191970" stroke="#191970" points="278.3393,-51.4566 269.4688,-57.25 280.016,-58.2529 278.3393,-51.4566"/>
</g>
</g>
</svg>
