<?xml version="1.0" encoding="UTF-8" standalone="no"?>
<!DOCTYPE svg PUBLIC "-//W3C//DTD SVG 1.1//EN"
 "http://www.w3.org/Graphics/SVG/1.1/DTD/svg11.dtd">
<!-- Generated by graphviz version 2.40.1 (20161225.0304)
 -->
<!-- Title: mp3_id3v2_tag_seek Pages: 1 -->
<svg width="296pt" height="66pt"
 viewBox="0.00 0.00 296.00 66.00" xmlns="http://www.w3.org/2000/svg" xmlns:xlink="http://www.w3.org/1999/xlink">
<g id="graph0" class="graph" transform="scale(1 1) rotate(0) translate(4 62)">
<title>mp3_id3v2_tag_seek</title>
<polygon fill="#ffffff" stroke="transparent" points="-4,4 -4,-62 292,-62 292,4 -4,4"/>
<!-- Node32 -->
<g id="node1" class="node">
<title>Node32</title>
<polygon fill="#bfbfbf" stroke="#000000" points="0,-19.5 0,-38.5 109,-38.5 109,-19.5 0,-19.5"/>
<text text-anchor="middle" x="54.5" y="-26.5" font-family="Helvetica,sans-Serif" font-size="10.00" fill="#000000">mp3_id3v2_tag_seek</text>
</g>
<!-- Node33 -->
<g id="node2" class="node">
<title>Node33</title>
<g id="a_node2"><a xlink:href="a00086.xhtml#a98007b4129951e18b3ba95b3d5ad973e" target="_top" xlink:title="Retire la sécurité de synchronisation de la taille d&#39;un tag ID3v2. ">
<polygon fill="#ffffff" stroke="#000000" points="145,-38.5 145,-57.5 288,-57.5 288,-38.5 145,-38.5"/>
<text text-anchor="middle" x="216.5" y="-45.5" font-family="Helvetica,sans-Serif" font-size="10.00" fill="#000000">mp3_id3v2_size_unsyncsafe</text>
</a>
</g>
</g>
<!-- Node32&#45;&gt;Node33 -->
<g id="edge1" class="edge">
<title>Node32&#45;&gt;Node33</title>
<path fill="none" stroke="#191970" d="M109.3458,-35.4325C117.5268,-36.392 126.1065,-37.3983 134.6982,-38.406"/>
<polygon fill="#191970" stroke="#191970" points="134.4268,-41.898 144.7665,-39.5868 135.2423,-34.9457 134.4268,-41.898"/>
</g>
<!-- Node34 -->
<g id="node3" class="node">
<title>Node34</title>
<g id="a_node3"><a xlink:href="a00056.xhtml#a7434fd197d31a9571f92f9dca4f212e9" target="_top" xlink:title="Convertit un nombre en big endian dans l&#39;endian de la machine. ">
<polygon fill="#ffffff" stroke="#000000" points="176.5,-.5 176.5,-19.5 256.5,-19.5 256.5,-.5 176.5,-.5"/>
<text text-anchor="middle" x="216.5" y="-7.5" font-family="Helvetica,sans-Serif" font-size="10.00" fill="#000000">stegx_be32toh</text>
</a>
</g>
</g>
<!-- Node32&#45;&gt;Node34 -->
<g id="edge2" class="edge">
<title>Node32&#45;&gt;Node34</title>
<path fill="none" stroke="#191970" d="M109.3458,-22.5675C127.7705,-20.4065 148.2177,-18.0084 166.2699,-15.8912"/>
<polygon fill="#191970" stroke="#191970" points="166.7813,-19.3553 176.3055,-14.7142 165.9658,-12.4029 166.7813,-19.3553"/>
</g>
</g>
</svg>
