<?xml version="1.0" encoding="UTF-8" standalone="no"?>
<!DOCTYPE svg PUBLIC "-//W3C//DTD SVG 1.1//EN"
 "http://www.w3.org/Graphics/SVG/1.1/DTD/svg11.dtd">
<!-- Generated by graphviz version 2.40.1 (20161225.0304)
 -->
<!-- Title: src/file_type/avi.c Pages: 1 -->
<svg width="1106pt" height="196pt"
 viewBox="0.00 0.00 1106.29 196.00" xmlns="http://www.w3.org/2000/svg" xmlns:xlink="http://www.w3.org/1999/xlink">
<g id="graph0" class="graph" transform="scale(1 1) rotate(0) translate(4 192)">
<title>src/file_type/avi.c</title>
<polygon fill="#ffffff" stroke="transparent" points="-4,4 -4,-192 1102.2915,-192 1102.2915,4 -4,4"/>
<!-- Node0 -->
<g id="node1" class="node">
<title>Node0</title>
<polygon fill="#bfbfbf" stroke="#000000" points="779.2915,-168.5 779.2915,-187.5 873.2915,-187.5 873.2915,-168.5 779.2915,-168.5"/>
<text text-anchor="middle" x="826.2915" y="-175.5" font-family="Helvetica,sans-Serif" font-size="10.00" fill="#000000">src/file_type/avi.c</text>
</g>
<!-- Node1 -->
<g id="node2" class="node">
<title>Node1</title>
<polygon fill="#ffffff" stroke="#bfbfbf" points="217.2915,-.5 217.2915,-19.5 263.2915,-19.5 263.2915,-.5 217.2915,-.5"/>
<text text-anchor="middle" x="240.2915" y="-7.5" font-family="Helvetica,sans-Serif" font-size="10.00" fill="#000000">stdio.h</text>
</g>
<!-- Node0&#45;&gt;Node1 -->
<g id="edge1" class="edge">
<title>Node0&#45;&gt;Node1</title>
<path fill="none" stroke="#191970" d="M779.2574,-175.8013C612.2313,-167.5107 54.9029,-135.5447 4.2915,-76 -1.4653,-69.2271 -1.3608,-62.8603 4.2915,-56 29.5922,-25.2916 148.0805,-14.8099 206.939,-11.4593"/>
<polygon fill="#191970" stroke="#191970" points="207.3994,-14.9399 217.1993,-10.9134 207.0275,-7.9498 207.3994,-14.9399"/>
</g>
<!-- Node2 -->
<g id="node3" class="node">
<title>Node2</title>
<polygon fill="#ffffff" stroke="#bfbfbf" points="828.2915,-112.5 828.2915,-131.5 876.2915,-131.5 876.2915,-112.5 828.2915,-112.5"/>
<text text-anchor="middle" x="852.2915" y="-119.5" font-family="Helvetica,sans-Serif" font-size="10.00" fill="#000000">stdlib.h</text>
</g>
<!-- Node0&#45;&gt;Node2 -->
<g id="edge2" class="edge">
<title>Node0&#45;&gt;Node2</title>
<path fill="none" stroke="#191970" d="M830.8203,-168.2455C834.3248,-160.6973 839.2841,-150.0158 843.5537,-140.8197"/>
<polygon fill="#191970" stroke="#191970" points="846.7779,-142.1867 847.8145,-131.6427 840.4288,-139.2389 846.7779,-142.1867"/>
</g>
<!-- Node3 -->
<g id="node4" class="node">
<title>Node3</title>
<polygon fill="#ffffff" stroke="#bfbfbf" points="459.7915,-.5 459.7915,-19.5 508.7915,-19.5 508.7915,-.5 459.7915,-.5"/>
<text text-anchor="middle" x="484.2915" y="-7.5" font-family="Helvetica,sans-Serif" font-size="10.00" fill="#000000">stdint.h</text>
</g>
<!-- Node0&#45;&gt;Node3 -->
<g id="edge3" class="edge">
<title>Node0&#45;&gt;Node3</title>
<path fill="none" stroke="#191970" d="M824.0554,-168.3089C817.8138,-142.1131 799.4655,-70.8641 781.2915,-56 741.7219,-23.6372 588.7333,-13.8669 519.1276,-11.0638"/>
<polygon fill="#191970" stroke="#191970" points="519.2189,-7.5648 509.0939,-10.6851 518.9548,-14.5599 519.2189,-7.5648"/>
</g>
<!-- Node4 -->
<g id="node5" class="node">
<title>Node4</title>
<polygon fill="#ffffff" stroke="#bfbfbf" points="894.2915,-112.5 894.2915,-131.5 946.2915,-131.5 946.2915,-112.5 894.2915,-112.5"/>
<text text-anchor="middle" x="920.2915" y="-119.5" font-family="Helvetica,sans-Serif" font-size="10.00" fill="#000000">assert.h</text>
</g>
<!-- Node0&#45;&gt;Node4 -->
<g id="edge4" class="edge">
<title>Node0&#45;&gt;Node4</title>
<path fill="none" stroke="#191970" d="M842.665,-168.2455C857.2223,-159.5731 878.7225,-146.7645 895.4067,-136.825"/>
<polygon fill="#191970" stroke="#191970" points="897.3058,-139.7676 904.1055,-131.6427 893.7232,-133.7539 897.3058,-139.7676"/>
</g>
<!-- Node5 -->
<g id="node6" class="node">
<title>Node5</title>
<g id="a_node6"><a xlink:href="a00047.xhtml" target="_top" xlink:title="Définitions communes à la partie privée de la bibliothèque. ">
<polygon fill="#ffffff" stroke="#000000" points="356.2915,-112.5 356.2915,-131.5 418.2915,-131.5 418.2915,-112.5 356.2915,-112.5"/>
<text text-anchor="middle" x="387.2915" y="-119.5" font-family="Helvetica,sans-Serif" font-size="10.00" fill="#000000">common.h</text>
</a>
</g>
</g>
<!-- Node0&#45;&gt;Node5 -->
<g id="edge5" class="edge">
<title>Node0&#45;&gt;Node5</title>
<path fill="none" stroke="#191970" d="M778.8937,-171.9538C692.4467,-160.9264 510.5578,-137.7242 428.7274,-127.2857"/>
<polygon fill="#191970" stroke="#191970" points="428.9226,-123.7823 418.56,-125.9887 428.0367,-130.726 428.9226,-123.7823"/>
</g>
<!-- Node6 -->
<g id="node7" class="node">
<title>Node6</title>
<g id="a_node7"><a xlink:href="a00008.xhtml" target="_top" xlink:title="Définitions communes à la partie privée et public de la bibliothèque. ">
<polygon fill="#ffffff" stroke="#000000" points="680.2915,-56.5 680.2915,-75.5 772.2915,-75.5 772.2915,-56.5 680.2915,-56.5"/>
<text text-anchor="middle" x="726.2915" y="-63.5" font-family="Helvetica,sans-Serif" font-size="10.00" fill="#000000">stegx_common.h</text>
</a>
</g>
</g>
<!-- Node0&#45;&gt;Node6 -->
<g id="edge32" class="edge">
<title>Node0&#45;&gt;Node6</title>
<path fill="none" stroke="#191970" d="M817.7655,-168.4509C800.8653,-149.5227 762.9111,-107.014 741.5842,-83.1279"/>
<polygon fill="#191970" stroke="#191970" points="744.0668,-80.6532 734.7958,-75.5249 738.8452,-85.3154 744.0668,-80.6532"/>
</g>
<!-- Node13 -->
<g id="node14" class="node">
<title>Node13</title>
<g id="a_node14"><a xlink:href="a00011.xhtml" target="_top" xlink:title="Module de gestion des erreurs. ">
<polygon fill="#ffffff" stroke="#000000" points="964.7915,-112.5 964.7915,-131.5 1043.7915,-131.5 1043.7915,-112.5 964.7915,-112.5"/>
<text text-anchor="middle" x="1004.2915" y="-119.5" font-family="Helvetica,sans-Serif" font-size="10.00" fill="#000000">stegx_errors.h</text>
</a>
</g>
</g>
<!-- Node0&#45;&gt;Node13 -->
<g id="edge33" class="edge">
<title>Node0&#45;&gt;Node13</title>
<path fill="none" stroke="#191970" d="M856.8907,-168.3733C886.6176,-159.021 931.9074,-144.7725 964.437,-134.5385"/>
<polygon fill="#191970" stroke="#191970" points="965.6028,-137.8409 974.0915,-131.5011 963.502,-131.1636 965.6028,-137.8409"/>
</g>
<!-- Node14 -->
<g id="node15" class="node">
<title>Node14</title>
<g id="a_node15"><a xlink:href="a00098.xhtml" target="_top" xlink:title="Fichier RIFF. ">
<polygon fill="#ffffff" stroke="#000000" points="1062.2915,-112.5 1062.2915,-131.5 1098.2915,-131.5 1098.2915,-112.5 1062.2915,-112.5"/>
<text text-anchor="middle" x="1080.2915" y="-119.5" font-family="Helvetica,sans-Serif" font-size="10.00" fill="#000000">riff.h</text>
</a>
</g>
</g>
<!-- Node0&#45;&gt;Node14 -->
<g id="edge34" class="edge">
<title>Node0&#45;&gt;Node14</title>
<path fill="none" stroke="#191970" d="M873.3169,-170.6583C917.4132,-163.2872 985.2615,-150.6998 1052.2448,-131.9732"/>
<polygon fill="#191970" stroke="#191970" points="1053.457,-135.2673 1062.1184,-129.1656 1051.5424,-128.5342 1053.457,-135.2673"/>
</g>
<!-- Node5&#45;&gt;Node1 -->
<g id="edge6" class="edge">
<title>Node5&#45;&gt;Node1</title>
<path fill="none" stroke="#191970" d="M356.2859,-121.0211C295.831,-118.3907 165.7084,-108.9459 138.2915,-76 115.0075,-48.0206 169.471,-27.7708 207.4392,-17.5445"/>
<polygon fill="#191970" stroke="#191970" points="208.3429,-20.926 217.1555,-15.0447 206.5988,-14.1468 208.3429,-20.926"/>
</g>
<!-- Node5&#45;&gt;Node3 -->
<g id="edge7" class="edge">
<title>Node5&#45;&gt;Node3</title>
<path fill="none" stroke="#191970" d="M418.3885,-120.9396C478.3203,-118.1723 606.2987,-108.508 633.2915,-76 666.9256,-35.4936 572.9251,-19.0016 519.0794,-13.0152"/>
<polygon fill="#191970" stroke="#191970" points="519.2043,-9.5093 508.8954,-11.954 518.4788,-16.4716 519.2043,-9.5093"/>
</g>
<!-- Node5&#45;&gt;Node6 -->
<g id="edge8" class="edge">
<title>Node5&#45;&gt;Node6</title>
<path fill="none" stroke="#191970" d="M418.6753,-116.8439C470.3186,-108.3553 576.4528,-90.8926 666.2915,-76 667.5514,-75.7911 668.8262,-75.5797 670.1117,-75.3664"/>
<polygon fill="#191970" stroke="#191970" points="670.8139,-78.7978 680.105,-73.7061 669.6666,-71.8924 670.8139,-78.7978"/>
</g>
<!-- Node7 -->
<g id="node8" class="node">
<title>Node7</title>
<g id="a_node8"><a xlink:href="a00077.xhtml" target="_top" xlink:title="Fichier BMP. ">
<polygon fill="#ffffff" stroke="#000000" points="442.7915,-56.5 442.7915,-75.5 525.7915,-75.5 525.7915,-56.5 442.7915,-56.5"/>
<text text-anchor="middle" x="484.2915" y="-63.5" font-family="Helvetica,sans-Serif" font-size="10.00" fill="#000000">file_type/bmp.h</text>
</a>
</g>
</g>
<!-- Node5&#45;&gt;Node7 -->
<g id="edge9" class="edge">
<title>Node5&#45;&gt;Node7</title>
<path fill="none" stroke="#191970" d="M398.9207,-112.2455C412.4533,-103.4527 434.8086,-90.4079 453.3398,-80.4125"/>
<polygon fill="#191970" stroke="#191970" points="455.1456,-83.4167 462.3438,-75.6427 451.8687,-77.2311 455.1456,-83.4167"/>
</g>
<!-- Node8 -->
<g id="node9" class="node">
<title>Node8</title>
<g id="a_node9"><a xlink:href="a00095.xhtml" target="_top" xlink:title="Fichier PNG. ">
<polygon fill="#ffffff" stroke="#000000" points="544.2915,-56.5 544.2915,-75.5 624.2915,-75.5 624.2915,-56.5 544.2915,-56.5"/>
<text text-anchor="middle" x="584.2915" y="-63.5" font-family="Helvetica,sans-Serif" font-size="10.00" fill="#000000">file_type/png.h</text>
</a>
</g>
</g>
<!-- Node5&#45;&gt;Node8 -->
<g id="edge13" class="edge">
<title>Node5&#45;&gt;Node8</title>
<path fill="none" stroke="#191970" d="M415.9149,-112.3733C447.387,-102.9001 498.2398,-88.4032 535.8952,-78.1435"/>
<polygon fill="#191970" stroke="#191970" points="536.9134,-81.4939 545.6506,-75.5011 535.0833,-74.7373 536.9134,-81.4939"/>
</g>
<!-- Node9 -->
<g id="node10" class="node">
<title>Node9</title>
<g id="a_node10"><a xlink:href="a00104.xhtml" target="_top" xlink:title="Fichier WAVE. ">
<polygon fill="#ffffff" stroke="#000000" points="147.7915,-56.5 147.7915,-75.5 230.7915,-75.5 230.7915,-56.5 147.7915,-56.5"/>
<text text-anchor="middle" x="189.2915" y="-63.5" font-family="Helvetica,sans-Serif" font-size="10.00" fill="#000000">file_type/wav.h</text>
</a>
</g>
</g>
<!-- Node5&#45;&gt;Node9 -->
<g id="edge17" class="edge">
<title>Node5&#45;&gt;Node9</title>
<path fill="none" stroke="#191970" d="M356.2386,-114.5636C321.4633,-105.3716 265.3394,-89.5899 227.8194,-78.5183"/>
<polygon fill="#191970" stroke="#191970" points="228.3461,-75.0236 217.7634,-75.5299 226.352,-81.7336 228.3461,-75.0236"/>
</g>
<!-- Node10 -->
<g id="node11" class="node">
<title>Node10</title>
<g id="a_node11"><a xlink:href="a00089.xhtml" target="_top" xlink:title="Fichier MP3. ">
<polygon fill="#ffffff" stroke="#000000" points="248.7915,-56.5 248.7915,-75.5 331.7915,-75.5 331.7915,-56.5 248.7915,-56.5"/>
<text text-anchor="middle" x="290.2915" y="-63.5" font-family="Helvetica,sans-Serif" font-size="10.00" fill="#000000">file_type/mp3.h</text>
</a>
</g>
</g>
<!-- Node5&#45;&gt;Node10 -->
<g id="edge21" class="edge">
<title>Node5&#45;&gt;Node10</title>
<path fill="none" stroke="#191970" d="M365.1285,-112.2455C348.5866,-103.6534 326.4043,-91.0014 310.3817,-81.1018"/>
<polygon fill="#191970" stroke="#191970" points="312.0714,-78.0292 301.7488,-75.6427 308.33,-83.9456 312.0714,-78.0292"/>
</g>
<!-- Node11 -->
<g id="node12" class="node">
<title>Node11</title>
<g id="a_node12"><a xlink:href="a00071.xhtml" target="_top" xlink:title="Fichier AVI. ">
<polygon fill="#ffffff" stroke="#000000" points="13.7915,-56.5 13.7915,-75.5 90.7915,-75.5 90.7915,-56.5 13.7915,-56.5"/>
<text text-anchor="middle" x="52.2915" y="-63.5" font-family="Helvetica,sans-Serif" font-size="10.00" fill="#000000">file_type/avi.h</text>
</a>
</g>
</g>
<!-- Node5&#45;&gt;Node11 -->
<g id="edge25" class="edge">
<title>Node5&#45;&gt;Node11</title>
<path fill="none" stroke="#191970" d="M356.0329,-117.9663C304.1806,-110.4728 197.7156,-93.703 100.8959,-76.7929"/>
<polygon fill="#191970" stroke="#191970" points="101.4115,-73.33 90.9573,-75.0506 100.2027,-80.2249 101.4115,-73.33"/>
</g>
<!-- Node12 -->
<g id="node13" class="node">
<title>Node12</title>
<g id="a_node13"><a xlink:href="a00083.xhtml" target="_top" xlink:title="Fichier FLV. ">
<polygon fill="#ffffff" stroke="#000000" points="349.7915,-56.5 349.7915,-75.5 424.7915,-75.5 424.7915,-56.5 349.7915,-56.5"/>
<text text-anchor="middle" x="387.2915" y="-63.5" font-family="Helvetica,sans-Serif" font-size="10.00" fill="#000000">file_type/flv.h</text>
</a>
</g>
</g>
<!-- Node5&#45;&gt;Node12 -->
<g id="edge28" class="edge">
<title>Node5&#45;&gt;Node12</title>
<path fill="none" stroke="#191970" d="M382.0246,-112.2455C380.6136,-104.9382 380.2094,-94.6944 380.8119,-85.7046"/>
<polygon fill="#191970" stroke="#191970" points="384.3025,-85.9945 382.0463,-75.6427 377.3546,-85.1421 384.3025,-85.9945"/>
</g>
<!-- Node7&#45;&gt;Node1 -->
<g id="edge10" class="edge">
<title>Node7&#45;&gt;Node1</title>
<path fill="none" stroke="#191970" d="M442.6236,-56.4369C394.7399,-45.4472 317.135,-27.6362 273.2585,-17.5662"/>
<polygon fill="#191970" stroke="#191970" points="273.9185,-14.1267 263.3889,-15.3011 272.3526,-20.9494 273.9185,-14.1267"/>
</g>
<!-- Node7&#45;&gt;Node3 -->
<g id="edge11" class="edge">
<title>Node7&#45;&gt;Node3</title>
<path fill="none" stroke="#191970" d="M484.2915,-56.2455C484.2915,-48.9382 484.2915,-38.6944 484.2915,-29.7046"/>
<polygon fill="#191970" stroke="#191970" points="487.7916,-29.6426 484.2915,-19.6427 480.7916,-29.6427 487.7916,-29.6426"/>
</g>
<!-- Node7&#45;&gt;Node5 -->
<g id="edge12" class="edge">
<title>Node7&#45;&gt;Node5</title>
<path fill="none" stroke="#191970" d="M472.8341,-75.6427C459.3766,-84.3993 437.0428,-97.4388 418.4794,-107.46"/>
<polygon fill="#191970" stroke="#191970" points="416.6496,-104.4686 409.4544,-112.2455 419.9289,-110.653 416.6496,-104.4686"/>
</g>
<!-- Node8&#45;&gt;Node1 -->
<g id="edge14" class="edge">
<title>Node8&#45;&gt;Node1</title>
<path fill="none" stroke="#191970" d="M544.2094,-57.6615C541.1947,-57.0829 538.1968,-56.5227 535.2915,-56 440.5945,-38.9635 328.1255,-22.448 273.4459,-14.6551"/>
<polygon fill="#191970" stroke="#191970" points="273.6955,-11.1556 263.3028,-13.2153 272.7117,-18.0861 273.6955,-11.1556"/>
</g>
<!-- Node8&#45;&gt;Node3 -->
<g id="edge15" class="edge">
<title>Node8&#45;&gt;Node3</title>
<path fill="none" stroke="#191970" d="M566.8728,-56.2455C551.2429,-47.4928 528.0896,-34.527 510.2729,-24.5496"/>
<polygon fill="#191970" stroke="#191970" points="511.9457,-21.475 501.5105,-19.6427 508.5255,-27.5825 511.9457,-21.475"/>
</g>
<!-- Node8&#45;&gt;Node5 -->
<g id="edge16" class="edge">
<title>Node8&#45;&gt;Node5</title>
<path fill="none" stroke="#191970" d="M555.8084,-75.5845C522.2811,-85.6789 466.623,-101.5111 428.4382,-111.8233"/>
<polygon fill="#191970" stroke="#191970" points="427.401,-108.4777 418.6483,-114.4476 429.2135,-115.239 427.401,-108.4777"/>
</g>
<!-- Node9&#45;&gt;Node1 -->
<g id="edge18" class="edge">
<title>Node9&#45;&gt;Node1</title>
<path fill="none" stroke="#191970" d="M198.175,-56.2455C205.488,-48.2155 216.0306,-36.6394 224.7381,-27.0781"/>
<polygon fill="#191970" stroke="#191970" points="227.3641,-29.3928 231.5097,-19.6427 222.1887,-24.6795 227.3641,-29.3928"/>
</g>
<!-- Node9&#45;&gt;Node3 -->
<g id="edge19" class="edge">
<title>Node9&#45;&gt;Node3</title>
<path fill="none" stroke="#191970" d="M231.0352,-57.7893C234.167,-57.1811 237.2789,-56.5793 240.2915,-56 314.8697,-41.6587 402.3591,-25.2707 449.6687,-16.4451"/>
<polygon fill="#191970" stroke="#191970" points="450.5013,-19.8503 459.6904,-14.5766 449.2182,-12.9689 450.5013,-19.8503"/>
</g>
<!-- Node9&#45;&gt;Node5 -->
<g id="edge20" class="edge">
<title>Node9&#45;&gt;Node5</title>
<path fill="none" stroke="#191970" d="M228.102,-75.5011C263.0072,-84.8494 313.837,-99.1765 348.6768,-109.4561"/>
<polygon fill="#191970" stroke="#191970" points="347.9134,-112.8804 358.4961,-112.3733 349.9069,-106.1703 347.9134,-112.8804"/>
</g>
<!-- Node10&#45;&gt;Node1 -->
<g id="edge22" class="edge">
<title>Node10&#45;&gt;Node1</title>
<path fill="none" stroke="#191970" d="M281.5821,-56.2455C274.4842,-48.2958 264.283,-36.8706 255.7964,-27.3656"/>
<polygon fill="#191970" stroke="#191970" points="258.172,-24.771 248.901,-19.6427 252.9504,-29.4331 258.172,-24.771"/>
</g>
<!-- Node10&#45;&gt;Node3 -->
<g id="edge23" class="edge">
<title>Node10&#45;&gt;Node3</title>
<path fill="none" stroke="#191970" d="M323.6412,-56.3733C358.842,-46.2122 414.0653,-30.2715 449.7209,-19.9791"/>
<polygon fill="#191970" stroke="#191970" points="451.0327,-23.2434 459.6697,-17.1073 449.0913,-16.518 451.0327,-23.2434"/>
</g>
<!-- Node10&#45;&gt;Node5 -->
<g id="edge24" class="edge">
<title>Node10&#45;&gt;Node5</title>
<path fill="none" stroke="#191970" d="M312.2391,-75.6427C328.7317,-84.1994 350.9161,-96.8456 366.992,-106.769"/>
<polygon fill="#191970" stroke="#191970" points="365.3384,-109.8642 375.6622,-112.2455 369.0767,-103.946 365.3384,-109.8642"/>
</g>
<!-- Node11&#45;&gt;Node1 -->
<g id="edge26" class="edge">
<title>Node11&#45;&gt;Node1</title>
<path fill="none" stroke="#191970" d="M84.6098,-56.3733C119.0086,-46.1268 173.1381,-30.0031 207.6571,-19.7209"/>
<polygon fill="#191970" stroke="#191970" points="208.6837,-23.0671 217.2684,-16.8579 206.6853,-16.3584 208.6837,-23.0671"/>
</g>
<!-- Node11&#45;&gt;Node5 -->
<g id="edge27" class="edge">
<title>Node11&#45;&gt;Node5</title>
<path fill="none" stroke="#191970" d="M90.9739,-71.7884C98.7726,-73.2027 106.8215,-74.6862 114.2915,-76 196.5062,-90.4593 292.4877,-105.7859 346.0548,-114.5916"/>
<polygon fill="#191970" stroke="#191970" points="345.7496,-118.0885 356.1861,-116.2636 346.8895,-111.182 345.7496,-118.0885"/>
</g>
<!-- Node12&#45;&gt;Node1 -->
<g id="edge29" class="edge">
<title>Node12&#45;&gt;Node1</title>
<path fill="none" stroke="#191970" d="M362.0213,-56.3733C337.31,-46.9594 299.5763,-32.5847 272.6757,-22.3369"/>
<polygon fill="#191970" stroke="#191970" points="273.8902,-19.0542 263.2993,-18.7649 271.3982,-25.5956 273.8902,-19.0542"/>
</g>
<!-- Node12&#45;&gt;Node3 -->
<g id="edge30" class="edge">
<title>Node12&#45;&gt;Node3</title>
<path fill="none" stroke="#191970" d="M404.1876,-56.2455C419.2094,-47.5731 441.3958,-34.7645 458.6125,-24.825"/>
<polygon fill="#191970" stroke="#191970" points="460.6785,-27.6737 467.589,-19.6427 457.1786,-21.6114 460.6785,-27.6737"/>
</g>
<!-- Node12&#45;&gt;Node5 -->
<g id="edge31" class="edge">
<title>Node12&#45;&gt;Node5</title>
<path fill="none" stroke="#191970" d="M392.5366,-75.6427C393.9579,-82.9199 394.3724,-93.155 393.7801,-102.1575"/>
<polygon fill="#191970" stroke="#191970" points="390.2861,-101.8972 392.5583,-112.2455 397.2354,-102.739 390.2861,-101.8972"/>
</g>
</g>
</svg>
