<?xml version="1.0" encoding="UTF-8" standalone="no"?>
<!DOCTYPE svg PUBLIC "-//W3C//DTD SVG 1.1//EN"
 "http://www.w3.org/Graphics/SVG/1.1/DTD/svg11.dtd">
<!-- Generated by graphviz version 2.40.1 (20161225.0304)
 -->
<!-- Title: protect_data Pages: 1 -->
<svg width="480pt" height="256pt"
 viewBox="0.00 0.00 480.00 256.00" xmlns="http://www.w3.org/2000/svg" xmlns:xlink="http://www.w3.org/1999/xlink">
<g id="graph0" class="graph" transform="scale(1 1) rotate(0) translate(4 252)">
<title>protect_data</title>
<polygon fill="#ffffff" stroke="transparent" points="-4,4 -4,-252 476,-252 476,4 -4,4"/>
<!-- Node27 -->
<g id="node1" class="node">
<title>Node27</title>
<polygon fill="#bfbfbf" stroke="#000000" points="0,-114.5 0,-133.5 71,-133.5 71,-114.5 0,-114.5"/>
<text text-anchor="middle" x="35.5" y="-121.5" font-family="Helvetica,sans-Serif" font-size="10.00" fill="#000000">protect_data</text>
</g>
<!-- Node28 -->
<g id="node2" class="node">
<title>Node28</title>
<g id="a_node2"><a xlink:href="a00017.xhtml#a049b8f5bf7a416fe54b10c6de98487a1" target="_top" xlink:title="Va inserer les donnees cachees en utilisant l&#39;algorithme EOC. ">
<polygon fill="#ffffff" stroke="#000000" points="278.5,-228.5 278.5,-247.5 340.5,-247.5 340.5,-228.5 278.5,-228.5"/>
<text text-anchor="middle" x="309.5" y="-235.5" font-family="Helvetica,sans-Serif" font-size="10.00" fill="#000000">insert_eoc</text>
</a>
</g>
</g>
<!-- Node27&#45;&gt;Node28 -->
<g id="edge1" class="edge">
<title>Node27&#45;&gt;Node28</title>
<path fill="none" stroke="#191970" d="M43.7533,-142.8345C54.6771,-165.2484 76.2158,-201.7974 107,-219 161.2509,-249.316 236.6197,-246.928 278.4273,-242.4749"/>
<polygon fill="#191970" stroke="#191970" points="46.8742,-141.245 39.4862,-133.6511 40.5261,-144.1948 46.8742,-141.245"/>
</g>
<!-- Node30 -->
<g id="node4" class="node">
<title>Node30</title>
<g id="a_node4"><a xlink:href="a00017.xhtml#ad0cda2ae23fda82b16083952ca1b698a" target="_top" xlink:title="Va extraire les donnees cachees en utilisant l&#39;algorithme EOC. ">
<polygon fill="#ffffff" stroke="#000000" points="131,-76.5 131,-95.5 199,-95.5 199,-76.5 131,-76.5"/>
<text text-anchor="middle" x="165" y="-83.5" font-family="Helvetica,sans-Serif" font-size="10.00" fill="#000000">extract_eoc</text>
</a>
</g>
</g>
<!-- Node27&#45;&gt;Node30 -->
<g id="edge3" class="edge">
<title>Node27&#45;&gt;Node30</title>
<path fill="none" stroke="#191970" d="M78.219,-111.4647C95.836,-106.2952 115.9232,-100.4009 132.3321,-95.5859"/>
<polygon fill="#191970" stroke="#191970" points="76.7882,-108.2369 68.1783,-114.411 78.7592,-114.9537 76.7882,-108.2369"/>
</g>
<!-- Node32 -->
<g id="node6" class="node">
<title>Node32</title>
<g id="a_node6"><a xlink:href="a00077.xhtml#a9b0bec96351bc1e6be9134900590d215" target="_top" xlink:title="Va inserer les donnees cachees en utilisant l&#39;algorithme Metadata dans le format BMP. ">
<polygon fill="#ffffff" stroke="#000000" points="110,-152.5 110,-171.5 220,-171.5 220,-152.5 110,-152.5"/>
<text text-anchor="middle" x="165" y="-159.5" font-family="Helvetica,sans-Serif" font-size="10.00" fill="#000000">insert_metadata_bmp</text>
</a>
</g>
</g>
<!-- Node27&#45;&gt;Node32 -->
<g id="edge5" class="edge">
<title>Node27&#45;&gt;Node32</title>
<path fill="none" stroke="#191970" d="M78.219,-136.5353C95.836,-141.7048 115.9232,-147.5991 132.3321,-152.4141"/>
<polygon fill="#191970" stroke="#191970" points="78.7592,-133.0463 68.1783,-133.589 76.7882,-139.7631 78.7592,-133.0463"/>
</g>
<!-- Node34 -->
<g id="node8" class="node">
<title>Node34</title>
<g id="a_node8"><a xlink:href="a00077.xhtml#a14e9a0ddec04cc168cbfe21cd839166e" target="_top" xlink:title="Va extraire les donnees cachees en utilisant l&#39;algorithme Metadata dans le formar BMP...">
<polygon fill="#ffffff" stroke="#000000" points="107,-38.5 107,-57.5 223,-57.5 223,-38.5 107,-38.5"/>
<text text-anchor="middle" x="165" y="-45.5" font-family="Helvetica,sans-Serif" font-size="10.00" fill="#000000">extract_metadata_bmp</text>
</a>
</g>
</g>
<!-- Node27&#45;&gt;Node34 -->
<g id="edge8" class="edge">
<title>Node27&#45;&gt;Node34</title>
<path fill="none" stroke="#191970" d="M53.0027,-107.0736C66.7473,-94.5552 86.8687,-77.8623 107,-67 113.9006,-63.2766 121.6581,-60.1183 129.2005,-57.5094"/>
<polygon fill="#191970" stroke="#191970" points="50.2479,-104.8572 45.3257,-114.2392 55.0243,-109.9744 50.2479,-104.8572"/>
</g>
<!-- Node36 -->
<g id="node10" class="node">
<title>Node36</title>
<g id="a_node10"><a xlink:href="a00095.xhtml#a2386f518ec5df78485cca31c6fe4f858" target="_top" xlink:title="Va inserer les donnees cachees en utilisant l&#39;algorithme Metadata dans le format PNG. ">
<polygon fill="#ffffff" stroke="#000000" points="111.5,-190.5 111.5,-209.5 218.5,-209.5 218.5,-190.5 111.5,-190.5"/>
<text text-anchor="middle" x="165" y="-197.5" font-family="Helvetica,sans-Serif" font-size="10.00" fill="#000000">insert_metadata_png</text>
</a>
</g>
</g>
<!-- Node27&#45;&gt;Node36 -->
<g id="edge11" class="edge">
<title>Node27&#45;&gt;Node36</title>
<path fill="none" stroke="#191970" d="M53.0027,-140.9264C66.7473,-153.4448 86.8687,-170.1377 107,-181 113.9006,-184.7234 121.6581,-187.8817 129.2005,-190.4906"/>
<polygon fill="#191970" stroke="#191970" points="55.0243,-138.0256 45.3257,-133.7608 50.2479,-143.1428 55.0243,-138.0256"/>
</g>
<!-- Node37 -->
<g id="node11" class="node">
<title>Node37</title>
<g id="a_node11"><a xlink:href="a00095.xhtml#a258c2aefc0d29e112eca90e652730a84" target="_top" xlink:title="Va extraire les donnees cachees en utilisant l&#39;algorithme Metadata dans le formar PNG...">
<polygon fill="#ffffff" stroke="#000000" points="108.5,-.5 108.5,-19.5 221.5,-19.5 221.5,-.5 108.5,-.5"/>
<text text-anchor="middle" x="165" y="-7.5" font-family="Helvetica,sans-Serif" font-size="10.00" fill="#000000">extract_metadata_png</text>
</a>
</g>
</g>
<!-- Node27&#45;&gt;Node37 -->
<g id="edge13" class="edge">
<title>Node27&#45;&gt;Node37</title>
<path fill="none" stroke="#191970" d="M44.9687,-105.3245C56.7293,-83.9273 78.7403,-49.2215 107,-29 112.3426,-25.1771 118.4994,-22.0914 124.7626,-19.6102"/>
<polygon fill="#191970" stroke="#191970" points="41.7603,-103.9042 40.1683,-114.3787 47.9448,-107.1831 41.7603,-103.9042"/>
</g>
<!-- Node38 -->
<g id="node12" class="node">
<title>Node38</title>
<g id="a_node12"><a xlink:href="a00119.xhtml#af1d405b272ef2dc101b959264bad47e1" target="_top" xlink:title="Écrit des données mélangé ou remise en ordre avec un mot de passe. ">
<polygon fill="#ffffff" stroke="#000000" points="111.5,-114.5 111.5,-133.5 218.5,-133.5 218.5,-114.5 111.5,-114.5"/>
<text text-anchor="middle" x="165" y="-121.5" font-family="Helvetica,sans-Serif" font-size="10.00" fill="#000000">data_scramble_write</text>
</a>
</g>
</g>
<!-- Node27&#45;&gt;Node38 -->
<g id="edge15" class="edge">
<title>Node27&#45;&gt;Node38</title>
<path fill="none" stroke="#191970" d="M81.4669,-124C91.167,-124 101.4828,-124 111.435,-124"/>
<polygon fill="#191970" stroke="#191970" points="81.2293,-120.5001 71.2292,-124 81.2292,-127.5001 81.2293,-120.5001"/>
</g>
<!-- Node29 -->
<g id="node3" class="node">
<title>Node29</title>
<g id="a_node3"><a xlink:href="a00110.xhtml#a45a1d0709604d55e9d467cb39d6a5b54" target="_top" xlink:title="Va faire l&#39;insertion selon l&#39;algorithme, ainsi que les fichiers en entrée choisis par l&#39;utilisateur...">
<polygon fill="#ffffff" stroke="#000000" points="399,-190.5 399,-209.5 469,-209.5 469,-190.5 399,-190.5"/>
<text text-anchor="middle" x="434" y="-197.5" font-family="Helvetica,sans-Serif" font-size="10.00" fill="#000000">stegx_insert</text>
</a>
</g>
</g>
<!-- Node28&#45;&gt;Node29 -->
<g id="edge2" class="edge">
<title>Node28&#45;&gt;Node29</title>
<path fill="none" stroke="#191970" d="M350.3298,-225.5379C367.4227,-220.3208 386.9694,-214.3547 402.8695,-209.5017"/>
<polygon fill="#191970" stroke="#191970" points="349.1381,-222.2421 340.5955,-228.509 351.1816,-228.9372 349.1381,-222.2421"/>
</g>
<!-- Node31 -->
<g id="node5" class="node">
<title>Node31</title>
<g id="a_node5"><a xlink:href="a00065.xhtml#a43c63dd958bfa1f4ab2ecbd7faa14abb" target="_top" xlink:title="Va faire l&#39;extraction selon l&#39;algorithme détecté, ainsi que les fichiers en entrée choisis par l&#39;util...">
<polygon fill="#ffffff" stroke="#000000" points="396,-57.5 396,-76.5 472,-76.5 472,-57.5 396,-57.5"/>
<text text-anchor="middle" x="434" y="-64.5" font-family="Helvetica,sans-Serif" font-size="10.00" fill="#000000">stegx_extract</text>
</a>
</g>
</g>
<!-- Node30&#45;&gt;Node31 -->
<g id="edge4" class="edge">
<title>Node30&#45;&gt;Node31</title>
<path fill="none" stroke="#191970" d="M209.0712,-75.2043C224.7326,-71.871 242.5562,-68.6452 259,-67 306.0092,-62.2966 360.4778,-63.3071 395.9992,-64.8254"/>
<polygon fill="#191970" stroke="#191970" points="208.1408,-71.8252 199.1279,-77.3947 209.6468,-78.6613 208.1408,-71.8252"/>
</g>
<!-- Node33 -->
<g id="node7" class="node">
<title>Node33</title>
<g id="a_node7"><a xlink:href="a00041.xhtml#a77aaebb61a9a73cbe45380c64c3d8389" target="_top" xlink:title="Va inserer les donnees cachees en utilisant l&#39;algorithme Metadata. ">
<polygon fill="#ffffff" stroke="#000000" points="266.5,-190.5 266.5,-209.5 352.5,-209.5 352.5,-190.5 266.5,-190.5"/>
<text text-anchor="middle" x="309.5" y="-197.5" font-family="Helvetica,sans-Serif" font-size="10.00" fill="#000000">insert_metadata</text>
</a>
</g>
</g>
<!-- Node32&#45;&gt;Node33 -->
<g id="edge6" class="edge">
<title>Node32&#45;&gt;Node33</title>
<path fill="none" stroke="#191970" d="M211.3325,-174.1843C231.3939,-179.46 254.5285,-185.5438 273.2988,-190.4799"/>
<polygon fill="#191970" stroke="#191970" points="212.0248,-170.7474 201.4635,-171.589 210.2445,-177.5173 212.0248,-170.7474"/>
</g>
<!-- Node33&#45;&gt;Node29 -->
<g id="edge7" class="edge">
<title>Node33&#45;&gt;Node29</title>
<path fill="none" stroke="#191970" d="M362.7514,-200C374.9044,-200 387.5249,-200 398.707,-200"/>
<polygon fill="#191970" stroke="#191970" points="362.6947,-196.5001 352.6947,-200 362.6946,-203.5001 362.6947,-196.5001"/>
</g>
<!-- Node35 -->
<g id="node9" class="node">
<title>Node35</title>
<g id="a_node9"><a xlink:href="a00041.xhtml#a069239660c8070698c4ddcbbd6debe0b" target="_top" xlink:title="Va extraire les donnees cachees en utilisant l&#39;algorithme Metadata. ">
<polygon fill="#ffffff" stroke="#000000" points="263.5,-.5 263.5,-19.5 355.5,-19.5 355.5,-.5 263.5,-.5"/>
<text text-anchor="middle" x="309.5" y="-7.5" font-family="Helvetica,sans-Serif" font-size="10.00" fill="#000000">extract_metadata</text>
</a>
</g>
</g>
<!-- Node34&#45;&gt;Node35 -->
<g id="edge9" class="edge">
<title>Node34&#45;&gt;Node35</title>
<path fill="none" stroke="#191970" d="M211.3325,-35.8157C231.3939,-30.54 254.5285,-24.4562 273.2988,-19.5201"/>
<polygon fill="#191970" stroke="#191970" points="210.2445,-32.4827 201.4635,-38.411 212.0248,-39.2526 210.2445,-32.4827"/>
</g>
<!-- Node35&#45;&gt;Node31 -->
<g id="edge10" class="edge">
<title>Node35&#45;&gt;Node31</title>
<path fill="none" stroke="#191970" d="M339.549,-23.7574C362.2965,-34.1719 392.9605,-48.2108 413.0935,-57.4284"/>
<polygon fill="#191970" stroke="#191970" points="340.8879,-20.521 330.3385,-19.5405 337.9739,-26.8857 340.8879,-20.521"/>
</g>
<!-- Node36&#45;&gt;Node33 -->
<g id="edge12" class="edge">
<title>Node36&#45;&gt;Node33</title>
<path fill="none" stroke="#191970" d="M228.895,-200C241.6063,-200 254.6672,-200 266.4754,-200"/>
<polygon fill="#191970" stroke="#191970" points="228.8065,-196.5001 218.8065,-200 228.8064,-203.5001 228.8065,-196.5001"/>
</g>
<!-- Node37&#45;&gt;Node35 -->
<g id="edge14" class="edge">
<title>Node37&#45;&gt;Node35</title>
<path fill="none" stroke="#191970" d="M231.8001,-10C242.4214,-10 253.2006,-10 263.2126,-10"/>
<polygon fill="#191970" stroke="#191970" points="231.6955,-6.5001 221.6955,-10 231.6955,-13.5001 231.6955,-6.5001"/>
</g>
<!-- Node39 -->
<g id="node13" class="node">
<title>Node39</title>
<g id="a_node13"><a xlink:href="a00023.xhtml#a1c15f35d77081a076fe7cb19c7eb13b1" target="_top" xlink:title="Va inserer les donnees cachees en utilisant l&#39;algorithme EOF. ">
<polygon fill="#ffffff" stroke="#000000" points="280,-152.5 280,-171.5 339,-171.5 339,-152.5 280,-152.5"/>
<text text-anchor="middle" x="309.5" y="-159.5" font-family="Helvetica,sans-Serif" font-size="10.00" fill="#000000">insert_eof</text>
</a>
</g>
</g>
<!-- Node38&#45;&gt;Node39 -->
<g id="edge16" class="edge">
<title>Node38&#45;&gt;Node39</title>
<path fill="none" stroke="#191970" d="M211.1644,-136.1401C233.67,-142.0585 260.0761,-149.0027 279.855,-154.2041"/>
<polygon fill="#191970" stroke="#191970" points="212.0248,-132.7475 201.4635,-133.589 210.2445,-139.5173 212.0248,-132.7475"/>
</g>
<!-- Node40 -->
<g id="node14" class="node">
<title>Node40</title>
<g id="a_node14"><a xlink:href="a00023.xhtml#a0204ccf62793e17621fea9abae71e9da" target="_top" xlink:title="Va extraire les donnees cachees en utilisant l&#39;algorithme EOF. ">
<polygon fill="#ffffff" stroke="#000000" points="277,-114.5 277,-133.5 342,-133.5 342,-114.5 277,-114.5"/>
<text text-anchor="middle" x="309.5" y="-121.5" font-family="Helvetica,sans-Serif" font-size="10.00" fill="#000000">extract_eof</text>
</a>
</g>
</g>
<!-- Node38&#45;&gt;Node40 -->
<g id="edge18" class="edge">
<title>Node38&#45;&gt;Node40</title>
<path fill="none" stroke="#191970" d="M228.9567,-124C245.4296,-124 262.4852,-124 276.6373,-124"/>
<polygon fill="#191970" stroke="#191970" points="228.8065,-120.5001 218.8065,-124 228.8064,-127.5001 228.8065,-120.5001"/>
</g>
<!-- Node41 -->
<g id="node15" class="node">
<title>Node41</title>
<g id="a_node15"><a xlink:href="a00029.xhtml#ad04f5216bd1375440a90d0c51a4ba590" target="_top" xlink:title="Va extraire les donnees cachees en utilisant l&#39;algorithme Junk Chunk. ">
<polygon fill="#ffffff" stroke="#000000" points="259,-76.5 259,-95.5 360,-95.5 360,-76.5 259,-76.5"/>
<text text-anchor="middle" x="309.5" y="-83.5" font-family="Helvetica,sans-Serif" font-size="10.00" fill="#000000">extract_junk_chunk</text>
</a>
</g>
</g>
<!-- Node38&#45;&gt;Node41 -->
<g id="edge20" class="edge">
<title>Node38&#45;&gt;Node41</title>
<path fill="none" stroke="#191970" d="M211.3325,-111.8157C231.3939,-106.54 254.5285,-100.4562 273.2988,-95.5201"/>
<polygon fill="#191970" stroke="#191970" points="210.2445,-108.4827 201.4635,-114.411 212.0248,-115.2526 210.2445,-108.4827"/>
</g>
<!-- Node39&#45;&gt;Node29 -->
<g id="edge17" class="edge">
<title>Node39&#45;&gt;Node29</title>
<path fill="none" stroke="#191970" d="M348.8353,-174.006C366.1551,-179.2923 386.2254,-185.4182 402.5306,-190.3949"/>
<polygon fill="#191970" stroke="#191970" points="349.5909,-170.5773 339.0048,-171.0055 347.5474,-177.2723 349.5909,-170.5773"/>
</g>
<!-- Node40&#45;&gt;Node31 -->
<g id="edge19" class="edge">
<title>Node40&#45;&gt;Node31</title>
<path fill="none" stroke="#191970" d="M346.2052,-110.7558C350.8813,-108.9032 355.5761,-106.9604 360,-105 379.8057,-96.2235 401.8075,-84.6857 416.6321,-76.6357"/>
<polygon fill="#191970" stroke="#191970" points="344.7985,-107.5469 336.7256,-114.4084 347.3153,-114.0788 344.7985,-107.5469"/>
</g>
<!-- Node41&#45;&gt;Node31 -->
<g id="edge21" class="edge">
<title>Node41&#45;&gt;Node31</title>
<path fill="none" stroke="#191970" d="M370.2342,-76.7313C378.8832,-75.4114 387.5713,-74.0855 395.63,-72.8557"/>
<polygon fill="#191970" stroke="#191970" points="369.4964,-73.3033 360.1389,-78.272 370.5525,-80.2232 369.4964,-73.3033"/>
</g>
</g>
</svg>
