<?xml version="1.0" encoding="UTF-8" standalone="no"?>
<!DOCTYPE svg PUBLIC "-//W3C//DTD SVG 1.1//EN"
 "http://www.w3.org/Graphics/SVG/1.1/DTD/svg11.dtd">
<!-- Generated by graphviz version 2.40.1 (20161225.0304)
 -->
<!-- Title: create_seed Pages: 1 -->
<!--zoomable 403 -->
<svg id="main" version="1.1" xmlns="http://www.w3.org/2000/svg" xmlns:xlink="http://www.w3.org/1999/xlink" xml:space="preserve" onload="init(evt)">
<style type="text/css"><![CDATA[
.edge:hover path { stroke: red; }
.edge:hover polygon { stroke: red; fill: red; }
]]></style>
<script type="text/javascript"><![CDATA[
var edges = document.getElementsByTagName('g');
if (edges && edges.length) {
  for (var i=0;i<edges.length;i++) {
    if (edges[i].id.substr(0,4)=='edge') {
      edges[i].setAttribute('class','edge');
    }
  }
}
]]></script>
        <defs>
                <circle id="rim" cx="0" cy="0" r="7"/>
                <circle id="rim2" cx="0" cy="0" r="3.5"/>
                <g id="zoomPlus">
                        <use xlink:href="#rim" fill="#404040">
                                <set attributeName="fill" to="#808080" begin="zoomplus.mouseover" end="zoomplus.mouseout"/>
                        </use>
                        <path d="M-4,0h8M0,-4v8" fill="none" stroke="white" stroke-width="1.5" pointer-events="none"/>
                </g>
                <g id="zoomMin">
                        <use xlink:href="#rim" fill="#404040">
                                <set attributeName="fill" to="#808080" begin="zoomminus.mouseover" end="zoomminus.mouseout"/>
                        </use>
                        <path d="M-4,0h8" fill="none" stroke="white" stroke-width="1.5" pointer-events="none"/>
                </g>
                <g id="dirArrow">
                        <path fill="none" stroke="white" stroke-width="1.5" d="M0,-3.0v7 M-2.5,-0.5L0,-3.0L2.5,-0.5"/>
                </g>
               <g id="resetDef">
                       <use xlink:href="#rim2" fill="#404040">
                               <set attributeName="fill" to="#808080" begin="reset.mouseover" end="reset.mouseout"/>
                       </use>
               </g>
        </defs>

<script type="text/javascript">
var viewWidth = 614;
var viewHeight = 403;
var sectionId = 'dynsection-2';
</script>
<script xlink:href="svgpan.js"/>
<svg id="graph" class="graph">
<g id="viewport">
<title>create_seed</title>
<polygon fill="#ffffff" stroke="transparent" points="-4,4 -4,-399.1976 610,-399.1976 610,4 -4,4"/>
<!-- Node1 -->
<g id="node1" class="node">
<title>Node1</title>
<polygon fill="#bfbfbf" stroke="#000000" points="0,-177.7318 0,-196.7318 70,-196.7318 70,-177.7318 0,-177.7318"/>
<text text-anchor="middle" x="35" y="-184.7318" font-family="Helvetica,sans-Serif" font-size="10.00" fill="#000000">create_seed</text>
</g>
<!-- Node2 -->
<g id="node2" class="node">
<title>Node2</title>
<g id="a_node2"><a xlink:href="a00017.xhtml#a049b8f5bf7a416fe54b10c6de98487a1" target="_top" xlink:title="Va inserer les donnees cachees en utilisant l&#39;algorithme EOC. ">
<polygon fill="#ffffff" stroke="#000000" points="268,-272.7318 268,-291.7318 330,-291.7318 330,-272.7318 268,-272.7318"/>
<text text-anchor="middle" x="299" y="-279.7318" font-family="Helvetica,sans-Serif" font-size="10.00" fill="#000000">insert_eoc</text>
</a>
</g>
</g>
<!-- Node1&#45;&gt;Node2 -->
<g id="edge1" class="edge">
<title>Node1&#45;&gt;Node2</title>
<path fill="none" stroke="#191970" d="M55.6196,-202.7352C69.2993,-212.3915 87.9879,-224.4203 106,-232.2318 160.6194,-255.9191 228.9672,-270.3474 267.9399,-277.2656"/>
<polygon fill="#191970" stroke="#191970" points="57.5653,-199.823 47.4108,-196.8003 53.464,-205.4957 57.5653,-199.823"/>
</g>
<!-- Node4 -->
<g id="node4" class="node">
<title>Node4</title>
<g id="a_node4"><a xlink:href="a00017.xhtml#ad0cda2ae23fda82b16083952ca1b698a" target="_top" xlink:title="Va extraire les donnees cachees en utilisant l&#39;algorithme EOC. ">
<polygon fill="#ffffff" stroke="#000000" points="265,-6.7318 265,-25.7318 333,-25.7318 333,-6.7318 265,-6.7318"/>
<text text-anchor="middle" x="299" y="-13.7318" font-family="Helvetica,sans-Serif" font-size="10.00" fill="#000000">extract_eoc</text>
</a>
</g>
</g>
<!-- Node1&#45;&gt;Node4 -->
<g id="edge3" class="edge">
<title>Node1&#45;&gt;Node4</title>
<path fill="none" stroke="#191970" d="M36.9791,-167.6536C41.732,-132.1198 57.2902,-57.6069 106,-24.2318 153.3067,8.1819 223.5278,.8624 264.9437,-7.5716"/>
<polygon fill="#191970" stroke="#191970" points="33.4874,-167.3771 35.7872,-177.7193 40.4389,-168.2003 33.4874,-167.3771"/>
</g>
<!-- Node6 -->
<g id="node6" class="node">
<title>Node6</title>
<g id="a_node6"><a xlink:href="a00035.xhtml#a72239fe09f5e932458901b822ccdf945" target="_top" xlink:title="Cache les octets de data dans pixels selon l&#39;algorithme de protection des données en LSB...">
<polygon fill="#ffffff" stroke="#000000" points="111,-348.7318 111,-367.7318 200,-367.7318 200,-348.7318 111,-348.7318"/>
<text text-anchor="middle" x="155.5" y="-355.7318" font-family="Helvetica,sans-Serif" font-size="10.00" fill="#000000">protect_data_lsb</text>
</a>
</g>
</g>
<!-- Node1&#45;&gt;Node6 -->
<g id="edge5" class="edge">
<title>Node1&#45;&gt;Node6</title>
<path fill="none" stroke="#191970" d="M39.895,-206.6381C48.5146,-237.3 69.081,-297.2572 106,-334.2318 112.0734,-340.3143 119.9944,-345.0863 127.7134,-348.7176"/>
<polygon fill="#191970" stroke="#191970" points="43.2186,-205.5186 37.2517,-196.7638 36.4567,-207.3288 43.2186,-205.5186"/>
</g>
<!-- Node7 -->
<g id="node7" class="node">
<title>Node7</title>
<g id="a_node7"><a xlink:href="a00035.xhtml#a14e9d876697b0225ded31095c1076b64" target="_top" xlink:title="Va inserer les donnees cachees en utilisant l&#39;algorithme LSB. ">
<polygon fill="#ffffff" stroke="#000000" points="269.5,-348.7318 269.5,-367.7318 328.5,-367.7318 328.5,-348.7318 269.5,-348.7318"/>
<text text-anchor="middle" x="299" y="-355.7318" font-family="Helvetica,sans-Serif" font-size="10.00" fill="#000000">insert_lsb</text>
</a>
</g>
</g>
<!-- Node1&#45;&gt;Node7 -->
<g id="edge10" class="edge">
<title>Node1&#45;&gt;Node7</title>
<path fill="none" stroke="#191970" d="M39.402,-207.0004C49.7453,-251.4664 76.9282,-357.0601 106,-377.2318 159.3882,-414.2754 241.9733,-384.6651 279.3874,-367.8478"/>
<polygon fill="#191970" stroke="#191970" points="42.7804,-206.073 37.1442,-197.1018 35.9557,-207.6297 42.7804,-206.073"/>
</g>
<!-- Node8 -->
<g id="node8" class="node">
<title>Node8</title>
<g id="a_node8"><a xlink:href="a00035.xhtml#abc757e2627fc9971e388a584e0e0c2ca" target="_top" xlink:title="Va extraire les donnees cachees en utilisant l&#39;algorithme LSB. ">
<polygon fill="#ffffff" stroke="#000000" points="266.5,-310.7318 266.5,-329.7318 331.5,-329.7318 331.5,-310.7318 266.5,-310.7318"/>
<text text-anchor="middle" x="299" y="-317.7318" font-family="Helvetica,sans-Serif" font-size="10.00" fill="#000000">extract_lsb</text>
</a>
</g>
</g>
<!-- Node1&#45;&gt;Node8 -->
<g id="edge11" class="edge">
<title>Node1&#45;&gt;Node8</title>
<path fill="none" stroke="#191970" d="M47.9749,-205.3229C60.8972,-222.0931 82.1994,-246.5942 106,-261.2318 157.0351,-292.6187 226.0037,-308.3994 266.1768,-315.4185"/>
<polygon fill="#191970" stroke="#191970" points="50.4829,-202.8318 41.6953,-196.9132 44.874,-207.02 50.4829,-202.8318"/>
</g>
<!-- Node9 -->
<g id="node9" class="node">
<title>Node9</title>
<g id="a_node9"><a xlink:href="a00077.xhtml#a9b0bec96351bc1e6be9134900590d215" target="_top" xlink:title="Va inserer les donnees cachees en utilisant l&#39;algorithme Metadata dans le format BMP. ">
<polygon fill="#ffffff" stroke="#000000" points="244,-234.7318 244,-253.7318 354,-253.7318 354,-234.7318 244,-234.7318"/>
<text text-anchor="middle" x="299" y="-241.7318" font-family="Helvetica,sans-Serif" font-size="10.00" fill="#000000">insert_metadata_bmp</text>
</a>
</g>
</g>
<!-- Node1&#45;&gt;Node9 -->
<g id="edge12" class="edge">
<title>Node1&#45;&gt;Node9</title>
<path fill="none" stroke="#191970" d="M72.9401,-199.9178C83.5652,-203.2158 95.171,-206.5824 106,-209.2318 151.9783,-220.4804 204.9264,-229.8322 243.7203,-236.0308"/>
<polygon fill="#191970" stroke="#191970" points="73.7012,-196.4874 63.111,-196.8023 71.5861,-203.1603 73.7012,-196.4874"/>
</g>
<!-- Node11 -->
<g id="node11" class="node">
<title>Node11</title>
<g id="a_node11"><a xlink:href="a00077.xhtml#a14e9a0ddec04cc168cbfe21cd839166e" target="_top" xlink:title="Va extraire les donnees cachees en utilisant l&#39;algorithme Metadata dans le formar BMP...">
<polygon fill="#ffffff" stroke="#000000" points="241,-158.7318 241,-177.7318 357,-177.7318 357,-158.7318 241,-158.7318"/>
<text text-anchor="middle" x="299" y="-165.7318" font-family="Helvetica,sans-Serif" font-size="10.00" fill="#000000">extract_metadata_bmp</text>
</a>
</g>
</g>
<!-- Node1&#45;&gt;Node11 -->
<g id="edge15" class="edge">
<title>Node1&#45;&gt;Node11</title>
<path fill="none" stroke="#191970" d="M80.2504,-183.9751C124.605,-180.7829 192.4126,-175.9028 240.7673,-172.4228"/>
<polygon fill="#191970" stroke="#191970" points="79.7801,-180.4998 70.0572,-184.7087 80.2826,-187.4817 79.7801,-180.4998"/>
</g>
<!-- Node13 -->
<g id="node13" class="node">
<title>Node13</title>
<g id="a_node13"><a xlink:href="a00095.xhtml#a2386f518ec5df78485cca31c6fe4f858" target="_top" xlink:title="Va inserer les donnees cachees en utilisant l&#39;algorithme Metadata dans le format PNG. ">
<polygon fill="#ffffff" stroke="#000000" points="245.5,-196.7318 245.5,-215.7318 352.5,-215.7318 352.5,-196.7318 245.5,-196.7318"/>
<text text-anchor="middle" x="299" y="-203.7318" font-family="Helvetica,sans-Serif" font-size="10.00" fill="#000000">insert_metadata_png</text>
</a>
</g>
</g>
<!-- Node1&#45;&gt;Node13 -->
<g id="edge18" class="edge">
<title>Node1&#45;&gt;Node13</title>
<path fill="none" stroke="#191970" d="M80.2875,-190.4911C126.1091,-193.7889 196.9332,-198.886 245.4962,-202.3811"/>
<polygon fill="#191970" stroke="#191970" points="80.2826,-186.9818 70.0572,-189.7548 79.7801,-193.9637 80.2826,-186.9818"/>
</g>
<!-- Node14 -->
<g id="node14" class="node">
<title>Node14</title>
<g id="a_node14"><a xlink:href="a00095.xhtml#a258c2aefc0d29e112eca90e652730a84" target="_top" xlink:title="Va extraire les donnees cachees en utilisant l&#39;algorithme Metadata dans le formar PNG...">
<polygon fill="#ffffff" stroke="#000000" points="242.5,-120.7318 242.5,-139.7318 355.5,-139.7318 355.5,-120.7318 242.5,-120.7318"/>
<text text-anchor="middle" x="299" y="-127.7318" font-family="Helvetica,sans-Serif" font-size="10.00" fill="#000000">extract_metadata_png</text>
</a>
</g>
</g>
<!-- Node1&#45;&gt;Node14 -->
<g id="edge20" class="edge">
<title>Node1&#45;&gt;Node14</title>
<path fill="none" stroke="#191970" d="M45.6917,-168.951C57.6938,-150.442 79.0621,-122.9302 106,-111.2318 146.3586,-93.7051 161.2186,-106.8513 205,-111.2318 223.5548,-113.0882 243.8663,-116.957 260.8459,-120.722"/>
<polygon fill="#191970" stroke="#191970" points="42.577,-167.3331 40.2893,-177.678 48.5288,-171.0176 42.577,-167.3331"/>
</g>
<!-- Node15 -->
<g id="node15" class="node">
<title>Node15</title>
<g id="a_node15"><a xlink:href="a00119.xhtml#a3fd0a8f9ba189acd34f864c97f059b0f" target="_top" xlink:title="Fait le mélange ou réarrange les octets selon l&#39;algorithme de protection des données. ">
<polygon fill="#ffffff" stroke="#000000" points="120,-120.7318 120,-139.7318 191,-139.7318 191,-120.7318 120,-120.7318"/>
<text text-anchor="middle" x="155.5" y="-127.7318" font-family="Helvetica,sans-Serif" font-size="10.00" fill="#000000">protect_data</text>
</a>
</g>
</g>
<!-- Node1&#45;&gt;Node15 -->
<g id="edge22" class="edge">
<title>Node1&#45;&gt;Node15</title>
<path fill="none" stroke="#191970" d="M64.3789,-173.3347C86.3651,-162.9346 115.8661,-148.9798 135.2652,-139.8034"/>
<polygon fill="#191970" stroke="#191970" points="62.712,-170.2513 55.169,-177.6912 65.7053,-176.579 62.712,-170.2513"/>
</g>
<!-- Node20 -->
<g id="node20" class="node">
<title>Node20</title>
<g id="a_node20"><a xlink:href="a00119.xhtml#aed2bc32539848b035b9ad4fc2efd98e8" target="_top" xlink:title="Écrit des données XORées avec un mot de passe. ">
<polygon fill="#ffffff" stroke="#000000" points="250,-44.7318 250,-63.7318 348,-63.7318 348,-44.7318 250,-44.7318"/>
<text text-anchor="middle" x="299" y="-51.7318" font-family="Helvetica,sans-Serif" font-size="10.00" fill="#000000">data_xor_write_file</text>
</a>
</g>
</g>
<!-- Node1&#45;&gt;Node20 -->
<g id="edge36" class="edge">
<title>Node1&#45;&gt;Node20</title>
<path fill="none" stroke="#191970" d="M37.5306,-167.3445C43.0518,-133.316 59.6441,-64.7424 106,-35.2318 130.6387,-19.5465 210.5299,-33.8493 259.4635,-44.6969"/>
<polygon fill="#191970" stroke="#191970" points="34.0361,-167.0534 36.0557,-177.4539 40.9628,-168.064 34.0361,-167.0534"/>
</g>
<!-- Node21 -->
<g id="node21" class="node">
<title>Node21</title>
<g id="a_node21"><a xlink:href="a00119.xhtml#a7a07539cd0f2054ed61e4300f1e9a3d5" target="_top" xlink:title="Écrit des données XORées avec un mot de passe. ">
<polygon fill="#ffffff" stroke="#000000" points="106,-44.7318 106,-63.7318 205,-63.7318 205,-44.7318 106,-44.7318"/>
<text text-anchor="middle" x="155.5" y="-51.7318" font-family="Helvetica,sans-Serif" font-size="10.00" fill="#000000">data_xor_write_tab</text>
</a>
</g>
</g>
<!-- Node1&#45;&gt;Node21 -->
<g id="edge40" class="edge">
<title>Node1&#45;&gt;Node21</title>
<path fill="none" stroke="#191970" d="M43.41,-168.2196C54.7038,-144.5159 76.7785,-103.9881 106,-78.2318 112.7348,-72.2956 121.1977,-67.4829 129.2115,-63.7691"/>
<polygon fill="#191970" stroke="#191970" points="40.1237,-166.9883 39.1162,-177.5351 46.4809,-169.9185 40.1237,-166.9883"/>
</g>
<!-- Node3 -->
<g id="node3" class="node">
<title>Node3</title>
<g id="a_node3"><a xlink:href="a00110.xhtml#a45a1d0709604d55e9d467cb39d6a5b54" target="_top" xlink:title="Va faire l&#39;insertion selon l&#39;algorithme, ainsi que les fichiers en entrée choisis par l&#39;utilisateur...">
<polygon fill="#ffffff" stroke="#000000" points="533,-253.7318 533,-272.7318 603,-272.7318 603,-253.7318 533,-253.7318"/>
<text text-anchor="middle" x="568" y="-260.7318" font-family="Helvetica,sans-Serif" font-size="10.00" fill="#000000">stegx_insert</text>
</a>
</g>
</g>
<!-- Node2&#45;&gt;Node3 -->
<g id="edge2" class="edge">
<title>Node2&#45;&gt;Node3</title>
<path fill="none" stroke="#191970" d="M340.1354,-279.3263C392.8431,-275.6034 483.3073,-269.2138 532.9165,-265.7098"/>
<polygon fill="#191970" stroke="#191970" points="339.849,-275.8377 330.1205,-280.0337 340.3423,-282.8203 339.849,-275.8377"/>
</g>
<!-- Node5 -->
<g id="node5" class="node">
<title>Node5</title>
<g id="a_node5"><a xlink:href="a00065.xhtml#a43c63dd958bfa1f4ab2ecbd7faa14abb" target="_top" xlink:title="Va faire l&#39;extraction selon l&#39;algorithme détecté, ainsi que les fichiers en entrée choisis par l&#39;util...">
<polygon fill="#ffffff" stroke="#000000" points="530,-82.7318 530,-101.7318 606,-101.7318 606,-82.7318 530,-82.7318"/>
<text text-anchor="middle" x="568" y="-89.7318" font-family="Helvetica,sans-Serif" font-size="10.00" fill="#000000">stegx_extract</text>
</a>
</g>
</g>
<!-- Node4&#45;&gt;Node5 -->
<g id="edge4" class="edge">
<title>Node4&#45;&gt;Node5</title>
<path fill="none" stroke="#191970" d="M343.2096,-13.7133C383.8253,-12.9615 444.9728,-15.8348 494,-35.2318 520.8412,-45.8511 546.1324,-69.2601 559.0524,-82.5391"/>
<polygon fill="#191970" stroke="#191970" points="342.9942,-10.2177 333.0913,-13.9835 343.1812,-17.2152 342.9942,-10.2177"/>
</g>
<!-- Node6&#45;&gt;Node7 -->
<g id="edge6" class="edge">
<title>Node6&#45;&gt;Node7</title>
<path fill="none" stroke="#191970" d="M210.1219,-358.2318C230.2478,-358.2318 252.2832,-358.2318 269.3782,-358.2318"/>
<polygon fill="#191970" stroke="#191970" points="210.1177,-354.7319 200.1177,-358.2318 210.1177,-361.7319 210.1177,-354.7319"/>
</g>
<!-- Node6&#45;&gt;Node8 -->
<g id="edge8" class="edge">
<title>Node6&#45;&gt;Node8</title>
<path fill="none" stroke="#191970" d="M201.4382,-346.0669C222.5285,-340.4821 247.0518,-333.9881 266.2356,-328.908"/>
<polygon fill="#191970" stroke="#191970" points="200.4819,-342.6994 191.7111,-348.6428 202.2739,-349.4662 200.4819,-342.6994"/>
</g>
<!-- Node7&#45;&gt;Node3 -->
<g id="edge7" class="edge">
<title>Node7&#45;&gt;Node3</title>
<path fill="none" stroke="#191970" d="M338.7986,-360.5007C379.7025,-361.2358 444.2609,-357.8662 494,-334.2318 524.0717,-319.9426 549.6958,-288.6445 561.3241,-272.8109"/>
<polygon fill="#191970" stroke="#191970" points="338.7711,-356.9988 328.6797,-360.2261 338.5811,-363.9962 338.7711,-356.9988"/>
</g>
<!-- Node8&#45;&gt;Node5 -->
<g id="edge9" class="edge">
<title>Node8&#45;&gt;Node5</title>
<path fill="none" stroke="#191970" d="M341.8778,-318.0547C385.1107,-313.7071 451.3798,-300.8684 494,-263.2318 545.1616,-218.0525 562.2574,-131.1819 566.6868,-102.0374"/>
<polygon fill="#191970" stroke="#191970" points="341.3286,-314.5898 331.6799,-318.9661 341.9517,-321.562 341.3286,-314.5898"/>
</g>
<!-- Node10 -->
<g id="node10" class="node">
<title>Node10</title>
<g id="a_node10"><a xlink:href="a00041.xhtml#a77aaebb61a9a73cbe45380c64c3d8389" target="_top" xlink:title="Va inserer les donnees cachees en utilisant l&#39;algorithme Metadata. ">
<polygon fill="#ffffff" stroke="#000000" points="400.5,-234.7318 400.5,-253.7318 486.5,-253.7318 486.5,-234.7318 400.5,-234.7318"/>
<text text-anchor="middle" x="443.5" y="-241.7318" font-family="Helvetica,sans-Serif" font-size="10.00" fill="#000000">insert_metadata</text>
</a>
</g>
</g>
<!-- Node9&#45;&gt;Node10 -->
<g id="edge13" class="edge">
<title>Node9&#45;&gt;Node10</title>
<path fill="none" stroke="#191970" d="M364.2169,-244.2318C376.4436,-244.2318 388.9414,-244.2318 400.2921,-244.2318"/>
<polygon fill="#191970" stroke="#191970" points="364.0415,-240.7319 354.0415,-244.2318 364.0414,-247.7319 364.0415,-240.7319"/>
</g>
<!-- Node10&#45;&gt;Node3 -->
<g id="edge14" class="edge">
<title>Node10&#45;&gt;Node3</title>
<path fill="none" stroke="#191970" d="M496.7514,-252.3585C508.9044,-254.2132 521.5249,-256.1392 532.707,-257.8457"/>
<polygon fill="#191970" stroke="#191970" points="497.1083,-248.8725 486.6947,-250.8237 496.0521,-255.7924 497.1083,-248.8725"/>
</g>
<!-- Node12 -->
<g id="node12" class="node">
<title>Node12</title>
<g id="a_node12"><a xlink:href="a00041.xhtml#a069239660c8070698c4ddcbbd6debe0b" target="_top" xlink:title="Va extraire les donnees cachees en utilisant l&#39;algorithme Metadata. ">
<polygon fill="#ffffff" stroke="#000000" points="397.5,-158.7318 397.5,-177.7318 489.5,-177.7318 489.5,-158.7318 397.5,-158.7318"/>
<text text-anchor="middle" x="443.5" y="-165.7318" font-family="Helvetica,sans-Serif" font-size="10.00" fill="#000000">extract_metadata</text>
</a>
</g>
</g>
<!-- Node11&#45;&gt;Node12 -->
<g id="edge16" class="edge">
<title>Node11&#45;&gt;Node12</title>
<path fill="none" stroke="#191970" d="M367.437,-168.2318C377.58,-168.2318 387.8235,-168.2318 397.3649,-168.2318"/>
<polygon fill="#191970" stroke="#191970" points="367.3572,-164.7319 357.3572,-168.2318 367.3571,-171.7319 367.3572,-164.7319"/>
</g>
<!-- Node12&#45;&gt;Node5 -->
<g id="edge17" class="edge">
<title>Node12&#45;&gt;Node5</title>
<path fill="none" stroke="#191970" d="M482.8415,-154.7539C486.6837,-153.0462 490.4643,-151.2007 494,-149.2318 518.6523,-135.5037 543.979,-114.1046 557.6746,-101.8044"/>
<polygon fill="#191970" stroke="#191970" points="481.1759,-151.6549 473.2686,-158.7065 483.8475,-158.1251 481.1759,-151.6549"/>
</g>
<!-- Node13&#45;&gt;Node10 -->
<g id="edge19" class="edge">
<title>Node13&#45;&gt;Node10</title>
<path fill="none" stroke="#191970" d="M345.3325,-218.4161C365.3939,-223.6918 388.5285,-229.7756 407.2988,-234.7117"/>
<polygon fill="#191970" stroke="#191970" points="346.0248,-214.9792 335.4635,-215.8208 344.2445,-221.749 346.0248,-214.9792"/>
</g>
<!-- Node14&#45;&gt;Node12 -->
<g id="edge21" class="edge">
<title>Node14&#45;&gt;Node12</title>
<path fill="none" stroke="#191970" d="M345.3325,-142.4161C365.3939,-147.6918 388.5285,-153.7756 407.2988,-158.7117"/>
<polygon fill="#191970" stroke="#191970" points="346.0248,-138.9792 335.4635,-139.8208 344.2445,-145.749 346.0248,-138.9792"/>
</g>
<!-- Node15&#45;&gt;Node2 -->
<g id="edge23" class="edge">
<title>Node15&#45;&gt;Node2</title>
<path fill="none" stroke="#191970" d="M162.7794,-149.2135C174.765,-178.0009 201.3466,-232.5825 241,-263.2318 248.7968,-269.2581 258.5831,-273.4134 267.8846,-276.2618"/>
<polygon fill="#191970" stroke="#191970" points="166.0007,-147.8428 159.0269,-139.8668 159.5047,-150.4508 166.0007,-147.8428"/>
</g>
<!-- Node15&#45;&gt;Node4 -->
<g id="edge24" class="edge">
<title>Node15&#45;&gt;Node4</title>
<path fill="none" stroke="#191970" d="M170.9406,-112.6097C194.3891,-85.9162 236.7217,-38.0181 241,-35.2318 248.1919,-30.5478 256.6393,-26.9258 264.8276,-24.1626"/>
<polygon fill="#191970" stroke="#191970" points="168.028,-110.6223 164.0631,-120.4473 173.2896,-115.2393 168.028,-110.6223"/>
</g>
<!-- Node15&#45;&gt;Node9 -->
<g id="edge25" class="edge">
<title>Node15&#45;&gt;Node9</title>
<path fill="none" stroke="#191970" d="M167.2983,-148.2736C182.1031,-169.5639 209.4166,-204.6621 241,-225.2318 246.8601,-229.0483 253.5537,-232.1599 260.2615,-234.6762"/>
<polygon fill="#191970" stroke="#191970" points="170.0794,-146.1384 161.5742,-139.8207 164.2833,-150.0634 170.0794,-146.1384"/>
</g>
<!-- Node15&#45;&gt;Node11 -->
<g id="edge26" class="edge">
<title>Node15&#45;&gt;Node11</title>
<path fill="none" stroke="#191970" d="M201.1846,-142.3294C221.2072,-147.6316 244.3639,-153.7637 263.1186,-158.7301"/>
<polygon fill="#191970" stroke="#191970" points="201.9037,-138.8993 191.3409,-139.7227 200.1118,-145.666 201.9037,-138.8993"/>
</g>
<!-- Node15&#45;&gt;Node13 -->
<g id="edge27" class="edge">
<title>Node15&#45;&gt;Node13</title>
<path fill="none" stroke="#191970" d="M175.5736,-145.9019C192.3281,-158.4048 217.2241,-175.6796 241,-187.2318 248.4338,-190.8437 256.7221,-194.0185 264.6539,-196.6871"/>
<polygon fill="#191970" stroke="#191970" points="177.6853,-143.1107 167.6033,-139.8543 173.454,-148.6872 177.6853,-143.1107"/>
</g>
<!-- Node15&#45;&gt;Node14 -->
<g id="edge28" class="edge">
<title>Node15&#45;&gt;Node14</title>
<path fill="none" stroke="#191970" d="M201.4716,-130.2318C214.5027,-130.2318 228.8422,-130.2318 242.4218,-130.2318"/>
<polygon fill="#191970" stroke="#191970" points="201.341,-126.7319 191.3409,-130.2318 201.3409,-133.7319 201.341,-126.7319"/>
</g>
<!-- Node16 -->
<g id="node16" class="node">
<title>Node16</title>
<g id="a_node16"><a xlink:href="a00119.xhtml#af1d405b272ef2dc101b959264bad47e1" target="_top" xlink:title="Écrit des données mélangé ou remise en ordre avec un mot de passe. ">
<polygon fill="#ffffff" stroke="#000000" points="245.5,-82.7318 245.5,-101.7318 352.5,-101.7318 352.5,-82.7318 245.5,-82.7318"/>
<text text-anchor="middle" x="299" y="-89.7318" font-family="Helvetica,sans-Serif" font-size="10.00" fill="#000000">data_scramble_write</text>
</a>
</g>
</g>
<!-- Node15&#45;&gt;Node16 -->
<g id="edge29" class="edge">
<title>Node15&#45;&gt;Node16</title>
<path fill="none" stroke="#191970" d="M201.1846,-118.1341C221.2072,-112.8319 244.3639,-106.6999 263.1186,-101.7334"/>
<polygon fill="#191970" stroke="#191970" points="200.1118,-114.7975 191.3409,-120.7408 201.9037,-121.5642 200.1118,-114.7975"/>
</g>
<!-- Node17 -->
<g id="node17" class="node">
<title>Node17</title>
<g id="a_node17"><a xlink:href="a00023.xhtml#a1c15f35d77081a076fe7cb19c7eb13b1" target="_top" xlink:title="Va inserer les donnees cachees en utilisant l&#39;algorithme EOF. ">
<polygon fill="#ffffff" stroke="#000000" points="414,-120.7318 414,-139.7318 473,-139.7318 473,-120.7318 414,-120.7318"/>
<text text-anchor="middle" x="443.5" y="-127.7318" font-family="Helvetica,sans-Serif" font-size="10.00" fill="#000000">insert_eof</text>
</a>
</g>
</g>
<!-- Node16&#45;&gt;Node17 -->
<g id="edge30" class="edge">
<title>Node16&#45;&gt;Node17</title>
<path fill="none" stroke="#191970" d="M345.1644,-104.3719C367.67,-110.2903 394.0761,-117.2345 413.855,-122.4358"/>
<polygon fill="#191970" stroke="#191970" points="346.0248,-100.9792 335.4635,-101.8208 344.2445,-107.749 346.0248,-100.9792"/>
</g>
<!-- Node18 -->
<g id="node18" class="node">
<title>Node18</title>
<g id="a_node18"><a xlink:href="a00023.xhtml#a0204ccf62793e17621fea9abae71e9da" target="_top" xlink:title="Va extraire les donnees cachees en utilisant l&#39;algorithme EOF. ">
<polygon fill="#ffffff" stroke="#000000" points="411,-82.7318 411,-101.7318 476,-101.7318 476,-82.7318 411,-82.7318"/>
<text text-anchor="middle" x="443.5" y="-89.7318" font-family="Helvetica,sans-Serif" font-size="10.00" fill="#000000">extract_eof</text>
</a>
</g>
</g>
<!-- Node16&#45;&gt;Node18 -->
<g id="edge32" class="edge">
<title>Node16&#45;&gt;Node18</title>
<path fill="none" stroke="#191970" d="M362.9567,-92.2318C379.4296,-92.2318 396.4852,-92.2318 410.6373,-92.2318"/>
<polygon fill="#191970" stroke="#191970" points="362.8065,-88.7319 352.8065,-92.2318 362.8064,-95.7319 362.8065,-88.7319"/>
</g>
<!-- Node19 -->
<g id="node19" class="node">
<title>Node19</title>
<g id="a_node19"><a xlink:href="a00029.xhtml#ad04f5216bd1375440a90d0c51a4ba590" target="_top" xlink:title="Va extraire les donnees cachees en utilisant l&#39;algorithme Junk Chunk. ">
<polygon fill="#ffffff" stroke="#000000" points="393,-44.7318 393,-63.7318 494,-63.7318 494,-44.7318 393,-44.7318"/>
<text text-anchor="middle" x="443.5" y="-51.7318" font-family="Helvetica,sans-Serif" font-size="10.00" fill="#000000">extract_junk_chunk</text>
</a>
</g>
</g>
<!-- Node16&#45;&gt;Node19 -->
<g id="edge34" class="edge">
<title>Node16&#45;&gt;Node19</title>
<path fill="none" stroke="#191970" d="M345.3325,-80.0474C365.3939,-74.7718 388.5285,-68.6879 407.2988,-63.7518"/>
<polygon fill="#191970" stroke="#191970" points="344.2445,-76.7145 335.4635,-82.6428 346.0248,-83.4843 344.2445,-76.7145"/>
</g>
<!-- Node17&#45;&gt;Node3 -->
<g id="edge31" class="edge">
<title>Node17&#45;&gt;Node3</title>
<path fill="none" stroke="#191970" d="M482.4052,-141.8988C486.5341,-143.9856 490.4977,-146.4144 494,-149.2318 530.7705,-178.8117 555.2531,-231.7531 564.2047,-253.4995"/>
<polygon fill="#191970" stroke="#191970" points="483.7801,-138.6799 473.2171,-137.8584 480.9623,-145.0878 483.7801,-138.6799"/>
</g>
<!-- Node18&#45;&gt;Node5 -->
<g id="edge33" class="edge">
<title>Node18&#45;&gt;Node5</title>
<path fill="none" stroke="#191970" d="M486.6089,-92.2318C500.6434,-92.2318 516.1159,-92.2318 529.768,-92.2318"/>
<polygon fill="#191970" stroke="#191970" points="486.2109,-88.7319 476.2109,-92.2318 486.2109,-95.7319 486.2109,-88.7319"/>
</g>
<!-- Node19&#45;&gt;Node5 -->
<g id="edge35" class="edge">
<title>Node19&#45;&gt;Node5</title>
<path fill="none" stroke="#191970" d="M484.5696,-66.7671C501.5064,-71.9365 520.8181,-77.8309 536.5934,-82.6458"/>
<polygon fill="#191970" stroke="#191970" points="485.5028,-63.3925 474.9166,-63.8208 483.4593,-70.0876 485.5028,-63.3925"/>
</g>
<!-- Node20&#45;&gt;Node17 -->
<g id="edge37" class="edge">
<title>Node20&#45;&gt;Node17</title>
<path fill="none" stroke="#191970" d="M346.8623,-67.7451C350.392,-69.3901 353.8136,-71.2141 357,-73.2318 376.6552,-85.678 373.6188,-98.3631 393,-111.2318 399.3211,-115.4288 406.6978,-118.872 413.8293,-121.6183"/>
<polygon fill="#191970" stroke="#191970" points="347.9312,-64.3993 337.3534,-63.7982 345.2476,-70.8645 347.9312,-64.3993"/>
</g>
<!-- Node20&#45;&gt;Node18 -->
<g id="edge38" class="edge">
<title>Node20&#45;&gt;Node18</title>
<path fill="none" stroke="#191970" d="M345.3315,-66.4158C366.7306,-72.0433 391.6267,-78.5903 410.9926,-83.6831"/>
<polygon fill="#191970" stroke="#191970" points="346.0248,-62.9792 335.4635,-63.8208 344.2445,-69.749 346.0248,-62.9792"/>
</g>
<!-- Node20&#45;&gt;Node19 -->
<g id="edge39" class="edge">
<title>Node20&#45;&gt;Node19</title>
<path fill="none" stroke="#191970" d="M358.6314,-54.2318C370.0235,-54.2318 381.8476,-54.2318 392.9229,-54.2318"/>
<polygon fill="#191970" stroke="#191970" points="358.3246,-50.7319 348.3246,-54.2318 358.3245,-57.7319 358.3246,-50.7319"/>
</g>
<!-- Node21&#45;&gt;Node16 -->
<g id="edge41" class="edge">
<title>Node21&#45;&gt;Node16</title>
<path fill="none" stroke="#191970" d="M201.4735,-66.4059C221.3164,-71.6605 244.1928,-77.7184 262.8005,-82.6458"/>
<polygon fill="#191970" stroke="#191970" points="202.2739,-62.9973 191.7111,-63.8208 200.4819,-69.7641 202.2739,-62.9973"/>
</g>
</g>
</svg>
        <g id="navigator" transform="translate(0 0)" fill="#404254">
                <rect fill="#f2f5e9" fill-opacity="0.5" stroke="#606060" stroke-width=".5" x="0" y="0" width="60" height="60"/>
                <use id="zoomplus" xlink:href="#zoomPlus" x="17" y="9" onmousedown="handleZoom(evt,'in')"/>
                <use id="zoomminus" xlink:href="#zoomMin" x="42" y="9" onmousedown="handleZoom(evt,'out')"/>
                <use id="reset" xlink:href="#resetDef" x="30" y="36" onmousedown="handleReset()"/>
                <g id="arrowUp" xlink:href="#dirArrow" transform="translate(30 24)" onmousedown="handlePan(0,-1)">
                  <use xlink:href="#rim" fill="#404040">
                        <set attributeName="fill" to="#808080" begin="arrowUp.mouseover" end="arrowUp.mouseout"/>
                  </use>
                  <path fill="none" stroke="white" stroke-width="1.5" d="M0,-3.0v7 M-2.5,-0.5L0,-3.0L2.5,-0.5"/>
                </g>
                <g id="arrowRight" xlink:href="#dirArrow" transform="rotate(90) translate(36 -43)" onmousedown="handlePan(1,0)">
                  <use xlink:href="#rim" fill="#404040">
                        <set attributeName="fill" to="#808080" begin="arrowRight.mouseover" end="arrowRight.mouseout"/>
                  </use>
                  <path fill="none" stroke="white" stroke-width="1.5" d="M0,-3.0v7 M-2.5,-0.5L0,-3.0L2.5,-0.5"/>
                </g>
                <g id="arrowDown" xlink:href="#dirArrow" transform="rotate(180) translate(-30 -48)" onmousedown="handlePan(0,1)">
                  <use xlink:href="#rim" fill="#404040">
                        <set attributeName="fill" to="#808080" begin="arrowDown.mouseover" end="arrowDown.mouseout"/>
                  </use>
                  <path fill="none" stroke="white" stroke-width="1.5" d="M0,-3.0v7 M-2.5,-0.5L0,-3.0L2.5,-0.5"/>
                </g>
                <g id="arrowLeft" xlink:href="#dirArrow" transform="rotate(270) translate(-36 17)" onmousedown="handlePan(-1,0)">
                  <use xlink:href="#rim" fill="#404040">
                        <set attributeName="fill" to="#808080" begin="arrowLeft.mouseover" end="arrowLeft.mouseout"/>
                  </use>
                  <path fill="none" stroke="white" stroke-width="1.5" d="M0,-3.0v7 M-2.5,-0.5L0,-3.0L2.5,-0.5"/>
                </g>
        </g>
        <svg viewBox="0 0 15 15" width="100%" height="30px" preserveAspectRatio="xMaxYMin meet">
         <g id="arrow_out" transform="scale(0.3 0.3)">
          <a xlink:href="a00125_a2a891bbe3514201de3cfc5acced104b7_icgraph_org.svg" target="_base">
           <rect id="button" ry="5" rx="5" y="6" x="6" height="38" width="38"
                fill="#f2f5e9" fill-opacity="0.5" stroke="#606060" stroke-width="1.0"/>
           <path id="arrow"
             d="M 11.500037,31.436501 C 11.940474,20.09759 22.043105,11.32322 32.158766,21.979434 L 37.068811,17.246167 C 37.068811,17.246167 37.088388,32 37.088388,32 L 22.160133,31.978069 C 22.160133,31.978069 26.997745,27.140456 26.997745,27.140456 C 18.528582,18.264221 13.291696,25.230495 11.500037,31.436501 z"
             style="fill:#404040;"/>
          </a>
         </g>
        </svg>
</svg>
