<?xml version="1.0" encoding="UTF-8" standalone="no"?>
<!DOCTYPE svg PUBLIC "-//W3C//DTD SVG 1.1//EN"
 "http://www.w3.org/Graphics/SVG/1.1/DTD/svg11.dtd">
<!-- Generated by graphviz version 2.40.1 (20161225.0304)
 -->
<!-- Title: src/protection.h Pages: 1 -->
<svg width="332pt" height="84pt"
 viewBox="0.00 0.00 332.00 84.00" xmlns="http://www.w3.org/2000/svg" xmlns:xlink="http://www.w3.org/1999/xlink">
<g id="graph0" class="graph" transform="scale(1 1) rotate(0) translate(4 80)">
<title>src/protection.h</title>
<polygon fill="#ffffff" stroke="transparent" points="-4,4 -4,-80 328,-80 328,4 -4,4"/>
<!-- Node0 -->
<g id="node1" class="node">
<title>Node0</title>
<polygon fill="#bfbfbf" stroke="#000000" points="93.5,-56.5 93.5,-75.5 177.5,-75.5 177.5,-56.5 93.5,-56.5"/>
<text text-anchor="middle" x="135.5" y="-63.5" font-family="Helvetica,sans-Serif" font-size="10.00" fill="#000000">src/protection.h</text>
</g>
<!-- Node1 -->
<g id="node2" class="node">
<title>Node1</title>
<polygon fill="#ffffff" stroke="#bfbfbf" points="0,-.5 0,-19.5 49,-19.5 49,-.5 0,-.5"/>
<text text-anchor="middle" x="24.5" y="-7.5" font-family="Helvetica,sans-Serif" font-size="10.00" fill="#000000">string.h</text>
</g>
<!-- Node0&#45;&gt;Node1 -->
<g id="edge1" class="edge">
<title>Node0&#45;&gt;Node1</title>
<path fill="none" stroke="#191970" d="M116.4184,-56.3733C98.7598,-47.4644 72.2947,-34.1127 52.2902,-24.0203"/>
<polygon fill="#191970" stroke="#191970" points="53.8372,-20.8806 43.3326,-19.5011 50.6842,-27.1303 53.8372,-20.8806"/>
</g>
<!-- Node2 -->
<g id="node3" class="node">
<title>Node2</title>
<polygon fill="#ffffff" stroke="#bfbfbf" points="67,-.5 67,-19.5 116,-19.5 116,-.5 67,-.5"/>
<text text-anchor="middle" x="91.5" y="-7.5" font-family="Helvetica,sans-Serif" font-size="10.00" fill="#000000">stdint.h</text>
</g>
<!-- Node0&#45;&gt;Node2 -->
<g id="edge2" class="edge">
<title>Node0&#45;&gt;Node2</title>
<path fill="none" stroke="#191970" d="M127.8358,-56.2455C121.6527,-48.3761 112.7937,-37.101 105.3711,-27.6542"/>
<polygon fill="#191970" stroke="#191970" points="108.0068,-25.3435 99.0764,-19.6427 102.5025,-29.6683 108.0068,-25.3435"/>
</g>
<!-- Node3 -->
<g id="node4" class="node">
<title>Node3</title>
<g id="a_node4"><a xlink:href="a00008.xhtml" target="_top" xlink:title="Définitions communes à la partie privée et public de la bibliothèque. ">
<polygon fill="#ffffff" stroke="#000000" points="134.5,-.5 134.5,-19.5 226.5,-19.5 226.5,-.5 134.5,-.5"/>
<text text-anchor="middle" x="180.5" y="-7.5" font-family="Helvetica,sans-Serif" font-size="10.00" fill="#000000">stegx_common.h</text>
</a>
</g>
</g>
<!-- Node0&#45;&gt;Node3 -->
<g id="edge3" class="edge">
<title>Node0&#45;&gt;Node3</title>
<path fill="none" stroke="#191970" d="M143.3384,-56.2455C149.662,-48.3761 158.7224,-37.101 166.3136,-27.6542"/>
<polygon fill="#191970" stroke="#191970" points="169.2158,-29.6302 172.7514,-19.6427 163.7592,-25.2454 169.2158,-29.6302"/>
</g>
<!-- Node4 -->
<g id="node5" class="node">
<title>Node4</title>
<g id="a_node5"><a xlink:href="a00011.xhtml" target="_top" xlink:title="Module de gestion des erreurs. ">
<polygon fill="#ffffff" stroke="#000000" points="245,-.5 245,-19.5 324,-19.5 324,-.5 245,-.5"/>
<text text-anchor="middle" x="284.5" y="-7.5" font-family="Helvetica,sans-Serif" font-size="10.00" fill="#000000">stegx_errors.h</text>
</a>
</g>
</g>
<!-- Node0&#45;&gt;Node4 -->
<g id="edge4" class="edge">
<title>Node0&#45;&gt;Node4</title>
<path fill="none" stroke="#191970" d="M161.114,-56.3733C185.5687,-47.1822 222.6054,-33.2624 249.7209,-23.0713"/>
<polygon fill="#191970" stroke="#191970" points="251.0909,-26.2956 259.2202,-19.5011 248.6281,-19.7431 251.0909,-26.2956"/>
</g>
</g>
</svg>
