<?xml version="1.0" encoding="UTF-8" standalone="no"?>
<!DOCTYPE svg PUBLIC "-//W3C//DTD SVG 1.1//EN"
 "http://www.w3.org/Graphics/SVG/1.1/DTD/svg11.dtd">
<!-- Generated by graphviz version 2.40.1 (20161225.0304)
 -->
<!-- Title: src/insert.c Pages: 1 -->
<!--zoomable 252 -->
<svg id="main" version="1.1" xmlns="http://www.w3.org/2000/svg" xmlns:xlink="http://www.w3.org/1999/xlink" xml:space="preserve" onload="init(evt)">
<style type="text/css"><![CDATA[
.edge:hover path { stroke: red; }
.edge:hover polygon { stroke: red; fill: red; }
]]></style>
<script type="text/javascript"><![CDATA[
var edges = document.getElementsByTagName('g');
if (edges && edges.length) {
  for (var i=0;i<edges.length;i++) {
    if (edges[i].id.substr(0,4)=='edge') {
      edges[i].setAttribute('class','edge');
    }
  }
}
]]></script>
        <defs>
                <circle id="rim" cx="0" cy="0" r="7"/>
                <circle id="rim2" cx="0" cy="0" r="3.5"/>
                <g id="zoomPlus">
                        <use xlink:href="#rim" fill="#404040">
                                <set attributeName="fill" to="#808080" begin="zoomplus.mouseover" end="zoomplus.mouseout"/>
                        </use>
                        <path d="M-4,0h8M0,-4v8" fill="none" stroke="white" stroke-width="1.5" pointer-events="none"/>
                </g>
                <g id="zoomMin">
                        <use xlink:href="#rim" fill="#404040">
                                <set attributeName="fill" to="#808080" begin="zoomminus.mouseover" end="zoomminus.mouseout"/>
                        </use>
                        <path d="M-4,0h8" fill="none" stroke="white" stroke-width="1.5" pointer-events="none"/>
                </g>
                <g id="dirArrow">
                        <path fill="none" stroke="white" stroke-width="1.5" d="M0,-3.0v7 M-2.5,-0.5L0,-3.0L2.5,-0.5"/>
                </g>
               <g id="resetDef">
                       <use xlink:href="#rim2" fill="#404040">
                               <set attributeName="fill" to="#808080" begin="reset.mouseover" end="reset.mouseout"/>
                       </use>
               </g>
        </defs>

<script type="text/javascript">
var viewWidth = 1032;
var viewHeight = 252;
var sectionId = 'dynsection-0';
</script>
<script xlink:href="svgpan.js"/>
<svg id="graph" class="graph">
<g id="viewport">
<title>src/insert.c</title>
<polygon fill="#ffffff" stroke="transparent" points="-4,4 -4,-248 1028.2836,-248 1028.2836,4 -4,4"/>
<!-- Node0 -->
<g id="node1" class="node">
<title>Node0</title>
<polygon fill="#bfbfbf" stroke="#000000" points="472.5,-224.5 472.5,-243.5 537.5,-243.5 537.5,-224.5 472.5,-224.5"/>
<text text-anchor="middle" x="505" y="-231.5" font-family="Helvetica,sans-Serif" font-size="10.00" fill="#000000">src/insert.c</text>
</g>
<!-- Node1 -->
<g id="node2" class="node">
<title>Node1</title>
<polygon fill="#ffffff" stroke="#bfbfbf" points="0,-168.5 0,-187.5 44,-187.5 44,-168.5 0,-168.5"/>
<text text-anchor="middle" x="22" y="-175.5" font-family="Helvetica,sans-Serif" font-size="10.00" fill="#000000">time.h</text>
</g>
<!-- Node0&#45;&gt;Node1 -->
<g id="edge1" class="edge">
<title>Node0&#45;&gt;Node1</title>
<path fill="none" stroke="#191970" d="M472.4762,-232.5322C398.3691,-228.7794 211.5069,-217.0049 58,-188 56.7451,-187.7629 55.4704,-187.5031 54.1862,-187.2256"/>
<polygon fill="#191970" stroke="#191970" points="54.8748,-183.7911 44.3311,-184.8308 53.2219,-190.5932 54.8748,-183.7911"/>
</g>
<!-- Node2 -->
<g id="node3" class="node">
<title>Node2</title>
<polygon fill="#ffffff" stroke="#bfbfbf" points="273,-.5 273,-19.5 319,-19.5 319,-.5 273,-.5"/>
<text text-anchor="middle" x="296" y="-7.5" font-family="Helvetica,sans-Serif" font-size="10.00" fill="#000000">stdio.h</text>
</g>
<!-- Node0&#45;&gt;Node2 -->
<g id="edge2" class="edge">
<title>Node0&#45;&gt;Node2</title>
<path fill="none" stroke="#191970" d="M472.372,-232.6422C382.0828,-228.5529 133.9871,-214.9426 110,-188 75.4277,-149.1679 31.3962,-175.5654 168,-56 194.7849,-32.5559 234.4072,-20.7718 262.4616,-15.0447"/>
<polygon fill="#191970" stroke="#191970" points="263.4176,-18.4262 272.5964,-13.1347 262.1211,-11.5473 263.4176,-18.4262"/>
</g>
<!-- Node3 -->
<g id="node4" class="node">
<title>Node3</title>
<polygon fill="#ffffff" stroke="#bfbfbf" points="649,-168.5 649,-187.5 697,-187.5 697,-168.5 649,-168.5"/>
<text text-anchor="middle" x="673" y="-175.5" font-family="Helvetica,sans-Serif" font-size="10.00" fill="#000000">stdlib.h</text>
</g>
<!-- Node0&#45;&gt;Node3 -->
<g id="edge3" class="edge">
<title>Node0&#45;&gt;Node3</title>
<path fill="none" stroke="#191970" d="M533.8802,-224.3733C563.0437,-214.6521 608.0776,-199.6408 638.96,-189.3467"/>
<polygon fill="#191970" stroke="#191970" points="640.4673,-192.5336 648.8473,-186.0509 638.2536,-185.8929 640.4673,-192.5336"/>
</g>
<!-- Node4 -->
<g id="node5" class="node">
<title>Node4</title>
<polygon fill="#ffffff" stroke="#bfbfbf" points="715,-168.5 715,-187.5 767,-187.5 767,-168.5 715,-168.5"/>
<text text-anchor="middle" x="741" y="-175.5" font-family="Helvetica,sans-Serif" font-size="10.00" fill="#000000">assert.h</text>
</g>
<!-- Node0&#45;&gt;Node4 -->
<g id="edge4" class="edge">
<title>Node0&#45;&gt;Node4</title>
<path fill="none" stroke="#191970" d="M537.5042,-227.1197C575.4094,-218.9741 640.1673,-204.6811 704.73,-188.2354"/>
<polygon fill="#191970" stroke="#191970" points="705.851,-191.5612 714.6677,-185.6862 704.1116,-184.7808 705.851,-191.5612"/>
</g>
<!-- Node5 -->
<g id="node6" class="node">
<title>Node5</title>
<polygon fill="#ffffff" stroke="#bfbfbf" points="785.5,-168.5 785.5,-187.5 834.5,-187.5 834.5,-168.5 785.5,-168.5"/>
<text text-anchor="middle" x="810" y="-175.5" font-family="Helvetica,sans-Serif" font-size="10.00" fill="#000000">string.h</text>
</g>
<!-- Node0&#45;&gt;Node5 -->
<g id="edge5" class="edge">
<title>Node0&#45;&gt;Node5</title>
<path fill="none" stroke="#191970" d="M537.7843,-229.7084C587.1914,-222.9654 683.8082,-208.7111 775.2361,-187.9539"/>
<polygon fill="#191970" stroke="#191970" points="776.2468,-191.3129 785.207,-185.6591 774.6767,-184.4912 776.2468,-191.3129"/>
</g>
<!-- Node6 -->
<g id="node7" class="node">
<title>Node6</title>
<g id="a_node7"><a xlink:href="a00047.xhtml" target="_top" xlink:title="Définitions communes à la partie privée de la bibliothèque. ">
<polygon fill="#ffffff" stroke="#000000" points="493,-112.5 493,-131.5 555,-131.5 555,-112.5 493,-112.5"/>
<text text-anchor="middle" x="524" y="-119.5" font-family="Helvetica,sans-Serif" font-size="10.00" fill="#000000">common.h</text>
</a>
</g>
</g>
<!-- Node0&#45;&gt;Node6 -->
<g id="edge6" class="edge">
<title>Node0&#45;&gt;Node6</title>
<path fill="none" stroke="#191970" d="M506.6199,-224.4509C509.7188,-206.184 516.5433,-165.9553 520.6584,-141.6976"/>
<polygon fill="#191970" stroke="#191970" points="524.1623,-141.9694 522.3842,-131.5249 517.2609,-140.7986 524.1623,-141.9694"/>
</g>
<!-- Node8 -->
<g id="node9" class="node">
<title>Node8</title>
<g id="a_node9"><a xlink:href="a00008.xhtml" target="_top" xlink:title="Définitions communes à la partie privée et public de la bibliothèque. ">
<polygon fill="#ffffff" stroke="#000000" points="919,-56.5 919,-75.5 1011,-75.5 1011,-56.5 919,-56.5"/>
<text text-anchor="middle" x="965" y="-63.5" font-family="Helvetica,sans-Serif" font-size="10.00" fill="#000000">stegx_common.h</text>
</a>
</g>
</g>
<!-- Node0&#45;&gt;Node8 -->
<g id="edge33" class="edge">
<title>Node0&#45;&gt;Node8</title>
<path fill="none" stroke="#191970" d="M525.9353,-224.3787C545.6633,-215.24 575.9944,-201.0028 602,-188 619.0704,-179.4648 622.3792,-175.3317 640,-168 735.6205,-128.2138 852.512,-95.1275 916.8209,-78.1942"/>
<polygon fill="#191970" stroke="#191970" points="917.8899,-81.5324 926.6793,-75.6166 916.1191,-74.7601 917.8899,-81.5324"/>
</g>
<!-- Node15 -->
<g id="node16" class="node">
<title>Node15</title>
<g id="a_node16"><a xlink:href="a00011.xhtml" target="_top" xlink:title="Module de gestion des erreurs. ">
<polygon fill="#ffffff" stroke="#000000" points="852.5,-168.5 852.5,-187.5 931.5,-187.5 931.5,-168.5 852.5,-168.5"/>
<text text-anchor="middle" x="892" y="-175.5" font-family="Helvetica,sans-Serif" font-size="10.00" fill="#000000">stegx_errors.h</text>
</a>
</g>
</g>
<!-- Node0&#45;&gt;Node15 -->
<g id="edge34" class="edge">
<title>Node0&#45;&gt;Node15</title>
<path fill="none" stroke="#191970" d="M537.8428,-230.3241C596.8592,-223.5502 724.9403,-208.0836 842.5934,-188.153"/>
<polygon fill="#191970" stroke="#191970" points="843.222,-191.5964 852.4894,-186.4617 842.0427,-184.6965 843.222,-191.5964"/>
</g>
<!-- Node16 -->
<g id="node17" class="node">
<title>Node16</title>
<g id="a_node17"><a xlink:href="a00035.xhtml" target="_top" xlink:title="Algorithme LSB. ">
<polygon fill="#ffffff" stroke="#000000" points="533.5,-168.5 533.5,-187.5 592.5,-187.5 592.5,-168.5 533.5,-168.5"/>
<text text-anchor="middle" x="563" y="-175.5" font-family="Helvetica,sans-Serif" font-size="10.00" fill="#000000">algo/lsb.h</text>
</a>
</g>
</g>
<!-- Node0&#45;&gt;Node16 -->
<g id="edge35" class="edge">
<title>Node0&#45;&gt;Node16</title>
<path fill="none" stroke="#191970" d="M515.1028,-224.2455C523.5028,-216.1352 535.6494,-204.4075 545.6084,-194.7919"/>
<polygon fill="#191970" stroke="#191970" points="548.25,-197.1066 553.0129,-187.6427 543.3878,-192.0707 548.25,-197.1066"/>
</g>
<!-- Node17 -->
<g id="node18" class="node">
<title>Node17</title>
<g id="a_node18"><a xlink:href="a00023.xhtml" target="_top" xlink:title="Algorithme EOF. ">
<polygon fill="#ffffff" stroke="#000000" points="119.5,-168.5 119.5,-187.5 178.5,-187.5 178.5,-168.5 119.5,-168.5"/>
<text text-anchor="middle" x="149" y="-175.5" font-family="Helvetica,sans-Serif" font-size="10.00" fill="#000000">algo/eof.h</text>
</a>
</g>
</g>
<!-- Node0&#45;&gt;Node17 -->
<g id="edge38" class="edge">
<title>Node0&#45;&gt;Node17</title>
<path fill="none" stroke="#191970" d="M472.4032,-230.4358C416.4193,-224.0631 298.2503,-209.5147 188.6349,-187.9455"/>
<polygon fill="#191970" stroke="#191970" points="189.2264,-184.4946 178.7353,-185.9734 187.8587,-191.3597 189.2264,-184.4946"/>
</g>
<!-- Node18 -->
<g id="node19" class="node">
<title>Node18</title>
<g id="a_node19"><a xlink:href="a00041.xhtml" target="_top" xlink:title="Algorithme METADATA. ">
<polygon fill="#ffffff" stroke="#000000" points="197,-168.5 197,-187.5 283,-187.5 283,-168.5 197,-168.5"/>
<text text-anchor="middle" x="240" y="-175.5" font-family="Helvetica,sans-Serif" font-size="10.00" fill="#000000">algo/metadata.h</text>
</a>
</g>
</g>
<!-- Node0&#45;&gt;Node18 -->
<g id="edge41" class="edge">
<title>Node0&#45;&gt;Node18</title>
<path fill="none" stroke="#191970" d="M472.24,-227.0771C427.4877,-217.62 346.7042,-200.5488 293.2045,-189.2432"/>
<polygon fill="#191970" stroke="#191970" points="293.725,-185.776 283.2174,-187.1327 292.2777,-192.6247 293.725,-185.776"/>
</g>
<!-- Node19 -->
<g id="node20" class="node">
<title>Node19</title>
<g id="a_node20"><a xlink:href="a00017.xhtml" target="_top" xlink:title="Algorithme End Of Chunk (EOC). ">
<polygon fill="#ffffff" stroke="#000000" points="301,-168.5 301,-187.5 363,-187.5 363,-168.5 301,-168.5"/>
<text text-anchor="middle" x="332" y="-175.5" font-family="Helvetica,sans-Serif" font-size="10.00" fill="#000000">algo/eoc.h</text>
</a>
</g>
</g>
<!-- Node0&#45;&gt;Node19 -->
<g id="edge44" class="edge">
<title>Node0&#45;&gt;Node19</title>
<path fill="none" stroke="#191970" d="M475.2602,-224.3733C446.493,-215.0613 402.73,-200.8953 371.1444,-190.671"/>
<polygon fill="#191970" stroke="#191970" points="371.9436,-187.251 361.3517,-187.5011 369.7878,-193.9107 371.9436,-187.251"/>
</g>
<!-- Node20 -->
<g id="node21" class="node">
<title>Node20</title>
<g id="a_node21"><a xlink:href="a00029.xhtml" target="_top" xlink:title="Algorithme JUNK CHUNK. ">
<polygon fill="#ffffff" stroke="#000000" points="381.5,-168.5 381.5,-187.5 476.5,-187.5 476.5,-168.5 381.5,-168.5"/>
<text text-anchor="middle" x="429" y="-175.5" font-family="Helvetica,sans-Serif" font-size="10.00" fill="#000000">algo/junk_chunk.h</text>
</a>
</g>
</g>
<!-- Node0&#45;&gt;Node20 -->
<g id="edge47" class="edge">
<title>Node0&#45;&gt;Node20</title>
<path fill="none" stroke="#191970" d="M491.7618,-224.2455C480.319,-215.814 463.5704,-203.4729 450.2525,-193.6598"/>
<polygon fill="#191970" stroke="#191970" points="452.2133,-190.757 442.0865,-187.6427 448.0609,-196.3924 452.2133,-190.757"/>
</g>
<!-- Node6&#45;&gt;Node2 -->
<g id="edge7" class="edge">
<title>Node6&#45;&gt;Node2</title>
<path fill="none" stroke="#191970" d="M492.82,-120.8561C433.42,-117.9518 307.5704,-108.0721 281,-76 270.0364,-62.7663 276.4952,-43.1127 284.0481,-28.6934"/>
<polygon fill="#191970" stroke="#191970" points="287.2777,-30.0998 289.2511,-19.6904 281.217,-26.5972 287.2777,-30.0998"/>
</g>
<!-- Node7 -->
<g id="node8" class="node">
<title>Node7</title>
<polygon fill="#ffffff" stroke="#bfbfbf" points="696.5,-.5 696.5,-19.5 745.5,-19.5 745.5,-.5 696.5,-.5"/>
<text text-anchor="middle" x="721" y="-7.5" font-family="Helvetica,sans-Serif" font-size="10.00" fill="#000000">stdint.h</text>
</g>
<!-- Node6&#45;&gt;Node7 -->
<g id="edge8" class="edge">
<title>Node6&#45;&gt;Node7</title>
<path fill="none" stroke="#191970" d="M555.2261,-118.1451C640.1885,-107.6215 869.3827,-78.9861 872,-76 907.2558,-35.7773 810.4893,-19.1039 755.7244,-13.0358"/>
<polygon fill="#191970" stroke="#191970" points="756.0148,-9.5471 745.7057,-11.9912 755.2888,-16.5094 756.0148,-9.5471"/>
</g>
<!-- Node6&#45;&gt;Node8 -->
<g id="edge9" class="edge">
<title>Node6&#45;&gt;Node8</title>
<path fill="none" stroke="#191970" d="M555.0959,-118.255C645.2503,-107.396 900.6566,-76.6238 905,-76 906.2642,-75.8184 907.5428,-75.6317 908.8317,-75.4407"/>
<polygon fill="#191970" stroke="#191970" points="909.4897,-78.8808 918.8447,-73.9076 908.4302,-71.9615 909.4897,-78.8808"/>
</g>
<!-- Node9 -->
<g id="node10" class="node">
<title>Node9</title>
<g id="a_node10"><a xlink:href="a00077.xhtml" target="_top" xlink:title="Fichier BMP. ">
<polygon fill="#ffffff" stroke="#000000" points="579.5,-56.5 579.5,-75.5 662.5,-75.5 662.5,-56.5 579.5,-56.5"/>
<text text-anchor="middle" x="621" y="-63.5" font-family="Helvetica,sans-Serif" font-size="10.00" fill="#000000">file_type/bmp.h</text>
</a>
</g>
</g>
<!-- Node6&#45;&gt;Node9 -->
<g id="edge10" class="edge">
<title>Node6&#45;&gt;Node9</title>
<path fill="none" stroke="#191970" d="M535.6293,-112.2455C549.1619,-103.4527 571.5172,-90.4079 590.0483,-80.4125"/>
<polygon fill="#191970" stroke="#191970" points="591.8541,-83.4167 599.0524,-75.6427 588.5773,-77.2311 591.8541,-83.4167"/>
</g>
<!-- Node10 -->
<g id="node11" class="node">
<title>Node10</title>
<g id="a_node11"><a xlink:href="a00095.xhtml" target="_top" xlink:title="Fichier PNG. ">
<polygon fill="#ffffff" stroke="#000000" points="681,-56.5 681,-75.5 761,-75.5 761,-56.5 681,-56.5"/>
<text text-anchor="middle" x="721" y="-63.5" font-family="Helvetica,sans-Serif" font-size="10.00" fill="#000000">file_type/png.h</text>
</a>
</g>
</g>
<!-- Node6&#45;&gt;Node10 -->
<g id="edge14" class="edge">
<title>Node6&#45;&gt;Node10</title>
<path fill="none" stroke="#191970" d="M552.6235,-112.3733C584.0956,-102.9001 634.9484,-88.4032 672.6037,-78.1435"/>
<polygon fill="#191970" stroke="#191970" points="673.622,-81.4939 682.3591,-75.5011 671.7919,-74.7373 673.622,-81.4939"/>
</g>
<!-- Node11 -->
<g id="node12" class="node">
<title>Node11</title>
<g id="a_node12"><a xlink:href="a00104.xhtml" target="_top" xlink:title="Fichier WAVE. ">
<polygon fill="#ffffff" stroke="#000000" points="779.5,-56.5 779.5,-75.5 862.5,-75.5 862.5,-56.5 779.5,-56.5"/>
<text text-anchor="middle" x="821" y="-63.5" font-family="Helvetica,sans-Serif" font-size="10.00" fill="#000000">file_type/wav.h</text>
</a>
</g>
</g>
<!-- Node6&#45;&gt;Node11 -->
<g id="edge18" class="edge">
<title>Node6&#45;&gt;Node11</title>
<path fill="none" stroke="#191970" d="M555.3058,-115.0882C600.7863,-106.176 687.1758,-90.1396 761,-76 763.6502,-75.4924 766.3772,-74.9669 769.1413,-74.4347"/>
<polygon fill="#191970" stroke="#191970" points="770.0793,-77.8186 779.241,-72.4975 768.7607,-70.944 770.0793,-77.8186"/>
</g>
<!-- Node12 -->
<g id="node13" class="node">
<title>Node12</title>
<g id="a_node13"><a xlink:href="a00089.xhtml" target="_top" xlink:title="Fichier MP3. ">
<polygon fill="#ffffff" stroke="#000000" points="385.5,-56.5 385.5,-75.5 468.5,-75.5 468.5,-56.5 385.5,-56.5"/>
<text text-anchor="middle" x="427" y="-63.5" font-family="Helvetica,sans-Serif" font-size="10.00" fill="#000000">file_type/mp3.h</text>
</a>
</g>
</g>
<!-- Node6&#45;&gt;Node12 -->
<g id="edge22" class="edge">
<title>Node6&#45;&gt;Node12</title>
<path fill="none" stroke="#191970" d="M501.837,-112.2455C485.2951,-103.6534 463.1128,-91.0014 447.0902,-81.1018"/>
<polygon fill="#191970" stroke="#191970" points="448.7799,-78.0292 438.4574,-75.6427 445.0386,-83.9456 448.7799,-78.0292"/>
</g>
<!-- Node13 -->
<g id="node14" class="node">
<title>Node13</title>
<g id="a_node14"><a xlink:href="a00071.xhtml" target="_top" xlink:title="Fichier AVI. ">
<polygon fill="#ffffff" stroke="#000000" points="290.5,-56.5 290.5,-75.5 367.5,-75.5 367.5,-56.5 290.5,-56.5"/>
<text text-anchor="middle" x="329" y="-63.5" font-family="Helvetica,sans-Serif" font-size="10.00" fill="#000000">file_type/avi.h</text>
</a>
</g>
</g>
<!-- Node6&#45;&gt;Node13 -->
<g id="edge26" class="edge">
<title>Node6&#45;&gt;Node13</title>
<path fill="none" stroke="#191970" d="M492.9129,-114.4476C458.6435,-105.2512 403.7714,-89.5841 367,-78.5611"/>
<polygon fill="#191970" stroke="#191970" points="367.7256,-75.1242 357.1408,-75.5845 365.7024,-81.8255 367.7256,-75.1242"/>
</g>
<!-- Node14 -->
<g id="node15" class="node">
<title>Node14</title>
<g id="a_node15"><a xlink:href="a00083.xhtml" target="_top" xlink:title="Fichier FLV. ">
<polygon fill="#ffffff" stroke="#000000" points="486.5,-56.5 486.5,-75.5 561.5,-75.5 561.5,-56.5 486.5,-56.5"/>
<text text-anchor="middle" x="524" y="-63.5" font-family="Helvetica,sans-Serif" font-size="10.00" fill="#000000">file_type/flv.h</text>
</a>
</g>
</g>
<!-- Node6&#45;&gt;Node14 -->
<g id="edge29" class="edge">
<title>Node6&#45;&gt;Node14</title>
<path fill="none" stroke="#191970" d="M518.7332,-112.2455C517.3221,-104.9382 516.9179,-94.6944 517.5205,-85.7046"/>
<polygon fill="#191970" stroke="#191970" points="521.0111,-85.9945 518.7549,-75.6427 514.0632,-85.1421 521.0111,-85.9945"/>
</g>
<!-- Node9&#45;&gt;Node2 -->
<g id="edge11" class="edge">
<title>Node9&#45;&gt;Node2</title>
<path fill="none" stroke="#191970" d="M579.2771,-57.5528C576.4778,-57.0177 573.6992,-56.4955 571,-56 483.9204,-40.0132 380.898,-23.3897 329.1624,-15.1996"/>
<polygon fill="#191970" stroke="#191970" points="329.6454,-11.7326 319.2219,-13.6299 328.5536,-18.6469 329.6454,-11.7326"/>
</g>
<!-- Node9&#45;&gt;Node6 -->
<g id="edge13" class="edge">
<title>Node9&#45;&gt;Node6</title>
<path fill="none" stroke="#191970" d="M609.5426,-75.6427C596.0852,-84.3993 573.7514,-97.4388 555.188,-107.46"/>
<polygon fill="#191970" stroke="#191970" points="553.3581,-104.4686 546.163,-112.2455 556.6374,-110.653 553.3581,-104.4686"/>
</g>
<!-- Node9&#45;&gt;Node7 -->
<g id="edge12" class="edge">
<title>Node9&#45;&gt;Node7</title>
<path fill="none" stroke="#191970" d="M638.4187,-56.2455C654.0485,-47.4928 677.2019,-34.527 695.0185,-24.5496"/>
<polygon fill="#191970" stroke="#191970" points="696.766,-27.5825 703.7809,-19.6427 693.3457,-21.475 696.766,-27.5825"/>
</g>
<!-- Node10&#45;&gt;Node2 -->
<g id="edge15" class="edge">
<title>Node10&#45;&gt;Node2</title>
<path fill="none" stroke="#191970" d="M680.9365,-57.5534C677.9175,-56.9998 674.9136,-56.4748 672,-56 546.2621,-35.5115 395.5195,-19.6909 329.6118,-13.2054"/>
<polygon fill="#191970" stroke="#191970" points="329.7049,-9.698 319.4122,-12.2099 329.0249,-16.6648 329.7049,-9.698"/>
</g>
<!-- Node10&#45;&gt;Node6 -->
<g id="edge17" class="edge">
<title>Node10&#45;&gt;Node6</title>
<path fill="none" stroke="#191970" d="M692.5169,-75.5845C658.9896,-85.6789 603.3316,-101.5111 565.1467,-111.8233"/>
<polygon fill="#191970" stroke="#191970" points="564.1096,-108.4777 555.3568,-114.4476 565.9221,-115.239 564.1096,-108.4777"/>
</g>
<!-- Node10&#45;&gt;Node7 -->
<g id="edge16" class="edge">
<title>Node10&#45;&gt;Node7</title>
<path fill="none" stroke="#191970" d="M721,-56.2455C721,-48.9382 721,-38.6944 721,-29.7046"/>
<polygon fill="#191970" stroke="#191970" points="724.5001,-29.6426 721,-19.6427 717.5001,-29.6427 724.5001,-29.6426"/>
</g>
<!-- Node11&#45;&gt;Node2 -->
<g id="edge19" class="edge">
<title>Node11&#45;&gt;Node2</title>
<path fill="none" stroke="#191970" d="M779.308,-57.4836C776.1642,-56.9461 773.0355,-56.4438 770,-56 605.5291,-31.9525 407.0506,-17.3053 329.4146,-12.1248"/>
<polygon fill="#191970" stroke="#191970" points="329.4865,-8.6221 319.2779,-11.4567 329.026,-15.6069 329.4865,-8.6221"/>
</g>
<!-- Node11&#45;&gt;Node6 -->
<g id="edge21" class="edge">
<title>Node11&#45;&gt;Node6</title>
<path fill="none" stroke="#191970" d="M781.4117,-75.5372C780.6021,-75.6929 779.7976,-75.8472 779,-76 703.9457,-90.3753 615.9037,-106.7109 565.2291,-115.5277"/>
<polygon fill="#191970" stroke="#191970" points="564.5637,-112.0908 555.3042,-117.2399 565.7537,-118.9889 564.5637,-112.0908"/>
</g>
<!-- Node11&#45;&gt;Node7 -->
<g id="edge20" class="edge">
<title>Node11&#45;&gt;Node7</title>
<path fill="none" stroke="#191970" d="M803.5813,-56.2455C787.9515,-47.4928 764.7981,-34.527 746.9815,-24.5496"/>
<polygon fill="#191970" stroke="#191970" points="748.6543,-21.475 738.2191,-19.6427 745.234,-27.5825 748.6543,-21.475"/>
</g>
<!-- Node12&#45;&gt;Node2 -->
<g id="edge23" class="edge">
<title>Node12&#45;&gt;Node2</title>
<path fill="none" stroke="#191970" d="M404.4803,-56.3733C383.2628,-47.3032 351.2724,-33.6279 327.5231,-23.4755"/>
<polygon fill="#191970" stroke="#191970" points="328.7967,-20.2136 318.2258,-19.5011 326.0452,-26.6502 328.7967,-20.2136"/>
</g>
<!-- Node12&#45;&gt;Node6 -->
<g id="edge25" class="edge">
<title>Node12&#45;&gt;Node6</title>
<path fill="none" stroke="#191970" d="M448.9476,-75.6427C465.4403,-84.1994 487.6247,-96.8456 503.7006,-106.769"/>
<polygon fill="#191970" stroke="#191970" points="502.047,-109.8642 512.3707,-112.2455 505.7853,-103.946 502.047,-109.8642"/>
</g>
<!-- Node12&#45;&gt;Node7 -->
<g id="edge24" class="edge">
<title>Node12&#45;&gt;Node7</title>
<path fill="none" stroke="#191970" d="M468.7442,-57.7918C471.8759,-57.1831 474.9877,-56.5804 478,-56 552.0818,-41.7254 638.9469,-25.3753 686.1469,-16.5237"/>
<polygon fill="#191970" stroke="#191970" points="686.9688,-19.9306 696.1528,-14.6481 685.6791,-13.0505 686.9688,-19.9306"/>
</g>
<!-- Node13&#45;&gt;Node2 -->
<g id="edge27" class="edge">
<title>Node13&#45;&gt;Node2</title>
<path fill="none" stroke="#191970" d="M323.2518,-56.2455C318.7565,-48.617 312.3752,-37.7881 306.9175,-28.5267"/>
<polygon fill="#191970" stroke="#191970" points="309.7747,-26.4811 301.6823,-19.6427 303.7439,-30.035 309.7747,-26.4811"/>
</g>
<!-- Node13&#45;&gt;Node6 -->
<g id="edge28" class="edge">
<title>Node13&#45;&gt;Node6</title>
<path fill="none" stroke="#191970" d="M367.3016,-75.5011C401.706,-84.8494 451.7683,-99.1765 486.0574,-109.4561"/>
<polygon fill="#191970" stroke="#191970" points="485.1355,-112.8337 495.7203,-112.3733 487.1586,-106.1324 485.1355,-112.8337"/>
</g>
<!-- Node14&#45;&gt;Node2 -->
<g id="edge30" class="edge">
<title>Node14&#45;&gt;Node2</title>
<path fill="none" stroke="#191970" d="M486.3504,-56.7527C442.5089,-45.9846 370.7853,-28.3683 329.0261,-18.1117"/>
<polygon fill="#191970" stroke="#191970" points="329.6364,-14.6576 319.0901,-15.6713 327.9666,-21.4556 329.6364,-14.6576"/>
</g>
<!-- Node14&#45;&gt;Node6 -->
<g id="edge32" class="edge">
<title>Node14&#45;&gt;Node6</title>
<path fill="none" stroke="#191970" d="M529.2451,-75.6427C530.6665,-82.9199 531.081,-93.155 530.4887,-102.1575"/>
<polygon fill="#191970" stroke="#191970" points="526.9947,-101.8972 529.2668,-112.2455 533.9439,-102.739 526.9947,-101.8972"/>
</g>
<!-- Node14&#45;&gt;Node7 -->
<g id="edge31" class="edge">
<title>Node14&#45;&gt;Node7</title>
<path fill="none" stroke="#191970" d="M557.8655,-56.3733C593.8646,-46.14 650.4858,-30.0446 686.6635,-19.7606"/>
<polygon fill="#191970" stroke="#191970" points="687.6294,-23.1248 696.2913,-17.0238 685.7153,-16.3916 687.6294,-23.1248"/>
</g>
<!-- Node16&#45;&gt;Node6 -->
<g id="edge37" class="edge">
<title>Node16&#45;&gt;Node6</title>
<path fill="none" stroke="#191970" d="M556.2067,-168.2455C550.7822,-160.4564 543.0339,-149.3308 536.4967,-139.9439"/>
<polygon fill="#191970" stroke="#191970" points="539.3025,-137.8485 530.7154,-131.6427 533.5583,-141.849 539.3025,-137.8485"/>
</g>
<!-- Node16&#45;&gt;Node7 -->
<g id="edge36" class="edge">
<title>Node16&#45;&gt;Node7</title>
<path fill="none" stroke="#191970" d="M592.6466,-173.5613C689.6142,-158.7525 992.7066,-110.0567 1020,-76 1025.5588,-69.0637 1025.7878,-62.7464 1020,-56 1002.9693,-36.1488 831.3993,-19.3386 756.1076,-12.8567"/>
<polygon fill="#191970" stroke="#191970" points="755.9875,-9.334 745.7274,-11.9761 755.3958,-16.3089 755.9875,-9.334"/>
</g>
<!-- Node17&#45;&gt;Node2 -->
<g id="edge39" class="edge">
<title>Node17&#45;&gt;Node2</title>
<path fill="none" stroke="#191970" d="M149.2442,-168.4339C150.3205,-145.9569 156.0323,-89.1789 186,-56 206.0316,-33.8219 238.4552,-22.0285 262.9222,-15.9606"/>
<polygon fill="#191970" stroke="#191970" points="263.8886,-19.3302 272.8617,-13.6969 262.3341,-12.5049 263.8886,-19.3302"/>
</g>
<!-- Node17&#45;&gt;Node6 -->
<g id="edge40" class="edge">
<title>Node17&#45;&gt;Node6</title>
<path fill="none" stroke="#191970" d="M178.7303,-170.0016C181.8491,-169.2751 184.9819,-168.5915 188,-168 293.3579,-147.3516 419.0995,-132.7798 482.7308,-126.1043"/>
<polygon fill="#191970" stroke="#191970" points="483.1807,-129.5765 492.7661,-125.0632 482.4583,-122.6139 483.1807,-129.5765"/>
</g>
<!-- Node18&#45;&gt;Node2 -->
<g id="edge42" class="edge">
<title>Node18&#45;&gt;Node2</title>
<path fill="none" stroke="#191970" d="M226.3664,-168.4516C215.8452,-160.1822 202.0909,-147.1795 196,-132 190.4051,-118.0565 182.8237,-77.7874 197,-56 211.6104,-33.5455 240.269,-21.8635 263.0079,-15.9036"/>
<polygon fill="#191970" stroke="#191970" points="264.0403,-19.2561 272.9672,-13.5498 262.4302,-12.4437 264.0403,-19.2561"/>
</g>
<!-- Node18&#45;&gt;Node6 -->
<g id="edge43" class="edge">
<title>Node18&#45;&gt;Node6</title>
<path fill="none" stroke="#191970" d="M283.1335,-169.4948C337.2498,-158.824 429.3977,-140.654 482.6583,-130.1519"/>
<polygon fill="#191970" stroke="#191970" points="483.6352,-133.5267 492.7691,-128.1582 482.2809,-126.659 483.6352,-133.5267"/>
</g>
<!-- Node19&#45;&gt;Node2 -->
<g id="edge45" class="edge">
<title>Node19&#45;&gt;Node2</title>
<path fill="none" stroke="#191970" d="M301.4954,-168.4956C267.1708,-157.497 215.4565,-139.8889 210,-132 190.7853,-104.2199 192.6389,-84.9747 210,-56 221.487,-36.8288 243.9908,-25.1982 263.0973,-18.4288"/>
<polygon fill="#191970" stroke="#191970" points="264.2677,-21.7288 272.7027,-15.3178 262.1108,-15.0694 264.2677,-21.7288"/>
</g>
<!-- Node19&#45;&gt;Node6 -->
<g id="edge46" class="edge">
<title>Node19&#45;&gt;Node6</title>
<path fill="none" stroke="#191970" d="M363.2754,-168.878C395.9107,-159.3594 447.2258,-144.3925 483.0675,-133.9387"/>
<polygon fill="#191970" stroke="#191970" points="484.118,-137.2782 492.738,-131.1181 482.1579,-130.5582 484.118,-137.2782"/>
</g>
<!-- Node20&#45;&gt;Node2 -->
<g id="edge48" class="edge">
<title>Node20&#45;&gt;Node2</title>
<path fill="none" stroke="#191970" d="M398.976,-168.4902C361.4547,-154.7962 298.9045,-125.5634 272,-76 263.6022,-60.5296 272.3099,-41.517 281.5002,-27.878"/>
<polygon fill="#191970" stroke="#191970" points="284.3452,-29.917 287.4344,-19.7825 278.6995,-25.7786 284.3452,-29.917"/>
</g>
<!-- Node20&#45;&gt;Node6 -->
<g id="edge49" class="edge">
<title>Node20&#45;&gt;Node6</title>
<path fill="none" stroke="#191970" d="M445.5477,-168.2455C460.2599,-159.5731 481.9888,-146.7645 498.8505,-136.825"/>
<polygon fill="#191970" stroke="#191970" points="500.8046,-139.736 507.6419,-131.6427 497.2498,-133.7057 500.8046,-139.736"/>
</g>
</g>
</svg>
        <g id="navigator" transform="translate(0 0)" fill="#404254">
                <rect fill="#f2f5e9" fill-opacity="0.5" stroke="#606060" stroke-width=".5" x="0" y="0" width="60" height="60"/>
                <use id="zoomplus" xlink:href="#zoomPlus" x="17" y="9" onmousedown="handleZoom(evt,'in')"/>
                <use id="zoomminus" xlink:href="#zoomMin" x="42" y="9" onmousedown="handleZoom(evt,'out')"/>
                <use id="reset" xlink:href="#resetDef" x="30" y="36" onmousedown="handleReset()"/>
                <g id="arrowUp" xlink:href="#dirArrow" transform="translate(30 24)" onmousedown="handlePan(0,-1)">
                  <use xlink:href="#rim" fill="#404040">
                        <set attributeName="fill" to="#808080" begin="arrowUp.mouseover" end="arrowUp.mouseout"/>
                  </use>
                  <path fill="none" stroke="white" stroke-width="1.5" d="M0,-3.0v7 M-2.5,-0.5L0,-3.0L2.5,-0.5"/>
                </g>
                <g id="arrowRight" xlink:href="#dirArrow" transform="rotate(90) translate(36 -43)" onmousedown="handlePan(1,0)">
                  <use xlink:href="#rim" fill="#404040">
                        <set attributeName="fill" to="#808080" begin="arrowRight.mouseover" end="arrowRight.mouseout"/>
                  </use>
                  <path fill="none" stroke="white" stroke-width="1.5" d="M0,-3.0v7 M-2.5,-0.5L0,-3.0L2.5,-0.5"/>
                </g>
                <g id="arrowDown" xlink:href="#dirArrow" transform="rotate(180) translate(-30 -48)" onmousedown="handlePan(0,1)">
                  <use xlink:href="#rim" fill="#404040">
                        <set attributeName="fill" to="#808080" begin="arrowDown.mouseover" end="arrowDown.mouseout"/>
                  </use>
                  <path fill="none" stroke="white" stroke-width="1.5" d="M0,-3.0v7 M-2.5,-0.5L0,-3.0L2.5,-0.5"/>
                </g>
                <g id="arrowLeft" xlink:href="#dirArrow" transform="rotate(270) translate(-36 17)" onmousedown="handlePan(-1,0)">
                  <use xlink:href="#rim" fill="#404040">
                        <set attributeName="fill" to="#808080" begin="arrowLeft.mouseover" end="arrowLeft.mouseout"/>
                  </use>
                  <path fill="none" stroke="white" stroke-width="1.5" d="M0,-3.0v7 M-2.5,-0.5L0,-3.0L2.5,-0.5"/>
                </g>
        </g>
        <svg viewBox="0 0 15 15" width="100%" height="30px" preserveAspectRatio="xMaxYMin meet">
         <g id="arrow_out" transform="scale(0.3 0.3)">
          <a xlink:href="a00111_org.svg" target="_base">
           <rect id="button" ry="5" rx="5" y="6" x="6" height="38" width="38"
                fill="#f2f5e9" fill-opacity="0.5" stroke="#606060" stroke-width="1.0"/>
           <path id="arrow"
             d="M 11.500037,31.436501 C 11.940474,20.09759 22.043105,11.32322 32.158766,21.979434 L 37.068811,17.246167 C 37.068811,17.246167 37.088388,32 37.088388,32 L 22.160133,31.978069 C 22.160133,31.978069 26.997745,27.140456 26.997745,27.140456 C 18.528582,18.264221 13.291696,25.230495 11.500037,31.436501 z"
             style="fill:#404040;"/>
          </a>
         </g>
        </svg>
</svg>
