<?xml version="1.0" encoding="UTF-8" standalone="no"?>
<!DOCTYPE svg PUBLIC "-//W3C//DTD SVG 1.1//EN"
 "http://www.w3.org/Graphics/SVG/1.1/DTD/svg11.dtd">
<!-- Generated by graphviz version 2.40.1 (20161225.0304)
 -->
<!-- Title: data_scramble_write Pages: 1 -->
<svg width="356pt" height="104pt"
 viewBox="0.00 0.00 356.00 104.00" xmlns="http://www.w3.org/2000/svg" xmlns:xlink="http://www.w3.org/1999/xlink">
<g id="graph0" class="graph" transform="scale(1 1) rotate(0) translate(4 100)">
<title>data_scramble_write</title>
<polygon fill="#ffffff" stroke="transparent" points="-4,4 -4,-100 352,-100 352,4 -4,4"/>
<!-- Node0 -->
<g id="node1" class="node">
<title>Node0</title>
<polygon fill="#bfbfbf" stroke="#000000" points="0,-38.5 0,-57.5 107,-57.5 107,-38.5 0,-38.5"/>
<text text-anchor="middle" x="53.5" y="-45.5" font-family="Helvetica,sans-Serif" font-size="10.00" fill="#000000">data_scramble_write</text>
</g>
<!-- Node1 -->
<g id="node2" class="node">
<title>Node1</title>
<g id="a_node2"><a xlink:href="a00116.xhtml#a3fd0a8f9ba189acd34f864c97f059b0f" target="_top" xlink:title="Fait le mélange ou réarrange les octets selon l&#39;algorithme de protection des données. ">
<polygon fill="#ffffff" stroke="#000000" points="157,-57.5 157,-76.5 228,-76.5 228,-57.5 157,-57.5"/>
<text text-anchor="middle" x="192.5" y="-64.5" font-family="Helvetica,sans-Serif" font-size="10.00" fill="#000000">protect_data</text>
</a>
</g>
</g>
<!-- Node0&#45;&gt;Node1 -->
<g id="edge1" class="edge">
<title>Node0&#45;&gt;Node1</title>
<path fill="none" stroke="#191970" d="M107.241,-55.3459C120.2522,-57.1244 134.0412,-59.0092 146.6508,-60.7328"/>
<polygon fill="#191970" stroke="#191970" points="146.5407,-64.2503 156.9226,-62.1369 147.4888,-57.3148 146.5407,-64.2503"/>
</g>
<!-- Node5 -->
<g id="node6" class="node">
<title>Node5</title>
<g id="a_node6"><a xlink:href="a00116.xhtml#a7a07539cd0f2054ed61e4300f1e9a3d5" target="_top" xlink:title="Écrit des données XORées avec un mot de passe. ">
<polygon fill="#ffffff" stroke="#000000" points="143,-19.5 143,-38.5 242,-38.5 242,-19.5 143,-19.5"/>
<text text-anchor="middle" x="192.5" y="-26.5" font-family="Helvetica,sans-Serif" font-size="10.00" fill="#000000">data_xor_write_tab</text>
</a>
</g>
</g>
<!-- Node0&#45;&gt;Node5 -->
<g id="edge5" class="edge">
<title>Node0&#45;&gt;Node5</title>
<path fill="none" stroke="#191970" d="M107.241,-40.6541C115.6971,-39.4982 124.4817,-38.2975 133.0576,-37.1252"/>
<polygon fill="#191970" stroke="#191970" points="133.563,-40.5888 142.9968,-35.7666 132.6149,-33.6533 133.563,-40.5888"/>
</g>
<!-- Node2 -->
<g id="node3" class="node">
<title>Node2</title>
<g id="a_node3"><a xlink:href="a00122.xhtml#a4e9a217b960dc65fd08dff9f78e317e4" target="_top" xlink:title="Initialise la seed de la suite pseudo aléatoire. ">
<polygon fill="#ffffff" stroke="#000000" points="278,-76.5 278,-95.5 348,-95.5 348,-76.5 278,-76.5"/>
<text text-anchor="middle" x="313" y="-83.5" font-family="Helvetica,sans-Serif" font-size="10.00" fill="#000000">stegx_srand</text>
</a>
</g>
</g>
<!-- Node1&#45;&gt;Node2 -->
<g id="edge2" class="edge">
<title>Node1&#45;&gt;Node2</title>
<path fill="none" stroke="#191970" d="M228.0022,-72.5979C240.3823,-74.5499 254.4496,-76.768 267.527,-78.83"/>
<polygon fill="#191970" stroke="#191970" points="267.3284,-82.3418 277.7515,-80.4421 268.4187,-75.4273 267.3284,-82.3418"/>
</g>
<!-- Node3 -->
<g id="node4" class="node">
<title>Node3</title>
<g id="a_node4"><a xlink:href="a00122.xhtml#a2a891bbe3514201de3cfc5acced104b7" target="_top" xlink:title="Cree un seed a partir d&#39;un mot de passe. ">
<polygon fill="#ffffff" stroke="#000000" points="278,-38.5 278,-57.5 348,-57.5 348,-38.5 278,-38.5"/>
<text text-anchor="middle" x="313" y="-45.5" font-family="Helvetica,sans-Serif" font-size="10.00" fill="#000000">create_seed</text>
</a>
</g>
</g>
<!-- Node1&#45;&gt;Node3 -->
<g id="edge3" class="edge">
<title>Node1&#45;&gt;Node3</title>
<path fill="none" stroke="#191970" d="M228.0022,-61.4021C240.3823,-59.4501 254.4496,-57.232 267.527,-55.17"/>
<polygon fill="#191970" stroke="#191970" points="268.4187,-58.5727 277.7515,-53.5579 267.3284,-51.6582 268.4187,-58.5727"/>
</g>
<!-- Node4 -->
<g id="node5" class="node">
<title>Node4</title>
<g id="a_node5"><a xlink:href="a00122.xhtml#a9966534d45c62d0df7a3d5df48668715" target="_top" xlink:title="Renvoie un entier pseudo&#45;aléatoire. ">
<polygon fill="#ffffff" stroke="#000000" points="280.5,-.5 280.5,-19.5 345.5,-19.5 345.5,-.5 280.5,-.5"/>
<text text-anchor="middle" x="313" y="-7.5" font-family="Helvetica,sans-Serif" font-size="10.00" fill="#000000">stegx_rand</text>
</a>
</g>
</g>
<!-- Node1&#45;&gt;Node4 -->
<g id="edge4" class="edge">
<title>Node1&#45;&gt;Node4</title>
<path fill="none" stroke="#191970" d="M219.2132,-57.4465C226.6674,-54.5922 234.7171,-51.3309 242,-48 246.5682,-45.9107 268.3843,-34.1908 286.6427,-24.312"/>
<polygon fill="#191970" stroke="#191970" points="288.3665,-27.3588 295.4919,-19.5179 285.0321,-21.2039 288.3665,-27.3588"/>
</g>
<!-- Node5&#45;&gt;Node2 -->
<g id="edge6" class="edge">
<title>Node5&#45;&gt;Node2</title>
<path fill="none" stroke="#191970" d="M219.2132,-38.5535C226.6674,-41.4078 234.7171,-44.6691 242,-48 246.5682,-50.0893 268.3843,-61.8092 286.6427,-71.688"/>
<polygon fill="#191970" stroke="#191970" points="285.0321,-74.7961 295.4919,-76.4821 288.3665,-68.6412 285.0321,-74.7961"/>
</g>
<!-- Node5&#45;&gt;Node3 -->
<g id="edge7" class="edge">
<title>Node5&#45;&gt;Node3</title>
<path fill="none" stroke="#191970" d="M242.2077,-36.8377C250.6883,-38.1749 259.4565,-39.5575 267.8118,-40.8749"/>
<polygon fill="#191970" stroke="#191970" points="267.3284,-44.3418 277.7515,-42.4421 268.4187,-37.4273 267.3284,-44.3418"/>
</g>
<!-- Node5&#45;&gt;Node4 -->
<g id="edge8" class="edge">
<title>Node5&#45;&gt;Node4</title>
<path fill="none" stroke="#191970" d="M242.2077,-21.1623C251.5341,-19.6917 261.2084,-18.1663 270.2988,-16.733"/>
<polygon fill="#191970" stroke="#191970" points="270.9315,-20.1765 280.2643,-15.1616 269.8412,-13.262 270.9315,-20.1765"/>
</g>
</g>
</svg>
