<?xml version="1.0" encoding="UTF-8" standalone="no"?>
<!DOCTYPE svg PUBLIC "-//W3C//DTD SVG 1.1//EN"
 "http://www.w3.org/Graphics/SVG/1.1/DTD/svg11.dtd">
<!-- Generated by graphviz version 2.40.1 (20161225.0304)
 -->
<!-- Title: src/rand.c Pages: 1 -->
<svg width="242pt" height="140pt"
 viewBox="0.00 0.00 242.00 140.00" xmlns="http://www.w3.org/2000/svg" xmlns:xlink="http://www.w3.org/1999/xlink">
<g id="graph0" class="graph" transform="scale(1 1) rotate(0) translate(4 136)">
<title>src/rand.c</title>
<polygon fill="#ffffff" stroke="transparent" points="-4,4 -4,-136 238,-136 238,4 -4,4"/>
<!-- Node0 -->
<g id="node1" class="node">
<title>Node0</title>
<polygon fill="#bfbfbf" stroke="#000000" points="78,-112.5 78,-131.5 138,-131.5 138,-112.5 78,-112.5"/>
<text text-anchor="middle" x="108" y="-119.5" font-family="Helvetica,sans-Serif" font-size="10.00" fill="#000000">src/rand.c</text>
</g>
<!-- Node1 -->
<g id="node2" class="node">
<title>Node1</title>
<polygon fill="#ffffff" stroke="#bfbfbf" points="0,-.5 0,-19.5 46,-19.5 46,-.5 0,-.5"/>
<text text-anchor="middle" x="23" y="-7.5" font-family="Helvetica,sans-Serif" font-size="10.00" fill="#000000">stdio.h</text>
</g>
<!-- Node0&#45;&gt;Node1 -->
<g id="edge1" class="edge">
<title>Node0&#45;&gt;Node1</title>
<path fill="none" stroke="#191970" d="M99.6389,-112.2945C91.7975,-103.0963 79.839,-88.8189 70,-76 57.7523,-60.0429 44.5224,-41.3191 35.2291,-27.8986"/>
<polygon fill="#191970" stroke="#191970" points="38.0379,-25.8063 29.4847,-19.5539 32.272,-29.7755 38.0379,-25.8063"/>
</g>
<!-- Node2 -->
<g id="node3" class="node">
<title>Node2</title>
<polygon fill="#ffffff" stroke="#bfbfbf" points="65,-.5 65,-19.5 113,-19.5 113,-.5 65,-.5"/>
<text text-anchor="middle" x="89" y="-7.5" font-family="Helvetica,sans-Serif" font-size="10.00" fill="#000000">stdlib.h</text>
</g>
<!-- Node0&#45;&gt;Node2 -->
<g id="edge2" class="edge">
<title>Node0&#45;&gt;Node2</title>
<path fill="none" stroke="#191970" d="M98.9259,-112.3243C91.4037,-103.5913 81.2769,-89.9994 77,-76 72.2745,-60.5321 76.2074,-42.4235 80.7953,-29.0911"/>
<polygon fill="#191970" stroke="#191970" points="84.1363,-30.1544 84.4623,-19.5646 77.6035,-27.6398 84.1363,-30.1544"/>
</g>
<!-- Node3 -->
<g id="node4" class="node">
<title>Node3</title>
<polygon fill="#ffffff" stroke="#bfbfbf" points="132.5,-.5 132.5,-19.5 181.5,-19.5 181.5,-.5 132.5,-.5"/>
<text text-anchor="middle" x="157" y="-7.5" font-family="Helvetica,sans-Serif" font-size="10.00" fill="#000000">stdint.h</text>
</g>
<!-- Node0&#45;&gt;Node3 -->
<g id="edge3" class="edge">
<title>Node0&#45;&gt;Node3</title>
<path fill="none" stroke="#191970" d="M115.9002,-112.3328C122.8591,-103.3906 132.8225,-89.4829 139,-76 145.8022,-61.1535 150.4901,-43.2153 153.3726,-29.7895"/>
<polygon fill="#191970" stroke="#191970" points="156.8533,-30.2315 155.376,-19.7402 149.9884,-28.8629 156.8533,-30.2315"/>
</g>
<!-- Node4 -->
<g id="node5" class="node">
<title>Node4</title>
<polygon fill="#ffffff" stroke="#bfbfbf" points="186,-56.5 186,-75.5 234,-75.5 234,-56.5 186,-56.5"/>
<text text-anchor="middle" x="210" y="-63.5" font-family="Helvetica,sans-Serif" font-size="10.00" fill="#000000">limits.h</text>
</g>
<!-- Node0&#45;&gt;Node4 -->
<g id="edge4" class="edge">
<title>Node0&#45;&gt;Node4</title>
<path fill="none" stroke="#191970" d="M125.767,-112.2455C141.7095,-103.4928 165.3259,-90.527 183.4989,-80.5496"/>
<polygon fill="#191970" stroke="#191970" points="185.3552,-83.5233 192.4366,-75.6427 181.9863,-77.3873 185.3552,-83.5233"/>
</g>
<!-- Node5 -->
<g id="node6" class="node">
<title>Node5</title>
<g id="a_node6"><a xlink:href="a00125.xhtml" target="_top" xlink:title="Module qui s&#39;occupe de l&#39;aléatoire. ">
<polygon fill="#ffffff" stroke="#000000" points="86,-56.5 86,-75.5 130,-75.5 130,-56.5 86,-56.5"/>
<text text-anchor="middle" x="108" y="-63.5" font-family="Helvetica,sans-Serif" font-size="10.00" fill="#000000">rand.h</text>
</a>
</g>
</g>
<!-- Node0&#45;&gt;Node5 -->
<g id="edge5" class="edge">
<title>Node0&#45;&gt;Node5</title>
<path fill="none" stroke="#191970" d="M108,-112.2455C108,-104.9382 108,-94.6944 108,-85.7046"/>
<polygon fill="#191970" stroke="#191970" points="111.5001,-85.6426 108,-75.6427 104.5001,-85.6427 111.5001,-85.6426"/>
</g>
<!-- Node5&#45;&gt;Node1 -->
<g id="edge6" class="edge">
<title>Node5&#45;&gt;Node1</title>
<path fill="none" stroke="#191970" d="M93.1941,-56.2455C80.2744,-47.7337 61.3069,-35.2375 46.3448,-25.3801"/>
<polygon fill="#191970" stroke="#191970" points="47.9124,-22.2216 37.6362,-19.6427 44.0613,-28.067 47.9124,-22.2216"/>
</g>
<!-- Node5&#45;&gt;Node2 -->
<g id="edge7" class="edge">
<title>Node5&#45;&gt;Node2</title>
<path fill="none" stroke="#191970" d="M104.6905,-56.2455C102.1567,-48.7776 98.5823,-38.2427 95.485,-29.1137"/>
<polygon fill="#191970" stroke="#191970" points="98.7991,-27.9879 92.2716,-19.6427 92.1702,-30.237 98.7991,-27.9879"/>
</g>
<!-- Node5&#45;&gt;Node3 -->
<g id="edge8" class="edge">
<title>Node5&#45;&gt;Node3</title>
<path fill="none" stroke="#191970" d="M116.5351,-56.2455C123.4912,-48.2958 133.4883,-36.8706 141.8051,-27.3656"/>
<polygon fill="#191970" stroke="#191970" points="144.6116,-29.4732 148.5627,-19.6427 139.3436,-24.8637 144.6116,-29.4732"/>
</g>
</g>
</svg>
