<?xml version="1.0" encoding="UTF-8" standalone="no"?>
<!DOCTYPE svg PUBLIC "-//W3C//DTD SVG 1.1//EN"
 "http://www.w3.org/Graphics/SVG/1.1/DTD/svg11.dtd">
<!-- Generated by graphviz version 2.40.1 (20161225.0304)
 -->
<!-- Title: src/protection.c Pages: 1 -->
<!--zoomable 196 -->
<svg id="main" version="1.1" xmlns="http://www.w3.org/2000/svg" xmlns:xlink="http://www.w3.org/1999/xlink" xml:space="preserve" onload="init(evt)">
<style type="text/css"><![CDATA[
.edge:hover path { stroke: red; }
.edge:hover polygon { stroke: red; fill: red; }
]]></style>
<script type="text/javascript"><![CDATA[
var edges = document.getElementsByTagName('g');
if (edges && edges.length) {
  for (var i=0;i<edges.length;i++) {
    if (edges[i].id.substr(0,4)=='edge') {
      edges[i].setAttribute('class','edge');
    }
  }
}
]]></script>
        <defs>
                <circle id="rim" cx="0" cy="0" r="7"/>
                <circle id="rim2" cx="0" cy="0" r="3.5"/>
                <g id="zoomPlus">
                        <use xlink:href="#rim" fill="#404040">
                                <set attributeName="fill" to="#808080" begin="zoomplus.mouseover" end="zoomplus.mouseout"/>
                        </use>
                        <path d="M-4,0h8M0,-4v8" fill="none" stroke="white" stroke-width="1.5" pointer-events="none"/>
                </g>
                <g id="zoomMin">
                        <use xlink:href="#rim" fill="#404040">
                                <set attributeName="fill" to="#808080" begin="zoomminus.mouseover" end="zoomminus.mouseout"/>
                        </use>
                        <path d="M-4,0h8" fill="none" stroke="white" stroke-width="1.5" pointer-events="none"/>
                </g>
                <g id="dirArrow">
                        <path fill="none" stroke="white" stroke-width="1.5" d="M0,-3.0v7 M-2.5,-0.5L0,-3.0L2.5,-0.5"/>
                </g>
               <g id="resetDef">
                       <use xlink:href="#rim2" fill="#404040">
                               <set attributeName="fill" to="#808080" begin="reset.mouseover" end="reset.mouseout"/>
                       </use>
               </g>
        </defs>

<script type="text/javascript">
var viewWidth = 1280;
var viewHeight = 196;
var sectionId = 'dynsection-0';
</script>
<script xlink:href="svgpan.js"/>
<svg id="graph" class="graph">
<g id="viewport">
<title>src/protection.c</title>
<polygon fill="#ffffff" stroke="transparent" points="-4,4 -4,-192 1276.3214,-192 1276.3214,4 -4,4"/>
<!-- Node0 -->
<g id="node1" class="node">
<title>Node0</title>
<polygon fill="#bfbfbf" stroke="#000000" points="891.3214,-168.5 891.3214,-187.5 975.3214,-187.5 975.3214,-168.5 891.3214,-168.5"/>
<text text-anchor="middle" x="933.3214" y="-175.5" font-family="Helvetica,sans-Serif" font-size="10.00" fill="#000000">src/protection.c</text>
</g>
<!-- Node1 -->
<g id="node2" class="node">
<title>Node1</title>
<polygon fill="#ffffff" stroke="#bfbfbf" points="266.3214,-.5 266.3214,-19.5 312.3214,-19.5 312.3214,-.5 266.3214,-.5"/>
<text text-anchor="middle" x="289.3214" y="-7.5" font-family="Helvetica,sans-Serif" font-size="10.00" fill="#000000">stdio.h</text>
</g>
<!-- Node0&#45;&gt;Node1 -->
<g id="edge1" class="edge">
<title>Node0&#45;&gt;Node1</title>
<path fill="none" stroke="#191970" d="M891.3087,-176.7C717.704,-170.8943 62.6406,-144.5487 4.3214,-76 -1.4385,-69.2298 -1.4415,-62.7677 4.3214,-56 20.5091,-36.9901 184.1794,-19.7031 255.923,-12.975"/>
<polygon fill="#191970" stroke="#191970" points="256.5774,-16.4295 266.2126,-12.0235 255.9328,-9.4593 256.5774,-16.4295"/>
</g>
<!-- Node2 -->
<g id="node3" class="node">
<title>Node2</title>
<polygon fill="#ffffff" stroke="#bfbfbf" points="795.3214,-56.5 795.3214,-75.5 843.3214,-75.5 843.3214,-56.5 795.3214,-56.5"/>
<text text-anchor="middle" x="819.3214" y="-63.5" font-family="Helvetica,sans-Serif" font-size="10.00" fill="#000000">stdlib.h</text>
</g>
<!-- Node0&#45;&gt;Node2 -->
<g id="edge2" class="edge">
<title>Node0&#45;&gt;Node2</title>
<path fill="none" stroke="#191970" d="M923.6019,-168.4509C904.2515,-149.4401 860.6895,-106.6423 836.4378,-82.816"/>
<polygon fill="#191970" stroke="#191970" points="838.6027,-80.0364 829.0164,-75.5249 833.6969,-85.0298 838.6027,-80.0364"/>
</g>
<!-- Node3 -->
<g id="node4" class="node">
<title>Node3</title>
<polygon fill="#ffffff" stroke="#bfbfbf" points="1092.3214,-112.5 1092.3214,-131.5 1144.3214,-131.5 1144.3214,-112.5 1092.3214,-112.5"/>
<text text-anchor="middle" x="1118.3214" y="-119.5" font-family="Helvetica,sans-Serif" font-size="10.00" fill="#000000">assert.h</text>
</g>
<!-- Node0&#45;&gt;Node3 -->
<g id="edge3" class="edge">
<title>Node0&#45;&gt;Node3</title>
<path fill="none" stroke="#191970" d="M965.1241,-168.3733C997.7052,-158.5109 1048.2739,-143.2036 1082.3089,-132.9011"/>
<polygon fill="#191970" stroke="#191970" points="1083.7454,-136.1232 1092.3025,-129.876 1081.7174,-129.4234 1083.7454,-136.1232"/>
</g>
<!-- Node4 -->
<g id="node5" class="node">
<title>Node4</title>
<polygon fill="#ffffff" stroke="#bfbfbf" points="1009.8214,-56.5 1009.8214,-75.5 1058.8214,-75.5 1058.8214,-56.5 1009.8214,-56.5"/>
<text text-anchor="middle" x="1034.3214" y="-63.5" font-family="Helvetica,sans-Serif" font-size="10.00" fill="#000000">string.h</text>
</g>
<!-- Node0&#45;&gt;Node4 -->
<g id="edge4" class="edge">
<title>Node0&#45;&gt;Node4</title>
<path fill="none" stroke="#191970" d="M956.3711,-168.3556C972.5061,-160.593 993.5567,-148.2932 1007.3214,-132 1018.6539,-118.5858 1025.7173,-99.7745 1029.7633,-85.6651"/>
<polygon fill="#191970" stroke="#191970" points="1033.1577,-86.5186 1032.2899,-75.9593 1026.3835,-84.7551 1033.1577,-86.5186"/>
</g>
<!-- Node5 -->
<g id="node6" class="node">
<title>Node5</title>
<polygon fill="#ffffff" stroke="#bfbfbf" points="1162.3214,-112.5 1162.3214,-131.5 1206.3214,-131.5 1206.3214,-112.5 1162.3214,-112.5"/>
<text text-anchor="middle" x="1184.3214" y="-119.5" font-family="Helvetica,sans-Serif" font-size="10.00" fill="#000000">time.h</text>
</g>
<!-- Node0&#45;&gt;Node5 -->
<g id="edge5" class="edge">
<title>Node0&#45;&gt;Node5</title>
<path fill="none" stroke="#191970" d="M975.3974,-170.5746C1017.8192,-162.7841 1085.3285,-149.5587 1152.196,-132.1009"/>
<polygon fill="#191970" stroke="#191970" points="1153.2808,-135.4345 1162.054,-129.4946 1151.4915,-128.667 1153.2808,-135.4345"/>
</g>
<!-- Node6 -->
<g id="node7" class="node">
<title>Node6</title>
<polygon fill="#ffffff" stroke="#bfbfbf" points="562.8214,-.5 562.8214,-19.5 611.8214,-19.5 611.8214,-.5 562.8214,-.5"/>
<text text-anchor="middle" x="587.3214" y="-7.5" font-family="Helvetica,sans-Serif" font-size="10.00" fill="#000000">stdint.h</text>
</g>
<!-- Node0&#45;&gt;Node6 -->
<g id="edge6" class="edge">
<title>Node0&#45;&gt;Node6</title>
<path fill="none" stroke="#191970" d="M890.9896,-170.1225C856.8552,-162.8546 808.1466,-150.3846 768.3214,-132 735.0549,-116.6431 648.7695,-54.8751 608.5445,-25.5736"/>
<polygon fill="#191970" stroke="#191970" points="610.391,-22.5881 600.2511,-19.5166 606.2624,-28.241 610.391,-22.5881"/>
</g>
<!-- Node7 -->
<g id="node8" class="node">
<title>Node7</title>
<polygon fill="#ffffff" stroke="#bfbfbf" points="1224.3214,-112.5 1224.3214,-131.5 1272.3214,-131.5 1272.3214,-112.5 1224.3214,-112.5"/>
<text text-anchor="middle" x="1248.3214" y="-119.5" font-family="Helvetica,sans-Serif" font-size="10.00" fill="#000000">limits.h</text>
</g>
<!-- Node0&#45;&gt;Node7 -->
<g id="edge7" class="edge">
<title>Node0&#45;&gt;Node7</title>
<path fill="none" stroke="#191970" d="M975.7058,-172.8688C1029.2302,-165.9976 1124.2607,-152.499 1214.4348,-131.9634"/>
<polygon fill="#191970" stroke="#191970" points="1215.3152,-135.3523 1224.2703,-129.6905 1213.739,-128.532 1215.3152,-135.3523"/>
</g>
<!-- Node8 -->
<g id="node9" class="node">
<title>Node8</title>
<g id="a_node9"><a xlink:href="a00047.xhtml" target="_top" xlink:title="Définitions communes à la partie privée de la bibliothèque. ">
<polygon fill="#ffffff" stroke="#000000" points="358.3214,-112.5 358.3214,-131.5 420.3214,-131.5 420.3214,-112.5 358.3214,-112.5"/>
<text text-anchor="middle" x="389.3214" y="-119.5" font-family="Helvetica,sans-Serif" font-size="10.00" fill="#000000">common.h</text>
</a>
</g>
</g>
<!-- Node0&#45;&gt;Node8 -->
<g id="edge8" class="edge">
<title>Node0&#45;&gt;Node8</title>
<path fill="none" stroke="#191970" d="M891.0873,-173.6524C789.3404,-163.1784 531.6196,-136.6483 430.7262,-126.2623"/>
<polygon fill="#191970" stroke="#191970" points="430.9235,-122.7642 420.6176,-125.2217 430.2066,-129.7274 430.9235,-122.7642"/>
</g>
<!-- Node9 -->
<g id="node10" class="node">
<title>Node9</title>
<g id="a_node10"><a xlink:href="a00008.xhtml" target="_top" xlink:title="Définitions communes à la partie privée et public de la bibliothèque. ">
<polygon fill="#ffffff" stroke="#000000" points="861.3214,-56.5 861.3214,-75.5 953.3214,-75.5 953.3214,-56.5 861.3214,-56.5"/>
<text text-anchor="middle" x="907.3214" y="-63.5" font-family="Helvetica,sans-Serif" font-size="10.00" fill="#000000">stegx_common.h</text>
</a>
</g>
</g>
<!-- Node0&#45;&gt;Node9 -->
<g id="edge35" class="edge">
<title>Node0&#45;&gt;Node9</title>
<path fill="none" stroke="#191970" d="M930.6145,-168.1623C928.0913,-158.8706 924.2831,-144.53 921.3214,-132 917.6588,-116.5042 913.9384,-98.8553 911.2543,-85.7092"/>
<polygon fill="#191970" stroke="#191970" points="914.6779,-84.9808 909.2674,-75.8717 907.8165,-86.3667 914.6779,-84.9808"/>
</g>
<!-- Node16 -->
<g id="node17" class="node">
<title>Node16</title>
<g id="a_node17"><a xlink:href="a00011.xhtml" target="_top" xlink:title="Module de gestion des erreurs. ">
<polygon fill="#ffffff" stroke="#000000" points="1076.8214,-56.5 1076.8214,-75.5 1155.8214,-75.5 1155.8214,-56.5 1076.8214,-56.5"/>
<text text-anchor="middle" x="1116.3214" y="-63.5" font-family="Helvetica,sans-Serif" font-size="10.00" fill="#000000">stegx_errors.h</text>
</a>
</g>
</g>
<!-- Node0&#45;&gt;Node16 -->
<g id="edge36" class="edge">
<title>Node0&#45;&gt;Node16</title>
<path fill="none" stroke="#191970" d="M955.9613,-168.3293C975.3913,-159.7018 1003.8839,-146.26 1027.3214,-132 1052.4598,-116.7051 1079.3333,-96.1236 1096.8927,-82.0343"/>
<polygon fill="#191970" stroke="#191970" points="1099.153,-84.7076 1104.7162,-75.6908 1094.7443,-79.2703 1099.153,-84.7076"/>
</g>
<!-- Node17 -->
<g id="node18" class="node">
<title>Node17</title>
<g id="a_node18"><a xlink:href="a00119.xhtml" target="_top" xlink:title="Algorithme de protection des données avec le mot de passe. ">
<polygon fill="#ffffff" stroke="#000000" points="930.3214,-112.5 930.3214,-131.5 998.3214,-131.5 998.3214,-112.5 930.3214,-112.5"/>
<text text-anchor="middle" x="964.3214" y="-119.5" font-family="Helvetica,sans-Serif" font-size="10.00" fill="#000000">protection.h</text>
</a>
</g>
</g>
<!-- Node0&#45;&gt;Node17 -->
<g id="edge37" class="edge">
<title>Node0&#45;&gt;Node17</title>
<path fill="none" stroke="#191970" d="M938.7212,-168.2455C942.9442,-160.617 948.9387,-149.7881 954.0656,-140.5267"/>
<polygon fill="#191970" stroke="#191970" points="957.2024,-142.0867 958.9835,-131.6427 951.0782,-138.6965 957.2024,-142.0867"/>
</g>
<!-- Node18 -->
<g id="node19" class="node">
<title>Node18</title>
<g id="a_node19"><a xlink:href="a00125.xhtml" target="_top" xlink:title="Module qui s&#39;occupe de l&#39;aléatoire. ">
<polygon fill="#ffffff" stroke="#000000" points="777.3214,-112.5 777.3214,-131.5 821.3214,-131.5 821.3214,-112.5 777.3214,-112.5"/>
<text text-anchor="middle" x="799.3214" y="-119.5" font-family="Helvetica,sans-Serif" font-size="10.00" fill="#000000">rand.h</text>
</a>
</g>
</g>
<!-- Node0&#45;&gt;Node18 -->
<g id="edge42" class="edge">
<title>Node0&#45;&gt;Node18</title>
<path fill="none" stroke="#191970" d="M910.286,-168.3733C888.4511,-159.2482 855.4625,-145.462 831.1257,-135.2913"/>
<polygon fill="#191970" stroke="#191970" points="832.1873,-131.9417 821.611,-131.315 829.4881,-138.4004 832.1873,-131.9417"/>
</g>
<!-- Node8&#45;&gt;Node1 -->
<g id="edge9" class="edge">
<title>Node8&#45;&gt;Node1</title>
<path fill="none" stroke="#191970" d="M358.0696,-121.0614C297.1342,-118.5033 165.975,-109.1821 138.3214,-76 103.8065,-34.5847 201.9181,-18.3796 256.1086,-12.7107"/>
<polygon fill="#191970" stroke="#191970" points="256.697,-16.1699 266.3087,-11.713 256.0155,-9.2031 256.697,-16.1699"/>
</g>
<!-- Node8&#45;&gt;Node6 -->
<g id="edge10" class="edge">
<title>Node8&#45;&gt;Node6</title>
<path fill="none" stroke="#191970" d="M420.7552,-120.8974C480.6389,-118.0656 607.5157,-108.307 634.3214,-76 647.9842,-59.5332 628.8176,-39.3337 611.0109,-25.6509"/>
<polygon fill="#191970" stroke="#191970" points="612.6793,-22.5374 602.5285,-19.5022 608.571,-28.2051 612.6793,-22.5374"/>
</g>
<!-- Node8&#45;&gt;Node9 -->
<g id="edge11" class="edge">
<title>Node8&#45;&gt;Node9</title>
<path fill="none" stroke="#191970" d="M420.5862,-119.771C493.9354,-114.3545 682.9576,-99.3102 851.1276,-76.0725"/>
<polygon fill="#191970" stroke="#191970" points="851.7312,-79.5223 861.1517,-74.674 850.764,-72.5894 851.7312,-79.5223"/>
</g>
<!-- Node10 -->
<g id="node11" class="node">
<title>Node10</title>
<g id="a_node11"><a xlink:href="a00077.xhtml" target="_top" xlink:title="Fichier BMP. ">
<polygon fill="#ffffff" stroke="#000000" points="147.8214,-56.5 147.8214,-75.5 230.8214,-75.5 230.8214,-56.5 147.8214,-56.5"/>
<text text-anchor="middle" x="189.3214" y="-63.5" font-family="Helvetica,sans-Serif" font-size="10.00" fill="#000000">file_type/bmp.h</text>
</a>
</g>
</g>
<!-- Node8&#45;&gt;Node10 -->
<g id="edge12" class="edge">
<title>Node8&#45;&gt;Node10</title>
<path fill="none" stroke="#191970" d="M358.003,-114.5636C322.7494,-105.3323 265.727,-89.4549 227.8114,-78.3767"/>
<polygon fill="#191970" stroke="#191970" points="228.715,-74.9942 218.1337,-75.5299 226.7395,-81.7097 228.715,-74.9942"/>
</g>
<!-- Node11 -->
<g id="node12" class="node">
<title>Node11</title>
<g id="a_node12"><a xlink:href="a00095.xhtml" target="_top" xlink:title="Fichier PNG. ">
<polygon fill="#ffffff" stroke="#000000" points="249.3214,-56.5 249.3214,-75.5 329.3214,-75.5 329.3214,-56.5 249.3214,-56.5"/>
<text text-anchor="middle" x="289.3214" y="-63.5" font-family="Helvetica,sans-Serif" font-size="10.00" fill="#000000">file_type/png.h</text>
</a>
</g>
</g>
<!-- Node8&#45;&gt;Node11 -->
<g id="edge16" class="edge">
<title>Node8&#45;&gt;Node11</title>
<path fill="none" stroke="#191970" d="M366.8888,-112.3733C349.7964,-103.7466 326.6814,-90.954 310.0319,-80.9889"/>
<polygon fill="#191970" stroke="#191970" points="311.4263,-77.7387 301.0704,-75.5011 307.7707,-83.7083 311.4263,-77.7387"/>
</g>
<!-- Node12 -->
<g id="node13" class="node">
<title>Node12</title>
<g id="a_node13"><a xlink:href="a00104.xhtml" target="_top" xlink:title="Fichier WAVE. ">
<polygon fill="#ffffff" stroke="#000000" points="347.8214,-56.5 347.8214,-75.5 430.8214,-75.5 430.8214,-56.5 347.8214,-56.5"/>
<text text-anchor="middle" x="389.3214" y="-63.5" font-family="Helvetica,sans-Serif" font-size="10.00" fill="#000000">file_type/wav.h</text>
</a>
</g>
</g>
<!-- Node8&#45;&gt;Node12 -->
<g id="edge20" class="edge">
<title>Node8&#45;&gt;Node12</title>
<path fill="none" stroke="#191970" d="M384.0546,-112.2455C382.6436,-104.9382 382.2393,-94.6944 382.8419,-85.7046"/>
<polygon fill="#191970" stroke="#191970" points="386.3325,-85.9945 384.0763,-75.6427 379.3846,-85.1421 386.3325,-85.9945"/>
</g>
<!-- Node13 -->
<g id="node14" class="node">
<title>Node13</title>
<g id="a_node14"><a xlink:href="a00089.xhtml" target="_top" xlink:title="Fichier MP3. ">
<polygon fill="#ffffff" stroke="#000000" points="448.8214,-56.5 448.8214,-75.5 531.8214,-75.5 531.8214,-56.5 448.8214,-56.5"/>
<text text-anchor="middle" x="490.3214" y="-63.5" font-family="Helvetica,sans-Serif" font-size="10.00" fill="#000000">file_type/mp3.h</text>
</a>
</g>
</g>
<!-- Node8&#45;&gt;Node13 -->
<g id="edge24" class="edge">
<title>Node8&#45;&gt;Node13</title>
<path fill="none" stroke="#191970" d="M401.6474,-112.2455C415.8728,-103.4125 439.308,-90.2887 458.6037,-80.2758"/>
<polygon fill="#191970" stroke="#191970" points="460.3679,-83.3049 467.685,-75.6427 457.1867,-77.0695 460.3679,-83.3049"/>
</g>
<!-- Node14 -->
<g id="node15" class="node">
<title>Node14</title>
<g id="a_node15"><a xlink:href="a00071.xhtml" target="_top" xlink:title="Fichier AVI. ">
<polygon fill="#ffffff" stroke="#000000" points="13.8214,-56.5 13.8214,-75.5 90.8214,-75.5 90.8214,-56.5 13.8214,-56.5"/>
<text text-anchor="middle" x="52.3214" y="-63.5" font-family="Helvetica,sans-Serif" font-size="10.00" fill="#000000">file_type/avi.h</text>
</a>
</g>
</g>
<!-- Node8&#45;&gt;Node14 -->
<g id="edge28" class="edge">
<title>Node8&#45;&gt;Node14</title>
<path fill="none" stroke="#191970" d="M358.296,-118.0377C306.2611,-110.5932 198.7253,-93.8085 101.0164,-76.8053"/>
<polygon fill="#191970" stroke="#191970" points="101.44,-73.3264 90.9868,-75.0531 100.2352,-80.222 101.44,-73.3264"/>
</g>
<!-- Node15 -->
<g id="node16" class="node">
<title>Node15</title>
<g id="a_node16"><a xlink:href="a00083.xhtml" target="_top" xlink:title="Fichier FLV. ">
<polygon fill="#ffffff" stroke="#000000" points="549.8214,-56.5 549.8214,-75.5 624.8214,-75.5 624.8214,-56.5 549.8214,-56.5"/>
<text text-anchor="middle" x="587.3214" y="-63.5" font-family="Helvetica,sans-Serif" font-size="10.00" fill="#000000">file_type/flv.h</text>
</a>
</g>
</g>
<!-- Node8&#45;&gt;Node15 -->
<g id="edge31" class="edge">
<title>Node8&#45;&gt;Node15</title>
<path fill="none" stroke="#191970" d="M418.1168,-112.3733C450.0457,-102.8139 501.8007,-88.1392 539.7369,-77.8647"/>
<polygon fill="#191970" stroke="#191970" points="540.8056,-81.2017 549.552,-75.2225 538.9859,-74.4424 540.8056,-81.2017"/>
</g>
<!-- Node10&#45;&gt;Node1 -->
<g id="edge13" class="edge">
<title>Node10&#45;&gt;Node1</title>
<path fill="none" stroke="#191970" d="M206.7401,-56.2455C222.37,-47.4928 245.5233,-34.527 263.34,-24.5496"/>
<polygon fill="#191970" stroke="#191970" points="265.0874,-27.5825 272.1024,-19.6427 261.6672,-21.475 265.0874,-27.5825"/>
</g>
<!-- Node10&#45;&gt;Node6 -->
<g id="edge14" class="edge">
<title>Node10&#45;&gt;Node6</title>
<path fill="none" stroke="#191970" d="M231.0321,-57.6035C234.1715,-57.0383 237.2942,-56.497 240.3214,-56 353.9808,-37.3416 489.548,-21.0966 552.2807,-13.919"/>
<polygon fill="#191970" stroke="#191970" points="552.8783,-17.3736 562.4185,-12.7656 552.087,-10.4185 552.8783,-17.3736"/>
</g>
<!-- Node10&#45;&gt;Node8 -->
<g id="edge15" class="edge">
<title>Node10&#45;&gt;Node8</title>
<path fill="none" stroke="#191970" d="M228.4713,-75.5011C263.7104,-84.8494 315.0519,-99.1765 350.2588,-109.4561"/>
<polygon fill="#191970" stroke="#191970" points="349.601,-112.9108 360.1822,-112.3733 351.5753,-106.1949 349.601,-112.9108"/>
</g>
<!-- Node11&#45;&gt;Node1 -->
<g id="edge17" class="edge">
<title>Node11&#45;&gt;Node1</title>
<path fill="none" stroke="#191970" d="M289.3214,-56.2455C289.3214,-48.9382 289.3214,-38.6944 289.3214,-29.7046"/>
<polygon fill="#191970" stroke="#191970" points="292.8215,-29.6426 289.3214,-19.6427 285.8215,-29.6427 292.8215,-29.6426"/>
</g>
<!-- Node11&#45;&gt;Node6 -->
<g id="edge18" class="edge">
<title>Node11&#45;&gt;Node6</title>
<path fill="none" stroke="#191970" d="M329.4288,-57.9272C332.7742,-57.2695 336.1052,-56.6199 339.3214,-56 415.434,-41.3307 504.8605,-24.9547 552.7991,-16.2458"/>
<polygon fill="#191970" stroke="#191970" points="553.4456,-19.6857 562.6599,-14.4562 552.1956,-12.7982 553.4456,-19.6857"/>
</g>
<!-- Node11&#45;&gt;Node8 -->
<g id="edge19" class="edge">
<title>Node11&#45;&gt;Node8</title>
<path fill="none" stroke="#191970" d="M311.7856,-75.6427C328.7367,-84.1994 351.5985,-96.8456 368.206,-106.769"/>
<polygon fill="#191970" stroke="#191970" points="366.8115,-110.0185 377.1696,-112.2455 370.4611,-104.0451 366.8115,-110.0185"/>
</g>
<!-- Node12&#45;&gt;Node1 -->
<g id="edge21" class="edge">
<title>Node12&#45;&gt;Node1</title>
<path fill="none" stroke="#191970" d="M371.9028,-56.2455C356.2729,-47.4928 333.1196,-34.527 315.3029,-24.5496"/>
<polygon fill="#191970" stroke="#191970" points="316.9757,-21.475 306.5405,-19.6427 313.5554,-27.5825 316.9757,-21.475"/>
</g>
<!-- Node12&#45;&gt;Node6 -->
<g id="edge22" class="edge">
<title>Node12&#45;&gt;Node6</title>
<path fill="none" stroke="#191970" d="M423.3588,-56.3733C459.6418,-46.1114 516.7674,-29.9547 553.1149,-19.6746"/>
<polygon fill="#191970" stroke="#191970" points="554.1112,-23.0302 562.7812,-16.9407 552.2061,-16.2944 554.1112,-23.0302"/>
</g>
<!-- Node12&#45;&gt;Node8 -->
<g id="edge23" class="edge">
<title>Node12&#45;&gt;Node8</title>
<path fill="none" stroke="#191970" d="M394.5666,-75.6427C395.9879,-82.9199 396.4024,-93.155 395.8101,-102.1575"/>
<polygon fill="#191970" stroke="#191970" points="392.3161,-101.8972 394.5883,-112.2455 399.2653,-102.739 392.3161,-101.8972"/>
</g>
<!-- Node13&#45;&gt;Node1 -->
<g id="edge25" class="edge">
<title>Node13&#45;&gt;Node1</title>
<path fill="none" stroke="#191970" d="M455.7683,-56.3733C418.3201,-45.9399 359.0002,-29.413 322.2141,-19.1641"/>
<polygon fill="#191970" stroke="#191970" points="323.0454,-15.7625 312.4729,-16.4502 321.1667,-22.5057 323.0454,-15.7625"/>
</g>
<!-- Node13&#45;&gt;Node6 -->
<g id="edge26" class="edge">
<title>Node13&#45;&gt;Node6</title>
<path fill="none" stroke="#191970" d="M507.2175,-56.2455C522.2394,-47.5731 544.4258,-34.7645 561.6425,-24.825"/>
<polygon fill="#191970" stroke="#191970" points="563.7085,-27.6737 570.6189,-19.6427 560.2086,-21.6114 563.7085,-27.6737"/>
</g>
<!-- Node13&#45;&gt;Node8 -->
<g id="edge27" class="edge">
<title>Node13&#45;&gt;Node8</title>
<path fill="none" stroke="#191970" d="M478.4028,-75.5011C464.2323,-84.3278 440.5592,-97.5932 421.0874,-107.6992"/>
<polygon fill="#191970" stroke="#191970" points="419.243,-104.7109 411.926,-112.3733 422.4243,-110.9463 419.243,-104.7109"/>
</g>
<!-- Node14&#45;&gt;Node1 -->
<g id="edge29" class="edge">
<title>Node14&#45;&gt;Node1</title>
<path fill="none" stroke="#191970" d="M90.927,-56.878C136.9492,-46.0036 213.0657,-28.0182 256.4161,-17.7751"/>
<polygon fill="#191970" stroke="#191970" points="257.2509,-21.1743 266.178,-15.4685 255.6412,-14.3619 257.2509,-21.1743"/>
</g>
<!-- Node14&#45;&gt;Node8 -->
<g id="edge30" class="edge">
<title>Node14&#45;&gt;Node8</title>
<path fill="none" stroke="#191970" d="M91.0029,-71.7942C98.8016,-73.2084 106.8507,-74.6904 114.3214,-76 197.2849,-90.5431 294.1796,-105.8864 348.081,-114.6653"/>
<polygon fill="#191970" stroke="#191970" points="347.518,-118.1197 357.9517,-116.279 348.6473,-111.2114 347.518,-118.1197"/>
</g>
<!-- Node15&#45;&gt;Node1 -->
<g id="edge32" class="edge">
<title>Node15&#45;&gt;Node1</title>
<path fill="none" stroke="#191970" d="M549.6873,-57.7112C546.8586,-57.1211 544.0462,-56.5447 541.3214,-56 463.1108,-40.3651 370.8069,-24.0608 322.5394,-15.6982"/>
<polygon fill="#191970" stroke="#191970" points="323.0986,-12.243 312.6486,-13.989 321.9066,-19.1408 323.0986,-12.243"/>
</g>
<!-- Node15&#45;&gt;Node6 -->
<g id="edge33" class="edge">
<title>Node15&#45;&gt;Node6</title>
<path fill="none" stroke="#191970" d="M587.3214,-56.2455C587.3214,-48.9382 587.3214,-38.6944 587.3214,-29.7046"/>
<polygon fill="#191970" stroke="#191970" points="590.8215,-29.6426 587.3214,-19.6427 583.8215,-29.6427 590.8215,-29.6426"/>
</g>
<!-- Node15&#45;&gt;Node8 -->
<g id="edge34" class="edge">
<title>Node15&#45;&gt;Node8</title>
<path fill="none" stroke="#191970" d="M558.8495,-75.5299C525.037,-85.659 468.6727,-101.6101 430.2238,-111.9378"/>
<polygon fill="#191970" stroke="#191970" points="429.1352,-108.6057 420.3743,-114.5636 430.9384,-115.3695 429.1352,-108.6057"/>
</g>
<!-- Node17&#45;&gt;Node4 -->
<g id="edge38" class="edge">
<title>Node17&#45;&gt;Node4</title>
<path fill="none" stroke="#191970" d="M976.5145,-112.2455C986.9535,-103.8943 1002.1869,-91.7076 1014.3954,-81.9408"/>
<polygon fill="#191970" stroke="#191970" points="1016.6458,-84.6227 1022.2681,-75.6427 1012.2729,-79.1566 1016.6458,-84.6227"/>
</g>
<!-- Node17&#45;&gt;Node6 -->
<g id="edge39" class="edge">
<title>Node17&#45;&gt;Node6</title>
<path fill="none" stroke="#191970" d="M967.5741,-112.0338C971.567,-97.6809 976.2276,-71.2446 962.3214,-56 939.5427,-31.0289 710.3387,-16.4482 621.8875,-11.7144"/>
<polygon fill="#191970" stroke="#191970" points="621.9917,-8.2152 611.8219,-11.1859 621.6246,-15.2055 621.9917,-8.2152"/>
</g>
<!-- Node17&#45;&gt;Node9 -->
<g id="edge40" class="edge">
<title>Node17&#45;&gt;Node9</title>
<path fill="none" stroke="#191970" d="M954.3928,-112.2455C946.1376,-104.1352 934.2005,-92.4075 924.4132,-82.7919"/>
<polygon fill="#191970" stroke="#191970" points="926.7226,-80.1542 917.1363,-75.6427 921.8168,-85.1476 926.7226,-80.1542"/>
</g>
<!-- Node17&#45;&gt;Node16 -->
<g id="edge41" class="edge">
<title>Node17&#45;&gt;Node16</title>
<path fill="none" stroke="#191970" d="M990.4512,-112.3733C1015.3982,-103.1822 1053.1806,-89.2624 1080.8421,-79.0713"/>
<polygon fill="#191970" stroke="#191970" points="1082.3592,-82.2424 1090.5327,-75.5011 1079.9392,-75.674 1082.3592,-82.2424"/>
</g>
<!-- Node18&#45;&gt;Node1 -->
<g id="edge43" class="edge">
<title>Node18&#45;&gt;Node1</title>
<path fill="none" stroke="#191970" d="M780.045,-112.4551C749.7829,-97.896 688.9339,-70.3253 634.3214,-56 522.4358,-26.6515 384.9732,-15.4736 322.7442,-11.7019"/>
<polygon fill="#191970" stroke="#191970" points="322.9051,-8.2054 312.719,-11.1196 322.4992,-15.1937 322.9051,-8.2054"/>
</g>
<!-- Node18&#45;&gt;Node2 -->
<g id="edge44" class="edge">
<title>Node18&#45;&gt;Node2</title>
<path fill="none" stroke="#191970" d="M802.8052,-112.2455C805.4723,-104.7776 809.2348,-94.2427 812.4951,-85.1137"/>
<polygon fill="#191970" stroke="#191970" points="815.8103,-86.2373 815.8776,-75.6427 809.2181,-83.8829 815.8103,-86.2373"/>
</g>
<!-- Node18&#45;&gt;Node6 -->
<g id="edge45" class="edge">
<title>Node18&#45;&gt;Node6</title>
<path fill="none" stroke="#191970" d="M793.7349,-112.3836C784.8775,-97.9833 766.2436,-70.9186 743.3214,-56 705.9513,-31.6781 655.3277,-19.8591 622.0199,-14.3726"/>
<polygon fill="#191970" stroke="#191970" points="622.2693,-10.8698 611.8529,-12.806 621.2032,-17.7882 622.2693,-10.8698"/>
</g>
</g>
</svg>
        <g id="navigator" transform="translate(0 0)" fill="#404254">
                <rect fill="#f2f5e9" fill-opacity="0.5" stroke="#606060" stroke-width=".5" x="0" y="0" width="60" height="60"/>
                <use id="zoomplus" xlink:href="#zoomPlus" x="17" y="9" onmousedown="handleZoom(evt,'in')"/>
                <use id="zoomminus" xlink:href="#zoomMin" x="42" y="9" onmousedown="handleZoom(evt,'out')"/>
                <use id="reset" xlink:href="#resetDef" x="30" y="36" onmousedown="handleReset()"/>
                <g id="arrowUp" xlink:href="#dirArrow" transform="translate(30 24)" onmousedown="handlePan(0,-1)">
                  <use xlink:href="#rim" fill="#404040">
                        <set attributeName="fill" to="#808080" begin="arrowUp.mouseover" end="arrowUp.mouseout"/>
                  </use>
                  <path fill="none" stroke="white" stroke-width="1.5" d="M0,-3.0v7 M-2.5,-0.5L0,-3.0L2.5,-0.5"/>
                </g>
                <g id="arrowRight" xlink:href="#dirArrow" transform="rotate(90) translate(36 -43)" onmousedown="handlePan(1,0)">
                  <use xlink:href="#rim" fill="#404040">
                        <set attributeName="fill" to="#808080" begin="arrowRight.mouseover" end="arrowRight.mouseout"/>
                  </use>
                  <path fill="none" stroke="white" stroke-width="1.5" d="M0,-3.0v7 M-2.5,-0.5L0,-3.0L2.5,-0.5"/>
                </g>
                <g id="arrowDown" xlink:href="#dirArrow" transform="rotate(180) translate(-30 -48)" onmousedown="handlePan(0,1)">
                  <use xlink:href="#rim" fill="#404040">
                        <set attributeName="fill" to="#808080" begin="arrowDown.mouseover" end="arrowDown.mouseout"/>
                  </use>
                  <path fill="none" stroke="white" stroke-width="1.5" d="M0,-3.0v7 M-2.5,-0.5L0,-3.0L2.5,-0.5"/>
                </g>
                <g id="arrowLeft" xlink:href="#dirArrow" transform="rotate(270) translate(-36 17)" onmousedown="handlePan(-1,0)">
                  <use xlink:href="#rim" fill="#404040">
                        <set attributeName="fill" to="#808080" begin="arrowLeft.mouseover" end="arrowLeft.mouseout"/>
                  </use>
                  <path fill="none" stroke="white" stroke-width="1.5" d="M0,-3.0v7 M-2.5,-0.5L0,-3.0L2.5,-0.5"/>
                </g>
        </g>
        <svg viewBox="0 0 15 15" width="100%" height="30px" preserveAspectRatio="xMaxYMin meet">
         <g id="arrow_out" transform="scale(0.3 0.3)">
          <a xlink:href="a00117_org.svg" target="_base">
           <rect id="button" ry="5" rx="5" y="6" x="6" height="38" width="38"
                fill="#f2f5e9" fill-opacity="0.5" stroke="#606060" stroke-width="1.0"/>
           <path id="arrow"
             d="M 11.500037,31.436501 C 11.940474,20.09759 22.043105,11.32322 32.158766,21.979434 L 37.068811,17.246167 C 37.068811,17.246167 37.088388,32 37.088388,32 L 22.160133,31.978069 C 22.160133,31.978069 26.997745,27.140456 26.997745,27.140456 C 18.528582,18.264221 13.291696,25.230495 11.500037,31.436501 z"
             style="fill:#404040;"/>
          </a>
         </g>
        </svg>
</svg>
