<?xml version="1.0" encoding="UTF-8" standalone="no"?>
<!DOCTYPE svg PUBLIC "-//W3C//DTD SVG 1.1//EN"
 "http://www.w3.org/Graphics/SVG/1.1/DTD/svg11.dtd">
<!-- Generated by graphviz version 2.40.1 (20161225.0304)
 -->
<!-- Title: src/init.c Pages: 1 -->
<svg width="883pt" height="196pt"
 viewBox="0.00 0.00 882.72 196.00" xmlns="http://www.w3.org/2000/svg" xmlns:xlink="http://www.w3.org/1999/xlink">
<g id="graph0" class="graph" transform="scale(1 1) rotate(0) translate(4 192)">
<title>src/init.c</title>
<polygon fill="#ffffff" stroke="transparent" points="-4,4 -4,-192 878.7189,-192 878.7189,4 -4,4"/>
<!-- Node0 -->
<g id="node1" class="node">
<title>Node0</title>
<polygon fill="#bfbfbf" stroke="#000000" points="510.2189,-168.5 510.2189,-187.5 564.2189,-187.5 564.2189,-168.5 510.2189,-168.5"/>
<text text-anchor="middle" x="537.2189" y="-175.5" font-family="Helvetica,sans-Serif" font-size="10.00" fill="#000000">src/init.c</text>
</g>
<!-- Node1 -->
<g id="node2" class="node">
<title>Node1</title>
<polygon fill="#ffffff" stroke="#bfbfbf" points="184.2189,-.5 184.2189,-19.5 230.2189,-19.5 230.2189,-.5 184.2189,-.5"/>
<text text-anchor="middle" x="207.2189" y="-7.5" font-family="Helvetica,sans-Serif" font-size="10.00" fill="#000000">stdio.h</text>
</g>
<!-- Node0&#45;&gt;Node1 -->
<g id="edge1" class="edge">
<title>Node0&#45;&gt;Node1</title>
<path fill="none" stroke="#191970" d="M510.1407,-177.1692C410.936,-173.5045 69.7297,-155.2364 4.2189,-76 -1.4451,-69.1493 -1.3287,-62.9453 4.2189,-56 25.1071,-29.8489 122.0528,-17.4584 174.051,-12.6067"/>
<polygon fill="#191970" stroke="#191970" points="174.4687,-16.0834 184.1184,-11.7092 173.8471,-9.111 174.4687,-16.0834"/>
</g>
<!-- Node2 -->
<g id="node3" class="node">
<title>Node2</title>
<polygon fill="#ffffff" stroke="#bfbfbf" points="445.2189,-112.5 445.2189,-131.5 493.2189,-131.5 493.2189,-112.5 445.2189,-112.5"/>
<text text-anchor="middle" x="469.2189" y="-119.5" font-family="Helvetica,sans-Serif" font-size="10.00" fill="#000000">stdlib.h</text>
</g>
<!-- Node0&#45;&gt;Node2 -->
<g id="edge2" class="edge">
<title>Node0&#45;&gt;Node2</title>
<path fill="none" stroke="#191970" d="M525.3742,-168.2455C515.3309,-159.9746 500.7194,-147.9416 488.9185,-138.2232"/>
<polygon fill="#191970" stroke="#191970" points="490.8722,-135.298 480.9278,-131.6427 486.4222,-140.7015 490.8722,-135.298"/>
</g>
<!-- Node3 -->
<g id="node4" class="node">
<title>Node3</title>
<polygon fill="#ffffff" stroke="#bfbfbf" points="511.2189,-112.5 511.2189,-131.5 563.2189,-131.5 563.2189,-112.5 511.2189,-112.5"/>
<text text-anchor="middle" x="537.2189" y="-119.5" font-family="Helvetica,sans-Serif" font-size="10.00" fill="#000000">assert.h</text>
</g>
<!-- Node0&#45;&gt;Node3 -->
<g id="edge3" class="edge">
<title>Node0&#45;&gt;Node3</title>
<path fill="none" stroke="#191970" d="M537.2189,-168.2455C537.2189,-160.9382 537.2189,-150.6944 537.2189,-141.7046"/>
<polygon fill="#191970" stroke="#191970" points="540.719,-141.6426 537.2189,-131.6427 533.719,-141.6427 540.719,-141.6426"/>
</g>
<!-- Node4 -->
<g id="node5" class="node">
<title>Node4</title>
<polygon fill="#ffffff" stroke="#bfbfbf" points="581.7189,-112.5 581.7189,-131.5 630.7189,-131.5 630.7189,-112.5 581.7189,-112.5"/>
<text text-anchor="middle" x="606.2189" y="-119.5" font-family="Helvetica,sans-Serif" font-size="10.00" fill="#000000">string.h</text>
</g>
<!-- Node0&#45;&gt;Node4 -->
<g id="edge4" class="edge">
<title>Node0&#45;&gt;Node4</title>
<path fill="none" stroke="#191970" d="M549.2378,-168.2455C559.4287,-159.9746 574.2551,-147.9416 586.2296,-138.2232"/>
<polygon fill="#191970" stroke="#191970" points="588.7787,-140.662 594.3377,-131.6427 584.3675,-135.2268 588.7787,-140.662"/>
</g>
<!-- Node5 -->
<g id="node6" class="node">
<title>Node5</title>
<polygon fill="#ffffff" stroke="#bfbfbf" points="649.2189,-112.5 649.2189,-131.5 709.2189,-131.5 709.2189,-112.5 649.2189,-112.5"/>
<text text-anchor="middle" x="679.2189" y="-119.5" font-family="Helvetica,sans-Serif" font-size="10.00" fill="#000000">sys/stat.h</text>
</g>
<!-- Node0&#45;&gt;Node5 -->
<g id="edge5" class="edge">
<title>Node0&#45;&gt;Node5</title>
<path fill="none" stroke="#191970" d="M561.6295,-168.3733C584.8331,-159.2226 619.9227,-145.3844 645.7331,-135.2057"/>
<polygon fill="#191970" stroke="#191970" points="647.1081,-138.4258 655.1267,-131.5011 644.5399,-131.9139 647.1081,-138.4258"/>
</g>
<!-- Node6 -->
<g id="node7" class="node">
<title>Node6</title>
<polygon fill="#ffffff" stroke="#bfbfbf" points="727.2189,-112.5 727.2189,-131.5 777.2189,-131.5 777.2189,-112.5 727.2189,-112.5"/>
<text text-anchor="middle" x="752.2189" y="-119.5" font-family="Helvetica,sans-Serif" font-size="10.00" fill="#000000">libgen.h</text>
</g>
<!-- Node0&#45;&gt;Node6 -->
<g id="edge6" class="edge">
<title>Node0&#45;&gt;Node6</title>
<path fill="none" stroke="#191970" d="M564.2867,-171.4539C597.8755,-163.2586 657.1323,-148.5658 716.9981,-132.2674"/>
<polygon fill="#191970" stroke="#191970" points="718.2759,-135.5465 726.9976,-129.5313 716.4284,-128.7947 718.2759,-135.5465"/>
</g>
<!-- Node7 -->
<g id="node8" class="node">
<title>Node7</title>
<g id="a_node8"><a xlink:href="a00047.xhtml" target="_top" xlink:title="Définitions communes à la partie privée de la bibliothèque. ">
<polygon fill="#ffffff" stroke="#000000" points="327.2189,-112.5 327.2189,-131.5 389.2189,-131.5 389.2189,-112.5 327.2189,-112.5"/>
<text text-anchor="middle" x="358.2189" y="-119.5" font-family="Helvetica,sans-Serif" font-size="10.00" fill="#000000">common.h</text>
</a>
</g>
</g>
<!-- Node0&#45;&gt;Node7 -->
<g id="edge7" class="edge">
<title>Node0&#45;&gt;Node7</title>
<path fill="none" stroke="#191970" d="M510.0326,-169.4948C480.3015,-160.1935 432.3577,-145.1943 398.309,-134.5422"/>
<polygon fill="#191970" stroke="#191970" points="399.2519,-131.1699 388.663,-131.5244 397.1618,-137.8506 399.2519,-131.1699"/>
</g>
<!-- Node9 -->
<g id="node10" class="node">
<title>Node9</title>
<g id="a_node10"><a xlink:href="a00008.xhtml" target="_top" xlink:title="Définitions communes à la partie privée et public de la bibliothèque. ">
<polygon fill="#ffffff" stroke="#000000" points="650.2189,-56.5 650.2189,-75.5 742.2189,-75.5 742.2189,-56.5 650.2189,-56.5"/>
<text text-anchor="middle" x="696.2189" y="-63.5" font-family="Helvetica,sans-Serif" font-size="10.00" fill="#000000">stegx_common.h</text>
</a>
</g>
</g>
<!-- Node0&#45;&gt;Node9 -->
<g id="edge34" class="edge">
<title>Node0&#45;&gt;Node9</title>
<path fill="none" stroke="#191970" d="M510.0186,-171.805C472.4336,-162.0146 411.857,-141.0503 436.2189,-112 442.7596,-104.2005 565.4207,-85.0751 639.8952,-74.0982"/>
<polygon fill="#191970" stroke="#191970" points="640.6812,-77.5204 650.067,-72.6054 639.6647,-70.5946 640.6812,-77.5204"/>
</g>
<!-- Node16 -->
<g id="node17" class="node">
<title>Node16</title>
<g id="a_node17"><a xlink:href="a00011.xhtml" target="_top" xlink:title="Module de gestion des erreurs. ">
<polygon fill="#ffffff" stroke="#000000" points="795.7189,-112.5 795.7189,-131.5 874.7189,-131.5 874.7189,-112.5 795.7189,-112.5"/>
<text text-anchor="middle" x="835.2189" y="-119.5" font-family="Helvetica,sans-Serif" font-size="10.00" fill="#000000">stegx_errors.h</text>
</a>
</g>
</g>
<!-- Node0&#45;&gt;Node16 -->
<g id="edge35" class="edge">
<title>Node0&#45;&gt;Node16</title>
<path fill="none" stroke="#191970" d="M564.5158,-173.129C608.6661,-165.2135 698.7286,-148.9136 785.6216,-132.0881"/>
<polygon fill="#191970" stroke="#191970" points="786.5015,-135.4827 795.6511,-130.1409 785.1673,-128.6111 786.5015,-135.4827"/>
</g>
<!-- Node7&#45;&gt;Node1 -->
<g id="edge8" class="edge">
<title>Node7&#45;&gt;Node1</title>
<path fill="none" stroke="#191970" d="M327.0199,-120.1637C245.8361,-115.0691 32.8556,-99.562 12.2189,-76 6.3623,-69.3132 6.702,-62.9697 12.2189,-56 32.0208,-30.9834 123.5796,-18.1988 173.8837,-12.9617"/>
<polygon fill="#191970" stroke="#191970" points="174.3482,-16.4329 183.9512,-11.9571 173.653,-9.4675 174.3482,-16.4329"/>
</g>
<!-- Node8 -->
<g id="node9" class="node">
<title>Node8</title>
<polygon fill="#ffffff" stroke="#bfbfbf" points="381.7189,-.5 381.7189,-19.5 430.7189,-19.5 430.7189,-.5 381.7189,-.5"/>
<text text-anchor="middle" x="406.2189" y="-7.5" font-family="Helvetica,sans-Serif" font-size="10.00" fill="#000000">stdint.h</text>
</g>
<!-- Node7&#45;&gt;Node8 -->
<g id="edge9" class="edge">
<title>Node7&#45;&gt;Node8</title>
<path fill="none" stroke="#191970" d="M389.6557,-114.8435C394.2002,-113.8586 398.8251,-112.8833 403.2189,-112 447.4919,-103.1 574.253,-110.6452 603.2189,-76 608.9204,-69.1806 608.7436,-62.9634 603.2189,-56 583.3487,-30.9556 492.1136,-18.2683 441.0626,-13.0282"/>
<polygon fill="#191970" stroke="#191970" points="441.1133,-9.5165 430.8189,-12.0213 440.4285,-16.4829 441.1133,-9.5165"/>
</g>
<!-- Node7&#45;&gt;Node9 -->
<g id="edge10" class="edge">
<title>Node7&#45;&gt;Node9</title>
<path fill="none" stroke="#191970" d="M389.6362,-114.7436C394.1836,-113.7734 398.8144,-112.8287 403.2189,-112 506.1962,-92.6242 532.76,-92.6135 636.2189,-76 637.4799,-75.7975 638.7556,-75.5918 640.0419,-75.3837"/>
<polygon fill="#191970" stroke="#191970" points="640.7339,-78.8172 650.0401,-73.7531 639.6071,-71.9085 640.7339,-78.8172"/>
</g>
<!-- Node10 -->
<g id="node11" class="node">
<title>Node10</title>
<g id="a_node11"><a xlink:href="a00077.xhtml" target="_top" xlink:title="Fichier BMP. ">
<polygon fill="#ffffff" stroke="#000000" points="510.7189,-56.5 510.7189,-75.5 593.7189,-75.5 593.7189,-56.5 510.7189,-56.5"/>
<text text-anchor="middle" x="552.2189" y="-63.5" font-family="Helvetica,sans-Serif" font-size="10.00" fill="#000000">file_type/bmp.h</text>
</a>
</g>
</g>
<!-- Node7&#45;&gt;Node10 -->
<g id="edge11" class="edge">
<title>Node7&#45;&gt;Node10</title>
<path fill="none" stroke="#191970" d="M386.3266,-112.3733C417.1595,-102.9404 466.9416,-88.5265 503.9987,-78.2747"/>
<polygon fill="#191970" stroke="#191970" points="505.3726,-81.5269 514.087,-75.5011 503.5169,-74.7774 505.3726,-81.5269"/>
</g>
<!-- Node11 -->
<g id="node12" class="node">
<title>Node11</title>
<g id="a_node12"><a xlink:href="a00095.xhtml" target="_top" xlink:title="Fichier PNG. ">
<polygon fill="#ffffff" stroke="#000000" points="117.2189,-56.5 117.2189,-75.5 197.2189,-75.5 197.2189,-56.5 117.2189,-56.5"/>
<text text-anchor="middle" x="157.2189" y="-63.5" font-family="Helvetica,sans-Serif" font-size="10.00" fill="#000000">file_type/png.h</text>
</a>
</g>
</g>
<!-- Node7&#45;&gt;Node11 -->
<g id="edge15" class="edge">
<title>Node7&#45;&gt;Node11</title>
<path fill="none" stroke="#191970" d="M327.2104,-114.679C291.8863,-105.4802 234.3913,-89.5535 196.1182,-78.4314"/>
<polygon fill="#191970" stroke="#191970" points="196.9283,-75.0217 186.3478,-75.573 194.9627,-81.7401 196.9283,-75.0217"/>
</g>
<!-- Node12 -->
<g id="node13" class="node">
<title>Node12</title>
<g id="a_node13"><a xlink:href="a00104.xhtml" target="_top" xlink:title="Fichier WAVE. ">
<polygon fill="#ffffff" stroke="#000000" points="215.7189,-56.5 215.7189,-75.5 298.7189,-75.5 298.7189,-56.5 215.7189,-56.5"/>
<text text-anchor="middle" x="257.2189" y="-63.5" font-family="Helvetica,sans-Serif" font-size="10.00" fill="#000000">file_type/wav.h</text>
</a>
</g>
</g>
<!-- Node7&#45;&gt;Node12 -->
<g id="edge19" class="edge">
<title>Node7&#45;&gt;Node12</title>
<path fill="none" stroke="#191970" d="M335.6143,-112.3733C318.2067,-103.666 294.5876,-90.7145 277.7269,-80.7102"/>
<polygon fill="#191970" stroke="#191970" points="279.503,-77.694 269.1375,-75.5011 275.8731,-83.6793 279.503,-77.694"/>
</g>
<!-- Node13 -->
<g id="node14" class="node">
<title>Node13</title>
<g id="a_node14"><a xlink:href="a00089.xhtml" target="_top" xlink:title="Fichier MP3. ">
<polygon fill="#ffffff" stroke="#000000" points="316.7189,-56.5 316.7189,-75.5 399.7189,-75.5 399.7189,-56.5 316.7189,-56.5"/>
<text text-anchor="middle" x="358.2189" y="-63.5" font-family="Helvetica,sans-Serif" font-size="10.00" fill="#000000">file_type/mp3.h</text>
</a>
</g>
</g>
<!-- Node7&#45;&gt;Node13 -->
<g id="edge23" class="edge">
<title>Node7&#45;&gt;Node13</title>
<path fill="none" stroke="#191970" d="M352.952,-112.2455C351.541,-104.9382 351.1368,-94.6944 351.7394,-85.7046"/>
<polygon fill="#191970" stroke="#191970" points="355.23,-85.9945 352.9737,-75.6427 348.2821,-85.1421 355.23,-85.9945"/>
</g>
<!-- Node14 -->
<g id="node15" class="node">
<title>Node14</title>
<g id="a_node15"><a xlink:href="a00071.xhtml" target="_top" xlink:title="Fichier AVI. ">
<polygon fill="#ffffff" stroke="#000000" points="21.7189,-56.5 21.7189,-75.5 98.7189,-75.5 98.7189,-56.5 21.7189,-56.5"/>
<text text-anchor="middle" x="60.2189" y="-63.5" font-family="Helvetica,sans-Serif" font-size="10.00" fill="#000000">file_type/avi.h</text>
</a>
</g>
</g>
<!-- Node7&#45;&gt;Node14 -->
<g id="edge27" class="edge">
<title>Node7&#45;&gt;Node14</title>
<path fill="none" stroke="#191970" d="M326.8613,-117.4318C279.7279,-109.698 188.3531,-93.3542 106.6089,-77.4396"/>
<polygon fill="#191970" stroke="#191970" points="107.1771,-73.9845 96.6914,-75.5016 105.8345,-80.8546 107.1771,-73.9845"/>
</g>
<!-- Node15 -->
<g id="node16" class="node">
<title>Node15</title>
<g id="a_node16"><a xlink:href="a00083.xhtml" target="_top" xlink:title="Fichier FLV. ">
<polygon fill="#ffffff" stroke="#000000" points="417.7189,-56.5 417.7189,-75.5 492.7189,-75.5 492.7189,-56.5 417.7189,-56.5"/>
<text text-anchor="middle" x="455.2189" y="-63.5" font-family="Helvetica,sans-Serif" font-size="10.00" fill="#000000">file_type/flv.h</text>
</a>
</g>
</g>
<!-- Node7&#45;&gt;Node15 -->
<g id="edge30" class="edge">
<title>Node7&#45;&gt;Node15</title>
<path fill="none" stroke="#191970" d="M369.8481,-112.2455C383.3808,-103.4527 405.736,-90.4079 424.2672,-80.4125"/>
<polygon fill="#191970" stroke="#191970" points="426.073,-83.4167 433.2713,-75.6427 422.7961,-77.2311 426.073,-83.4167"/>
</g>
<!-- Node10&#45;&gt;Node1 -->
<g id="edge12" class="edge">
<title>Node10&#45;&gt;Node1</title>
<path fill="none" stroke="#191970" d="M510.5022,-57.5182C507.7014,-56.9915 504.9207,-56.4806 502.2189,-56 407.4887,-39.1492 295.0347,-22.5501 240.3657,-14.6972"/>
<polygon fill="#191970" stroke="#191970" points="240.6198,-11.198 230.2248,-13.2458 239.628,-18.1274 240.6198,-11.198"/>
</g>
<!-- Node10&#45;&gt;Node7 -->
<g id="edge14" class="edge">
<title>Node10&#45;&gt;Node7</title>
<path fill="none" stroke="#191970" d="M524.3912,-75.541C491.551,-85.5933 436.9423,-101.3705 399.2699,-111.7001"/>
<polygon fill="#191970" stroke="#191970" points="398.3337,-108.3275 389.6038,-114.3309 400.172,-115.0819 398.3337,-108.3275"/>
</g>
<!-- Node10&#45;&gt;Node8 -->
<g id="edge13" class="edge">
<title>Node10&#45;&gt;Node8</title>
<path fill="none" stroke="#191970" d="M527.1206,-56.3733C503.2634,-47.2226 467.1854,-33.3844 440.6479,-23.2057"/>
<polygon fill="#191970" stroke="#191970" points="441.5799,-19.8145 430.9897,-19.5011 439.073,-26.3503 441.5799,-19.8145"/>
</g>
<!-- Node11&#45;&gt;Node1 -->
<g id="edge16" class="edge">
<title>Node11&#45;&gt;Node1</title>
<path fill="none" stroke="#191970" d="M165.9282,-56.2455C173.0262,-48.2958 183.2273,-36.8706 191.7139,-27.3656"/>
<polygon fill="#191970" stroke="#191970" points="194.5599,-29.4331 198.6093,-19.6427 189.3384,-24.771 194.5599,-29.4331"/>
</g>
<!-- Node11&#45;&gt;Node7 -->
<g id="edge18" class="edge">
<title>Node11&#45;&gt;Node7</title>
<path fill="none" stroke="#191970" d="M196.5384,-75.5011C231.9444,-84.8494 283.5418,-99.1765 318.9323,-109.4561"/>
<polygon fill="#191970" stroke="#191970" points="318.3273,-112.9257 328.9078,-112.3733 320.2921,-106.2071 318.3273,-112.9257"/>
</g>
<!-- Node11&#45;&gt;Node8 -->
<g id="edge17" class="edge">
<title>Node11&#45;&gt;Node8</title>
<path fill="none" stroke="#191970" d="M197.225,-57.0026C245.4348,-46.1603 325.6488,-28.1202 371.4093,-17.8287"/>
<polygon fill="#191970" stroke="#191970" points="372.4559,-21.1808 381.4442,-15.5718 370.9199,-14.3514 372.4559,-21.1808"/>
</g>
<!-- Node12&#45;&gt;Node1 -->
<g id="edge20" class="edge">
<title>Node12&#45;&gt;Node1</title>
<path fill="none" stroke="#191970" d="M248.5095,-56.2455C241.4116,-48.2958 231.2104,-36.8706 222.7239,-27.3656"/>
<polygon fill="#191970" stroke="#191970" points="225.0994,-24.771 215.8284,-19.6427 219.8778,-29.4331 225.0994,-24.771"/>
</g>
<!-- Node12&#45;&gt;Node7 -->
<g id="edge22" class="edge">
<title>Node12&#45;&gt;Node7</title>
<path fill="none" stroke="#191970" d="M279.8553,-75.6427C297.119,-84.2794 320.4789,-97.0824 337.3004,-107.0465"/>
<polygon fill="#191970" stroke="#191970" points="335.5252,-110.0632 345.8929,-112.2455 339.1491,-104.0741 335.5252,-110.0632"/>
</g>
<!-- Node12&#45;&gt;Node8 -->
<g id="edge21" class="edge">
<title>Node12&#45;&gt;Node8</title>
<path fill="none" stroke="#191970" d="M282.8329,-56.3733C307.4358,-47.1265 344.7737,-33.0935 371.9317,-22.8865"/>
<polygon fill="#191970" stroke="#191970" points="373.3049,-26.1095 381.4342,-19.315 370.8421,-19.557 373.3049,-26.1095"/>
</g>
<!-- Node13&#45;&gt;Node1 -->
<g id="edge24" class="edge">
<title>Node13&#45;&gt;Node1</title>
<path fill="none" stroke="#191970" d="M332.2611,-56.3733C306.7271,-46.9037 267.6578,-32.4144 239.995,-22.1554"/>
<polygon fill="#191970" stroke="#191970" points="240.9588,-18.7799 230.3658,-18.5843 238.5247,-25.3431 240.9588,-18.7799"/>
</g>
<!-- Node13&#45;&gt;Node7 -->
<g id="edge26" class="edge">
<title>Node13&#45;&gt;Node7</title>
<path fill="none" stroke="#191970" d="M363.464,-75.6427C364.8853,-82.9199 365.2998,-93.155 364.7075,-102.1575"/>
<polygon fill="#191970" stroke="#191970" points="361.2136,-101.8972 363.4857,-112.2455 368.1628,-102.739 361.2136,-101.8972"/>
</g>
<!-- Node13&#45;&gt;Node8 -->
<g id="edge25" class="edge">
<title>Node13&#45;&gt;Node8</title>
<path fill="none" stroke="#191970" d="M366.5798,-56.2455C373.3939,-48.2958 383.187,-36.8706 391.3341,-27.3656"/>
<polygon fill="#191970" stroke="#191970" points="394.1032,-29.513 397.9537,-19.6427 388.7884,-24.9575 394.1032,-29.513"/>
</g>
<!-- Node14&#45;&gt;Node1 -->
<g id="edge28" class="edge">
<title>Node14&#45;&gt;Node1</title>
<path fill="none" stroke="#191970" d="M85.4891,-56.3733C110.2004,-46.9594 147.934,-32.5847 174.8346,-22.3369"/>
<polygon fill="#191970" stroke="#191970" points="176.1121,-25.5956 184.211,-18.7649 173.6201,-19.0542 176.1121,-25.5956"/>
</g>
<!-- Node14&#45;&gt;Node7 -->
<g id="edge29" class="edge">
<title>Node14&#45;&gt;Node7</title>
<path fill="none" stroke="#191970" d="M98.9709,-72.3496C105.1333,-73.5858 111.3717,-74.8531 117.2189,-76 187.4207,-89.7693 268.9588,-104.5452 317.0422,-113.5319"/>
<polygon fill="#191970" stroke="#191970" points="316.5944,-117.0089 327.0685,-115.4139 317.8859,-110.129 316.5944,-117.0089"/>
</g>
<!-- Node15&#45;&gt;Node1 -->
<g id="edge31" class="edge">
<title>Node15&#45;&gt;Node1</title>
<path fill="none" stroke="#191970" d="M417.553,-57.4948C369.2803,-46.5945 286.3531,-27.869 240.3673,-17.4851"/>
<polygon fill="#191970" stroke="#191970" points="240.8528,-14.0067 230.3274,-15.2181 239.3109,-20.8348 240.8528,-14.0067"/>
</g>
<!-- Node15&#45;&gt;Node7 -->
<g id="edge33" class="edge">
<title>Node15&#45;&gt;Node7</title>
<path fill="none" stroke="#191970" d="M443.7615,-75.6427C430.3041,-84.3993 407.9702,-97.4388 389.4068,-107.46"/>
<polygon fill="#191970" stroke="#191970" points="387.577,-104.4686 380.3818,-112.2455 390.8563,-110.653 387.577,-104.4686"/>
</g>
<!-- Node15&#45;&gt;Node8 -->
<g id="edge32" class="edge">
<title>Node15&#45;&gt;Node8</title>
<path fill="none" stroke="#191970" d="M446.6837,-56.2455C439.7277,-48.2958 429.7306,-36.8706 421.4138,-27.3656"/>
<polygon fill="#191970" stroke="#191970" points="423.8753,-24.8637 414.6562,-19.6427 418.6073,-29.4732 423.8753,-24.8637"/>
</g>
</g>
</svg>
