<?xml version="1.0" encoding="UTF-8" standalone="no"?>
<!DOCTYPE svg PUBLIC "-//W3C//DTD SVG 1.1//EN"
 "http://www.w3.org/Graphics/SVG/1.1/DTD/svg11.dtd">
<!-- Generated by graphviz version 2.40.1 (20161225.0304)
 -->
<!-- Title: host_info::file_info_u Pages: 1 -->
<svg width="294pt" height="95pt"
 viewBox="0.00 0.00 293.50 95.00" xmlns="http://www.w3.org/2000/svg" xmlns:xlink="http://www.w3.org/1999/xlink">
<g id="graph0" class="graph" transform="scale(1 1) rotate(0) translate(4 91)">
<title>host_info::file_info_u</title>
<polygon fill="#ffffff" stroke="transparent" points="-4,4 -4,-91 289.5,-91 289.5,4 -4,4"/>
<!-- Node1 -->
<g id="node1" class="node">
<title>Node1</title>
<polygon fill="#bfbfbf" stroke="#000000" points="89.5,-.5 89.5,-19.5 196.5,-19.5 196.5,-.5 89.5,-.5"/>
<text text-anchor="middle" x="143" y="-7.5" font-family="Helvetica,sans-Serif" font-size="10.00" fill="#000000">host_info::file_info_u</text>
</g>
<!-- Node2 -->
<g id="node2" class="node">
<title>Node2</title>
<g id="a_node2"><a xlink:href="a00174.xhtml" target="_top" xlink:title="Structure du format PNG. ">
<polygon fill="#ffffff" stroke="#000000" points="0,-67.5 0,-86.5 32,-86.5 32,-67.5 0,-67.5"/>
<text text-anchor="middle" x="16" y="-74.5" font-family="Helvetica,sans-Serif" font-size="10.00" fill="#000000">png</text>
</a>
</g>
</g>
<!-- Node2&#45;&gt;Node1 -->
<g id="edge1" class="edge">
<title>Node2&#45;&gt;Node1</title>
<path fill="none" stroke="#9a32cd" stroke-dasharray="5,2" d="M34.4581,-60.7278C43.7586,-53.1068 55.4851,-44.3343 67,-38 80.6756,-30.4771 96.7801,-24.2139 110.6362,-19.5323"/>
<polygon fill="#9a32cd" stroke="#9a32cd" points="32.0571,-58.1743 26.6745,-67.3 36.5731,-63.5227 32.0571,-58.1743"/>
<text text-anchor="middle" x="76.5" y="-41" font-family="Helvetica,sans-Serif" font-size="10.00" fill="#000000"> png</text>
</g>
<!-- Node3 -->
<g id="node3" class="node">
<title>Node3</title>
<g id="a_node3"><a xlink:href="a00178.xhtml" target="_top" xlink:title="Structure du format WAVE. ">
<polygon fill="#ffffff" stroke="#000000" points="50.5,-67.5 50.5,-86.5 85.5,-86.5 85.5,-67.5 50.5,-67.5"/>
<text text-anchor="middle" x="68" y="-74.5" font-family="Helvetica,sans-Serif" font-size="10.00" fill="#000000">wav</text>
</a>
</g>
</g>
<!-- Node3&#45;&gt;Node1 -->
<g id="edge2" class="edge">
<title>Node3&#45;&gt;Node1</title>
<path fill="none" stroke="#9a32cd" stroke-dasharray="5,2" d="M81.8649,-59.208C87.7135,-52.2266 94.8237,-44.3768 102,-38 109.6031,-31.2439 118.9081,-24.7671 126.7306,-19.7476"/>
<polygon fill="#9a32cd" stroke="#9a32cd" points="78.7956,-57.4367 75.2215,-67.4105 84.2352,-61.8424 78.7956,-57.4367"/>
<text text-anchor="middle" x="113" y="-41" font-family="Helvetica,sans-Serif" font-size="10.00" fill="#000000"> wav</text>
</g>
<!-- Node4 -->
<g id="node4" class="node">
<title>Node4</title>
<g id="a_node4"><a xlink:href="a00166.xhtml" target="_top" xlink:title="Structure du format FLV. ">
<polygon fill="#ffffff" stroke="#000000" points="103.5,-67.5 103.5,-86.5 132.5,-86.5 132.5,-67.5 103.5,-67.5"/>
<text text-anchor="middle" x="118" y="-74.5" font-family="Helvetica,sans-Serif" font-size="10.00" fill="#000000">flv</text>
</a>
</g>
</g>
<!-- Node4&#45;&gt;Node1 -->
<g id="edge3" class="edge">
<title>Node4&#45;&gt;Node1</title>
<path fill="none" stroke="#9a32cd" stroke-dasharray="5,2" d="M124.8076,-57.6796C127.058,-51.3896 129.6005,-44.3847 132,-38 134.3151,-31.84 137.016,-24.9608 139.1621,-19.5626"/>
<polygon fill="#9a32cd" stroke="#9a32cd" points="121.4202,-56.7598 121.3728,-67.3545 128.0168,-59.1017 121.4202,-56.7598"/>
<text text-anchor="middle" x="139" y="-41" font-family="Helvetica,sans-Serif" font-size="10.00" fill="#000000"> flv</text>
</g>
<!-- Node5 -->
<g id="node5" class="node">
<title>Node5</title>
<g id="a_node5"><a xlink:href="a00170.xhtml" target="_top" xlink:title="Structure du format MP3. ">
<polygon fill="#ffffff" stroke="#000000" points="150.5,-67.5 150.5,-86.5 185.5,-86.5 185.5,-67.5 150.5,-67.5"/>
<text text-anchor="middle" x="168" y="-74.5" font-family="Helvetica,sans-Serif" font-size="10.00" fill="#000000">mp3</text>
</a>
</g>
</g>
<!-- Node5&#45;&gt;Node1 -->
<g id="edge4" class="edge">
<title>Node5&#45;&gt;Node1</title>
<path fill="none" stroke="#9a32cd" stroke-dasharray="5,2" d="M160.8593,-57.8628C156.1882,-45.3444 150.2855,-29.5252 146.5752,-19.5817"/>
<polygon fill="#9a32cd" stroke="#9a32cd" points="157.643,-59.2551 164.4181,-67.4005 164.2013,-56.8079 157.643,-59.2551"/>
<text text-anchor="middle" x="167" y="-41" font-family="Helvetica,sans-Serif" font-size="10.00" fill="#000000"> mp3</text>
</g>
<!-- Node6 -->
<g id="node6" class="node">
<title>Node6</title>
<g id="a_node6"><a xlink:href="a00158.xhtml" target="_top" xlink:title="Structure du format AVI. ">
<polygon fill="#ffffff" stroke="#000000" points="203.5,-67.5 203.5,-86.5 232.5,-86.5 232.5,-67.5 203.5,-67.5"/>
<text text-anchor="middle" x="218" y="-74.5" font-family="Helvetica,sans-Serif" font-size="10.00" fill="#000000">avi</text>
</a>
</g>
</g>
<!-- Node6&#45;&gt;Node1 -->
<g id="edge5" class="edge">
<title>Node6&#45;&gt;Node1</title>
<path fill="none" stroke="#9a32cd" stroke-dasharray="5,2" d="M203.2582,-59.5401C197.0011,-52.5355 189.4423,-44.5806 182,-38 174.5069,-31.3745 165.4693,-24.8081 157.9815,-19.7011"/>
<polygon fill="#9a32cd" stroke="#9a32cd" points="200.7127,-61.9464 209.9207,-67.1869 205.9905,-57.348 200.7127,-61.9464"/>
<text text-anchor="middle" x="200" y="-41" font-family="Helvetica,sans-Serif" font-size="10.00" fill="#000000"> avi</text>
</g>
<!-- Node7 -->
<g id="node7" class="node">
<title>Node7</title>
<g id="a_node7"><a xlink:href="a00162.xhtml" target="_top" xlink:title="Structure du format BMP. ">
<polygon fill="#ffffff" stroke="#000000" points="250.5,-67.5 250.5,-86.5 285.5,-86.5 285.5,-67.5 250.5,-67.5"/>
<text text-anchor="middle" x="268" y="-74.5" font-family="Helvetica,sans-Serif" font-size="10.00" fill="#000000">bmp</text>
</a>
</g>
</g>
<!-- Node7&#45;&gt;Node1 -->
<g id="edge6" class="edge">
<title>Node7&#45;&gt;Node1</title>
<path fill="none" stroke="#9a32cd" stroke-dasharray="5,2" d="M247.3243,-60.9453C237.0521,-53.406 224.2438,-44.6398 212,-38 198.8173,-30.8511 183.4142,-24.4318 170.5096,-19.5488"/>
<polygon fill="#9a32cd" stroke="#9a32cd" points="245.5214,-63.9681 255.6206,-67.1706 249.7227,-58.3691 245.5214,-63.9681"/>
<text text-anchor="middle" x="240" y="-41" font-family="Helvetica,sans-Serif" font-size="10.00" fill="#000000"> bmp</text>
</g>
</g>
</svg>
