<?xml version="1.0" encoding="UTF-8" standalone="no"?>
<!DOCTYPE svg PUBLIC "-//W3C//DTD SVG 1.1//EN"
 "http://www.w3.org/Graphics/SVG/1.1/DTD/svg11.dtd">
<!-- Generated by graphviz version 2.40.1 (20161225.0304)
 -->
<!-- Title: write_signature Pages: 1 -->
<svg width="465pt" height="180pt"
 viewBox="0.00 0.00 465.00 180.00" xmlns="http://www.w3.org/2000/svg" xmlns:xlink="http://www.w3.org/1999/xlink">
<g id="graph0" class="graph" transform="scale(1 1) rotate(0) translate(4 176)">
<title>write_signature</title>
<polygon fill="#ffffff" stroke="transparent" points="-4,4 -4,-176 461,-176 461,4 -4,4"/>
<!-- Node1 -->
<g id="node1" class="node">
<title>Node1</title>
<polygon fill="#bfbfbf" stroke="#000000" points="0,-76.5 0,-95.5 83,-95.5 83,-76.5 0,-76.5"/>
<text text-anchor="middle" x="41.5" y="-83.5" font-family="Helvetica,sans-Serif" font-size="10.00" fill="#000000">write_signature</text>
</g>
<!-- Node2 -->
<g id="node2" class="node">
<title>Node2</title>
<g id="a_node2"><a xlink:href="a00017.xhtml#a049b8f5bf7a416fe54b10c6de98487a1" target="_top" xlink:title="Va inserer les donnees cachees en utilisant l&#39;algorithme EOC. ">
<polygon fill="#ffffff" stroke="#000000" points="277,-152.5 277,-171.5 339,-171.5 339,-152.5 277,-152.5"/>
<text text-anchor="middle" x="308" y="-159.5" font-family="Helvetica,sans-Serif" font-size="10.00" fill="#000000">insert_eoc</text>
</a>
</g>
</g>
<!-- Node1&#45;&gt;Node2 -->
<g id="edge1" class="edge">
<title>Node1&#45;&gt;Node2</title>
<path fill="none" stroke="#191970" d="M66.2958,-100.6662C81.145,-108.8863 100.6465,-118.7181 119,-125 172.9355,-143.4606 238.8632,-153.7434 276.8846,-158.5529"/>
<polygon fill="#191970" stroke="#191970" points="67.6941,-97.4357 57.2683,-95.5507 64.243,-103.5259 67.6941,-97.4357"/>
</g>
<!-- Node4 -->
<g id="node4" class="node">
<title>Node4</title>
<g id="a_node4"><a xlink:href="a00023.xhtml#a1c15f35d77081a076fe7cb19c7eb13b1" target="_top" xlink:title="Va inserer les donnees cachees en utilisant l&#39;algorithme EOF. ">
<polygon fill="#ffffff" stroke="#000000" points="278.5,-114.5 278.5,-133.5 337.5,-133.5 337.5,-114.5 278.5,-114.5"/>
<text text-anchor="middle" x="308" y="-121.5" font-family="Helvetica,sans-Serif" font-size="10.00" fill="#000000">insert_eof</text>
</a>
</g>
</g>
<!-- Node1&#45;&gt;Node4 -->
<g id="edge3" class="edge">
<title>Node1&#45;&gt;Node4</title>
<path fill="none" stroke="#191970" d="M86.0225,-98.047C96.7596,-100.6377 108.2398,-103.1496 119,-105 174.9014,-114.6135 241.0029,-119.8857 278.3634,-122.3106"/>
<polygon fill="#191970" stroke="#191970" points="86.5525,-94.5724 76.0036,-95.558 84.8647,-101.3659 86.5525,-94.5724"/>
</g>
<!-- Node5 -->
<g id="node5" class="node">
<title>Node5</title>
<g id="a_node5"><a xlink:href="a00035.xhtml#a14e9d876697b0225ded31095c1076b64" target="_top" xlink:title="Va inserer les donnees cachees en utilisant l&#39;algorithme LSB. ">
<polygon fill="#ffffff" stroke="#000000" points="144.5,-76.5 144.5,-95.5 203.5,-95.5 203.5,-76.5 144.5,-76.5"/>
<text text-anchor="middle" x="174" y="-83.5" font-family="Helvetica,sans-Serif" font-size="10.00" fill="#000000">insert_lsb</text>
</a>
</g>
</g>
<!-- Node1&#45;&gt;Node5 -->
<g id="edge5" class="edge">
<title>Node1&#45;&gt;Node5</title>
<path fill="none" stroke="#191970" d="M93.0881,-86C110.463,-86 129.2545,-86 144.3508,-86"/>
<polygon fill="#191970" stroke="#191970" points="93.0603,-82.5001 83.0603,-86 93.0603,-89.5001 93.0603,-82.5001"/>
</g>
<!-- Node6 -->
<g id="node6" class="node">
<title>Node6</title>
<g id="a_node6"><a xlink:href="a00077.xhtml#a9b0bec96351bc1e6be9134900590d215" target="_top" xlink:title="Va inserer les donnees cachees en utilisant l&#39;algorithme Metadata dans le format BMP. ">
<polygon fill="#ffffff" stroke="#000000" points="119,-38.5 119,-57.5 229,-57.5 229,-38.5 119,-38.5"/>
<text text-anchor="middle" x="174" y="-45.5" font-family="Helvetica,sans-Serif" font-size="10.00" fill="#000000">insert_metadata_bmp</text>
</a>
</g>
</g>
<!-- Node1&#45;&gt;Node6 -->
<g id="edge7" class="edge">
<title>Node1&#45;&gt;Node6</title>
<path fill="none" stroke="#191970" d="M84.7039,-73.6094C102.8492,-68.4055 123.6294,-62.4459 140.5754,-57.5859"/>
<polygon fill="#191970" stroke="#191970" points="83.5829,-70.2898 74.9353,-76.411 85.5127,-77.0185 83.5829,-70.2898"/>
</g>
<!-- Node8 -->
<g id="node8" class="node">
<title>Node8</title>
<g id="a_node8"><a xlink:href="a00095.xhtml#a2386f518ec5df78485cca31c6fe4f858" target="_top" xlink:title="Va inserer les donnees cachees en utilisant l&#39;algorithme Metadata dans le format PNG. ">
<polygon fill="#ffffff" stroke="#000000" points="120.5,-.5 120.5,-19.5 227.5,-19.5 227.5,-.5 120.5,-.5"/>
<text text-anchor="middle" x="174" y="-7.5" font-family="Helvetica,sans-Serif" font-size="10.00" fill="#000000">insert_metadata_png</text>
</a>
</g>
</g>
<!-- Node1&#45;&gt;Node8 -->
<g id="edge10" class="edge">
<title>Node1&#45;&gt;Node8</title>
<path fill="none" stroke="#191970" d="M60.3404,-69.6094C75.4037,-57.1526 97.4896,-40.2912 119,-29 125.8876,-25.3846 133.6076,-22.2252 141.0363,-19.5745"/>
<polygon fill="#191970" stroke="#191970" points="57.7262,-67.2357 52.3403,-76.3594 62.2403,-72.5858 57.7262,-67.2357"/>
</g>
<!-- Node3 -->
<g id="node3" class="node">
<title>Node3</title>
<g id="a_node3"><a xlink:href="a00110.xhtml#a45a1d0709604d55e9d467cb39d6a5b54" target="_top" xlink:title="Va faire l&#39;insertion selon l&#39;algorithme, ainsi que les fichiers en entrée choisis par l&#39;utilisateur...">
<polygon fill="#ffffff" stroke="#000000" points="387,-95.5 387,-114.5 457,-114.5 457,-95.5 387,-95.5"/>
<text text-anchor="middle" x="422" y="-102.5" font-family="Helvetica,sans-Serif" font-size="10.00" fill="#000000">stegx_insert</text>
</a>
</g>
</g>
<!-- Node2&#45;&gt;Node3 -->
<g id="edge2" class="edge">
<title>Node2&#45;&gt;Node3</title>
<path fill="none" stroke="#191970" d="M339.7758,-148.2833C343.5778,-146.5468 347.3894,-144.7608 351,-143 369.7236,-133.8689 390.7037,-122.4941 404.9708,-114.5806"/>
<polygon fill="#191970" stroke="#191970" points="338.1596,-145.1722 330.4649,-152.4552 341.0219,-151.5602 338.1596,-145.1722"/>
</g>
<!-- Node4&#45;&gt;Node3 -->
<g id="edge4" class="edge">
<title>Node4&#45;&gt;Node3</title>
<path fill="none" stroke="#191970" d="M347.5617,-117.4064C360.33,-115.2783 374.3901,-112.935 386.8198,-110.8634"/>
<polygon fill="#191970" stroke="#191970" points="346.9431,-113.9611 337.6546,-119.0576 348.0939,-120.8659 346.9431,-113.9611"/>
</g>
<!-- Node5&#45;&gt;Node3 -->
<g id="edge6" class="edge">
<title>Node5&#45;&gt;Node3</title>
<path fill="none" stroke="#191970" d="M213.908,-89.0575C261.7401,-92.722 341.1392,-98.805 386.7855,-102.3021"/>
<polygon fill="#191970" stroke="#191970" points="214.1528,-85.5661 203.9146,-88.2918 213.618,-92.5456 214.1528,-85.5661"/>
</g>
<!-- Node7 -->
<g id="node7" class="node">
<title>Node7</title>
<g id="a_node7"><a xlink:href="a00041.xhtml#a77aaebb61a9a73cbe45380c64c3d8389" target="_top" xlink:title="Va inserer les donnees cachees en utilisant l&#39;algorithme Metadata. ">
<polygon fill="#ffffff" stroke="#000000" points="265,-38.5 265,-57.5 351,-57.5 351,-38.5 265,-38.5"/>
<text text-anchor="middle" x="308" y="-45.5" font-family="Helvetica,sans-Serif" font-size="10.00" fill="#000000">insert_metadata</text>
</a>
</g>
</g>
<!-- Node6&#45;&gt;Node7 -->
<g id="edge8" class="edge">
<title>Node6&#45;&gt;Node7</title>
<path fill="none" stroke="#191970" d="M239.3376,-48C247.9516,-48 256.6023,-48 264.7195,-48"/>
<polygon fill="#191970" stroke="#191970" points="239.2766,-44.5001 229.2766,-48 239.2765,-51.5001 239.2766,-44.5001"/>
</g>
<!-- Node7&#45;&gt;Node3 -->
<g id="edge9" class="edge">
<title>Node7&#45;&gt;Node3</title>
<path fill="none" stroke="#191970" d="M336.0744,-62.0372C356.8444,-72.4222 384.5863,-86.2931 402.8567,-95.4284"/>
<polygon fill="#191970" stroke="#191970" points="337.5906,-58.8822 327.081,-57.5405 334.4601,-65.1432 337.5906,-58.8822"/>
</g>
<!-- Node8&#45;&gt;Node7 -->
<g id="edge11" class="edge">
<title>Node8&#45;&gt;Node7</title>
<path fill="none" stroke="#191970" d="M217.4383,-22.3183C235.8491,-27.5393 256.9798,-33.5316 274.197,-38.4141"/>
<polygon fill="#191970" stroke="#191970" points="218.3894,-18.9501 207.8139,-19.589 216.4796,-25.6845 218.3894,-18.9501"/>
</g>
</g>
</svg>
