<?xml version="1.0" encoding="UTF-8" standalone="no"?>
<!DOCTYPE svg PUBLIC "-//W3C//DTD SVG 1.1//EN"
 "http://www.w3.org/Graphics/SVG/1.1/DTD/svg11.dtd">
<!-- Generated by graphviz version 2.40.1 (20161225.0304)
 -->
<!-- Title: stegx_insert Pages: 1 -->
<!--zoomable 1065 -->
<svg id="main" version="1.1" xmlns="http://www.w3.org/2000/svg" xmlns:xlink="http://www.w3.org/1999/xlink" xml:space="preserve" onload="init(evt)">
<style type="text/css"><![CDATA[
.edge:hover path { stroke: red; }
.edge:hover polygon { stroke: red; fill: red; }
]]></style>
<script type="text/javascript"><![CDATA[
var edges = document.getElementsByTagName('g');
if (edges && edges.length) {
  for (var i=0;i<edges.length;i++) {
    if (edges[i].id.substr(0,4)=='edge') {
      edges[i].setAttribute('class','edge');
    }
  }
}
]]></script>
        <defs>
                <circle id="rim" cx="0" cy="0" r="7"/>
                <circle id="rim2" cx="0" cy="0" r="3.5"/>
                <g id="zoomPlus">
                        <use xlink:href="#rim" fill="#404040">
                                <set attributeName="fill" to="#808080" begin="zoomplus.mouseover" end="zoomplus.mouseout"/>
                        </use>
                        <path d="M-4,0h8M0,-4v8" fill="none" stroke="white" stroke-width="1.5" pointer-events="none"/>
                </g>
                <g id="zoomMin">
                        <use xlink:href="#rim" fill="#404040">
                                <set attributeName="fill" to="#808080" begin="zoomminus.mouseover" end="zoomminus.mouseout"/>
                        </use>
                        <path d="M-4,0h8" fill="none" stroke="white" stroke-width="1.5" pointer-events="none"/>
                </g>
                <g id="dirArrow">
                        <path fill="none" stroke="white" stroke-width="1.5" d="M0,-3.0v7 M-2.5,-0.5L0,-3.0L2.5,-0.5"/>
                </g>
               <g id="resetDef">
                       <use xlink:href="#rim2" fill="#404040">
                               <set attributeName="fill" to="#808080" begin="reset.mouseover" end="reset.mouseout"/>
                       </use>
               </g>
        </defs>

<script type="text/javascript">
var viewWidth = 1161;
var viewHeight = 1065;
var sectionId = 'dynsection-1';
</script>
<script xlink:href="svgpan.js"/>
<svg id="graph" class="graph">
<g id="viewport">
<title>stegx_insert</title>
<polygon fill="#ffffff" stroke="transparent" points="-4,4 -4,-1060.5076 1157,-1060.5076 1157,4 -4,4"/>
<!-- Node0 -->
<g id="node1" class="node">
<title>Node0</title>
<polygon fill="#bfbfbf" stroke="#000000" points="0,-328.1247 0,-347.1247 70,-347.1247 70,-328.1247 0,-328.1247"/>
<text text-anchor="middle" x="35" y="-335.1247" font-family="Helvetica,sans-Serif" font-size="10.00" fill="#000000">stegx_insert</text>
</g>
<!-- Node1 -->
<g id="node2" class="node">
<title>Node1</title>
<g id="a_node2"><a xlink:href="a00032.xhtml#a14e9d876697b0225ded31095c1076b64" target="_top" xlink:title="Va inserer les donnees cachees en utilisant l&#39;algorithme LSB. ">
<polygon fill="#ffffff" stroke="#000000" points="262.5,-632.1247 262.5,-651.1247 321.5,-651.1247 321.5,-632.1247 262.5,-632.1247"/>
<text text-anchor="middle" x="292" y="-639.1247" font-family="Helvetica,sans-Serif" font-size="10.00" fill="#000000">insert_lsb</text>
</a>
</g>
</g>
<!-- Node0&#45;&gt;Node1 -->
<g id="edge1" class="edge">
<title>Node0&#45;&gt;Node1</title>
<path fill="none" stroke="#191970" d="M43.2598,-347.395C80.1163,-390.9918 229.8257,-568.08 277.4078,-624.3639"/>
<polygon fill="#191970" stroke="#191970" points="274.7702,-626.6653 283.8991,-632.0424 280.1159,-622.146 274.7702,-626.6653"/>
</g>
<!-- Node18 -->
<g id="node19" class="node">
<title>Node18</title>
<g id="a_node19"><a xlink:href="a00020.xhtml#a1c15f35d77081a076fe7cb19c7eb13b1" target="_top" xlink:title="Va inserer les donnees cachees en utilisant l&#39;algorithme EOF. ">
<polygon fill="#ffffff" stroke="#000000" points="124,-290.1247 124,-309.1247 183,-309.1247 183,-290.1247 124,-290.1247"/>
<text text-anchor="middle" x="153.5" y="-297.1247" font-family="Helvetica,sans-Serif" font-size="10.00" fill="#000000">insert_eof</text>
</a>
</g>
</g>
<!-- Node0&#45;&gt;Node18 -->
<g id="edge29" class="edge">
<title>Node0&#45;&gt;Node18</title>
<path fill="none" stroke="#191970" d="M64.9026,-328.0357C79.7787,-323.2653 97.9571,-317.436 113.9674,-312.3018"/>
<polygon fill="#191970" stroke="#191970" points="115.1534,-315.5971 123.607,-309.2107 113.0159,-308.9315 115.1534,-315.5971"/>
</g>
<!-- Node23 -->
<g id="node24" class="node">
<title>Node23</title>
<g id="a_node24"><a xlink:href="a00038.xhtml#a77aaebb61a9a73cbe45380c64c3d8389" target="_top" xlink:title="Va inserer les donnees cachees en utilisant l&#39;algorithme Metadata. ">
<polygon fill="#ffffff" stroke="#000000" points="110.5,-328.1247 110.5,-347.1247 196.5,-347.1247 196.5,-328.1247 110.5,-328.1247"/>
<text text-anchor="middle" x="153.5" y="-335.1247" font-family="Helvetica,sans-Serif" font-size="10.00" fill="#000000">insert_metadata</text>
</a>
</g>
</g>
<!-- Node0&#45;&gt;Node23 -->
<g id="edge44" class="edge">
<title>Node0&#45;&gt;Node23</title>
<path fill="none" stroke="#191970" d="M70.2331,-337.6247C79.6479,-337.6247 90.0367,-337.6247 100.1904,-337.6247"/>
<polygon fill="#191970" stroke="#191970" points="100.2211,-341.1248 110.221,-337.6247 100.221,-334.1248 100.2211,-341.1248"/>
</g>
<!-- Node28 -->
<g id="node29" class="node">
<title>Node28</title>
<g id="a_node29"><a xlink:href="a00014.xhtml#a049b8f5bf7a416fe54b10c6de98487a1" target="_top" xlink:title="Va inserer les donnees cachees en utilisant l&#39;algorithme EOC. ">
<polygon fill="#ffffff" stroke="#000000" points="261,-404.1247 261,-423.1247 323,-423.1247 323,-404.1247 261,-404.1247"/>
<text text-anchor="middle" x="292" y="-411.1247" font-family="Helvetica,sans-Serif" font-size="10.00" fill="#000000">insert_eoc</text>
</a>
</g>
</g>
<!-- Node0&#45;&gt;Node28 -->
<g id="edge60" class="edge">
<title>Node0&#45;&gt;Node28</title>
<path fill="none" stroke="#191970" d="M67.289,-347.1732C113.9263,-360.9648 200.1258,-386.4557 251.1357,-401.5403"/>
<polygon fill="#191970" stroke="#191970" points="250.2643,-404.9324 260.8463,-404.412 252.2494,-398.2198 250.2643,-404.9324"/>
</g>
<!-- Node29 -->
<g id="node30" class="node">
<title>Node29</title>
<g id="a_node30"><a xlink:href="a00026.xhtml#a84a30fc7a160233a093155bf41411c00" target="_top" xlink:title="Va inserer les donnees cachees en utilisant l&#39;algorithme Junk Chunk. ">
<polygon fill="#ffffff" stroke="#000000" points="106,-252.1247 106,-271.1247 201,-271.1247 201,-252.1247 106,-252.1247"/>
<text text-anchor="middle" x="153.5" y="-259.1247" font-family="Helvetica,sans-Serif" font-size="10.00" fill="#000000">insert_junk_chunk</text>
</a>
</g>
</g>
<!-- Node0&#45;&gt;Node29 -->
<g id="edge68" class="edge">
<title>Node0&#45;&gt;Node29</title>
<path fill="none" stroke="#191970" d="M44.8762,-328.0953C57.9835,-315.8417 82.2478,-294.4931 106,-280.6247 109.2598,-278.7214 112.7464,-276.9264 116.2946,-275.2562"/>
<polygon fill="#191970" stroke="#191970" points="117.9562,-278.3497 125.7176,-271.1378 115.1528,-271.9356 117.9562,-278.3497"/>
</g>
<!-- Node2 -->
<g id="node3" class="node">
<title>Node2</title>
<g id="a_node3"><a xlink:href="a00122.xhtml#a4e9a217b960dc65fd08dff9f78e317e4" target="_top" xlink:title="Initialise la seed de la suite pseudo aléatoire. ">
<polygon fill="#ffffff" stroke="#000000" points="555.5,-119.1247 555.5,-138.1247 625.5,-138.1247 625.5,-119.1247 555.5,-119.1247"/>
<text text-anchor="middle" x="590.5" y="-126.1247" font-family="Helvetica,sans-Serif" font-size="10.00" fill="#000000">stegx_srand</text>
</a>
</g>
</g>
<!-- Node1&#45;&gt;Node2 -->
<g id="edge2" class="edge">
<title>Node1&#45;&gt;Node2</title>
<path fill="none" stroke="#191970" d="M298.0422,-632.0726C311.0892,-612.2231 343.9002,-566.3147 383,-541.6247 425.7975,-514.5998 459.6288,-547.5359 492,-508.6247 538.1894,-453.1036 495.2147,-249.9767 528,-185.6247 536.6404,-168.6651 552.5522,-154.2677 566.1577,-144.1853"/>
<polygon fill="#191970" stroke="#191970" points="568.5012,-146.816 574.6659,-138.1993 564.4733,-141.091 568.5012,-146.816"/>
</g>
<!-- Node3 -->
<g id="node4" class="node">
<title>Node3</title>
<g id="a_node4"><a xlink:href="a00122.xhtml#a2a891bbe3514201de3cfc5acced104b7" target="_top" xlink:title="Cree un seed a partir d&#39;un mot de passe. ">
<polygon fill="#ffffff" stroke="#000000" points="555.5,-271.1247 555.5,-290.1247 625.5,-290.1247 625.5,-271.1247 555.5,-271.1247"/>
<text text-anchor="middle" x="590.5" y="-278.1247" font-family="Helvetica,sans-Serif" font-size="10.00" fill="#000000">create_seed</text>
</a>
</g>
</g>
<!-- Node1&#45;&gt;Node3 -->
<g id="edge3" class="edge">
<title>Node1&#45;&gt;Node3</title>
<path fill="none" stroke="#191970" d="M321.6394,-648.1942C364.4342,-655.819 443.682,-662.7105 492,-622.6247 543.2468,-580.1092 578.0218,-366.7639 587.7357,-300.3747"/>
<polygon fill="#191970" stroke="#191970" points="591.2125,-300.7853 589.1683,-290.3896 584.2835,-299.7911 591.2125,-300.7853"/>
</g>
<!-- Node4 -->
<g id="node5" class="node">
<title>Node4</title>
<g id="a_node5"><a xlink:href="a00122.xhtml#a9966534d45c62d0df7a3d5df48668715" target="_top" xlink:title="Renvoie un entier pseudo&#45;aléatoire. ">
<polygon fill="#ffffff" stroke="#000000" points="558,-195.1247 558,-214.1247 623,-214.1247 623,-195.1247 558,-195.1247"/>
<text text-anchor="middle" x="590.5" y="-202.1247" font-family="Helvetica,sans-Serif" font-size="10.00" fill="#000000">stegx_rand</text>
</a>
</g>
</g>
<!-- Node1&#45;&gt;Node4 -->
<g id="edge4" class="edge">
<title>Node1&#45;&gt;Node4</title>
<path fill="none" stroke="#191970" d="M305.4161,-632.1197C322.7751,-620.083 354.2124,-599.1635 383,-584.6247 429.4858,-561.1477 460.0103,-582.7192 492,-541.6247 569.0714,-442.6175 470.1023,-372.9363 528,-261.6247 536.7832,-244.7386 552.6931,-230.3403 566.2621,-220.2391"/>
<polygon fill="#191970" stroke="#191970" points="568.6008,-222.8719 574.7424,-214.2387 564.5576,-217.1576 568.6008,-222.8719"/>
</g>
<!-- Node5 -->
<g id="node6" class="node">
<title>Node5</title>
<g id="a_node6"><a xlink:href="a00032.xhtml#a72239fe09f5e932458901b822ccdf945" target="_top" xlink:title="Cache les octets de data dans pixels selon l&#39;algorithme de protection des données en LSB...">
<polygon fill="#ffffff" stroke="#000000" points="393,-594.1247 393,-613.1247 482,-613.1247 482,-594.1247 393,-594.1247"/>
<text text-anchor="middle" x="437.5" y="-601.1247" font-family="Helvetica,sans-Serif" font-size="10.00" fill="#000000">protect_data_lsb</text>
</a>
</g>
</g>
<!-- Node1&#45;&gt;Node5 -->
<g id="edge5" class="edge">
<title>Node1&#45;&gt;Node5</title>
<path fill="none" stroke="#191970" d="M321.7952,-633.8432C341.784,-628.6227 368.5132,-621.6419 391.2451,-615.705"/>
<polygon fill="#191970" stroke="#191970" points="392.2484,-619.0605 401.0394,-613.1471 390.4795,-612.2877 392.2484,-619.0605"/>
</g>
<!-- Node6 -->
<g id="node7" class="node">
<title>Node6</title>
<g id="a_node7"><a xlink:href="a00110.xhtml#a66a71cd33131eb29010132269d237356" target="_top" xlink:title="Ecrit la signature StegX. ">
<polygon fill="#ffffff" stroke="#000000" points="396,-328.1247 396,-347.1247 479,-347.1247 479,-328.1247 396,-328.1247"/>
<text text-anchor="middle" x="437.5" y="-335.1247" font-family="Helvetica,sans-Serif" font-size="10.00" fill="#000000">write_signature</text>
</a>
</g>
</g>
<!-- Node1&#45;&gt;Node6 -->
<g id="edge9" class="edge">
<title>Node1&#45;&gt;Node6</title>
<path fill="none" stroke="#191970" d="M296.6763,-631.8544C317.3711,-588.6157 400.9121,-414.0695 428.5632,-356.2967"/>
<polygon fill="#191970" stroke="#191970" points="431.7535,-357.7382 432.9137,-347.2071 425.4394,-354.7161 431.7535,-357.7382"/>
</g>
<!-- Node7 -->
<g id="node8" class="node">
<title>Node7</title>
<g id="a_node8"><a xlink:href="a00086.xhtml#a75bc8b052a4d00ab95b05b576918360d" target="_top" xlink:title="Test si le header est un header MPEG 1/2 Layer III. ">
<polygon fill="#ffffff" stroke="#000000" points="1048,-936.1247 1048,-955.1247 1153,-955.1247 1153,-936.1247 1048,-936.1247"/>
<text text-anchor="middle" x="1100.5" y="-943.1247" font-family="Helvetica,sans-Serif" font-size="10.00" fill="#000000">mp3_mpeg_hdr_test</text>
</a>
</g>
</g>
<!-- Node1&#45;&gt;Node7 -->
<g id="edge10" class="edge">
<title>Node1&#45;&gt;Node7</title>
<path fill="none" stroke="#191970" d="M294.504,-651.3105C302.2695,-679.2392 328.7519,-760.3068 383,-797.6247 459.9936,-850.5895 497.048,-831.6247 590.5,-831.6247 590.5,-831.6247 590.5,-831.6247 763,-831.6247 874.1795,-831.6247 911.6455,-807.7721 1012,-855.6247 1045.5991,-871.646 1073.5742,-906.0304 1088.5959,-927.3554"/>
<polygon fill="#191970" stroke="#191970" points="1085.8681,-929.5678 1094.3901,-935.8627 1091.6537,-925.6273 1085.8681,-929.5678"/>
</g>
<!-- Node8 -->
<g id="node9" class="node">
<title>Node8</title>
<g id="a_node9"><a xlink:href="a00056.xhtml#a7434fd197d31a9571f92f9dca4f212e9" target="_top" xlink:title="Convertit un nombre en big endian dans l&#39;endian de la machine. ">
<polygon fill="#ffffff" stroke="#000000" points="550.5,-632.1247 550.5,-651.1247 630.5,-651.1247 630.5,-632.1247 550.5,-632.1247"/>
<text text-anchor="middle" x="590.5" y="-639.1247" font-family="Helvetica,sans-Serif" font-size="10.00" fill="#000000">stegx_be32toh</text>
</a>
</g>
</g>
<!-- Node1&#45;&gt;Node8 -->
<g id="edge11" class="edge">
<title>Node1&#45;&gt;Node8</title>
<path fill="none" stroke="#191970" d="M295.0954,-651.4077C303.8925,-677.3229 331.775,-747.6056 383,-774.6247 425.8492,-797.2259 448.7356,-796.4205 492,-774.6247 516.6399,-762.2116 559.7427,-693.5763 579.7417,-660.0565"/>
<polygon fill="#191970" stroke="#191970" points="582.8748,-661.6343 584.9488,-651.2444 576.8483,-658.0732 582.8748,-661.6343"/>
</g>
<!-- Node9 -->
<g id="node10" class="node">
<title>Node9</title>
<g id="a_node10"><a xlink:href="a00056.xhtml#aa1a29df598338a94ef478f60e90b20ba" target="_top" xlink:title="Convertit un nombre en little endian vers le big endian. ">
<polygon fill="#ffffff" stroke="#000000" points="397.5,-480.1247 397.5,-499.1247 477.5,-499.1247 477.5,-480.1247 397.5,-480.1247"/>
<text text-anchor="middle" x="437.5" y="-487.1247" font-family="Helvetica,sans-Serif" font-size="10.00" fill="#000000">stegx_htobe32</text>
</a>
</g>
</g>
<!-- Node1&#45;&gt;Node9 -->
<g id="edge12" class="edge">
<title>Node1&#45;&gt;Node9</title>
<path fill="none" stroke="#191970" d="M296.5692,-631.9336C308.0135,-608.5893 340.0939,-548.591 383,-513.6247 387.7234,-509.7754 393.1607,-506.4263 398.7326,-503.5513"/>
<polygon fill="#191970" stroke="#191970" points="400.5583,-506.5615 408.1349,-499.1557 397.5937,-500.2203 400.5583,-506.5615"/>
</g>
<!-- Node10 -->
<g id="node11" class="node">
<title>Node10</title>
<g id="a_node11"><a xlink:href="a00086.xhtml#ab0198bd0d67c778ff7493f1bcd0a409e" target="_top" xlink:title="Écris la frame MP3 actuelle. ">
<polygon fill="#ffffff" stroke="#000000" points="386.5,-860.1247 386.5,-879.1247 488.5,-879.1247 488.5,-860.1247 386.5,-860.1247"/>
<text text-anchor="middle" x="437.5" y="-867.1247" font-family="Helvetica,sans-Serif" font-size="10.00" fill="#000000">mp3_mpeg_fr_write</text>
</a>
</g>
</g>
<!-- Node1&#45;&gt;Node10 -->
<g id="edge14" class="edge">
<title>Node1&#45;&gt;Node10</title>
<path fill="none" stroke="#191970" d="M293.7946,-651.5686C300.1087,-683.8619 324.1769,-787.0818 383,-845.6247 386.893,-849.4991 391.5172,-852.7991 396.4016,-855.5961"/>
<polygon fill="#191970" stroke="#191970" points="394.8656,-858.7413 405.3726,-860.1031 398.0081,-852.4863 394.8656,-858.7413"/>
</g>
<!-- Node16 -->
<g id="node17" class="node">
<title>Node16</title>
<g id="a_node17"><a xlink:href="a00086.xhtml#aaccf359620da01d34de43ba7ce7f3513" target="_top" xlink:title="Test si le header est un header ID3v1. ">
<polygon fill="#ffffff" stroke="#000000" points="385.5,-746.1247 385.5,-765.1247 489.5,-765.1247 489.5,-746.1247 385.5,-746.1247"/>
<text text-anchor="middle" x="437.5" y="-753.1247" font-family="Helvetica,sans-Serif" font-size="10.00" fill="#000000">mp3_id3v1_hdr_test</text>
</a>
</g>
</g>
<!-- Node1&#45;&gt;Node16 -->
<g id="edge27" class="edge">
<title>Node1&#45;&gt;Node16</title>
<path fill="none" stroke="#191970" d="M298.6563,-651.1348C312.3452,-670.03 345.5334,-712.5477 383,-736.6247 386.1348,-738.6392 389.5089,-740.4694 392.9866,-742.1263"/>
<polygon fill="#191970" stroke="#191970" points="391.7696,-745.4122 402.3412,-746.115 394.5153,-738.9731 391.7696,-745.4122"/>
</g>
<!-- Node17 -->
<g id="node18" class="node">
<title>Node17</title>
<g id="a_node18"><a xlink:href="a00086.xhtml#a0f2f8f49760a8be1dc011675b01f63d1" target="_top" xlink:title="Écris le tag ID3v1 actuel. ">
<polygon fill="#ffffff" stroke="#000000" points="383,-708.1247 383,-727.1247 492,-727.1247 492,-708.1247 383,-708.1247"/>
<text text-anchor="middle" x="437.5" y="-715.1247" font-family="Helvetica,sans-Serif" font-size="10.00" fill="#000000">mp3_id3v1_tag_write</text>
</a>
</g>
</g>
<!-- Node1&#45;&gt;Node17 -->
<g id="edge28" class="edge">
<title>Node1&#45;&gt;Node17</title>
<path fill="none" stroke="#191970" d="M307.51,-651.1493C325.4082,-661.984 355.8661,-679.9445 383,-693.6247 389.9815,-697.1446 397.5942,-700.6792 404.856,-703.9128"/>
<polygon fill="#191970" stroke="#191970" points="403.8839,-707.3076 414.4486,-708.1059 406.6876,-700.8936 403.8839,-707.3076"/>
</g>
<!-- Node5&#45;&gt;Node2 -->
<g id="edge6" class="edge">
<title>Node5&#45;&gt;Node2</title>
<path fill="none" stroke="#191970" d="M449.4479,-594.1105C462.4021,-583.0286 482.4965,-563.4341 492,-541.6247 555.5283,-395.8358 456.5334,-327.6909 528,-185.6247 536.5537,-168.6211 552.4665,-154.2243 566.0943,-144.1532"/>
<polygon fill="#191970" stroke="#191970" points="568.4409,-146.7826 574.6194,-138.1758 564.4222,-141.0511 568.4409,-146.7826"/>
</g>
<!-- Node5&#45;&gt;Node3 -->
<g id="edge7" class="edge">
<title>Node5&#45;&gt;Node3</title>
<path fill="none" stroke="#191970" d="M471.1933,-594.0048C478.8483,-590.5046 486.3712,-585.8252 492,-579.6247 567.8189,-496.1054 585.4084,-352.9109 589.3784,-300.5489"/>
<polygon fill="#191970" stroke="#191970" points="592.8892,-300.5036 590.0647,-290.2922 585.9048,-300.0362 592.8892,-300.5036"/>
</g>
<!-- Node5&#45;&gt;Node4 -->
<g id="edge8" class="edge">
<title>Node5&#45;&gt;Node4</title>
<path fill="none" stroke="#191970" d="M473.5353,-594.101C480.6481,-590.6397 487.3433,-585.9535 492,-579.6247 576.2974,-465.06 463.3222,-388.305 528,-261.6247 536.6551,-244.6725 552.5667,-230.2751 566.1684,-220.1908"/>
<polygon fill="#191970" stroke="#191970" points="568.5114,-222.8217 574.6737,-214.2033 564.4819,-217.0978 568.5114,-222.8217"/>
</g>
<!-- Node9&#45;&gt;Node8 -->
<g id="edge13" class="edge">
<title>Node9&#45;&gt;Node8</title>
<path fill="none" stroke="#191970" d="M447.0708,-499.133C472.4009,-524.2976 541.4444,-592.8897 573.6011,-624.8363"/>
<polygon fill="#191970" stroke="#191970" points="571.3718,-627.5551 580.9328,-632.12 576.3053,-622.5892 571.3718,-627.5551"/>
</g>
<!-- Node10&#45;&gt;Node7 -->
<g id="edge15" class="edge">
<title>Node10&#45;&gt;Node7</title>
<path fill="none" stroke="#191970" d="M488.5643,-862.4201C590.7475,-849.9125 826.4828,-830.7031 1012,-888.6247 1038.5915,-896.927 1064.8927,-915.551 1081.8217,-929.2615"/>
<polygon fill="#191970" stroke="#191970" points="1079.8535,-932.1779 1089.772,-935.9027 1084.3411,-926.8056 1079.8535,-932.1779"/>
</g>
<!-- Node11 -->
<g id="node12" class="node">
<title>Node11</title>
<g id="a_node12"><a xlink:href="a00086.xhtml#a3f5f1c770ad5013ccf94bce56b7d0a04" target="_top" xlink:title="Obtient la taille d&#39;une frame MP3. ">
<polygon fill="#ffffff" stroke="#000000" points="528,-936.1247 528,-955.1247 653,-955.1247 653,-936.1247 528,-936.1247"/>
<text text-anchor="middle" x="590.5" y="-943.1247" font-family="Helvetica,sans-Serif" font-size="10.00" fill="#000000">mp3_mpeg_hdr_get_size</text>
</a>
</g>
</g>
<!-- Node10&#45;&gt;Node11 -->
<g id="edge16" class="edge">
<title>Node10&#45;&gt;Node11</title>
<path fill="none" stroke="#191970" d="M456.8776,-879.2502C483.4337,-892.4415 531.3269,-916.2315 561.9816,-931.4587"/>
<polygon fill="#191970" stroke="#191970" points="560.7668,-934.7633 571.2798,-936.0774 563.8809,-928.4941 560.7668,-934.7633"/>
</g>
<!-- Node11&#45;&gt;Node7 -->
<g id="edge17" class="edge">
<title>Node11&#45;&gt;Node7</title>
<path fill="none" stroke="#191970" d="M653.036,-945.6247C751.0412,-945.6247 939.7271,-945.6247 1037.8207,-945.6247"/>
<polygon fill="#191970" stroke="#191970" points="1037.8867,-949.1248 1047.8866,-945.6247 1037.8866,-942.1248 1037.8867,-949.1248"/>
</g>
<!-- Node12 -->
<g id="node13" class="node">
<title>Node12</title>
<g id="a_node13"><a xlink:href="a00086.xhtml#aa48df36af23103ce104d13854d4cbb87" target="_top" xlink:title="Obtient la débit binaire d&#39;une frame MP3. ">
<polygon fill="#ffffff" stroke="#000000" points="696,-974.1247 696,-993.1247 830,-993.1247 830,-974.1247 696,-974.1247"/>
<text text-anchor="middle" x="763" y="-981.1247" font-family="Helvetica,sans-Serif" font-size="10.00" fill="#000000">mp3_mpeg_hdr_get_bitrate</text>
</a>
</g>
</g>
<!-- Node11&#45;&gt;Node12 -->
<g id="edge18" class="edge">
<title>Node11&#45;&gt;Node12</title>
<path fill="none" stroke="#191970" d="M634.029,-955.2137C657.0999,-960.296 685.6266,-966.5802 709.9805,-971.9451"/>
<polygon fill="#191970" stroke="#191970" points="709.2651,-975.3713 719.784,-974.1047 710.7711,-968.5352 709.2651,-975.3713"/>
</g>
<!-- Node14 -->
<g id="node15" class="node">
<title>Node14</title>
<g id="a_node15"><a xlink:href="a00086.xhtml#a85aeeafb97867c551e217ba3283e6fec" target="_top" xlink:title="Obtient la fréquence d&#39;échantillonage d&#39;une frame MP3. ">
<polygon fill="#ffffff" stroke="#000000" points="689,-1012.1247 689,-1031.1247 837,-1031.1247 837,-1012.1247 689,-1012.1247"/>
<text text-anchor="middle" x="763" y="-1019.1247" font-family="Helvetica,sans-Serif" font-size="10.00" fill="#000000">mp3_mpeg_hdr_get_samprate</text>
</a>
</g>
</g>
<!-- Node11&#45;&gt;Node14 -->
<g id="edge22" class="edge">
<title>Node11&#45;&gt;Node14</title>
<path fill="none" stroke="#191970" d="M604.2304,-955.2045C622.717,-967.7114 656.9939,-989.5446 689,-1002.6247 694.9626,-1005.0615 701.3259,-1007.2575 707.7233,-1009.2163"/>
<polygon fill="#191970" stroke="#191970" points="707.174,-1012.7001 717.7519,-1012.0999 709.1085,-1005.9727 707.174,-1012.7001"/>
</g>
<!-- Node15 -->
<g id="node16" class="node">
<title>Node15</title>
<g id="a_node16"><a xlink:href="a00086.xhtml#a407e3a1d9a7c3350620818a2ef19f142" target="_top" xlink:title="Permet de savoir si une frame MP3 contient du padding. ">
<polygon fill="#ffffff" stroke="#000000" points="875,-898.1247 875,-917.1247 1010,-917.1247 1010,-898.1247 875,-898.1247"/>
<text text-anchor="middle" x="942.5" y="-905.1247" font-family="Helvetica,sans-Serif" font-size="10.00" fill="#000000">mp3_mpeg_hdr_is_padding</text>
</a>
</g>
</g>
<!-- Node11&#45;&gt;Node15 -->
<g id="edge25" class="edge">
<title>Node11&#45;&gt;Node15</title>
<path fill="none" stroke="#191970" d="M653.2349,-936.26C665.1013,-934.6158 677.4218,-932.9949 689,-931.6247 747.8347,-924.6624 814.5423,-918.4123 864.7558,-914.0368"/>
<polygon fill="#191970" stroke="#191970" points="865.2303,-917.5089 874.8912,-913.1596 864.6266,-910.535 865.2303,-917.5089"/>
</g>
<!-- Node12&#45;&gt;Node7 -->
<g id="edge19" class="edge">
<title>Node12&#45;&gt;Node7</title>
<path fill="none" stroke="#191970" d="M830.2318,-978.259C880.4097,-973.9839 950.6074,-967.432 1012,-959.6247 1020.3185,-958.5669 1029.0578,-957.3338 1037.6719,-956.0461"/>
<polygon fill="#191970" stroke="#191970" points="1038.3363,-959.4853 1047.6938,-954.5167 1037.2802,-952.5654 1038.3363,-959.4853"/>
</g>
<!-- Node13 -->
<g id="node14" class="node">
<title>Node13</title>
<g id="a_node14"><a xlink:href="a00086.xhtml#a2f08a046bc257029ca74b86b48204380" target="_top" xlink:title="Obtient la version de la norme MPEG du header d&#39;une frame MP3. ">
<polygon fill="#ffffff" stroke="#000000" points="873,-1012.1247 873,-1031.1247 1012,-1031.1247 1012,-1012.1247 873,-1012.1247"/>
<text text-anchor="middle" x="942.5" y="-1019.1247" font-family="Helvetica,sans-Serif" font-size="10.00" fill="#000000">mp3_mpeg_hdr_get_version</text>
</a>
</g>
</g>
<!-- Node12&#45;&gt;Node13 -->
<g id="edge20" class="edge">
<title>Node12&#45;&gt;Node13</title>
<path fill="none" stroke="#191970" d="M808.2954,-993.2137C832.4092,-998.3186 862.2508,-1004.636 887.6666,-1010.0165"/>
<polygon fill="#191970" stroke="#191970" points="887.0222,-1013.4576 897.5303,-1012.1047 888.472,-1006.6094 887.0222,-1013.4576"/>
</g>
<!-- Node13&#45;&gt;Node7 -->
<g id="edge21" class="edge">
<title>Node13&#45;&gt;Node7</title>
<path fill="none" stroke="#191970" d="M974.5056,-1012.0511C986.4762,-1008.0881 1000.0591,-1003.1281 1012,-997.6247 1035.2916,-986.8901 1060.3643,-971.7912 1077.8548,-960.6274"/>
<polygon fill="#191970" stroke="#191970" points="1079.7635,-963.5612 1086.2604,-955.1921 1075.9626,-957.683 1079.7635,-963.5612"/>
</g>
<!-- Node14&#45;&gt;Node7 -->
<g id="edge23" class="edge">
<title>Node14&#45;&gt;Node7</title>
<path fill="none" stroke="#191970" d="M788.687,-1031.1912C835.3636,-1046.9657 936.2674,-1073.5768 1012,-1040.6247 1047.8092,-1025.0438 1075.6832,-987.0418 1089.9617,-964.1021"/>
<polygon fill="#191970" stroke="#191970" points="1093.0966,-965.6796 1095.2322,-955.3022 1087.0913,-962.0828 1093.0966,-965.6796"/>
</g>
<!-- Node14&#45;&gt;Node13 -->
<g id="edge24" class="edge">
<title>Node14&#45;&gt;Node13</title>
<path fill="none" stroke="#191970" d="M837.0459,-1021.6247C845.5835,-1021.6247 854.3168,-1021.6247 862.9237,-1021.6247"/>
<polygon fill="#191970" stroke="#191970" points="862.9501,-1025.1248 872.9501,-1021.6247 862.9501,-1018.1248 862.9501,-1025.1248"/>
</g>
<!-- Node15&#45;&gt;Node7 -->
<g id="edge26" class="edge">
<title>Node15&#45;&gt;Node7</title>
<path fill="none" stroke="#191970" d="M982.3701,-917.2137C1003.2199,-922.2282 1028.9346,-928.4128 1051.0429,-933.73"/>
<polygon fill="#191970" stroke="#191970" points="1050.3754,-937.1692 1060.9166,-936.1047 1052.0123,-930.3632 1050.3754,-937.1692"/>
</g>
<!-- Node18&#45;&gt;Node6 -->
<g id="edge30" class="edge">
<title>Node18&#45;&gt;Node6</title>
<path fill="none" stroke="#191970" d="M183.1293,-301.5255C221.2047,-304.1989 289.2802,-309.759 347,-318.6247 359.8967,-320.6056 373.7261,-323.2438 386.5962,-325.9222"/>
<polygon fill="#191970" stroke="#191970" points="386.1664,-329.409 396.6759,-328.0671 387.6234,-322.5623 386.1664,-329.409"/>
</g>
<!-- Node19 -->
<g id="node20" class="node">
<title>Node19</title>
<g id="a_node20"><a xlink:href="a00116.xhtml#aed2bc32539848b035b9ad4fc2efd98e8" target="_top" xlink:title="Écrit des données XORées avec un mot de passe. ">
<polygon fill="#ffffff" stroke="#000000" points="388.5,-62.1247 388.5,-81.1247 486.5,-81.1247 486.5,-62.1247 388.5,-62.1247"/>
<text text-anchor="middle" x="437.5" y="-69.1247" font-family="Helvetica,sans-Serif" font-size="10.00" fill="#000000">data_xor_write_file</text>
</a>
</g>
</g>
<!-- Node18&#45;&gt;Node19 -->
<g id="edge31" class="edge">
<title>Node18&#45;&gt;Node19</title>
<path fill="none" stroke="#191970" d="M183.1296,-292.4166C189.7155,-289.6415 196.1666,-285.833 201,-280.6247 237.1429,-241.6786 202.8374,-207.3191 237,-166.6247 274.4939,-121.9622 337.7613,-96.9005 383.2063,-83.8763"/>
<polygon fill="#191970" stroke="#191970" points="384.1957,-87.2342 392.9049,-81.2008 382.3341,-80.4862 384.1957,-87.2342"/>
</g>
<!-- Node20 -->
<g id="node21" class="node">
<title>Node20</title>
<g id="a_node21"><a xlink:href="a00116.xhtml#af1d405b272ef2dc101b959264bad47e1" target="_top" xlink:title="Écrit des données mélangé ou remise en ordre avec un mot de passe. ">
<polygon fill="#ffffff" stroke="#000000" points="238.5,-176.1247 238.5,-195.1247 345.5,-195.1247 345.5,-176.1247 238.5,-176.1247"/>
<text text-anchor="middle" x="292" y="-183.1247" font-family="Helvetica,sans-Serif" font-size="10.00" fill="#000000">data_scramble_write</text>
</a>
</g>
</g>
<!-- Node18&#45;&gt;Node20 -->
<g id="edge35" class="edge">
<title>Node18&#45;&gt;Node20</title>
<path fill="none" stroke="#191970" d="M183.1369,-291.7232C189.5707,-288.9869 195.9521,-285.3696 201,-280.6247 228.2333,-255.0262 209.1616,-229.5639 237,-204.6247 238.7424,-203.0638 240.6196,-201.6298 242.5929,-200.3125"/>
<polygon fill="#191970" stroke="#191970" points="244.6839,-203.1557 251.7408,-195.2531 241.296,-197.0302 244.6839,-203.1557"/>
</g>
<!-- Node19&#45;&gt;Node2 -->
<g id="edge32" class="edge">
<title>Node19&#45;&gt;Node2</title>
<path fill="none" stroke="#191970" d="M465.5684,-81.213C474.0792,-84.1733 483.4401,-87.4824 492,-90.6247 513.6855,-98.5853 537.8923,-107.9178 556.8821,-115.3419"/>
<polygon fill="#191970" stroke="#191970" points="555.7084,-118.6411 566.296,-119.033 558.2636,-112.1241 555.7084,-118.6411"/>
</g>
<!-- Node19&#45;&gt;Node3 -->
<g id="edge33" class="edge">
<title>Node19&#45;&gt;Node3</title>
<path fill="none" stroke="#191970" d="M479.1316,-81.1875C483.9238,-83.6468 488.3806,-86.7383 492,-90.6247 533.7354,-135.4385 496.103,-171.3494 528,-223.6247 538.0396,-240.0784 554.2132,-254.6434 567.5921,-264.9315"/>
<polygon fill="#191970" stroke="#191970" points="565.7628,-267.9313 575.8878,-271.0515 569.9185,-262.2983 565.7628,-267.9313"/>
</g>
<!-- Node19&#45;&gt;Node4 -->
<g id="edge34" class="edge">
<title>Node19&#45;&gt;Node4</title>
<path fill="none" stroke="#191970" d="M475.5786,-81.1623C481.4315,-83.6523 487.1361,-86.7597 492,-90.6247 515.4583,-109.2657 508.7581,-124.6568 528,-147.6247 540.6875,-162.7691 557.3004,-177.7376 570.2091,-188.5329"/>
<polygon fill="#191970" stroke="#191970" points="568.1261,-191.351 578.0786,-194.9841 572.564,-185.9376 568.1261,-191.351"/>
</g>
<!-- Node21 -->
<g id="node22" class="node">
<title>Node21</title>
<g id="a_node22"><a xlink:href="a00116.xhtml#a3fd0a8f9ba189acd34f864c97f059b0f" target="_top" xlink:title="Fait le mélange ou réarrange les octets selon l&#39;algorithme de protection des données. ">
<polygon fill="#ffffff" stroke="#000000" points="402,-176.1247 402,-195.1247 473,-195.1247 473,-176.1247 402,-176.1247"/>
<text text-anchor="middle" x="437.5" y="-183.1247" font-family="Helvetica,sans-Serif" font-size="10.00" fill="#000000">protect_data</text>
</a>
</g>
</g>
<!-- Node20&#45;&gt;Node21 -->
<g id="edge36" class="edge">
<title>Node20&#45;&gt;Node21</title>
<path fill="none" stroke="#191970" d="M345.7654,-185.6247C360.7479,-185.6247 376.8854,-185.6247 391.3852,-185.6247"/>
<polygon fill="#191970" stroke="#191970" points="391.614,-189.1248 401.6139,-185.6247 391.6139,-182.1248 391.614,-189.1248"/>
</g>
<!-- Node22 -->
<g id="node23" class="node">
<title>Node22</title>
<g id="a_node23"><a xlink:href="a00116.xhtml#a7a07539cd0f2054ed61e4300f1e9a3d5" target="_top" xlink:title="Écrit des données XORées avec un mot de passe. ">
<polygon fill="#ffffff" stroke="#000000" points="388,-100.1247 388,-119.1247 487,-119.1247 487,-100.1247 388,-100.1247"/>
<text text-anchor="middle" x="437.5" y="-107.1247" font-family="Helvetica,sans-Serif" font-size="10.00" fill="#000000">data_xor_write_tab</text>
</a>
</g>
</g>
<!-- Node20&#45;&gt;Node22 -->
<g id="edge40" class="edge">
<title>Node20&#45;&gt;Node22</title>
<path fill="none" stroke="#191970" d="M307.51,-176.1002C325.4082,-165.2654 355.8661,-147.3049 383,-133.6247 389.9815,-130.1049 397.5942,-126.5702 404.856,-123.3366"/>
<polygon fill="#191970" stroke="#191970" points="406.6876,-126.3558 414.4486,-119.1436 403.8839,-119.9418 406.6876,-126.3558"/>
</g>
<!-- Node21&#45;&gt;Node2 -->
<g id="edge37" class="edge">
<title>Node21&#45;&gt;Node2</title>
<path fill="none" stroke="#191970" d="M463.1088,-176.0842C488.3729,-166.6721 527.1897,-152.2109 555.3365,-141.7248"/>
<polygon fill="#191970" stroke="#191970" points="556.6588,-144.9673 564.8077,-138.1964 554.215,-138.4077 556.6588,-144.9673"/>
</g>
<!-- Node21&#45;&gt;Node3 -->
<g id="edge38" class="edge">
<title>Node21&#45;&gt;Node3</title>
<path fill="none" stroke="#191970" d="M453.0124,-195.2566C479.7025,-211.8289 534.4982,-245.8524 566.2624,-265.5752"/>
<polygon fill="#191970" stroke="#191970" points="564.6047,-268.6657 574.9465,-270.9673 568.2972,-262.7188 564.6047,-268.6657"/>
</g>
<!-- Node21&#45;&gt;Node4 -->
<g id="edge39" class="edge">
<title>Node21&#45;&gt;Node4</title>
<path fill="none" stroke="#191970" d="M473.3717,-190.0794C495.684,-192.8502 524.4922,-196.4277 547.9545,-199.3413"/>
<polygon fill="#191970" stroke="#191970" points="547.6258,-202.8273 557.981,-200.5864 548.4886,-195.8806 547.6258,-202.8273"/>
</g>
<!-- Node22&#45;&gt;Node2 -->
<g id="edge41" class="edge">
<title>Node22&#45;&gt;Node2</title>
<path fill="none" stroke="#191970" d="M487.1747,-115.7935C505.7882,-118.105 526.8276,-120.7177 545.0403,-122.9794"/>
<polygon fill="#191970" stroke="#191970" points="544.7598,-126.4714 555.1149,-124.2305 545.6225,-119.5247 544.7598,-126.4714"/>
</g>
<!-- Node22&#45;&gt;Node3 -->
<g id="edge42" class="edge">
<title>Node22&#45;&gt;Node3</title>
<path fill="none" stroke="#191970" d="M447.784,-119.1651C459.2468,-130.0644 478.0088,-148.714 492,-166.6247 510.4452,-190.2373 508.7581,-200.6568 528,-223.6247 540.6875,-238.7691 557.3004,-253.7376 570.2091,-264.5329"/>
<polygon fill="#191970" stroke="#191970" points="568.1261,-267.351 578.0786,-270.9841 572.564,-261.9376 568.1261,-267.351"/>
</g>
<!-- Node22&#45;&gt;Node4 -->
<g id="edge43" class="edge">
<title>Node22&#45;&gt;Node4</title>
<path fill="none" stroke="#191970" d="M462.1811,-119.1975C471.7161,-123.2276 482.5777,-128.2338 492,-133.6247 520.8779,-150.1471 551.5875,-173.2834 570.894,-188.5984"/>
<polygon fill="#191970" stroke="#191970" points="568.9242,-191.5053 578.9146,-195.0328 573.3045,-186.0451 568.9242,-191.5053"/>
</g>
<!-- Node24 -->
<g id="node25" class="node">
<title>Node24</title>
<g id="a_node25"><a xlink:href="a00074.xhtml#a9b0bec96351bc1e6be9134900590d215" target="_top" xlink:title="Va inserer les donnees cachees en utilisant l&#39;algorithme Metadata dans le format BMP. ">
<polygon fill="#ffffff" stroke="#000000" points="237,-214.1247 237,-233.1247 347,-233.1247 347,-214.1247 237,-214.1247"/>
<text text-anchor="middle" x="292" y="-221.1247" font-family="Helvetica,sans-Serif" font-size="10.00" fill="#000000">insert_metadata_bmp</text>
</a>
</g>
</g>
<!-- Node23&#45;&gt;Node24 -->
<g id="edge45" class="edge">
<title>Node23&#45;&gt;Node24</title>
<path fill="none" stroke="#191970" d="M187.0785,-327.926C192.1326,-325.4554 196.9876,-322.3963 201,-318.6247 228.2333,-293.0262 209.1616,-267.5639 237,-242.6247 238.7424,-241.0638 240.6196,-239.6298 242.5929,-238.3125"/>
<polygon fill="#191970" stroke="#191970" points="244.6839,-241.1557 251.7408,-233.2531 241.296,-235.0302 244.6839,-241.1557"/>
</g>
<!-- Node25 -->
<g id="node26" class="node">
<title>Node25</title>
<g id="a_node26"><a xlink:href="a00092.xhtml#a2386f518ec5df78485cca31c6fe4f858" target="_top" xlink:title="Va inserer les donnees cachees en utilisant l&#39;algorithme Metadata dans le format PNG. ">
<polygon fill="#ffffff" stroke="#000000" points="238.5,-252.1247 238.5,-271.1247 345.5,-271.1247 345.5,-252.1247 238.5,-252.1247"/>
<text text-anchor="middle" x="292" y="-259.1247" font-family="Helvetica,sans-Serif" font-size="10.00" fill="#000000">insert_metadata_png</text>
</a>
</g>
</g>
<!-- Node23&#45;&gt;Node25 -->
<g id="edge51" class="edge">
<title>Node23&#45;&gt;Node25</title>
<path fill="none" stroke="#191970" d="M180.0059,-327.9954C186.9478,-325.2111 194.3484,-322.0039 201,-318.6247 225.3434,-306.2577 251.6197,-289.3832 269.6483,-277.2075"/>
<polygon fill="#191970" stroke="#191970" points="271.9874,-279.8483 278.2703,-271.3174 268.0388,-274.0682 271.9874,-279.8483"/>
</g>
<!-- Node26 -->
<g id="node27" class="node">
<title>Node26</title>
<g id="a_node27"><a xlink:href="a00068.xhtml#ac4b663dd386f05a601c55cd34b99cca4" target="_top" xlink:title="Va inserer les donnees cachees en utilisant l&#39;algorithme Metadata dans le format AVI. ">
<polygon fill="#ffffff" stroke="#000000" points="240,-328.1247 240,-347.1247 344,-347.1247 344,-328.1247 240,-328.1247"/>
<text text-anchor="middle" x="292" y="-335.1247" font-family="Helvetica,sans-Serif" font-size="10.00" fill="#000000">insert_metadata_avi</text>
</a>
</g>
</g>
<!-- Node23&#45;&gt;Node26 -->
<g id="edge58" class="edge">
<title>Node23&#45;&gt;Node26</title>
<path fill="none" stroke="#191970" d="M196.5631,-337.6247C207.0201,-337.6247 218.4115,-337.6247 229.5647,-337.6247"/>
<polygon fill="#191970" stroke="#191970" points="229.707,-341.1248 239.7069,-337.6247 229.7069,-334.1248 229.707,-341.1248"/>
</g>
<!-- Node27 -->
<g id="node28" class="node">
<title>Node27</title>
<g id="a_node28"><a xlink:href="a00080.xhtml#aca61ada38d1e29a78be8587538cabdf6" target="_top" xlink:title="Va inserer les donnees cachees en utilisant l&#39;algorithme Metadata dans le format FLV. ">
<polygon fill="#ffffff" stroke="#000000" points="241,-366.1247 241,-385.1247 343,-385.1247 343,-366.1247 241,-366.1247"/>
<text text-anchor="middle" x="292" y="-373.1247" font-family="Helvetica,sans-Serif" font-size="10.00" fill="#000000">insert_metadata_flv</text>
</a>
</g>
</g>
<!-- Node23&#45;&gt;Node27 -->
<g id="edge59" class="edge">
<title>Node23&#45;&gt;Node27</title>
<path fill="none" stroke="#191970" d="M188.4494,-347.2137C206.3284,-352.1192 228.2884,-358.1443 247.3778,-363.3818"/>
<polygon fill="#191970" stroke="#191970" points="246.4921,-366.7681 257.0618,-366.0388 248.3443,-360.0175 246.4921,-366.7681"/>
</g>
<!-- Node24&#45;&gt;Node2 -->
<g id="edge46" class="edge">
<title>Node24&#45;&gt;Node2</title>
<path fill="none" stroke="#191970" d="M334.8216,-214.0694C339.4061,-211.6085 343.6214,-208.5145 347,-204.6247 401.9292,-141.3848 318.3597,-72.8988 383,-19.6247 420.3841,11.1859 447.7261,.0396 492,-19.6247 533.752,-38.1689 565.2986,-84.1239 580.4812,-110.054"/>
<polygon fill="#191970" stroke="#191970" points="577.5197,-111.9277 585.486,-118.9126 583.6144,-108.4844 577.5197,-111.9277"/>
</g>
<!-- Node24&#45;&gt;Node3 -->
<g id="edge47" class="edge">
<title>Node24&#45;&gt;Node3</title>
<path fill="none" stroke="#191970" d="M341.9622,-233.1652C398.7168,-244.0028 490.5273,-261.5345 545.2494,-271.9839"/>
<polygon fill="#191970" stroke="#191970" points="544.8693,-275.4745 555.3483,-273.9123 546.1823,-268.5987 544.8693,-275.4745"/>
</g>
<!-- Node24&#45;&gt;Node4 -->
<g id="edge48" class="edge">
<title>Node24&#45;&gt;Node4</title>
<path fill="none" stroke="#191970" d="M327.7882,-214.0665C334.4447,-211.522 341.1409,-208.4011 347,-204.6247 366.5547,-192.0212 361.6287,-175.8172 383,-166.6247 444.5138,-140.1657 524.0077,-170.8866 564.4187,-190.6059"/>
<polygon fill="#191970" stroke="#191970" points="562.8486,-193.7339 573.3548,-195.1013 565.9944,-187.4806 562.8486,-193.7339"/>
</g>
<!-- Node24&#45;&gt;Node6 -->
<g id="edge50" class="edge">
<title>Node24&#45;&gt;Node6</title>
<path fill="none" stroke="#191970" d="M327.7798,-233.1959C334.4371,-235.7393 341.1357,-238.8565 347,-242.6247 364.2282,-253.6951 401.8989,-296.0776 422.7981,-320.3274"/>
<polygon fill="#191970" stroke="#191970" points="420.2657,-322.751 429.43,-328.0676 425.5814,-318.1965 420.2657,-322.751"/>
</g>
<!-- Node24&#45;&gt;Node21 -->
<g id="edge49" class="edge">
<title>Node24&#45;&gt;Node21</title>
<path fill="none" stroke="#191970" d="M328.7158,-214.0357C347.9602,-209.0097 371.7051,-202.8083 392.0958,-197.4829"/>
<polygon fill="#191970" stroke="#191970" points="393.0109,-200.8614 401.8019,-194.9479 391.242,-194.0885 393.0109,-200.8614"/>
</g>
<!-- Node25&#45;&gt;Node2 -->
<g id="edge52" class="edge">
<title>Node25&#45;&gt;Node2</title>
<path fill="none" stroke="#191970" d="M334.8401,-252.0854C339.4215,-249.6218 343.631,-246.5228 347,-242.6247 403.1998,-177.5983 316.8108,-107.4504 383,-52.6247 420.3079,-21.7219 446.1473,-36.9916 492,-52.6247 526.014,-64.2215 557.4211,-92.8463 575.2426,-111.467"/>
<polygon fill="#191970" stroke="#191970" points="572.8572,-114.0419 582.2262,-118.9888 577.9871,-109.279 572.8572,-114.0419"/>
</g>
<!-- Node25&#45;&gt;Node3 -->
<g id="edge53" class="edge">
<title>Node25&#45;&gt;Node3</title>
<path fill="none" stroke="#191970" d="M345.7539,-271.0655C357.963,-272.8831 370.8992,-274.5526 383,-275.6247 438.5911,-280.5502 502.8644,-281.346 544.9684,-281.2062"/>
<polygon fill="#191970" stroke="#191970" points="545.195,-284.7052 555.1764,-281.1524 545.158,-277.7053 545.195,-284.7052"/>
</g>
<!-- Node25&#45;&gt;Node4 -->
<g id="edge54" class="edge">
<title>Node25&#45;&gt;Node4</title>
<path fill="none" stroke="#191970" d="M341.9622,-252.0842C399.6523,-241.068 493.5635,-223.1352 547.9249,-212.7546"/>
<polygon fill="#191970" stroke="#191970" points="548.7564,-216.1592 557.9224,-210.8456 547.4434,-209.2834 548.7564,-216.1592"/>
</g>
<!-- Node25&#45;&gt;Node6 -->
<g id="edge57" class="edge">
<title>Node25&#45;&gt;Node6</title>
<path fill="none" stroke="#191970" d="M317.5695,-271.2208C327.0705,-275.1863 337.7756,-280.1423 347,-285.6247 364.4245,-295.9809 365.5929,-303.2393 383,-313.6247 389.3481,-317.4121 396.4016,-320.9561 403.2712,-324.0971"/>
<polygon fill="#191970" stroke="#191970" points="401.8774,-327.3076 412.4414,-328.1156 404.6871,-320.8962 401.8774,-327.3076"/>
</g>
<!-- Node25&#45;&gt;Node9 -->
<g id="edge56" class="edge">
<title>Node25&#45;&gt;Node9</title>
<path fill="none" stroke="#191970" d="M303.0765,-271.3432C314.9155,-282.107 333.7653,-300.364 347,-318.6247 383.9957,-369.6699 415.3894,-437.7822 429.5096,-470.4984"/>
<polygon fill="#191970" stroke="#191970" points="426.3361,-471.9793 433.4724,-479.8103 432.7771,-469.2383 426.3361,-471.9793"/>
</g>
<!-- Node25&#45;&gt;Node21 -->
<g id="edge55" class="edge">
<title>Node25&#45;&gt;Node21</title>
<path fill="none" stroke="#191970" d="M326.711,-252.0576C333.6667,-249.479 340.7512,-246.3474 347,-242.6247 365.6469,-231.516 364.8253,-221.4902 383,-209.6247 388.8164,-205.8274 395.3338,-202.3702 401.7835,-199.3361"/>
<polygon fill="#191970" stroke="#191970" points="403.3749,-202.4591 411.0953,-195.2032 400.5352,-196.061 403.3749,-202.4591"/>
</g>
<!-- Node28&#45;&gt;Node2 -->
<g id="edge63" class="edge">
<title>Node28&#45;&gt;Node2</title>
<path fill="none" stroke="#191970" d="M323.1294,-405.1949C378.6004,-390.1132 489.0534,-359.7856 492,-356.6247 544.9587,-299.8147 489.4468,-253.0462 528,-185.6247 537.5081,-168.997 553.5515,-154.5165 567.0026,-144.3115"/>
<polygon fill="#191970" stroke="#191970" points="569.3311,-146.9464 575.3729,-138.2431 565.2223,-141.2791 569.3311,-146.9464"/>
</g>
<!-- Node28&#45;&gt;Node3 -->
<g id="edge64" class="edge">
<title>Node28&#45;&gt;Node3</title>
<path fill="none" stroke="#191970" d="M316.1895,-423.1417C355.614,-437.0175 435.0368,-458.0244 492,-427.6247 543.1347,-400.3355 572.399,-333.4248 584.2551,-300.1173"/>
<polygon fill="#191970" stroke="#191970" points="587.716,-300.8101 587.6149,-290.2157 581.0872,-298.5608 587.716,-300.8101"/>
</g>
<!-- Node28&#45;&gt;Node4 -->
<g id="edge65" class="edge">
<title>Node28&#45;&gt;Node4</title>
<path fill="none" stroke="#191970" d="M323.2169,-419.573C366.4925,-425.897 444.7129,-430.1076 492,-389.6247 536.892,-351.1923 496.9713,-311.9195 528,-261.6247 538.1203,-245.2206 554.2919,-230.6543 567.6496,-220.3532"/>
<polygon fill="#191970" stroke="#191970" points="569.9748,-222.9867 575.9293,-214.2235 565.8096,-217.3607 569.9748,-222.9867"/>
</g>
<!-- Node28&#45;&gt;Node6 -->
<g id="edge67" class="edge">
<title>Node28&#45;&gt;Node6</title>
<path fill="none" stroke="#191970" d="M323.2483,-405.3009C331.282,-402.5065 339.7097,-398.9679 347,-394.6247 365.6469,-383.516 364.8253,-373.4902 383,-361.6247 388.8164,-357.8274 395.3338,-354.3702 401.7835,-351.3361"/>
<polygon fill="#191970" stroke="#191970" points="403.3749,-354.4591 411.0953,-347.2032 400.5352,-348.061 403.3749,-354.4591"/>
</g>
<!-- Node28&#45;&gt;Node8 -->
<g id="edge62" class="edge">
<title>Node28&#45;&gt;Node8</title>
<path fill="none" stroke="#191970" d="M292.846,-423.1966C296.4062,-457.1288 313.393,-572.3273 383,-622.6247 428.4278,-655.4505 494.8705,-655.5029 540.2527,-650.428"/>
<polygon fill="#191970" stroke="#191970" points="540.9619,-653.8669 550.4546,-649.1617 540.0996,-646.9202 540.9619,-653.8669"/>
</g>
<!-- Node28&#45;&gt;Node9 -->
<g id="edge66" class="edge">
<title>Node28&#45;&gt;Node9</title>
<path fill="none" stroke="#191970" d="M307.51,-423.1493C325.4082,-433.984 355.8661,-451.9445 383,-465.6247 389.9815,-469.1446 397.5942,-472.6792 404.856,-475.9128"/>
<polygon fill="#191970" stroke="#191970" points="403.8839,-479.3076 414.4486,-480.1059 406.6876,-472.8936 403.8839,-479.3076"/>
</g>
<!-- Node28&#45;&gt;Node21 -->
<g id="edge61" class="edge">
<title>Node28&#45;&gt;Node21</title>
<path fill="none" stroke="#191970" d="M323.2603,-407.7195C331.7485,-404.8947 340.4054,-400.7362 347,-394.6247 354.5135,-387.6617 409.1797,-254.9834 429.7241,-204.7122"/>
<polygon fill="#191970" stroke="#191970" points="433.0229,-205.8917 433.5609,-195.3106 426.5418,-203.2468 433.0229,-205.8917"/>
</g>
</g>
</svg>
        <g id="navigator" transform="translate(0 0)" fill="#404254">
                <rect fill="#f2f5e9" fill-opacity="0.5" stroke="#606060" stroke-width=".5" x="0" y="0" width="60" height="60"/>
                <use id="zoomplus" xlink:href="#zoomPlus" x="17" y="9" onmousedown="handleZoom(evt,'in')"/>
                <use id="zoomminus" xlink:href="#zoomMin" x="42" y="9" onmousedown="handleZoom(evt,'out')"/>
                <use id="reset" xlink:href="#resetDef" x="30" y="36" onmousedown="handleReset()"/>
                <g id="arrowUp" xlink:href="#dirArrow" transform="translate(30 24)" onmousedown="handlePan(0,-1)">
                  <use xlink:href="#rim" fill="#404040">
                        <set attributeName="fill" to="#808080" begin="arrowUp.mouseover" end="arrowUp.mouseout"/>
                  </use>
                  <path fill="none" stroke="white" stroke-width="1.5" d="M0,-3.0v7 M-2.5,-0.5L0,-3.0L2.5,-0.5"/>
                </g>
                <g id="arrowRight" xlink:href="#dirArrow" transform="rotate(90) translate(36 -43)" onmousedown="handlePan(1,0)">
                  <use xlink:href="#rim" fill="#404040">
                        <set attributeName="fill" to="#808080" begin="arrowRight.mouseover" end="arrowRight.mouseout"/>
                  </use>
                  <path fill="none" stroke="white" stroke-width="1.5" d="M0,-3.0v7 M-2.5,-0.5L0,-3.0L2.5,-0.5"/>
                </g>
                <g id="arrowDown" xlink:href="#dirArrow" transform="rotate(180) translate(-30 -48)" onmousedown="handlePan(0,1)">
                  <use xlink:href="#rim" fill="#404040">
                        <set attributeName="fill" to="#808080" begin="arrowDown.mouseover" end="arrowDown.mouseout"/>
                  </use>
                  <path fill="none" stroke="white" stroke-width="1.5" d="M0,-3.0v7 M-2.5,-0.5L0,-3.0L2.5,-0.5"/>
                </g>
                <g id="arrowLeft" xlink:href="#dirArrow" transform="rotate(270) translate(-36 17)" onmousedown="handlePan(-1,0)">
                  <use xlink:href="#rim" fill="#404040">
                        <set attributeName="fill" to="#808080" begin="arrowLeft.mouseover" end="arrowLeft.mouseout"/>
                  </use>
                  <path fill="none" stroke="white" stroke-width="1.5" d="M0,-3.0v7 M-2.5,-0.5L0,-3.0L2.5,-0.5"/>
                </g>
        </g>
        <svg viewBox="0 0 15 15" width="100%" height="30px" preserveAspectRatio="xMaxYMin meet">
         <g id="arrow_out" transform="scale(0.3 0.3)">
          <a xlink:href="a00110_a45a1d0709604d55e9d467cb39d6a5b54_cgraph_org.svg" target="_base">
           <rect id="button" ry="5" rx="5" y="6" x="6" height="38" width="38"
                fill="#f2f5e9" fill-opacity="0.5" stroke="#606060" stroke-width="1.0"/>
           <path id="arrow"
             d="M 11.500037,31.436501 C 11.940474,20.09759 22.043105,11.32322 32.158766,21.979434 L 37.068811,17.246167 C 37.068811,17.246167 37.088388,32 37.088388,32 L 22.160133,31.978069 C 22.160133,31.978069 26.997745,27.140456 26.997745,27.140456 C 18.528582,18.264221 13.291696,25.230495 11.500037,31.436501 z"
             style="fill:#404040;"/>
          </a>
         </g>
        </svg>
</svg>
