<?xml version="1.0" encoding="UTF-8" standalone="no"?>
<!DOCTYPE svg PUBLIC "-//W3C//DTD SVG 1.1//EN"
 "http://www.w3.org/Graphics/SVG/1.1/DTD/svg11.dtd">
<!-- Generated by graphviz version 2.40.1 (20161225.0304)
 -->
<!-- Title: fill_host_info Pages: 1 -->
<svg width="895pt" height="411pt"
 viewBox="0.00 0.00 895.00 410.77" xmlns="http://www.w3.org/2000/svg" xmlns:xlink="http://www.w3.org/1999/xlink">
<g id="graph0" class="graph" transform="scale(1 1) rotate(0) translate(4 406.7683)">
<title>fill_host_info</title>
<polygon fill="#ffffff" stroke="transparent" points="-4,4 -4,-406.7683 891,-406.7683 891,4 -4,4"/>
<!-- Node0 -->
<g id="node1" class="node">
<title>Node0</title>
<polygon fill="#bfbfbf" stroke="#000000" points="0,-209.5 0,-228.5 71,-228.5 71,-209.5 0,-209.5"/>
<text text-anchor="middle" x="35.5" y="-216.5" font-family="Helvetica,sans-Serif" font-size="10.00" fill="#000000">fill_host_info</text>
</g>
<!-- Node1 -->
<g id="node2" class="node">
<title>Node1</title>
<g id="a_node2"><a xlink:href="a00056.xhtml#a7434fd197d31a9571f92f9dca4f212e9" target="_top" xlink:title="Convertit un nombre en big endian dans l&#39;endian de la machine. ">
<polygon fill="#ffffff" stroke="#000000" points="457,-380.5 457,-399.5 537,-399.5 537,-380.5 457,-380.5"/>
<text text-anchor="middle" x="497" y="-387.5" font-family="Helvetica,sans-Serif" font-size="10.00" fill="#000000">stegx_be32toh</text>
</a>
</g>
</g>
<!-- Node0&#45;&gt;Node1 -->
<g id="edge1" class="edge">
<title>Node0&#45;&gt;Node1</title>
<path fill="none" stroke="#191970" d="M39.118,-228.6803C47.6667,-250.3203 71.1299,-303.058 107,-333 163.9594,-380.5459 189.1432,-380.9691 262,-395 324.7182,-407.0784 398.5882,-402.5186 446.5299,-397.1506"/>
<polygon fill="#191970" stroke="#191970" points="447.1262,-400.6047 456.6497,-395.9621 446.3097,-393.6525 447.1262,-400.6047"/>
</g>
<!-- Node2 -->
<g id="node3" class="node">
<title>Node2</title>
<g id="a_node3"><a xlink:href="a00086.xhtml#afc3c44f7f4f0993fbc17c150c728e677" target="_top" xlink:title="Trouve la première frame MPEG 1/2 Layer III. ">
<polygon fill="#ffffff" stroke="#000000" points="107,-304.5 107,-323.5 226,-323.5 226,-304.5 107,-304.5"/>
<text text-anchor="middle" x="166.5" y="-311.5" font-family="Helvetica,sans-Serif" font-size="10.00" fill="#000000">mp3_mpeg_fr_find_first</text>
</a>
</g>
</g>
<!-- Node0&#45;&gt;Node2 -->
<g id="edge2" class="edge">
<title>Node0&#45;&gt;Node2</title>
<path fill="none" stroke="#191970" d="M49.0259,-228.8089C71.7951,-245.3209 117.9505,-278.7924 145.1364,-298.5073"/>
<polygon fill="#191970" stroke="#191970" points="143.0926,-301.3486 153.2428,-304.386 147.2022,-295.6819 143.0926,-301.3486"/>
</g>
<!-- Node6 -->
<g id="node7" class="node">
<title>Node6</title>
<g id="a_node7"><a xlink:href="a00086.xhtml#a75bc8b052a4d00ab95b05b576918360d" target="_top" xlink:title="Test si le header est un header MPEG 1/2 Layer III. ">
<polygon fill="#ffffff" stroke="#000000" points="782,-133.5 782,-152.5 887,-152.5 887,-133.5 782,-133.5"/>
<text text-anchor="middle" x="834.5" y="-140.5" font-family="Helvetica,sans-Serif" font-size="10.00" fill="#000000">mp3_mpeg_hdr_test</text>
</a>
</g>
</g>
<!-- Node0&#45;&gt;Node6 -->
<g id="edge9" class="edge">
<title>Node0&#45;&gt;Node6</title>
<path fill="none" stroke="#191970" d="M71.0437,-222.8449C125.5241,-228.3968 232.9869,-238 324.5,-238 324.5,-238 324.5,-238 497,-238 610.1458,-238 638.8284,-221.2798 746,-185 767.7472,-177.6381 791.169,-166.3609 808.4515,-157.345"/>
<polygon fill="#191970" stroke="#191970" points="810.1812,-160.3894 817.3716,-152.6081 806.8981,-154.2071 810.1812,-160.3894"/>
</g>
<!-- Node7 -->
<g id="node8" class="node">
<title>Node7</title>
<g id="a_node8"><a xlink:href="a00086.xhtml#aee166f42b332d8c5b51d25a9ef8c14b7" target="_top" xlink:title="Saute la frame MP3 actuelle. ">
<polygon fill="#ffffff" stroke="#000000" points="115.5,-190.5 115.5,-209.5 217.5,-209.5 217.5,-190.5 115.5,-190.5"/>
<text text-anchor="middle" x="166.5" y="-197.5" font-family="Helvetica,sans-Serif" font-size="10.00" fill="#000000">mp3_mpeg_fr_seek</text>
</a>
</g>
</g>
<!-- Node0&#45;&gt;Node7 -->
<g id="edge10" class="edge">
<title>Node0&#45;&gt;Node7</title>
<path fill="none" stroke="#191970" d="M71.2963,-213.8082C81.7257,-212.2955 93.4298,-210.598 104.969,-208.9243"/>
<polygon fill="#191970" stroke="#191970" points="105.6368,-212.3642 115.0309,-207.465 104.632,-205.4367 105.6368,-212.3642"/>
</g>
<!-- Node13 -->
<g id="node14" class="node">
<title>Node13</title>
<g id="a_node14"><a xlink:href="a00086.xhtml#aaccf359620da01d34de43ba7ce7f3513" target="_top" xlink:title="Test si le header est un header ID3v1. ">
<polygon fill="#ffffff" stroke="#000000" points="114.5,-152.5 114.5,-171.5 218.5,-171.5 218.5,-152.5 114.5,-152.5"/>
<text text-anchor="middle" x="166.5" y="-159.5" font-family="Helvetica,sans-Serif" font-size="10.00" fill="#000000">mp3_id3v1_hdr_test</text>
</a>
</g>
</g>
<!-- Node0&#45;&gt;Node13 -->
<g id="edge23" class="edge">
<title>Node0&#45;&gt;Node13</title>
<path fill="none" stroke="#191970" d="M51.564,-209.3892C65.7949,-201.1379 87.3095,-189.2972 107,-181 112.1838,-178.8157 117.7099,-176.7364 123.2267,-174.8094"/>
<polygon fill="#191970" stroke="#191970" points="124.6986,-178.0077 133.071,-171.5152 122.4772,-171.3695 124.6986,-178.0077"/>
</g>
<!-- Node14 -->
<g id="node15" class="node">
<title>Node14</title>
<g id="a_node15"><a xlink:href="a00086.xhtml#ab0fd93a465f2e320e749093c17f20823" target="_top" xlink:title="Saute le tag ID3v1 actuel. ">
<polygon fill="#ffffff" stroke="#000000" points="112,-114.5 112,-133.5 221,-133.5 221,-114.5 112,-114.5"/>
<text text-anchor="middle" x="166.5" y="-121.5" font-family="Helvetica,sans-Serif" font-size="10.00" fill="#000000">mp3_id3v1_tag_seek</text>
</a>
</g>
</g>
<!-- Node0&#45;&gt;Node14 -->
<g id="edge24" class="edge">
<title>Node0&#45;&gt;Node14</title>
<path fill="none" stroke="#191970" d="M42.0372,-209.3501C53.4008,-193.2913 78.343,-161.0663 107,-143 110.3109,-140.9127 113.8709,-139.0363 117.5441,-137.3528"/>
<polygon fill="#191970" stroke="#191970" points="118.8989,-140.5802 126.8299,-133.5553 116.2492,-134.1011 118.8989,-140.5802"/>
</g>
<!-- Node2&#45;&gt;Node1 -->
<g id="edge3" class="edge">
<title>Node2&#45;&gt;Node1</title>
<path fill="none" stroke="#191970" d="M178.287,-323.512C195.5052,-336.8018 229.0788,-360.4765 262,-371 323.386,-390.6224 398.1548,-393.2951 446.6249,-392.4448"/>
<polygon fill="#191970" stroke="#191970" points="446.9385,-395.9385 456.854,-392.206 446.775,-388.9404 446.9385,-395.9385"/>
</g>
<!-- Node3 -->
<g id="node4" class="node">
<title>Node3</title>
<g id="a_node4"><a xlink:href="a00086.xhtml#ad5c1775e3137194eae404a93a564ab96" target="_top" xlink:title="Test si le header est un header ID3v2. ">
<polygon fill="#ffffff" stroke="#000000" points="272.5,-342.5 272.5,-361.5 376.5,-361.5 376.5,-342.5 272.5,-342.5"/>
<text text-anchor="middle" x="324.5" y="-349.5" font-family="Helvetica,sans-Serif" font-size="10.00" fill="#000000">mp3_id3v2_hdr_test</text>
</a>
</g>
</g>
<!-- Node2&#45;&gt;Node3 -->
<g id="edge4" class="edge">
<title>Node2&#45;&gt;Node3</title>
<path fill="none" stroke="#191970" d="M206.3701,-323.589C227.2199,-328.6035 252.9346,-334.7881 275.0429,-340.1053"/>
<polygon fill="#191970" stroke="#191970" points="274.3754,-343.5445 284.9166,-342.4799 276.0123,-336.7385 274.3754,-343.5445"/>
</g>
<!-- Node4 -->
<g id="node5" class="node">
<title>Node4</title>
<g id="a_node5"><a xlink:href="a00086.xhtml#acc4a0b82043fbdeadb8c669eda06d2cb" target="_top" xlink:title="Saute le tag ID3v2 actuel. ">
<polygon fill="#ffffff" stroke="#000000" points="270,-304.5 270,-323.5 379,-323.5 379,-304.5 270,-304.5"/>
<text text-anchor="middle" x="324.5" y="-311.5" font-family="Helvetica,sans-Serif" font-size="10.00" fill="#000000">mp3_id3v2_tag_seek</text>
</a>
</g>
</g>
<!-- Node2&#45;&gt;Node4 -->
<g id="edge5" class="edge">
<title>Node2&#45;&gt;Node4</title>
<path fill="none" stroke="#191970" d="M226.233,-314C237.2057,-314 248.7066,-314 259.8165,-314"/>
<polygon fill="#191970" stroke="#191970" points="259.8834,-317.5001 269.8834,-314 259.8833,-310.5001 259.8834,-317.5001"/>
</g>
<!-- Node2&#45;&gt;Node6 -->
<g id="edge8" class="edge">
<title>Node2&#45;&gt;Node6</title>
<path fill="none" stroke="#191970" d="M209.5922,-304.402C225.9386,-301.0315 244.7645,-297.4728 262,-295 368.8847,-279.665 650.6613,-302.6956 746,-252 784.19,-231.6927 811.9575,-187.1681 825.4026,-161.7551"/>
<polygon fill="#191970" stroke="#191970" points="828.5711,-163.2458 829.9907,-152.7465 822.3335,-160.069 828.5711,-163.2458"/>
</g>
<!-- Node4&#45;&gt;Node1 -->
<g id="edge7" class="edge">
<title>Node4&#45;&gt;Node1</title>
<path fill="none" stroke="#191970" d="M359.9332,-323.541C368.8788,-326.2841 378.3867,-329.4936 387,-333 417.0214,-345.2215 449.8159,-362.8064 471.7152,-375.2051"/>
<polygon fill="#191970" stroke="#191970" points="470.2597,-378.4047 480.6773,-380.3345 473.7369,-372.3294 470.2597,-378.4047"/>
</g>
<!-- Node5 -->
<g id="node6" class="node">
<title>Node5</title>
<g id="a_node6"><a xlink:href="a00086.xhtml#a98007b4129951e18b3ba95b3d5ad973e" target="_top" xlink:title="Retire la sécurité de synchronisation de la taille d&#39;un tag ID3v2. ">
<polygon fill="#ffffff" stroke="#000000" points="425.5,-304.5 425.5,-323.5 568.5,-323.5 568.5,-304.5 425.5,-304.5"/>
<text text-anchor="middle" x="497" y="-311.5" font-family="Helvetica,sans-Serif" font-size="10.00" fill="#000000">mp3_id3v2_size_unsyncsafe</text>
</a>
</g>
</g>
<!-- Node4&#45;&gt;Node5 -->
<g id="edge6" class="edge">
<title>Node4&#45;&gt;Node5</title>
<path fill="none" stroke="#191970" d="M379.0801,-314C390.57,-314 402.9307,-314 415.1722,-314"/>
<polygon fill="#191970" stroke="#191970" points="415.4055,-317.5001 425.4054,-314 415.4054,-310.5001 415.4055,-317.5001"/>
</g>
<!-- Node7&#45;&gt;Node6 -->
<g id="edge11" class="edge">
<title>Node7&#45;&gt;Node6</title>
<path fill="none" stroke="#191970" d="M217.5783,-199.7501C318.9108,-198.611 552.3194,-192.7791 746,-164 760.58,-161.8335 776.2937,-158.455 790.376,-155.0363"/>
<polygon fill="#191970" stroke="#191970" points="791.4486,-158.376 800.3021,-152.5567 789.752,-151.5847 791.4486,-158.376"/>
</g>
<!-- Node8 -->
<g id="node9" class="node">
<title>Node8</title>
<g id="a_node9"><a xlink:href="a00086.xhtml#a3f5f1c770ad5013ccf94bce56b7d0a04" target="_top" xlink:title="Obtient la taille d&#39;une frame MP3. ">
<polygon fill="#ffffff" stroke="#000000" points="262,-114.5 262,-133.5 387,-133.5 387,-114.5 262,-114.5"/>
<text text-anchor="middle" x="324.5" y="-121.5" font-family="Helvetica,sans-Serif" font-size="10.00" fill="#000000">mp3_mpeg_hdr_get_size</text>
</a>
</g>
</g>
<!-- Node7&#45;&gt;Node8 -->
<g id="edge12" class="edge">
<title>Node7&#45;&gt;Node8</title>
<path fill="none" stroke="#191970" d="M200.6402,-190.4882C209.063,-187.7642 217.9687,-184.5562 226,-181 253.1367,-168.9841 282.3403,-151.4446 301.8424,-139.0006"/>
<polygon fill="#191970" stroke="#191970" points="303.8328,-141.8816 310.3314,-133.5139 300.033,-136.0027 303.8328,-141.8816"/>
</g>
<!-- Node8&#45;&gt;Node6 -->
<g id="edge13" class="edge">
<title>Node8&#45;&gt;Node6</title>
<path fill="none" stroke="#191970" d="M365.9684,-133.5596C383.4708,-137.1869 404.129,-140.9375 423,-143 545.9299,-156.4353 690.7536,-151.7018 771.6612,-147.227"/>
<polygon fill="#191970" stroke="#191970" points="771.9004,-150.7191 781.685,-146.6557 771.502,-143.7305 771.9004,-150.7191"/>
</g>
<!-- Node9 -->
<g id="node10" class="node">
<title>Node9</title>
<g id="a_node10"><a xlink:href="a00086.xhtml#aa48df36af23103ce104d13854d4cbb87" target="_top" xlink:title="Obtient la débit binaire d&#39;une frame MP3. ">
<polygon fill="#ffffff" stroke="#000000" points="430,-114.5 430,-133.5 564,-133.5 564,-114.5 430,-114.5"/>
<text text-anchor="middle" x="497" y="-121.5" font-family="Helvetica,sans-Serif" font-size="10.00" fill="#000000">mp3_mpeg_hdr_get_bitrate</text>
</a>
</g>
</g>
<!-- Node8&#45;&gt;Node9 -->
<g id="edge14" class="edge">
<title>Node8&#45;&gt;Node9</title>
<path fill="none" stroke="#191970" d="M387.2644,-124C397.7767,-124 408.7927,-124 419.6204,-124"/>
<polygon fill="#191970" stroke="#191970" points="419.9212,-127.5001 429.9212,-124 419.9211,-120.5001 419.9212,-127.5001"/>
</g>
<!-- Node11 -->
<g id="node12" class="node">
<title>Node11</title>
<g id="a_node12"><a xlink:href="a00086.xhtml#a85aeeafb97867c551e217ba3283e6fec" target="_top" xlink:title="Obtient la fréquence d&#39;échantillonage d&#39;une frame MP3. ">
<polygon fill="#ffffff" stroke="#000000" points="423,-76.5 423,-95.5 571,-95.5 571,-76.5 423,-76.5"/>
<text text-anchor="middle" x="497" y="-83.5" font-family="Helvetica,sans-Serif" font-size="10.00" fill="#000000">mp3_mpeg_hdr_get_samprate</text>
</a>
</g>
</g>
<!-- Node8&#45;&gt;Node11 -->
<g id="edge18" class="edge">
<title>Node8&#45;&gt;Node11</title>
<path fill="none" stroke="#191970" d="M368.029,-114.411C391.0999,-109.3287 419.6266,-103.0446 443.9805,-97.6797"/>
<polygon fill="#191970" stroke="#191970" points="444.7711,-101.0895 453.784,-95.5201 443.2651,-94.2534 444.7711,-101.0895"/>
</g>
<!-- Node12 -->
<g id="node13" class="node">
<title>Node12</title>
<g id="a_node13"><a xlink:href="a00086.xhtml#a407e3a1d9a7c3350620818a2ef19f142" target="_top" xlink:title="Permet de savoir si une frame MP3 contient du padding. ">
<polygon fill="#ffffff" stroke="#000000" points="609,-.5 609,-19.5 744,-19.5 744,-.5 609,-.5"/>
<text text-anchor="middle" x="676.5" y="-7.5" font-family="Helvetica,sans-Serif" font-size="10.00" fill="#000000">mp3_mpeg_hdr_is_padding</text>
</a>
</g>
</g>
<!-- Node8&#45;&gt;Node12 -->
<g id="edge21" class="edge">
<title>Node8&#45;&gt;Node12</title>
<path fill="none" stroke="#191970" d="M337.858,-114.4911C356.2035,-101.8589 390.6163,-79.668 423,-67 480.008,-44.6993 547.8097,-30.0246 598.9427,-21.1574"/>
<polygon fill="#191970" stroke="#191970" points="599.6656,-24.5848 608.939,-19.4608 598.4943,-17.6835 599.6656,-24.5848"/>
</g>
<!-- Node9&#45;&gt;Node6 -->
<g id="edge15" class="edge">
<title>Node9&#45;&gt;Node6</title>
<path fill="none" stroke="#191970" d="M564.0827,-127.7765C624.4716,-131.1762 712.5546,-136.1349 771.615,-139.4598"/>
<polygon fill="#191970" stroke="#191970" points="771.7461,-142.9726 781.927,-140.0403 772.1396,-135.9837 771.7461,-142.9726"/>
</g>
<!-- Node10 -->
<g id="node11" class="node">
<title>Node10</title>
<g id="a_node11"><a xlink:href="a00086.xhtml#a2f08a046bc257029ca74b86b48204380" target="_top" xlink:title="Obtient la version de la norme MPEG du header d&#39;une frame MP3. ">
<polygon fill="#ffffff" stroke="#000000" points="607,-76.5 607,-95.5 746,-95.5 746,-76.5 607,-76.5"/>
<text text-anchor="middle" x="676.5" y="-83.5" font-family="Helvetica,sans-Serif" font-size="10.00" fill="#000000">mp3_mpeg_hdr_get_version</text>
</a>
</g>
</g>
<!-- Node9&#45;&gt;Node10 -->
<g id="edge16" class="edge">
<title>Node9&#45;&gt;Node10</title>
<path fill="none" stroke="#191970" d="M542.2954,-114.411C566.4092,-109.3061 596.2508,-102.9887 621.6666,-97.6082"/>
<polygon fill="#191970" stroke="#191970" points="622.472,-101.0153 631.5303,-95.5201 621.0222,-94.1671 622.472,-101.0153"/>
</g>
<!-- Node10&#45;&gt;Node6 -->
<g id="edge17" class="edge">
<title>Node10&#45;&gt;Node6</title>
<path fill="none" stroke="#191970" d="M704.6221,-95.5369C717.2916,-99.8783 732.4239,-105.1256 746,-110 763.7652,-116.3785 783.4474,-123.6928 799.7308,-129.8118"/>
<polygon fill="#191970" stroke="#191970" points="798.7909,-133.1978 809.3828,-133.4482 801.2589,-126.6473 798.7909,-133.1978"/>
</g>
<!-- Node11&#45;&gt;Node6 -->
<g id="edge19" class="edge">
<title>Node11&#45;&gt;Node6</title>
<path fill="none" stroke="#191970" d="M524.9473,-76.4652C572.1554,-61.9562 669.9754,-38.8365 746,-67 777.4557,-78.6529 805.2548,-107.0414 820.9612,-125.6316"/>
<polygon fill="#191970" stroke="#191970" points="818.2599,-127.8572 827.2964,-133.3882 823.6814,-123.4291 818.2599,-127.8572"/>
</g>
<!-- Node11&#45;&gt;Node10 -->
<g id="edge20" class="edge">
<title>Node11&#45;&gt;Node10</title>
<path fill="none" stroke="#191970" d="M571.0459,-86C579.5835,-86 588.3168,-86 596.9237,-86"/>
<polygon fill="#191970" stroke="#191970" points="596.9501,-89.5001 606.9501,-86 596.9501,-82.5001 596.9501,-89.5001"/>
</g>
<!-- Node12&#45;&gt;Node6 -->
<g id="edge22" class="edge">
<title>Node12&#45;&gt;Node6</title>
<path fill="none" stroke="#191970" d="M716.5655,-19.6172C726.7127,-23.1539 737.2152,-27.8515 746,-34 780.9283,-58.4466 809.4397,-100.3677 823.9986,-124.4745"/>
<polygon fill="#191970" stroke="#191970" points="821.1188,-126.4825 829.2019,-133.3319 827.1544,-122.9368 821.1188,-126.4825"/>
</g>
</g>
</svg>
