<?xml version="1.0" encoding="UTF-8" standalone="no"?>
<!DOCTYPE svg PUBLIC "-//W3C//DTD SVG 1.1//EN"
 "http://www.w3.org/Graphics/SVG/1.1/DTD/svg11.dtd">
<!-- Generated by graphviz version 2.40.1 (20161225.0304)
 -->
<!-- Title: info Pages: 1 -->
<svg width="294pt" height="229pt"
 viewBox="0.00 0.00 293.50 229.00" xmlns="http://www.w3.org/2000/svg" xmlns:xlink="http://www.w3.org/1999/xlink">
<g id="graph0" class="graph" transform="scale(1 1) rotate(0) translate(4 225)">
<title>info</title>
<polygon fill="#ffffff" stroke="transparent" points="-4,4 -4,-225 289.5,-225 289.5,4 -4,4"/>
<!-- Node1 -->
<g id="node1" class="node">
<title>Node1</title>
<polygon fill="#bfbfbf" stroke="#000000" points="127,-.5 127,-19.5 159,-19.5 159,-.5 127,-.5"/>
<text text-anchor="middle" x="143" y="-7.5" font-family="Helvetica,sans-Serif" font-size="10.00" fill="#000000">info</text>
</g>
<!-- Node2 -->
<g id="node2" class="node">
<title>Node2</title>
<g id="a_node2"><a xlink:href="a00146.xhtml" target="_top" xlink:title="Informations concernant le fichier hôte. ">
<polygon fill="#ffffff" stroke="#000000" points="115,-67.5 115,-86.5 171,-86.5 171,-67.5 115,-67.5"/>
<text text-anchor="middle" x="143" y="-74.5" font-family="Helvetica,sans-Serif" font-size="10.00" fill="#000000">host_info</text>
</a>
</g>
</g>
<!-- Node2&#45;&gt;Node1 -->
<g id="edge1" class="edge">
<title>Node2&#45;&gt;Node1</title>
<path fill="none" stroke="#9a32cd" stroke-dasharray="5,2" d="M143,-57.1079C143,-44.714 143,-29.3263 143,-19.5817"/>
<polygon fill="#9a32cd" stroke="#9a32cd" points="139.5001,-57.4005 143,-67.4005 146.5001,-57.4006 139.5001,-57.4005"/>
<text text-anchor="middle" x="154" y="-41" font-family="Helvetica,sans-Serif" font-size="10.00" fill="#000000"> host</text>
</g>
<!-- Node3 -->
<g id="node3" class="node">
<title>Node3</title>
<g id="a_node3"><a xlink:href="a00150.xhtml" target="_top" xlink:title="file_info_u">
<polygon fill="#ffffff" stroke="#000000" points="112.5,-134.5 112.5,-153.5 173.5,-153.5 173.5,-134.5 112.5,-134.5"/>
<text text-anchor="middle" x="143" y="-141.5" font-family="Helvetica,sans-Serif" font-size="10.00" fill="#000000">file_info_u</text>
</a>
</g>
</g>
<!-- Node3&#45;&gt;Node2 -->
<g id="edge2" class="edge">
<title>Node3&#45;&gt;Node2</title>
<path fill="none" stroke="#9a32cd" stroke-dasharray="5,2" d="M143,-124.1079C143,-111.714 143,-96.3263 143,-86.5817"/>
<polygon fill="#9a32cd" stroke="#9a32cd" points="139.5001,-124.4005 143,-134.4005 146.5001,-124.4006 139.5001,-124.4005"/>
<text text-anchor="middle" x="161.5" y="-108" font-family="Helvetica,sans-Serif" font-size="10.00" fill="#000000"> file_info</text>
</g>
<!-- Node4 -->
<g id="node4" class="node">
<title>Node4</title>
<g id="a_node4"><a xlink:href="a00174.xhtml" target="_top" xlink:title="Structure du format PNG. ">
<polygon fill="#ffffff" stroke="#000000" points="0,-201.5 0,-220.5 32,-220.5 32,-201.5 0,-201.5"/>
<text text-anchor="middle" x="16" y="-208.5" font-family="Helvetica,sans-Serif" font-size="10.00" fill="#000000">png</text>
</a>
</g>
</g>
<!-- Node4&#45;&gt;Node3 -->
<g id="edge3" class="edge">
<title>Node4&#45;&gt;Node3</title>
<path fill="none" stroke="#9a32cd" stroke-dasharray="5,2" d="M34.4581,-194.7278C43.7586,-187.1068 55.4851,-178.3343 67,-172 81.2916,-164.1382 98.2359,-157.6522 112.4946,-152.9093"/>
<polygon fill="#9a32cd" stroke="#9a32cd" points="32.0571,-192.1743 26.6745,-201.3 36.5731,-197.5227 32.0571,-192.1743"/>
<text text-anchor="middle" x="76.5" y="-175" font-family="Helvetica,sans-Serif" font-size="10.00" fill="#000000"> png</text>
</g>
<!-- Node5 -->
<g id="node5" class="node">
<title>Node5</title>
<g id="a_node5"><a xlink:href="a00178.xhtml" target="_top" xlink:title="Structure du format WAVE. ">
<polygon fill="#ffffff" stroke="#000000" points="50.5,-201.5 50.5,-220.5 85.5,-220.5 85.5,-201.5 50.5,-201.5"/>
<text text-anchor="middle" x="68" y="-208.5" font-family="Helvetica,sans-Serif" font-size="10.00" fill="#000000">wav</text>
</a>
</g>
</g>
<!-- Node5&#45;&gt;Node3 -->
<g id="edge4" class="edge">
<title>Node5&#45;&gt;Node3</title>
<path fill="none" stroke="#9a32cd" stroke-dasharray="5,2" d="M81.8649,-193.208C87.7135,-186.2266 94.8237,-178.3768 102,-172 109.6031,-165.2439 118.9081,-158.7671 126.7306,-153.7476"/>
<polygon fill="#9a32cd" stroke="#9a32cd" points="78.7956,-191.4367 75.2215,-201.4105 84.2352,-195.8424 78.7956,-191.4367"/>
<text text-anchor="middle" x="113" y="-175" font-family="Helvetica,sans-Serif" font-size="10.00" fill="#000000"> wav</text>
</g>
<!-- Node6 -->
<g id="node6" class="node">
<title>Node6</title>
<g id="a_node6"><a xlink:href="a00166.xhtml" target="_top" xlink:title="Structure du format FLV. ">
<polygon fill="#ffffff" stroke="#000000" points="103.5,-201.5 103.5,-220.5 132.5,-220.5 132.5,-201.5 103.5,-201.5"/>
<text text-anchor="middle" x="118" y="-208.5" font-family="Helvetica,sans-Serif" font-size="10.00" fill="#000000">flv</text>
</a>
</g>
</g>
<!-- Node6&#45;&gt;Node3 -->
<g id="edge5" class="edge">
<title>Node6&#45;&gt;Node3</title>
<path fill="none" stroke="#9a32cd" stroke-dasharray="5,2" d="M124.8076,-191.6796C127.058,-185.3896 129.6005,-178.3847 132,-172 134.3151,-165.84 137.016,-158.9608 139.1621,-153.5626"/>
<polygon fill="#9a32cd" stroke="#9a32cd" points="121.4202,-190.7598 121.3728,-201.3545 128.0168,-193.1017 121.4202,-190.7598"/>
<text text-anchor="middle" x="139" y="-175" font-family="Helvetica,sans-Serif" font-size="10.00" fill="#000000"> flv</text>
</g>
<!-- Node7 -->
<g id="node7" class="node">
<title>Node7</title>
<g id="a_node7"><a xlink:href="a00170.xhtml" target="_top" xlink:title="Structure du format MP3. ">
<polygon fill="#ffffff" stroke="#000000" points="150.5,-201.5 150.5,-220.5 185.5,-220.5 185.5,-201.5 150.5,-201.5"/>
<text text-anchor="middle" x="168" y="-208.5" font-family="Helvetica,sans-Serif" font-size="10.00" fill="#000000">mp3</text>
</a>
</g>
</g>
<!-- Node7&#45;&gt;Node3 -->
<g id="edge6" class="edge">
<title>Node7&#45;&gt;Node3</title>
<path fill="none" stroke="#9a32cd" stroke-dasharray="5,2" d="M160.8593,-191.8628C156.1882,-179.3444 150.2855,-163.5252 146.5752,-153.5817"/>
<polygon fill="#9a32cd" stroke="#9a32cd" points="157.643,-193.2551 164.4181,-201.4005 164.2013,-190.8079 157.643,-193.2551"/>
<text text-anchor="middle" x="167" y="-175" font-family="Helvetica,sans-Serif" font-size="10.00" fill="#000000"> mp3</text>
</g>
<!-- Node8 -->
<g id="node8" class="node">
<title>Node8</title>
<g id="a_node8"><a xlink:href="a00158.xhtml" target="_top" xlink:title="Structure du format AVI. ">
<polygon fill="#ffffff" stroke="#000000" points="203.5,-201.5 203.5,-220.5 232.5,-220.5 232.5,-201.5 203.5,-201.5"/>
<text text-anchor="middle" x="218" y="-208.5" font-family="Helvetica,sans-Serif" font-size="10.00" fill="#000000">avi</text>
</a>
</g>
</g>
<!-- Node8&#45;&gt;Node3 -->
<g id="edge7" class="edge">
<title>Node8&#45;&gt;Node3</title>
<path fill="none" stroke="#9a32cd" stroke-dasharray="5,2" d="M203.2582,-193.5401C197.0011,-186.5355 189.4423,-178.5806 182,-172 174.5069,-165.3745 165.4693,-158.8081 157.9815,-153.7011"/>
<polygon fill="#9a32cd" stroke="#9a32cd" points="200.7127,-195.9464 209.9207,-201.1869 205.9905,-191.348 200.7127,-195.9464"/>
<text text-anchor="middle" x="200" y="-175" font-family="Helvetica,sans-Serif" font-size="10.00" fill="#000000"> avi</text>
</g>
<!-- Node9 -->
<g id="node9" class="node">
<title>Node9</title>
<g id="a_node9"><a xlink:href="a00162.xhtml" target="_top" xlink:title="Structure du format BMP. ">
<polygon fill="#ffffff" stroke="#000000" points="250.5,-201.5 250.5,-220.5 285.5,-220.5 285.5,-201.5 250.5,-201.5"/>
<text text-anchor="middle" x="268" y="-208.5" font-family="Helvetica,sans-Serif" font-size="10.00" fill="#000000">bmp</text>
</a>
</g>
</g>
<!-- Node9&#45;&gt;Node3 -->
<g id="edge8" class="edge">
<title>Node9&#45;&gt;Node3</title>
<path fill="none" stroke="#9a32cd" stroke-dasharray="5,2" d="M247.3243,-194.9453C237.0521,-187.406 224.2438,-178.6398 212,-172 198.8173,-164.8511 183.4142,-158.4318 170.5096,-153.5488"/>
<polygon fill="#9a32cd" stroke="#9a32cd" points="245.5214,-197.9681 255.6206,-201.1706 249.7227,-192.3691 245.5214,-197.9681"/>
<text text-anchor="middle" x="240" y="-175" font-family="Helvetica,sans-Serif" font-size="10.00" fill="#000000"> bmp</text>
</g>
</g>
</svg>
