<?xml version="1.0" encoding="UTF-8" standalone="no"?>
<!DOCTYPE svg PUBLIC "-//W3C//DTD SVG 1.1//EN"
 "http://www.w3.org/Graphics/SVG/1.1/DTD/svg11.dtd">
<!-- Generated by graphviz version 2.40.1 (20161225.0304)
 -->
<!-- Title: host_info Pages: 1 -->
<svg width="294pt" height="162pt"
 viewBox="0.00 0.00 293.50 162.00" xmlns="http://www.w3.org/2000/svg" xmlns:xlink="http://www.w3.org/1999/xlink">
<g id="graph0" class="graph" transform="scale(1 1) rotate(0) translate(4 158)">
<title>host_info</title>
<polygon fill="#ffffff" stroke="transparent" points="-4,4 -4,-158 289.5,-158 289.5,4 -4,4"/>
<!-- Node1 -->
<g id="node1" class="node">
<title>Node1</title>
<polygon fill="#bfbfbf" stroke="#000000" points="115,-.5 115,-19.5 171,-19.5 171,-.5 115,-.5"/>
<text text-anchor="middle" x="143" y="-7.5" font-family="Helvetica,sans-Serif" font-size="10.00" fill="#000000">host_info</text>
</g>
<!-- Node2 -->
<g id="node2" class="node">
<title>Node2</title>
<g id="a_node2"><a xlink:href="a00150.xhtml" target="_top" xlink:title="file_info_u">
<polygon fill="#ffffff" stroke="#000000" points="112.5,-67.5 112.5,-86.5 173.5,-86.5 173.5,-67.5 112.5,-67.5"/>
<text text-anchor="middle" x="143" y="-74.5" font-family="Helvetica,sans-Serif" font-size="10.00" fill="#000000">file_info_u</text>
</a>
</g>
</g>
<!-- Node2&#45;&gt;Node1 -->
<g id="edge1" class="edge">
<title>Node2&#45;&gt;Node1</title>
<path fill="none" stroke="#9a32cd" stroke-dasharray="5,2" d="M143,-57.1079C143,-44.714 143,-29.3263 143,-19.5817"/>
<polygon fill="#9a32cd" stroke="#9a32cd" points="139.5001,-57.4005 143,-67.4005 146.5001,-57.4006 139.5001,-57.4005"/>
<text text-anchor="middle" x="161.5" y="-41" font-family="Helvetica,sans-Serif" font-size="10.00" fill="#000000"> file_info</text>
</g>
<!-- Node3 -->
<g id="node3" class="node">
<title>Node3</title>
<g id="a_node3"><a xlink:href="a00174.xhtml" target="_top" xlink:title="Structure du format PNG. ">
<polygon fill="#ffffff" stroke="#000000" points="0,-134.5 0,-153.5 32,-153.5 32,-134.5 0,-134.5"/>
<text text-anchor="middle" x="16" y="-141.5" font-family="Helvetica,sans-Serif" font-size="10.00" fill="#000000">png</text>
</a>
</g>
</g>
<!-- Node3&#45;&gt;Node2 -->
<g id="edge2" class="edge">
<title>Node3&#45;&gt;Node2</title>
<path fill="none" stroke="#9a32cd" stroke-dasharray="5,2" d="M34.4581,-127.7278C43.7586,-120.1068 55.4851,-111.3343 67,-105 81.2916,-97.1382 98.2359,-90.6522 112.4946,-85.9093"/>
<polygon fill="#9a32cd" stroke="#9a32cd" points="32.0571,-125.1743 26.6745,-134.3 36.5731,-130.5227 32.0571,-125.1743"/>
<text text-anchor="middle" x="76.5" y="-108" font-family="Helvetica,sans-Serif" font-size="10.00" fill="#000000"> png</text>
</g>
<!-- Node4 -->
<g id="node4" class="node">
<title>Node4</title>
<g id="a_node4"><a xlink:href="a00178.xhtml" target="_top" xlink:title="Structure du format WAVE. ">
<polygon fill="#ffffff" stroke="#000000" points="50.5,-134.5 50.5,-153.5 85.5,-153.5 85.5,-134.5 50.5,-134.5"/>
<text text-anchor="middle" x="68" y="-141.5" font-family="Helvetica,sans-Serif" font-size="10.00" fill="#000000">wav</text>
</a>
</g>
</g>
<!-- Node4&#45;&gt;Node2 -->
<g id="edge3" class="edge">
<title>Node4&#45;&gt;Node2</title>
<path fill="none" stroke="#9a32cd" stroke-dasharray="5,2" d="M81.8649,-126.208C87.7135,-119.2266 94.8237,-111.3768 102,-105 109.6031,-98.2439 118.9081,-91.7671 126.7306,-86.7476"/>
<polygon fill="#9a32cd" stroke="#9a32cd" points="78.7956,-124.4367 75.2215,-134.4105 84.2352,-128.8424 78.7956,-124.4367"/>
<text text-anchor="middle" x="113" y="-108" font-family="Helvetica,sans-Serif" font-size="10.00" fill="#000000"> wav</text>
</g>
<!-- Node5 -->
<g id="node5" class="node">
<title>Node5</title>
<g id="a_node5"><a xlink:href="a00166.xhtml" target="_top" xlink:title="Structure du format FLV. ">
<polygon fill="#ffffff" stroke="#000000" points="103.5,-134.5 103.5,-153.5 132.5,-153.5 132.5,-134.5 103.5,-134.5"/>
<text text-anchor="middle" x="118" y="-141.5" font-family="Helvetica,sans-Serif" font-size="10.00" fill="#000000">flv</text>
</a>
</g>
</g>
<!-- Node5&#45;&gt;Node2 -->
<g id="edge4" class="edge">
<title>Node5&#45;&gt;Node2</title>
<path fill="none" stroke="#9a32cd" stroke-dasharray="5,2" d="M124.8076,-124.6796C127.058,-118.3896 129.6005,-111.3847 132,-105 134.3151,-98.84 137.016,-91.9608 139.1621,-86.5626"/>
<polygon fill="#9a32cd" stroke="#9a32cd" points="121.4202,-123.7598 121.3728,-134.3545 128.0168,-126.1017 121.4202,-123.7598"/>
<text text-anchor="middle" x="139" y="-108" font-family="Helvetica,sans-Serif" font-size="10.00" fill="#000000"> flv</text>
</g>
<!-- Node6 -->
<g id="node6" class="node">
<title>Node6</title>
<g id="a_node6"><a xlink:href="a00170.xhtml" target="_top" xlink:title="Structure du format MP3. ">
<polygon fill="#ffffff" stroke="#000000" points="150.5,-134.5 150.5,-153.5 185.5,-153.5 185.5,-134.5 150.5,-134.5"/>
<text text-anchor="middle" x="168" y="-141.5" font-family="Helvetica,sans-Serif" font-size="10.00" fill="#000000">mp3</text>
</a>
</g>
</g>
<!-- Node6&#45;&gt;Node2 -->
<g id="edge5" class="edge">
<title>Node6&#45;&gt;Node2</title>
<path fill="none" stroke="#9a32cd" stroke-dasharray="5,2" d="M160.8593,-124.8628C156.1882,-112.3444 150.2855,-96.5252 146.5752,-86.5817"/>
<polygon fill="#9a32cd" stroke="#9a32cd" points="157.643,-126.2551 164.4181,-134.4005 164.2013,-123.8079 157.643,-126.2551"/>
<text text-anchor="middle" x="167" y="-108" font-family="Helvetica,sans-Serif" font-size="10.00" fill="#000000"> mp3</text>
</g>
<!-- Node7 -->
<g id="node7" class="node">
<title>Node7</title>
<g id="a_node7"><a xlink:href="a00158.xhtml" target="_top" xlink:title="Structure du format AVI. ">
<polygon fill="#ffffff" stroke="#000000" points="203.5,-134.5 203.5,-153.5 232.5,-153.5 232.5,-134.5 203.5,-134.5"/>
<text text-anchor="middle" x="218" y="-141.5" font-family="Helvetica,sans-Serif" font-size="10.00" fill="#000000">avi</text>
</a>
</g>
</g>
<!-- Node7&#45;&gt;Node2 -->
<g id="edge6" class="edge">
<title>Node7&#45;&gt;Node2</title>
<path fill="none" stroke="#9a32cd" stroke-dasharray="5,2" d="M203.2582,-126.5401C197.0011,-119.5355 189.4423,-111.5806 182,-105 174.5069,-98.3745 165.4693,-91.8081 157.9815,-86.7011"/>
<polygon fill="#9a32cd" stroke="#9a32cd" points="200.7127,-128.9464 209.9207,-134.1869 205.9905,-124.348 200.7127,-128.9464"/>
<text text-anchor="middle" x="200" y="-108" font-family="Helvetica,sans-Serif" font-size="10.00" fill="#000000"> avi</text>
</g>
<!-- Node8 -->
<g id="node8" class="node">
<title>Node8</title>
<g id="a_node8"><a xlink:href="a00162.xhtml" target="_top" xlink:title="Structure du format BMP. ">
<polygon fill="#ffffff" stroke="#000000" points="250.5,-134.5 250.5,-153.5 285.5,-153.5 285.5,-134.5 250.5,-134.5"/>
<text text-anchor="middle" x="268" y="-141.5" font-family="Helvetica,sans-Serif" font-size="10.00" fill="#000000">bmp</text>
</a>
</g>
</g>
<!-- Node8&#45;&gt;Node2 -->
<g id="edge7" class="edge">
<title>Node8&#45;&gt;Node2</title>
<path fill="none" stroke="#9a32cd" stroke-dasharray="5,2" d="M247.3243,-127.9453C237.0521,-120.406 224.2438,-111.6398 212,-105 198.8173,-97.8511 183.4142,-91.4318 170.5096,-86.5488"/>
<polygon fill="#9a32cd" stroke="#9a32cd" points="245.5214,-130.9681 255.6206,-134.1706 249.7227,-125.3691 245.5214,-130.9681"/>
<text text-anchor="middle" x="240" y="-108" font-family="Helvetica,sans-Serif" font-size="10.00" fill="#000000"> bmp</text>
</g>
</g>
</svg>
