<?xml version="1.0" encoding="UTF-8" standalone="no"?>
<!DOCTYPE svg PUBLIC "-//W3C//DTD SVG 1.1//EN"
 "http://www.w3.org/Graphics/SVG/1.1/DTD/svg11.dtd">
<!-- Generated by graphviz version 2.40.1 (20161225.0304)
 -->
<!-- Title: src/rand.h Pages: 1 -->
<svg width="698pt" height="84pt"
 viewBox="0.00 0.00 698.00 84.00" xmlns="http://www.w3.org/2000/svg" xmlns:xlink="http://www.w3.org/1999/xlink">
<g id="graph0" class="graph" transform="scale(1 1) rotate(0) translate(4 80)">
<title>src/rand.h</title>
<polygon fill="#ffffff" stroke="transparent" points="-4,4 -4,-80 694,-80 694,4 -4,4"/>
<!-- Node4 -->
<g id="node1" class="node">
<title>Node4</title>
<polygon fill="#bfbfbf" stroke="#000000" points="327,-56.5 327,-75.5 387,-75.5 387,-56.5 327,-56.5"/>
<text text-anchor="middle" x="357" y="-63.5" font-family="Helvetica,sans-Serif" font-size="10.00" fill="#000000">src/rand.h</text>
</g>
<!-- Node5 -->
<g id="node2" class="node">
<title>Node5</title>
<g id="a_node2"><a xlink:href="a00014.xhtml" target="_top" xlink:title="Algorithme End Of Chunk (EOC). ">
<polygon fill="#ffffff" stroke="#000000" points="0,-.5 0,-19.5 78,-19.5 78,-.5 0,-.5"/>
<text text-anchor="middle" x="39" y="-7.5" font-family="Helvetica,sans-Serif" font-size="10.00" fill="#000000">src/algo/eoc.c</text>
</a>
</g>
</g>
<!-- Node4&#45;&gt;Node5 -->
<g id="edge1" class="edge">
<title>Node4&#45;&gt;Node5</title>
<path fill="none" stroke="#191970" d="M317.004,-59.6559C264.2242,-51.1765 168.4694,-35.421 87,-20 84.0727,-19.4459 81.0486,-18.8564 78.0089,-18.2515"/>
<polygon fill="#191970" stroke="#191970" points="316.5423,-63.1265 326.97,-61.2525 317.6496,-56.2146 316.5423,-63.1265"/>
</g>
<!-- Node6 -->
<g id="node3" class="node">
<title>Node6</title>
<g id="a_node3"><a xlink:href="a00032.xhtml" target="_top" xlink:title="Algorithme LSB. ">
<polygon fill="#ffffff" stroke="#000000" points="96.5,-.5 96.5,-19.5 171.5,-19.5 171.5,-.5 96.5,-.5"/>
<text text-anchor="middle" x="134" y="-7.5" font-family="Helvetica,sans-Serif" font-size="10.00" fill="#000000">src/algo/lsb.c</text>
</a>
</g>
</g>
<!-- Node4&#45;&gt;Node6 -->
<g id="edge2" class="edge">
<title>Node4&#45;&gt;Node6</title>
<path fill="none" stroke="#191970" d="M316.9671,-55.9469C275.7834,-45.6048 212.1165,-29.6167 171.7776,-19.4868"/>
<polygon fill="#191970" stroke="#191970" points="316.3739,-59.4065 326.9252,-58.4476 318.0788,-52.6173 316.3739,-59.4065"/>
</g>
<!-- Node7 -->
<g id="node4" class="node">
<title>Node7</title>
<g id="a_node4"><a xlink:href="a00074.xhtml" target="_top" xlink:title="Fichier BMP. ">
<polygon fill="#ffffff" stroke="#000000" points="190,-.5 190,-19.5 290,-19.5 290,-.5 190,-.5"/>
<text text-anchor="middle" x="240" y="-7.5" font-family="Helvetica,sans-Serif" font-size="10.00" fill="#000000">src/file_type/bmp.c</text>
</a>
</g>
</g>
<!-- Node4&#45;&gt;Node7 -->
<g id="edge3" class="edge">
<title>Node4&#45;&gt;Node7</title>
<path fill="none" stroke="#191970" d="M327.6958,-51.9741C306.512,-41.8348 278.4597,-28.408 259.8506,-19.5011"/>
<polygon fill="#191970" stroke="#191970" points="326.3559,-55.2129 336.887,-56.3733 329.378,-48.8989 326.3559,-55.2129"/>
</g>
<!-- Node8 -->
<g id="node5" class="node">
<title>Node8</title>
<g id="a_node5"><a xlink:href="a00092.xhtml" target="_top" xlink:title="Fichier PNG. ">
<polygon fill="#ffffff" stroke="#000000" points="308.5,-.5 308.5,-19.5 405.5,-19.5 405.5,-.5 308.5,-.5"/>
<text text-anchor="middle" x="357" y="-7.5" font-family="Helvetica,sans-Serif" font-size="10.00" fill="#000000">src/file_type/png.c</text>
</a>
</g>
</g>
<!-- Node4&#45;&gt;Node8 -->
<g id="edge4" class="edge">
<title>Node4&#45;&gt;Node8</title>
<path fill="none" stroke="#191970" d="M357,-46.1575C357,-37.155 357,-26.9199 357,-19.6427"/>
<polygon fill="#191970" stroke="#191970" points="353.5001,-46.2455 357,-56.2455 360.5001,-46.2456 353.5001,-46.2455"/>
</g>
<!-- Node9 -->
<g id="node6" class="node">
<title>Node9</title>
<g id="a_node6"><a xlink:href="a00116.xhtml" target="_top" xlink:title="Algorithme de protection des données avec le mot de passe. ">
<polygon fill="#ffffff" stroke="#000000" points="424,-.5 424,-19.5 508,-19.5 508,-.5 424,-.5"/>
<text text-anchor="middle" x="466" y="-7.5" font-family="Helvetica,sans-Serif" font-size="10.00" fill="#000000">src/protection.c</text>
</a>
</g>
</g>
<!-- Node4&#45;&gt;Node9 -->
<g id="edge5" class="edge">
<title>Node4&#45;&gt;Node9</title>
<path fill="none" stroke="#191970" d="M385.0342,-51.5971C404.5746,-41.558 430.1092,-28.4393 447.2312,-19.6427"/>
<polygon fill="#191970" stroke="#191970" points="383.2817,-48.5625 375.9864,-56.2455 386.4806,-54.7889 383.2817,-48.5625"/>
</g>
<!-- Node10 -->
<g id="node7" class="node">
<title>Node10</title>
<g id="a_node7"><a xlink:href="a00122.xhtml" target="_top" xlink:title="Module qui s&#39;occupe de l&#39;aléatoire. ">
<polygon fill="#ffffff" stroke="#000000" points="526,-.5 526,-19.5 586,-19.5 586,-.5 526,-.5"/>
<text text-anchor="middle" x="556" y="-7.5" font-family="Helvetica,sans-Serif" font-size="10.00" fill="#000000">src/rand.c</text>
</a>
</g>
</g>
<!-- Node4&#45;&gt;Node10 -->
<g id="edge6" class="edge">
<title>Node4&#45;&gt;Node10</title>
<path fill="none" stroke="#191970" d="M396.9529,-54.757C434.9928,-44.0523 491.4018,-28.1784 525.8184,-18.4933"/>
<polygon fill="#191970" stroke="#191970" points="395.9018,-51.4167 387.2238,-57.4948 397.7981,-58.155 395.9018,-51.4167"/>
</g>
<!-- Node11 -->
<g id="node8" class="node">
<title>Node11</title>
<g id="a_node8"><a xlink:href="a00128.xhtml" target="_top" xlink:title="Proposition des algorithmes. ">
<polygon fill="#ffffff" stroke="#000000" points="604,-.5 604,-19.5 690,-19.5 690,-.5 604,-.5"/>
<text text-anchor="middle" x="647" y="-7.5" font-family="Helvetica,sans-Serif" font-size="10.00" fill="#000000">src/sugg_algo.c</text>
</a>
</g>
</g>
<!-- Node4&#45;&gt;Node11 -->
<g id="edge7" class="edge">
<title>Node4&#45;&gt;Node11</title>
<path fill="none" stroke="#191970" d="M397.1645,-58.2441C451.457,-47.76 547.8808,-29.1403 603.7285,-18.3559"/>
<polygon fill="#191970" stroke="#191970" points="396.3694,-54.8329 387.2144,-60.1655 397.6966,-61.7059 396.3694,-54.8329"/>
</g>
</g>
</svg>
