<?xml version="1.0" encoding="UTF-8" standalone="no"?>
<!DOCTYPE svg PUBLIC "-//W3C//DTD SVG 1.1//EN"
 "http://www.w3.org/Graphics/SVG/1.1/DTD/svg11.dtd">
<!-- Generated by graphviz version 2.40.1 (20161225.0304)
 -->
<!-- Title: insert_metadata_bmp Pages: 1 -->
<svg width="343pt" height="170pt"
 viewBox="0.00 0.00 343.00 170.00" xmlns="http://www.w3.org/2000/svg" xmlns:xlink="http://www.w3.org/1999/xlink">
<g id="graph0" class="graph" transform="scale(1 1) rotate(0) translate(4 166)">
<title>insert_metadata_bmp</title>
<polygon fill="#ffffff" stroke="transparent" points="-4,4 -4,-166 339,-166 339,4 -4,4"/>
<!-- Node8 -->
<g id="node1" class="node">
<title>Node8</title>
<polygon fill="#bfbfbf" stroke="#000000" points="0,-76.5 0,-95.5 110,-95.5 110,-76.5 0,-76.5"/>
<text text-anchor="middle" x="55" y="-83.5" font-family="Helvetica,sans-Serif" font-size="10.00" fill="#000000">insert_metadata_bmp</text>
</g>
<!-- Node9 -->
<g id="node2" class="node">
<title>Node9</title>
<g id="a_node2"><a xlink:href="a00122.xhtml#a4e9a217b960dc65fd08dff9f78e317e4" target="_top" xlink:title="Initialise la seed de la suite pseudo aléatoire. ">
<polygon fill="#ffffff" stroke="#000000" points="265,-142.5 265,-161.5 335,-161.5 335,-142.5 265,-142.5"/>
<text text-anchor="middle" x="300" y="-149.5" font-family="Helvetica,sans-Serif" font-size="10.00" fill="#000000">stegx_srand</text>
</a>
</g>
</g>
<!-- Node8&#45;&gt;Node9 -->
<g id="edge1" class="edge">
<title>Node8&#45;&gt;Node9</title>
<path fill="none" stroke="#191970" d="M77.4896,-95.5005C95.7122,-102.9301 122.1819,-113.1195 146,-120 182.0622,-130.4175 223.7984,-138.8739 254.7177,-144.4715"/>
<polygon fill="#191970" stroke="#191970" points="254.3063,-147.9532 264.7648,-146.259 255.5325,-141.0615 254.3063,-147.9532"/>
</g>
<!-- Node10 -->
<g id="node3" class="node">
<title>Node10</title>
<g id="a_node3"><a xlink:href="a00122.xhtml#a2a891bbe3514201de3cfc5acced104b7" target="_top" xlink:title="Cree un seed a partir d&#39;un mot de passe. ">
<polygon fill="#ffffff" stroke="#000000" points="265,-95.5 265,-114.5 335,-114.5 335,-95.5 265,-95.5"/>
<text text-anchor="middle" x="300" y="-102.5" font-family="Helvetica,sans-Serif" font-size="10.00" fill="#000000">create_seed</text>
</a>
</g>
</g>
<!-- Node8&#45;&gt;Node10 -->
<g id="edge2" class="edge">
<title>Node8&#45;&gt;Node10</title>
<path fill="none" stroke="#191970" d="M91.9195,-95.5092C108.3541,-99.2741 128.0196,-103.143 146,-105 182.2794,-108.747 223.6232,-108.5006 254.3323,-107.4529"/>
<polygon fill="#191970" stroke="#191970" points="254.8668,-110.935 264.7252,-107.054 254.5983,-103.9402 254.8668,-110.935"/>
</g>
<!-- Node11 -->
<g id="node4" class="node">
<title>Node11</title>
<g id="a_node4"><a xlink:href="a00122.xhtml#a9966534d45c62d0df7a3d5df48668715" target="_top" xlink:title="Renvoie un entier pseudo&#45;aléatoire. ">
<polygon fill="#ffffff" stroke="#000000" points="267.5,-57.5 267.5,-76.5 332.5,-76.5 332.5,-57.5 267.5,-57.5"/>
<text text-anchor="middle" x="300" y="-64.5" font-family="Helvetica,sans-Serif" font-size="10.00" fill="#000000">stegx_rand</text>
</a>
</g>
</g>
<!-- Node8&#45;&gt;Node11 -->
<g id="edge3" class="edge">
<title>Node8&#45;&gt;Node11</title>
<path fill="none" stroke="#191970" d="M91.9195,-76.4908C108.3541,-72.7259 128.0196,-68.857 146,-67 183.513,-63.1256 226.4407,-63.5207 257.4275,-64.6567"/>
<polygon fill="#191970" stroke="#191970" points="257.3189,-68.1551 267.4532,-65.0652 257.604,-61.1609 257.3189,-68.1551"/>
</g>
<!-- Node12 -->
<g id="node5" class="node">
<title>Node12</title>
<g id="a_node5"><a xlink:href="a00116.xhtml#a3fd0a8f9ba189acd34f864c97f059b0f" target="_top" xlink:title="Fait le mélange ou réarrange les octets selon l&#39;algorithme de protection des données. ">
<polygon fill="#ffffff" stroke="#000000" points="152,-76.5 152,-95.5 223,-95.5 223,-76.5 152,-76.5"/>
<text text-anchor="middle" x="187.5" y="-83.5" font-family="Helvetica,sans-Serif" font-size="10.00" fill="#000000">protect_data</text>
</a>
</g>
</g>
<!-- Node8&#45;&gt;Node12 -->
<g id="edge4" class="edge">
<title>Node8&#45;&gt;Node12</title>
<path fill="none" stroke="#191970" d="M110.0408,-86C120.4895,-86 131.3213,-86 141.4555,-86"/>
<polygon fill="#191970" stroke="#191970" points="141.7187,-89.5001 151.7186,-86 141.7186,-82.5001 141.7187,-89.5001"/>
</g>
<!-- Node13 -->
<g id="node6" class="node">
<title>Node13</title>
<g id="a_node6"><a xlink:href="a00110.xhtml#a66a71cd33131eb29010132269d237356" target="_top" xlink:title="Ecrit la signature StegX. ">
<polygon fill="#ffffff" stroke="#000000" points="146,-.5 146,-19.5 229,-19.5 229,-.5 146,-.5"/>
<text text-anchor="middle" x="187.5" y="-7.5" font-family="Helvetica,sans-Serif" font-size="10.00" fill="#000000">write_signature</text>
</a>
</g>
</g>
<!-- Node8&#45;&gt;Node13 -->
<g id="edge8" class="edge">
<title>Node8&#45;&gt;Node13</title>
<path fill="none" stroke="#191970" d="M71.7812,-76.3745C94.5801,-63.2975 135.5385,-39.8043 162.1098,-24.5634"/>
<polygon fill="#191970" stroke="#191970" points="163.9221,-27.5589 170.855,-19.5473 160.4392,-21.4868 163.9221,-27.5589"/>
</g>
<!-- Node12&#45;&gt;Node9 -->
<g id="edge5" class="edge">
<title>Node12&#45;&gt;Node9</title>
<path fill="none" stroke="#191970" d="M204.0998,-95.7385C222.818,-106.7199 253.4547,-124.6934 275.055,-137.3656"/>
<polygon fill="#191970" stroke="#191970" points="273.3016,-140.3947 283.6979,-142.4361 276.8437,-134.3571 273.3016,-140.3947"/>
</g>
<!-- Node12&#45;&gt;Node10 -->
<g id="edge6" class="edge">
<title>Node12&#45;&gt;Node10</title>
<path fill="none" stroke="#191970" d="M223.0957,-92.0117C233.1449,-93.7089 244.2155,-95.5786 254.7504,-97.3578"/>
<polygon fill="#191970" stroke="#191970" points="254.1926,-100.8131 264.6359,-99.0274 255.3584,-93.9109 254.1926,-100.8131"/>
</g>
<!-- Node12&#45;&gt;Node11 -->
<g id="edge7" class="edge">
<title>Node12&#45;&gt;Node11</title>
<path fill="none" stroke="#191970" d="M223.0957,-79.9883C233.9385,-78.157 245.9704,-76.125 257.2354,-74.2225"/>
<polygon fill="#191970" stroke="#191970" points="258.0317,-77.6376 267.3092,-72.5211 256.866,-70.7354 258.0317,-77.6376"/>
</g>
</g>
</svg>
