<?xml version="1.0" encoding="UTF-8" standalone="no"?>
<!DOCTYPE svg PUBLIC "-//W3C//DTD SVG 1.1//EN"
 "http://www.w3.org/Graphics/SVG/1.1/DTD/svg11.dtd">
<!-- Generated by graphviz version 2.40.1 (20161225.0304)
 -->
<!-- Title: extract_lsb Pages: 1 -->
<svg width="872pt" height="226pt"
 viewBox="0.00 0.00 872.00 226.28" xmlns="http://www.w3.org/2000/svg" xmlns:xlink="http://www.w3.org/1999/xlink">
<g id="graph0" class="graph" transform="scale(1 1) rotate(0) translate(4 222.2843)">
<title>extract_lsb</title>
<polygon fill="#ffffff" stroke="transparent" points="-4,4 -4,-222.2843 868,-222.2843 868,4 -4,4"/>
<!-- Node0 -->
<g id="node1" class="node">
<title>Node0</title>
<polygon fill="#bfbfbf" stroke="#000000" points="0,-108.7843 0,-127.7843 65,-127.7843 65,-108.7843 0,-108.7843"/>
<text text-anchor="middle" x="32.5" y="-115.7843" font-family="Helvetica,sans-Serif" font-size="10.00" fill="#000000">extract_lsb</text>
</g>
<!-- Node1 -->
<g id="node2" class="node">
<title>Node1</title>
<g id="a_node2"><a xlink:href="a00122.xhtml#a4e9a217b960dc65fd08dff9f78e317e4" target="_top" xlink:title="Initialise la seed de la suite pseudo aléatoire. ">
<polygon fill="#ffffff" stroke="#000000" points="266.5,-198.7843 266.5,-217.7843 336.5,-217.7843 336.5,-198.7843 266.5,-198.7843"/>
<text text-anchor="middle" x="301.5" y="-205.7843" font-family="Helvetica,sans-Serif" font-size="10.00" fill="#000000">stegx_srand</text>
</a>
</g>
</g>
<!-- Node0&#45;&gt;Node1 -->
<g id="edge1" class="edge">
<title>Node0&#45;&gt;Node1</title>
<path fill="none" stroke="#191970" d="M37.7619,-127.8858C47.6241,-144.7964 70.6616,-179.4986 101,-194.2843 149.9723,-218.1513 213.7855,-218.1139 256.1227,-214.4522"/>
<polygon fill="#191970" stroke="#191970" points="256.52,-217.9302 266.1367,-213.4839 255.8462,-210.9627 256.52,-217.9302"/>
</g>
<!-- Node2 -->
<g id="node3" class="node">
<title>Node2</title>
<g id="a_node3"><a xlink:href="a00122.xhtml#a2a891bbe3514201de3cfc5acced104b7" target="_top" xlink:title="Cree un seed a partir d&#39;un mot de passe. ">
<polygon fill="#ffffff" stroke="#000000" points="266.5,-141.7843 266.5,-160.7843 336.5,-160.7843 336.5,-141.7843 266.5,-141.7843"/>
<text text-anchor="middle" x="301.5" y="-148.7843" font-family="Helvetica,sans-Serif" font-size="10.00" fill="#000000">create_seed</text>
</a>
</g>
</g>
<!-- Node0&#45;&gt;Node2 -->
<g id="edge2" class="edge">
<title>Node0&#45;&gt;Node2</title>
<path fill="none" stroke="#191970" d="M65.2157,-122.2977C113.0963,-128.1716 202.4205,-139.1295 256.4699,-145.7601"/>
<polygon fill="#191970" stroke="#191970" points="256.1084,-149.2419 266.4602,-146.9857 256.9608,-142.294 256.1084,-149.2419"/>
</g>
<!-- Node3 -->
<g id="node4" class="node">
<title>Node3</title>
<g id="a_node4"><a xlink:href="a00122.xhtml#a9966534d45c62d0df7a3d5df48668715" target="_top" xlink:title="Renvoie un entier pseudo&#45;aléatoire. ">
<polygon fill="#ffffff" stroke="#000000" points="269,-98.7843 269,-117.7843 334,-117.7843 334,-98.7843 269,-98.7843"/>
<text text-anchor="middle" x="301.5" y="-105.7843" font-family="Helvetica,sans-Serif" font-size="10.00" fill="#000000">stegx_rand</text>
</a>
</g>
</g>
<!-- Node0&#45;&gt;Node3 -->
<g id="edge3" class="edge">
<title>Node0&#45;&gt;Node3</title>
<path fill="none" stroke="#191970" d="M65.2157,-117.0681C113.6531,-115.2674 204.5035,-111.8901 258.3411,-109.8887"/>
<polygon fill="#191970" stroke="#191970" points="258.7285,-113.3768 268.5916,-109.5076 258.4684,-106.3816 258.7285,-113.3768"/>
</g>
<!-- Node4 -->
<g id="node5" class="node">
<title>Node4</title>
<g id="a_node5"><a xlink:href="a00032.xhtml#a72239fe09f5e932458901b822ccdf945" target="_top" xlink:title="Cache les octets de data dans pixels selon l&#39;algorithme de protection des données en LSB...">
<polygon fill="#ffffff" stroke="#000000" points="107.5,-165.7843 107.5,-184.7843 196.5,-184.7843 196.5,-165.7843 107.5,-165.7843"/>
<text text-anchor="middle" x="152" y="-172.7843" font-family="Helvetica,sans-Serif" font-size="10.00" fill="#000000">protect_data_lsb</text>
</a>
</g>
</g>
<!-- Node0&#45;&gt;Node4 -->
<g id="edge4" class="edge">
<title>Node0&#45;&gt;Node4</title>
<path fill="none" stroke="#191970" d="M52.2612,-127.8629C65.9324,-134.4752 84.5527,-143.4528 101,-151.2843 107.9245,-154.5814 115.3893,-158.1092 122.4145,-161.4174"/>
<polygon fill="#191970" stroke="#191970" points="121.091,-164.6627 131.6299,-165.7501 124.0695,-158.3279 121.091,-164.6627"/>
</g>
<!-- Node5 -->
<g id="node6" class="node">
<title>Node5</title>
<g id="a_node6"><a xlink:href="a00056.xhtml#a7434fd197d31a9571f92f9dca4f212e9" target="_top" xlink:title="Convertit un nombre en big endian dans l&#39;endian de la machine. ">
<polygon fill="#ffffff" stroke="#000000" points="112,-51.7843 112,-70.7843 192,-70.7843 192,-51.7843 112,-51.7843"/>
<text text-anchor="middle" x="152" y="-58.7843" font-family="Helvetica,sans-Serif" font-size="10.00" fill="#000000">stegx_be32toh</text>
</a>
</g>
</g>
<!-- Node0&#45;&gt;Node5 -->
<g id="edge8" class="edge">
<title>Node0&#45;&gt;Node5</title>
<path fill="none" stroke="#191970" d="M52.2612,-108.7057C65.9324,-102.0934 84.5527,-93.1158 101,-85.2843 107.9245,-81.9871 115.3893,-78.4593 122.4145,-75.1511"/>
<polygon fill="#191970" stroke="#191970" points="124.0695,-78.2407 131.6299,-70.8184 121.091,-71.9059 124.0695,-78.2407"/>
</g>
<!-- Node6 -->
<g id="node7" class="node">
<title>Node6</title>
<g id="a_node7"><a xlink:href="a00086.xhtml#aee166f42b332d8c5b51d25a9ef8c14b7" target="_top" xlink:title="Saute la frame MP3 actuelle. ">
<polygon fill="#ffffff" stroke="#000000" points="101,-13.7843 101,-32.7843 203,-32.7843 203,-13.7843 101,-13.7843"/>
<text text-anchor="middle" x="152" y="-20.7843" font-family="Helvetica,sans-Serif" font-size="10.00" fill="#000000">mp3_mpeg_fr_seek</text>
</a>
</g>
</g>
<!-- Node0&#45;&gt;Node6 -->
<g id="edge9" class="edge">
<title>Node0&#45;&gt;Node6</title>
<path fill="none" stroke="#191970" d="M38.7591,-108.7663C49.6402,-92.9018 73.5278,-60.9558 101,-42.2843 103.8609,-40.3399 106.9465,-38.563 110.1341,-36.9456"/>
<polygon fill="#191970" stroke="#191970" points="111.6189,-40.1154 119.2853,-32.8026 108.7319,-33.7385 111.6189,-40.1154"/>
</g>
<!-- Node4&#45;&gt;Node1 -->
<g id="edge5" class="edge">
<title>Node4&#45;&gt;Node1</title>
<path fill="none" stroke="#191970" d="M195.2416,-184.8292C214.4817,-189.0762 237.1308,-194.0757 256.5644,-198.3654"/>
<polygon fill="#191970" stroke="#191970" points="255.8793,-201.7984 266.3987,-200.5362 257.3882,-194.9629 255.8793,-201.7984"/>
</g>
<!-- Node4&#45;&gt;Node2 -->
<g id="edge6" class="edge">
<title>Node4&#45;&gt;Node2</title>
<path fill="none" stroke="#191970" d="M196.8549,-168.0835C215.5778,-165.0778 237.2966,-161.5912 256.0791,-158.5759"/>
<polygon fill="#191970" stroke="#191970" points="256.8554,-161.9962 266.1742,-156.9553 255.7458,-155.0847 256.8554,-161.9962"/>
</g>
<!-- Node4&#45;&gt;Node3 -->
<g id="edge7" class="edge">
<title>Node4&#45;&gt;Node3</title>
<path fill="none" stroke="#191970" d="M170.0991,-165.7274C187.5381,-156.6655 214.7705,-142.8971 239,-132.2843 247.509,-128.5572 256.7967,-124.8182 265.5475,-121.4378"/>
<polygon fill="#191970" stroke="#191970" points="267.0267,-124.6199 275.1292,-117.7935 264.5382,-118.0771 267.0267,-124.6199"/>
</g>
<!-- Node7 -->
<g id="node8" class="node">
<title>Node7</title>
<g id="a_node8"><a xlink:href="a00086.xhtml#a75bc8b052a4d00ab95b05b576918360d" target="_top" xlink:title="Test si le header est un header MPEG 1/2 Layer III. ">
<polygon fill="#ffffff" stroke="#000000" points="759,-56.7843 759,-75.7843 864,-75.7843 864,-56.7843 759,-56.7843"/>
<text text-anchor="middle" x="811.5" y="-63.7843" font-family="Helvetica,sans-Serif" font-size="10.00" fill="#000000">mp3_mpeg_hdr_test</text>
</a>
</g>
</g>
<!-- Node6&#45;&gt;Node7 -->
<g id="edge10" class="edge">
<title>Node6&#45;&gt;Node7</title>
<path fill="none" stroke="#191970" d="M203.2764,-16.1263C304.3119,-3.6392 535.5948,16.9101 723,-26.2843 745.5968,-31.4925 769.4568,-42.6494 786.701,-51.8602"/>
<polygon fill="#191970" stroke="#191970" points="785.1014,-54.9748 795.5504,-56.7269 788.4746,-48.8411 785.1014,-54.9748"/>
</g>
<!-- Node8 -->
<g id="node9" class="node">
<title>Node8</title>
<g id="a_node9"><a xlink:href="a00086.xhtml#a3f5f1c770ad5013ccf94bce56b7d0a04" target="_top" xlink:title="Obtient la taille d&#39;une frame MP3. ">
<polygon fill="#ffffff" stroke="#000000" points="239,-37.7843 239,-56.7843 364,-56.7843 364,-37.7843 239,-37.7843"/>
<text text-anchor="middle" x="301.5" y="-44.7843" font-family="Helvetica,sans-Serif" font-size="10.00" fill="#000000">mp3_mpeg_hdr_get_size</text>
</a>
</g>
</g>
<!-- Node6&#45;&gt;Node8 -->
<g id="edge11" class="edge">
<title>Node6&#45;&gt;Node8</title>
<path fill="none" stroke="#191970" d="M203.0313,-31.4766C212.3855,-32.9783 222.2926,-34.5687 232.0773,-36.1395"/>
<polygon fill="#191970" stroke="#191970" points="231.7731,-39.6354 242.2014,-37.7648 232.8827,-32.7239 231.7731,-39.6354"/>
</g>
<!-- Node8&#45;&gt;Node7 -->
<g id="edge12" class="edge">
<title>Node8&#45;&gt;Node7</title>
<path fill="none" stroke="#191970" d="M341.5049,-37.7737C359.3019,-34.0086 380.5826,-30.1399 400,-28.2843 527.9868,-16.0531 678.4322,-39.5668 757.177,-54.775"/>
<polygon fill="#191970" stroke="#191970" points="756.8546,-58.2784 767.3414,-56.7692 758.2023,-51.4093 756.8546,-58.2784"/>
</g>
<!-- Node9 -->
<g id="node10" class="node">
<title>Node9</title>
<g id="a_node10"><a xlink:href="a00086.xhtml#aa48df36af23103ce104d13854d4cbb87" target="_top" xlink:title="Obtient la débit binaire d&#39;une frame MP3. ">
<polygon fill="#ffffff" stroke="#000000" points="407,-37.7843 407,-56.7843 541,-56.7843 541,-37.7843 407,-37.7843"/>
<text text-anchor="middle" x="474" y="-44.7843" font-family="Helvetica,sans-Serif" font-size="10.00" fill="#000000">mp3_mpeg_hdr_get_bitrate</text>
</a>
</g>
</g>
<!-- Node8&#45;&gt;Node9 -->
<g id="edge13" class="edge">
<title>Node8&#45;&gt;Node9</title>
<path fill="none" stroke="#191970" d="M364.2644,-47.2843C374.7767,-47.2843 385.7927,-47.2843 396.6204,-47.2843"/>
<polygon fill="#191970" stroke="#191970" points="396.9212,-50.7844 406.9212,-47.2843 396.9211,-43.7844 396.9212,-50.7844"/>
</g>
<!-- Node11 -->
<g id="node12" class="node">
<title>Node11</title>
<g id="a_node12"><a xlink:href="a00086.xhtml#a85aeeafb97867c551e217ba3283e6fec" target="_top" xlink:title="Obtient la fréquence d&#39;échantillonage d&#39;une frame MP3. ">
<polygon fill="#ffffff" stroke="#000000" points="400,-75.7843 400,-94.7843 548,-94.7843 548,-75.7843 400,-75.7843"/>
<text text-anchor="middle" x="474" y="-82.7843" font-family="Helvetica,sans-Serif" font-size="10.00" fill="#000000">mp3_mpeg_hdr_get_samprate</text>
</a>
</g>
</g>
<!-- Node8&#45;&gt;Node11 -->
<g id="edge17" class="edge">
<title>Node8&#45;&gt;Node11</title>
<path fill="none" stroke="#191970" d="M345.029,-56.8733C368.0999,-61.9556 396.6266,-68.2397 420.9805,-73.6046"/>
<polygon fill="#191970" stroke="#191970" points="420.2651,-77.0309 430.784,-75.7642 421.7711,-70.1948 420.2651,-77.0309"/>
</g>
<!-- Node12 -->
<g id="node13" class="node">
<title>Node12</title>
<g id="a_node13"><a xlink:href="a00086.xhtml#a407e3a1d9a7c3350620818a2ef19f142" target="_top" xlink:title="Permet de savoir si une frame MP3 contient du padding. ">
<polygon fill="#ffffff" stroke="#000000" points="586,-151.7843 586,-170.7843 721,-170.7843 721,-151.7843 586,-151.7843"/>
<text text-anchor="middle" x="653.5" y="-158.7843" font-family="Helvetica,sans-Serif" font-size="10.00" fill="#000000">mp3_mpeg_hdr_is_padding</text>
</a>
</g>
</g>
<!-- Node8&#45;&gt;Node12 -->
<g id="edge20" class="edge">
<title>Node8&#45;&gt;Node12</title>
<path fill="none" stroke="#191970" d="M314.858,-56.7932C333.2035,-69.4254 367.6163,-91.6162 400,-104.2843 457.008,-126.585 524.8097,-141.2597 575.9427,-150.1269"/>
<polygon fill="#191970" stroke="#191970" points="575.4943,-153.6008 585.939,-151.8234 576.6656,-146.6994 575.4943,-153.6008"/>
</g>
<!-- Node9&#45;&gt;Node7 -->
<g id="edge14" class="edge">
<title>Node9&#45;&gt;Node7</title>
<path fill="none" stroke="#191970" d="M541.0827,-51.0608C601.4716,-54.4605 689.5546,-59.4192 748.615,-62.7441"/>
<polygon fill="#191970" stroke="#191970" points="748.7461,-66.2569 758.927,-63.3246 749.1396,-59.268 748.7461,-66.2569"/>
</g>
<!-- Node10 -->
<g id="node11" class="node">
<title>Node10</title>
<g id="a_node11"><a xlink:href="a00086.xhtml#a2f08a046bc257029ca74b86b48204380" target="_top" xlink:title="Obtient la version de la norme MPEG du header d&#39;une frame MP3. ">
<polygon fill="#ffffff" stroke="#000000" points="584,-75.7843 584,-94.7843 723,-94.7843 723,-75.7843 584,-75.7843"/>
<text text-anchor="middle" x="653.5" y="-82.7843" font-family="Helvetica,sans-Serif" font-size="10.00" fill="#000000">mp3_mpeg_hdr_get_version</text>
</a>
</g>
</g>
<!-- Node9&#45;&gt;Node10 -->
<g id="edge15" class="edge">
<title>Node9&#45;&gt;Node10</title>
<path fill="none" stroke="#191970" d="M519.2954,-56.8733C543.4092,-61.9781 573.2508,-68.2956 598.6666,-73.6761"/>
<polygon fill="#191970" stroke="#191970" points="598.0222,-77.1172 608.5303,-75.7642 599.472,-70.2689 598.0222,-77.1172"/>
</g>
<!-- Node10&#45;&gt;Node7 -->
<g id="edge16" class="edge">
<title>Node10&#45;&gt;Node7</title>
<path fill="none" stroke="#191970" d="M723.261,-76.8953C731.7242,-75.8776 740.3307,-74.8426 748.6849,-73.838"/>
<polygon fill="#191970" stroke="#191970" points="749.213,-77.2998 758.7236,-72.6308 748.3772,-70.3499 749.213,-77.2998"/>
</g>
<!-- Node11&#45;&gt;Node7 -->
<g id="edge18" class="edge">
<title>Node11&#45;&gt;Node7</title>
<path fill="none" stroke="#191970" d="M512.8106,-94.8371C562.1558,-105.4831 649.7454,-119.3464 723,-104.2843 745.2491,-99.7096 768.8054,-89.2899 786.0167,-80.5166"/>
<polygon fill="#191970" stroke="#191970" points="787.6538,-83.6102 794.8772,-75.8595 784.397,-77.414 787.6538,-83.6102"/>
</g>
<!-- Node11&#45;&gt;Node10 -->
<g id="edge19" class="edge">
<title>Node11&#45;&gt;Node10</title>
<path fill="none" stroke="#191970" d="M548.0459,-85.2843C556.5835,-85.2843 565.3168,-85.2843 573.9237,-85.2843"/>
<polygon fill="#191970" stroke="#191970" points="573.9501,-88.7844 583.9501,-85.2843 573.9501,-81.7844 573.9501,-88.7844"/>
</g>
<!-- Node12&#45;&gt;Node7 -->
<g id="edge21" class="edge">
<title>Node12&#45;&gt;Node7</title>
<path fill="none" stroke="#191970" d="M688.7927,-151.6995C700.0747,-147.9598 712.3828,-143.144 723,-137.2843 750.2698,-122.2337 777.6166,-98.6877 794.5413,-82.8833"/>
<polygon fill="#191970" stroke="#191970" points="797.1348,-85.2468 801.9665,-75.8178 792.3094,-80.1757 797.1348,-85.2468"/>
</g>
</g>
</svg>
