<?xml version="1.0" encoding="UTF-8" standalone="no"?>
<!DOCTYPE svg PUBLIC "-//W3C//DTD SVG 1.1//EN"
 "http://www.w3.org/Graphics/SVG/1.1/DTD/svg11.dtd">
<!-- Generated by graphviz version 2.40.1 (20161225.0304)
 -->
<!-- Title: src/file_type/bmp.h Pages: 1 -->
<!--zoomable 196 -->
<svg id="main" version="1.1" xmlns="http://www.w3.org/2000/svg" xmlns:xlink="http://www.w3.org/1999/xlink" xml:space="preserve" onload="init(evt)">
<style type="text/css"><![CDATA[
.edge:hover path { stroke: red; }
.edge:hover polygon { stroke: red; fill: red; }
]]></style>
<script type="text/javascript"><![CDATA[
var edges = document.getElementsByTagName('g');
if (edges && edges.length) {
  for (var i=0;i<edges.length;i++) {
    if (edges[i].id.substr(0,4)=='edge') {
      edges[i].setAttribute('class','edge');
    }
  }
}
]]></script>
        <defs>
                <circle id="rim" cx="0" cy="0" r="7"/>
                <circle id="rim2" cx="0" cy="0" r="3.5"/>
                <g id="zoomPlus">
                        <use xlink:href="#rim" fill="#404040">
                                <set attributeName="fill" to="#808080" begin="zoomplus.mouseover" end="zoomplus.mouseout"/>
                        </use>
                        <path d="M-4,0h8M0,-4v8" fill="none" stroke="white" stroke-width="1.5" pointer-events="none"/>
                </g>
                <g id="zoomMin">
                        <use xlink:href="#rim" fill="#404040">
                                <set attributeName="fill" to="#808080" begin="zoomminus.mouseover" end="zoomminus.mouseout"/>
                        </use>
                        <path d="M-4,0h8" fill="none" stroke="white" stroke-width="1.5" pointer-events="none"/>
                </g>
                <g id="dirArrow">
                        <path fill="none" stroke="white" stroke-width="1.5" d="M0,-3.0v7 M-2.5,-0.5L0,-3.0L2.5,-0.5"/>
                </g>
               <g id="resetDef">
                       <use xlink:href="#rim2" fill="#404040">
                               <set attributeName="fill" to="#808080" begin="reset.mouseover" end="reset.mouseout"/>
                       </use>
               </g>
        </defs>

<script type="text/javascript">
var viewWidth = 2736;
var viewHeight = 196;
var sectionId = 'dynsection-1';
</script>
<script xlink:href="svgpan.js"/>
<svg id="graph" class="graph">
<g id="viewport">
<title>src/file_type/bmp.h</title>
<polygon fill="#ffffff" stroke="transparent" points="-4,4 -4,-192 2732,-192 2732,4 -4,4"/>
<!-- Node10 -->
<g id="node1" class="node">
<title>Node10</title>
<polygon fill="#bfbfbf" stroke="#000000" points="1285,-168.5 1285,-187.5 1385,-187.5 1385,-168.5 1285,-168.5"/>
<text text-anchor="middle" x="1335" y="-175.5" font-family="Helvetica,sans-Serif" font-size="10.00" fill="#000000">src/file_type/bmp.h</text>
</g>
<!-- Node11 -->
<g id="node2" class="node">
<title>Node11</title>
<g id="a_node2"><a xlink:href="a00047.xhtml" target="_top" xlink:title="Définitions communes à la partie privée de la bibliothèque. ">
<polygon fill="#ffffff" stroke="#000000" points="1295.5,-112.5 1295.5,-131.5 1374.5,-131.5 1374.5,-112.5 1295.5,-112.5"/>
<text text-anchor="middle" x="1335" y="-119.5" font-family="Helvetica,sans-Serif" font-size="10.00" fill="#000000">src/common.h</text>
</a>
</g>
</g>
<!-- Node10&#45;&gt;Node11 -->
<g id="edge1" class="edge">
<title>Node10&#45;&gt;Node11</title>
<path fill="none" stroke="#191970" d="M1328.5113,-158.1575C1327.919,-149.155 1328.3335,-138.9199 1329.7549,-131.6427"/>
<polygon fill="#191970" stroke="#191970" points="1325.0561,-158.739 1329.7332,-168.2455 1332.0053,-157.8972 1325.0561,-158.739"/>
</g>
<!-- Node11&#45;&gt;Node10 -->
<g id="edge26" class="edge">
<title>Node11&#45;&gt;Node10</title>
<path fill="none" stroke="#191970" d="M1341.4795,-141.7046C1342.0821,-150.6944 1341.6779,-160.9382 1340.2668,-168.2455"/>
<polygon fill="#191970" stroke="#191970" points="1344.9368,-141.1421 1340.2451,-131.6427 1337.9889,-141.9945 1344.9368,-141.1421"/>
</g>
<!-- Node12 -->
<g id="node3" class="node">
<title>Node12</title>
<g id="a_node3"><a xlink:href="a00014.xhtml" target="_top" xlink:title="Algorithme End Of Chunk (EOC). ">
<polygon fill="#ffffff" stroke="#000000" points="0,-56.5 0,-75.5 78,-75.5 78,-56.5 0,-56.5"/>
<text text-anchor="middle" x="39" y="-63.5" font-family="Helvetica,sans-Serif" font-size="10.00" fill="#000000">src/algo/eoc.c</text>
</a>
</g>
</g>
<!-- Node11&#45;&gt;Node12 -->
<g id="edge2" class="edge">
<title>Node11&#45;&gt;Node12</title>
<path fill="none" stroke="#191970" d="M1285.071,-121.1499C1083.4989,-117.5633 329.1808,-102.6131 92,-76 87.5334,-75.4988 82.8785,-74.834 78.263,-74.0846"/>
<polygon fill="#191970" stroke="#191970" points="1285.2937,-124.6542 1295.354,-121.3315 1285.4173,-117.6553 1285.2937,-124.6542"/>
</g>
<!-- Node13 -->
<g id="node4" class="node">
<title>Node13</title>
<g id="a_node4"><a xlink:href="a00017.xhtml" target="_top" xlink:title="Algorithme End Of Chunk (EOC). ">
<polygon fill="#ffffff" stroke="#000000" points="134,-56.5 134,-75.5 212,-75.5 212,-56.5 134,-56.5"/>
<text text-anchor="middle" x="173" y="-63.5" font-family="Helvetica,sans-Serif" font-size="10.00" fill="#000000">src/algo/eoc.h</text>
</a>
</g>
</g>
<!-- Node11&#45;&gt;Node13 -->
<g id="edge3" class="edge">
<title>Node11&#45;&gt;Node13</title>
<path fill="none" stroke="#191970" d="M1285.3736,-121.0347C1097.713,-117.2162 431.4499,-102.0877 221,-76 218.1278,-75.644 215.1719,-75.2061 212.2051,-74.7144"/>
<polygon fill="#191970" stroke="#191970" points="1285.4289,-124.5365 1295.4976,-121.2392 1285.5703,-117.5379 1285.4289,-124.5365"/>
</g>
<!-- Node14 -->
<g id="node5" class="node">
<title>Node14</title>
<g id="a_node5"><a xlink:href="a00065.xhtml" target="_top" xlink:title="Extraction des données cachées dans un fichier hôte. ">
<polygon fill="#ffffff" stroke="#000000" points="294.5,-.5 294.5,-19.5 365.5,-19.5 365.5,-.5 294.5,-.5"/>
<text text-anchor="middle" x="330" y="-7.5" font-family="Helvetica,sans-Serif" font-size="10.00" fill="#000000">src/extract.c</text>
</a>
</g>
</g>
<!-- Node11&#45;&gt;Node14 -->
<g id="edge37" class="edge">
<title>Node11&#45;&gt;Node14</title>
<path fill="none" stroke="#191970" d="M1285.2895,-121.0435C1060.0716,-116.5948 145.4516,-97.2439 125,-76 118.8352,-69.5963 119.4451,-62.9394 125,-56 145.7997,-30.0158 241.1273,-17.7016 294.1516,-12.7725"/>
<polygon fill="#191970" stroke="#191970" points="1285.4199,-124.5466 1295.4868,-121.244 1285.5575,-117.548 1285.4199,-124.5466"/>
</g>
<!-- Node15 -->
<g id="node6" class="node">
<title>Node15</title>
<g id="a_node6"><a xlink:href="a00110.xhtml" target="_top" xlink:title="Insertion des données cachées dans une copie de l&#39;hôte. ">
<polygon fill="#ffffff" stroke="#000000" points="396.5,-.5 396.5,-19.5 461.5,-19.5 461.5,-.5 396.5,-.5"/>
<text text-anchor="middle" x="429" y="-7.5" font-family="Helvetica,sans-Serif" font-size="10.00" fill="#000000">src/insert.c</text>
</a>
</g>
</g>
<!-- Node11&#45;&gt;Node15 -->
<g id="edge45" class="edge">
<title>Node11&#45;&gt;Node15</title>
<path fill="none" stroke="#191970" d="M1285.4169,-120.9742C1155.6253,-117.8826 808.325,-106.8864 698,-76 679.2416,-70.7484 677.3928,-62.4158 659,-56 590.9447,-32.2609 507.0473,-19.3586 461.7478,-13.6561"/>
<polygon fill="#191970" stroke="#191970" points="1285.3953,-124.4746 1295.4741,-121.2083 1285.5582,-117.4765 1285.3953,-124.4746"/>
</g>
<!-- Node16 -->
<g id="node7" class="node">
<title>Node16</title>
<g id="a_node7"><a xlink:href="a00020.xhtml" target="_top" xlink:title="Algorithme EOF. ">
<polygon fill="#ffffff" stroke="#000000" points="707,-56.5 707,-75.5 783,-75.5 783,-56.5 707,-56.5"/>
<text text-anchor="middle" x="745" y="-63.5" font-family="Helvetica,sans-Serif" font-size="10.00" fill="#000000">src/algo/eof.c</text>
</a>
</g>
</g>
<!-- Node11&#45;&gt;Node16 -->
<g id="edge6" class="edge">
<title>Node11&#45;&gt;Node16</title>
<path fill="none" stroke="#191970" d="M1285.1587,-119.4862C1189.9521,-114.2977 975.7798,-100.7641 797,-76 792.5379,-75.3819 787.8789,-74.6341 783.2618,-73.8288"/>
<polygon fill="#191970" stroke="#191970" points="1285.1825,-122.9924 1295.3561,-120.0346 1285.5585,-116.0025 1285.1825,-122.9924"/>
</g>
<!-- Node17 -->
<g id="node8" class="node">
<title>Node17</title>
<g id="a_node8"><a xlink:href="a00023.xhtml" target="_top" xlink:title="Algorithme EOF. ">
<polygon fill="#ffffff" stroke="#000000" points="230,-56.5 230,-75.5 306,-75.5 306,-56.5 230,-56.5"/>
<text text-anchor="middle" x="268" y="-63.5" font-family="Helvetica,sans-Serif" font-size="10.00" fill="#000000">src/algo/eof.h</text>
</a>
</g>
</g>
<!-- Node11&#45;&gt;Node17 -->
<g id="edge7" class="edge">
<title>Node11&#45;&gt;Node17</title>
<path fill="none" stroke="#191970" d="M1285.206,-120.841C1107.6582,-116.5387 506.0337,-100.4612 315,-76 312.1038,-75.6292 309.121,-75.1728 306.1295,-74.6612"/>
<polygon fill="#191970" stroke="#191970" points="1285.2237,-124.3423 1295.305,-121.084 1285.3922,-117.3443 1285.2237,-124.3423"/>
</g>
<!-- Node18 -->
<g id="node9" class="node">
<title>Node18</title>
<g id="a_node9"><a xlink:href="a00026.xhtml" target="_top" xlink:title="Algorithme JUNK CHUNK. ">
<polygon fill="#ffffff" stroke="#000000" points="792,-.5 792,-19.5 904,-19.5 904,-.5 792,-.5"/>
<text text-anchor="middle" x="848" y="-7.5" font-family="Helvetica,sans-Serif" font-size="10.00" fill="#000000">src/algo/junk_chunk.c</text>
</a>
</g>
</g>
<!-- Node11&#45;&gt;Node18 -->
<g id="edge10" class="edge">
<title>Node11&#45;&gt;Node18</title>
<path fill="none" stroke="#191970" d="M1285.2315,-121.1922C1163.8567,-118.708 860.3178,-109.2049 830,-76 815.5852,-60.2125 830.3401,-33.9968 840.3713,-19.8226"/>
<polygon fill="#191970" stroke="#191970" points="1285.3017,-124.6941 1295.3687,-121.3919 1285.4396,-117.6955 1285.3017,-124.6941"/>
</g>
<!-- Node19 -->
<g id="node10" class="node">
<title>Node19</title>
<g id="a_node10"><a xlink:href="a00071.xhtml" target="_top" xlink:title="Fichier AVI. ">
<polygon fill="#ffffff" stroke="#000000" points="839,-56.5 839,-75.5 933,-75.5 933,-56.5 839,-56.5"/>
<text text-anchor="middle" x="886" y="-63.5" font-family="Helvetica,sans-Serif" font-size="10.00" fill="#000000">src/file_type/avi.h</text>
</a>
</g>
</g>
<!-- Node11&#45;&gt;Node19 -->
<g id="edge11" class="edge">
<title>Node11&#45;&gt;Node19</title>
<path fill="none" stroke="#191970" d="M1285.1361,-117.6939C1208.8193,-110.4101 1059.0783,-94.6184 933,-76 931.9253,-75.8413 930.8396,-75.6778 929.7464,-75.5101"/>
<polygon fill="#191970" stroke="#191970" points="1285.1223,-121.2081 1295.4073,-118.6646 1285.781,-114.2391 1285.1223,-121.2081"/>
</g>
<!-- Node20 -->
<g id="node11" class="node">
<title>Node20</title>
<g id="a_node11"><a xlink:href="a00029.xhtml" target="_top" xlink:title="Algorithme JUNK CHUNK. ">
<polygon fill="#ffffff" stroke="#000000" points="324,-56.5 324,-75.5 436,-75.5 436,-56.5 324,-56.5"/>
<text text-anchor="middle" x="380" y="-63.5" font-family="Helvetica,sans-Serif" font-size="10.00" fill="#000000">src/algo/junk_chunk.h</text>
</a>
</g>
</g>
<!-- Node11&#45;&gt;Node20 -->
<g id="edge14" class="edge">
<title>Node11&#45;&gt;Node20</title>
<path fill="none" stroke="#191970" d="M1285.3634,-121.1917C1150.1639,-118.6107 764.1372,-108.7119 445,-76 442.1605,-75.7089 439.2557,-75.3794 436.3255,-75.0216"/>
<polygon fill="#191970" stroke="#191970" points="1285.3503,-124.692 1295.4137,-121.3788 1285.4806,-117.6932 1285.3503,-124.692"/>
</g>
<!-- Node21 -->
<g id="node12" class="node">
<title>Node21</title>
<g id="a_node12"><a xlink:href="a00032.xhtml" target="_top" xlink:title="Algorithme LSB. ">
<polygon fill="#ffffff" stroke="#000000" points="951.5,-56.5 951.5,-75.5 1026.5,-75.5 1026.5,-56.5 951.5,-56.5"/>
<text text-anchor="middle" x="989" y="-63.5" font-family="Helvetica,sans-Serif" font-size="10.00" fill="#000000">src/algo/lsb.c</text>
</a>
</g>
</g>
<!-- Node11&#45;&gt;Node21 -->
<g id="edge17" class="edge">
<title>Node11&#45;&gt;Node21</title>
<path fill="none" stroke="#191970" d="M1285.167,-115.3216C1225.5123,-107.1049 1122.6702,-92.2347 1035,-76 1032.2678,-75.494 1029.4499,-74.9461 1026.6173,-74.3762"/>
<polygon fill="#191970" stroke="#191970" points="1284.6927,-118.7892 1295.0754,-116.6798 1285.6434,-111.8541 1284.6927,-118.7892"/>
</g>
<!-- Node22 -->
<g id="node13" class="node">
<title>Node22</title>
<g id="a_node13"><a xlink:href="a00035.xhtml" target="_top" xlink:title="Algorithme LSB. ">
<polygon fill="#ffffff" stroke="#000000" points="454.5,-56.5 454.5,-75.5 529.5,-75.5 529.5,-56.5 454.5,-56.5"/>
<text text-anchor="middle" x="492" y="-63.5" font-family="Helvetica,sans-Serif" font-size="10.00" fill="#000000">src/algo/lsb.h</text>
</a>
</g>
</g>
<!-- Node11&#45;&gt;Node22 -->
<g id="edge18" class="edge">
<title>Node11&#45;&gt;Node22</title>
<path fill="none" stroke="#191970" d="M1284.6544,-120.1268C1133.2081,-114.3287 683.3339,-95.8669 538,-76 535.2469,-75.6237 532.4137,-75.1709 529.5702,-74.6686"/>
<polygon fill="#191970" stroke="#191970" points="1284.9085,-123.639 1295.0346,-120.5223 1285.1751,-116.644 1284.9085,-123.639"/>
</g>
<!-- Node23 -->
<g id="node14" class="node">
<title>Node23</title>
<g id="a_node14"><a xlink:href="a00038.xhtml" target="_top" xlink:title="Algorithme METADATA. ">
<polygon fill="#ffffff" stroke="#000000" points="1044.5,-56.5 1044.5,-75.5 1147.5,-75.5 1147.5,-56.5 1044.5,-56.5"/>
<text text-anchor="middle" x="1096" y="-63.5" font-family="Helvetica,sans-Serif" font-size="10.00" fill="#000000">src/algo/metadata.c</text>
</a>
</g>
</g>
<!-- Node11&#45;&gt;Node23 -->
<g id="edge21" class="edge">
<title>Node11&#45;&gt;Node23</title>
<path fill="none" stroke="#191970" d="M1285.3457,-110.3655C1241.2902,-100.0429 1177.7197,-85.1477 1136.6293,-75.5198"/>
<polygon fill="#191970" stroke="#191970" points="1284.7309,-113.8162 1295.2657,-112.6899 1286.3279,-107.0008 1284.7309,-113.8162"/>
</g>
<!-- Node24 -->
<g id="node15" class="node">
<title>Node24</title>
<g id="a_node15"><a xlink:href="a00041.xhtml" target="_top" xlink:title="Algorithme METADATA. ">
<polygon fill="#ffffff" stroke="#000000" points="547.5,-56.5 547.5,-75.5 650.5,-75.5 650.5,-56.5 547.5,-56.5"/>
<text text-anchor="middle" x="599" y="-63.5" font-family="Helvetica,sans-Serif" font-size="10.00" fill="#000000">src/algo/metadata.h</text>
</a>
</g>
</g>
<!-- Node11&#45;&gt;Node24 -->
<g id="edge22" class="edge">
<title>Node11&#45;&gt;Node24</title>
<path fill="none" stroke="#191970" d="M1284.9843,-119.9672C1173.4513,-115.1274 896.0032,-101.3872 665,-76 660.3921,-75.4936 655.6128,-74.9013 650.8283,-74.2623"/>
<polygon fill="#191970" stroke="#191970" points="1285.1119,-123.4758 1295.2528,-120.4078 1285.4121,-116.4822 1285.1119,-123.4758"/>
</g>
<!-- Node25 -->
<g id="node16" class="node">
<title>Node25</title>
<g id="a_node16"><a xlink:href="a00044.xhtml" target="_top" xlink:title="Module de vérification de la compatibilité. ">
<polygon fill="#ffffff" stroke="#000000" points="1166,-56.5 1166,-75.5 1268,-75.5 1268,-56.5 1166,-56.5"/>
<text text-anchor="middle" x="1217" y="-63.5" font-family="Helvetica,sans-Serif" font-size="10.00" fill="#000000">src/check_compa.c</text>
</a>
</g>
</g>
<!-- Node11&#45;&gt;Node25 -->
<g id="edge25" class="edge">
<title>Node11&#45;&gt;Node25</title>
<path fill="none" stroke="#191970" d="M1305.4453,-107.9741C1284.0805,-97.8348 1255.7884,-84.408 1237.0202,-75.5011"/>
<polygon fill="#191970" stroke="#191970" points="1304.1802,-111.2478 1314.7151,-112.3733 1307.1814,-104.9238 1304.1802,-111.2478"/>
</g>
<!-- Node26 -->
<g id="node17" class="node">
<title>Node26</title>
<g id="a_node17"><a xlink:href="a00095.xhtml" target="_top" xlink:title="Fichier PNG. ">
<polygon fill="#ffffff" stroke="#000000" points="1286.5,-56.5 1286.5,-75.5 1383.5,-75.5 1383.5,-56.5 1286.5,-56.5"/>
<text text-anchor="middle" x="1335" y="-63.5" font-family="Helvetica,sans-Serif" font-size="10.00" fill="#000000">src/file_type/png.h</text>
</a>
</g>
</g>
<!-- Node11&#45;&gt;Node26 -->
<g id="edge27" class="edge">
<title>Node11&#45;&gt;Node26</title>
<path fill="none" stroke="#191970" d="M1328.5113,-102.1575C1327.919,-93.155 1328.3335,-82.9199 1329.7549,-75.6427"/>
<polygon fill="#191970" stroke="#191970" points="1325.0561,-102.739 1329.7332,-112.2455 1332.0053,-101.8972 1325.0561,-102.739"/>
</g>
<!-- Node27 -->
<g id="node18" class="node">
<title>Node27</title>
<g id="a_node18"><a xlink:href="a00104.xhtml" target="_top" xlink:title="Fichier WAVE. ">
<polygon fill="#ffffff" stroke="#000000" points="1401.5,-56.5 1401.5,-75.5 1500.5,-75.5 1500.5,-56.5 1401.5,-56.5"/>
<text text-anchor="middle" x="1451" y="-63.5" font-family="Helvetica,sans-Serif" font-size="10.00" fill="#000000">src/file_type/wav.h</text>
</a>
</g>
</g>
<!-- Node11&#45;&gt;Node27 -->
<g id="edge29" class="edge">
<title>Node11&#45;&gt;Node27</title>
<path fill="none" stroke="#191970" d="M1358.8486,-107.5971C1378.4197,-97.558 1405.8411,-84.4393 1425.7808,-75.6427"/>
<polygon fill="#191970" stroke="#191970" points="1357.1858,-104.5169 1349.9388,-112.2455 1360.4237,-110.723 1357.1858,-104.5169"/>
</g>
<!-- Node28 -->
<g id="node19" class="node">
<title>Node28</title>
<g id="a_node19"><a xlink:href="a00089.xhtml" target="_top" xlink:title="Fichier MP3. ">
<polygon fill="#ffffff" stroke="#000000" points="1557,-56.5 1557,-75.5 1657,-75.5 1657,-56.5 1557,-56.5"/>
<text text-anchor="middle" x="1607" y="-63.5" font-family="Helvetica,sans-Serif" font-size="10.00" fill="#000000">src/file_type/mp3.h</text>
</a>
</g>
</g>
<!-- Node11&#45;&gt;Node28 -->
<g id="edge31" class="edge">
<title>Node11&#45;&gt;Node28</title>
<path fill="none" stroke="#191970" d="M1384.7869,-110.6053C1433.7038,-100.1823 1507.8042,-84.9531 1556.8489,-75.261"/>
<polygon fill="#191970" stroke="#191970" points="1383.7954,-107.2381 1374.7489,-112.7527 1385.2599,-114.0832 1383.7954,-107.2381"/>
</g>
<!-- Node29 -->
<g id="node20" class="node">
<title>Node29</title>
<g id="a_node20"><a xlink:href="a00086.xhtml" target="_top" xlink:title="Fichier MP3. ">
<polygon fill="#ffffff" stroke="#000000" points="1518,-.5 1518,-19.5 1618,-19.5 1618,-.5 1518,-.5"/>
<text text-anchor="middle" x="1568" y="-7.5" font-family="Helvetica,sans-Serif" font-size="10.00" fill="#000000">src/file_type/mp3.c</text>
</a>
</g>
</g>
<!-- Node11&#45;&gt;Node29 -->
<g id="edge41" class="edge">
<title>Node11&#45;&gt;Node29</title>
<path fill="none" stroke="#191970" d="M1384.4709,-116.6795C1421.0413,-110.9759 1470.8916,-99.3591 1509,-76 1532.8483,-61.3818 1552.6078,-34.1904 1562.0386,-19.6917"/>
<polygon fill="#191970" stroke="#191970" points="1383.916,-113.2233 1374.5292,-118.1363 1384.931,-120.1494 1383.916,-113.2233"/>
</g>
<!-- Node30 -->
<g id="node21" class="node">
<title>Node30</title>
<g id="a_node21"><a xlink:href="a00083.xhtml" target="_top" xlink:title="Fichier FLV. ">
<polygon fill="#ffffff" stroke="#000000" points="1675,-56.5 1675,-75.5 1767,-75.5 1767,-56.5 1675,-56.5"/>
<text text-anchor="middle" x="1721" y="-63.5" font-family="Helvetica,sans-Serif" font-size="10.00" fill="#000000">src/file_type/flv.h</text>
</a>
</g>
</g>
<!-- Node11&#45;&gt;Node30 -->
<g id="edge34" class="edge">
<title>Node11&#45;&gt;Node30</title>
<path fill="none" stroke="#191970" d="M1384.7163,-114.9211C1448.0979,-106.4433 1560.6795,-91.4425 1657,-76 1662.7497,-75.0782 1668.8254,-74.0392 1674.8744,-72.9885"/>
<polygon fill="#191970" stroke="#191970" points="1384.0469,-111.4794 1374.5996,-116.2753 1384.9756,-118.4175 1384.0469,-111.4794"/>
</g>
<!-- Node31 -->
<g id="node22" class="node">
<title>Node31</title>
<g id="a_node22"><a xlink:href="a00050.xhtml" target="_top" xlink:title="Module de détection de l&#39;algorithme. ">
<polygon fill="#ffffff" stroke="#000000" points="1785,-56.5 1785,-75.5 1877,-75.5 1877,-56.5 1785,-56.5"/>
<text text-anchor="middle" x="1831" y="-63.5" font-family="Helvetica,sans-Serif" font-size="10.00" fill="#000000">src/detect_algo.c</text>
</a>
</g>
</g>
<!-- Node11&#45;&gt;Node31 -->
<g id="edge36" class="edge">
<title>Node11&#45;&gt;Node31</title>
<path fill="none" stroke="#191970" d="M1384.6692,-118.0569C1466.4762,-111.2853 1634.5927,-96.2005 1776,-76 1778.8823,-75.5883 1781.8443,-75.1357 1784.8279,-74.6575"/>
<polygon fill="#191970" stroke="#191970" points="1384.3348,-114.5725 1374.6551,-118.8799 1384.9082,-121.549 1384.3348,-114.5725"/>
</g>
<!-- Node32 -->
<g id="node23" class="node">
<title>Node32</title>
<g id="a_node23"><a xlink:href="a00068.xhtml" target="_top" xlink:title="Fichier AVI. ">
<polygon fill="#ffffff" stroke="#000000" points="1895,-56.5 1895,-75.5 1989,-75.5 1989,-56.5 1895,-56.5"/>
<text text-anchor="middle" x="1942" y="-63.5" font-family="Helvetica,sans-Serif" font-size="10.00" fill="#000000">src/file_type/avi.c</text>
</a>
</g>
</g>
<!-- Node11&#45;&gt;Node32 -->
<g id="edge38" class="edge">
<title>Node11&#45;&gt;Node32</title>
<path fill="none" stroke="#191970" d="M1384.6299,-119.4149C1481.3814,-114.0311 1701.8683,-100.0729 1886,-76 1888.9378,-75.6159 1891.9561,-75.1845 1894.9957,-74.7222"/>
<polygon fill="#191970" stroke="#191970" points="1384.347,-115.9251 1374.5544,-119.9693 1384.7316,-122.9145 1384.347,-115.9251"/>
</g>
<!-- Node33 -->
<g id="node24" class="node">
<title>Node33</title>
<g id="a_node24"><a xlink:href="a00074.xhtml" target="_top" xlink:title="Fichier BMP. ">
<polygon fill="#ffffff" stroke="#000000" points="2007,-56.5 2007,-75.5 2107,-75.5 2107,-56.5 2007,-56.5"/>
<text text-anchor="middle" x="2057" y="-63.5" font-family="Helvetica,sans-Serif" font-size="10.00" fill="#000000">src/file_type/bmp.c</text>
</a>
</g>
</g>
<!-- Node11&#45;&gt;Node33 -->
<g id="edge39" class="edge">
<title>Node11&#45;&gt;Node33</title>
<path fill="none" stroke="#191970" d="M1384.9298,-120.2192C1495.6289,-115.9025 1769.915,-103.1746 1998,-76 2000.8885,-75.6559 2003.851,-75.2674 2006.8367,-74.8483"/>
<polygon fill="#191970" stroke="#191970" points="1384.593,-116.7294 1374.7347,-120.6109 1384.8618,-123.7243 1384.593,-116.7294"/>
</g>
<!-- Node34 -->
<g id="node25" class="node">
<title>Node34</title>
<g id="a_node25"><a xlink:href="a00080.xhtml" target="_top" xlink:title="Fichier FLV. ">
<polygon fill="#ffffff" stroke="#000000" points="2125,-56.5 2125,-75.5 2217,-75.5 2217,-56.5 2125,-56.5"/>
<text text-anchor="middle" x="2171" y="-63.5" font-family="Helvetica,sans-Serif" font-size="10.00" fill="#000000">src/file_type/flv.c</text>
</a>
</g>
</g>
<!-- Node11&#45;&gt;Node34 -->
<g id="edge40" class="edge">
<title>Node11&#45;&gt;Node34</title>
<path fill="none" stroke="#191970" d="M1384.8741,-121.1534C1508.9129,-118.5944 1841.1438,-108.9586 2116,-76 2118.8908,-75.6534 2121.8594,-75.2506 2124.8479,-74.8097"/>
<polygon fill="#191970" stroke="#191970" points="1384.4937,-117.6603 1374.5657,-121.3596 1384.6337,-124.6589 1384.4937,-117.6603"/>
</g>
<!-- Node35 -->
<g id="node26" class="node">
<title>Node35</title>
<g id="a_node26"><a xlink:href="a00092.xhtml" target="_top" xlink:title="Fichier PNG. ">
<polygon fill="#ffffff" stroke="#000000" points="2235.5,-56.5 2235.5,-75.5 2332.5,-75.5 2332.5,-56.5 2235.5,-56.5"/>
<text text-anchor="middle" x="2284" y="-63.5" font-family="Helvetica,sans-Serif" font-size="10.00" fill="#000000">src/file_type/png.c</text>
</a>
</g>
</g>
<!-- Node11&#45;&gt;Node35 -->
<g id="edge42" class="edge">
<title>Node11&#45;&gt;Node35</title>
<path fill="none" stroke="#191970" d="M1384.7259,-121.5076C1520.1613,-119.7188 1906.8133,-111.6271 2226,-76 2229.0465,-75.66 2232.1755,-75.2623 2235.3258,-74.8252"/>
<polygon fill="#191970" stroke="#191970" points="1384.6128,-118.0086 1374.6579,-121.6349 1384.7014,-125.0081 1384.6128,-118.0086"/>
</g>
<!-- Node36 -->
<g id="node27" class="node">
<title>Node36</title>
<g id="a_node27"><a xlink:href="a00101.xhtml" target="_top" xlink:title="Fichier WAVE. ">
<polygon fill="#ffffff" stroke="#000000" points="2350.5,-56.5 2350.5,-75.5 2449.5,-75.5 2449.5,-56.5 2350.5,-56.5"/>
<text text-anchor="middle" x="2400" y="-63.5" font-family="Helvetica,sans-Serif" font-size="10.00" fill="#000000">src/file_type/wav.c</text>
</a>
</g>
</g>
<!-- Node11&#45;&gt;Node36 -->
<g id="edge43" class="edge">
<title>Node11&#45;&gt;Node36</title>
<path fill="none" stroke="#191970" d="M1384.7241,-120.5538C1560.6522,-115.3081 2153.1812,-96.5087 2342,-76 2344.7427,-75.7021 2347.5521,-75.3558 2350.3835,-74.9746"/>
<polygon fill="#191970" stroke="#191970" points="1384.6045,-117.0557 1374.7129,-120.8511 1384.8124,-124.0526 1384.6045,-117.0557"/>
</g>
<!-- Node37 -->
<g id="node28" class="node">
<title>Node37</title>
<g id="a_node28"><a xlink:href="a00107.xhtml" target="_top" xlink:title="Fonction d&#39;initialisation et de libération de la bibliothèque. ">
<polygon fill="#ffffff" stroke="#000000" points="2468,-56.5 2468,-75.5 2522,-75.5 2522,-56.5 2468,-56.5"/>
<text text-anchor="middle" x="2495" y="-63.5" font-family="Helvetica,sans-Serif" font-size="10.00" fill="#000000">src/init.c</text>
</a>
</g>
</g>
<!-- Node11&#45;&gt;Node37 -->
<g id="edge44" class="edge">
<title>Node11&#45;&gt;Node37</title>
<path fill="none" stroke="#191970" d="M1384.8145,-121.4832C1573.944,-119.2851 2247.5163,-109.2454 2459,-76 2461.8195,-75.5568 2464.7333,-74.9705 2467.6256,-74.3034"/>
<polygon fill="#191970" stroke="#191970" points="1384.573,-117.9857 1374.6136,-121.5996 1384.6529,-124.9852 1384.573,-117.9857"/>
</g>
<!-- Node38 -->
<g id="node29" class="node">
<title>Node38</title>
<g id="a_node29"><a xlink:href="a00116.xhtml" target="_top" xlink:title="Algorithme de protection des données avec le mot de passe. ">
<polygon fill="#ffffff" stroke="#000000" points="2540,-56.5 2540,-75.5 2624,-75.5 2624,-56.5 2540,-56.5"/>
<text text-anchor="middle" x="2582" y="-63.5" font-family="Helvetica,sans-Serif" font-size="10.00" fill="#000000">src/protection.c</text>
</a>
</g>
</g>
<!-- Node11&#45;&gt;Node38 -->
<g id="edge46" class="edge">
<title>Node11&#45;&gt;Node38</title>
<path fill="none" stroke="#191970" d="M1384.6754,-121.1182C1581.0474,-117.4732 2303.5206,-102.5141 2531,-76 2533.8679,-75.6657 2536.8156,-75.2588 2539.7785,-74.8025"/>
<polygon fill="#191970" stroke="#191970" points="1384.5795,-117.6193 1374.6457,-121.303 1384.7085,-124.6181 1384.5795,-117.6193"/>
</g>
<!-- Node39 -->
<g id="node30" class="node">
<title>Node39</title>
<g id="a_node30"><a xlink:href="a00128.xhtml" target="_top" xlink:title="Proposition des algorithmes. ">
<polygon fill="#ffffff" stroke="#000000" points="2642,-56.5 2642,-75.5 2728,-75.5 2728,-56.5 2642,-56.5"/>
<text text-anchor="middle" x="2685" y="-63.5" font-family="Helvetica,sans-Serif" font-size="10.00" fill="#000000">src/sugg_algo.c</text>
</a>
</g>
</g>
<!-- Node11&#45;&gt;Node39 -->
<g id="edge47" class="edge">
<title>Node11&#45;&gt;Node39</title>
<path fill="none" stroke="#191970" d="M1385.0903,-121.2609C1592.4735,-118.041 2384.5542,-104.1206 2633,-76 2635.9232,-75.6691 2638.928,-75.2647 2641.9485,-74.8104"/>
<polygon fill="#191970" stroke="#191970" points="1384.7541,-117.7656 1374.8092,-121.4192 1384.8619,-124.7648 1384.7541,-117.7656"/>
</g>
<!-- Node13&#45;&gt;Node14 -->
<g id="edge4" class="edge">
<title>Node13&#45;&gt;Node14</title>
<path fill="none" stroke="#191970" d="M209.6619,-52.9231C238.3624,-42.686 277.6044,-28.6889 303.3629,-19.5011"/>
<polygon fill="#191970" stroke="#191970" points="208.2322,-49.7171 199.9893,-56.3733 210.5839,-56.3102 208.2322,-49.7171"/>
</g>
<!-- Node13&#45;&gt;Node15 -->
<g id="edge5" class="edge">
<title>Node13&#45;&gt;Node15</title>
<path fill="none" stroke="#191970" d="M222.0207,-55.2767C273.2677,-44.0664 352.2413,-26.791 396.3459,-17.1431"/>
<polygon fill="#191970" stroke="#191970" points="221.1806,-51.8776 212.1596,-57.4338 222.6765,-58.716 221.1806,-51.8776"/>
</g>
<!-- Node17&#45;&gt;Node14 -->
<g id="edge8" class="edge">
<title>Node17&#45;&gt;Node14</title>
<path fill="none" stroke="#191970" d="M286.4221,-49.3607C297.1481,-39.6727 310.2934,-27.7995 319.3242,-19.6427"/>
<polygon fill="#191970" stroke="#191970" points="283.8746,-46.9453 278.7996,-56.2455 288.5666,-52.14 283.8746,-46.9453"/>
</g>
<!-- Node17&#45;&gt;Node15 -->
<g id="edge9" class="edge">
<title>Node17&#45;&gt;Node15</title>
<path fill="none" stroke="#191970" d="M305.2111,-53.057C334.6759,-42.8084 375.1541,-28.729 401.6843,-19.5011"/>
<polygon fill="#191970" stroke="#191970" points="303.972,-49.7822 295.6769,-56.3733 306.2717,-56.3937 303.972,-49.7822"/>
</g>
<!-- Node19&#45;&gt;Node11 -->
<g id="edge13" class="edge">
<title>Node19&#45;&gt;Node11</title>
<path fill="none" stroke="#191970" d="M943.0004,-74.7675C945.7109,-75.2001 948.388,-75.6143 951,-76 1076.5523,-94.5407 1225.5704,-110.2783 1295.4116,-117.6023"/>
<polygon fill="#191970" stroke="#191970" points="943.5323,-71.3081 933.0969,-73.1391 942.3965,-78.2153 943.5323,-71.3081"/>
</g>
<!-- Node19&#45;&gt;Node18 -->
<g id="edge12" class="edge">
<title>Node19&#45;&gt;Node18</title>
<path fill="none" stroke="#191970" d="M873.7321,-47.9209C867.3512,-38.5176 859.8069,-27.3997 854.5432,-19.6427"/>
<polygon fill="#191970" stroke="#191970" points="870.8697,-49.936 879.3809,-56.2455 876.662,-46.0055 870.8697,-49.936"/>
</g>
<!-- Node20&#45;&gt;Node14 -->
<g id="edge15" class="edge">
<title>Node20&#45;&gt;Node14</title>
<path fill="none" stroke="#191970" d="M364.3753,-48.5004C355.8727,-38.9775 345.6782,-27.5596 338.6095,-19.6427"/>
<polygon fill="#191970" stroke="#191970" points="362.0197,-51.1172 371.2907,-56.2455 367.2413,-46.4551 362.0197,-51.1172"/>
</g>
<!-- Node20&#45;&gt;Node15 -->
<g id="edge16" class="edge">
<title>Node20&#45;&gt;Node15</title>
<path fill="none" stroke="#191970" d="M395.3122,-48.5004C403.6447,-38.9775 413.6353,-27.5596 420.5627,-19.6427"/>
<polygon fill="#191970" stroke="#191970" points="392.4862,-46.415 388.5351,-56.2455 397.7543,-51.0245 392.4862,-46.415"/>
</g>
<!-- Node22&#45;&gt;Node14 -->
<g id="edge19" class="edge">
<title>Node22&#45;&gt;Node14</title>
<path fill="none" stroke="#191970" d="M454.5578,-53.057C424.9099,-42.8084 384.1804,-28.729 357.4854,-19.5011"/>
<polygon fill="#191970" stroke="#191970" points="453.5564,-56.414 464.1512,-56.3733 455.8435,-49.7982 453.5564,-56.414"/>
</g>
<!-- Node22&#45;&gt;Node15 -->
<g id="edge20" class="edge">
<title>Node22&#45;&gt;Node15</title>
<path fill="none" stroke="#191970" d="M473.2808,-49.3607C462.3818,-39.6727 449.0245,-27.7995 439.848,-19.6427"/>
<polygon fill="#191970" stroke="#191970" points="471.2268,-52.2178 481.0262,-56.2455 475.8774,-46.9859 471.2268,-52.2178"/>
</g>
<!-- Node24&#45;&gt;Node14 -->
<g id="edge23" class="edge">
<title>Node24&#45;&gt;Node14</title>
<path fill="none" stroke="#191970" d="M543.0942,-54.3616C489.8213,-43.2713 411.208,-26.9058 365.8498,-17.4632"/>
<polygon fill="#191970" stroke="#191970" points="542.5594,-57.8253 553.0629,-56.4369 543.9861,-50.9722 542.5594,-57.8253"/>
</g>
<!-- Node24&#45;&gt;Node15 -->
<g id="edge24" class="edge">
<title>Node24&#45;&gt;Node15</title>
<path fill="none" stroke="#191970" d="M560.114,-53.1905C528.9688,-42.9309 485.9777,-28.7691 457.8427,-19.5011"/>
<polygon fill="#191970" stroke="#191970" points="559.1829,-56.5687 569.776,-56.3733 561.3731,-49.9202 559.1829,-56.5687"/>
</g>
<!-- Node26&#45;&gt;Node11 -->
<g id="edge28" class="edge">
<title>Node26&#45;&gt;Node11</title>
<path fill="none" stroke="#191970" d="M1341.4795,-85.7046C1342.0821,-94.6944 1341.6779,-104.9382 1340.2668,-112.2455"/>
<polygon fill="#191970" stroke="#191970" points="1344.9368,-85.1421 1340.2451,-75.6427 1337.9889,-85.9945 1344.9368,-85.1421"/>
</g>
<!-- Node27&#45;&gt;Node11 -->
<g id="edge30" class="edge">
<title>Node27&#45;&gt;Node11</title>
<path fill="none" stroke="#191970" d="M1427.6294,-80.1575C1408.0171,-90.2334 1380.2886,-103.5047 1360.1831,-112.3733"/>
<polygon fill="#191970" stroke="#191970" points="1429.2959,-83.2358 1436.5364,-75.5011 1426.0528,-77.0324 1429.2959,-83.2358"/>
</g>
<!-- Node28&#45;&gt;Node11 -->
<g id="edge32" class="edge">
<title>Node28&#45;&gt;Node11</title>
<path fill="none" stroke="#191970" d="M1556.1973,-77.6111C1503.6333,-88.8029 1422.791,-105.3857 1374.7047,-114.7936"/>
<polygon fill="#191970" stroke="#191970" points="1556.9441,-81.0306 1565.9916,-75.5177 1555.4809,-74.1852 1556.9441,-81.0306"/>
</g>
<!-- Node28&#45;&gt;Node29 -->
<g id="edge33" class="edge">
<title>Node28&#45;&gt;Node29</title>
<path fill="none" stroke="#191970" d="M1594.4092,-47.9209C1587.8605,-38.5176 1580.1176,-27.3997 1574.7154,-19.6427"/>
<polygon fill="#191970" stroke="#191970" points="1591.6196,-50.0397 1600.2067,-56.2455 1597.3639,-46.0392 1591.6196,-50.0397"/>
</g>
<!-- Node30&#45;&gt;Node11 -->
<g id="edge35" class="edge">
<title>Node30&#45;&gt;Node11</title>
<path fill="none" stroke="#191970" d="M1667.7697,-77.1439C1559.1447,-94.3429 1436.3242,-110.3449 1374.5323,-117.7335"/>
<polygon fill="#191970" stroke="#191970" points="1668.5747,-80.5599 1677.8993,-75.5298 1667.4731,-73.6471 1668.5747,-80.5599"/>
</g>
</g>
</svg>
        <g id="navigator" transform="translate(0 0)" fill="#404254">
                <rect fill="#f2f5e9" fill-opacity="0.5" stroke="#606060" stroke-width=".5" x="0" y="0" width="60" height="60"/>
                <use id="zoomplus" xlink:href="#zoomPlus" x="17" y="9" onmousedown="handleZoom(evt,'in')"/>
                <use id="zoomminus" xlink:href="#zoomMin" x="42" y="9" onmousedown="handleZoom(evt,'out')"/>
                <use id="reset" xlink:href="#resetDef" x="30" y="36" onmousedown="handleReset()"/>
                <g id="arrowUp" xlink:href="#dirArrow" transform="translate(30 24)" onmousedown="handlePan(0,-1)">
                  <use xlink:href="#rim" fill="#404040">
                        <set attributeName="fill" to="#808080" begin="arrowUp.mouseover" end="arrowUp.mouseout"/>
                  </use>
                  <path fill="none" stroke="white" stroke-width="1.5" d="M0,-3.0v7 M-2.5,-0.5L0,-3.0L2.5,-0.5"/>
                </g>
                <g id="arrowRight" xlink:href="#dirArrow" transform="rotate(90) translate(36 -43)" onmousedown="handlePan(1,0)">
                  <use xlink:href="#rim" fill="#404040">
                        <set attributeName="fill" to="#808080" begin="arrowRight.mouseover" end="arrowRight.mouseout"/>
                  </use>
                  <path fill="none" stroke="white" stroke-width="1.5" d="M0,-3.0v7 M-2.5,-0.5L0,-3.0L2.5,-0.5"/>
                </g>
                <g id="arrowDown" xlink:href="#dirArrow" transform="rotate(180) translate(-30 -48)" onmousedown="handlePan(0,1)">
                  <use xlink:href="#rim" fill="#404040">
                        <set attributeName="fill" to="#808080" begin="arrowDown.mouseover" end="arrowDown.mouseout"/>
                  </use>
                  <path fill="none" stroke="white" stroke-width="1.5" d="M0,-3.0v7 M-2.5,-0.5L0,-3.0L2.5,-0.5"/>
                </g>
                <g id="arrowLeft" xlink:href="#dirArrow" transform="rotate(270) translate(-36 17)" onmousedown="handlePan(-1,0)">
                  <use xlink:href="#rim" fill="#404040">
                        <set attributeName="fill" to="#808080" begin="arrowLeft.mouseover" end="arrowLeft.mouseout"/>
                  </use>
                  <path fill="none" stroke="white" stroke-width="1.5" d="M0,-3.0v7 M-2.5,-0.5L0,-3.0L2.5,-0.5"/>
                </g>
        </g>
        <svg viewBox="0 0 15 15" width="100%" height="30px" preserveAspectRatio="xMaxYMin meet">
         <g id="arrow_out" transform="scale(0.3 0.3)">
          <a xlink:href="a00079_org.svg" target="_base">
           <rect id="button" ry="5" rx="5" y="6" x="6" height="38" width="38"
                fill="#f2f5e9" fill-opacity="0.5" stroke="#606060" stroke-width="1.0"/>
           <path id="arrow"
             d="M 11.500037,31.436501 C 11.940474,20.09759 22.043105,11.32322 32.158766,21.979434 L 37.068811,17.246167 C 37.068811,17.246167 37.088388,32 37.088388,32 L 22.160133,31.978069 C 22.160133,31.978069 26.997745,27.140456 26.997745,27.140456 C 18.528582,18.264221 13.291696,25.230495 11.500037,31.436501 z"
             style="fill:#404040;"/>
          </a>
         </g>
        </svg>
</svg>
