<?xml version="1.0" encoding="UTF-8" standalone="no"?>
<!DOCTYPE svg PUBLIC "-//W3C//DTD SVG 1.1//EN"
 "http://www.w3.org/Graphics/SVG/1.1/DTD/svg11.dtd">
<!-- Generated by graphviz version 2.40.1 (20161225.0304)
 -->
<!-- Title: insert_eof Pages: 1 -->
<svg width="451pt" height="142pt"
 viewBox="0.00 0.00 451.00 142.00" xmlns="http://www.w3.org/2000/svg" xmlns:xlink="http://www.w3.org/1999/xlink">
<g id="graph0" class="graph" transform="scale(1 1) rotate(0) translate(4 138)">
<title>insert_eof</title>
<polygon fill="#ffffff" stroke="transparent" points="-4,4 -4,-138 447,-138 447,4 -4,4"/>
<!-- Node11 -->
<g id="node1" class="node">
<title>Node11</title>
<polygon fill="#bfbfbf" stroke="#000000" points="0,-76.5 0,-95.5 59,-95.5 59,-76.5 0,-76.5"/>
<text text-anchor="middle" x="29.5" y="-83.5" font-family="Helvetica,sans-Serif" font-size="10.00" fill="#000000">insert_eof</text>
</g>
<!-- Node12 -->
<g id="node2" class="node">
<title>Node12</title>
<g id="a_node2"><a xlink:href="a00110.xhtml#a66a71cd33131eb29010132269d237356" target="_top" xlink:title="Ecrit la signature StegX. ">
<polygon fill="#ffffff" stroke="#000000" points="107,-114.5 107,-133.5 190,-133.5 190,-114.5 107,-114.5"/>
<text text-anchor="middle" x="148.5" y="-121.5" font-family="Helvetica,sans-Serif" font-size="10.00" fill="#000000">write_signature</text>
</a>
</g>
</g>
<!-- Node11&#45;&gt;Node12 -->
<g id="edge1" class="edge">
<title>Node11&#45;&gt;Node12</title>
<path fill="none" stroke="#191970" d="M59.2218,-95.491C74.2723,-100.297 92.7478,-106.1968 108.9791,-111.3799"/>
<polygon fill="#191970" stroke="#191970" points="108.1539,-114.7904 118.7447,-114.4983 110.2833,-108.1222 108.1539,-114.7904"/>
</g>
<!-- Node13 -->
<g id="node3" class="node">
<title>Node13</title>
<g id="a_node3"><a xlink:href="a00116.xhtml#aed2bc32539848b035b9ad4fc2efd98e8" target="_top" xlink:title="Écrit des données XORées avec un mot de passe. ">
<polygon fill="#ffffff" stroke="#000000" points="238.5,-76.5 238.5,-95.5 336.5,-95.5 336.5,-76.5 238.5,-76.5"/>
<text text-anchor="middle" x="287.5" y="-83.5" font-family="Helvetica,sans-Serif" font-size="10.00" fill="#000000">data_xor_write_file</text>
</a>
</g>
</g>
<!-- Node11&#45;&gt;Node13 -->
<g id="edge2" class="edge">
<title>Node11&#45;&gt;Node13</title>
<path fill="none" stroke="#191970" d="M59.0959,-86C100.1688,-86 175.355,-86 228.2163,-86"/>
<polygon fill="#191970" stroke="#191970" points="228.4742,-89.5001 238.4742,-86 228.4742,-82.5001 228.4742,-89.5001"/>
</g>
<!-- Node17 -->
<g id="node7" class="node">
<title>Node17</title>
<g id="a_node7"><a xlink:href="a00116.xhtml#af1d405b272ef2dc101b959264bad47e1" target="_top" xlink:title="Écrit des données mélangé ou remise en ordre avec un mot de passe. ">
<polygon fill="#ffffff" stroke="#000000" points="95,-38.5 95,-57.5 202,-57.5 202,-38.5 95,-38.5"/>
<text text-anchor="middle" x="148.5" y="-45.5" font-family="Helvetica,sans-Serif" font-size="10.00" fill="#000000">data_scramble_write</text>
</a>
</g>
</g>
<!-- Node11&#45;&gt;Node17 -->
<g id="edge6" class="edge">
<title>Node11&#45;&gt;Node17</title>
<path fill="none" stroke="#191970" d="M59.2218,-76.509C74.2723,-71.703 92.7478,-65.8032 108.9791,-60.6201"/>
<polygon fill="#191970" stroke="#191970" points="110.2833,-63.8778 118.7447,-57.5017 108.1539,-57.2096 110.2833,-63.8778"/>
</g>
<!-- Node14 -->
<g id="node4" class="node">
<title>Node14</title>
<g id="a_node4"><a xlink:href="a00122.xhtml#a4e9a217b960dc65fd08dff9f78e317e4" target="_top" xlink:title="Initialise la seed de la suite pseudo aléatoire. ">
<polygon fill="#ffffff" stroke="#000000" points="373,-76.5 373,-95.5 443,-95.5 443,-76.5 373,-76.5"/>
<text text-anchor="middle" x="408" y="-83.5" font-family="Helvetica,sans-Serif" font-size="10.00" fill="#000000">stegx_srand</text>
</a>
</g>
</g>
<!-- Node13&#45;&gt;Node14 -->
<g id="edge3" class="edge">
<title>Node13&#45;&gt;Node14</title>
<path fill="none" stroke="#191970" d="M336.512,-86C345.1281,-86 354.0622,-86 362.5753,-86"/>
<polygon fill="#191970" stroke="#191970" points="362.7008,-89.5001 372.7008,-86 362.7008,-82.5001 362.7008,-89.5001"/>
</g>
<!-- Node15 -->
<g id="node5" class="node">
<title>Node15</title>
<g id="a_node5"><a xlink:href="a00122.xhtml#a2a891bbe3514201de3cfc5acced104b7" target="_top" xlink:title="Cree un seed a partir d&#39;un mot de passe. ">
<polygon fill="#ffffff" stroke="#000000" points="373,-38.5 373,-57.5 443,-57.5 443,-38.5 373,-38.5"/>
<text text-anchor="middle" x="408" y="-45.5" font-family="Helvetica,sans-Serif" font-size="10.00" fill="#000000">create_seed</text>
</a>
</g>
</g>
<!-- Node13&#45;&gt;Node15 -->
<g id="edge4" class="edge">
<title>Node13&#45;&gt;Node15</title>
<path fill="none" stroke="#191970" d="M317.9072,-76.411C333.0345,-71.6406 351.5196,-65.8112 367.8002,-60.6771"/>
<polygon fill="#191970" stroke="#191970" points="369.1181,-63.9315 377.6025,-57.5859 367.0128,-57.2556 369.1181,-63.9315"/>
</g>
<!-- Node16 -->
<g id="node6" class="node">
<title>Node16</title>
<g id="a_node6"><a xlink:href="a00122.xhtml#a9966534d45c62d0df7a3d5df48668715" target="_top" xlink:title="Renvoie un entier pseudo&#45;aléatoire. ">
<polygon fill="#ffffff" stroke="#000000" points="375.5,-.5 375.5,-19.5 440.5,-19.5 440.5,-.5 375.5,-.5"/>
<text text-anchor="middle" x="408" y="-7.5" font-family="Helvetica,sans-Serif" font-size="10.00" fill="#000000">stegx_rand</text>
</a>
</g>
</g>
<!-- Node13&#45;&gt;Node16 -->
<g id="edge5" class="edge">
<title>Node13&#45;&gt;Node16</title>
<path fill="none" stroke="#191970" d="M318.6575,-76.4804C324.9891,-73.8856 331.4143,-70.7356 337,-67 356.3384,-54.0671 354.5485,-43.1696 373,-29 374.8267,-27.5972 376.7707,-26.2377 378.7705,-24.9341"/>
<polygon fill="#191970" stroke="#191970" points="380.9026,-27.7381 387.7044,-19.6149 377.3215,-21.7234 380.9026,-27.7381"/>
</g>
<!-- Node18 -->
<g id="node8" class="node">
<title>Node18</title>
<g id="a_node8"><a xlink:href="a00116.xhtml#a3fd0a8f9ba189acd34f864c97f059b0f" target="_top" xlink:title="Fait le mélange ou réarrange les octets selon l&#39;algorithme de protection des données. ">
<polygon fill="#ffffff" stroke="#000000" points="252,-.5 252,-19.5 323,-19.5 323,-.5 252,-.5"/>
<text text-anchor="middle" x="287.5" y="-7.5" font-family="Helvetica,sans-Serif" font-size="10.00" fill="#000000">protect_data</text>
</a>
</g>
</g>
<!-- Node17&#45;&gt;Node18 -->
<g id="edge7" class="edge">
<title>Node17&#45;&gt;Node18</title>
<path fill="none" stroke="#191970" d="M183.5756,-38.411C201.5191,-33.5056 223.5584,-27.4804 242.7167,-22.2429"/>
<polygon fill="#191970" stroke="#191970" points="243.7126,-25.5992 252.4357,-19.5859 241.8666,-18.8469 243.7126,-25.5992"/>
</g>
<!-- Node19 -->
<g id="node9" class="node">
<title>Node19</title>
<g id="a_node9"><a xlink:href="a00116.xhtml#a7a07539cd0f2054ed61e4300f1e9a3d5" target="_top" xlink:title="Écrit des données XORées avec un mot de passe. ">
<polygon fill="#ffffff" stroke="#000000" points="238,-38.5 238,-57.5 337,-57.5 337,-38.5 238,-38.5"/>
<text text-anchor="middle" x="287.5" y="-45.5" font-family="Helvetica,sans-Serif" font-size="10.00" fill="#000000">data_xor_write_tab</text>
</a>
</g>
</g>
<!-- Node17&#45;&gt;Node19 -->
<g id="edge11" class="edge">
<title>Node17&#45;&gt;Node19</title>
<path fill="none" stroke="#191970" d="M202.241,-48C210.6052,-48 219.2907,-48 227.7778,-48"/>
<polygon fill="#191970" stroke="#191970" points="227.9969,-51.5001 237.9968,-48 227.9968,-44.5001 227.9969,-51.5001"/>
</g>
<!-- Node18&#45;&gt;Node14 -->
<g id="edge8" class="edge">
<title>Node18&#45;&gt;Node14</title>
<path fill="none" stroke="#191970" d="M318.6575,-19.5196C324.9891,-22.1144 331.4143,-25.2644 337,-29 356.3384,-41.9329 354.5485,-52.8304 373,-67 374.8267,-68.4028 376.7707,-69.7623 378.7705,-71.0659"/>
<polygon fill="#191970" stroke="#191970" points="377.3215,-74.2766 387.7044,-76.3851 380.9026,-68.2619 377.3215,-74.2766"/>
</g>
<!-- Node18&#45;&gt;Node15 -->
<g id="edge9" class="edge">
<title>Node18&#45;&gt;Node15</title>
<path fill="none" stroke="#191970" d="M317.9072,-19.589C333.0345,-24.3594 351.5196,-30.1888 367.8002,-35.3229"/>
<polygon fill="#191970" stroke="#191970" points="367.0128,-38.7444 377.6025,-38.4141 369.1181,-32.0685 367.0128,-38.7444"/>
</g>
<!-- Node18&#45;&gt;Node16 -->
<g id="edge10" class="edge">
<title>Node18&#45;&gt;Node16</title>
<path fill="none" stroke="#191970" d="M323.0022,-10C336.1687,-10 351.2437,-10 365.0066,-10"/>
<polygon fill="#191970" stroke="#191970" points="365.2221,-13.5001 375.2221,-10 365.222,-6.5001 365.2221,-13.5001"/>
</g>
<!-- Node19&#45;&gt;Node14 -->
<g id="edge12" class="edge">
<title>Node19&#45;&gt;Node14</title>
<path fill="none" stroke="#191970" d="M317.9072,-57.589C333.0345,-62.3594 351.5196,-68.1888 367.8002,-73.3229"/>
<polygon fill="#191970" stroke="#191970" points="367.0128,-76.7444 377.6025,-76.4141 369.1181,-70.0685 367.0128,-76.7444"/>
</g>
<!-- Node19&#45;&gt;Node15 -->
<g id="edge13" class="edge">
<title>Node19&#45;&gt;Node15</title>
<path fill="none" stroke="#191970" d="M337.2077,-48C345.5951,-48 354.2638,-48 362.5362,-48"/>
<polygon fill="#191970" stroke="#191970" points="362.7516,-51.5001 372.7515,-48 362.7515,-44.5001 362.7516,-51.5001"/>
</g>
<!-- Node19&#45;&gt;Node16 -->
<g id="edge14" class="edge">
<title>Node19&#45;&gt;Node16</title>
<path fill="none" stroke="#191970" d="M317.9072,-38.411C333.0345,-33.6406 351.5196,-27.8112 367.8002,-22.6771"/>
<polygon fill="#191970" stroke="#191970" points="369.1181,-25.9315 377.6025,-19.5859 367.0128,-19.2556 369.1181,-25.9315"/>
</g>
</g>
</svg>
