<?xml version="1.0" encoding="UTF-8" standalone="no"?>
<!DOCTYPE svg PUBLIC "-//W3C//DTD SVG 1.1//EN"
 "http://www.w3.org/Graphics/SVG/1.1/DTD/svg11.dtd">
<!-- Generated by graphviz version 2.40.1 (20161225.0304)
 -->
<!-- Title: extract_junk_chunk Pages: 1 -->
<svg width="493pt" height="142pt"
 viewBox="0.00 0.00 493.00 142.00" xmlns="http://www.w3.org/2000/svg" xmlns:xlink="http://www.w3.org/1999/xlink">
<g id="graph0" class="graph" transform="scale(1 1) rotate(0) translate(4 138)">
<title>extract_junk_chunk</title>
<polygon fill="#ffffff" stroke="transparent" points="-4,4 -4,-138 489,-138 489,4 -4,4"/>
<!-- Node0 -->
<g id="node1" class="node">
<title>Node0</title>
<polygon fill="#bfbfbf" stroke="#000000" points="0,-76.5 0,-95.5 101,-95.5 101,-76.5 0,-76.5"/>
<text text-anchor="middle" x="50.5" y="-83.5" font-family="Helvetica,sans-Serif" font-size="10.00" fill="#000000">extract_junk_chunk</text>
</g>
<!-- Node1 -->
<g id="node2" class="node">
<title>Node1</title>
<g id="a_node2"><a xlink:href="a00050.xhtml#ae586a372b92d84d36a5733129260dd93" target="_top" xlink:title="Saute la signature. ">
<polygon fill="#ffffff" stroke="#000000" points="161,-114.5 161,-133.5 220,-133.5 220,-114.5 161,-114.5"/>
<text text-anchor="middle" x="190.5" y="-121.5" font-family="Helvetica,sans-Serif" font-size="10.00" fill="#000000">sig_fseek</text>
</a>
</g>
</g>
<!-- Node0&#45;&gt;Node1 -->
<g id="edge1" class="edge">
<title>Node0&#45;&gt;Node1</title>
<path fill="none" stroke="#191970" d="M85.8279,-95.589C105.7371,-100.9929 130.6524,-107.7557 151.1797,-113.3274"/>
<polygon fill="#191970" stroke="#191970" points="150.2954,-116.7139 160.8631,-115.9557 152.1291,-109.9583 150.2954,-116.7139"/>
</g>
<!-- Node2 -->
<g id="node3" class="node">
<title>Node2</title>
<g id="a_node3"><a xlink:href="a00116.xhtml#aed2bc32539848b035b9ad4fc2efd98e8" target="_top" xlink:title="Écrit des données XORées avec un mot de passe. ">
<polygon fill="#ffffff" stroke="#000000" points="280.5,-76.5 280.5,-95.5 378.5,-95.5 378.5,-76.5 280.5,-76.5"/>
<text text-anchor="middle" x="329.5" y="-83.5" font-family="Helvetica,sans-Serif" font-size="10.00" fill="#000000">data_xor_write_file</text>
</a>
</g>
</g>
<!-- Node0&#45;&gt;Node2 -->
<g id="edge2" class="edge">
<title>Node0&#45;&gt;Node2</title>
<path fill="none" stroke="#191970" d="M101.0248,-86C148.6237,-86 219.9424,-86 270.2122,-86"/>
<polygon fill="#191970" stroke="#191970" points="270.2877,-89.5001 280.2877,-86 270.2876,-82.5001 270.2877,-89.5001"/>
</g>
<!-- Node6 -->
<g id="node7" class="node">
<title>Node6</title>
<g id="a_node7"><a xlink:href="a00116.xhtml#af1d405b272ef2dc101b959264bad47e1" target="_top" xlink:title="Écrit des données mélangé ou remise en ordre avec un mot de passe. ">
<polygon fill="#ffffff" stroke="#000000" points="137,-38.5 137,-57.5 244,-57.5 244,-38.5 137,-38.5"/>
<text text-anchor="middle" x="190.5" y="-45.5" font-family="Helvetica,sans-Serif" font-size="10.00" fill="#000000">data_scramble_write</text>
</a>
</g>
</g>
<!-- Node0&#45;&gt;Node6 -->
<g id="edge6" class="edge">
<title>Node0&#45;&gt;Node6</title>
<path fill="none" stroke="#191970" d="M85.8279,-76.411C103.9006,-71.5056 126.0984,-65.4804 145.3945,-60.2429"/>
<polygon fill="#191970" stroke="#191970" points="146.4494,-63.5833 155.1834,-57.5859 144.6157,-56.8277 146.4494,-63.5833"/>
</g>
<!-- Node3 -->
<g id="node4" class="node">
<title>Node3</title>
<g id="a_node4"><a xlink:href="a00122.xhtml#a4e9a217b960dc65fd08dff9f78e317e4" target="_top" xlink:title="Initialise la seed de la suite pseudo aléatoire. ">
<polygon fill="#ffffff" stroke="#000000" points="415,-76.5 415,-95.5 485,-95.5 485,-76.5 415,-76.5"/>
<text text-anchor="middle" x="450" y="-83.5" font-family="Helvetica,sans-Serif" font-size="10.00" fill="#000000">stegx_srand</text>
</a>
</g>
</g>
<!-- Node2&#45;&gt;Node3 -->
<g id="edge3" class="edge">
<title>Node2&#45;&gt;Node3</title>
<path fill="none" stroke="#191970" d="M378.512,-86C387.1281,-86 396.0622,-86 404.5753,-86"/>
<polygon fill="#191970" stroke="#191970" points="404.7008,-89.5001 414.7008,-86 404.7008,-82.5001 404.7008,-89.5001"/>
</g>
<!-- Node4 -->
<g id="node5" class="node">
<title>Node4</title>
<g id="a_node5"><a xlink:href="a00122.xhtml#a2a891bbe3514201de3cfc5acced104b7" target="_top" xlink:title="Cree un seed a partir d&#39;un mot de passe. ">
<polygon fill="#ffffff" stroke="#000000" points="415,-38.5 415,-57.5 485,-57.5 485,-38.5 415,-38.5"/>
<text text-anchor="middle" x="450" y="-45.5" font-family="Helvetica,sans-Serif" font-size="10.00" fill="#000000">create_seed</text>
</a>
</g>
</g>
<!-- Node2&#45;&gt;Node4 -->
<g id="edge4" class="edge">
<title>Node2&#45;&gt;Node4</title>
<path fill="none" stroke="#191970" d="M359.9072,-76.411C375.0345,-71.6406 393.5196,-65.8112 409.8002,-60.6771"/>
<polygon fill="#191970" stroke="#191970" points="411.1181,-63.9315 419.6025,-57.5859 409.0128,-57.2556 411.1181,-63.9315"/>
</g>
<!-- Node5 -->
<g id="node6" class="node">
<title>Node5</title>
<g id="a_node6"><a xlink:href="a00122.xhtml#a9966534d45c62d0df7a3d5df48668715" target="_top" xlink:title="Renvoie un entier pseudo&#45;aléatoire. ">
<polygon fill="#ffffff" stroke="#000000" points="417.5,-.5 417.5,-19.5 482.5,-19.5 482.5,-.5 417.5,-.5"/>
<text text-anchor="middle" x="450" y="-7.5" font-family="Helvetica,sans-Serif" font-size="10.00" fill="#000000">stegx_rand</text>
</a>
</g>
</g>
<!-- Node2&#45;&gt;Node5 -->
<g id="edge5" class="edge">
<title>Node2&#45;&gt;Node5</title>
<path fill="none" stroke="#191970" d="M360.6575,-76.4804C366.9891,-73.8856 373.4143,-70.7356 379,-67 398.3384,-54.0671 396.5485,-43.1696 415,-29 416.8267,-27.5972 418.7707,-26.2377 420.7705,-24.9341"/>
<polygon fill="#191970" stroke="#191970" points="422.9026,-27.7381 429.7044,-19.6149 419.3215,-21.7234 422.9026,-27.7381"/>
</g>
<!-- Node7 -->
<g id="node8" class="node">
<title>Node7</title>
<g id="a_node8"><a xlink:href="a00116.xhtml#a3fd0a8f9ba189acd34f864c97f059b0f" target="_top" xlink:title="Fait le mélange ou réarrange les octets selon l&#39;algorithme de protection des données. ">
<polygon fill="#ffffff" stroke="#000000" points="294,-.5 294,-19.5 365,-19.5 365,-.5 294,-.5"/>
<text text-anchor="middle" x="329.5" y="-7.5" font-family="Helvetica,sans-Serif" font-size="10.00" fill="#000000">protect_data</text>
</a>
</g>
</g>
<!-- Node6&#45;&gt;Node7 -->
<g id="edge7" class="edge">
<title>Node6&#45;&gt;Node7</title>
<path fill="none" stroke="#191970" d="M225.5756,-38.411C243.5191,-33.5056 265.5584,-27.4804 284.7167,-22.2429"/>
<polygon fill="#191970" stroke="#191970" points="285.7126,-25.5992 294.4357,-19.5859 283.8666,-18.8469 285.7126,-25.5992"/>
</g>
<!-- Node8 -->
<g id="node9" class="node">
<title>Node8</title>
<g id="a_node9"><a xlink:href="a00116.xhtml#a7a07539cd0f2054ed61e4300f1e9a3d5" target="_top" xlink:title="Écrit des données XORées avec un mot de passe. ">
<polygon fill="#ffffff" stroke="#000000" points="280,-38.5 280,-57.5 379,-57.5 379,-38.5 280,-38.5"/>
<text text-anchor="middle" x="329.5" y="-45.5" font-family="Helvetica,sans-Serif" font-size="10.00" fill="#000000">data_xor_write_tab</text>
</a>
</g>
</g>
<!-- Node6&#45;&gt;Node8 -->
<g id="edge11" class="edge">
<title>Node6&#45;&gt;Node8</title>
<path fill="none" stroke="#191970" d="M244.241,-48C252.6052,-48 261.2907,-48 269.7778,-48"/>
<polygon fill="#191970" stroke="#191970" points="269.9969,-51.5001 279.9968,-48 269.9968,-44.5001 269.9969,-51.5001"/>
</g>
<!-- Node7&#45;&gt;Node3 -->
<g id="edge8" class="edge">
<title>Node7&#45;&gt;Node3</title>
<path fill="none" stroke="#191970" d="M360.6575,-19.5196C366.9891,-22.1144 373.4143,-25.2644 379,-29 398.3384,-41.9329 396.5485,-52.8304 415,-67 416.8267,-68.4028 418.7707,-69.7623 420.7705,-71.0659"/>
<polygon fill="#191970" stroke="#191970" points="419.3215,-74.2766 429.7044,-76.3851 422.9026,-68.2619 419.3215,-74.2766"/>
</g>
<!-- Node7&#45;&gt;Node4 -->
<g id="edge9" class="edge">
<title>Node7&#45;&gt;Node4</title>
<path fill="none" stroke="#191970" d="M359.9072,-19.589C375.0345,-24.3594 393.5196,-30.1888 409.8002,-35.3229"/>
<polygon fill="#191970" stroke="#191970" points="409.0128,-38.7444 419.6025,-38.4141 411.1181,-32.0685 409.0128,-38.7444"/>
</g>
<!-- Node7&#45;&gt;Node5 -->
<g id="edge10" class="edge">
<title>Node7&#45;&gt;Node5</title>
<path fill="none" stroke="#191970" d="M365.0022,-10C378.1687,-10 393.2437,-10 407.0066,-10"/>
<polygon fill="#191970" stroke="#191970" points="407.2221,-13.5001 417.2221,-10 407.222,-6.5001 407.2221,-13.5001"/>
</g>
<!-- Node8&#45;&gt;Node3 -->
<g id="edge12" class="edge">
<title>Node8&#45;&gt;Node3</title>
<path fill="none" stroke="#191970" d="M359.9072,-57.589C375.0345,-62.3594 393.5196,-68.1888 409.8002,-73.3229"/>
<polygon fill="#191970" stroke="#191970" points="409.0128,-76.7444 419.6025,-76.4141 411.1181,-70.0685 409.0128,-76.7444"/>
</g>
<!-- Node8&#45;&gt;Node4 -->
<g id="edge13" class="edge">
<title>Node8&#45;&gt;Node4</title>
<path fill="none" stroke="#191970" d="M379.2077,-48C387.5951,-48 396.2638,-48 404.5362,-48"/>
<polygon fill="#191970" stroke="#191970" points="404.7516,-51.5001 414.7515,-48 404.7515,-44.5001 404.7516,-51.5001"/>
</g>
<!-- Node8&#45;&gt;Node5 -->
<g id="edge14" class="edge">
<title>Node8&#45;&gt;Node5</title>
<path fill="none" stroke="#191970" d="M359.9072,-38.411C375.0345,-33.6406 393.5196,-27.8112 409.8002,-22.6771"/>
<polygon fill="#191970" stroke="#191970" points="411.1181,-25.9315 419.6025,-19.5859 409.0128,-19.2556 411.1181,-25.9315"/>
</g>
</g>
</svg>
