<?xml version="1.0" encoding="UTF-8" standalone="no"?>
<!DOCTYPE svg PUBLIC "-//W3C//DTD SVG 1.1//EN"
 "http://www.w3.org/Graphics/SVG/1.1/DTD/svg11.dtd">
<!-- Generated by graphviz version 2.40.1 (20161225.0304)
 -->
<!-- Title: extract_eof Pages: 1 -->
<svg width="457pt" height="142pt"
 viewBox="0.00 0.00 457.00 142.00" xmlns="http://www.w3.org/2000/svg" xmlns:xlink="http://www.w3.org/1999/xlink">
<g id="graph0" class="graph" transform="scale(1 1) rotate(0) translate(4 138)">
<title>extract_eof</title>
<polygon fill="#ffffff" stroke="transparent" points="-4,4 -4,-138 453,-138 453,4 -4,4"/>
<!-- Node0 -->
<g id="node1" class="node">
<title>Node0</title>
<polygon fill="#bfbfbf" stroke="#000000" points="0,-76.5 0,-95.5 65,-95.5 65,-76.5 0,-76.5"/>
<text text-anchor="middle" x="32.5" y="-83.5" font-family="Helvetica,sans-Serif" font-size="10.00" fill="#000000">extract_eof</text>
</g>
<!-- Node1 -->
<g id="node2" class="node">
<title>Node1</title>
<g id="a_node2"><a xlink:href="a00050.xhtml#ae586a372b92d84d36a5733129260dd93" target="_top" xlink:title="Saute la signature. ">
<polygon fill="#ffffff" stroke="#000000" points="125,-114.5 125,-133.5 184,-133.5 184,-114.5 125,-114.5"/>
<text text-anchor="middle" x="154.5" y="-121.5" font-family="Helvetica,sans-Serif" font-size="10.00" fill="#000000">sig_fseek</text>
</a>
</g>
</g>
<!-- Node0&#45;&gt;Node1 -->
<g id="edge1" class="edge">
<title>Node0&#45;&gt;Node1</title>
<path fill="none" stroke="#191970" d="M63.2858,-95.589C79.0999,-100.5147 98.5385,-106.5694 115.4021,-111.822"/>
<polygon fill="#191970" stroke="#191970" points="114.3982,-115.1751 124.9867,-114.8073 116.4799,-108.4918 114.3982,-115.1751"/>
</g>
<!-- Node2 -->
<g id="node3" class="node">
<title>Node2</title>
<g id="a_node3"><a xlink:href="a00116.xhtml#aed2bc32539848b035b9ad4fc2efd98e8" target="_top" xlink:title="Écrit des données XORées avec un mot de passe. ">
<polygon fill="#ffffff" stroke="#000000" points="244.5,-76.5 244.5,-95.5 342.5,-95.5 342.5,-76.5 244.5,-76.5"/>
<text text-anchor="middle" x="293.5" y="-83.5" font-family="Helvetica,sans-Serif" font-size="10.00" fill="#000000">data_xor_write_file</text>
</a>
</g>
</g>
<!-- Node0&#45;&gt;Node2 -->
<g id="edge2" class="edge">
<title>Node0&#45;&gt;Node2</title>
<path fill="none" stroke="#191970" d="M65.0281,-86C107.1766,-86 181.457,-86 233.8598,-86"/>
<polygon fill="#191970" stroke="#191970" points="234.0327,-89.5001 244.0326,-86 234.0326,-82.5001 234.0327,-89.5001"/>
</g>
<!-- Node6 -->
<g id="node7" class="node">
<title>Node6</title>
<g id="a_node7"><a xlink:href="a00116.xhtml#af1d405b272ef2dc101b959264bad47e1" target="_top" xlink:title="Écrit des données mélangé ou remise en ordre avec un mot de passe. ">
<polygon fill="#ffffff" stroke="#000000" points="101,-38.5 101,-57.5 208,-57.5 208,-38.5 101,-38.5"/>
<text text-anchor="middle" x="154.5" y="-45.5" font-family="Helvetica,sans-Serif" font-size="10.00" fill="#000000">data_scramble_write</text>
</a>
</g>
</g>
<!-- Node0&#45;&gt;Node6 -->
<g id="edge6" class="edge">
<title>Node0&#45;&gt;Node6</title>
<path fill="none" stroke="#191970" d="M63.2858,-76.411C78.6013,-71.6406 97.3166,-65.8112 113.7998,-60.6771"/>
<polygon fill="#191970" stroke="#191970" points="115.2174,-63.9015 123.7241,-57.5859 113.1356,-57.2182 115.2174,-63.9015"/>
</g>
<!-- Node3 -->
<g id="node4" class="node">
<title>Node3</title>
<g id="a_node4"><a xlink:href="a00122.xhtml#a4e9a217b960dc65fd08dff9f78e317e4" target="_top" xlink:title="Initialise la seed de la suite pseudo aléatoire. ">
<polygon fill="#ffffff" stroke="#000000" points="379,-76.5 379,-95.5 449,-95.5 449,-76.5 379,-76.5"/>
<text text-anchor="middle" x="414" y="-83.5" font-family="Helvetica,sans-Serif" font-size="10.00" fill="#000000">stegx_srand</text>
</a>
</g>
</g>
<!-- Node2&#45;&gt;Node3 -->
<g id="edge3" class="edge">
<title>Node2&#45;&gt;Node3</title>
<path fill="none" stroke="#191970" d="M342.512,-86C351.1281,-86 360.0622,-86 368.5753,-86"/>
<polygon fill="#191970" stroke="#191970" points="368.7008,-89.5001 378.7008,-86 368.7008,-82.5001 368.7008,-89.5001"/>
</g>
<!-- Node4 -->
<g id="node5" class="node">
<title>Node4</title>
<g id="a_node5"><a xlink:href="a00122.xhtml#a2a891bbe3514201de3cfc5acced104b7" target="_top" xlink:title="Cree un seed a partir d&#39;un mot de passe. ">
<polygon fill="#ffffff" stroke="#000000" points="379,-38.5 379,-57.5 449,-57.5 449,-38.5 379,-38.5"/>
<text text-anchor="middle" x="414" y="-45.5" font-family="Helvetica,sans-Serif" font-size="10.00" fill="#000000">create_seed</text>
</a>
</g>
</g>
<!-- Node2&#45;&gt;Node4 -->
<g id="edge4" class="edge">
<title>Node2&#45;&gt;Node4</title>
<path fill="none" stroke="#191970" d="M323.9072,-76.411C339.0345,-71.6406 357.5196,-65.8112 373.8002,-60.6771"/>
<polygon fill="#191970" stroke="#191970" points="375.1181,-63.9315 383.6025,-57.5859 373.0128,-57.2556 375.1181,-63.9315"/>
</g>
<!-- Node5 -->
<g id="node6" class="node">
<title>Node5</title>
<g id="a_node6"><a xlink:href="a00122.xhtml#a9966534d45c62d0df7a3d5df48668715" target="_top" xlink:title="Renvoie un entier pseudo&#45;aléatoire. ">
<polygon fill="#ffffff" stroke="#000000" points="381.5,-.5 381.5,-19.5 446.5,-19.5 446.5,-.5 381.5,-.5"/>
<text text-anchor="middle" x="414" y="-7.5" font-family="Helvetica,sans-Serif" font-size="10.00" fill="#000000">stegx_rand</text>
</a>
</g>
</g>
<!-- Node2&#45;&gt;Node5 -->
<g id="edge5" class="edge">
<title>Node2&#45;&gt;Node5</title>
<path fill="none" stroke="#191970" d="M324.6575,-76.4804C330.9891,-73.8856 337.4143,-70.7356 343,-67 362.3384,-54.0671 360.5485,-43.1696 379,-29 380.8267,-27.5972 382.7707,-26.2377 384.7705,-24.9341"/>
<polygon fill="#191970" stroke="#191970" points="386.9026,-27.7381 393.7044,-19.6149 383.3215,-21.7234 386.9026,-27.7381"/>
</g>
<!-- Node7 -->
<g id="node8" class="node">
<title>Node7</title>
<g id="a_node8"><a xlink:href="a00116.xhtml#a3fd0a8f9ba189acd34f864c97f059b0f" target="_top" xlink:title="Fait le mélange ou réarrange les octets selon l&#39;algorithme de protection des données. ">
<polygon fill="#ffffff" stroke="#000000" points="258,-.5 258,-19.5 329,-19.5 329,-.5 258,-.5"/>
<text text-anchor="middle" x="293.5" y="-7.5" font-family="Helvetica,sans-Serif" font-size="10.00" fill="#000000">protect_data</text>
</a>
</g>
</g>
<!-- Node6&#45;&gt;Node7 -->
<g id="edge7" class="edge">
<title>Node6&#45;&gt;Node7</title>
<path fill="none" stroke="#191970" d="M189.5756,-38.411C207.5191,-33.5056 229.5584,-27.4804 248.7167,-22.2429"/>
<polygon fill="#191970" stroke="#191970" points="249.7126,-25.5992 258.4357,-19.5859 247.8666,-18.8469 249.7126,-25.5992"/>
</g>
<!-- Node8 -->
<g id="node9" class="node">
<title>Node8</title>
<g id="a_node9"><a xlink:href="a00116.xhtml#a7a07539cd0f2054ed61e4300f1e9a3d5" target="_top" xlink:title="Écrit des données XORées avec un mot de passe. ">
<polygon fill="#ffffff" stroke="#000000" points="244,-38.5 244,-57.5 343,-57.5 343,-38.5 244,-38.5"/>
<text text-anchor="middle" x="293.5" y="-45.5" font-family="Helvetica,sans-Serif" font-size="10.00" fill="#000000">data_xor_write_tab</text>
</a>
</g>
</g>
<!-- Node6&#45;&gt;Node8 -->
<g id="edge11" class="edge">
<title>Node6&#45;&gt;Node8</title>
<path fill="none" stroke="#191970" d="M208.241,-48C216.6052,-48 225.2907,-48 233.7778,-48"/>
<polygon fill="#191970" stroke="#191970" points="233.9969,-51.5001 243.9968,-48 233.9968,-44.5001 233.9969,-51.5001"/>
</g>
<!-- Node7&#45;&gt;Node3 -->
<g id="edge8" class="edge">
<title>Node7&#45;&gt;Node3</title>
<path fill="none" stroke="#191970" d="M324.6575,-19.5196C330.9891,-22.1144 337.4143,-25.2644 343,-29 362.3384,-41.9329 360.5485,-52.8304 379,-67 380.8267,-68.4028 382.7707,-69.7623 384.7705,-71.0659"/>
<polygon fill="#191970" stroke="#191970" points="383.3215,-74.2766 393.7044,-76.3851 386.9026,-68.2619 383.3215,-74.2766"/>
</g>
<!-- Node7&#45;&gt;Node4 -->
<g id="edge9" class="edge">
<title>Node7&#45;&gt;Node4</title>
<path fill="none" stroke="#191970" d="M323.9072,-19.589C339.0345,-24.3594 357.5196,-30.1888 373.8002,-35.3229"/>
<polygon fill="#191970" stroke="#191970" points="373.0128,-38.7444 383.6025,-38.4141 375.1181,-32.0685 373.0128,-38.7444"/>
</g>
<!-- Node7&#45;&gt;Node5 -->
<g id="edge10" class="edge">
<title>Node7&#45;&gt;Node5</title>
<path fill="none" stroke="#191970" d="M329.0022,-10C342.1687,-10 357.2437,-10 371.0066,-10"/>
<polygon fill="#191970" stroke="#191970" points="371.2221,-13.5001 381.2221,-10 371.222,-6.5001 371.2221,-13.5001"/>
</g>
<!-- Node8&#45;&gt;Node3 -->
<g id="edge12" class="edge">
<title>Node8&#45;&gt;Node3</title>
<path fill="none" stroke="#191970" d="M323.9072,-57.589C339.0345,-62.3594 357.5196,-68.1888 373.8002,-73.3229"/>
<polygon fill="#191970" stroke="#191970" points="373.0128,-76.7444 383.6025,-76.4141 375.1181,-70.0685 373.0128,-76.7444"/>
</g>
<!-- Node8&#45;&gt;Node4 -->
<g id="edge13" class="edge">
<title>Node8&#45;&gt;Node4</title>
<path fill="none" stroke="#191970" d="M343.2077,-48C351.5951,-48 360.2638,-48 368.5362,-48"/>
<polygon fill="#191970" stroke="#191970" points="368.7516,-51.5001 378.7515,-48 368.7515,-44.5001 368.7516,-51.5001"/>
</g>
<!-- Node8&#45;&gt;Node5 -->
<g id="edge14" class="edge">
<title>Node8&#45;&gt;Node5</title>
<path fill="none" stroke="#191970" d="M323.9072,-38.411C339.0345,-33.6406 357.5196,-27.8112 373.8002,-22.6771"/>
<polygon fill="#191970" stroke="#191970" points="375.1181,-25.9315 383.6025,-19.5859 373.0128,-19.2556 375.1181,-25.9315"/>
</g>
</g>
</svg>
