<?xml version="1.0" encoding="UTF-8" standalone="no"?>
<!DOCTYPE svg PUBLIC "-//W3C//DTD SVG 1.1//EN"
 "http://www.w3.org/Graphics/SVG/1.1/DTD/svg11.dtd">
<!-- Generated by graphviz version 2.40.1 (20161225.0304)
 -->
<!-- Title: inc/stegx_common.h Pages: 1 -->
<svg width="3068pt" height="196pt"
 viewBox="0.00 0.00 3067.97 196.00" xmlns="http://www.w3.org/2000/svg" xmlns:xlink="http://www.w3.org/1999/xlink">
<g id="graph0" class="graph" transform="scale(1 1) rotate(0) translate(4 192)">
<title>inc/stegx_common.h</title>
<polygon fill="#ffffff" stroke="transparent" points="-4,4 -4,-192 3063.968,-192 3063.968,4 -4,4"/>
<!-- Node1 -->
<g id="node1" class="node">
<title>Node1</title>
<polygon fill="#bfbfbf" stroke="#000000" points="745.9494,-168.5 745.9494,-187.5 852.9494,-187.5 852.9494,-168.5 745.9494,-168.5"/>
<text text-anchor="middle" x="799.4494" y="-175.5" font-family="Helvetica,sans-Serif" font-size="10.00" fill="#000000">inc/stegx_common.h</text>
</g>
<!-- Node2 -->
<g id="node2" class="node">
<title>Node2</title>
<g id="a_node2"><a xlink:href="a00005.xhtml" target="_top" xlink:title="Fonctions d&#39;utilisations de la bibliothèque StegX. ">
<polygon fill="#ffffff" stroke="#000000" points="50.9494,-112.5 50.9494,-131.5 115.9494,-131.5 115.9494,-112.5 50.9494,-112.5"/>
<text text-anchor="middle" x="83.4494" y="-119.5" font-family="Helvetica,sans-Serif" font-size="10.00" fill="#000000">inc/stegx.h</text>
</a>
</g>
</g>
<!-- Node1&#45;&gt;Node2 -->
<g id="edge1" class="edge">
<title>Node1&#45;&gt;Node2</title>
<path fill="none" stroke="#191970" d="M735.798,-176.6083C616.5149,-173.3398 351.4279,-162.9482 130.4494,-132 125.7402,-131.3405 120.798,-130.4789 115.96,-129.5379"/>
<polygon fill="#191970" stroke="#191970" points="735.7617,-180.1085 745.8515,-176.8763 735.9483,-173.111 735.7617,-180.1085"/>
</g>
<!-- Node3 -->
<g id="node3" class="node">
<title>Node3</title>
<g id="a_node3"><a xlink:href="a00014.xhtml" target="_top" xlink:title="Algorithme End Of Chunk (EOC). ">
<polygon fill="#ffffff" stroke="#000000" points="13.4494,-56.5 13.4494,-75.5 91.4494,-75.5 91.4494,-56.5 13.4494,-56.5"/>
<text text-anchor="middle" x="52.4494" y="-63.5" font-family="Helvetica,sans-Serif" font-size="10.00" fill="#000000">src/algo/eoc.c</text>
</a>
</g>
</g>
<!-- Node1&#45;&gt;Node3 -->
<g id="edge2" class="edge">
<title>Node1&#45;&gt;Node3</title>
<path fill="none" stroke="#191970" d="M735.3728,-176.6868C597.8038,-173.3156 278.2548,-162.3765 174.4494,-132 131.6921,-119.488 87.0201,-90.5924 65.53,-75.5268"/>
<polygon fill="#191970" stroke="#191970" points="735.6662,-180.1948 745.7471,-176.9351 735.8338,-173.1968 735.6662,-180.1948"/>
</g>
<!-- Node4 -->
<g id="node4" class="node">
<title>Node4</title>
<g id="a_node4"><a xlink:href="a00113.xhtml" target="_top" xlink:title="Insertion des données cachées dans une copie de l&#39;hôte. ">
<polygon fill="#ffffff" stroke="#000000" points="210.9494,-112.5 210.9494,-131.5 275.9494,-131.5 275.9494,-112.5 210.9494,-112.5"/>
<text text-anchor="middle" x="243.4494" y="-119.5" font-family="Helvetica,sans-Serif" font-size="10.00" fill="#000000">src/insert.h</text>
</a>
</g>
</g>
<!-- Node1&#45;&gt;Node4 -->
<g id="edge3" class="edge">
<title>Node1&#45;&gt;Node4</title>
<path fill="none" stroke="#191970" d="M735.5577,-174.1154C639.8119,-167.8519 453.5626,-153.9552 296.4494,-132 289.8651,-131.0799 282.8563,-129.901 276.1649,-128.6776"/>
<polygon fill="#191970" stroke="#191970" points="735.4522,-177.6158 745.6576,-174.7697 735.9048,-170.6305 735.4522,-177.6158"/>
</g>
<!-- Node5 -->
<g id="node5" class="node">
<title>Node5</title>
<g id="a_node5"><a xlink:href="a00020.xhtml" target="_top" xlink:title="Algorithme EOF. ">
<polygon fill="#ffffff" stroke="#000000" points="109.4494,-56.5 109.4494,-75.5 185.4494,-75.5 185.4494,-56.5 109.4494,-56.5"/>
<text text-anchor="middle" x="147.4494" y="-63.5" font-family="Helvetica,sans-Serif" font-size="10.00" fill="#000000">src/algo/eof.c</text>
</a>
</g>
</g>
<!-- Node1&#45;&gt;Node5 -->
<g id="edge18" class="edge">
<title>Node1&#45;&gt;Node5</title>
<path fill="none" stroke="#191970" d="M735.8233,-175.926C591.4489,-170.8182 247.9338,-156.2546 201.4494,-132 177.2984,-119.3985 159.968,-90.8159 152.13,-75.7351"/>
<polygon fill="#191970" stroke="#191970" points="735.751,-179.4255 745.8673,-176.2774 735.9958,-172.4298 735.751,-179.4255"/>
</g>
<!-- Node6 -->
<g id="node6" class="node">
<title>Node6</title>
<g id="a_node6"><a xlink:href="a00026.xhtml" target="_top" xlink:title="Algorithme JUNK CHUNK. ">
<polygon fill="#ffffff" stroke="#000000" points="625.4494,-.5 625.4494,-19.5 737.4494,-19.5 737.4494,-.5 625.4494,-.5"/>
<text text-anchor="middle" x="681.4494" y="-7.5" font-family="Helvetica,sans-Serif" font-size="10.00" fill="#000000">src/algo/junk_chunk.c</text>
</a>
</g>
</g>
<!-- Node1&#45;&gt;Node6 -->
<g id="edge19" class="edge">
<title>Node1&#45;&gt;Node6</title>
<path fill="none" stroke="#191970" d="M752.2753,-164.7533C735.1314,-157.6798 717.1218,-147.197 705.4494,-132 679.0198,-97.5897 679.2976,-42.0049 680.6369,-19.7092"/>
<polygon fill="#191970" stroke="#191970" points="751.0743,-168.0412 761.6649,-168.3406 753.5726,-161.5022 751.0743,-168.0412"/>
</g>
<!-- Node7 -->
<g id="node7" class="node">
<title>Node7</title>
<g id="a_node7"><a xlink:href="a00032.xhtml" target="_top" xlink:title="Algorithme LSB. ">
<polygon fill="#ffffff" stroke="#000000" points="203.9494,-56.5 203.9494,-75.5 278.9494,-75.5 278.9494,-56.5 203.9494,-56.5"/>
<text text-anchor="middle" x="241.4494" y="-63.5" font-family="Helvetica,sans-Serif" font-size="10.00" fill="#000000">src/algo/lsb.c</text>
</a>
</g>
</g>
<!-- Node1&#45;&gt;Node7 -->
<g id="edge20" class="edge">
<title>Node1&#45;&gt;Node7</title>
<path fill="none" stroke="#191970" d="M735.2793,-175.8222C625.0128,-171.3946 404.4815,-159.3466 332.4494,-132 298.8772,-119.2545 266.5543,-90.735 251.0283,-75.7009"/>
<polygon fill="#191970" stroke="#191970" points="735.4677,-179.3322 745.5973,-176.2272 735.7423,-172.3376 735.4677,-179.3322"/>
</g>
<!-- Node8 -->
<g id="node8" class="node">
<title>Node8</title>
<g id="a_node8"><a xlink:href="a00074.xhtml" target="_top" xlink:title="Fichier BMP. ">
<polygon fill="#ffffff" stroke="#000000" points="335.4494,-56.5 335.4494,-75.5 435.4494,-75.5 435.4494,-56.5 335.4494,-56.5"/>
<text text-anchor="middle" x="385.4494" y="-63.5" font-family="Helvetica,sans-Serif" font-size="10.00" fill="#000000">src/file_type/bmp.c</text>
</a>
</g>
</g>
<!-- Node1&#45;&gt;Node8 -->
<g id="edge76" class="edge">
<title>Node1&#45;&gt;Node8</title>
<path fill="none" stroke="#191970" d="M740.3699,-166.4506C698.5432,-157.9054 641.2554,-145.4552 591.4494,-132 526.5531,-114.4682 451.6954,-89.1857 412.5349,-75.5627"/>
<polygon fill="#191970" stroke="#191970" points="739.8915,-169.9248 750.3878,-168.483 741.2834,-163.0645 739.8915,-169.9248"/>
</g>
<!-- Node9 -->
<g id="node9" class="node">
<title>Node9</title>
<g id="a_node9"><a xlink:href="a00092.xhtml" target="_top" xlink:title="Fichier PNG. ">
<polygon fill="#ffffff" stroke="#000000" points="453.9494,-56.5 453.9494,-75.5 550.9494,-75.5 550.9494,-56.5 453.9494,-56.5"/>
<text text-anchor="middle" x="502.4494" y="-63.5" font-family="Helvetica,sans-Serif" font-size="10.00" fill="#000000">src/file_type/png.c</text>
</a>
</g>
</g>
<!-- Node1&#45;&gt;Node9 -->
<g id="edge79" class="edge">
<title>Node1&#45;&gt;Node9</title>
<path fill="none" stroke="#191970" d="M751.0234,-165.902C719.6574,-157.5567 678.1514,-145.5515 642.4494,-132 597.4807,-114.9311 546.9509,-89.4641 520.6224,-75.6884"/>
<polygon fill="#191970" stroke="#191970" points="750.2693,-169.3227 760.8306,-168.4803 752.0491,-162.5527 750.2693,-169.3227"/>
</g>
<!-- Node10 -->
<g id="node10" class="node">
<title>Node10</title>
<g id="a_node10"><a xlink:href="a00119.xhtml" target="_top" xlink:title="Algorithme de protection des données avec le mot de passe. ">
<polygon fill="#ffffff" stroke="#000000" points="341.4494,-112.5 341.4494,-131.5 425.4494,-131.5 425.4494,-112.5 341.4494,-112.5"/>
<text text-anchor="middle" x="383.4494" y="-119.5" font-family="Helvetica,sans-Serif" font-size="10.00" fill="#000000">src/protection.h</text>
</a>
</g>
</g>
<!-- Node1&#45;&gt;Node10 -->
<g id="edge10" class="edge">
<title>Node1&#45;&gt;Node10</title>
<path fill="none" stroke="#191970" d="M735.5304,-169.5513C666.4485,-160.3971 553.1224,-145.3132 455.4494,-132 445.821,-130.6876 435.4709,-129.26 425.7043,-127.9052"/>
<polygon fill="#191970" stroke="#191970" points="735.4383,-173.0696 745.8114,-170.9132 736.3576,-166.1302 735.4383,-173.0696"/>
</g>
<!-- Node11 -->
<g id="node11" class="node">
<title>Node11</title>
<g id="a_node11"><a xlink:href="a00116.xhtml" target="_top" xlink:title="Algorithme de protection des données avec le mot de passe. ">
<polygon fill="#ffffff" stroke="#000000" points="569.4494,-56.5 569.4494,-75.5 653.4494,-75.5 653.4494,-56.5 569.4494,-56.5"/>
<text text-anchor="middle" x="611.4494" y="-63.5" font-family="Helvetica,sans-Serif" font-size="10.00" fill="#000000">src/protection.c</text>
</a>
</g>
</g>
<!-- Node1&#45;&gt;Node11 -->
<g id="edge83" class="edge">
<title>Node1&#45;&gt;Node11</title>
<path fill="none" stroke="#191970" d="M743.934,-165.7484C719.0979,-158.5452 690.3283,-147.6945 667.4494,-132 645.1442,-116.6991 626.5201,-90.2857 617.428,-75.9513"/>
<polygon fill="#191970" stroke="#191970" points="743.0219,-169.1275 753.5936,-168.427 744.8924,-162.382 743.0219,-169.1275"/>
</g>
<!-- Node12 -->
<g id="node12" class="node">
<title>Node12</title>
<g id="a_node12"><a xlink:href="a00038.xhtml" target="_top" xlink:title="Algorithme METADATA. ">
<polygon fill="#ffffff" stroke="#000000" points="747.9494,-56.5 747.9494,-75.5 850.9494,-75.5 850.9494,-56.5 747.9494,-56.5"/>
<text text-anchor="middle" x="799.4494" y="-63.5" font-family="Helvetica,sans-Serif" font-size="10.00" fill="#000000">src/algo/metadata.c</text>
</a>
</g>
</g>
<!-- Node1&#45;&gt;Node12 -->
<g id="edge21" class="edge">
<title>Node1&#45;&gt;Node12</title>
<path fill="none" stroke="#191970" d="M799.4494,-158.2702C799.4494,-133.9985 799.4494,-93.7725 799.4494,-75.5249"/>
<polygon fill="#191970" stroke="#191970" points="795.9495,-158.4509 799.4494,-168.4509 802.9495,-158.451 795.9495,-158.4509"/>
</g>
<!-- Node13 -->
<g id="node13" class="node">
<title>Node13</title>
<g id="a_node13"><a xlink:href="a00044.xhtml" target="_top" xlink:title="Module de vérification de la compatibilité. ">
<polygon fill="#ffffff" stroke="#000000" points="869.4494,-56.5 869.4494,-75.5 971.4494,-75.5 971.4494,-56.5 869.4494,-56.5"/>
<text text-anchor="middle" x="920.4494" y="-63.5" font-family="Helvetica,sans-Serif" font-size="10.00" fill="#000000">src/check_compa.c</text>
</a>
</g>
</g>
<!-- Node1&#45;&gt;Node13 -->
<g id="edge22" class="edge">
<title>Node1&#45;&gt;Node13</title>
<path fill="none" stroke="#191970" d="M817.3147,-161.4635C843.0052,-137.6838 889.5532,-94.5982 910.1591,-75.5249"/>
<polygon fill="#191970" stroke="#191970" points="814.727,-159.0895 809.7658,-168.4509 819.4821,-164.2266 814.727,-159.0895"/>
</g>
<!-- Node14 -->
<g id="node14" class="node">
<title>Node14</title>
<g id="a_node14"><a xlink:href="a00047.xhtml" target="_top" xlink:title="Définitions communes à la partie privée de la bibliothèque. ">
<polygon fill="#ffffff" stroke="#000000" points="1576.9494,-112.5 1576.9494,-131.5 1655.9494,-131.5 1655.9494,-112.5 1576.9494,-112.5"/>
<text text-anchor="middle" x="1616.4494" y="-119.5" font-family="Helvetica,sans-Serif" font-size="10.00" fill="#000000">src/common.h</text>
</a>
</g>
</g>
<!-- Node1&#45;&gt;Node14 -->
<g id="edge23" class="edge">
<title>Node1&#45;&gt;Node14</title>
<path fill="none" stroke="#191970" d="M863.3033,-173.6232C1024.6711,-162.5625 1445.309,-133.7306 1576.6639,-124.727"/>
<polygon fill="#191970" stroke="#191970" points="862.7923,-170.15 853.055,-174.3257 863.271,-177.1336 862.7923,-170.15"/>
</g>
<!-- Node16 -->
<g id="node16" class="node">
<title>Node16</title>
<g id="a_node16"><a xlink:href="a00065.xhtml" target="_top" xlink:title="Extraction des données cachées dans un fichier hôte. ">
<polygon fill="#ffffff" stroke="#000000" points="1419.9494,-.5 1419.9494,-19.5 1490.9494,-19.5 1490.9494,-.5 1419.9494,-.5"/>
<text text-anchor="middle" x="1455.4494" y="-7.5" font-family="Helvetica,sans-Serif" font-size="10.00" fill="#000000">src/extract.c</text>
</a>
</g>
</g>
<!-- Node1&#45;&gt;Node16 -->
<g id="edge74" class="edge">
<title>Node1&#45;&gt;Node16</title>
<path fill="none" stroke="#191970" d="M780.1396,-161.5831C752.6851,-136.3377 708.8133,-87.5984 738.4494,-56 761.9954,-30.895 1278.073,-14.8821 1419.7495,-10.9483"/>
<polygon fill="#191970" stroke="#191970" points="777.912,-164.2863 787.7034,-168.3334 782.5729,-159.0636 777.912,-164.2863"/>
</g>
<!-- Node17 -->
<g id="node17" class="node">
<title>Node17</title>
<g id="a_node17"><a xlink:href="a00110.xhtml" target="_top" xlink:title="Insertion des données cachées dans une copie de l&#39;hôte. ">
<polygon fill="#ffffff" stroke="#000000" points="1638.9494,-.5 1638.9494,-19.5 1703.9494,-19.5 1703.9494,-.5 1638.9494,-.5"/>
<text text-anchor="middle" x="1671.4494" y="-7.5" font-family="Helvetica,sans-Serif" font-size="10.00" fill="#000000">src/insert.c</text>
</a>
</g>
</g>
<!-- Node1&#45;&gt;Node17 -->
<g id="edge82" class="edge">
<title>Node1&#45;&gt;Node17</title>
<path fill="none" stroke="#191970" d="M863.198,-177.4103C1204.8814,-173.9343 2806.5254,-153.5331 2874.4494,-76 2880.3068,-69.314 2880.6135,-62.4043 2874.4494,-56 2853.5691,-34.306 1895.0136,-14.3858 1704.2585,-10.6326"/>
<polygon fill="#191970" stroke="#191970" points="862.9515,-173.9125 852.9872,-177.513 863.0219,-180.9122 862.9515,-173.9125"/>
</g>
<!-- Node27 -->
<g id="node27" class="node">
<title>Node27</title>
<g id="a_node27"><a xlink:href="a00086.xhtml" target="_top" xlink:title="Fichier MP3. ">
<polygon fill="#ffffff" stroke="#000000" points="2249.4494,-.5 2249.4494,-19.5 2349.4494,-19.5 2349.4494,-.5 2249.4494,-.5"/>
<text text-anchor="middle" x="2299.4494" y="-7.5" font-family="Helvetica,sans-Serif" font-size="10.00" fill="#000000">src/file_type/mp3.c</text>
</a>
</g>
</g>
<!-- Node1&#45;&gt;Node27 -->
<g id="edge78" class="edge">
<title>Node1&#45;&gt;Node27</title>
<path fill="none" stroke="#191970" d="M863.376,-177.7203C1141.2176,-176.2951 2245.3514,-168.4076 2590.4494,-132 2725.3372,-117.7694 2803.7851,-180.3386 2890.4494,-76 2896.1289,-69.1622 2896.486,-62.5247 2890.4494,-56 2872.1685,-36.241 2488.9168,-18.05 2349.5498,-12.065"/>
<polygon fill="#191970" stroke="#191970" points="863.0535,-174.2218 853.0713,-177.7722 863.0888,-181.2217 863.0535,-174.2218"/>
</g>
<!-- Node29 -->
<g id="node29" class="node">
<title>Node29</title>
<g id="a_node29"><a xlink:href="a00050.xhtml" target="_top" xlink:title="Module de détection de l&#39;algorithme. ">
<polygon fill="#ffffff" stroke="#000000" points="2959.4494,-56.5 2959.4494,-75.5 3051.4494,-75.5 3051.4494,-56.5 2959.4494,-56.5"/>
<text text-anchor="middle" x="3005.4494" y="-63.5" font-family="Helvetica,sans-Serif" font-size="10.00" fill="#000000">src/detect_algo.c</text>
</a>
</g>
</g>
<!-- Node1&#45;&gt;Node29 -->
<g id="edge71" class="edge">
<title>Node1&#45;&gt;Node29</title>
<path fill="none" stroke="#191970" d="M863.1034,-177.9174C1225.6331,-177.2993 3015.0485,-172.2128 3054.4494,-132 3072.2275,-113.8556 3041.5934,-89.0349 3021.2753,-75.5943"/>
<polygon fill="#191970" stroke="#191970" points="863.041,-174.4174 853.0468,-177.934 863.0526,-181.4174 863.041,-174.4174"/>
</g>
<!-- Node30 -->
<g id="node30" class="node">
<title>Node30</title>
<g id="a_node30"><a xlink:href="a00068.xhtml" target="_top" xlink:title="Fichier AVI. ">
<polygon fill="#ffffff" stroke="#000000" points="2367.4494,-56.5 2367.4494,-75.5 2461.4494,-75.5 2461.4494,-56.5 2367.4494,-56.5"/>
<text text-anchor="middle" x="2414.4494" y="-63.5" font-family="Helvetica,sans-Serif" font-size="10.00" fill="#000000">src/file_type/avi.c</text>
</a>
</g>
</g>
<!-- Node1&#45;&gt;Node30 -->
<g id="edge75" class="edge">
<title>Node1&#45;&gt;Node30</title>
<path fill="none" stroke="#191970" d="M863.2568,-176.7182C1076.1376,-171.8257 1781.1516,-150.6601 2358.4494,-76 2361.3877,-75.62 2364.4064,-75.1917 2367.4463,-74.7317"/>
<polygon fill="#191970" stroke="#191970" points="863.1147,-173.2204 853.1964,-176.9456 863.273,-180.2186 863.1147,-173.2204"/>
</g>
<!-- Node31 -->
<g id="node31" class="node">
<title>Node31</title>
<g id="a_node31"><a xlink:href="a00080.xhtml" target="_top" xlink:title="Fichier FLV. ">
<polygon fill="#ffffff" stroke="#000000" points="2479.4494,-56.5 2479.4494,-75.5 2571.4494,-75.5 2571.4494,-56.5 2479.4494,-56.5"/>
<text text-anchor="middle" x="2525.4494" y="-63.5" font-family="Helvetica,sans-Serif" font-size="10.00" fill="#000000">src/file_type/flv.c</text>
</a>
</g>
</g>
<!-- Node1&#45;&gt;Node31 -->
<g id="edge77" class="edge">
<title>Node1&#45;&gt;Node31</title>
<path fill="none" stroke="#191970" d="M863.2695,-176.7689C1035.0825,-173.1568 1521.6919,-160.9632 1925.4494,-132 2168.3229,-114.5777 2229.3725,-110.2492 2470.4494,-76 2473.332,-75.5905 2476.2943,-75.1396 2479.278,-74.6627"/>
<polygon fill="#191970" stroke="#191970" points="863.0625,-173.2723 853.1374,-176.9796 863.2081,-180.2708 863.0625,-173.2723"/>
</g>
<!-- Node32 -->
<g id="node32" class="node">
<title>Node32</title>
<g id="a_node32"><a xlink:href="a00101.xhtml" target="_top" xlink:title="Fichier WAVE. ">
<polygon fill="#ffffff" stroke="#000000" points="2589.9494,-56.5 2589.9494,-75.5 2688.9494,-75.5 2688.9494,-56.5 2589.9494,-56.5"/>
<text text-anchor="middle" x="2639.4494" y="-63.5" font-family="Helvetica,sans-Serif" font-size="10.00" fill="#000000">src/file_type/wav.c</text>
</a>
</g>
</g>
<!-- Node1&#45;&gt;Node32 -->
<g id="edge80" class="edge">
<title>Node1&#45;&gt;Node32</title>
<path fill="none" stroke="#191970" d="M863.1155,-177.3206C1048.8835,-174.9872 1606.2739,-165.4923 2067.4494,-132 2296.2014,-115.3872 2353.2853,-107.6218 2580.4494,-76 2583.5364,-75.5703 2586.7101,-75.104 2589.9078,-74.6155"/>
<polygon fill="#191970" stroke="#191970" points="862.9371,-173.8224 852.981,-177.4453 863.0234,-180.8219 862.9371,-173.8224"/>
</g>
<!-- Node33 -->
<g id="node33" class="node">
<title>Node33</title>
<g id="a_node33"><a xlink:href="a00107.xhtml" target="_top" xlink:title="Fonction d&#39;initialisation et de libération de la bibliothèque. ">
<polygon fill="#ffffff" stroke="#000000" points="2707.4494,-56.5 2707.4494,-75.5 2761.4494,-75.5 2761.4494,-56.5 2707.4494,-56.5"/>
<text text-anchor="middle" x="2734.4494" y="-63.5" font-family="Helvetica,sans-Serif" font-size="10.00" fill="#000000">src/init.c</text>
</a>
</g>
</g>
<!-- Node1&#45;&gt;Node33 -->
<g id="edge81" class="edge">
<title>Node1&#45;&gt;Node33</title>
<path fill="none" stroke="#191970" d="M863.4166,-177.6839C1061.7342,-176.3203 1683.7765,-169.1589 2197.4494,-132 2420.4783,-115.8662 2477.7673,-117.7368 2697.4494,-76 2700.5872,-75.4039 2703.8492,-74.6797 2707.0783,-73.8965"/>
<polygon fill="#191970" stroke="#191970" points="863.1579,-174.1854 853.1813,-177.7517 863.2043,-181.1853 863.1579,-174.1854"/>
</g>
<!-- Node34 -->
<g id="node34" class="node">
<title>Node34</title>
<g id="a_node34"><a xlink:href="a00128.xhtml" target="_top" xlink:title="Proposition des algorithmes. ">
<polygon fill="#ffffff" stroke="#000000" points="2779.4494,-56.5 2779.4494,-75.5 2865.4494,-75.5 2865.4494,-56.5 2779.4494,-56.5"/>
<text text-anchor="middle" x="2822.4494" y="-63.5" font-family="Helvetica,sans-Serif" font-size="10.00" fill="#000000">src/sugg_algo.c</text>
</a>
</g>
</g>
<!-- Node1&#45;&gt;Node34 -->
<g id="edge84" class="edge">
<title>Node1&#45;&gt;Node34</title>
<path fill="none" stroke="#191970" d="M863.394,-176.9465C1116.2978,-172.6473 2047.1839,-155.536 2341.4494,-132 2533.1215,-116.6696 2580.6179,-106.6145 2770.4494,-76 2773.3537,-75.5316 2776.3444,-75.0241 2779.3546,-74.4945"/>
<polygon fill="#191970" stroke="#191970" points="863.2108,-173.449 853.2715,-177.1179 863.3294,-180.448 863.2108,-173.449"/>
</g>
<!-- Node35 -->
<g id="node35" class="node">
<title>Node35</title>
<g id="a_node35"><a xlink:href="a00131.xhtml" target="_top" xlink:title="Proposition des algorithmes. ">
<polygon fill="#ffffff" stroke="#000000" points="2959.4494,-112.5 2959.4494,-131.5 3045.4494,-131.5 3045.4494,-112.5 2959.4494,-112.5"/>
<text text-anchor="middle" x="3002.4494" y="-119.5" font-family="Helvetica,sans-Serif" font-size="10.00" fill="#000000">src/sugg_algo.h</text>
</a>
</g>
</g>
<!-- Node1&#45;&gt;Node35 -->
<g id="edge72" class="edge">
<title>Node1&#45;&gt;Node35</title>
<path fill="none" stroke="#191970" d="M863.4302,-177.2099C1197.481,-173.0066 2734.0811,-152.685 2945.4494,-132 2949.949,-131.5597 2954.628,-130.9651 2959.2843,-130.2842"/>
<polygon fill="#191970" stroke="#191970" points="862.9319,-173.7158 852.9766,-177.3411 863.0198,-180.7152 862.9319,-173.7158"/>
</g>
<!-- Node4&#45;&gt;Node3 -->
<g id="edge4" class="edge">
<title>Node4&#45;&gt;Node3</title>
<path fill="none" stroke="#191970" d="M200.6657,-109.4561C165.6049,-99.1765 116.7392,-84.8494 84.855,-75.5011"/>
<polygon fill="#191970" stroke="#191970" points="200.0345,-112.9183 210.6153,-112.3733 202.004,-106.2011 200.0345,-112.9183"/>
</g>
<!-- Node4&#45;&gt;Node5 -->
<g id="edge5" class="edge">
<title>Node4&#45;&gt;Node5</title>
<path fill="none" stroke="#191970" d="M217.8148,-107.0465C200.7335,-97.0824 178.7854,-84.2794 163.9797,-75.6427"/>
<polygon fill="#191970" stroke="#191970" points="216.3261,-110.23 226.7275,-112.2455 219.8532,-104.1836 216.3261,-110.23"/>
</g>
<!-- Node4&#45;&gt;Node6 -->
<g id="edge6" class="edge">
<title>Node4&#45;&gt;Node6</title>
<path fill="none" stroke="#191970" d="M200.4632,-116.7077C135.07,-108.2215 16.8367,-90.9989 4.4494,-76 -1.211,-69.1463 -1.6192,-62.4949 4.4494,-56 25.5367,-33.4313 466.5466,-16.965 625.2076,-11.7519"/>
<polygon fill="#191970" stroke="#191970" points="200.1163,-120.1918 210.4805,-117.993 201.0072,-113.2487 200.1163,-120.1918"/>
</g>
<!-- Node4&#45;&gt;Node7 -->
<g id="edge7" class="edge">
<title>Node4&#45;&gt;Node7</title>
<path fill="none" stroke="#191970" d="M242.7407,-102.1575C242.4192,-93.155 242.0537,-82.9199 241.7938,-75.6427"/>
<polygon fill="#191970" stroke="#191970" points="239.2462,-102.3769 243.101,-112.2455 246.2418,-102.127 239.2462,-102.3769"/>
</g>
<!-- Node4&#45;&gt;Node8 -->
<g id="edge8" class="edge">
<title>Node4&#45;&gt;Node8</title>
<path fill="none" stroke="#191970" d="M277.2909,-108.6541C303.186,-98.4419 338.2632,-84.6086 361.3573,-75.5011"/>
<polygon fill="#191970" stroke="#191970" points="275.8787,-105.4486 267.8601,-112.3733 278.4469,-111.9605 275.8787,-105.4486"/>
</g>
<!-- Node4&#45;&gt;Node9 -->
<g id="edge9" class="edge">
<title>Node4&#45;&gt;Node9</title>
<path fill="none" stroke="#191970" d="M285.9492,-112.8109C333.4265,-102.5455 409.9289,-86.0044 458.1321,-75.5821"/>
<polygon fill="#191970" stroke="#191970" points="285.0241,-109.4299 275.9897,-114.9643 286.5035,-116.2718 285.0241,-109.4299"/>
</g>
<!-- Node10&#45;&gt;Node3 -->
<g id="edge11" class="edge">
<title>Node10&#45;&gt;Node3</title>
<path fill="none" stroke="#191970" d="M330.9668,-114.1805C274.0616,-105.5363 180.6206,-90.8593 100.4494,-76 97.52,-75.4571 94.4944,-74.8756 91.4536,-74.2764"/>
<polygon fill="#191970" stroke="#191970" points="330.7443,-117.6866 341.1556,-115.7231 331.7922,-110.7655 330.7443,-117.6866"/>
</g>
<!-- Node10&#45;&gt;Node5 -->
<g id="edge12" class="edge">
<title>Node10&#45;&gt;Node5</title>
<path fill="none" stroke="#191970" d="M333.198,-110.0759C289.0441,-99.5987 225.7505,-84.5799 185.6307,-75.06"/>
<polygon fill="#191970" stroke="#191970" points="332.6098,-113.5335 343.1477,-112.4369 334.226,-106.7226 332.6098,-113.5335"/>
</g>
<!-- Node10&#45;&gt;Node6 -->
<g id="edge13" class="edge">
<title>Node10&#45;&gt;Node6</title>
<path fill="none" stroke="#191970" d="M355.819,-107.0282C334.5431,-93.6095 311.1459,-73.4144 326.4494,-56 345.8333,-33.9423 530.0917,-19.3815 625.2117,-13.2706"/>
<polygon fill="#191970" stroke="#191970" points="354.3103,-110.2041 364.6883,-112.3363 357.9051,-104.1977 354.3103,-110.2041"/>
</g>
<!-- Node10&#45;&gt;Node7 -->
<g id="edge14" class="edge">
<title>Node10&#45;&gt;Node7</title>
<path fill="none" stroke="#191970" d="M349.6079,-108.6541C323.7128,-98.4419 288.6356,-84.6086 265.5415,-75.5011"/>
<polygon fill="#191970" stroke="#191970" points="348.4519,-111.9605 359.0387,-112.3733 351.02,-105.4486 348.4519,-111.9605"/>
</g>
<!-- Node10&#45;&gt;Node8 -->
<g id="edge15" class="edge">
<title>Node10&#45;&gt;Node8</title>
<path fill="none" stroke="#191970" d="M384.1581,-102.1575C384.4796,-93.155 384.8451,-82.9199 385.105,-75.6427"/>
<polygon fill="#191970" stroke="#191970" points="380.657,-102.127 383.7978,-112.2455 387.6525,-102.3769 380.657,-102.127"/>
</g>
<!-- Node10&#45;&gt;Node9 -->
<g id="edge16" class="edge">
<title>Node10&#45;&gt;Node9</title>
<path fill="none" stroke="#191970" d="M412.9638,-108.1109C434.5432,-97.9559 463.247,-84.4482 482.2595,-75.5011"/>
<polygon fill="#191970" stroke="#191970" points="411.4641,-104.9484 403.9062,-112.3733 414.4447,-111.2821 411.4641,-104.9484"/>
</g>
<!-- Node10&#45;&gt;Node11 -->
<g id="edge17" class="edge">
<title>Node10&#45;&gt;Node11</title>
<path fill="none" stroke="#191970" d="M432.114,-110.0473C474.0791,-99.7401 533.8758,-85.0532 572.6744,-75.5237"/>
<polygon fill="#191970" stroke="#191970" points="431.2614,-106.6526 422.3849,-112.4369 432.9312,-113.4505 431.2614,-106.6526"/>
</g>
<!-- Node14&#45;&gt;Node3 -->
<g id="edge24" class="edge">
<title>Node14&#45;&gt;Node3</title>
<path fill="none" stroke="#191970" d="M1566.3804,-121.6593C1338.0321,-119.9245 393.8887,-110.7471 100.4494,-76 97.5753,-75.6597 94.618,-75.2333 91.6502,-74.7499"/>
<polygon fill="#191970" stroke="#191970" points="1566.6818,-125.1615 1576.7077,-121.7363 1566.7341,-118.1617 1566.6818,-125.1615"/>
</g>
<!-- Node14&#45;&gt;Node5 -->
<g id="edge28" class="edge">
<title>Node14&#45;&gt;Node5</title>
<path fill="none" stroke="#191970" d="M1566.6596,-121.5739C1347.6126,-119.5173 468.4161,-109.3096 194.4494,-76 191.5509,-75.6476 188.5665,-75.2046 185.5737,-74.7025"/>
<polygon fill="#191970" stroke="#191970" points="1566.853,-125.0758 1576.885,-121.6685 1566.9178,-118.0761 1566.853,-125.0758"/>
</g>
<!-- Node14&#45;&gt;Node6 -->
<g id="edge32" class="edge">
<title>Node14&#45;&gt;Node6</title>
<path fill="none" stroke="#191970" d="M1566.72,-119.7438C1459.8055,-114.4958 1211.2206,-100.0525 1130.4494,-76 1112.1579,-70.5531 1110.6937,-61.603 1092.4494,-56 1027.5027,-36.0541 833.9684,-20.4595 737.4587,-13.6831"/>
<polygon fill="#191970" stroke="#191970" points="1566.7603,-123.2498 1576.9179,-120.2375 1567.0989,-116.258 1566.7603,-123.2498"/>
</g>
<!-- Node14&#45;&gt;Node7 -->
<g id="edge39" class="edge">
<title>Node14&#45;&gt;Node7</title>
<path fill="none" stroke="#191970" d="M1566.7788,-121.6839C1394.7804,-120.2792 808.7397,-112.9073 326.4494,-76 310.8932,-74.8096 293.7986,-72.9134 279.0445,-71.0906"/>
<polygon fill="#191970" stroke="#191970" points="1566.7698,-125.1838 1576.797,-121.7627 1566.8249,-118.184 1566.7698,-125.1838"/>
</g>
<!-- Node14&#45;&gt;Node8 -->
<g id="edge62" class="edge">
<title>Node14&#45;&gt;Node8</title>
<path fill="none" stroke="#191970" d="M1566.5309,-120.8978C1372.3607,-116.4773 667.1936,-99.1508 444.4494,-76 441.556,-75.6993 438.5898,-75.3447 435.6012,-74.9517"/>
<polygon fill="#191970" stroke="#191970" points="1566.6465,-124.4012 1576.7233,-121.1286 1566.8051,-117.403 1566.6465,-124.4012"/>
</g>
<!-- Node14&#45;&gt;Node9 -->
<g id="edge65" class="edge">
<title>Node14&#45;&gt;Node9</title>
<path fill="none" stroke="#191970" d="M1566.7443,-120.6752C1385.3599,-115.7099 759.3416,-97.39 560.4494,-76 557.4016,-75.6722 554.2716,-75.2839 551.1205,-74.8538"/>
<polygon fill="#191970" stroke="#191970" points="1566.7071,-124.1754 1576.7987,-120.9492 1566.8978,-117.178 1566.7071,-124.1754"/>
</g>
<!-- Node14&#45;&gt;Node11 -->
<g id="edge69" class="edge">
<title>Node14&#45;&gt;Node11</title>
<path fill="none" stroke="#191970" d="M1566.2426,-119.8314C1431.9327,-113.9301 1053.209,-96.634 738.4494,-76 710.0901,-74.1409 678.2023,-71.6286 653.4737,-69.5873"/>
<polygon fill="#191970" stroke="#191970" points="1566.4669,-123.3445 1576.6105,-120.2856 1566.7733,-116.3512 1566.4669,-123.3445"/>
</g>
<!-- Node14&#45;&gt;Node12 -->
<g id="edge43" class="edge">
<title>Node14&#45;&gt;Node12</title>
<path fill="none" stroke="#191970" d="M1566.4754,-120.7167C1445.1495,-117.2188 1125.5067,-105.712 860.4494,-76 857.3566,-75.6533 854.1817,-75.2568 850.983,-74.8263"/>
<polygon fill="#191970" stroke="#191970" points="1566.4771,-124.218 1576.5721,-121.0023 1566.6751,-117.2208 1566.4771,-124.218"/>
</g>
<!-- Node14&#45;&gt;Node13 -->
<g id="edge47" class="edge">
<title>Node14&#45;&gt;Node13</title>
<path fill="none" stroke="#191970" d="M1566.6735,-119.9763C1459.2942,-115.2648 1198.0044,-101.9402 980.4494,-76 977.5133,-75.6499 974.5017,-75.2568 971.4662,-74.8342"/>
<polygon fill="#191970" stroke="#191970" points="1566.7392,-123.4823 1576.8813,-120.4184 1567.0422,-116.4889 1566.7392,-123.4823"/>
</g>
<!-- Node15 -->
<g id="node15" class="node">
<title>Node15</title>
<g id="a_node15"><a xlink:href="a00017.xhtml" target="_top" xlink:title="Algorithme End Of Chunk (EOC). ">
<polygon fill="#ffffff" stroke="#000000" points="1632.4494,-56.5 1632.4494,-75.5 1710.4494,-75.5 1710.4494,-56.5 1632.4494,-56.5"/>
<text text-anchor="middle" x="1671.4494" y="-63.5" font-family="Helvetica,sans-Serif" font-size="10.00" fill="#000000">src/algo/eoc.h</text>
</a>
</g>
</g>
<!-- Node14&#45;&gt;Node15 -->
<g id="edge25" class="edge">
<title>Node14&#45;&gt;Node15</title>
<path fill="none" stroke="#191970" d="M1633.072,-105.0751C1642.5349,-95.4402 1654.0462,-83.7196 1661.9789,-75.6427"/>
<polygon fill="#191970" stroke="#191970" points="1630.5397,-102.6585 1626.0297,-112.2455 1635.5338,-107.5635 1630.5397,-102.6585"/>
</g>
<!-- Node14&#45;&gt;Node16 -->
<g id="edge60" class="edge">
<title>Node14&#45;&gt;Node16</title>
<path fill="none" stroke="#191970" d="M1566.6695,-118.7943C1477.2853,-112.5279 1297.1125,-97.3751 1278.4494,-76 1237.1428,-28.691 1356.6794,-15.2288 1419.5367,-11.4483"/>
<polygon fill="#191970" stroke="#191970" points="1566.6267,-122.2996 1576.8441,-119.4967 1567.1089,-115.3162 1566.6267,-122.2996"/>
</g>
<!-- Node14&#45;&gt;Node17 -->
<g id="edge68" class="edge">
<title>Node14&#45;&gt;Node17</title>
<path fill="none" stroke="#191970" d="M1666.1588,-117.3508C1718.3723,-111.3179 1795.3891,-98.7632 1813.4494,-76 1844.9619,-36.2816 1755.1953,-19.4056 1704.1323,-13.1699"/>
<polygon fill="#191970" stroke="#191970" points="1665.624,-113.8886 1656.0717,-118.4715 1666.397,-120.8458 1665.624,-113.8886"/>
</g>
<!-- Node18 -->
<g id="node18" class="node">
<title>Node18</title>
<g id="a_node18"><a xlink:href="a00023.xhtml" target="_top" xlink:title="Algorithme EOF. ">
<polygon fill="#ffffff" stroke="#000000" points="1728.4494,-56.5 1728.4494,-75.5 1804.4494,-75.5 1804.4494,-56.5 1728.4494,-56.5"/>
<text text-anchor="middle" x="1766.4494" y="-63.5" font-family="Helvetica,sans-Serif" font-size="10.00" fill="#000000">src/algo/eof.h</text>
</a>
</g>
</g>
<!-- Node14&#45;&gt;Node18 -->
<g id="edge29" class="edge">
<title>Node14&#45;&gt;Node18</title>
<path fill="none" stroke="#191970" d="M1651.8365,-108.7888C1679.2247,-98.5639 1716.4973,-84.6488 1741,-75.5011"/>
<polygon fill="#191970" stroke="#191970" points="1650.3796,-105.5967 1642.2353,-112.3733 1652.8279,-112.1546 1650.3796,-105.5967"/>
</g>
<!-- Node19 -->
<g id="node19" class="node">
<title>Node19</title>
<g id="a_node19"><a xlink:href="a00071.xhtml" target="_top" xlink:title="Fichier AVI. ">
<polygon fill="#ffffff" stroke="#000000" points="989.4494,-56.5 989.4494,-75.5 1083.4494,-75.5 1083.4494,-56.5 989.4494,-56.5"/>
<text text-anchor="middle" x="1036.4494" y="-63.5" font-family="Helvetica,sans-Serif" font-size="10.00" fill="#000000">src/file_type/avi.h</text>
</a>
</g>
</g>
<!-- Node14&#45;&gt;Node19 -->
<g id="edge33" class="edge">
<title>Node14&#45;&gt;Node19</title>
<path fill="none" stroke="#191970" d="M1566.7928,-119.1632C1472.8581,-113.1984 1263.4033,-98.063 1088.4494,-76 1086.8523,-75.7986 1085.2329,-75.5865 1083.6012,-75.3655"/>
<polygon fill="#191970" stroke="#191970" points="1566.6623,-122.6618 1576.862,-119.7952 1567.1009,-115.6756 1566.6623,-122.6618"/>
</g>
<!-- Node20 -->
<g id="node20" class="node">
<title>Node20</title>
<g id="a_node20"><a xlink:href="a00029.xhtml" target="_top" xlink:title="Algorithme JUNK CHUNK. ">
<polygon fill="#ffffff" stroke="#000000" points="1287.4494,-56.5 1287.4494,-75.5 1399.4494,-75.5 1399.4494,-56.5 1287.4494,-56.5"/>
<text text-anchor="middle" x="1343.4494" y="-63.5" font-family="Helvetica,sans-Serif" font-size="10.00" fill="#000000">src/algo/junk_chunk.h</text>
</a>
</g>
</g>
<!-- Node14&#45;&gt;Node20 -->
<g id="edge36" class="edge">
<title>Node14&#45;&gt;Node20</title>
<path fill="none" stroke="#191970" d="M1566.7548,-111.8062C1516.441,-101.4855 1439.2339,-85.6481 1390.0563,-75.5604"/>
<polygon fill="#191970" stroke="#191970" points="1566.2535,-115.2762 1576.7528,-113.8571 1567.6602,-108.419 1566.2535,-115.2762"/>
</g>
<!-- Node21 -->
<g id="node21" class="node">
<title>Node21</title>
<g id="a_node21"><a xlink:href="a00035.xhtml" target="_top" xlink:title="Algorithme LSB. ">
<polygon fill="#ffffff" stroke="#000000" points="1417.9494,-56.5 1417.9494,-75.5 1492.9494,-75.5 1492.9494,-56.5 1417.9494,-56.5"/>
<text text-anchor="middle" x="1455.4494" y="-63.5" font-family="Helvetica,sans-Serif" font-size="10.00" fill="#000000">src/algo/lsb.h</text>
</a>
</g>
</g>
<!-- Node14&#45;&gt;Node21 -->
<g id="edge40" class="edge">
<title>Node14&#45;&gt;Node21</title>
<path fill="none" stroke="#191970" d="M1579.2383,-109.057C1549.7734,-98.8084 1509.2953,-84.729 1482.7651,-75.5011"/>
<polygon fill="#191970" stroke="#191970" points="1578.1777,-112.3937 1588.7725,-112.3733 1580.4774,-105.7822 1578.1777,-112.3937"/>
</g>
<!-- Node22 -->
<g id="node22" class="node">
<title>Node22</title>
<g id="a_node22"><a xlink:href="a00041.xhtml" target="_top" xlink:title="Algorithme METADATA. ">
<polygon fill="#ffffff" stroke="#000000" points="1510.9494,-56.5 1510.9494,-75.5 1613.9494,-75.5 1613.9494,-56.5 1510.9494,-56.5"/>
<text text-anchor="middle" x="1562.4494" y="-63.5" font-family="Helvetica,sans-Serif" font-size="10.00" fill="#000000">src/algo/metadata.h</text>
</a>
</g>
</g>
<!-- Node14&#45;&gt;Node22 -->
<g id="edge44" class="edge">
<title>Node14&#45;&gt;Node22</title>
<path fill="none" stroke="#191970" d="M1599.8524,-104.7884C1590.6147,-95.2085 1579.459,-83.6396 1571.7477,-75.6427"/>
<polygon fill="#191970" stroke="#191970" points="1597.5825,-107.4766 1607.0433,-112.2455 1602.6214,-102.6176 1597.5825,-107.4766"/>
</g>
<!-- Node23 -->
<g id="node23" class="node">
<title>Node23</title>
<g id="a_node23"><a xlink:href="a00077.xhtml" target="_top" xlink:title="Fichier BMP. ">
<polygon fill="#ffffff" stroke="#000000" points="1860.4494,-56.5 1860.4494,-75.5 1960.4494,-75.5 1960.4494,-56.5 1860.4494,-56.5"/>
<text text-anchor="middle" x="1910.4494" y="-63.5" font-family="Helvetica,sans-Serif" font-size="10.00" fill="#000000">src/file_type/bmp.h</text>
</a>
</g>
</g>
<!-- Node14&#45;&gt;Node23 -->
<g id="edge48" class="edge">
<title>Node14&#45;&gt;Node23</title>
<path fill="none" stroke="#191970" d="M1666.1388,-111.5059C1720.2342,-100.8378 1806.0915,-84.508 1860.35,-74.5852"/>
<polygon fill="#191970" stroke="#191970" points="1665.2222,-108.1194 1656.0923,-113.4948 1666.5817,-114.9861 1665.2222,-108.1194"/>
</g>
<!-- Node24 -->
<g id="node24" class="node">
<title>Node24</title>
<g id="a_node24"><a xlink:href="a00095.xhtml" target="_top" xlink:title="Fichier PNG. ">
<polygon fill="#ffffff" stroke="#000000" points="1978.9494,-56.5 1978.9494,-75.5 2075.9494,-75.5 2075.9494,-56.5 1978.9494,-56.5"/>
<text text-anchor="middle" x="2027.4494" y="-63.5" font-family="Helvetica,sans-Serif" font-size="10.00" fill="#000000">src/file_type/png.h</text>
</a>
</g>
</g>
<!-- Node14&#45;&gt;Node24 -->
<g id="edge50" class="edge">
<title>Node14&#45;&gt;Node24</title>
<path fill="none" stroke="#191970" d="M1666.3646,-115.3968C1733.4183,-107.0401 1855.8966,-91.8185 1960.4494,-76 1966.3092,-75.1134 1972.4909,-74.1153 1978.6526,-73.1016"/>
<polygon fill="#191970" stroke="#191970" points="1665.58,-111.9675 1656.09,-116.6781 1666.4463,-118.9136 1665.58,-111.9675"/>
</g>
<!-- Node25 -->
<g id="node25" class="node">
<title>Node25</title>
<g id="a_node25"><a xlink:href="a00104.xhtml" target="_top" xlink:title="Fichier WAVE. ">
<polygon fill="#ffffff" stroke="#000000" points="2093.9494,-56.5 2093.9494,-75.5 2192.9494,-75.5 2192.9494,-56.5 2093.9494,-56.5"/>
<text text-anchor="middle" x="2143.4494" y="-63.5" font-family="Helvetica,sans-Serif" font-size="10.00" fill="#000000">src/file_type/wav.h</text>
</a>
</g>
</g>
<!-- Node14&#45;&gt;Node25 -->
<g id="edge52" class="edge">
<title>Node14&#45;&gt;Node25</title>
<path fill="none" stroke="#191970" d="M1666.2537,-117.8098C1750.7086,-110.8969 1926.8841,-95.8668 2075.4494,-76 2081.319,-75.2151 2087.4997,-74.284 2093.6614,-73.3106"/>
<polygon fill="#191970" stroke="#191970" points="1665.8557,-114.3305 1656.1735,-118.6322 1666.425,-121.3074 1665.8557,-114.3305"/>
</g>
<!-- Node26 -->
<g id="node26" class="node">
<title>Node26</title>
<g id="a_node26"><a xlink:href="a00089.xhtml" target="_top" xlink:title="Fichier MP3. ">
<polygon fill="#ffffff" stroke="#000000" points="2249.4494,-56.5 2249.4494,-75.5 2349.4494,-75.5 2349.4494,-56.5 2249.4494,-56.5"/>
<text text-anchor="middle" x="2299.4494" y="-63.5" font-family="Helvetica,sans-Serif" font-size="10.00" fill="#000000">src/file_type/mp3.h</text>
</a>
</g>
</g>
<!-- Node14&#45;&gt;Node26 -->
<g id="edge54" class="edge">
<title>Node14&#45;&gt;Node26</title>
<path fill="none" stroke="#191970" d="M1666.41,-119.4054C1770.7746,-113.972 2018.9312,-99.8835 2226.4494,-76 2233.823,-75.1514 2241.6485,-74.0756 2249.357,-72.9463"/>
<polygon fill="#191970" stroke="#191970" points="1665.9794,-115.9229 1656.1735,-119.9346 1666.3409,-122.9135 1665.9794,-115.9229"/>
</g>
<!-- Node14&#45;&gt;Node27 -->
<g id="edge64" class="edge">
<title>Node14&#45;&gt;Node27</title>
<path fill="none" stroke="#191970" d="M1666.3753,-121.3226C1789.2003,-119.1384 2103.1902,-110.2705 2201.4494,-76 2219.8493,-69.5825 2264.9194,-36.3354 2286.9357,-19.6189"/>
<polygon fill="#191970" stroke="#191970" points="1666.072,-117.8271 1656.1331,-121.497 1666.1913,-124.8261 1666.072,-117.8271"/>
</g>
<!-- Node28 -->
<g id="node28" class="node">
<title>Node28</title>
<g id="a_node28"><a xlink:href="a00083.xhtml" target="_top" xlink:title="Fichier FLV. ">
<polygon fill="#ffffff" stroke="#000000" points="1139.4494,-56.5 1139.4494,-75.5 1231.4494,-75.5 1231.4494,-56.5 1139.4494,-56.5"/>
<text text-anchor="middle" x="1185.4494" y="-63.5" font-family="Helvetica,sans-Serif" font-size="10.00" fill="#000000">src/file_type/flv.h</text>
</a>
</g>
</g>
<!-- Node14&#45;&gt;Node28 -->
<g id="edge57" class="edge">
<title>Node14&#45;&gt;Node28</title>
<path fill="none" stroke="#191970" d="M1566.6813,-117.138C1493.7893,-109.3278 1354.2942,-93.1185 1236.4494,-76 1234.8818,-75.7723 1233.2919,-75.5369 1231.6895,-75.2956"/>
<polygon fill="#191970" stroke="#191970" points="1566.6282,-120.652 1576.9421,-118.2285 1567.368,-113.6912 1566.6282,-120.652"/>
</g>
<!-- Node14&#45;&gt;Node29 -->
<g id="edge59" class="edge">
<title>Node14&#45;&gt;Node29</title>
<path fill="none" stroke="#191970" d="M1666.241,-120.8887C1835.5782,-116.9577 2404.7848,-102.5026 2874.4494,-76 2902.6879,-74.4065 2934.3055,-72.0106 2959.4033,-69.9633"/>
<polygon fill="#191970" stroke="#191970" points="1666.0517,-117.392 1656.1351,-121.1218 1666.2131,-124.3902 1666.0517,-117.392"/>
</g>
<!-- Node14&#45;&gt;Node30 -->
<g id="edge61" class="edge">
<title>Node14&#45;&gt;Node30</title>
<path fill="none" stroke="#191970" d="M1666.3152,-120.8837C1786.0473,-117.7738 2099.0862,-107.0929 2358.4494,-76 2361.2931,-75.6591 2364.2111,-75.2671 2367.1502,-74.84"/>
<polygon fill="#191970" stroke="#191970" points="1665.9174,-117.3926 1656.0093,-121.145 1666.0949,-124.3903 1665.9174,-117.3926"/>
</g>
<!-- Node14&#45;&gt;Node31 -->
<g id="edge63" class="edge">
<title>Node14&#45;&gt;Node31</title>
<path fill="none" stroke="#191970" d="M1666.371,-121.5058C1798.2055,-119.7264 2166.4223,-111.6829 2470.4494,-76 2473.3411,-75.6606 2476.3104,-75.2634 2479.2993,-74.8267"/>
<polygon fill="#191970" stroke="#191970" points="1666.1404,-118.0084 1656.1863,-121.637 1666.2306,-125.0078 1666.1404,-118.0084"/>
</g>
<!-- Node14&#45;&gt;Node32 -->
<g id="edge66" class="edge">
<title>Node14&#45;&gt;Node32</title>
<path fill="none" stroke="#191970" d="M1666.2845,-120.4154C1837.4203,-114.8496 2400.4602,-95.4763 2580.4494,-76 2583.548,-75.6647 2586.7307,-75.2707 2589.9351,-74.8362"/>
<polygon fill="#191970" stroke="#191970" points="1665.9391,-116.9247 1656.0577,-120.7467 1666.1658,-123.921 1665.9391,-116.9247"/>
</g>
<!-- Node14&#45;&gt;Node33 -->
<g id="edge67" class="edge">
<title>Node14&#45;&gt;Node33</title>
<path fill="none" stroke="#191970" d="M1666.1645,-121.3449C1850.4865,-118.6889 2494.6278,-107.3271 2697.4494,-76 2700.6059,-75.5125 2703.8795,-74.8562 2707.1154,-74.1116"/>
<polygon fill="#191970" stroke="#191970" points="1665.9057,-117.8481 1655.9565,-121.4898 1666.0052,-124.8474 1665.9057,-117.8481"/>
</g>
<!-- Node14&#45;&gt;Node34 -->
<g id="edge70" class="edge">
<title>Node14&#45;&gt;Node34</title>
<path fill="none" stroke="#191970" d="M1666.2594,-121.0114C1858.4143,-117.0428 2551.6383,-101.2558 2770.4494,-76 2773.3718,-75.6627 2776.3761,-75.2535 2779.3962,-74.7955"/>
<polygon fill="#191970" stroke="#191970" points="1666.0941,-117.5139 1656.168,-121.2184 1666.2378,-124.5125 1666.0941,-117.5139"/>
</g>
<!-- Node15&#45;&gt;Node16 -->
<g id="edge26" class="edge">
<title>Node15&#45;&gt;Node16</title>
<path fill="none" stroke="#191970" d="M1624.4975,-53.8273C1584.3632,-43.4221 1527.4801,-28.6746 1491.0219,-19.2225"/>
<polygon fill="#191970" stroke="#191970" points="1623.7593,-57.2516 1634.3177,-56.3733 1625.5161,-50.4756 1623.7593,-57.2516"/>
</g>
<!-- Node15&#45;&gt;Node17 -->
<g id="edge27" class="edge">
<title>Node15&#45;&gt;Node17</title>
<path fill="none" stroke="#191970" d="M1671.4494,-46.1575C1671.4494,-37.155 1671.4494,-26.9199 1671.4494,-19.6427"/>
<polygon fill="#191970" stroke="#191970" points="1667.9495,-46.2455 1671.4494,-56.2455 1674.9495,-46.2456 1667.9495,-46.2455"/>
</g>
<!-- Node18&#45;&gt;Node16 -->
<g id="edge30" class="edge">
<title>Node18&#45;&gt;Node16</title>
<path fill="none" stroke="#191970" d="M1718.1753,-55.8049C1630.8395,-39.0412 1539.8481,-23.7776 1490.9681,-15.7586"/>
<polygon fill="#191970" stroke="#191970" points="1717.772,-59.2915 1728.254,-57.7494 1719.0981,-52.4183 1717.772,-59.2915"/>
</g>
<!-- Node18&#45;&gt;Node17 -->
<g id="edge31" class="edge">
<title>Node18&#45;&gt;Node17</title>
<path fill="none" stroke="#191970" d="M1741.0818,-51.0465C1724.1784,-41.0824 1702.459,-28.2794 1687.8075,-19.6427"/>
<polygon fill="#191970" stroke="#191970" points="1739.5096,-54.1825 1749.9017,-56.2455 1743.0643,-48.1522 1739.5096,-54.1825"/>
</g>
<!-- Node19&#45;&gt;Node6 -->
<g id="edge34" class="edge">
<title>Node19&#45;&gt;Node6</title>
<path fill="none" stroke="#191970" d="M979.5423,-55.8784C889.1467,-40.9316 795.7586,-26.8411 737.7238,-18.2451"/>
<polygon fill="#191970" stroke="#191970" points="978.9718,-59.3315 989.4098,-57.5154 980.1175,-52.4259 978.9718,-59.3315"/>
</g>
<!-- Node19&#45;&gt;Node14 -->
<g id="edge35" class="edge">
<title>Node19&#45;&gt;Node14</title>
<path fill="none" stroke="#191970" d="M1093.7135,-74.2548C1098.0353,-74.8859 1102.3169,-75.4789 1106.4494,-76 1281.4552,-98.0695 1490.9824,-113.2074 1576.9211,-119.1685"/>
<polygon fill="#191970" stroke="#191970" points="1094.0179,-70.7612 1083.6074,-72.7292 1092.9729,-77.6828 1094.0179,-70.7612"/>
</g>
<!-- Node20&#45;&gt;Node16 -->
<g id="edge37" class="edge">
<title>Node20&#45;&gt;Node16</title>
<path fill="none" stroke="#191970" d="M1371.7757,-51.8368C1392.0215,-41.7139 1418.7135,-28.3679 1436.4471,-19.5011"/>
<polygon fill="#191970" stroke="#191970" points="1370.0819,-48.7706 1362.7029,-56.3733 1373.2124,-55.0316 1370.0819,-48.7706"/>
</g>
<!-- Node20&#45;&gt;Node17 -->
<g id="edge38" class="edge">
<title>Node20&#45;&gt;Node17</title>
<path fill="none" stroke="#191970" d="M1409.4266,-54.7356C1478.8585,-42.8814 1585.317,-24.7055 1638.635,-15.6025"/>
<polygon fill="#191970" stroke="#191970" points="1408.7302,-51.3038 1399.4619,-56.4369 1409.9083,-58.2039 1408.7302,-51.3038"/>
</g>
<!-- Node21&#45;&gt;Node16 -->
<g id="edge41" class="edge">
<title>Node21&#45;&gt;Node16</title>
<path fill="none" stroke="#191970" d="M1455.4494,-46.1575C1455.4494,-37.155 1455.4494,-26.9199 1455.4494,-19.6427"/>
<polygon fill="#191970" stroke="#191970" points="1451.9495,-46.2455 1455.4494,-56.2455 1458.9495,-46.2456 1451.9495,-46.2455"/>
</g>
<!-- Node21&#45;&gt;Node17 -->
<g id="edge42" class="edge">
<title>Node21&#45;&gt;Node17</title>
<path fill="none" stroke="#191970" d="M1502.3852,-53.8315C1543.5662,-43.1549 1602.3901,-27.9043 1638.6849,-18.4945"/>
<polygon fill="#191970" stroke="#191970" points="1501.3827,-50.4756 1492.5811,-56.3733 1503.1395,-57.2516 1501.3827,-50.4756"/>
</g>
<!-- Node22&#45;&gt;Node16 -->
<g id="edge45" class="edge">
<title>Node22&#45;&gt;Node16</title>
<path fill="none" stroke="#191970" d="M1534.9295,-51.5971C1515.7477,-41.558 1490.6816,-28.4393 1473.8738,-19.6427"/>
<polygon fill="#191970" stroke="#191970" points="1533.3285,-54.7095 1543.8114,-56.2455 1536.5744,-48.5075 1533.3285,-54.7095"/>
</g>
<!-- Node22&#45;&gt;Node17 -->
<g id="edge46" class="edge">
<title>Node22&#45;&gt;Node17</title>
<path fill="none" stroke="#191970" d="M1590.4836,-51.5971C1610.024,-41.558 1635.5586,-28.4393 1652.6806,-19.6427"/>
<polygon fill="#191970" stroke="#191970" points="1588.7311,-48.5625 1581.4357,-56.2455 1591.93,-54.7889 1588.7311,-48.5625"/>
</g>
<!-- Node23&#45;&gt;Node14 -->
<g id="edge49" class="edge">
<title>Node23&#45;&gt;Node14</title>
<path fill="none" stroke="#191970" d="M1855.6495,-77.5002C1797.6685,-88.8964 1707.7405,-105.9617 1656.1902,-115.3007"/>
<polygon fill="#191970" stroke="#191970" points="1856.5988,-80.8805 1865.7326,-75.5117 1855.2443,-74.0127 1856.5988,-80.8805"/>
</g>
<!-- Node24&#45;&gt;Node14 -->
<g id="edge51" class="edge">
<title>Node24&#45;&gt;Node14</title>
<path fill="none" stroke="#191970" d="M1971.299,-77.067C1854.0805,-94.5849 1721.149,-110.7406 1656.1166,-117.9953"/>
<polygon fill="#191970" stroke="#191970" points="1972.1379,-80.4803 1981.5062,-75.532 1971.0969,-73.5581 1972.1379,-80.4803"/>
</g>
<!-- Node25&#45;&gt;Node14 -->
<g id="edge53" class="edge">
<title>Node25&#45;&gt;Node14</title>
<path fill="none" stroke="#191970" d="M2086.7123,-76.8776C1924.3138,-98.2077 1736.7717,-113.5478 1656.2344,-119.3993"/>
<polygon fill="#191970" stroke="#191970" points="2087.4252,-80.3138 2096.8785,-75.53 2086.5053,-73.3745 2087.4252,-80.3138"/>
</g>
<!-- Node26&#45;&gt;Node14 -->
<g id="edge55" class="edge">
<title>Node26&#45;&gt;Node14</title>
<path fill="none" stroke="#191970" d="M2239.2331,-76.5679C2015.3106,-101.8916 1754.0894,-115.8717 1656.0476,-120.376"/>
<polygon fill="#191970" stroke="#191970" points="2239.6558,-80.0425 2249.1943,-75.431 2238.8619,-73.0876 2239.6558,-80.0425"/>
</g>
<!-- Node26&#45;&gt;Node27 -->
<g id="edge56" class="edge">
<title>Node26&#45;&gt;Node27</title>
<path fill="none" stroke="#191970" d="M2299.4494,-46.1575C2299.4494,-37.155 2299.4494,-26.9199 2299.4494,-19.6427"/>
<polygon fill="#191970" stroke="#191970" points="2295.9495,-46.2455 2299.4494,-56.2455 2302.9495,-46.2456 2295.9495,-46.2455"/>
</g>
<!-- Node28&#45;&gt;Node14 -->
<g id="edge58" class="edge">
<title>Node28&#45;&gt;Node14</title>
<path fill="none" stroke="#191970" d="M1241.7556,-74.079C1246.0659,-74.7518 1250.3344,-75.4022 1254.4494,-76 1371.5064,-93.0041 1509.9252,-109.1111 1576.7159,-116.9802"/>
<polygon fill="#191970" stroke="#191970" points="1242.0995,-70.5899 1231.6751,-72.4829 1241.0047,-77.5038 1242.0995,-70.5899"/>
</g>
<!-- Node35&#45;&gt;Node29 -->
<g id="edge73" class="edge">
<title>Node35&#45;&gt;Node29</title>
<path fill="none" stroke="#191970" d="M3003.5124,-102.1575C3003.9947,-93.155 3004.543,-82.9199 3004.9328,-75.6427"/>
<polygon fill="#191970" stroke="#191970" points="3000.012,-102.0726 3002.972,-112.2455 3007.002,-102.4471 3000.012,-102.0726"/>
</g>
</g>
</svg>
