<?xml version="1.0" encoding="UTF-8" standalone="no"?>
<!DOCTYPE svg PUBLIC "-//W3C//DTD SVG 1.1//EN"
 "http://www.w3.org/Graphics/SVG/1.1/DTD/svg11.dtd">
<!-- Generated by graphviz version 2.40.1 (20161225.0304)
 -->
<!-- Title: inc/stegx_errors.h Pages: 1 -->
<svg width="1784pt" height="140pt"
 viewBox="0.00 0.00 1784.00 140.00" xmlns="http://www.w3.org/2000/svg" xmlns:xlink="http://www.w3.org/1999/xlink">
<g id="graph0" class="graph" transform="scale(1 1) rotate(0) translate(4 136)">
<title>inc/stegx_errors.h</title>
<polygon fill="#ffffff" stroke="transparent" points="-4,4 -4,-136 1780,-136 1780,4 -4,4"/>
<!-- Node1 -->
<g id="node1" class="node">
<title>Node1</title>
<polygon fill="#bfbfbf" stroke="#000000" points="675.5,-112.5 675.5,-131.5 770.5,-131.5 770.5,-112.5 675.5,-112.5"/>
<text text-anchor="middle" x="723" y="-119.5" font-family="Helvetica,sans-Serif" font-size="10.00" fill="#000000">inc/stegx_errors.h</text>
</g>
<!-- Node2 -->
<g id="node2" class="node">
<title>Node2</title>
<g id="a_node2"><a xlink:href="a00005.xhtml" target="_top" xlink:title="Fonctions d&#39;utilisations de la bibliothèque StegX. ">
<polygon fill="#ffffff" stroke="#000000" points="98.5,-56.5 98.5,-75.5 163.5,-75.5 163.5,-56.5 98.5,-56.5"/>
<text text-anchor="middle" x="131" y="-63.5" font-family="Helvetica,sans-Serif" font-size="10.00" fill="#000000">inc/stegx.h</text>
</a>
</g>
</g>
<!-- Node1&#45;&gt;Node2 -->
<g id="edge1" class="edge">
<title>Node1&#45;&gt;Node2</title>
<path fill="none" stroke="#191970" d="M665.2117,-119.5077C565.4039,-114.6717 354.4522,-102.1129 178,-76 173.2961,-75.3039 168.3568,-74.422 163.5202,-73.4716"/>
<polygon fill="#191970" stroke="#191970" points="665.2287,-123.0124 675.384,-119.9923 665.5619,-116.0203 665.2287,-123.0124"/>
</g>
<!-- Node3 -->
<g id="node3" class="node">
<title>Node3</title>
<g id="a_node3"><a xlink:href="a00014.xhtml" target="_top" xlink:title="Algorithme End Of Chunk (EOC). ">
<polygon fill="#ffffff" stroke="#000000" points="0,-.5 0,-19.5 78,-19.5 78,-.5 0,-.5"/>
<text text-anchor="middle" x="39" y="-7.5" font-family="Helvetica,sans-Serif" font-size="10.00" fill="#000000">src/algo/eoc.c</text>
</a>
</g>
</g>
<!-- Node1&#45;&gt;Node3 -->
<g id="edge2" class="edge">
<title>Node1&#45;&gt;Node3</title>
<path fill="none" stroke="#191970" d="M665.1328,-118.6123C552.4361,-111.6925 307.3555,-94.9768 225,-76 200.466,-70.3467 195.677,-64.56 172,-56 136.0413,-42.9998 94.3427,-28.7031 67.3607,-19.5536"/>
<polygon fill="#191970" stroke="#191970" points="665.097,-122.1165 675.2914,-119.2315 665.5229,-115.1295 665.097,-122.1165"/>
</g>
<!-- Node4 -->
<g id="node4" class="node">
<title>Node4</title>
<g id="a_node4"><a xlink:href="a00119.xhtml" target="_top" xlink:title="Algorithme de protection des données avec le mot de passe. ">
<polygon fill="#ffffff" stroke="#000000" points="334,-56.5 334,-75.5 418,-75.5 418,-56.5 334,-56.5"/>
<text text-anchor="middle" x="376" y="-63.5" font-family="Helvetica,sans-Serif" font-size="10.00" fill="#000000">src/protection.h</text>
</a>
</g>
</g>
<!-- Node1&#45;&gt;Node4 -->
<g id="edge3" class="edge">
<title>Node1&#45;&gt;Node4</title>
<path fill="none" stroke="#191970" d="M665.1209,-113.1984C606.3564,-104.1804 512.7702,-89.5941 432,-76 427.52,-75.246 422.842,-74.4401 418.1816,-73.6253"/>
<polygon fill="#191970" stroke="#191970" points="664.9041,-116.7059 675.3189,-114.7611 665.9645,-109.7867 664.9041,-116.7059"/>
</g>
<!-- Node5 -->
<g id="node5" class="node">
<title>Node5</title>
<g id="a_node5"><a xlink:href="a00020.xhtml" target="_top" xlink:title="Algorithme EOF. ">
<polygon fill="#ffffff" stroke="#000000" points="96,-.5 96,-19.5 172,-19.5 172,-.5 96,-.5"/>
<text text-anchor="middle" x="134" y="-7.5" font-family="Helvetica,sans-Serif" font-size="10.00" fill="#000000">src/algo/eof.c</text>
</a>
</g>
</g>
<!-- Node1&#45;&gt;Node5 -->
<g id="edge11" class="edge">
<title>Node1&#45;&gt;Node5</title>
<path fill="none" stroke="#191970" d="M665.2794,-118.1801C563.1058,-111.0479 354.5342,-94.7225 284,-76 233.4022,-62.5694 178.0485,-34.3496 150.9144,-19.5383"/>
<polygon fill="#191970" stroke="#191970" points="665.2021,-121.683 675.42,-118.8821 665.6856,-114.6997 665.2021,-121.683"/>
</g>
<!-- Node6 -->
<g id="node6" class="node">
<title>Node6</title>
<g id="a_node6"><a xlink:href="a00026.xhtml" target="_top" xlink:title="Algorithme JUNK CHUNK. ">
<polygon fill="#ffffff" stroke="#000000" points="190,-.5 190,-19.5 302,-19.5 302,-.5 190,-.5"/>
<text text-anchor="middle" x="246" y="-7.5" font-family="Helvetica,sans-Serif" font-size="10.00" fill="#000000">src/algo/junk_chunk.c</text>
</a>
</g>
</g>
<!-- Node1&#45;&gt;Node6 -->
<g id="edge12" class="edge">
<title>Node1&#45;&gt;Node6</title>
<path fill="none" stroke="#191970" d="M665.1654,-119.9501C568.0059,-115.7669 376.6851,-104.1457 316,-76 288.1196,-63.0691 264.1552,-34.6307 252.8805,-19.6569"/>
<polygon fill="#191970" stroke="#191970" points="665.2626,-123.4571 675.4002,-120.3782 665.5552,-116.4632 665.2626,-123.4571"/>
</g>
<!-- Node7 -->
<g id="node7" class="node">
<title>Node7</title>
<g id="a_node7"><a xlink:href="a00032.xhtml" target="_top" xlink:title="Algorithme LSB. ">
<polygon fill="#ffffff" stroke="#000000" points="320.5,-.5 320.5,-19.5 395.5,-19.5 395.5,-.5 320.5,-.5"/>
<text text-anchor="middle" x="358" y="-7.5" font-family="Helvetica,sans-Serif" font-size="10.00" fill="#000000">src/algo/lsb.c</text>
</a>
</g>
</g>
<!-- Node1&#45;&gt;Node7 -->
<g id="edge13" class="edge">
<title>Node1&#45;&gt;Node7</title>
<path fill="none" stroke="#191970" d="M665.1462,-119.4946C560.2093,-114.3529 347.2238,-100.9403 325,-76 309.8295,-58.9752 331.7097,-33.7172 346.4512,-19.9061"/>
<polygon fill="#191970" stroke="#191970" points="665.1022,-122.9964 675.2588,-119.9808 665.4385,-116.0045 665.1022,-122.9964"/>
</g>
<!-- Node8 -->
<g id="node8" class="node">
<title>Node8</title>
<g id="a_node8"><a xlink:href="a00074.xhtml" target="_top" xlink:title="Fichier BMP. ">
<polygon fill="#ffffff" stroke="#000000" points="414,-.5 414,-19.5 514,-19.5 514,-.5 414,-.5"/>
<text text-anchor="middle" x="464" y="-7.5" font-family="Helvetica,sans-Serif" font-size="10.00" fill="#000000">src/file_type/bmp.c</text>
</a>
</g>
</g>
<!-- Node1&#45;&gt;Node8 -->
<g id="edge20" class="edge">
<title>Node1&#45;&gt;Node8</title>
<path fill="none" stroke="#191970" d="M665.4341,-117.883C623.7662,-112.796 567.3839,-101.4237 524,-76 499.684,-61.7505 479.6164,-34.4035 470.0466,-19.7841"/>
<polygon fill="#191970" stroke="#191970" points="665.0943,-121.3668 675.4254,-119.0175 665.8841,-114.4115 665.0943,-121.3668"/>
</g>
<!-- Node9 -->
<g id="node9" class="node">
<title>Node9</title>
<g id="a_node9"><a xlink:href="a00092.xhtml" target="_top" xlink:title="Fichier PNG. ">
<polygon fill="#ffffff" stroke="#000000" points="532.5,-.5 532.5,-19.5 629.5,-19.5 629.5,-.5 532.5,-.5"/>
<text text-anchor="middle" x="581" y="-7.5" font-family="Helvetica,sans-Serif" font-size="10.00" fill="#000000">src/file_type/png.c</text>
</a>
</g>
</g>
<!-- Node1&#45;&gt;Node9 -->
<g id="edge23" class="edge">
<title>Node1&#45;&gt;Node9</title>
<path fill="none" stroke="#191970" d="M665.0468,-115.8008C615.3433,-109.1475 549.2466,-96.6493 533,-76 517.581,-56.4025 546.0506,-32.5563 565.3499,-19.5662"/>
<polygon fill="#191970" stroke="#191970" points="664.6987,-119.2848 675.0644,-117.0935 665.5946,-112.3424 664.6987,-119.2848"/>
</g>
<!-- Node10 -->
<g id="node10" class="node">
<title>Node10</title>
<g id="a_node10"><a xlink:href="a00116.xhtml" target="_top" xlink:title="Algorithme de protection des données avec le mot de passe. ">
<polygon fill="#ffffff" stroke="#000000" points="648,-.5 648,-19.5 732,-19.5 732,-.5 648,-.5"/>
<text text-anchor="middle" x="690" y="-7.5" font-family="Helvetica,sans-Serif" font-size="10.00" fill="#000000">src/protection.c</text>
</a>
</g>
</g>
<!-- Node1&#45;&gt;Node10 -->
<g id="edge27" class="edge">
<title>Node1&#45;&gt;Node10</title>
<path fill="none" stroke="#191970" d="M665.0119,-115.0041C617.9856,-107.9978 557.1124,-95.4335 542,-76 536.5433,-68.9831 536.7293,-63.1576 542,-56 548.6611,-46.9543 609.6133,-30.135 651.189,-19.5336"/>
<polygon fill="#191970" stroke="#191970" points="664.72,-118.4981 675.1164,-116.4572 665.7164,-111.5694 664.72,-118.4981"/>
</g>
<!-- Node11 -->
<g id="node11" class="node">
<title>Node11</title>
<g id="a_node11"><a xlink:href="a00038.xhtml" target="_top" xlink:title="Algorithme METADATA. ">
<polygon fill="#ffffff" stroke="#000000" points="550.5,-56.5 550.5,-75.5 653.5,-75.5 653.5,-56.5 550.5,-56.5"/>
<text text-anchor="middle" x="602" y="-63.5" font-family="Helvetica,sans-Serif" font-size="10.00" fill="#000000">src/algo/metadata.c</text>
</a>
</g>
</g>
<!-- Node1&#45;&gt;Node11 -->
<g id="edge14" class="edge">
<title>Node1&#45;&gt;Node11</title>
<path fill="none" stroke="#191970" d="M692.9896,-108.1109C671.0475,-97.9559 641.8612,-84.4482 622.5292,-75.5011"/>
<polygon fill="#191970" stroke="#191970" points="691.6541,-111.3494 702.1994,-112.3733 694.5942,-104.9968 691.6541,-111.3494"/>
</g>
<!-- Node12 -->
<g id="node12" class="node">
<title>Node12</title>
<g id="a_node12"><a xlink:href="a00044.xhtml" target="_top" xlink:title="Module de vérification de la compatibilité. ">
<polygon fill="#ffffff" stroke="#000000" points="672,-56.5 672,-75.5 774,-75.5 774,-56.5 672,-56.5"/>
<text text-anchor="middle" x="723" y="-63.5" font-family="Helvetica,sans-Serif" font-size="10.00" fill="#000000">src/check_compa.c</text>
</a>
</g>
</g>
<!-- Node1&#45;&gt;Node12 -->
<g id="edge15" class="edge">
<title>Node1&#45;&gt;Node12</title>
<path fill="none" stroke="#191970" d="M723,-102.1575C723,-93.155 723,-82.9199 723,-75.6427"/>
<polygon fill="#191970" stroke="#191970" points="719.5001,-102.2455 723,-112.2455 726.5001,-102.2456 719.5001,-102.2455"/>
</g>
<!-- Node13 -->
<g id="node13" class="node">
<title>Node13</title>
<g id="a_node13"><a xlink:href="a00050.xhtml" target="_top" xlink:title="Module de détection de l&#39;algorithme. ">
<polygon fill="#ffffff" stroke="#000000" points="792,-56.5 792,-75.5 884,-75.5 884,-56.5 792,-56.5"/>
<text text-anchor="middle" x="838" y="-63.5" font-family="Helvetica,sans-Serif" font-size="10.00" fill="#000000">src/detect_algo.c</text>
</a>
</g>
</g>
<!-- Node1&#45;&gt;Node13 -->
<g id="edge16" class="edge">
<title>Node1&#45;&gt;Node13</title>
<path fill="none" stroke="#191970" d="M751.8033,-107.9741C772.625,-97.8348 800.1978,-84.408 818.4888,-75.5011"/>
<polygon fill="#191970" stroke="#191970" points="750.2276,-104.8484 742.7692,-112.3733 753.2922,-111.1419 750.2276,-104.8484"/>
</g>
<!-- Node14 -->
<g id="node14" class="node">
<title>Node14</title>
<g id="a_node14"><a xlink:href="a00062.xhtml" target="_top" xlink:title="Module de gestion des erreurs. ">
<polygon fill="#ffffff" stroke="#000000" points="902,-56.5 902,-75.5 968,-75.5 968,-56.5 902,-56.5"/>
<text text-anchor="middle" x="935" y="-63.5" font-family="Helvetica,sans-Serif" font-size="10.00" fill="#000000">src/errors.c</text>
</a>
</g>
</g>
<!-- Node1&#45;&gt;Node14 -->
<g id="edge17" class="edge">
<title>Node1&#45;&gt;Node14</title>
<path fill="none" stroke="#191970" d="M769.2328,-109.7876C809.2578,-99.2149 866.1709,-84.1813 901.8186,-74.7649"/>
<polygon fill="#191970" stroke="#191970" points="768.2186,-106.4353 759.4441,-112.3733 770.0064,-113.2032 768.2186,-106.4353"/>
</g>
<!-- Node15 -->
<g id="node15" class="node">
<title>Node15</title>
<g id="a_node15"><a xlink:href="a00065.xhtml" target="_top" xlink:title="Extraction des données cachées dans un fichier hôte. ">
<polygon fill="#ffffff" stroke="#000000" points="986.5,-56.5 986.5,-75.5 1057.5,-75.5 1057.5,-56.5 986.5,-56.5"/>
<text text-anchor="middle" x="1022" y="-63.5" font-family="Helvetica,sans-Serif" font-size="10.00" fill="#000000">src/extract.c</text>
</a>
</g>
</g>
<!-- Node1&#45;&gt;Node15 -->
<g id="edge18" class="edge">
<title>Node1&#45;&gt;Node15</title>
<path fill="none" stroke="#191970" d="M780.8137,-112.1999C832.3767,-103.2999 909.8681,-89.5325 977,-76 979.9812,-75.399 983.0689,-74.7562 986.1657,-74.097"/>
<polygon fill="#191970" stroke="#191970" points="780.119,-108.7679 770.8576,-113.9134 781.3064,-115.6664 780.119,-108.7679"/>
</g>
<!-- Node16 -->
<g id="node16" class="node">
<title>Node16</title>
<g id="a_node16"><a xlink:href="a00068.xhtml" target="_top" xlink:title="Fichier AVI. ">
<polygon fill="#ffffff" stroke="#000000" points="1076,-56.5 1076,-75.5 1170,-75.5 1170,-56.5 1076,-56.5"/>
<text text-anchor="middle" x="1123" y="-63.5" font-family="Helvetica,sans-Serif" font-size="10.00" fill="#000000">src/file_type/avi.c</text>
</a>
</g>
</g>
<!-- Node1&#45;&gt;Node16 -->
<g id="edge19" class="edge">
<title>Node1&#45;&gt;Node16</title>
<path fill="none" stroke="#191970" d="M780.818,-115.053C849.2623,-106.6478 966.63,-91.6647 1067,-76 1069.9274,-75.5431 1072.9377,-75.056 1075.9713,-74.552"/>
<polygon fill="#191970" stroke="#191970" points="780.1737,-111.6056 770.673,-116.2946 781.0241,-118.5538 780.1737,-111.6056"/>
</g>
<!-- Node17 -->
<g id="node17" class="node">
<title>Node17</title>
<g id="a_node17"><a xlink:href="a00080.xhtml" target="_top" xlink:title="Fichier FLV. ">
<polygon fill="#ffffff" stroke="#000000" points="1188,-56.5 1188,-75.5 1280,-75.5 1280,-56.5 1188,-56.5"/>
<text text-anchor="middle" x="1234" y="-63.5" font-family="Helvetica,sans-Serif" font-size="10.00" fill="#000000">src/file_type/flv.c</text>
</a>
</g>
</g>
<!-- Node1&#45;&gt;Node17 -->
<g id="edge21" class="edge">
<title>Node1&#45;&gt;Node17</title>
<path fill="none" stroke="#191970" d="M780.9125,-117.6389C867.6838,-110.7701 1036.4757,-96.1132 1179,-76 1181.883,-75.5932 1184.8456,-75.1443 1187.8295,-74.669"/>
<polygon fill="#191970" stroke="#191970" points="780.4396,-114.1652 770.7445,-118.4378 780.988,-121.1437 780.4396,-114.1652"/>
</g>
<!-- Node18 -->
<g id="node18" class="node">
<title>Node18</title>
<g id="a_node18"><a xlink:href="a00086.xhtml" target="_top" xlink:title="Fichier MP3. ">
<polygon fill="#ffffff" stroke="#000000" points="1298,-56.5 1298,-75.5 1398,-75.5 1398,-56.5 1298,-56.5"/>
<text text-anchor="middle" x="1348" y="-63.5" font-family="Helvetica,sans-Serif" font-size="10.00" fill="#000000">src/file_type/mp3.c</text>
</a>
</g>
</g>
<!-- Node1&#45;&gt;Node18 -->
<g id="edge22" class="edge">
<title>Node1&#45;&gt;Node18</title>
<path fill="none" stroke="#191970" d="M781.007,-118.952C883.6982,-113.185 1104.1024,-99.1385 1289,-76 1291.8864,-75.6388 1294.8473,-75.237 1297.8317,-74.8077"/>
<polygon fill="#191970" stroke="#191970" points="780.6396,-115.467 770.8494,-119.517 781.0284,-122.4562 780.6396,-115.467"/>
</g>
<!-- Node19 -->
<g id="node19" class="node">
<title>Node19</title>
<g id="a_node19"><a xlink:href="a00101.xhtml" target="_top" xlink:title="Fichier WAVE. ">
<polygon fill="#ffffff" stroke="#000000" points="1416.5,-56.5 1416.5,-75.5 1515.5,-75.5 1515.5,-56.5 1416.5,-56.5"/>
<text text-anchor="middle" x="1466" y="-63.5" font-family="Helvetica,sans-Serif" font-size="10.00" fill="#000000">src/file_type/wav.c</text>
</a>
</g>
</g>
<!-- Node1&#45;&gt;Node19 -->
<g id="edge24" class="edge">
<title>Node1&#45;&gt;Node19</title>
<path fill="none" stroke="#191970" d="M781.0971,-120.0684C899.2892,-115.7036 1176.0969,-103.2621 1407,-76 1410.0952,-75.6346 1413.2753,-75.2174 1416.4777,-74.7658"/>
<polygon fill="#191970" stroke="#191970" points="780.7008,-116.5804 770.8347,-120.4417 780.9553,-123.5758 780.7008,-116.5804"/>
</g>
<!-- Node20 -->
<g id="node20" class="node">
<title>Node20</title>
<g id="a_node20"><a xlink:href="a00107.xhtml" target="_top" xlink:title="Fonction d&#39;initialisation et de libération de la bibliothèque. ">
<polygon fill="#ffffff" stroke="#000000" points="1534,-56.5 1534,-75.5 1588,-75.5 1588,-56.5 1534,-56.5"/>
<text text-anchor="middle" x="1561" y="-63.5" font-family="Helvetica,sans-Serif" font-size="10.00" fill="#000000">src/init.c</text>
</a>
</g>
</g>
<!-- Node1&#45;&gt;Node20 -->
<g id="edge25" class="edge">
<title>Node1&#45;&gt;Node20</title>
<path fill="none" stroke="#191970" d="M780.6664,-120.2934C939.5815,-115.3355 1381.5298,-99.7601 1525,-76 1527.8158,-75.5337 1530.7271,-74.9322 1533.618,-74.2559"/>
<polygon fill="#191970" stroke="#191970" points="780.5013,-116.7968 770.6144,-120.6046 780.7179,-123.7934 780.5013,-116.7968"/>
</g>
<!-- Node21 -->
<g id="node21" class="node">
<title>Node21</title>
<g id="a_node21"><a xlink:href="a00110.xhtml" target="_top" xlink:title="Insertion des données cachées dans une copie de l&#39;hôte. ">
<polygon fill="#ffffff" stroke="#000000" points="1606.5,-56.5 1606.5,-75.5 1671.5,-75.5 1671.5,-56.5 1606.5,-56.5"/>
<text text-anchor="middle" x="1639" y="-63.5" font-family="Helvetica,sans-Serif" font-size="10.00" fill="#000000">src/insert.c</text>
</a>
</g>
</g>
<!-- Node1&#45;&gt;Node21 -->
<g id="edge26" class="edge">
<title>Node1&#45;&gt;Node21</title>
<path fill="none" stroke="#191970" d="M780.7945,-120.3261C949.3824,-115.2264 1438.6445,-98.8268 1597,-76 1599.9675,-75.5722 1603.0331,-75.034 1606.0936,-74.4303"/>
<polygon fill="#191970" stroke="#191970" points="780.5233,-116.8326 770.633,-120.6315 780.7336,-123.8294 780.5233,-116.8326"/>
</g>
<!-- Node22 -->
<g id="node22" class="node">
<title>Node22</title>
<g id="a_node22"><a xlink:href="a00128.xhtml" target="_top" xlink:title="Proposition des algorithmes. ">
<polygon fill="#ffffff" stroke="#000000" points="1690,-56.5 1690,-75.5 1776,-75.5 1776,-56.5 1690,-56.5"/>
<text text-anchor="middle" x="1733" y="-63.5" font-family="Helvetica,sans-Serif" font-size="10.00" fill="#000000">src/sugg_algo.c</text>
</a>
</g>
</g>
<!-- Node1&#45;&gt;Node22 -->
<g id="edge28" class="edge">
<title>Node1&#45;&gt;Node22</title>
<path fill="none" stroke="#191970" d="M780.7449,-120.3048C959.9547,-114.8735 1505.1303,-97.025 1681,-76 1683.921,-75.6508 1686.9243,-75.2326 1689.9436,-74.7682"/>
<polygon fill="#191970" stroke="#191970" points="780.6171,-116.8069 770.7272,-120.607 780.8282,-123.8037 780.6171,-116.8069"/>
</g>
<!-- Node4&#45;&gt;Node3 -->
<g id="edge4" class="edge">
<title>Node4&#45;&gt;Node3</title>
<path fill="none" stroke="#191970" d="M323.7564,-58.4483C265.7757,-49.8896 169.4937,-35.1495 87,-20 84.0697,-19.4619 81.0435,-18.884 78.0023,-18.2872"/>
<polygon fill="#191970" stroke="#191970" points="323.3718,-61.9293 333.7747,-59.9218 324.3905,-55.0038 323.3718,-61.9293"/>
</g>
<!-- Node4&#45;&gt;Node5 -->
<g id="edge5" class="edge">
<title>Node4&#45;&gt;Node5</title>
<path fill="none" stroke="#191970" d="M324.6954,-54.1279C279.1183,-43.5811 213.5232,-28.4021 172.3608,-18.8769"/>
<polygon fill="#191970" stroke="#191970" points="324.142,-57.5922 334.6737,-56.4369 325.7202,-50.7724 324.142,-57.5922"/>
</g>
<!-- Node4&#45;&gt;Node6 -->
<g id="edge6" class="edge">
<title>Node4&#45;&gt;Node6</title>
<path fill="none" stroke="#191970" d="M344.3898,-52.3833C320.7465,-42.1985 289.0124,-28.5284 268.0562,-19.5011"/>
<polygon fill="#191970" stroke="#191970" points="343.0834,-55.6314 353.6522,-56.3733 345.8528,-49.2025 343.0834,-55.6314"/>
</g>
<!-- Node4&#45;&gt;Node7 -->
<g id="edge7" class="edge">
<title>Node4&#45;&gt;Node7</title>
<path fill="none" stroke="#191970" d="M369.7173,-46.4538C366.8008,-37.3803 363.4642,-26.9998 361.0994,-19.6427"/>
<polygon fill="#191970" stroke="#191970" points="366.4724,-47.7963 372.8646,-56.2455 373.1366,-45.6542 366.4724,-47.7963"/>
</g>
<!-- Node4&#45;&gt;Node8 -->
<g id="edge8" class="edge">
<title>Node4&#45;&gt;Node8</title>
<path fill="none" stroke="#191970" d="M399.9345,-50.769C415.5283,-40.8456 435.401,-28.1994 448.8472,-19.6427"/>
<polygon fill="#191970" stroke="#191970" points="397.886,-47.9239 391.3284,-56.2455 401.6441,-53.8296 397.886,-47.9239"/>
</g>
<!-- Node4&#45;&gt;Node9 -->
<g id="edge9" class="edge">
<title>Node4&#45;&gt;Node9</title>
<path fill="none" stroke="#191970" d="M420.954,-53.7199C458.6487,-43.4228 511.7041,-28.9296 546.2191,-19.5011"/>
<polygon fill="#191970" stroke="#191970" points="419.965,-50.3617 411.2408,-56.3733 421.8096,-57.1143 419.965,-50.3617"/>
</g>
<!-- Node4&#45;&gt;Node10 -->
<g id="edge10" class="edge">
<title>Node4&#45;&gt;Node10</title>
<path fill="none" stroke="#191970" d="M428.2754,-57.181C481.3882,-48.1446 565.9985,-33.5397 639,-20 641.9276,-19.457 644.9479,-18.8879 647.9883,-18.3083"/>
<polygon fill="#191970" stroke="#191970" points="427.6827,-53.7315 418.4102,-58.857 428.8552,-60.6326 427.6827,-53.7315"/>
</g>
</g>
</svg>
