<?xml version="1.0" encoding="UTF-8" standalone="no"?>
<!DOCTYPE svg PUBLIC "-//W3C//DTD SVG 1.1//EN"
 "http://www.w3.org/Graphics/SVG/1.1/DTD/svg11.dtd">
<!-- Generated by graphviz version 2.40.1 (20161225.0304)
 -->
<!-- Title: src/extract.c Pages: 1 -->
<svg width="948pt" height="252pt"
 viewBox="0.00 0.00 947.62 252.00" xmlns="http://www.w3.org/2000/svg" xmlns:xlink="http://www.w3.org/1999/xlink">
<g id="graph0" class="graph" transform="scale(1 1) rotate(0) translate(4 248)">
<title>src/extract.c</title>
<polygon fill="#ffffff" stroke="transparent" points="-4,4 -4,-248 943.6208,-248 943.6208,4 -4,4"/>
<!-- Node0 -->
<g id="node1" class="node">
<title>Node0</title>
<polygon fill="#bfbfbf" stroke="#000000" points="461.8452,-224.5 461.8452,-243.5 532.8452,-243.5 532.8452,-224.5 461.8452,-224.5"/>
<text text-anchor="middle" x="497.3452" y="-231.5" font-family="Helvetica,sans-Serif" font-size="10.00" fill="#000000">src/extract.c</text>
</g>
<!-- Node1 -->
<g id="node2" class="node">
<title>Node1</title>
<polygon fill="#ffffff" stroke="#bfbfbf" points="188.3452,-.5 188.3452,-19.5 234.3452,-19.5 234.3452,-.5 188.3452,-.5"/>
<text text-anchor="middle" x="211.3452" y="-7.5" font-family="Helvetica,sans-Serif" font-size="10.00" fill="#000000">stdio.h</text>
</g>
<!-- Node0&#45;&gt;Node1 -->
<g id="edge1" class="edge">
<title>Node0&#45;&gt;Node1</title>
<path fill="none" stroke="#191970" d="M461.7822,-233.0715C359.8576,-230.0468 72.2024,-218.8293 44.3452,-188 20.5062,-161.6177 -49.6815,-184.667 61.3452,-56 76.6187,-38.2998 138.8541,-23.6541 178.2035,-15.9251"/>
<polygon fill="#191970" stroke="#191970" points="178.9901,-19.3382 188.1544,-14.0215 177.6748,-12.4629 178.9901,-19.3382"/>
</g>
<!-- Node2 -->
<g id="node3" class="node">
<title>Node2</title>
<polygon fill="#ffffff" stroke="#bfbfbf" points="583.3452,-168.5 583.3452,-187.5 631.3452,-187.5 631.3452,-168.5 583.3452,-168.5"/>
<text text-anchor="middle" x="607.3452" y="-175.5" font-family="Helvetica,sans-Serif" font-size="10.00" fill="#000000">stdlib.h</text>
</g>
<!-- Node0&#45;&gt;Node2 -->
<g id="edge2" class="edge">
<title>Node0&#45;&gt;Node2</title>
<path fill="none" stroke="#191970" d="M516.5057,-224.2455C533.8563,-215.4125 559.6353,-202.2887 579.3035,-192.2758"/>
<polygon fill="#191970" stroke="#191970" points="581.0805,-195.2986 588.4042,-187.6427 577.9047,-189.0605 581.0805,-195.2986"/>
</g>
<!-- Node3 -->
<g id="node4" class="node">
<title>Node3</title>
<polygon fill="#ffffff" stroke="#bfbfbf" points="649.3452,-168.5 649.3452,-187.5 701.3452,-187.5 701.3452,-168.5 649.3452,-168.5"/>
<text text-anchor="middle" x="675.3452" y="-175.5" font-family="Helvetica,sans-Serif" font-size="10.00" fill="#000000">assert.h</text>
</g>
<!-- Node0&#45;&gt;Node3 -->
<g id="edge3" class="edge">
<title>Node0&#45;&gt;Node3</title>
<path fill="none" stroke="#191970" d="M527.9445,-224.3733C558.9325,-214.6242 606.8319,-199.5547 639.5599,-189.2583"/>
<polygon fill="#191970" stroke="#191970" points="640.7056,-192.5671 649.1942,-186.2273 638.6048,-185.8897 640.7056,-192.5671"/>
</g>
<!-- Node4 -->
<g id="node5" class="node">
<title>Node4</title>
<polygon fill="#ffffff" stroke="#bfbfbf" points="719.8452,-168.5 719.8452,-187.5 768.8452,-187.5 768.8452,-168.5 719.8452,-168.5"/>
<text text-anchor="middle" x="744.3452" y="-175.5" font-family="Helvetica,sans-Serif" font-size="10.00" fill="#000000">string.h</text>
</g>
<!-- Node0&#45;&gt;Node4 -->
<g id="edge4" class="edge">
<title>Node0&#45;&gt;Node4</title>
<path fill="none" stroke="#191970" d="M532.9581,-227.14C573.4167,-219.1642 641.6125,-205.1701 709.5088,-188.0742"/>
<polygon fill="#191970" stroke="#191970" points="710.691,-191.3851 719.5208,-185.5297 708.9668,-184.6008 710.691,-191.3851"/>
</g>
<!-- Node5 -->
<g id="node6" class="node">
<title>Node5</title>
<polygon fill="#ffffff" stroke="#bfbfbf" points="787.3452,-168.5 787.3452,-187.5 831.3452,-187.5 831.3452,-168.5 787.3452,-168.5"/>
<text text-anchor="middle" x="809.3452" y="-175.5" font-family="Helvetica,sans-Serif" font-size="10.00" fill="#000000">time.h</text>
</g>
<!-- Node0&#45;&gt;Node5 -->
<g id="edge5" class="edge">
<title>Node0&#45;&gt;Node5</title>
<path fill="none" stroke="#191970" d="M533.1742,-229.8815C585.0786,-223.5366 684.2924,-209.9889 777.2632,-187.982"/>
<polygon fill="#191970" stroke="#191970" points="778.2039,-191.3556 787.1079,-185.6137 776.5666,-184.5498 778.2039,-191.3556"/>
</g>
<!-- Node6 -->
<g id="node7" class="node">
<title>Node6</title>
<g id="a_node7"><a xlink:href="a00047.xhtml" target="_top" xlink:title="Définitions communes à la partie privée de la bibliothèque. ">
<polygon fill="#ffffff" stroke="#000000" points="408.3452,-112.5 408.3452,-131.5 470.3452,-131.5 470.3452,-112.5 408.3452,-112.5"/>
<text text-anchor="middle" x="439.3452" y="-119.5" font-family="Helvetica,sans-Serif" font-size="10.00" fill="#000000">common.h</text>
</a>
</g>
</g>
<!-- Node0&#45;&gt;Node6 -->
<g id="edge6" class="edge">
<title>Node0&#45;&gt;Node6</title>
<path fill="none" stroke="#191970" d="M487.3113,-224.2627C478.7888,-215.4903 466.7878,-201.8751 459.3452,-188 451.5634,-173.4926 446.3713,-155.5292 443.2318,-142.0075"/>
<polygon fill="#191970" stroke="#191970" points="446.5776,-140.9155 441.0657,-131.8673 439.7321,-142.3779 446.5776,-140.9155"/>
</g>
<!-- Node8 -->
<g id="node9" class="node">
<title>Node8</title>
<g id="a_node9"><a xlink:href="a00008.xhtml" target="_top" xlink:title="Définitions communes à la partie privée et public de la bibliothèque. ">
<polygon fill="#ffffff" stroke="#000000" points="834.3452,-56.5 834.3452,-75.5 926.3452,-75.5 926.3452,-56.5 834.3452,-56.5"/>
<text text-anchor="middle" x="880.3452" y="-63.5" font-family="Helvetica,sans-Serif" font-size="10.00" fill="#000000">stegx_common.h</text>
</a>
</g>
</g>
<!-- Node0&#45;&gt;Node8 -->
<g id="edge33" class="edge">
<title>Node0&#45;&gt;Node8</title>
<path fill="none" stroke="#191970" d="M506.383,-224.1317C519.9028,-209.9006 546.7667,-183.6147 574.3452,-168 655.6392,-121.9721 760.9275,-92.6179 824.4153,-77.7524"/>
<polygon fill="#191970" stroke="#191970" points="825.2764,-81.1458 834.2358,-75.4907 823.7053,-74.3244 825.2764,-81.1458"/>
</g>
<!-- Node15 -->
<g id="node16" class="node">
<title>Node15</title>
<g id="a_node16"><a xlink:href="a00011.xhtml" target="_top" xlink:title="Module de gestion des erreurs. ">
<polygon fill="#ffffff" stroke="#000000" points="849.8452,-168.5 849.8452,-187.5 928.8452,-187.5 928.8452,-168.5 849.8452,-168.5"/>
<text text-anchor="middle" x="889.3452" y="-175.5" font-family="Helvetica,sans-Serif" font-size="10.00" fill="#000000">stegx_errors.h</text>
</a>
</g>
</g>
<!-- Node0&#45;&gt;Node15 -->
<g id="edge34" class="edge">
<title>Node0&#45;&gt;Node15</title>
<path fill="none" stroke="#191970" d="M533.0176,-230.0261C593.7798,-223.0817 721.442,-207.7307 839.8458,-187.9847"/>
<polygon fill="#191970" stroke="#191970" points="840.5271,-191.4194 849.808,-186.3091 839.366,-184.5164 840.5271,-191.4194"/>
</g>
<!-- Node16 -->
<g id="node17" class="node">
<title>Node16</title>
<g id="a_node17"><a xlink:href="a00035.xhtml" target="_top" xlink:title="Algorithme LSB. ">
<polygon fill="#ffffff" stroke="#000000" points="467.8452,-168.5 467.8452,-187.5 526.8452,-187.5 526.8452,-168.5 467.8452,-168.5"/>
<text text-anchor="middle" x="497.3452" y="-175.5" font-family="Helvetica,sans-Serif" font-size="10.00" fill="#000000">algo/lsb.h</text>
</a>
</g>
</g>
<!-- Node0&#45;&gt;Node16 -->
<g id="edge35" class="edge">
<title>Node0&#45;&gt;Node16</title>
<path fill="none" stroke="#191970" d="M497.3452,-224.2455C497.3452,-216.9382 497.3452,-206.6944 497.3452,-197.7046"/>
<polygon fill="#191970" stroke="#191970" points="500.8453,-197.6426 497.3452,-187.6427 493.8453,-197.6427 500.8453,-197.6426"/>
</g>
<!-- Node17 -->
<g id="node18" class="node">
<title>Node17</title>
<g id="a_node18"><a xlink:href="a00023.xhtml" target="_top" xlink:title="Algorithme EOF. ">
<polygon fill="#ffffff" stroke="#000000" points="53.8452,-168.5 53.8452,-187.5 112.8452,-187.5 112.8452,-168.5 53.8452,-168.5"/>
<text text-anchor="middle" x="83.3452" y="-175.5" font-family="Helvetica,sans-Serif" font-size="10.00" fill="#000000">algo/eof.h</text>
</a>
</g>
</g>
<!-- Node0&#45;&gt;Node17 -->
<g id="edge38" class="edge">
<title>Node0&#45;&gt;Node17</title>
<path fill="none" stroke="#191970" d="M461.6937,-231.1695C396.47,-225.6591 253.4416,-212.0397 123.2173,-187.9463"/>
<polygon fill="#191970" stroke="#191970" points="123.5411,-184.446 113.0672,-186.0419 122.2502,-191.326 123.5411,-184.446"/>
</g>
<!-- Node18 -->
<g id="node19" class="node">
<title>Node18</title>
<g id="a_node19"><a xlink:href="a00041.xhtml" target="_top" xlink:title="Algorithme METADATA. ">
<polygon fill="#ffffff" stroke="#000000" points="131.3452,-168.5 131.3452,-187.5 217.3452,-187.5 217.3452,-168.5 131.3452,-168.5"/>
<text text-anchor="middle" x="174.3452" y="-175.5" font-family="Helvetica,sans-Serif" font-size="10.00" fill="#000000">algo/metadata.h</text>
</a>
</g>
</g>
<!-- Node0&#45;&gt;Node18 -->
<g id="edge41" class="edge">
<title>Node0&#45;&gt;Node18</title>
<path fill="none" stroke="#191970" d="M461.7899,-228.2191C411.7792,-220.0322 317.5606,-204.4055 227.3093,-188.1463"/>
<polygon fill="#191970" stroke="#191970" points="227.9249,-184.701 217.4619,-186.3668 226.6801,-191.5894 227.9249,-184.701"/>
</g>
<!-- Node19 -->
<g id="node20" class="node">
<title>Node19</title>
<g id="a_node20"><a xlink:href="a00017.xhtml" target="_top" xlink:title="Algorithme End Of Chunk (EOC). ">
<polygon fill="#ffffff" stroke="#000000" points="235.3452,-168.5 235.3452,-187.5 297.3452,-187.5 297.3452,-168.5 235.3452,-168.5"/>
<text text-anchor="middle" x="266.3452" y="-175.5" font-family="Helvetica,sans-Serif" font-size="10.00" fill="#000000">algo/eoc.h</text>
</a>
</g>
</g>
<!-- Node0&#45;&gt;Node19 -->
<g id="edge44" class="edge">
<title>Node0&#45;&gt;Node19</title>
<path fill="none" stroke="#191970" d="M461.6221,-225.3704C425.4446,-216.6267 367.6081,-202.6369 307.7036,-188.0841"/>
<polygon fill="#191970" stroke="#191970" points="308.2268,-184.6094 297.6831,-185.6492 306.5739,-191.4115 308.2268,-184.6094"/>
</g>
<!-- Node20 -->
<g id="node21" class="node">
<title>Node20</title>
<g id="a_node21"><a xlink:href="a00029.xhtml" target="_top" xlink:title="Algorithme JUNK CHUNK. ">
<polygon fill="#ffffff" stroke="#000000" points="315.8452,-168.5 315.8452,-187.5 410.8452,-187.5 410.8452,-168.5 315.8452,-168.5"/>
<text text-anchor="middle" x="363.3452" y="-175.5" font-family="Helvetica,sans-Serif" font-size="10.00" fill="#000000">algo/junk_chunk.h</text>
</a>
</g>
</g>
<!-- Node0&#45;&gt;Node20 -->
<g id="edge47" class="edge">
<title>Node0&#45;&gt;Node20</title>
<path fill="none" stroke="#191970" d="M474.3098,-224.3733C452.6064,-215.3032 419.8834,-201.6279 395.5902,-191.4755"/>
<polygon fill="#191970" stroke="#191970" points="396.6563,-188.1278 386.08,-187.5011 393.9571,-194.5865 396.6563,-188.1278"/>
</g>
<!-- Node6&#45;&gt;Node1 -->
<g id="edge7" class="edge">
<title>Node6&#45;&gt;Node1</title>
<path fill="none" stroke="#191970" d="M408.1652,-120.8561C348.7652,-117.9518 222.9156,-108.0721 196.3452,-76 185.3816,-62.7663 191.8404,-43.1127 199.3933,-28.6934"/>
<polygon fill="#191970" stroke="#191970" points="202.6229,-30.0998 204.5963,-19.6904 196.5622,-26.5972 202.6229,-30.0998"/>
</g>
<!-- Node7 -->
<g id="node8" class="node">
<title>Node7</title>
<polygon fill="#ffffff" stroke="#bfbfbf" points="611.8452,-.5 611.8452,-19.5 660.8452,-19.5 660.8452,-.5 611.8452,-.5"/>
<text text-anchor="middle" x="636.3452" y="-7.5" font-family="Helvetica,sans-Serif" font-size="10.00" fill="#000000">stdint.h</text>
</g>
<!-- Node6&#45;&gt;Node7 -->
<g id="edge8" class="edge">
<title>Node6&#45;&gt;Node7</title>
<path fill="none" stroke="#191970" d="M470.3589,-119.0116C553.6942,-110.8355 776.901,-87.9156 787.3452,-76 822.601,-35.7773 725.8345,-19.1039 671.0696,-13.0358"/>
<polygon fill="#191970" stroke="#191970" points="671.36,-9.5471 661.0509,-11.9912 670.634,-16.5094 671.36,-9.5471"/>
</g>
<!-- Node6&#45;&gt;Node8 -->
<g id="edge9" class="edge">
<title>Node6&#45;&gt;Node8</title>
<path fill="none" stroke="#191970" d="M470.5213,-118.7167C535.6297,-111.7541 690.7545,-94.6127 820.3452,-76 821.6094,-75.8184 822.888,-75.6317 824.1769,-75.4407"/>
<polygon fill="#191970" stroke="#191970" points="824.8349,-78.8808 834.1899,-73.9076 823.7754,-71.9615 824.8349,-78.8808"/>
</g>
<!-- Node9 -->
<g id="node10" class="node">
<title>Node9</title>
<g id="a_node10"><a xlink:href="a00077.xhtml" target="_top" xlink:title="Fichier BMP. ">
<polygon fill="#ffffff" stroke="#000000" points="494.8452,-56.5 494.8452,-75.5 577.8452,-75.5 577.8452,-56.5 494.8452,-56.5"/>
<text text-anchor="middle" x="536.3452" y="-63.5" font-family="Helvetica,sans-Serif" font-size="10.00" fill="#000000">file_type/bmp.h</text>
</a>
</g>
</g>
<!-- Node6&#45;&gt;Node9 -->
<g id="edge10" class="edge">
<title>Node6&#45;&gt;Node9</title>
<path fill="none" stroke="#191970" d="M450.9745,-112.2455C464.5071,-103.4527 486.8624,-90.4079 505.3935,-80.4125"/>
<polygon fill="#191970" stroke="#191970" points="507.1993,-83.4167 514.3976,-75.6427 503.9225,-77.2311 507.1993,-83.4167"/>
</g>
<!-- Node10 -->
<g id="node11" class="node">
<title>Node10</title>
<g id="a_node11"><a xlink:href="a00095.xhtml" target="_top" xlink:title="Fichier PNG. ">
<polygon fill="#ffffff" stroke="#000000" points="596.3452,-56.5 596.3452,-75.5 676.3452,-75.5 676.3452,-56.5 596.3452,-56.5"/>
<text text-anchor="middle" x="636.3452" y="-63.5" font-family="Helvetica,sans-Serif" font-size="10.00" fill="#000000">file_type/png.h</text>
</a>
</g>
</g>
<!-- Node6&#45;&gt;Node10 -->
<g id="edge14" class="edge">
<title>Node6&#45;&gt;Node10</title>
<path fill="none" stroke="#191970" d="M467.9687,-112.3733C499.4408,-102.9001 550.2936,-88.4032 587.9489,-78.1435"/>
<polygon fill="#191970" stroke="#191970" points="588.9672,-81.4939 597.7043,-75.5011 587.137,-74.7373 588.9672,-81.4939"/>
</g>
<!-- Node11 -->
<g id="node12" class="node">
<title>Node11</title>
<g id="a_node12"><a xlink:href="a00104.xhtml" target="_top" xlink:title="Fichier WAVE. ">
<polygon fill="#ffffff" stroke="#000000" points="694.8452,-56.5 694.8452,-75.5 777.8452,-75.5 777.8452,-56.5 694.8452,-56.5"/>
<text text-anchor="middle" x="736.3452" y="-63.5" font-family="Helvetica,sans-Serif" font-size="10.00" fill="#000000">file_type/wav.h</text>
</a>
</g>
</g>
<!-- Node6&#45;&gt;Node11 -->
<g id="edge18" class="edge">
<title>Node6&#45;&gt;Node11</title>
<path fill="none" stroke="#191970" d="M470.651,-115.0882C516.1315,-106.176 602.521,-90.1396 676.3452,-76 678.9954,-75.4924 681.7224,-74.9669 684.4865,-74.4347"/>
<polygon fill="#191970" stroke="#191970" points="685.4245,-77.8186 694.5862,-72.4975 684.1059,-70.944 685.4245,-77.8186"/>
</g>
<!-- Node12 -->
<g id="node13" class="node">
<title>Node12</title>
<g id="a_node13"><a xlink:href="a00089.xhtml" target="_top" xlink:title="Fichier MP3. ">
<polygon fill="#ffffff" stroke="#000000" points="300.8452,-56.5 300.8452,-75.5 383.8452,-75.5 383.8452,-56.5 300.8452,-56.5"/>
<text text-anchor="middle" x="342.3452" y="-63.5" font-family="Helvetica,sans-Serif" font-size="10.00" fill="#000000">file_type/mp3.h</text>
</a>
</g>
</g>
<!-- Node6&#45;&gt;Node12 -->
<g id="edge22" class="edge">
<title>Node6&#45;&gt;Node12</title>
<path fill="none" stroke="#191970" d="M417.1822,-112.2455C400.6403,-103.6534 378.458,-91.0014 362.4354,-81.1018"/>
<polygon fill="#191970" stroke="#191970" points="364.1251,-78.0292 353.8025,-75.6427 360.3838,-83.9456 364.1251,-78.0292"/>
</g>
<!-- Node13 -->
<g id="node14" class="node">
<title>Node13</title>
<g id="a_node14"><a xlink:href="a00071.xhtml" target="_top" xlink:title="Fichier AVI. ">
<polygon fill="#ffffff" stroke="#000000" points="205.8452,-56.5 205.8452,-75.5 282.8452,-75.5 282.8452,-56.5 205.8452,-56.5"/>
<text text-anchor="middle" x="244.3452" y="-63.5" font-family="Helvetica,sans-Serif" font-size="10.00" fill="#000000">file_type/avi.h</text>
</a>
</g>
</g>
<!-- Node6&#45;&gt;Node13 -->
<g id="edge26" class="edge">
<title>Node6&#45;&gt;Node13</title>
<path fill="none" stroke="#191970" d="M408.2581,-114.4476C373.9887,-105.2512 319.1166,-89.5841 282.3452,-78.5611"/>
<polygon fill="#191970" stroke="#191970" points="283.0708,-75.1242 272.486,-75.5845 281.0475,-81.8255 283.0708,-75.1242"/>
</g>
<!-- Node14 -->
<g id="node15" class="node">
<title>Node14</title>
<g id="a_node15"><a xlink:href="a00083.xhtml" target="_top" xlink:title="Fichier FLV. ">
<polygon fill="#ffffff" stroke="#000000" points="401.8452,-56.5 401.8452,-75.5 476.8452,-75.5 476.8452,-56.5 401.8452,-56.5"/>
<text text-anchor="middle" x="439.3452" y="-63.5" font-family="Helvetica,sans-Serif" font-size="10.00" fill="#000000">file_type/flv.h</text>
</a>
</g>
</g>
<!-- Node6&#45;&gt;Node14 -->
<g id="edge29" class="edge">
<title>Node6&#45;&gt;Node14</title>
<path fill="none" stroke="#191970" d="M434.0784,-112.2455C432.6673,-104.9382 432.2631,-94.6944 432.8657,-85.7046"/>
<polygon fill="#191970" stroke="#191970" points="436.3563,-85.9945 434.1001,-75.6427 429.4084,-85.1421 436.3563,-85.9945"/>
</g>
<!-- Node9&#45;&gt;Node1 -->
<g id="edge11" class="edge">
<title>Node9&#45;&gt;Node1</title>
<path fill="none" stroke="#191970" d="M494.6223,-57.5528C491.823,-57.0177 489.0444,-56.4955 486.3452,-56 399.2656,-40.0132 296.2432,-23.3897 244.5076,-15.1996"/>
<polygon fill="#191970" stroke="#191970" points="244.9906,-11.7326 234.5671,-13.6299 243.8988,-18.6469 244.9906,-11.7326"/>
</g>
<!-- Node9&#45;&gt;Node6 -->
<g id="edge13" class="edge">
<title>Node9&#45;&gt;Node6</title>
<path fill="none" stroke="#191970" d="M524.8878,-75.6427C511.4304,-84.3993 489.0966,-97.4388 470.5331,-107.46"/>
<polygon fill="#191970" stroke="#191970" points="468.7033,-104.4686 461.5082,-112.2455 471.9826,-110.653 468.7033,-104.4686"/>
</g>
<!-- Node9&#45;&gt;Node7 -->
<g id="edge12" class="edge">
<title>Node9&#45;&gt;Node7</title>
<path fill="none" stroke="#191970" d="M553.7639,-56.2455C569.3937,-47.4928 592.5471,-34.527 610.3637,-24.5496"/>
<polygon fill="#191970" stroke="#191970" points="612.1112,-27.5825 619.1261,-19.6427 608.6909,-21.475 612.1112,-27.5825"/>
</g>
<!-- Node10&#45;&gt;Node1 -->
<g id="edge15" class="edge">
<title>Node10&#45;&gt;Node1</title>
<path fill="none" stroke="#191970" d="M596.2817,-57.5534C593.2627,-56.9998 590.2588,-56.4748 587.3452,-56 461.6073,-35.5115 310.8647,-19.6909 244.957,-13.2054"/>
<polygon fill="#191970" stroke="#191970" points="245.0501,-9.698 234.7574,-12.2099 244.3701,-16.6648 245.0501,-9.698"/>
</g>
<!-- Node10&#45;&gt;Node6 -->
<g id="edge17" class="edge">
<title>Node10&#45;&gt;Node6</title>
<path fill="none" stroke="#191970" d="M607.8621,-75.5845C574.3348,-85.6789 518.6768,-101.5111 480.4919,-111.8233"/>
<polygon fill="#191970" stroke="#191970" points="479.4548,-108.4777 470.702,-114.4476 481.2673,-115.239 479.4548,-108.4777"/>
</g>
<!-- Node10&#45;&gt;Node7 -->
<g id="edge16" class="edge">
<title>Node10&#45;&gt;Node7</title>
<path fill="none" stroke="#191970" d="M636.3452,-56.2455C636.3452,-48.9382 636.3452,-38.6944 636.3452,-29.7046"/>
<polygon fill="#191970" stroke="#191970" points="639.8453,-29.6426 636.3452,-19.6427 632.8453,-29.6427 639.8453,-29.6426"/>
</g>
<!-- Node11&#45;&gt;Node1 -->
<g id="edge19" class="edge">
<title>Node11&#45;&gt;Node1</title>
<path fill="none" stroke="#191970" d="M694.6532,-57.4836C691.5094,-56.9461 688.3807,-56.4438 685.3452,-56 520.8743,-31.9525 322.3958,-17.3053 244.7598,-12.1248"/>
<polygon fill="#191970" stroke="#191970" points="244.8317,-8.6221 234.6231,-11.4567 244.3712,-15.6069 244.8317,-8.6221"/>
</g>
<!-- Node11&#45;&gt;Node6 -->
<g id="edge21" class="edge">
<title>Node11&#45;&gt;Node6</title>
<path fill="none" stroke="#191970" d="M696.7569,-75.5372C695.9473,-75.6929 695.1428,-75.8472 694.3452,-76 619.2909,-90.3753 531.2489,-106.7109 480.5743,-115.5277"/>
<polygon fill="#191970" stroke="#191970" points="479.9088,-112.0908 470.6494,-117.2399 481.0989,-118.9889 479.9088,-112.0908"/>
</g>
<!-- Node11&#45;&gt;Node7 -->
<g id="edge20" class="edge">
<title>Node11&#45;&gt;Node7</title>
<path fill="none" stroke="#191970" d="M718.9265,-56.2455C703.2967,-47.4928 680.1433,-34.527 662.3267,-24.5496"/>
<polygon fill="#191970" stroke="#191970" points="663.9995,-21.475 653.5643,-19.6427 660.5792,-27.5825 663.9995,-21.475"/>
</g>
<!-- Node12&#45;&gt;Node1 -->
<g id="edge23" class="edge">
<title>Node12&#45;&gt;Node1</title>
<path fill="none" stroke="#191970" d="M319.8255,-56.3733C298.608,-47.3032 266.6176,-33.6279 242.8683,-23.4755"/>
<polygon fill="#191970" stroke="#191970" points="244.1419,-20.2136 233.571,-19.5011 241.3904,-26.6502 244.1419,-20.2136"/>
</g>
<!-- Node12&#45;&gt;Node6 -->
<g id="edge25" class="edge">
<title>Node12&#45;&gt;Node6</title>
<path fill="none" stroke="#191970" d="M364.2928,-75.6427C380.7855,-84.1994 402.9699,-96.8456 419.0458,-106.769"/>
<polygon fill="#191970" stroke="#191970" points="417.3922,-109.8642 427.7159,-112.2455 421.1305,-103.946 417.3922,-109.8642"/>
</g>
<!-- Node12&#45;&gt;Node7 -->
<g id="edge24" class="edge">
<title>Node12&#45;&gt;Node7</title>
<path fill="none" stroke="#191970" d="M384.0894,-57.7918C387.2211,-57.1831 390.3329,-56.5804 393.3452,-56 467.427,-41.7254 554.2921,-25.3753 601.4921,-16.5237"/>
<polygon fill="#191970" stroke="#191970" points="602.314,-19.9306 611.498,-14.6481 601.0243,-13.0505 602.314,-19.9306"/>
</g>
<!-- Node13&#45;&gt;Node1 -->
<g id="edge27" class="edge">
<title>Node13&#45;&gt;Node1</title>
<path fill="none" stroke="#191970" d="M238.597,-56.2455C234.1017,-48.617 227.7203,-37.7881 222.2627,-28.5267"/>
<polygon fill="#191970" stroke="#191970" points="225.1198,-26.4811 217.0275,-19.6427 219.0891,-30.035 225.1198,-26.4811"/>
</g>
<!-- Node13&#45;&gt;Node6 -->
<g id="edge28" class="edge">
<title>Node13&#45;&gt;Node6</title>
<path fill="none" stroke="#191970" d="M282.6468,-75.5011C317.0512,-84.8494 367.1135,-99.1765 401.4026,-109.4561"/>
<polygon fill="#191970" stroke="#191970" points="400.4807,-112.8337 411.0655,-112.3733 402.5038,-106.1324 400.4807,-112.8337"/>
</g>
<!-- Node14&#45;&gt;Node1 -->
<g id="edge30" class="edge">
<title>Node14&#45;&gt;Node1</title>
<path fill="none" stroke="#191970" d="M401.6956,-56.7527C357.8541,-45.9846 286.1305,-28.3683 244.3713,-18.1117"/>
<polygon fill="#191970" stroke="#191970" points="244.9816,-14.6576 234.4353,-15.6713 243.3118,-21.4556 244.9816,-14.6576"/>
</g>
<!-- Node14&#45;&gt;Node6 -->
<g id="edge32" class="edge">
<title>Node14&#45;&gt;Node6</title>
<path fill="none" stroke="#191970" d="M444.5903,-75.6427C446.0117,-82.9199 446.4262,-93.155 445.8339,-102.1575"/>
<polygon fill="#191970" stroke="#191970" points="442.3399,-101.8972 444.612,-112.2455 449.2891,-102.739 442.3399,-101.8972"/>
</g>
<!-- Node14&#45;&gt;Node7 -->
<g id="edge31" class="edge">
<title>Node14&#45;&gt;Node7</title>
<path fill="none" stroke="#191970" d="M473.2107,-56.3733C509.2098,-46.14 565.831,-30.0446 602.0087,-19.7606"/>
<polygon fill="#191970" stroke="#191970" points="602.9746,-23.1248 611.6365,-17.0238 601.0605,-16.3916 602.9746,-23.1248"/>
</g>
<!-- Node16&#45;&gt;Node6 -->
<g id="edge37" class="edge">
<title>Node16&#45;&gt;Node6</title>
<path fill="none" stroke="#191970" d="M487.2424,-168.2455C478.8424,-160.1352 466.6958,-148.4075 456.7368,-138.7919"/>
<polygon fill="#191970" stroke="#191970" points="458.9574,-136.0707 449.3323,-131.6427 454.0952,-141.1066 458.9574,-136.0707"/>
</g>
<!-- Node16&#45;&gt;Node7 -->
<g id="edge36" class="edge">
<title>Node16&#45;&gt;Node7</title>
<path fill="none" stroke="#191970" d="M527.0781,-173.2524C621.4265,-157.8962 909.4037,-108.6768 935.3452,-76 940.872,-69.0382 941.133,-62.7464 935.3452,-56 918.3145,-36.1488 746.7445,-19.3386 671.4528,-12.8567"/>
<polygon fill="#191970" stroke="#191970" points="671.3327,-9.334 661.0726,-11.9761 670.741,-16.3089 671.3327,-9.334"/>
</g>
<!-- Node17&#45;&gt;Node1 -->
<g id="edge39" class="edge">
<title>Node17&#45;&gt;Node1</title>
<path fill="none" stroke="#191970" d="M78.7002,-168.3244C68.7779,-146.0992 48.3689,-90.6528 73.3452,-56 85.7966,-38.7246 141.7314,-24.2473 178.455,-16.3786"/>
<polygon fill="#191970" stroke="#191970" points="179.1755,-19.8037 188.2515,-14.3376 177.7478,-12.9509 179.1755,-19.8037"/>
</g>
<!-- Node17&#45;&gt;Node6 -->
<g id="edge40" class="edge">
<title>Node17&#45;&gt;Node6</title>
<path fill="none" stroke="#191970" d="M113.0805,-170.0266C116.1983,-169.2952 119.3295,-168.6036 122.3452,-168 220.543,-148.3443 337.4501,-133.5796 398.1527,-126.5511"/>
<polygon fill="#191970" stroke="#191970" points="398.5729,-130.026 408.1091,-125.4095 397.7755,-123.0715 398.5729,-130.026"/>
</g>
<!-- Node18&#45;&gt;Node1 -->
<g id="edge42" class="edge">
<title>Node18&#45;&gt;Node1</title>
<path fill="none" stroke="#191970" d="M137.5268,-168.3966C119.0314,-161.5069 98.2779,-150.1473 87.3452,-132 69.9148,-103.067 68.0564,-83.7287 87.3452,-56 98.0397,-40.626 145.4531,-26.1673 178.4479,-17.6998"/>
<polygon fill="#191970" stroke="#191970" points="179.3155,-21.0907 188.1682,-15.27 177.6179,-14.2997 179.3155,-21.0907"/>
</g>
<!-- Node18&#45;&gt;Node6 -->
<g id="edge43" class="edge">
<title>Node18&#45;&gt;Node6</title>
<path fill="none" stroke="#191970" d="M217.5118,-168.878C267.4886,-158.3169 349.2039,-141.0487 398.273,-130.6794"/>
<polygon fill="#191970" stroke="#191970" points="399.1649,-134.0683 408.2252,-128.5763 397.7176,-127.2196 399.1649,-134.0683"/>
</g>
<!-- Node19&#45;&gt;Node1 -->
<g id="edge45" class="edge">
<title>Node19&#45;&gt;Node1</title>
<path fill="none" stroke="#191970" d="M235.2552,-169.9275C195.7844,-159.3694 131.9801,-141.1437 125.3452,-132 105.5074,-104.6613 107.9841,-84.9747 125.3452,-56 136.8322,-36.8288 159.336,-25.1982 178.4425,-18.4288"/>
<polygon fill="#191970" stroke="#191970" points="179.6129,-21.7288 188.0479,-15.3178 177.456,-15.0694 179.6129,-21.7288"/>
</g>
<!-- Node19&#45;&gt;Node6 -->
<g id="edge46" class="edge">
<title>Node19&#45;&gt;Node6</title>
<path fill="none" stroke="#191970" d="M296.085,-168.3733C324.8522,-159.0613 368.6152,-144.8953 400.2008,-134.671"/>
<polygon fill="#191970" stroke="#191970" points="401.5574,-137.9107 409.9935,-131.5011 399.4016,-131.251 401.5574,-137.9107"/>
</g>
<!-- Node20&#45;&gt;Node1 -->
<g id="edge48" class="edge">
<title>Node20&#45;&gt;Node1</title>
<path fill="none" stroke="#191970" d="M326.1302,-168.4677C283.9045,-155.4354 217.0566,-127.5596 187.3452,-76 178.5564,-60.7483 187.3141,-41.7077 196.6224,-28.0028"/>
<polygon fill="#191970" stroke="#191970" points="199.5111,-29.9829 202.6399,-19.8606 193.8816,-25.8224 199.5111,-29.9829"/>
</g>
<!-- Node20&#45;&gt;Node6 -->
<g id="edge49" class="edge">
<title>Node20&#45;&gt;Node6</title>
<path fill="none" stroke="#191970" d="M376.5834,-168.2455C388.0262,-159.814 404.7748,-147.4729 418.0927,-137.6598"/>
<polygon fill="#191970" stroke="#191970" points="420.2843,-140.3924 426.2587,-131.6427 416.1319,-134.757 420.2843,-140.3924"/>
</g>
</g>
</svg>
