<?xml version="1.0" encoding="UTF-8" standalone="no"?>
<!DOCTYPE svg PUBLIC "-//W3C//DTD SVG 1.1//EN"
 "http://www.w3.org/Graphics/SVG/1.1/DTD/svg11.dtd">
<!-- Generated by graphviz version 2.40.1 (20161225.0304)
 -->
<!-- Title: mp3_mpeg_hdr_test Pages: 1 -->
<svg width="1025pt" height="399pt"
 viewBox="0.00 0.00 1025.00 399.03" xmlns="http://www.w3.org/2000/svg" xmlns:xlink="http://www.w3.org/1999/xlink">
<g id="graph0" class="graph" transform="scale(1 1) rotate(0) translate(4 395.0295)">
<title>mp3_mpeg_hdr_test</title>
<polygon fill="#ffffff" stroke="transparent" points="-4,4 -4,-395.0295 1021,-395.0295 1021,4 -4,4"/>
<!-- Node146 -->
<g id="node1" class="node">
<title>Node146</title>
<polygon fill="#bfbfbf" stroke="#000000" points="0,-190.5 0,-209.5 105,-209.5 105,-190.5 0,-190.5"/>
<text text-anchor="middle" x="52.5" y="-197.5" font-family="Helvetica,sans-Serif" font-size="10.00" fill="#000000">mp3_mpeg_hdr_test</text>
</g>
<!-- Node147 -->
<g id="node2" class="node">
<title>Node147</title>
<g id="a_node2"><a xlink:href="a00035.xhtml#a14e9d876697b0225ded31095c1076b64" target="_top" xlink:title="Va inserer les donnees cachees en utilisant l&#39;algorithme LSB. ">
<polygon fill="#ffffff" stroke="#000000" points="812,-361.5 812,-380.5 871,-380.5 871,-361.5 812,-361.5"/>
<text text-anchor="middle" x="841.5" y="-368.5" font-family="Helvetica,sans-Serif" font-size="10.00" fill="#000000">insert_lsb</text>
</a>
</g>
</g>
<!-- Node146&#45;&gt;Node147 -->
<g id="edge1" class="edge">
<title>Node146&#45;&gt;Node147</title>
<path fill="none" stroke="#191970" d="M59.1086,-218.9814C70.6815,-249.2564 97.5991,-308.1024 141,-338 234.1017,-402.135 276.9459,-390 390,-390 390,-390 390,-390 566,-390 655.6543,-390 761.3318,-379.8619 811.7855,-374.3968"/>
<polygon fill="#191970" stroke="#191970" points="62.3821,-217.7422 55.6532,-209.5586 55.8101,-220.1522 62.3821,-217.7422"/>
</g>
<!-- Node149 -->
<g id="node4" class="node">
<title>Node149</title>
<g id="a_node4"><a xlink:href="a00086.xhtml#a2f08a046bc257029ca74b86b48204380" target="_top" xlink:title="Obtient la version de la norme MPEG du header d&#39;une frame MP3. ">
<polygon fill="#ffffff" stroke="#000000" points="141,-228.5 141,-247.5 280,-247.5 280,-228.5 141,-228.5"/>
<text text-anchor="middle" x="210.5" y="-235.5" font-family="Helvetica,sans-Serif" font-size="10.00" fill="#000000">mp3_mpeg_hdr_get_version</text>
</a>
</g>
</g>
<!-- Node146&#45;&gt;Node149 -->
<g id="edge3" class="edge">
<title>Node146&#45;&gt;Node149</title>
<path fill="none" stroke="#191970" d="M102.2616,-211.968C124.4029,-217.2931 150.1116,-223.4762 170.9166,-228.4799"/>
<polygon fill="#191970" stroke="#191970" points="102.9113,-208.5245 92.3701,-209.589 101.2744,-215.3304 102.9113,-208.5245"/>
</g>
<!-- Node150 -->
<g id="node5" class="node">
<title>Node150</title>
<g id="a_node5"><a xlink:href="a00086.xhtml#a85aeeafb97867c551e217ba3283e6fec" target="_top" xlink:title="Obtient la fréquence d&#39;échantillonage d&#39;une frame MP3. ">
<polygon fill="#ffffff" stroke="#000000" points="316,-257.5 316,-276.5 464,-276.5 464,-257.5 316,-257.5"/>
<text text-anchor="middle" x="390" y="-264.5" font-family="Helvetica,sans-Serif" font-size="10.00" fill="#000000">mp3_mpeg_hdr_get_samprate</text>
</a>
</g>
</g>
<!-- Node146&#45;&gt;Node150 -->
<g id="edge18" class="edge">
<title>Node146&#45;&gt;Node150</title>
<path fill="none" stroke="#191970" d="M71.1928,-216.317C88.1312,-229.9976 114.438,-248.6036 141,-257 197.7216,-274.93 265.3449,-276.4841 315.7957,-274.0811"/>
<polygon fill="#191970" stroke="#191970" points="73.1616,-213.4018 63.2374,-209.6921 68.6821,-218.7809 73.1616,-213.4018"/>
</g>
<!-- Node151 -->
<g id="node6" class="node">
<title>Node151</title>
<g id="a_node6"><a xlink:href="a00086.xhtml#a3f5f1c770ad5013ccf94bce56b7d0a04" target="_top" xlink:title="Obtient la taille d&#39;une frame MP3. ">
<polygon fill="#ffffff" stroke="#000000" points="503.5,-238.5 503.5,-257.5 628.5,-257.5 628.5,-238.5 503.5,-238.5"/>
<text text-anchor="middle" x="566" y="-245.5" font-family="Helvetica,sans-Serif" font-size="10.00" fill="#000000">mp3_mpeg_hdr_get_size</text>
</a>
</g>
</g>
<!-- Node146&#45;&gt;Node151 -->
<g id="edge20" class="edge">
<title>Node146&#45;&gt;Node151</title>
<path fill="none" stroke="#191970" d="M65.731,-217.5013C81.3358,-236.5917 109.2103,-266.1418 141,-279 274.1128,-332.8412 322.6874,-311.468 464,-286 493.9423,-280.6037 526.5661,-266.965 546.6558,-257.5857"/>
<polygon fill="#191970" stroke="#191970" points="68.4026,-215.2369 59.4547,-209.5636 62.9116,-219.5786 68.4026,-215.2369"/>
</g>
<!-- Node152 -->
<g id="node7" class="node">
<title>Node152</title>
<g id="a_node7"><a xlink:href="a00089.xhtml#aa1f3d4311fe8115981f98b79a1fea672" target="_top" xlink:title="Saute la frame MP3 actuelle. ">
<polygon fill="#ffffff" stroke="#000000" points="668,-114.5 668,-133.5 770,-133.5 770,-114.5 668,-114.5"/>
<text text-anchor="middle" x="719" y="-121.5" font-family="Helvetica,sans-Serif" font-size="10.00" fill="#000000">mp3_mpeg_fr_seek</text>
</a>
</g>
</g>
<!-- Node146&#45;&gt;Node152 -->
<g id="edge21" class="edge">
<title>Node146&#45;&gt;Node152</title>
<path fill="none" stroke="#191970" d="M71.1779,-183.6355C88.1066,-169.9241 114.4076,-151.2997 141,-143 327.652,-84.7446 564.8211,-104.128 667.6254,-116.7381"/>
<polygon fill="#191970" stroke="#191970" points="68.6582,-181.1798 63.2277,-190.2771 73.1461,-186.5519 68.6582,-181.1798"/>
</g>
<!-- Node155 -->
<g id="node10" class="node">
<title>Node155</title>
<g id="a_node10"><a xlink:href="a00131.xhtml#a5501c9c7711252fa8d85ff12cb3390dc" target="_top" xlink:title="Remplit les informations du fichier hôte. ">
<polygon fill="#ffffff" stroke="#000000" points="806,-76.5 806,-95.5 877,-95.5 877,-76.5 806,-76.5"/>
<text text-anchor="middle" x="841.5" y="-83.5" font-family="Helvetica,sans-Serif" font-size="10.00" fill="#000000">fill_host_info</text>
</a>
</g>
</g>
<!-- Node146&#45;&gt;Node155 -->
<g id="edge28" class="edge">
<title>Node146&#45;&gt;Node155</title>
<path fill="none" stroke="#191970" d="M64.1145,-181.8379C79.02,-160.2818 107.0498,-125.2208 141,-109 241.2798,-61.088 278.8622,-86 390,-86 390,-86 390,-86 566,-86 652.0938,-86 753.3212,-86 805.8371,-86"/>
<polygon fill="#191970" stroke="#191970" points="61.0286,-180.1564 58.3828,-190.4155 66.8488,-184.0455 61.0286,-180.1564"/>
</g>
<!-- Node158 -->
<g id="node13" class="node">
<title>Node158</title>
<g id="a_node13"><a xlink:href="a00089.xhtml#ab0198bd0d67c778ff7493f1bcd0a409e" target="_top" xlink:title="Écris la frame MP3 actuelle. ">
<polygon fill="#ffffff" stroke="#000000" points="668,-342.5 668,-361.5 770,-361.5 770,-342.5 668,-342.5"/>
<text text-anchor="middle" x="719" y="-349.5" font-family="Helvetica,sans-Serif" font-size="10.00" fill="#000000">mp3_mpeg_fr_write</text>
</a>
</g>
</g>
<!-- Node146&#45;&gt;Node158 -->
<g id="edge22" class="edge">
<title>Node146&#45;&gt;Node158</title>
<path fill="none" stroke="#191970" d="M61.5565,-218.8326C74.9537,-244.3366 102.6652,-288.9673 141,-309 231.8539,-356.4777 544.2234,-355.6191 667.9489,-353.2908"/>
<polygon fill="#191970" stroke="#191970" points="64.6207,-217.1361 56.9866,-209.7895 58.3731,-220.2933 64.6207,-217.1361"/>
</g>
<!-- Node159 -->
<g id="node14" class="node">
<title>Node159</title>
<g id="a_node14"><a xlink:href="a00086.xhtml#aa48df36af23103ce104d13854d4cbb87" target="_top" xlink:title="Obtient la débit binaire d&#39;une frame MP3. ">
<polygon fill="#ffffff" stroke="#000000" points="323,-219.5 323,-238.5 457,-238.5 457,-219.5 323,-219.5"/>
<text text-anchor="middle" x="390" y="-226.5" font-family="Helvetica,sans-Serif" font-size="10.00" fill="#000000">mp3_mpeg_hdr_get_bitrate</text>
</a>
</g>
</g>
<!-- Node146&#45;&gt;Node159 -->
<g id="edge19" class="edge">
<title>Node146&#45;&gt;Node159</title>
<path fill="none" stroke="#191970" d="M115.4248,-205.1305C161.1041,-208.8854 224.3875,-214.1499 280,-219 293.85,-220.2079 308.6777,-221.5337 322.8186,-222.8137"/>
<polygon fill="#191970" stroke="#191970" points="115.6265,-201.6354 105.3736,-204.3053 115.0537,-208.6119 115.6265,-201.6354"/>
</g>
<!-- Node160 -->
<g id="node15" class="node">
<title>Node160</title>
<g id="a_node15"><a xlink:href="a00086.xhtml#a407e3a1d9a7c3350620818a2ef19f142" target="_top" xlink:title="Permet de savoir si une frame MP3 contient du padding. ">
<polygon fill="#ffffff" stroke="#000000" points="143,-152.5 143,-171.5 278,-171.5 278,-152.5 143,-152.5"/>
<text text-anchor="middle" x="210.5" y="-159.5" font-family="Helvetica,sans-Serif" font-size="10.00" fill="#000000">mp3_mpeg_hdr_is_padding</text>
</a>
</g>
</g>
<!-- Node146&#45;&gt;Node160 -->
<g id="edge16" class="edge">
<title>Node146&#45;&gt;Node160</title>
<path fill="none" stroke="#191970" d="M102.2616,-188.032C124.4029,-182.7069 150.1116,-176.5238 170.9166,-171.5201"/>
<polygon fill="#191970" stroke="#191970" points="101.2744,-184.6696 92.3701,-190.411 102.9113,-191.4755 101.2744,-184.6696"/>
</g>
<!-- Node161 -->
<g id="node16" class="node">
<title>Node161</title>
<g id="a_node16"><a xlink:href="a00089.xhtml#afc3c44f7f4f0993fbc17c150c728e677" target="_top" xlink:title="Trouve la première frame MPEG 1/2 Layer III. ">
<polygon fill="#ffffff" stroke="#000000" points="506.5,-38.5 506.5,-57.5 625.5,-57.5 625.5,-38.5 506.5,-38.5"/>
<text text-anchor="middle" x="566" y="-45.5" font-family="Helvetica,sans-Serif" font-size="10.00" fill="#000000">mp3_mpeg_fr_find_first</text>
</a>
</g>
</g>
<!-- Node146&#45;&gt;Node161 -->
<g id="edge23" class="edge">
<title>Node146&#45;&gt;Node161</title>
<path fill="none" stroke="#191970" d="M59.3759,-180.8365C71.047,-151.4831 97.7681,-96.2466 141,-72 201.9117,-37.8376 404.5336,-41.0367 506.4213,-45.0512"/>
<polygon fill="#191970" stroke="#191970" points="56.032,-179.7833 55.7542,-190.3745 62.5761,-182.2682 56.032,-179.7833"/>
</g>
<!-- Node162 -->
<g id="node17" class="node">
<title>Node162</title>
<g id="a_node17"><a xlink:href="a00089.xhtml#a581193a38ac3c779c8920bd3be9883fc" target="_top" xlink:title="Test si le fichier est un fichier MP3. ">
<polygon fill="#ffffff" stroke="#000000" points="158.5,-.5 158.5,-19.5 262.5,-19.5 262.5,-.5 158.5,-.5"/>
<text text-anchor="middle" x="210.5" y="-7.5" font-family="Helvetica,sans-Serif" font-size="10.00" fill="#000000">stegx_test_file_mp3</text>
</a>
</g>
</g>
<!-- Node146&#45;&gt;Node162 -->
<g id="edge25" class="edge">
<title>Node146&#45;&gt;Node162</title>
<path fill="none" stroke="#191970" d="M57.7865,-180.3467C68.0569,-145.8326 93.9365,-74.1872 141,-34 148.3778,-27.7002 157.5004,-23.0256 166.6815,-19.5666"/>
<polygon fill="#191970" stroke="#191970" points="54.3644,-179.5847 54.9934,-190.1609 61.0971,-181.5009 54.3644,-179.5847"/>
</g>
<!-- Node148 -->
<g id="node3" class="node">
<title>Node148</title>
<g id="a_node3"><a xlink:href="a00110.xhtml#a45a1d0709604d55e9d467cb39d6a5b54" target="_top" xlink:title="Va faire l&#39;insertion selon l&#39;algorithme, ainsi que les fichiers en entrée choisis par l&#39;utilisateur...">
<polygon fill="#ffffff" stroke="#000000" points="930,-361.5 930,-380.5 1000,-380.5 1000,-361.5 930,-361.5"/>
<text text-anchor="middle" x="965" y="-368.5" font-family="Helvetica,sans-Serif" font-size="10.00" fill="#000000">stegx_insert</text>
</a>
</g>
</g>
<!-- Node147&#45;&gt;Node148 -->
<g id="edge2" class="edge">
<title>Node147&#45;&gt;Node148</title>
<path fill="none" stroke="#191970" d="M881.4933,-371C897.1086,-371 914.8522,-371 929.9557,-371"/>
<polygon fill="#191970" stroke="#191970" points="881.0814,-367.5001 871.0813,-371 881.0813,-374.5001 881.0814,-367.5001"/>
</g>
<!-- Node149&#45;&gt;Node150 -->
<g id="edge4" class="edge">
<title>Node149&#45;&gt;Node150</title>
<path fill="none" stroke="#191970" d="M280.1093,-249.2461C296.9544,-251.9676 314.7977,-254.8503 331.0959,-257.4835"/>
<polygon fill="#191970" stroke="#191970" points="280.2027,-245.7159 269.7725,-247.5761 279.0862,-252.6263 280.2027,-245.7159"/>
</g>
<!-- Node149&#45;&gt;Node159 -->
<g id="edge14" class="edge">
<title>Node149&#45;&gt;Node159</title>
<path fill="none" stroke="#191970" d="M290.4238,-233.9927C301.2158,-233.4516 312.1996,-232.9009 322.7409,-232.3723"/>
<polygon fill="#191970" stroke="#191970" points="289.9685,-230.511 280.1563,-234.5075 290.3191,-237.5022 289.9685,-230.511"/>
</g>
<!-- Node150&#45;&gt;Node151 -->
<g id="edge5" class="edge">
<title>Node150&#45;&gt;Node151</title>
<path fill="none" stroke="#191970" d="M474.2925,-257.9002C484.0855,-256.843 493.9398,-255.7792 503.3691,-254.7613"/>
<polygon fill="#191970" stroke="#191970" points="473.6963,-254.4442 464.1297,-258.9974 474.4477,-261.4037 473.6963,-254.4442"/>
</g>
<!-- Node151&#45;&gt;Node152 -->
<g id="edge6" class="edge">
<title>Node151&#45;&gt;Node152</title>
<path fill="none" stroke="#191970" d="M585.8704,-231.8959C618.1109,-205.7664 680.847,-154.9214 707.0501,-133.6849"/>
<polygon fill="#191970" stroke="#191970" points="583.5708,-229.2544 578.0057,-238.2699 587.9783,-234.6927 583.5708,-229.2544"/>
</g>
<!-- Node151&#45;&gt;Node158 -->
<g id="edge12" class="edge">
<title>Node151&#45;&gt;Node158</title>
<path fill="none" stroke="#191970" d="M588.4149,-263.2363C620.4253,-284.995 678.2989,-324.3339 704.9145,-342.4255"/>
<polygon fill="#191970" stroke="#191970" points="590.3575,-260.3247 580.1196,-257.5977 586.4223,-266.1139 590.3575,-260.3247"/>
</g>
<!-- Node153 -->
<g id="node8" class="node">
<title>Node153</title>
<g id="a_node8"><a xlink:href="a00035.xhtml#abc757e2627fc9971e388a584e0e0c2ca" target="_top" xlink:title="Va extraire les donnees cachees en utilisant l&#39;algorithme LSB. ">
<polygon fill="#ffffff" stroke="#000000" points="809,-114.5 809,-133.5 874,-133.5 874,-114.5 809,-114.5"/>
<text text-anchor="middle" x="841.5" y="-121.5" font-family="Helvetica,sans-Serif" font-size="10.00" fill="#000000">extract_lsb</text>
</a>
</g>
</g>
<!-- Node152&#45;&gt;Node153 -->
<g id="edge7" class="edge">
<title>Node152&#45;&gt;Node153</title>
<path fill="none" stroke="#191970" d="M780.4657,-124C790.3155,-124 800.1578,-124 808.9738,-124"/>
<polygon fill="#191970" stroke="#191970" points="780.2413,-120.5001 770.2412,-124 780.2412,-127.5001 780.2413,-120.5001"/>
</g>
<!-- Node152&#45;&gt;Node155 -->
<g id="edge9" class="edge">
<title>Node152&#45;&gt;Node155</title>
<path fill="none" stroke="#191970" d="M759.8777,-111.3196C776.4294,-106.1852 795.2211,-100.3559 810.598,-95.5859"/>
<polygon fill="#191970" stroke="#191970" points="758.426,-108.1053 749.9119,-114.411 760.4999,-114.791 758.426,-108.1053"/>
</g>
<!-- Node154 -->
<g id="node9" class="node">
<title>Node154</title>
<g id="a_node9"><a xlink:href="a00065.xhtml#a43c63dd958bfa1f4ab2ecbd7faa14abb" target="_top" xlink:title="Va faire l&#39;extraction selon l&#39;algorithme détecté, ainsi que les fichiers en entrée choisis par l&#39;util...">
<polygon fill="#ffffff" stroke="#000000" points="927,-114.5 927,-133.5 1003,-133.5 1003,-114.5 927,-114.5"/>
<text text-anchor="middle" x="965" y="-121.5" font-family="Helvetica,sans-Serif" font-size="10.00" fill="#000000">stegx_extract</text>
</a>
</g>
</g>
<!-- Node153&#45;&gt;Node154 -->
<g id="edge8" class="edge">
<title>Node153&#45;&gt;Node154</title>
<path fill="none" stroke="#191970" d="M884.4845,-124C898.2585,-124 913.4089,-124 926.8157,-124"/>
<polygon fill="#191970" stroke="#191970" points="884.2715,-120.5001 874.2715,-124 884.2715,-127.5001 884.2715,-120.5001"/>
</g>
<!-- Node156 -->
<g id="node11" class="node">
<title>Node156</title>
<g id="a_node11"><a xlink:href="a00050.xhtml#a2a3747fdc90ed4467eb3e468d8fba361" target="_top" xlink:title="Detecte l&#39;algorithme utilisé ainsi que le nom du fichier caché et la taille des données cachées...">
<polygon fill="#ffffff" stroke="#000000" points="917,-76.5 917,-95.5 1013,-95.5 1013,-76.5 917,-76.5"/>
<text text-anchor="middle" x="965" y="-83.5" font-family="Helvetica,sans-Serif" font-size="10.00" fill="#000000">stegx_detect_algo</text>
</a>
</g>
</g>
<!-- Node155&#45;&gt;Node156 -->
<g id="edge10" class="edge">
<title>Node155&#45;&gt;Node156</title>
<path fill="none" stroke="#191970" d="M887.4129,-86C897.0496,-86 907.2382,-86 916.9506,-86"/>
<polygon fill="#191970" stroke="#191970" points="887.2214,-82.5001 877.2213,-86 887.2213,-89.5001 887.2214,-82.5001"/>
</g>
<!-- Node157 -->
<g id="node12" class="node">
<title>Node157</title>
<g id="a_node12"><a xlink:href="a00128.xhtml#adc277622e5fe0d1814be76f11263b350" target="_top" xlink:title="Propose les algorithmes de stéganographie utilisables. ">
<polygon fill="#ffffff" stroke="#000000" points="913,-38.5 913,-57.5 1017,-57.5 1017,-38.5 913,-38.5"/>
<text text-anchor="middle" x="965" y="-45.5" font-family="Helvetica,sans-Serif" font-size="10.00" fill="#000000">stegx_suggest_algo</text>
</a>
</g>
</g>
<!-- Node155&#45;&gt;Node157 -->
<g id="edge11" class="edge">
<title>Node155&#45;&gt;Node157</title>
<path fill="none" stroke="#191970" d="M882.2397,-73.4647C899.0405,-68.2952 918.197,-62.4009 933.8457,-57.5859"/>
<polygon fill="#191970" stroke="#191970" points="881.1927,-70.1248 872.6643,-76.411 883.2514,-76.8153 881.1927,-70.1248"/>
</g>
<!-- Node158&#45;&gt;Node147 -->
<g id="edge13" class="edge">
<title>Node158&#45;&gt;Node147</title>
<path fill="none" stroke="#191970" d="M780.2791,-361.5045C791.2528,-363.2066 802.2253,-364.9084 811.7875,-366.3915"/>
<polygon fill="#191970" stroke="#191970" points="780.6596,-358.0218 770.2412,-359.9476 779.5866,-364.939 780.6596,-358.0218"/>
</g>
<!-- Node159&#45;&gt;Node151 -->
<g id="edge15" class="edge">
<title>Node159&#45;&gt;Node151</title>
<path fill="none" stroke="#191970" d="M467.1562,-237.3294C479.3023,-238.6406 491.7282,-239.982 503.4893,-241.2517"/>
<polygon fill="#191970" stroke="#191970" points="467.3581,-233.8309 457.0401,-236.2373 466.6067,-240.7905 467.3581,-233.8309"/>
</g>
<!-- Node160&#45;&gt;Node151 -->
<g id="edge17" class="edge">
<title>Node160&#45;&gt;Node151</title>
<path fill="none" stroke="#191970" d="M287.5605,-173.1075C338.2069,-181.2579 405.6502,-193.7333 464,-210 492.0329,-217.815 523.2502,-229.9789 543.6762,-238.4314"/>
<polygon fill="#191970" stroke="#191970" points="288.0881,-169.6475 277.6629,-171.5353 286.9899,-176.5609 288.0881,-169.6475"/>
</g>
<!-- Node161&#45;&gt;Node155 -->
<g id="edge24" class="edge">
<title>Node161&#45;&gt;Node155</title>
<path fill="none" stroke="#191970" d="M635.5885,-54.8577C675.1059,-59.0844 725.4352,-65.0259 770,-72 781.747,-73.8383 794.5074,-76.2142 805.9532,-78.485"/>
<polygon fill="#191970" stroke="#191970" points="635.838,-51.3647 625.5253,-53.7933 635.1017,-58.3258 635.838,-51.3647"/>
</g>
<!-- Node163 -->
<g id="node18" class="node">
<title>Node163</title>
<g id="a_node18"><a xlink:href="a00044.xhtml#aa5fe126b37cde4faccaaf190a3b977d3" target="_top" xlink:title="Retourne le type du fichier. ">
<polygon fill="#ffffff" stroke="#000000" points="343,-.5 343,-19.5 437,-19.5 437,-.5 343,-.5"/>
<text text-anchor="middle" x="390" y="-7.5" font-family="Helvetica,sans-Serif" font-size="10.00" fill="#000000">check_file_format</text>
</a>
</g>
</g>
<!-- Node162&#45;&gt;Node163 -->
<g id="edge26" class="edge">
<title>Node162&#45;&gt;Node163</title>
<path fill="none" stroke="#191970" d="M273.1914,-10C296.0352,-10 321.4589,-10 342.7395,-10"/>
<polygon fill="#191970" stroke="#191970" points="272.9014,-6.5001 262.9014,-10 272.9013,-13.5001 272.9014,-6.5001"/>
</g>
<!-- Node164 -->
<g id="node19" class="node">
<title>Node164</title>
<g id="a_node19"><a xlink:href="a00044.xhtml#aa5b31aaae617d7c5d0c29d564e2c8a42" target="_top" xlink:title="Vérifie la compatibilité des fichiers. ">
<polygon fill="#ffffff" stroke="#000000" points="500,-.5 500,-19.5 632,-19.5 632,-.5 500,-.5"/>
<text text-anchor="middle" x="566" y="-7.5" font-family="Helvetica,sans-Serif" font-size="10.00" fill="#000000">stegx_check_compatibility</text>
</a>
</g>
</g>
<!-- Node163&#45;&gt;Node164 -->
<g id="edge27" class="edge">
<title>Node163&#45;&gt;Node164</title>
<path fill="none" stroke="#191970" d="M447.3586,-10C464.1238,-10 482.5846,-10 499.8479,-10"/>
<polygon fill="#191970" stroke="#191970" points="447.1648,-6.5001 437.1648,-10 447.1647,-13.5001 447.1648,-6.5001"/>
</g>
</g>
</svg>
