<?xml version="1.0" encoding="UTF-8" standalone="no"?>
<!DOCTYPE svg PUBLIC "-//W3C//DTD SVG 1.1//EN"
 "http://www.w3.org/Graphics/SVG/1.1/DTD/svg11.dtd">
<!-- Generated by graphviz version 2.40.1 (20161225.0304)
 -->
<!-- Title: mp3_mpeg_hdr_get_bitrate Pages: 1 -->
<svg width="458pt" height="47pt"
 viewBox="0.00 0.00 458.00 47.00" xmlns="http://www.w3.org/2000/svg" xmlns:xlink="http://www.w3.org/1999/xlink">
<g id="graph0" class="graph" transform="scale(1 1) rotate(0) translate(4 43)">
<title>mp3_mpeg_hdr_get_bitrate</title>
<polygon fill="#ffffff" stroke="transparent" points="-4,4 -4,-43 454,-43 454,4 -4,4"/>
<!-- Node73 -->
<g id="node1" class="node">
<title>Node73</title>
<polygon fill="#bfbfbf" stroke="#000000" points="0,-19.5 0,-38.5 134,-38.5 134,-19.5 0,-19.5"/>
<text text-anchor="middle" x="67" y="-26.5" font-family="Helvetica,sans-Serif" font-size="10.00" fill="#000000">mp3_mpeg_hdr_get_bitrate</text>
</g>
<!-- Node74 -->
<g id="node2" class="node">
<title>Node74</title>
<g id="a_node2"><a xlink:href="a00086.xhtml#a75bc8b052a4d00ab95b05b576918360d" target="_top" xlink:title="Test si le header est un header MPEG 1/2 Layer III. ">
<polygon fill="#ffffff" stroke="#000000" points="345,-19.5 345,-38.5 450,-38.5 450,-19.5 345,-19.5"/>
<text text-anchor="middle" x="397.5" y="-26.5" font-family="Helvetica,sans-Serif" font-size="10.00" fill="#000000">mp3_mpeg_hdr_test</text>
</a>
</g>
</g>
<!-- Node73&#45;&gt;Node74 -->
<g id="edge1" class="edge">
<title>Node73&#45;&gt;Node74</title>
<path fill="none" stroke="#191970" d="M134.28,-29C193.0354,-29 277.6522,-29 334.9601,-29"/>
<polygon fill="#191970" stroke="#191970" points="334.9758,-32.5001 344.9758,-29 334.9758,-25.5001 334.9758,-32.5001"/>
</g>
<!-- Node75 -->
<g id="node3" class="node">
<title>Node75</title>
<g id="a_node3"><a xlink:href="a00086.xhtml#a2f08a046bc257029ca74b86b48204380" target="_top" xlink:title="Obtient la version de la norme MPEG du header d&#39;une frame MP3. ">
<polygon fill="#ffffff" stroke="#000000" points="170,-.5 170,-19.5 309,-19.5 309,-.5 170,-.5"/>
<text text-anchor="middle" x="239.5" y="-7.5" font-family="Helvetica,sans-Serif" font-size="10.00" fill="#000000">mp3_mpeg_hdr_get_version</text>
</a>
</g>
</g>
<!-- Node73&#45;&gt;Node75 -->
<g id="edge2" class="edge">
<title>Node73&#45;&gt;Node75</title>
<path fill="none" stroke="#191970" d="M134.1869,-21.5997C142.6182,-20.671 151.3052,-19.7142 159.9035,-18.7671"/>
<polygon fill="#191970" stroke="#191970" points="160.3791,-22.236 169.9358,-17.6621 159.6127,-15.2781 160.3791,-22.236"/>
</g>
<!-- Node75&#45;&gt;Node74 -->
<g id="edge3" class="edge">
<title>Node75&#45;&gt;Node74</title>
<path fill="none" stroke="#191970" d="M309.261,-18.389C317.7242,-19.4067 326.3307,-20.4417 334.6849,-21.4463"/>
<polygon fill="#191970" stroke="#191970" points="334.3772,-24.9344 344.7236,-22.6535 335.213,-17.9845 334.3772,-24.9344"/>
</g>
</g>
</svg>
