<?xml version="1.0" encoding="UTF-8" standalone="no"?>
<!DOCTYPE svg PUBLIC "-//W3C//DTD SVG 1.1//EN"
 "http://www.w3.org/Graphics/SVG/1.1/DTD/svg11.dtd">
<!-- Generated by graphviz version 2.40.1 (20161225.0304)
 -->
<!-- Title: insert_metadata_avi Pages: 1 -->
<svg width="340pt" height="28pt"
 viewBox="0.00 0.00 340.00 28.00" xmlns="http://www.w3.org/2000/svg" xmlns:xlink="http://www.w3.org/1999/xlink">
<g id="graph0" class="graph" transform="scale(1 1) rotate(0) translate(4 24)">
<title>insert_metadata_avi</title>
<polygon fill="#ffffff" stroke="transparent" points="-4,4 -4,-24 336,-24 336,4 -4,4"/>
<!-- Node5 -->
<g id="node1" class="node">
<title>Node5</title>
<polygon fill="#bfbfbf" stroke="#000000" points="0,-.5 0,-19.5 104,-19.5 104,-.5 0,-.5"/>
<text text-anchor="middle" x="52" y="-7.5" font-family="Helvetica,sans-Serif" font-size="10.00" fill="#000000">insert_metadata_avi</text>
</g>
<!-- Node6 -->
<g id="node2" class="node">
<title>Node6</title>
<g id="a_node2"><a xlink:href="a00041.xhtml#a77aaebb61a9a73cbe45380c64c3d8389" target="_top" xlink:title="Va inserer les donnees cachees en utilisant l&#39;algorithme Metadata. ">
<polygon fill="#ffffff" stroke="#000000" points="140,-.5 140,-19.5 226,-19.5 226,-.5 140,-.5"/>
<text text-anchor="middle" x="183" y="-7.5" font-family="Helvetica,sans-Serif" font-size="10.00" fill="#000000">insert_metadata</text>
</a>
</g>
</g>
<!-- Node5&#45;&gt;Node6 -->
<g id="edge1" class="edge">
<title>Node5&#45;&gt;Node6</title>
<path fill="none" stroke="#191970" d="M114.2525,-10C122.9182,-10 131.66,-10 139.8689,-10"/>
<polygon fill="#191970" stroke="#191970" points="114.1511,-6.5001 104.1511,-10 114.151,-13.5001 114.1511,-6.5001"/>
</g>
<!-- Node7 -->
<g id="node3" class="node">
<title>Node7</title>
<g id="a_node3"><a xlink:href="a00110.xhtml#a45a1d0709604d55e9d467cb39d6a5b54" target="_top" xlink:title="Va faire l&#39;insertion selon l&#39;algorithme, ainsi que les fichiers en entrée choisis par l&#39;utilisateur...">
<polygon fill="#ffffff" stroke="#000000" points="262,-.5 262,-19.5 332,-19.5 332,-.5 262,-.5"/>
<text text-anchor="middle" x="297" y="-7.5" font-family="Helvetica,sans-Serif" font-size="10.00" fill="#000000">stegx_insert</text>
</a>
</g>
</g>
<!-- Node6&#45;&gt;Node7 -->
<g id="edge2" class="edge">
<title>Node6&#45;&gt;Node7</title>
<path fill="none" stroke="#191970" d="M236.2534,-10C244.9922,-10 253.8489,-10 261.9972,-10"/>
<polygon fill="#191970" stroke="#191970" points="236.0985,-6.5001 226.0985,-10 236.0985,-13.5001 236.0985,-6.5001"/>
</g>
</g>
</svg>
