<?xml version="1.0" encoding="UTF-8" standalone="no"?>
<!DOCTYPE svg PUBLIC "-//W3C//DTD SVG 1.1//EN"
 "http://www.w3.org/Graphics/SVG/1.1/DTD/svg11.dtd">
<!-- Generated by graphviz version 2.40.1 (20161225.0304)
 -->
<!-- Title: src/file_type/mp3.h Pages: 1 -->
<!--zoomable 196 -->
<svg id="main" version="1.1" xmlns="http://www.w3.org/2000/svg" xmlns:xlink="http://www.w3.org/1999/xlink" xml:space="preserve" onload="init(evt)">
<style type="text/css"><![CDATA[
.edge:hover path { stroke: red; }
.edge:hover polygon { stroke: red; fill: red; }
]]></style>
<script type="text/javascript"><![CDATA[
var edges = document.getElementsByTagName('g');
if (edges && edges.length) {
  for (var i=0;i<edges.length;i++) {
    if (edges[i].id.substr(0,4)=='edge') {
      edges[i].setAttribute('class','edge');
    }
  }
}
]]></script>
        <defs>
                <circle id="rim" cx="0" cy="0" r="7"/>
                <circle id="rim2" cx="0" cy="0" r="3.5"/>
                <g id="zoomPlus">
                        <use xlink:href="#rim" fill="#404040">
                                <set attributeName="fill" to="#808080" begin="zoomplus.mouseover" end="zoomplus.mouseout"/>
                        </use>
                        <path d="M-4,0h8M0,-4v8" fill="none" stroke="white" stroke-width="1.5" pointer-events="none"/>
                </g>
                <g id="zoomMin">
                        <use xlink:href="#rim" fill="#404040">
                                <set attributeName="fill" to="#808080" begin="zoomminus.mouseover" end="zoomminus.mouseout"/>
                        </use>
                        <path d="M-4,0h8" fill="none" stroke="white" stroke-width="1.5" pointer-events="none"/>
                </g>
                <g id="dirArrow">
                        <path fill="none" stroke="white" stroke-width="1.5" d="M0,-3.0v7 M-2.5,-0.5L0,-3.0L2.5,-0.5"/>
                </g>
               <g id="resetDef">
                       <use xlink:href="#rim2" fill="#404040">
                               <set attributeName="fill" to="#808080" begin="reset.mouseover" end="reset.mouseout"/>
                       </use>
               </g>
        </defs>

<script type="text/javascript">
var viewWidth = 2797;
var viewHeight = 196;
var sectionId = 'dynsection-1';
</script>
<script xlink:href="svgpan.js"/>
<svg id="graph" class="graph">
<g id="viewport">
<title>src/file_type/mp3.h</title>
<polygon fill="#ffffff" stroke="transparent" points="-4,4 -4,-192 2793.1283,-192 2793.1283,4 -4,4"/>
<!-- Node10 -->
<g id="node1" class="node">
<title>Node10</title>
<polygon fill="#bfbfbf" stroke="#000000" points="1311.1283,-168.5 1311.1283,-187.5 1411.1283,-187.5 1411.1283,-168.5 1311.1283,-168.5"/>
<text text-anchor="middle" x="1361.1283" y="-175.5" font-family="Helvetica,sans-Serif" font-size="10.00" fill="#000000">src/file_type/mp3.h</text>
</g>
<!-- Node11 -->
<g id="node2" class="node">
<title>Node11</title>
<g id="a_node2"><a xlink:href="a00047.xhtml" target="_top" xlink:title="Définitions communes à la partie privée de la bibliothèque. ">
<polygon fill="#ffffff" stroke="#000000" points="1321.6283,-112.5 1321.6283,-131.5 1400.6283,-131.5 1400.6283,-112.5 1321.6283,-112.5"/>
<text text-anchor="middle" x="1361.1283" y="-119.5" font-family="Helvetica,sans-Serif" font-size="10.00" fill="#000000">src/common.h</text>
</a>
</g>
</g>
<!-- Node10&#45;&gt;Node11 -->
<g id="edge1" class="edge">
<title>Node10&#45;&gt;Node11</title>
<path fill="none" stroke="#191970" d="M1354.6397,-158.1575C1354.0474,-149.155 1354.4619,-138.9199 1355.8832,-131.6427"/>
<polygon fill="#191970" stroke="#191970" points="1351.1844,-158.739 1355.8615,-168.2455 1358.1337,-157.8972 1351.1844,-158.739"/>
</g>
<!-- Node34 -->
<g id="node25" class="node">
<title>Node34</title>
<g id="a_node25"><a xlink:href="a00086.xhtml" target="_top" xlink:title="Fichier MP3. ">
<polygon fill="#ffffff" stroke="#000000" points="2689.1283,-56.5 2689.1283,-75.5 2789.1283,-75.5 2789.1283,-56.5 2689.1283,-56.5"/>
<text text-anchor="middle" x="2739.1283" y="-63.5" font-family="Helvetica,sans-Serif" font-size="10.00" fill="#000000">src/file_type/mp3.c</text>
</a>
</g>
</g>
<!-- Node10&#45;&gt;Node34 -->
<g id="edge47" class="edge">
<title>Node10&#45;&gt;Node34</title>
<path fill="none" stroke="#191970" d="M1421.4951,-175.2851C1608.8115,-166.4427 2196.6028,-135.548 2680.1283,-76 2683.0155,-75.6444 2685.9769,-75.247 2688.9617,-74.8212"/>
<polygon fill="#191970" stroke="#191970" points="1421.129,-171.7983 1411.304,-175.763 1421.457,-178.7906 1421.129,-171.7983"/>
</g>
<!-- Node11&#45;&gt;Node10 -->
<g id="edge32" class="edge">
<title>Node11&#45;&gt;Node10</title>
<path fill="none" stroke="#191970" d="M1367.6078,-141.7046C1368.2104,-150.6944 1367.8062,-160.9382 1366.3952,-168.2455"/>
<polygon fill="#191970" stroke="#191970" points="1371.0652,-141.1421 1366.3735,-131.6427 1364.1173,-141.9945 1371.0652,-141.1421"/>
</g>
<!-- Node12 -->
<g id="node3" class="node">
<title>Node12</title>
<g id="a_node3"><a xlink:href="a00014.xhtml" target="_top" xlink:title="Algorithme End Of Chunk (EOC). ">
<polygon fill="#ffffff" stroke="#000000" points="2443.1283,-56.5 2443.1283,-75.5 2521.1283,-75.5 2521.1283,-56.5 2443.1283,-56.5"/>
<text text-anchor="middle" x="2482.1283" y="-63.5" font-family="Helvetica,sans-Serif" font-size="10.00" fill="#000000">src/algo/eoc.c</text>
</a>
</g>
</g>
<!-- Node11&#45;&gt;Node12 -->
<g id="edge2" class="edge">
<title>Node11&#45;&gt;Node12</title>
<path fill="none" stroke="#191970" d="M1411.0397,-120.9382C1594.6257,-116.8647 2232.2117,-101.1913 2434.1283,-76 2437.0002,-75.6417 2439.956,-75.2022 2442.9226,-74.7093"/>
<polygon fill="#191970" stroke="#191970" points="1410.7883,-117.4428 1400.8678,-121.1623 1410.9425,-124.4411 1410.7883,-117.4428"/>
</g>
<!-- Node13 -->
<g id="node4" class="node">
<title>Node13</title>
<g id="a_node4"><a xlink:href="a00017.xhtml" target="_top" xlink:title="Algorithme End Of Chunk (EOC). ">
<polygon fill="#ffffff" stroke="#000000" points="19.1283,-56.5 19.1283,-75.5 97.1283,-75.5 97.1283,-56.5 19.1283,-56.5"/>
<text text-anchor="middle" x="58.1283" y="-63.5" font-family="Helvetica,sans-Serif" font-size="10.00" fill="#000000">src/algo/eoc.h</text>
</a>
</g>
</g>
<!-- Node11&#45;&gt;Node13 -->
<g id="edge3" class="edge">
<title>Node11&#45;&gt;Node13</title>
<path fill="none" stroke="#191970" d="M1311.3438,-121.298C1108.7322,-118.2675 345.588,-105.1208 106.1283,-76 103.2553,-75.6506 100.2988,-75.2176 97.3316,-74.7294"/>
<polygon fill="#191970" stroke="#191970" points="1311.3473,-124.7983 1321.3981,-121.4469 1311.4511,-117.7991 1311.3473,-124.7983"/>
</g>
<!-- Node14 -->
<g id="node5" class="node">
<title>Node14</title>
<g id="a_node5"><a xlink:href="a00065.xhtml" target="_top" xlink:title="Extraction des données cachées dans un fichier hôte. ">
<polygon fill="#ffffff" stroke="#000000" points="166.6283,-.5 166.6283,-19.5 237.6283,-19.5 237.6283,-.5 166.6283,-.5"/>
<text text-anchor="middle" x="202.1283" y="-7.5" font-family="Helvetica,sans-Serif" font-size="10.00" fill="#000000">src/extract.c</text>
</a>
</g>
</g>
<!-- Node11&#45;&gt;Node14 -->
<g id="edge36" class="edge">
<title>Node11&#45;&gt;Node14</title>
<path fill="none" stroke="#191970" d="M1311.21,-121.2419C1069.7067,-117.4584 33.1802,-99.8501 10.1283,-76 -37.6392,-26.5783 98.7655,-14.1533 166.483,-11.038"/>
<polygon fill="#191970" stroke="#191970" points="1311.3943,-124.7451 1321.4476,-121.4014 1311.5034,-117.7459 1311.3943,-124.7451"/>
</g>
<!-- Node15 -->
<g id="node6" class="node">
<title>Node15</title>
<g id="a_node6"><a xlink:href="a00110.xhtml" target="_top" xlink:title="Insertion des données cachées dans une copie de l&#39;hôte. ">
<polygon fill="#ffffff" stroke="#000000" points="259.6283,-.5 259.6283,-19.5 324.6283,-19.5 324.6283,-.5 259.6283,-.5"/>
<text text-anchor="middle" x="292.1283" y="-7.5" font-family="Helvetica,sans-Serif" font-size="10.00" fill="#000000">src/insert.c</text>
</a>
</g>
</g>
<!-- Node11&#45;&gt;Node15 -->
<g id="edge44" class="edge">
<title>Node11&#45;&gt;Node15</title>
<path fill="none" stroke="#191970" d="M1311.2038,-121.3208C1174.5089,-119.0368 796.4137,-109.7611 677.1283,-76 658.7644,-70.8025 657.3147,-61.7883 639.1283,-56 580.7862,-37.4312 399.3066,-19.5948 324.6802,-12.8421"/>
<polygon fill="#191970" stroke="#191970" points="1311.3317,-124.8232 1321.387,-121.4854 1311.4449,-117.8241 1311.3317,-124.8232"/>
</g>
<!-- Node16 -->
<g id="node7" class="node">
<title>Node16</title>
<g id="a_node7"><a xlink:href="a00020.xhtml" target="_top" xlink:title="Algorithme EOF. ">
<polygon fill="#ffffff" stroke="#000000" points="424.1283,-56.5 424.1283,-75.5 500.1283,-75.5 500.1283,-56.5 424.1283,-56.5"/>
<text text-anchor="middle" x="462.1283" y="-63.5" font-family="Helvetica,sans-Serif" font-size="10.00" fill="#000000">src/algo/eof.c</text>
</a>
</g>
</g>
<!-- Node11&#45;&gt;Node16 -->
<g id="edge6" class="edge">
<title>Node11&#45;&gt;Node16</title>
<path fill="none" stroke="#191970" d="M1311.1027,-120.324C1153.074,-114.8681 665.7764,-96.7649 509.1283,-76 506.2338,-75.6163 503.2523,-75.1506 500.2616,-74.6325"/>
<polygon fill="#191970" stroke="#191970" points="1311.352,-123.8345 1321.4663,-120.6799 1311.5924,-116.8387 1311.352,-123.8345"/>
</g>
<!-- Node17 -->
<g id="node8" class="node">
<title>Node17</title>
<g id="a_node8"><a xlink:href="a00023.xhtml" target="_top" xlink:title="Algorithme EOF. ">
<polygon fill="#ffffff" stroke="#000000" points="115.1283,-56.5 115.1283,-75.5 191.1283,-75.5 191.1283,-56.5 115.1283,-56.5"/>
<text text-anchor="middle" x="153.1283" y="-63.5" font-family="Helvetica,sans-Serif" font-size="10.00" fill="#000000">src/algo/eof.h</text>
</a>
</g>
</g>
<!-- Node11&#45;&gt;Node17 -->
<g id="edge7" class="edge">
<title>Node11&#45;&gt;Node17</title>
<path fill="none" stroke="#191970" d="M1311.3242,-121.1551C1118.4018,-117.7074 420.1305,-103.5595 200.1283,-76 197.2312,-75.6371 194.2476,-75.1865 191.2556,-74.6789"/>
<polygon fill="#191970" stroke="#191970" points="1311.3931,-124.6568 1321.4535,-121.3346 1311.5171,-117.6579 1311.3931,-124.6568"/>
</g>
<!-- Node18 -->
<g id="node9" class="node">
<title>Node18</title>
<g id="a_node9"><a xlink:href="a00026.xhtml" target="_top" xlink:title="Algorithme JUNK CHUNK. ">
<polygon fill="#ffffff" stroke="#000000" points="2530.1283,-.5 2530.1283,-19.5 2642.1283,-19.5 2642.1283,-.5 2530.1283,-.5"/>
<text text-anchor="middle" x="2586.1283" y="-7.5" font-family="Helvetica,sans-Serif" font-size="10.00" fill="#000000">src/algo/junk_chunk.c</text>
</a>
</g>
</g>
<!-- Node11&#45;&gt;Node18 -->
<g id="edge10" class="edge">
<title>Node11&#45;&gt;Node18</title>
<path fill="none" stroke="#191970" d="M1410.8583,-121.1574C1627.3545,-117.3474 2479.1505,-100.8301 2530.1283,-76 2554.9864,-63.8922 2573.0407,-35.0937 2581.2299,-19.8522"/>
<polygon fill="#191970" stroke="#191970" points="1410.6762,-117.66 1400.739,-121.3344 1410.7987,-124.6589 1410.6762,-117.66"/>
</g>
<!-- Node19 -->
<g id="node10" class="node">
<title>Node19</title>
<g id="a_node10"><a xlink:href="a00071.xhtml" target="_top" xlink:title="Fichier AVI. ">
<polygon fill="#ffffff" stroke="#000000" points="2577.1283,-56.5 2577.1283,-75.5 2671.1283,-75.5 2671.1283,-56.5 2577.1283,-56.5"/>
<text text-anchor="middle" x="2624.1283" y="-63.5" font-family="Helvetica,sans-Serif" font-size="10.00" fill="#000000">src/file_type/avi.h</text>
</a>
</g>
</g>
<!-- Node11&#45;&gt;Node19 -->
<g id="edge11" class="edge">
<title>Node11&#45;&gt;Node19</title>
<path fill="none" stroke="#191970" d="M1410.6972,-120.8512C1606.5683,-116.3391 2326.2684,-98.9474 2554.1283,-76 2561.4959,-75.258 2569.3234,-74.1895 2577.0038,-73.0245"/>
<polygon fill="#191970" stroke="#191970" points="1410.6092,-117.3522 1400.6922,-121.0809 1410.77,-124.3503 1410.6092,-117.3522"/>
</g>
<!-- Node20 -->
<g id="node11" class="node">
<title>Node20</title>
<g id="a_node11"><a xlink:href="a00029.xhtml" target="_top" xlink:title="Algorithme JUNK CHUNK. ">
<polygon fill="#ffffff" stroke="#000000" points="518.1283,-56.5 518.1283,-75.5 630.1283,-75.5 630.1283,-56.5 518.1283,-56.5"/>
<text text-anchor="middle" x="574.1283" y="-63.5" font-family="Helvetica,sans-Serif" font-size="10.00" fill="#000000">src/algo/junk_chunk.h</text>
</a>
</g>
</g>
<!-- Node11&#45;&gt;Node20 -->
<g id="edge14" class="edge">
<title>Node11&#45;&gt;Node20</title>
<path fill="none" stroke="#191970" d="M1311.3317,-120.1408C1194.5527,-115.4895 894.0398,-101.8279 644.1283,-76 639.6102,-75.5331 634.9359,-74.9922 630.2448,-74.4085"/>
<polygon fill="#191970" stroke="#191970" points="1311.2666,-123.6409 1321.3967,-120.5375 1311.5423,-116.6463 1311.2666,-123.6409"/>
</g>
<!-- Node21 -->
<g id="node12" class="node">
<title>Node21</title>
<g id="a_node12"><a xlink:href="a00032.xhtml" target="_top" xlink:title="Algorithme LSB. ">
<polygon fill="#ffffff" stroke="#000000" points="686.6283,-56.5 686.6283,-75.5 761.6283,-75.5 761.6283,-56.5 686.6283,-56.5"/>
<text text-anchor="middle" x="724.1283" y="-63.5" font-family="Helvetica,sans-Serif" font-size="10.00" fill="#000000">src/algo/lsb.c</text>
</a>
</g>
</g>
<!-- Node11&#45;&gt;Node21 -->
<g id="edge17" class="edge">
<title>Node11&#45;&gt;Node21</title>
<path fill="none" stroke="#191970" d="M1311.4917,-120.4228C1209.5617,-116.6818 969.4708,-105.2859 770.1283,-76 767.3792,-75.5961 764.5488,-75.1231 761.7074,-74.6065"/>
<polygon fill="#191970" stroke="#191970" points="1311.3785,-123.9209 1321.4975,-120.7816 1311.6294,-116.9254 1311.3785,-123.9209"/>
</g>
<!-- Node22 -->
<g id="node13" class="node">
<title>Node22</title>
<g id="a_node13"><a xlink:href="a00035.xhtml" target="_top" xlink:title="Algorithme LSB. ">
<polygon fill="#ffffff" stroke="#000000" points="209.6283,-56.5 209.6283,-75.5 284.6283,-75.5 284.6283,-56.5 209.6283,-56.5"/>
<text text-anchor="middle" x="247.1283" y="-63.5" font-family="Helvetica,sans-Serif" font-size="10.00" fill="#000000">src/algo/lsb.h</text>
</a>
</g>
</g>
<!-- Node11&#45;&gt;Node22 -->
<g id="edge18" class="edge">
<title>Node11&#45;&gt;Node22</title>
<path fill="none" stroke="#191970" d="M1311.4423,-120.9886C1128.6862,-117.0928 493.9927,-101.9648 293.1283,-76 290.3726,-75.6438 287.5374,-75.2058 284.6925,-74.714"/>
<polygon fill="#191970" stroke="#191970" points="1311.4964,-124.4904 1321.5682,-121.2028 1311.6445,-117.492 1311.4964,-124.4904"/>
</g>
<!-- Node23 -->
<g id="node14" class="node">
<title>Node23</title>
<g id="a_node14"><a xlink:href="a00038.xhtml" target="_top" xlink:title="Algorithme METADATA. ">
<polygon fill="#ffffff" stroke="#000000" points="779.6283,-56.5 779.6283,-75.5 882.6283,-75.5 882.6283,-56.5 779.6283,-56.5"/>
<text text-anchor="middle" x="831.1283" y="-63.5" font-family="Helvetica,sans-Serif" font-size="10.00" fill="#000000">src/algo/metadata.c</text>
</a>
</g>
</g>
<!-- Node11&#45;&gt;Node23 -->
<g id="edge21" class="edge">
<title>Node11&#45;&gt;Node23</title>
<path fill="none" stroke="#191970" d="M1311.5297,-118.1972C1225.8205,-111.3887 1044.5279,-95.9443 892.1283,-76 889.0425,-75.5962 885.873,-75.1555 882.6784,-74.6915"/>
<polygon fill="#191970" stroke="#191970" points="1311.2553,-121.6864 1321.4998,-118.9844 1311.8064,-114.7081 1311.2553,-121.6864"/>
</g>
<!-- Node24 -->
<g id="node15" class="node">
<title>Node24</title>
<g id="a_node15"><a xlink:href="a00041.xhtml" target="_top" xlink:title="Algorithme METADATA. ">
<polygon fill="#ffffff" stroke="#000000" points="302.6283,-56.5 302.6283,-75.5 405.6283,-75.5 405.6283,-56.5 302.6283,-56.5"/>
<text text-anchor="middle" x="354.1283" y="-63.5" font-family="Helvetica,sans-Serif" font-size="10.00" fill="#000000">src/algo/metadata.h</text>
</a>
</g>
</g>
<!-- Node11&#45;&gt;Node24 -->
<g id="edge22" class="edge">
<title>Node11&#45;&gt;Node24</title>
<path fill="none" stroke="#191970" d="M1311.2804,-121.5733C1170.2503,-119.9361 756.508,-112.163 415.1283,-76 412.0335,-75.6722 408.857,-75.2903 405.6571,-74.8708"/>
<polygon fill="#191970" stroke="#191970" points="1311.3122,-125.0738 1321.3504,-121.685 1311.3899,-118.0742 1311.3122,-125.0738"/>
</g>
<!-- Node25 -->
<g id="node16" class="node">
<title>Node25</title>
<g id="a_node16"><a xlink:href="a00044.xhtml" target="_top" xlink:title="Module de vérification de la compatibilité. ">
<polygon fill="#ffffff" stroke="#000000" points="901.1283,-56.5 901.1283,-75.5 1003.1283,-75.5 1003.1283,-56.5 901.1283,-56.5"/>
<text text-anchor="middle" x="952.1283" y="-63.5" font-family="Helvetica,sans-Serif" font-size="10.00" fill="#000000">src/check_compa.c</text>
</a>
</g>
</g>
<!-- Node11&#45;&gt;Node25 -->
<g id="edge25" class="edge">
<title>Node11&#45;&gt;Node25</title>
<path fill="none" stroke="#191970" d="M1311.5868,-116.0099C1243.866,-107.6986 1118.6358,-91.89 1012.1283,-76 1009.2038,-75.5637 1006.2013,-75.1032 1003.1727,-74.629"/>
<polygon fill="#191970" stroke="#191970" points="1311.1999,-119.4886 1321.5511,-117.2296 1312.0504,-112.5404 1311.1999,-119.4886"/>
</g>
<!-- Node26 -->
<g id="node17" class="node">
<title>Node26</title>
<g id="a_node17"><a xlink:href="a00077.xhtml" target="_top" xlink:title="Fichier BMP. ">
<polygon fill="#ffffff" stroke="#000000" points="1021.1283,-56.5 1021.1283,-75.5 1121.1283,-75.5 1121.1283,-56.5 1021.1283,-56.5"/>
<text text-anchor="middle" x="1071.1283" y="-63.5" font-family="Helvetica,sans-Serif" font-size="10.00" fill="#000000">src/file_type/bmp.h</text>
</a>
</g>
</g>
<!-- Node11&#45;&gt;Node26 -->
<g id="edge26" class="edge">
<title>Node11&#45;&gt;Node26</title>
<path fill="none" stroke="#191970" d="M1311.6774,-113.4213C1256.5933,-103.2145 1168.5266,-86.222 1115.5557,-75.5899"/>
<polygon fill="#191970" stroke="#191970" points="1311.094,-116.8726 1321.5631,-115.2451 1312.3641,-109.9888 1311.094,-116.8726"/>
</g>
<!-- Node27 -->
<g id="node18" class="node">
<title>Node27</title>
<g id="a_node18"><a xlink:href="a00095.xhtml" target="_top" xlink:title="Fichier PNG. ">
<polygon fill="#ffffff" stroke="#000000" points="1139.6283,-56.5 1139.6283,-75.5 1236.6283,-75.5 1236.6283,-56.5 1139.6283,-56.5"/>
<text text-anchor="middle" x="1188.1283" y="-63.5" font-family="Helvetica,sans-Serif" font-size="10.00" fill="#000000">src/file_type/png.h</text>
</a>
</g>
</g>
<!-- Node11&#45;&gt;Node27 -->
<g id="edge28" class="edge">
<title>Node11&#45;&gt;Node27</title>
<path fill="none" stroke="#191970" d="M1316.2107,-109.3235C1282.9988,-99.0536 1239.1737,-84.8093 1212.2627,-75.5011"/>
<polygon fill="#191970" stroke="#191970" points="1315.5597,-112.7848 1326.1466,-112.3733 1317.6138,-106.0929 1315.5597,-112.7848"/>
</g>
<!-- Node28 -->
<g id="node19" class="node">
<title>Node28</title>
<g id="a_node19"><a xlink:href="a00104.xhtml" target="_top" xlink:title="Fichier WAVE. ">
<polygon fill="#ffffff" stroke="#000000" points="1254.6283,-56.5 1254.6283,-75.5 1353.6283,-75.5 1353.6283,-56.5 1254.6283,-56.5"/>
<text text-anchor="middle" x="1304.1283" y="-63.5" font-family="Helvetica,sans-Serif" font-size="10.00" fill="#000000">src/file_type/wav.h</text>
</a>
</g>
</g>
<!-- Node11&#45;&gt;Node28 -->
<g id="edge30" class="edge">
<title>Node11&#45;&gt;Node28</title>
<path fill="none" stroke="#191970" d="M1338.2795,-105.645C1327.3954,-95.9058 1315.4732,-83.8795 1308.6981,-75.6427"/>
<polygon fill="#191970" stroke="#191970" points="1336.0742,-108.365 1345.9329,-112.2455 1340.646,-103.0641 1336.0742,-108.365"/>
</g>
<!-- Node29 -->
<g id="node20" class="node">
<title>Node29</title>
<g id="a_node20"><a xlink:href="a00083.xhtml" target="_top" xlink:title="Fichier FLV. ">
<polygon fill="#ffffff" stroke="#000000" points="1372.1283,-56.5 1372.1283,-75.5 1464.1283,-75.5 1464.1283,-56.5 1372.1283,-56.5"/>
<text text-anchor="middle" x="1418.1283" y="-63.5" font-family="Helvetica,sans-Serif" font-size="10.00" fill="#000000">src/file_type/flv.h</text>
</a>
</g>
</g>
<!-- Node11&#45;&gt;Node29 -->
<g id="edge33" class="edge">
<title>Node11&#45;&gt;Node29</title>
<path fill="none" stroke="#191970" d="M1372.6314,-104.5004C1381.4873,-94.9775 1393.4637,-83.5596 1403.0683,-75.6427"/>
<polygon fill="#191970" stroke="#191970" points="1369.7871,-102.4336 1365.7901,-112.2455 1375.0336,-107.0677 1369.7871,-102.4336"/>
</g>
<!-- Node30 -->
<g id="node21" class="node">
<title>Node30</title>
<g id="a_node21"><a xlink:href="a00050.xhtml" target="_top" xlink:title="Module de détection de l&#39;algorithme. ">
<polygon fill="#ffffff" stroke="#000000" points="1482.1283,-56.5 1482.1283,-75.5 1574.1283,-75.5 1574.1283,-56.5 1482.1283,-56.5"/>
<text text-anchor="middle" x="1528.1283" y="-63.5" font-family="Helvetica,sans-Serif" font-size="10.00" fill="#000000">src/detect_algo.c</text>
</a>
</g>
</g>
<!-- Node11&#45;&gt;Node30 -->
<g id="edge35" class="edge">
<title>Node11&#45;&gt;Node30</title>
<path fill="none" stroke="#191970" d="M1399.3282,-109.1905C1429.9237,-98.9309 1472.1561,-84.7691 1499.7946,-75.5011"/>
<polygon fill="#191970" stroke="#191970" points="1398.205,-105.8755 1389.8367,-112.3733 1400.4306,-112.5123 1398.205,-105.8755"/>
</g>
<!-- Node31 -->
<g id="node22" class="node">
<title>Node31</title>
<g id="a_node22"><a xlink:href="a00068.xhtml" target="_top" xlink:title="Fichier AVI. ">
<polygon fill="#ffffff" stroke="#000000" points="1592.1283,-56.5 1592.1283,-75.5 1686.1283,-75.5 1686.1283,-56.5 1592.1283,-56.5"/>
<text text-anchor="middle" x="1639.1283" y="-63.5" font-family="Helvetica,sans-Serif" font-size="10.00" fill="#000000">src/file_type/avi.c</text>
</a>
</g>
</g>
<!-- Node11&#45;&gt;Node31 -->
<g id="edge37" class="edge">
<title>Node11&#45;&gt;Node31</title>
<path fill="none" stroke="#191970" d="M1410.5195,-112.0507C1461.7719,-101.7265 1541.3542,-85.6955 1591.8218,-75.5294"/>
<polygon fill="#191970" stroke="#191970" points="1409.7756,-108.6302 1400.6637,-114.036 1411.158,-115.4923 1409.7756,-108.6302"/>
</g>
<!-- Node32 -->
<g id="node23" class="node">
<title>Node32</title>
<g id="a_node23"><a xlink:href="a00074.xhtml" target="_top" xlink:title="Fichier BMP. ">
<polygon fill="#ffffff" stroke="#000000" points="1704.1283,-56.5 1704.1283,-75.5 1804.1283,-75.5 1804.1283,-56.5 1704.1283,-56.5"/>
<text text-anchor="middle" x="1754.1283" y="-63.5" font-family="Helvetica,sans-Serif" font-size="10.00" fill="#000000">src/file_type/bmp.c</text>
</a>
</g>
</g>
<!-- Node11&#45;&gt;Node32 -->
<g id="edge38" class="edge">
<title>Node11&#45;&gt;Node32</title>
<path fill="none" stroke="#191970" d="M1410.7903,-115.6497C1476.0915,-107.1874 1594.3552,-91.4758 1695.1283,-76 1698.0036,-75.5584 1700.9557,-75.0939 1703.9334,-74.6165"/>
<polygon fill="#191970" stroke="#191970" points="1410.2441,-112.1911 1400.7754,-116.9444 1411.1416,-119.1333 1410.2441,-112.1911"/>
</g>
<!-- Node33 -->
<g id="node24" class="node">
<title>Node33</title>
<g id="a_node24"><a xlink:href="a00080.xhtml" target="_top" xlink:title="Fichier FLV. ">
<polygon fill="#ffffff" stroke="#000000" points="1822.1283,-56.5 1822.1283,-75.5 1914.1283,-75.5 1914.1283,-56.5 1822.1283,-56.5"/>
<text text-anchor="middle" x="1868.1283" y="-63.5" font-family="Helvetica,sans-Serif" font-size="10.00" fill="#000000">src/file_type/flv.c</text>
</a>
</g>
</g>
<!-- Node11&#45;&gt;Node33 -->
<g id="edge39" class="edge">
<title>Node11&#45;&gt;Node33</title>
<path fill="none" stroke="#191970" d="M1411.0681,-118.206C1494.5543,-111.5752 1667.6438,-96.5965 1813.1283,-76 1816.0111,-75.5919 1818.9736,-75.1421 1821.9574,-74.666"/>
<polygon fill="#191970" stroke="#191970" points="1410.551,-114.7358 1400.8569,-119.0108 1411.101,-121.7142 1410.551,-114.7358"/>
</g>
<!-- Node11&#45;&gt;Node34 -->
<g id="edge40" class="edge">
<title>Node11&#45;&gt;Node34</title>
<path fill="none" stroke="#191970" d="M1411.0028,-121.1497C1620.1015,-117.4475 2426.9548,-101.7546 2680.1283,-76 2683.0224,-75.7056 2685.9891,-75.356 2688.9781,-74.9667"/>
<polygon fill="#191970" stroke="#191970" points="1410.8663,-117.6515 1400.9295,-121.3269 1410.9895,-124.6504 1410.8663,-117.6515"/>
</g>
<!-- Node35 -->
<g id="node26" class="node">
<title>Node35</title>
<g id="a_node26"><a xlink:href="a00092.xhtml" target="_top" xlink:title="Fichier PNG. ">
<polygon fill="#ffffff" stroke="#000000" points="1932.6283,-56.5 1932.6283,-75.5 2029.6283,-75.5 2029.6283,-56.5 1932.6283,-56.5"/>
<text text-anchor="middle" x="1981.1283" y="-63.5" font-family="Helvetica,sans-Serif" font-size="10.00" fill="#000000">src/file_type/png.c</text>
</a>
</g>
</g>
<!-- Node11&#45;&gt;Node35 -->
<g id="edge41" class="edge">
<title>Node11&#45;&gt;Node35</title>
<path fill="none" stroke="#191970" d="M1411.0013,-119.4133C1509.2777,-113.9859 1734.7855,-99.8962 1923.1283,-76 1926.1694,-75.6142 1929.2942,-75.1814 1932.4413,-74.7181"/>
<polygon fill="#191970" stroke="#191970" points="1410.5674,-115.9317 1400.7733,-119.9721 1410.9493,-122.9213 1410.5674,-115.9317"/>
</g>
<!-- Node36 -->
<g id="node27" class="node">
<title>Node36</title>
<g id="a_node27"><a xlink:href="a00101.xhtml" target="_top" xlink:title="Fichier WAVE. ">
<polygon fill="#ffffff" stroke="#000000" points="2047.6283,-56.5 2047.6283,-75.5 2146.6283,-75.5 2146.6283,-56.5 2047.6283,-56.5"/>
<text text-anchor="middle" x="2097.1283" y="-63.5" font-family="Helvetica,sans-Serif" font-size="10.00" fill="#000000">src/file_type/wav.c</text>
</a>
</g>
</g>
<!-- Node11&#45;&gt;Node36 -->
<g id="edge42" class="edge">
<title>Node11&#45;&gt;Node36</title>
<path fill="none" stroke="#191970" d="M1410.9511,-120.3223C1523.221,-116.1685 1804.4282,-103.6743 2038.1283,-76 2041.2235,-75.6335 2044.4034,-75.2155 2047.6058,-74.7633"/>
<polygon fill="#191970" stroke="#191970" points="1410.8029,-116.8253 1400.937,-120.6871 1411.0578,-123.8206 1410.8029,-116.8253"/>
</g>
<!-- Node37 -->
<g id="node28" class="node">
<title>Node37</title>
<g id="a_node28"><a xlink:href="a00107.xhtml" target="_top" xlink:title="Fonction d&#39;initialisation et de libération de la bibliothèque. ">
<polygon fill="#ffffff" stroke="#000000" points="2165.1283,-56.5 2165.1283,-75.5 2219.1283,-75.5 2219.1283,-56.5 2165.1283,-56.5"/>
<text text-anchor="middle" x="2192.1283" y="-63.5" font-family="Helvetica,sans-Serif" font-size="10.00" fill="#000000">src/init.c</text>
</a>
</g>
</g>
<!-- Node11&#45;&gt;Node37 -->
<g id="edge43" class="edge">
<title>Node11&#45;&gt;Node37</title>
<path fill="none" stroke="#191970" d="M1411.3329,-120.4459C1562.3476,-115.5573 2010.8811,-99.4142 2155.1283,-76 2158.281,-75.4883 2161.5523,-74.8168 2164.7867,-74.0637"/>
<polygon fill="#191970" stroke="#191970" points="1410.8648,-116.9591 1400.9823,-120.7784 1411.0896,-123.9555 1410.8648,-116.9591"/>
</g>
<!-- Node38 -->
<g id="node29" class="node">
<title>Node38</title>
<g id="a_node29"><a xlink:href="a00116.xhtml" target="_top" xlink:title="Algorithme de protection des données avec le mot de passe. ">
<polygon fill="#ffffff" stroke="#000000" points="2237.1283,-56.5 2237.1283,-75.5 2321.1283,-75.5 2321.1283,-56.5 2237.1283,-56.5"/>
<text text-anchor="middle" x="2279.1283" y="-63.5" font-family="Helvetica,sans-Serif" font-size="10.00" fill="#000000">src/protection.c</text>
</a>
</g>
</g>
<!-- Node11&#45;&gt;Node38 -->
<g id="edge45" class="edge">
<title>Node11&#45;&gt;Node38</title>
<path fill="none" stroke="#191970" d="M1410.717,-120.288C1570.0921,-114.6412 2068.1231,-95.8316 2228.1283,-76 2230.9937,-75.6449 2233.9396,-75.2223 2236.9011,-74.7546"/>
<polygon fill="#191970" stroke="#191970" points="1410.5865,-116.7904 1400.7162,-120.6408 1410.8334,-123.786 1410.5865,-116.7904"/>
</g>
<!-- Node39 -->
<g id="node30" class="node">
<title>Node39</title>
<g id="a_node30"><a xlink:href="a00128.xhtml" target="_top" xlink:title="Proposition des algorithmes. ">
<polygon fill="#ffffff" stroke="#000000" points="2339.1283,-56.5 2339.1283,-75.5 2425.1283,-75.5 2425.1283,-56.5 2339.1283,-56.5"/>
<text text-anchor="middle" x="2382.1283" y="-63.5" font-family="Helvetica,sans-Serif" font-size="10.00" fill="#000000">src/sugg_algo.c</text>
</a>
</g>
</g>
<!-- Node11&#45;&gt;Node39 -->
<g id="edge46" class="edge">
<title>Node11&#45;&gt;Node39</title>
<path fill="none" stroke="#191970" d="M1410.6898,-120.5828C1582.1094,-115.5349 2149.2399,-97.5751 2330.1283,-76 2333.0495,-75.6516 2336.0528,-75.234 2339.0722,-74.7701"/>
<polygon fill="#191970" stroke="#191970" points="1410.5796,-117.0845 1400.6864,-120.876 1410.7847,-124.0815 1410.5796,-117.0845"/>
</g>
<!-- Node13&#45;&gt;Node14 -->
<g id="edge4" class="edge">
<title>Node13&#45;&gt;Node14</title>
<path fill="none" stroke="#191970" d="M92.4465,-52.6541C118.7063,-42.4419 154.2775,-28.6086 177.6969,-19.5011"/>
<polygon fill="#191970" stroke="#191970" points="90.9343,-49.4867 82.8828,-56.3733 93.4715,-56.0108 90.9343,-49.4867"/>
</g>
<!-- Node13&#45;&gt;Node15 -->
<g id="edge5" class="edge">
<title>Node13&#45;&gt;Node15</title>
<path fill="none" stroke="#191970" d="M107.2763,-54.2381C152.9564,-43.3061 219.7231,-27.3277 259.2672,-17.8642"/>
<polygon fill="#191970" stroke="#191970" points="106.2054,-50.8955 97.2947,-56.6269 107.8347,-57.7032 106.2054,-50.8955"/>
</g>
<!-- Node17&#45;&gt;Node14 -->
<g id="edge8" class="edge">
<title>Node17&#45;&gt;Node14</title>
<path fill="none" stroke="#191970" d="M168.4405,-48.5004C176.7731,-38.9775 186.7637,-27.5596 193.691,-19.6427"/>
<polygon fill="#191970" stroke="#191970" points="165.6145,-46.415 161.6635,-56.2455 170.8826,-51.0245 165.6145,-46.415"/>
</g>
<!-- Node17&#45;&gt;Node15 -->
<g id="edge9" class="edge">
<title>Node17&#45;&gt;Node15</title>
<path fill="none" stroke="#191970" d="M186.5904,-52.5189C211.9052,-42.3201 246.0386,-28.5685 268.5452,-19.5011"/>
<polygon fill="#191970" stroke="#191970" points="184.9909,-49.3899 177.0233,-56.3733 187.6068,-55.8827 184.9909,-49.3899"/>
</g>
<!-- Node19&#45;&gt;Node11 -->
<g id="edge13" class="edge">
<title>Node19&#45;&gt;Node11</title>
<path fill="none" stroke="#191970" d="M2566.8887,-76.4584C2317.1892,-100.0886 1580.3328,-117.3865 1400.8177,-121.2079"/>
<polygon fill="#191970" stroke="#191970" points="2567.3762,-79.9276 2576.9886,-75.4722 2566.6958,-72.9607 2567.3762,-79.9276"/>
</g>
<!-- Node19&#45;&gt;Node18 -->
<g id="edge12" class="edge">
<title>Node19&#45;&gt;Node18</title>
<path fill="none" stroke="#191970" d="M2611.8604,-47.9209C2605.4796,-38.5176 2597.9353,-27.3997 2592.6716,-19.6427"/>
<polygon fill="#191970" stroke="#191970" points="2608.998,-49.936 2617.5092,-56.2455 2614.7904,-46.0055 2608.998,-49.936"/>
</g>
<!-- Node20&#45;&gt;Node14 -->
<g id="edge15" class="edge">
<title>Node20&#45;&gt;Node14</title>
<path fill="none" stroke="#191970" d="M508.1543,-55.8812C392.4597,-39.1865 361.5051,-39.3197 250.1283,-20 246.1026,-19.3017 241.899,-18.5137 237.7258,-17.6941"/>
<polygon fill="#191970" stroke="#191970" points="507.7167,-59.3543 518.1163,-57.3299 508.7241,-52.4272 507.7167,-59.3543"/>
</g>
<!-- Node20&#45;&gt;Node15 -->
<g id="edge16" class="edge">
<title>Node20&#45;&gt;Node15</title>
<path fill="none" stroke="#191970" d="M515.8737,-54.4317C458.0042,-42.9399 371.3567,-25.7333 324.6887,-16.4659"/>
<polygon fill="#191970" stroke="#191970" points="515.481,-57.922 525.9712,-56.4369 516.8445,-51.0561 515.481,-57.922"/>
</g>
<!-- Node22&#45;&gt;Node14 -->
<g id="edge19" class="edge">
<title>Node22&#45;&gt;Node14</title>
<path fill="none" stroke="#191970" d="M232.8338,-48.2112C225.2287,-38.7472 216.1745,-27.4797 209.8769,-19.6427"/>
<polygon fill="#191970" stroke="#191970" points="230.2977,-50.6428 239.2899,-56.2455 235.7543,-46.2581 230.2977,-50.6428"/>
</g>
<!-- Node22&#45;&gt;Node15 -->
<g id="edge20" class="edge">
<title>Node22&#45;&gt;Node15</title>
<path fill="none" stroke="#191970" d="M261.4229,-48.2112C269.0279,-38.7472 278.0822,-27.4797 284.3798,-19.6427"/>
<polygon fill="#191970" stroke="#191970" points="258.5024,-46.2581 254.9667,-56.2455 263.959,-50.6428 258.5024,-46.2581"/>
</g>
<!-- Node24&#45;&gt;Node14 -->
<g id="edge23" class="edge">
<title>Node24&#45;&gt;Node14</title>
<path fill="none" stroke="#191970" d="M318.2694,-52.7888C290.516,-42.5639 252.7464,-28.6488 227.9171,-19.5011"/>
<polygon fill="#191970" stroke="#191970" points="317.4052,-56.2003 327.9986,-56.3733 319.8252,-49.6319 317.4052,-56.2003"/>
</g>
<!-- Node24&#45;&gt;Node15 -->
<g id="edge24" class="edge">
<title>Node24&#45;&gt;Node15</title>
<path fill="none" stroke="#191970" d="M335.7063,-49.3607C324.9802,-39.6727 311.835,-27.7995 302.8042,-19.6427"/>
<polygon fill="#191970" stroke="#191970" points="333.5617,-52.14 343.3288,-56.2455 338.2537,-46.9453 333.5617,-52.14"/>
</g>
<!-- Node26&#45;&gt;Node11 -->
<g id="edge27" class="edge">
<title>Node26&#45;&gt;Node11</title>
<path fill="none" stroke="#191970" d="M1131.3674,-76.5856C1188.4358,-87.2403 1272.3766,-103.4743 1321.4874,-113.3727"/>
<polygon fill="#191970" stroke="#191970" points="1131.8635,-73.1179 1121.3919,-74.7293 1130.5828,-79.9998 1131.8635,-73.1179"/>
</g>
<!-- Node27&#45;&gt;Node11 -->
<g id="edge29" class="edge">
<title>Node27&#45;&gt;Node11</title>
<path fill="none" stroke="#191970" d="M1232.5995,-78.5385C1265.7155,-88.7725 1309.5684,-103.021 1336.6306,-112.3733"/>
<polygon fill="#191970" stroke="#191970" points="1233.2841,-75.0875 1222.6973,-75.5011 1231.2313,-81.7798 1233.2841,-75.0875"/>
</g>
<!-- Node28&#45;&gt;Node11 -->
<g id="edge31" class="edge">
<title>Node28&#45;&gt;Node11</title>
<path fill="none" stroke="#191970" d="M1326.8299,-82.2232C1337.7044,-91.9416 1349.645,-103.9746 1356.4665,-112.2455"/>
<polygon fill="#191970" stroke="#191970" points="1329.0498,-79.516 1319.1883,-75.6427 1324.482,-84.8203 1329.0498,-79.516"/>
</g>
<!-- Node29&#45;&gt;Node11 -->
<g id="edge34" class="edge">
<title>Node29&#45;&gt;Node11</title>
<path fill="none" stroke="#191970" d="M1406.7499,-83.3656C1397.9233,-92.8706 1385.9506,-104.2958 1376.3238,-112.2455"/>
<polygon fill="#191970" stroke="#191970" points="1409.5708,-85.4584 1413.5586,-75.6427 1404.32,-80.8292 1409.5708,-85.4584"/>
</g>
</g>
</svg>
        <g id="navigator" transform="translate(0 0)" fill="#404254">
                <rect fill="#f2f5e9" fill-opacity="0.5" stroke="#606060" stroke-width=".5" x="0" y="0" width="60" height="60"/>
                <use id="zoomplus" xlink:href="#zoomPlus" x="17" y="9" onmousedown="handleZoom(evt,'in')"/>
                <use id="zoomminus" xlink:href="#zoomMin" x="42" y="9" onmousedown="handleZoom(evt,'out')"/>
                <use id="reset" xlink:href="#resetDef" x="30" y="36" onmousedown="handleReset()"/>
                <g id="arrowUp" xlink:href="#dirArrow" transform="translate(30 24)" onmousedown="handlePan(0,-1)">
                  <use xlink:href="#rim" fill="#404040">
                        <set attributeName="fill" to="#808080" begin="arrowUp.mouseover" end="arrowUp.mouseout"/>
                  </use>
                  <path fill="none" stroke="white" stroke-width="1.5" d="M0,-3.0v7 M-2.5,-0.5L0,-3.0L2.5,-0.5"/>
                </g>
                <g id="arrowRight" xlink:href="#dirArrow" transform="rotate(90) translate(36 -43)" onmousedown="handlePan(1,0)">
                  <use xlink:href="#rim" fill="#404040">
                        <set attributeName="fill" to="#808080" begin="arrowRight.mouseover" end="arrowRight.mouseout"/>
                  </use>
                  <path fill="none" stroke="white" stroke-width="1.5" d="M0,-3.0v7 M-2.5,-0.5L0,-3.0L2.5,-0.5"/>
                </g>
                <g id="arrowDown" xlink:href="#dirArrow" transform="rotate(180) translate(-30 -48)" onmousedown="handlePan(0,1)">
                  <use xlink:href="#rim" fill="#404040">
                        <set attributeName="fill" to="#808080" begin="arrowDown.mouseover" end="arrowDown.mouseout"/>
                  </use>
                  <path fill="none" stroke="white" stroke-width="1.5" d="M0,-3.0v7 M-2.5,-0.5L0,-3.0L2.5,-0.5"/>
                </g>
                <g id="arrowLeft" xlink:href="#dirArrow" transform="rotate(270) translate(-36 17)" onmousedown="handlePan(-1,0)">
                  <use xlink:href="#rim" fill="#404040">
                        <set attributeName="fill" to="#808080" begin="arrowLeft.mouseover" end="arrowLeft.mouseout"/>
                  </use>
                  <path fill="none" stroke="white" stroke-width="1.5" d="M0,-3.0v7 M-2.5,-0.5L0,-3.0L2.5,-0.5"/>
                </g>
        </g>
        <svg viewBox="0 0 15 15" width="100%" height="30px" preserveAspectRatio="xMaxYMin meet">
         <g id="arrow_out" transform="scale(0.3 0.3)">
          <a xlink:href="a00091_org.svg" target="_base">
           <rect id="button" ry="5" rx="5" y="6" x="6" height="38" width="38"
                fill="#f2f5e9" fill-opacity="0.5" stroke="#606060" stroke-width="1.0"/>
           <path id="arrow"
             d="M 11.500037,31.436501 C 11.940474,20.09759 22.043105,11.32322 32.158766,21.979434 L 37.068811,17.246167 C 37.068811,17.246167 37.088388,32 37.088388,32 L 22.160133,31.978069 C 22.160133,31.978069 26.997745,27.140456 26.997745,27.140456 C 18.528582,18.264221 13.291696,25.230495 11.500037,31.436501 z"
             style="fill:#404040;"/>
          </a>
         </g>
        </svg>
</svg>
