<?xml version="1.0" encoding="UTF-8" standalone="no"?>
<!DOCTYPE svg PUBLIC "-//W3C//DTD SVG 1.1//EN"
 "http://www.w3.org/Graphics/SVG/1.1/DTD/svg11.dtd">
<!-- Generated by graphviz version 2.40.1 (20161225.0304)
 -->
<!-- Title: src/algo/lsb.c Pages: 1 -->
<!--zoomable 196 -->
<svg id="main" version="1.1" xmlns="http://www.w3.org/2000/svg" xmlns:xlink="http://www.w3.org/1999/xlink" xml:space="preserve" onload="init(evt)">
<style type="text/css"><![CDATA[
.edge:hover path { stroke: red; }
.edge:hover polygon { stroke: red; fill: red; }
]]></style>
<script type="text/javascript"><![CDATA[
var edges = document.getElementsByTagName('g');
if (edges && edges.length) {
  for (var i=0;i<edges.length;i++) {
    if (edges[i].id.substr(0,4)=='edge') {
      edges[i].setAttribute('class','edge');
    }
  }
}
]]></script>
        <defs>
                <circle id="rim" cx="0" cy="0" r="7"/>
                <circle id="rim2" cx="0" cy="0" r="3.5"/>
                <g id="zoomPlus">
                        <use xlink:href="#rim" fill="#404040">
                                <set attributeName="fill" to="#808080" begin="zoomplus.mouseover" end="zoomplus.mouseout"/>
                        </use>
                        <path d="M-4,0h8M0,-4v8" fill="none" stroke="white" stroke-width="1.5" pointer-events="none"/>
                </g>
                <g id="zoomMin">
                        <use xlink:href="#rim" fill="#404040">
                                <set attributeName="fill" to="#808080" begin="zoomminus.mouseover" end="zoomminus.mouseout"/>
                        </use>
                        <path d="M-4,0h8" fill="none" stroke="white" stroke-width="1.5" pointer-events="none"/>
                </g>
                <g id="dirArrow">
                        <path fill="none" stroke="white" stroke-width="1.5" d="M0,-3.0v7 M-2.5,-0.5L0,-3.0L2.5,-0.5"/>
                </g>
               <g id="resetDef">
                       <use xlink:href="#rim2" fill="#404040">
                               <set attributeName="fill" to="#808080" begin="reset.mouseover" end="reset.mouseout"/>
                       </use>
               </g>
        </defs>

<script type="text/javascript">
var viewWidth = 1120;
var viewHeight = 196;
var sectionId = 'dynsection-0';
</script>
<script xlink:href="svgpan.js"/>
<svg id="graph" class="graph">
<g id="viewport">
<title>src/algo/lsb.c</title>
<polygon fill="#ffffff" stroke="transparent" points="-4,4 -4,-192 1116.4765,-192 1116.4765,4 -4,4"/>
<!-- Node0 -->
<g id="node1" class="node">
<title>Node0</title>
<polygon fill="#bfbfbf" stroke="#000000" points="770.7774,-168.5 770.7774,-187.5 845.7774,-187.5 845.7774,-168.5 770.7774,-168.5"/>
<text text-anchor="middle" x="808.2774" y="-175.5" font-family="Helvetica,sans-Serif" font-size="10.00" fill="#000000">src/algo/lsb.c</text>
</g>
<!-- Node1 -->
<g id="node2" class="node">
<title>Node1</title>
<polygon fill="#ffffff" stroke="#bfbfbf" points="234.2774,-.5 234.2774,-19.5 280.2774,-19.5 280.2774,-.5 234.2774,-.5"/>
<text text-anchor="middle" x="257.2774" y="-7.5" font-family="Helvetica,sans-Serif" font-size="10.00" fill="#000000">stdio.h</text>
</g>
<!-- Node0&#45;&gt;Node1 -->
<g id="edge1" class="edge">
<title>Node0&#45;&gt;Node1</title>
<path fill="none" stroke="#191970" d="M770.618,-176.1702C618.3837,-168.3867 54.2446,-135.667 4.2774,-76 -1.4296,-69.1851 -1.4181,-62.8245 4.2774,-56 31.9268,-22.8701 162.0884,-13.5448 224.1728,-10.9643"/>
<polygon fill="#191970" stroke="#191970" points="224.3719,-14.4593 234.2313,-10.5809 224.1052,-7.4644 224.3719,-14.4593"/>
</g>
<!-- Node2 -->
<g id="node3" class="node">
<title>Node2</title>
<polygon fill="#ffffff" stroke="#bfbfbf" points="726.2774,-56.5 726.2774,-75.5 774.2774,-75.5 774.2774,-56.5 726.2774,-56.5"/>
<text text-anchor="middle" x="750.2774" y="-63.5" font-family="Helvetica,sans-Serif" font-size="10.00" fill="#000000">stdlib.h</text>
</g>
<!-- Node0&#45;&gt;Node2 -->
<g id="edge2" class="edge">
<title>Node0&#45;&gt;Node2</title>
<path fill="none" stroke="#191970" d="M803.3323,-168.4509C793.7442,-149.936 772.4723,-108.8591 759.971,-84.7187"/>
<polygon fill="#191970" stroke="#191970" points="762.9165,-82.7953 755.2099,-75.5249 756.7005,-86.0144 762.9165,-82.7953"/>
</g>
<!-- Node3 -->
<g id="node4" class="node">
<title>Node3</title>
<polygon fill="#ffffff" stroke="#bfbfbf" points="527.7774,-.5 527.7774,-19.5 576.7774,-19.5 576.7774,-.5 527.7774,-.5"/>
<text text-anchor="middle" x="552.2774" y="-7.5" font-family="Helvetica,sans-Serif" font-size="10.00" fill="#000000">stdint.h</text>
</g>
<!-- Node0&#45;&gt;Node3 -->
<g id="edge3" class="edge">
<title>Node0&#45;&gt;Node3</title>
<path fill="none" stroke="#191970" d="M846.0759,-175.2795C940.3662,-167.1932 1173.1061,-138.4986 1097.2774,-56 1062.7331,-18.4172 701.6816,-11.5159 587.0207,-10.2696"/>
<polygon fill="#191970" stroke="#191970" points="587.0548,-6.7699 577.0199,-10.1687 586.984,-13.7695 587.0548,-6.7699"/>
</g>
<!-- Node4 -->
<g id="node5" class="node">
<title>Node4</title>
<polygon fill="#ffffff" stroke="#bfbfbf" points="702.2774,-112.5 702.2774,-131.5 754.2774,-131.5 754.2774,-112.5 702.2774,-112.5"/>
<text text-anchor="middle" x="728.2774" y="-119.5" font-family="Helvetica,sans-Serif" font-size="10.00" fill="#000000">assert.h</text>
</g>
<!-- Node0&#45;&gt;Node4 -->
<g id="edge4" class="edge">
<title>Node0&#45;&gt;Node4</title>
<path fill="none" stroke="#191970" d="M794.3425,-168.2455C782.1827,-159.7337 764.3309,-147.2375 750.2489,-137.3801"/>
<polygon fill="#191970" stroke="#191970" points="752.2521,-134.51 742.0526,-131.6427 748.2378,-140.2447 752.2521,-134.51"/>
</g>
<!-- Node5 -->
<g id="node6" class="node">
<title>Node5</title>
<g id="a_node6"><a xlink:href="a00047.xhtml" target="_top" xlink:title="Définitions communes à la partie privée de la bibliothèque. ">
<polygon fill="#ffffff" stroke="#000000" points="327.2774,-112.5 327.2774,-131.5 389.2774,-131.5 389.2774,-112.5 327.2774,-112.5"/>
<text text-anchor="middle" x="358.2774" y="-119.5" font-family="Helvetica,sans-Serif" font-size="10.00" fill="#000000">common.h</text>
</a>
</g>
</g>
<!-- Node0&#45;&gt;Node5 -->
<g id="edge5" class="edge">
<title>Node0&#45;&gt;Node5</title>
<path fill="none" stroke="#191970" d="M770.6846,-173.3218C687.0549,-162.9145 486.1718,-137.9157 399.3727,-127.1141"/>
<polygon fill="#191970" stroke="#191970" points="399.7243,-123.6309 389.3686,-125.8691 398.8598,-130.5773 399.7243,-123.6309"/>
</g>
<!-- Node6 -->
<g id="node7" class="node">
<title>Node6</title>
<g id="a_node7"><a xlink:href="a00008.xhtml" target="_top" xlink:title="Définitions communes à la partie privée et public de la bibliothèque. ">
<polygon fill="#ffffff" stroke="#000000" points="792.2774,-56.5 792.2774,-75.5 884.2774,-75.5 884.2774,-56.5 792.2774,-56.5"/>
<text text-anchor="middle" x="838.2774" y="-63.5" font-family="Helvetica,sans-Serif" font-size="10.00" fill="#000000">stegx_common.h</text>
</a>
</g>
</g>
<!-- Node0&#45;&gt;Node6 -->
<g id="edge32" class="edge">
<title>Node0&#45;&gt;Node6</title>
<path fill="none" stroke="#191970" d="M829.399,-168.4622C843.5277,-160.8191 860.9946,-148.6199 869.2774,-132 877.4138,-115.6738 866.5694,-96.8165 855.5338,-83.4499"/>
<polygon fill="#191970" stroke="#191970" points="858.0747,-81.0406 848.8058,-75.9086 852.8513,-85.7007 858.0747,-81.0406"/>
</g>
<!-- Node13 -->
<g id="node14" class="node">
<title>Node13</title>
<g id="a_node14"><a xlink:href="a00011.xhtml" target="_top" xlink:title="Module de gestion des erreurs. ">
<polygon fill="#ffffff" stroke="#000000" points="1008.7774,-56.5 1008.7774,-75.5 1087.7774,-75.5 1087.7774,-56.5 1008.7774,-56.5"/>
<text text-anchor="middle" x="1048.2774" y="-63.5" font-family="Helvetica,sans-Serif" font-size="10.00" fill="#000000">stegx_errors.h</text>
</a>
</g>
</g>
<!-- Node0&#45;&gt;Node13 -->
<g id="edge33" class="edge">
<title>Node0&#45;&gt;Node13</title>
<path fill="none" stroke="#191970" d="M846.0491,-175.504C885.4486,-171.3986 947.7077,-160.5624 993.2774,-132 1012.1457,-120.1736 1027.7125,-99.694 1037.4112,-84.6763"/>
<polygon fill="#191970" stroke="#191970" points="1040.6496,-86.0924 1042.9131,-75.7422 1034.6891,-82.4218 1040.6496,-86.0924"/>
</g>
<!-- Node14 -->
<g id="node15" class="node">
<title>Node14</title>
<g id="a_node15"><a xlink:href="a00119.xhtml" target="_top" xlink:title="Algorithme de protection des données avec le mot de passe. ">
<polygon fill="#ffffff" stroke="#000000" points="916.2774,-112.5 916.2774,-131.5 984.2774,-131.5 984.2774,-112.5 916.2774,-112.5"/>
<text text-anchor="middle" x="950.2774" y="-119.5" font-family="Helvetica,sans-Serif" font-size="10.00" fill="#000000">protection.h</text>
</a>
</g>
</g>
<!-- Node0&#45;&gt;Node14 -->
<g id="edge34" class="edge">
<title>Node0&#45;&gt;Node14</title>
<path fill="none" stroke="#191970" d="M832.6881,-168.3733C855.8916,-159.2226 890.9812,-145.3844 916.7916,-135.2057"/>
<polygon fill="#191970" stroke="#191970" points="918.1666,-138.4258 926.1853,-131.5011 915.5985,-131.9139 918.1666,-138.4258"/>
</g>
<!-- Node16 -->
<g id="node17" class="node">
<title>Node16</title>
<g id="a_node17"><a xlink:href="a00113.xhtml" target="_top" xlink:title="Insertion des données cachées dans une copie de l&#39;hôte. ">
<polygon fill="#ffffff" stroke="#000000" points="810.7774,-112.5 810.7774,-131.5 859.7774,-131.5 859.7774,-112.5 810.7774,-112.5"/>
<text text-anchor="middle" x="835.2774" y="-119.5" font-family="Helvetica,sans-Serif" font-size="10.00" fill="#000000">insert.h</text>
</a>
</g>
</g>
<!-- Node0&#45;&gt;Node16 -->
<g id="edge39" class="edge">
<title>Node0&#45;&gt;Node16</title>
<path fill="none" stroke="#191970" d="M812.9804,-168.2455C816.6197,-160.6973 821.7698,-150.0158 826.2036,-140.8197"/>
<polygon fill="#191970" stroke="#191970" points="829.4379,-142.1704 830.6282,-131.6427 823.1325,-139.1303 829.4379,-142.1704"/>
</g>
<!-- Node17 -->
<g id="node18" class="node">
<title>Node17</title>
<g id="a_node18"><a xlink:href="a00125.xhtml" target="_top" xlink:title="Module qui s&#39;occupe de l&#39;aléatoire. ">
<polygon fill="#ffffff" stroke="#000000" points="640.2774,-112.5 640.2774,-131.5 684.2774,-131.5 684.2774,-112.5 640.2774,-112.5"/>
<text text-anchor="middle" x="662.2774" y="-119.5" font-family="Helvetica,sans-Serif" font-size="10.00" fill="#000000">rand.h</text>
</a>
</g>
</g>
<!-- Node0&#45;&gt;Node17 -->
<g id="edge41" class="edge">
<title>Node0&#45;&gt;Node17</title>
<path fill="none" stroke="#191970" d="M783.1791,-168.3733C758.599,-158.9453 721.0461,-144.5414 694.3208,-134.2906"/>
<polygon fill="#191970" stroke="#191970" points="695.248,-130.8977 684.6578,-130.5843 692.7411,-137.4334 695.248,-130.8977"/>
</g>
<!-- Node5&#45;&gt;Node1 -->
<g id="edge6" class="edge">
<title>Node5&#45;&gt;Node1</title>
<path fill="none" stroke="#191970" d="M327.0784,-120.1637C245.8947,-115.0691 32.9141,-99.562 12.2774,-76 6.4208,-69.3132 6.6015,-62.8408 12.2774,-56 38.8031,-24.0305 163.3204,-14.1408 223.9454,-11.1936"/>
<polygon fill="#191970" stroke="#191970" points="224.307,-14.681 234.1394,-10.7346 223.9921,-7.688 224.307,-14.681"/>
</g>
<!-- Node5&#45;&gt;Node3 -->
<g id="edge7" class="edge">
<title>Node5&#45;&gt;Node3</title>
<path fill="none" stroke="#191970" d="M389.7111,-120.8974C449.5948,-118.0656 576.4717,-108.307 603.2774,-76 617.3899,-58.9913 596.5472,-38.8041 577.4131,-25.2741"/>
<polygon fill="#191970" stroke="#191970" points="579.1315,-22.2127 568.8737,-19.5614 575.2392,-28.0309 579.1315,-22.2127"/>
</g>
<!-- Node5&#45;&gt;Node6 -->
<g id="edge8" class="edge">
<title>Node5&#45;&gt;Node6</title>
<path fill="none" stroke="#191970" d="M389.3028,-119.4138C458.0994,-113.514 628.8324,-97.9635 782.0386,-76.094"/>
<polygon fill="#191970" stroke="#191970" points="782.7045,-79.5343 792.1034,-74.6444 781.7066,-72.6058 782.7045,-79.5343"/>
</g>
<!-- Node7 -->
<g id="node8" class="node">
<title>Node7</title>
<g id="a_node8"><a xlink:href="a00077.xhtml" target="_top" xlink:title="Fichier BMP. ">
<polygon fill="#ffffff" stroke="#000000" points="510.7774,-56.5 510.7774,-75.5 593.7774,-75.5 593.7774,-56.5 510.7774,-56.5"/>
<text text-anchor="middle" x="552.2774" y="-63.5" font-family="Helvetica,sans-Serif" font-size="10.00" fill="#000000">file_type/bmp.h</text>
</a>
</g>
</g>
<!-- Node5&#45;&gt;Node7 -->
<g id="edge9" class="edge">
<title>Node5&#45;&gt;Node7</title>
<path fill="none" stroke="#191970" d="M386.3852,-112.3733C417.218,-102.9404 467.0001,-88.5265 504.0572,-78.2747"/>
<polygon fill="#191970" stroke="#191970" points="505.4311,-81.5269 514.1455,-75.5011 503.5754,-74.7774 505.4311,-81.5269"/>
</g>
<!-- Node8 -->
<g id="node9" class="node">
<title>Node8</title>
<g id="a_node9"><a xlink:href="a00095.xhtml" target="_top" xlink:title="Fichier PNG. ">
<polygon fill="#ffffff" stroke="#000000" points="117.2774,-56.5 117.2774,-75.5 197.2774,-75.5 197.2774,-56.5 117.2774,-56.5"/>
<text text-anchor="middle" x="157.2774" y="-63.5" font-family="Helvetica,sans-Serif" font-size="10.00" fill="#000000">file_type/png.h</text>
</a>
</g>
</g>
<!-- Node5&#45;&gt;Node8 -->
<g id="edge13" class="edge">
<title>Node5&#45;&gt;Node8</title>
<path fill="none" stroke="#191970" d="M327.2689,-114.679C291.9449,-105.4802 234.4498,-89.5535 196.1767,-78.4314"/>
<polygon fill="#191970" stroke="#191970" points="196.9868,-75.0217 186.4063,-75.573 195.0212,-81.7401 196.9868,-75.0217"/>
</g>
<!-- Node9 -->
<g id="node10" class="node">
<title>Node9</title>
<g id="a_node10"><a xlink:href="a00104.xhtml" target="_top" xlink:title="Fichier WAVE. ">
<polygon fill="#ffffff" stroke="#000000" points="215.7774,-56.5 215.7774,-75.5 298.7774,-75.5 298.7774,-56.5 215.7774,-56.5"/>
<text text-anchor="middle" x="257.2774" y="-63.5" font-family="Helvetica,sans-Serif" font-size="10.00" fill="#000000">file_type/wav.h</text>
</a>
</g>
</g>
<!-- Node5&#45;&gt;Node9 -->
<g id="edge17" class="edge">
<title>Node5&#45;&gt;Node9</title>
<path fill="none" stroke="#191970" d="M335.6728,-112.3733C318.2652,-103.666 294.6461,-90.7145 277.7854,-80.7102"/>
<polygon fill="#191970" stroke="#191970" points="279.5615,-77.694 269.1961,-75.5011 275.9316,-83.6793 279.5615,-77.694"/>
</g>
<!-- Node10 -->
<g id="node11" class="node">
<title>Node10</title>
<g id="a_node11"><a xlink:href="a00089.xhtml" target="_top" xlink:title="Fichier MP3. ">
<polygon fill="#ffffff" stroke="#000000" points="316.7774,-56.5 316.7774,-75.5 399.7774,-75.5 399.7774,-56.5 316.7774,-56.5"/>
<text text-anchor="middle" x="358.2774" y="-63.5" font-family="Helvetica,sans-Serif" font-size="10.00" fill="#000000">file_type/mp3.h</text>
</a>
</g>
</g>
<!-- Node5&#45;&gt;Node10 -->
<g id="edge21" class="edge">
<title>Node5&#45;&gt;Node10</title>
<path fill="none" stroke="#191970" d="M353.0105,-112.2455C351.5995,-104.9382 351.1953,-94.6944 351.7979,-85.7046"/>
<polygon fill="#191970" stroke="#191970" points="355.2885,-85.9945 353.0322,-75.6427 348.3406,-85.1421 355.2885,-85.9945"/>
</g>
<!-- Node11 -->
<g id="node12" class="node">
<title>Node11</title>
<g id="a_node12"><a xlink:href="a00071.xhtml" target="_top" xlink:title="Fichier AVI. ">
<polygon fill="#ffffff" stroke="#000000" points="21.7774,-56.5 21.7774,-75.5 98.7774,-75.5 98.7774,-56.5 21.7774,-56.5"/>
<text text-anchor="middle" x="60.2774" y="-63.5" font-family="Helvetica,sans-Serif" font-size="10.00" fill="#000000">file_type/avi.h</text>
</a>
</g>
</g>
<!-- Node5&#45;&gt;Node11 -->
<g id="edge25" class="edge">
<title>Node5&#45;&gt;Node11</title>
<path fill="none" stroke="#191970" d="M326.9198,-117.4318C279.7864,-109.698 188.4116,-93.3542 106.6674,-77.4396"/>
<polygon fill="#191970" stroke="#191970" points="107.2356,-73.9845 96.7499,-75.5016 105.893,-80.8546 107.2356,-73.9845"/>
</g>
<!-- Node12 -->
<g id="node13" class="node">
<title>Node12</title>
<g id="a_node13"><a xlink:href="a00083.xhtml" target="_top" xlink:title="Fichier FLV. ">
<polygon fill="#ffffff" stroke="#000000" points="417.7774,-56.5 417.7774,-75.5 492.7774,-75.5 492.7774,-56.5 417.7774,-56.5"/>
<text text-anchor="middle" x="455.2774" y="-63.5" font-family="Helvetica,sans-Serif" font-size="10.00" fill="#000000">file_type/flv.h</text>
</a>
</g>
</g>
<!-- Node5&#45;&gt;Node12 -->
<g id="edge28" class="edge">
<title>Node5&#45;&gt;Node12</title>
<path fill="none" stroke="#191970" d="M369.9067,-112.2455C383.4393,-103.4527 405.7945,-90.4079 424.3257,-80.4125"/>
<polygon fill="#191970" stroke="#191970" points="426.1315,-83.4167 433.3298,-75.6427 422.8547,-77.2311 426.1315,-83.4167"/>
</g>
<!-- Node7&#45;&gt;Node1 -->
<g id="edge10" class="edge">
<title>Node7&#45;&gt;Node1</title>
<path fill="none" stroke="#191970" d="M510.5428,-57.6148C507.7463,-57.0648 504.9715,-56.5223 502.2774,-56 426.6358,-41.3353 337.7097,-24.8198 290.5606,-16.1204"/>
<polygon fill="#191970" stroke="#191970" points="291.0725,-12.6558 280.6036,-14.2849 289.8034,-19.5398 291.0725,-12.6558"/>
</g>
<!-- Node7&#45;&gt;Node3 -->
<g id="edge11" class="edge">
<title>Node7&#45;&gt;Node3</title>
<path fill="none" stroke="#191970" d="M552.2774,-56.2455C552.2774,-48.9382 552.2774,-38.6944 552.2774,-29.7046"/>
<polygon fill="#191970" stroke="#191970" points="555.7775,-29.6426 552.2774,-19.6427 548.7775,-29.6427 555.7775,-29.6426"/>
</g>
<!-- Node7&#45;&gt;Node5 -->
<g id="edge12" class="edge">
<title>Node7&#45;&gt;Node5</title>
<path fill="none" stroke="#191970" d="M524.4497,-75.541C491.6095,-85.5933 437.0008,-101.3705 399.3284,-111.7001"/>
<polygon fill="#191970" stroke="#191970" points="398.3922,-108.3275 389.6623,-114.3309 400.2305,-115.0819 398.3922,-108.3275"/>
</g>
<!-- Node8&#45;&gt;Node1 -->
<g id="edge14" class="edge">
<title>Node8&#45;&gt;Node1</title>
<path fill="none" stroke="#191970" d="M174.6961,-56.2455C190.3259,-47.4928 213.4792,-34.527 231.2959,-24.5496"/>
<polygon fill="#191970" stroke="#191970" points="233.0434,-27.5825 240.0583,-19.6427 229.6231,-21.475 233.0434,-27.5825"/>
</g>
<!-- Node8&#45;&gt;Node3 -->
<g id="edge15" class="edge">
<title>Node8&#45;&gt;Node3</title>
<path fill="none" stroke="#191970" d="M197.3466,-57.5877C200.3642,-57.0261 203.3664,-56.4899 206.2774,-56 319.5389,-36.9372 454.7492,-20.8866 517.3234,-13.8372"/>
<polygon fill="#191970" stroke="#191970" points="517.8872,-17.296 527.4358,-12.7053 517.1085,-10.3395 517.8872,-17.296"/>
</g>
<!-- Node8&#45;&gt;Node5 -->
<g id="edge16" class="edge">
<title>Node8&#45;&gt;Node5</title>
<path fill="none" stroke="#191970" d="M196.5969,-75.5011C232.003,-84.8494 283.6003,-99.1765 318.9908,-109.4561"/>
<polygon fill="#191970" stroke="#191970" points="318.3859,-112.9257 328.9663,-112.3733 320.3507,-106.2071 318.3859,-112.9257"/>
</g>
<!-- Node9&#45;&gt;Node1 -->
<g id="edge18" class="edge">
<title>Node9&#45;&gt;Node1</title>
<path fill="none" stroke="#191970" d="M257.2774,-56.2455C257.2774,-48.9382 257.2774,-38.6944 257.2774,-29.7046"/>
<polygon fill="#191970" stroke="#191970" points="260.7775,-29.6426 257.2774,-19.6427 253.7775,-29.6427 260.7775,-29.6426"/>
</g>
<!-- Node9&#45;&gt;Node3 -->
<g id="edge19" class="edge">
<title>Node9&#45;&gt;Node3</title>
<path fill="none" stroke="#191970" d="M299.012,-57.6148C301.8085,-57.0648 304.5833,-56.5223 307.2774,-56 382.1289,-41.4885 469.989,-25.1646 517.5033,-16.3955"/>
<polygon fill="#191970" stroke="#191970" points="518.3689,-19.795 527.5684,-14.5396 517.0995,-12.911 518.3689,-19.795"/>
</g>
<!-- Node9&#45;&gt;Node5 -->
<g id="edge20" class="edge">
<title>Node9&#45;&gt;Node5</title>
<path fill="none" stroke="#191970" d="M279.9138,-75.6427C297.1775,-84.2794 320.5374,-97.0824 337.359,-107.0465"/>
<polygon fill="#191970" stroke="#191970" points="335.5837,-110.0632 345.9514,-112.2455 339.2076,-104.0741 335.5837,-110.0632"/>
</g>
<!-- Node10&#45;&gt;Node1 -->
<g id="edge22" class="edge">
<title>Node10&#45;&gt;Node1</title>
<path fill="none" stroke="#191970" d="M340.6845,-56.2455C324.8984,-47.4928 301.5135,-34.527 283.5187,-24.5496"/>
<polygon fill="#191970" stroke="#191970" points="285.1115,-21.4308 274.6686,-19.6427 281.7171,-27.5528 285.1115,-21.4308"/>
</g>
<!-- Node10&#45;&gt;Node3 -->
<g id="edge23" class="edge">
<title>Node10&#45;&gt;Node3</title>
<path fill="none" stroke="#191970" d="M391.6272,-56.3733C426.828,-46.2122 482.0513,-30.2715 517.7068,-19.9791"/>
<polygon fill="#191970" stroke="#191970" points="519.0186,-23.2434 527.6556,-17.1073 517.0772,-16.518 519.0186,-23.2434"/>
</g>
<!-- Node10&#45;&gt;Node5 -->
<g id="edge24" class="edge">
<title>Node10&#45;&gt;Node5</title>
<path fill="none" stroke="#191970" d="M363.5225,-75.6427C364.9438,-82.9199 365.3584,-93.155 364.766,-102.1575"/>
<polygon fill="#191970" stroke="#191970" points="361.2721,-101.8972 363.5442,-112.2455 368.2213,-102.739 361.2721,-101.8972"/>
</g>
<!-- Node11&#45;&gt;Node1 -->
<g id="edge26" class="edge">
<title>Node11&#45;&gt;Node1</title>
<path fill="none" stroke="#191970" d="M94.1429,-56.3733C130.4888,-46.0414 187.856,-29.734 223.9807,-19.465"/>
<polygon fill="#191970" stroke="#191970" points="225.3551,-22.7131 234.017,-16.6121 223.441,-15.9798 225.3551,-22.7131"/>
</g>
<!-- Node11&#45;&gt;Node5 -->
<g id="edge27" class="edge">
<title>Node11&#45;&gt;Node5</title>
<path fill="none" stroke="#191970" d="M99.0294,-72.3496C105.1919,-73.5858 111.4302,-74.8531 117.2774,-76 187.4792,-89.7693 269.0173,-104.5452 317.1007,-113.5319"/>
<polygon fill="#191970" stroke="#191970" points="316.6529,-117.0089 327.127,-115.4139 317.9444,-110.129 316.6529,-117.0089"/>
</g>
<!-- Node12&#45;&gt;Node1 -->
<g id="edge29" class="edge">
<title>Node12&#45;&gt;Node1</title>
<path fill="none" stroke="#191970" d="M421.24,-56.3733C384.6089,-46.013 326.7333,-29.6441 290.4435,-19.3803"/>
<polygon fill="#191970" stroke="#191970" points="290.944,-15.8846 280.3689,-16.5309 289.0389,-22.6204 290.944,-15.8846"/>
</g>
<!-- Node12&#45;&gt;Node3 -->
<g id="edge30" class="edge">
<title>Node12&#45;&gt;Node3</title>
<path fill="none" stroke="#191970" d="M472.1735,-56.2455C487.1954,-47.5731 509.3817,-34.7645 526.5984,-24.825"/>
<polygon fill="#191970" stroke="#191970" points="528.6645,-27.6737 535.5749,-19.6427 525.1646,-21.6114 528.6645,-27.6737"/>
</g>
<!-- Node12&#45;&gt;Node5 -->
<g id="edge31" class="edge">
<title>Node12&#45;&gt;Node5</title>
<path fill="none" stroke="#191970" d="M443.82,-75.6427C430.3626,-84.3993 408.0287,-97.4388 389.4653,-107.46"/>
<polygon fill="#191970" stroke="#191970" points="387.6355,-104.4686 380.4403,-112.2455 390.9148,-110.653 387.6355,-104.4686"/>
</g>
<!-- Node14&#45;&gt;Node3 -->
<g id="edge36" class="edge">
<title>Node14&#45;&gt;Node3</title>
<path fill="none" stroke="#191970" d="M956.2946,-112.1251C964.1128,-97.8857 975.2119,-71.5896 961.2774,-56 936.4888,-28.2671 681.4366,-15.216 587.1039,-11.3106"/>
<polygon fill="#191970" stroke="#191970" points="587.0691,-7.8065 576.9358,-10.8995 586.7862,-14.8007 587.0691,-7.8065"/>
</g>
<!-- Node14&#45;&gt;Node6 -->
<g id="edge37" class="edge">
<title>Node14&#45;&gt;Node6</title>
<path fill="none" stroke="#191970" d="M931.0239,-112.3733C913.2062,-103.4644 886.5027,-90.1127 866.318,-80.0203"/>
<polygon fill="#191970" stroke="#191970" points="867.7892,-76.8428 857.2796,-75.5011 864.6586,-83.1038 867.7892,-76.8428"/>
</g>
<!-- Node14&#45;&gt;Node13 -->
<g id="edge38" class="edge">
<title>Node14&#45;&gt;Node13</title>
<path fill="none" stroke="#191970" d="M967.3477,-112.2455C982.5244,-103.5731 1004.9395,-90.7645 1022.3337,-80.825"/>
<polygon fill="#191970" stroke="#191970" points="1024.4568,-83.643 1031.4027,-75.6427 1020.9838,-77.5653 1024.4568,-83.643"/>
</g>
<!-- Node15 -->
<g id="node16" class="node">
<title>Node15</title>
<polygon fill="#ffffff" stroke="#bfbfbf" points="902.7774,-56.5 902.7774,-75.5 951.7774,-75.5 951.7774,-56.5 902.7774,-56.5"/>
<text text-anchor="middle" x="927.2774" y="-63.5" font-family="Helvetica,sans-Serif" font-size="10.00" fill="#000000">string.h</text>
</g>
<!-- Node14&#45;&gt;Node15 -->
<g id="edge35" class="edge">
<title>Node14&#45;&gt;Node15</title>
<path fill="none" stroke="#191970" d="M946.2711,-112.2455C943.2039,-104.7776 938.8771,-94.2427 935.1277,-85.1137"/>
<polygon fill="#191970" stroke="#191970" points="938.2746,-83.5631 931.2378,-75.6427 931.7994,-86.2226 938.2746,-83.5631"/>
</g>
<!-- Node16&#45;&gt;Node6 -->
<g id="edge40" class="edge">
<title>Node16&#45;&gt;Node6</title>
<path fill="none" stroke="#191970" d="M835.7999,-112.2455C836.1914,-104.9382 836.7402,-94.6944 837.2218,-85.7046"/>
<polygon fill="#191970" stroke="#191970" points="840.7208,-85.8156 837.7608,-75.6427 833.7308,-85.4411 840.7208,-85.8156"/>
</g>
<!-- Node17&#45;&gt;Node1 -->
<g id="edge42" class="edge">
<title>Node17&#45;&gt;Node1</title>
<path fill="none" stroke="#191970" d="M656.833,-112.4136C647.8165,-97.5365 628.2723,-69.228 603.2774,-56 549.4205,-27.4974 366.6508,-15.3886 290.7492,-11.5064"/>
<polygon fill="#191970" stroke="#191970" points="290.5148,-7.9906 280.3541,-10.9923 290.169,-14.9821 290.5148,-7.9906"/>
</g>
<!-- Node17&#45;&gt;Node2 -->
<g id="edge43" class="edge">
<title>Node17&#45;&gt;Node2</title>
<path fill="none" stroke="#191970" d="M677.6058,-112.2455C691.1077,-103.6534 710.9895,-91.0014 726.546,-81.1018"/>
<polygon fill="#191970" stroke="#191970" points="728.5671,-83.9643 735.1246,-75.6427 724.8089,-78.0587 728.5671,-83.9643"/>
</g>
<!-- Node17&#45;&gt;Node3 -->
<g id="edge44" class="edge">
<title>Node17&#45;&gt;Node3</title>
<path fill="none" stroke="#191970" d="M668.2248,-112.1007C675.6619,-98.2977 686.0699,-73.0493 674.2774,-56 664.0234,-41.1751 619.3093,-26.9923 586.9807,-18.3905"/>
<polygon fill="#191970" stroke="#191970" points="587.5371,-14.9192 576.9789,-15.8 585.7819,-21.6956 587.5371,-14.9192"/>
</g>
</g>
</svg>
        <g id="navigator" transform="translate(0 0)" fill="#404254">
                <rect fill="#f2f5e9" fill-opacity="0.5" stroke="#606060" stroke-width=".5" x="0" y="0" width="60" height="60"/>
                <use id="zoomplus" xlink:href="#zoomPlus" x="17" y="9" onmousedown="handleZoom(evt,'in')"/>
                <use id="zoomminus" xlink:href="#zoomMin" x="42" y="9" onmousedown="handleZoom(evt,'out')"/>
                <use id="reset" xlink:href="#resetDef" x="30" y="36" onmousedown="handleReset()"/>
                <g id="arrowUp" xlink:href="#dirArrow" transform="translate(30 24)" onmousedown="handlePan(0,-1)">
                  <use xlink:href="#rim" fill="#404040">
                        <set attributeName="fill" to="#808080" begin="arrowUp.mouseover" end="arrowUp.mouseout"/>
                  </use>
                  <path fill="none" stroke="white" stroke-width="1.5" d="M0,-3.0v7 M-2.5,-0.5L0,-3.0L2.5,-0.5"/>
                </g>
                <g id="arrowRight" xlink:href="#dirArrow" transform="rotate(90) translate(36 -43)" onmousedown="handlePan(1,0)">
                  <use xlink:href="#rim" fill="#404040">
                        <set attributeName="fill" to="#808080" begin="arrowRight.mouseover" end="arrowRight.mouseout"/>
                  </use>
                  <path fill="none" stroke="white" stroke-width="1.5" d="M0,-3.0v7 M-2.5,-0.5L0,-3.0L2.5,-0.5"/>
                </g>
                <g id="arrowDown" xlink:href="#dirArrow" transform="rotate(180) translate(-30 -48)" onmousedown="handlePan(0,1)">
                  <use xlink:href="#rim" fill="#404040">
                        <set attributeName="fill" to="#808080" begin="arrowDown.mouseover" end="arrowDown.mouseout"/>
                  </use>
                  <path fill="none" stroke="white" stroke-width="1.5" d="M0,-3.0v7 M-2.5,-0.5L0,-3.0L2.5,-0.5"/>
                </g>
                <g id="arrowLeft" xlink:href="#dirArrow" transform="rotate(270) translate(-36 17)" onmousedown="handlePan(-1,0)">
                  <use xlink:href="#rim" fill="#404040">
                        <set attributeName="fill" to="#808080" begin="arrowLeft.mouseover" end="arrowLeft.mouseout"/>
                  </use>
                  <path fill="none" stroke="white" stroke-width="1.5" d="M0,-3.0v7 M-2.5,-0.5L0,-3.0L2.5,-0.5"/>
                </g>
        </g>
        <svg viewBox="0 0 15 15" width="100%" height="30px" preserveAspectRatio="xMaxYMin meet">
         <g id="arrow_out" transform="scale(0.3 0.3)">
          <a xlink:href="a00033_org.svg" target="_base">
           <rect id="button" ry="5" rx="5" y="6" x="6" height="38" width="38"
                fill="#f2f5e9" fill-opacity="0.5" stroke="#606060" stroke-width="1.0"/>
           <path id="arrow"
             d="M 11.500037,31.436501 C 11.940474,20.09759 22.043105,11.32322 32.158766,21.979434 L 37.068811,17.246167 C 37.068811,17.246167 37.088388,32 37.088388,32 L 22.160133,31.978069 C 22.160133,31.978069 26.997745,27.140456 26.997745,27.140456 C 18.528582,18.264221 13.291696,25.230495 11.500037,31.436501 z"
             style="fill:#404040;"/>
          </a>
         </g>
        </svg>
</svg>
