<?xml version="1.0" encoding="UTF-8" standalone="no"?>
<!DOCTYPE svg PUBLIC "-//W3C//DTD SVG 1.1//EN"
 "http://www.w3.org/Graphics/SVG/1.1/DTD/svg11.dtd">
<!-- Generated by graphviz version 2.40.1 (20161225.0304)
 -->
<!-- Title: stegx_be32toh Pages: 1 -->
<!--zoomable 371 -->
<svg id="main" version="1.1" xmlns="http://www.w3.org/2000/svg" xmlns:xlink="http://www.w3.org/1999/xlink" xml:space="preserve" onload="init(evt)">
<style type="text/css"><![CDATA[
.edge:hover path { stroke: red; }
.edge:hover polygon { stroke: red; fill: red; }
]]></style>
<script type="text/javascript"><![CDATA[
var edges = document.getElementsByTagName('g');
if (edges && edges.length) {
  for (var i=0;i<edges.length;i++) {
    if (edges[i].id.substr(0,4)=='edge') {
      edges[i].setAttribute('class','edge');
    }
  }
}
]]></script>
        <defs>
                <circle id="rim" cx="0" cy="0" r="7"/>
                <circle id="rim2" cx="0" cy="0" r="3.5"/>
                <g id="zoomPlus">
                        <use xlink:href="#rim" fill="#404040">
                                <set attributeName="fill" to="#808080" begin="zoomplus.mouseover" end="zoomplus.mouseout"/>
                        </use>
                        <path d="M-4,0h8M0,-4v8" fill="none" stroke="white" stroke-width="1.5" pointer-events="none"/>
                </g>
                <g id="zoomMin">
                        <use xlink:href="#rim" fill="#404040">
                                <set attributeName="fill" to="#808080" begin="zoomminus.mouseover" end="zoomminus.mouseout"/>
                        </use>
                        <path d="M-4,0h8" fill="none" stroke="white" stroke-width="1.5" pointer-events="none"/>
                </g>
                <g id="dirArrow">
                        <path fill="none" stroke="white" stroke-width="1.5" d="M0,-3.0v7 M-2.5,-0.5L0,-3.0L2.5,-0.5"/>
                </g>
               <g id="resetDef">
                       <use xlink:href="#rim2" fill="#404040">
                               <set attributeName="fill" to="#808080" begin="reset.mouseover" end="reset.mouseout"/>
                       </use>
               </g>
        </defs>

<script type="text/javascript">
var viewWidth = 700;
var viewHeight = 371;
var sectionId = 'dynsection-2';
</script>
<script xlink:href="svgpan.js"/>
<svg id="graph" class="graph">
<g id="viewport">
<title>stegx_be32toh</title>
<polygon fill="#ffffff" stroke="transparent" points="-4,4 -4,-366.8299 696,-366.8299 696,4 -4,4"/>
<!-- Node1 -->
<g id="node1" class="node">
<title>Node1</title>
<polygon fill="#bfbfbf" stroke="#000000" points="0,-171.5 0,-190.5 80,-190.5 80,-171.5 0,-171.5"/>
<text text-anchor="middle" x="40" y="-178.5" font-family="Helvetica,sans-Serif" font-size="10.00" fill="#000000">stegx_be32toh</text>
</g>
<!-- Node2 -->
<g id="node2" class="node">
<title>Node2</title>
<g id="a_node2"><a xlink:href="a00017.xhtml#a049b8f5bf7a416fe54b10c6de98487a1" target="_top" xlink:title="Va inserer les donnees cachees en utilisant l&#39;algorithme EOC. ">
<polygon fill="#ffffff" stroke="#000000" points="293.5,-342.5 293.5,-361.5 355.5,-361.5 355.5,-342.5 293.5,-342.5"/>
<text text-anchor="middle" x="324.5" y="-349.5" font-family="Helvetica,sans-Serif" font-size="10.00" fill="#000000">insert_eoc</text>
</a>
</g>
</g>
<!-- Node1&#45;&gt;Node2 -->
<g id="edge1" class="edge">
<title>Node1&#45;&gt;Node2</title>
<path fill="none" stroke="#191970" d="M43.4656,-200.4982C50.5371,-233.9296 70.0266,-301.6145 116,-333 169.5848,-369.5817 249.8123,-364.3865 293.4766,-357.8883"/>
<polygon fill="#191970" stroke="#191970" points="46.8792,-199.717 41.5232,-190.5757 40.0096,-201.0618 46.8792,-199.717"/>
</g>
<!-- Node4 -->
<g id="node4" class="node">
<title>Node4</title>
<g id="a_node4"><a xlink:href="a00017.xhtml#ad0cda2ae23fda82b16083952ca1b698a" target="_top" xlink:title="Va extraire les donnees cachees en utilisant l&#39;algorithme EOC. ">
<polygon fill="#ffffff" stroke="#000000" points="138.5,-228.5 138.5,-247.5 206.5,-247.5 206.5,-228.5 138.5,-228.5"/>
<text text-anchor="middle" x="172.5" y="-235.5" font-family="Helvetica,sans-Serif" font-size="10.00" fill="#000000">extract_eoc</text>
</a>
</g>
</g>
<!-- Node1&#45;&gt;Node4 -->
<g id="edge3" class="edge">
<title>Node1&#45;&gt;Node4</title>
<path fill="none" stroke="#191970" d="M66.3551,-195.3134C80.7899,-202.862 99.1275,-211.985 116,-219 124.1224,-222.377 133.0799,-225.6062 141.4224,-228.4133"/>
<polygon fill="#191970" stroke="#191970" points="67.9629,-192.2044 57.4875,-190.6181 64.6873,-198.3907 67.9629,-192.2044"/>
</g>
<!-- Node6 -->
<g id="node6" class="node">
<title>Node6</title>
<g id="a_node6"><a xlink:href="a00035.xhtml#a14e9d876697b0225ded31095c1076b64" target="_top" xlink:title="Va inserer les donnees cachees en utilisant l&#39;algorithme LSB. ">
<polygon fill="#ffffff" stroke="#000000" points="295,-266.5 295,-285.5 354,-285.5 354,-266.5 295,-266.5"/>
<text text-anchor="middle" x="324.5" y="-273.5" font-family="Helvetica,sans-Serif" font-size="10.00" fill="#000000">insert_lsb</text>
</a>
</g>
</g>
<!-- Node1&#45;&gt;Node6 -->
<g id="edge5" class="edge">
<title>Node1&#45;&gt;Node6</title>
<path fill="none" stroke="#191970" d="M52.1936,-199.0963C65.5213,-217.2153 88.6608,-244.1914 116,-257 174.7526,-284.526 252.9412,-282.9035 294.8975,-279.3985"/>
<polygon fill="#191970" stroke="#191970" points="54.7807,-196.693 46.1481,-190.5506 49.0661,-200.7357 54.7807,-196.693"/>
</g>
<!-- Node7 -->
<g id="node7" class="node">
<title>Node7</title>
<g id="a_node7"><a xlink:href="a00035.xhtml#abc757e2627fc9971e388a584e0e0c2ca" target="_top" xlink:title="Va extraire les donnees cachees en utilisant l&#39;algorithme LSB. ">
<polygon fill="#ffffff" stroke="#000000" points="140,-152.5 140,-171.5 205,-171.5 205,-152.5 140,-152.5"/>
<text text-anchor="middle" x="172.5" y="-159.5" font-family="Helvetica,sans-Serif" font-size="10.00" fill="#000000">extract_lsb</text>
</a>
</g>
</g>
<!-- Node1&#45;&gt;Node7 -->
<g id="edge7" class="edge">
<title>Node1&#45;&gt;Node7</title>
<path fill="none" stroke="#191970" d="M90.1965,-173.802C106.7493,-171.4284 124.7249,-168.8508 139.6421,-166.7117"/>
<polygon fill="#191970" stroke="#191970" points="89.5159,-170.3637 80.1139,-175.2478 90.5095,-177.2928 89.5159,-170.3637"/>
</g>
<!-- Node8 -->
<g id="node8" class="node">
<title>Node8</title>
<g id="a_node8"><a xlink:href="a00059.xhtml#aa1a29df598338a94ef478f60e90b20ba" target="_top" xlink:title="Convertit un nombre en little endian vers le big endian. ">
<polygon fill="#ffffff" stroke="#000000" points="132.5,-304.5 132.5,-323.5 212.5,-323.5 212.5,-304.5 132.5,-304.5"/>
<text text-anchor="middle" x="172.5" y="-311.5" font-family="Helvetica,sans-Serif" font-size="10.00" fill="#000000">stegx_htobe32</text>
</a>
</g>
</g>
<!-- Node1&#45;&gt;Node8 -->
<g id="edge9" class="edge">
<title>Node1&#45;&gt;Node8</title>
<path fill="none" stroke="#191970" d="M48.7782,-199.5483C60.8893,-223.3799 84.8108,-264.6854 116,-290 123.4473,-296.0445 132.6414,-300.8053 141.4336,-304.4379"/>
<polygon fill="#191970" stroke="#191970" points="51.8815,-197.9275 44.3241,-190.5021 45.6015,-201.0197 51.8815,-197.9275"/>
</g>
<!-- Node11 -->
<g id="node11" class="node">
<title>Node11</title>
<g id="a_node11"><a xlink:href="a00086.xhtml#acc4a0b82043fbdeadb8c669eda06d2cb" target="_top" xlink:title="Saute le tag ID3v2 actuel. ">
<polygon fill="#ffffff" stroke="#000000" points="118,-76.5 118,-95.5 227,-95.5 227,-76.5 118,-76.5"/>
<text text-anchor="middle" x="172.5" y="-83.5" font-family="Helvetica,sans-Serif" font-size="10.00" fill="#000000">mp3_id3v2_tag_seek</text>
</a>
</g>
</g>
<!-- Node1&#45;&gt;Node11 -->
<g id="edge15" class="edge">
<title>Node1&#45;&gt;Node11</title>
<path fill="none" stroke="#191970" d="M55.2027,-163.6854C69.6296,-148.0619 92.539,-125.2551 116,-110 124.8452,-104.2485 135.2989,-99.3562 144.7941,-95.5187"/>
<polygon fill="#191970" stroke="#191970" points="52.5875,-161.3591 48.4736,-171.1227 57.7782,-166.0556 52.5875,-161.3591"/>
</g>
<!-- Node12 -->
<g id="node12" class="node">
<title>Node12</title>
<g id="a_node12"><a xlink:href="a00089.xhtml#afc3c44f7f4f0993fbc17c150c728e677" target="_top" xlink:title="Trouve la première frame MPEG 1/2 Layer III. ">
<polygon fill="#ffffff" stroke="#000000" points="265,-76.5 265,-95.5 384,-95.5 384,-76.5 265,-76.5"/>
<text text-anchor="middle" x="324.5" y="-83.5" font-family="Helvetica,sans-Serif" font-size="10.00" fill="#000000">mp3_mpeg_fr_find_first</text>
</a>
</g>
</g>
<!-- Node1&#45;&gt;Node12 -->
<g id="edge20" class="edge">
<title>Node1&#45;&gt;Node12</title>
<path fill="none" stroke="#191970" d="M65.6297,-166.6001C80.1026,-158.8756 98.7067,-149.6132 116,-143 171.0296,-121.9559 236.9817,-105.2852 279.7618,-95.5387"/>
<polygon fill="#191970" stroke="#191970" points="63.8884,-163.5629 56.7707,-171.4108 67.2289,-169.7144 63.8884,-163.5629"/>
</g>
<!-- Node13 -->
<g id="node13" class="node">
<title>Node13</title>
<g id="a_node13"><a xlink:href="a00131.xhtml#a5501c9c7711252fa8d85ff12cb3390dc" target="_top" xlink:title="Remplit les informations du fichier hôte. ">
<polygon fill="#ffffff" stroke="#000000" points="450.5,-57.5 450.5,-76.5 521.5,-76.5 521.5,-57.5 450.5,-57.5"/>
<text text-anchor="middle" x="486" y="-64.5" font-family="Helvetica,sans-Serif" font-size="10.00" fill="#000000">fill_host_info</text>
</a>
</g>
</g>
<!-- Node1&#45;&gt;Node13 -->
<g id="edge27" class="edge">
<title>Node1&#45;&gt;Node13</title>
<path fill="none" stroke="#191970" d="M46.2671,-161.8115C56.2081,-134.9338 78.4158,-87.1145 116,-67 227.5716,-7.2887 386.5335,-39.4768 453.8788,-57.4851"/>
<polygon fill="#191970" stroke="#191970" points="42.9482,-160.6994 42.9494,-171.2942 49.5555,-163.0111 42.9482,-160.6994"/>
</g>
<!-- Node16 -->
<g id="node16" class="node">
<title>Node16</title>
<g id="a_node16"><a xlink:href="a00089.xhtml#a581193a38ac3c779c8920bd3be9883fc" target="_top" xlink:title="Test si le fichier est un fichier MP3. ">
<polygon fill="#ffffff" stroke="#000000" points="120.5,-.5 120.5,-19.5 224.5,-19.5 224.5,-.5 120.5,-.5"/>
<text text-anchor="middle" x="172.5" y="-7.5" font-family="Helvetica,sans-Serif" font-size="10.00" fill="#000000">stegx_test_file_mp3</text>
</a>
</g>
</g>
<!-- Node1&#45;&gt;Node16 -->
<g id="edge21" class="edge">
<title>Node1&#45;&gt;Node16</title>
<path fill="none" stroke="#191970" d="M45.3994,-161.3678C54.8468,-130.3936 77.1608,-70.013 116,-34 122.6426,-27.8408 131.1029,-23.1258 139.4416,-19.575"/>
<polygon fill="#191970" stroke="#191970" points="41.9284,-160.7696 42.4942,-171.3493 48.6495,-162.7259 41.9284,-160.7696"/>
</g>
<!-- Node19 -->
<g id="node19" class="node">
<title>Node19</title>
<g id="a_node19"><a xlink:href="a00095.xhtml#a258c2aefc0d29e112eca90e652730a84" target="_top" xlink:title="Va extraire les donnees cachees en utilisant l&#39;algorithme Metadata dans le formar PNG...">
<polygon fill="#ffffff" stroke="#000000" points="116,-190.5 116,-209.5 229,-209.5 229,-190.5 116,-190.5"/>
<text text-anchor="middle" x="172.5" y="-197.5" font-family="Helvetica,sans-Serif" font-size="10.00" fill="#000000">extract_metadata_png</text>
</a>
</g>
</g>
<!-- Node1&#45;&gt;Node19 -->
<g id="edge24" class="edge">
<title>Node1&#45;&gt;Node19</title>
<path fill="none" stroke="#191970" d="M90.1515,-188.1915C98.5628,-189.3977 107.3426,-190.6567 115.9027,-191.8842"/>
<polygon fill="#191970" stroke="#191970" points="90.5095,-184.7072 80.1139,-186.7522 89.5159,-191.6363 90.5095,-184.7072"/>
</g>
<!-- Node3 -->
<g id="node3" class="node">
<title>Node3</title>
<g id="a_node3"><a xlink:href="a00110.xhtml#a45a1d0709604d55e9d467cb39d6a5b54" target="_top" xlink:title="Va faire l&#39;insertion selon l&#39;algorithme, ainsi que les fichiers en entrée choisis par l&#39;utilisateur...">
<polygon fill="#ffffff" stroke="#000000" points="605,-304.5 605,-323.5 675,-323.5 675,-304.5 605,-304.5"/>
<text text-anchor="middle" x="640" y="-311.5" font-family="Helvetica,sans-Serif" font-size="10.00" fill="#000000">stegx_insert</text>
</a>
</g>
</g>
<!-- Node2&#45;&gt;Node3 -->
<g id="edge2" class="edge">
<title>Node2&#45;&gt;Node3</title>
<path fill="none" stroke="#191970" d="M365.6698,-350.1655C411.3818,-347.7565 487.265,-342.6503 552,-333 569.4687,-330.3959 588.6616,-326.3888 604.6531,-322.7246"/>
<polygon fill="#191970" stroke="#191970" points="365.3655,-346.6764 355.5563,-350.6803 365.7214,-353.6674 365.3655,-346.6764"/>
</g>
<!-- Node5 -->
<g id="node5" class="node">
<title>Node5</title>
<g id="a_node5"><a xlink:href="a00065.xhtml#a43c63dd958bfa1f4ab2ecbd7faa14abb" target="_top" xlink:title="Va faire l&#39;extraction selon l&#39;algorithme détecté, ainsi que les fichiers en entrée choisis par l&#39;util...">
<polygon fill="#ffffff" stroke="#000000" points="448,-190.5 448,-209.5 524,-209.5 524,-190.5 448,-190.5"/>
<text text-anchor="middle" x="486" y="-197.5" font-family="Helvetica,sans-Serif" font-size="10.00" fill="#000000">stegx_extract</text>
</a>
</g>
</g>
<!-- Node4&#45;&gt;Node5 -->
<g id="edge4" class="edge">
<title>Node4&#45;&gt;Node5</title>
<path fill="none" stroke="#191970" d="M216.7814,-235.2456C259.6688,-232.2897 326.4735,-226.9237 384,-219 405.2349,-216.0751 428.7681,-211.7639 447.8745,-207.9873"/>
<polygon fill="#191970" stroke="#191970" points="216.4208,-231.7619 206.6793,-235.9278 216.8924,-238.746 216.4208,-231.7619"/>
</g>
<!-- Node6&#45;&gt;Node3 -->
<g id="edge6" class="edge">
<title>Node6&#45;&gt;Node3</title>
<path fill="none" stroke="#191970" d="M364.1404,-277.7543C409.6751,-280.1293 486.5377,-285.2413 552,-295 569.4687,-297.6041 588.6616,-301.6112 604.6531,-305.2754"/>
<polygon fill="#191970" stroke="#191970" points="364.2535,-274.2556 354.0901,-277.2482 363.9014,-281.2468 364.2535,-274.2556"/>
</g>
<!-- Node7&#45;&gt;Node5 -->
<g id="edge8" class="edge">
<title>Node7&#45;&gt;Node5</title>
<path fill="none" stroke="#191970" d="M215.2821,-164.6513C258.1003,-167.5848 325.7987,-172.9833 384,-181 405.2349,-183.9249 428.7681,-188.2361 447.8745,-192.0127"/>
<polygon fill="#191970" stroke="#191970" points="215.4294,-161.1534 205.2174,-163.9759 214.9606,-168.1377 215.4294,-161.1534"/>
</g>
<!-- Node8&#45;&gt;Node2 -->
<g id="edge10" class="edge">
<title>Node8&#45;&gt;Node2</title>
<path fill="none" stroke="#191970" d="M220.7422,-326.0606C244.4849,-331.9962 272.4176,-338.9794 293.3163,-344.2041"/>
<polygon fill="#191970" stroke="#191970" points="221.4063,-322.6189 210.856,-323.589 219.7085,-329.4099 221.4063,-322.6189"/>
</g>
<!-- Node8&#45;&gt;Node6 -->
<g id="edge11" class="edge">
<title>Node8&#45;&gt;Node6</title>
<path fill="none" stroke="#191970" d="M220.6282,-301.9679C244.9565,-295.8859 273.708,-288.698 294.7868,-283.4283"/>
<polygon fill="#191970" stroke="#191970" points="219.7085,-298.5901 210.856,-304.411 221.4063,-305.3811 219.7085,-298.5901"/>
</g>
<!-- Node9 -->
<g id="node9" class="node">
<title>Node9</title>
<g id="a_node9"><a xlink:href="a00095.xhtml#a2386f518ec5df78485cca31c6fe4f858" target="_top" xlink:title="Va inserer les donnees cachees en utilisant l&#39;algorithme Metadata dans le format PNG. ">
<polygon fill="#ffffff" stroke="#000000" points="271,-304.5 271,-323.5 378,-323.5 378,-304.5 271,-304.5"/>
<text text-anchor="middle" x="324.5" y="-311.5" font-family="Helvetica,sans-Serif" font-size="10.00" fill="#000000">insert_metadata_png</text>
</a>
</g>
</g>
<!-- Node8&#45;&gt;Node9 -->
<g id="edge12" class="edge">
<title>Node8&#45;&gt;Node9</title>
<path fill="none" stroke="#191970" d="M223.1465,-314C238.4512,-314 255.3052,-314 270.8019,-314"/>
<polygon fill="#191970" stroke="#191970" points="222.8342,-310.5001 212.8341,-314 222.8341,-317.5001 222.8342,-310.5001"/>
</g>
<!-- Node10 -->
<g id="node10" class="node">
<title>Node10</title>
<g id="a_node10"><a xlink:href="a00041.xhtml#a77aaebb61a9a73cbe45380c64c3d8389" target="_top" xlink:title="Va inserer les donnees cachees en utilisant l&#39;algorithme Metadata. ">
<polygon fill="#ffffff" stroke="#000000" points="443,-304.5 443,-323.5 529,-323.5 529,-304.5 443,-304.5"/>
<text text-anchor="middle" x="486" y="-311.5" font-family="Helvetica,sans-Serif" font-size="10.00" fill="#000000">insert_metadata</text>
</a>
</g>
</g>
<!-- Node9&#45;&gt;Node10 -->
<g id="edge13" class="edge">
<title>Node9&#45;&gt;Node10</title>
<path fill="none" stroke="#191970" d="M388.3031,-314C406.6212,-314 426.1576,-314 442.9083,-314"/>
<polygon fill="#191970" stroke="#191970" points="388.2772,-310.5001 378.2772,-314 388.2771,-317.5001 388.2772,-310.5001"/>
</g>
<!-- Node10&#45;&gt;Node3 -->
<g id="edge14" class="edge">
<title>Node10&#45;&gt;Node3</title>
<path fill="none" stroke="#191970" d="M539.3564,-314C561.0101,-314 585.4265,-314 604.787,-314"/>
<polygon fill="#191970" stroke="#191970" points="539.3074,-310.5001 529.3074,-314 539.3074,-317.5001 539.3074,-310.5001"/>
</g>
<!-- Node11&#45;&gt;Node12 -->
<g id="edge16" class="edge">
<title>Node11&#45;&gt;Node12</title>
<path fill="none" stroke="#191970" d="M237.4981,-86C246.5693,-86 255.8542,-86 264.821,-86"/>
<polygon fill="#191970" stroke="#191970" points="237.3755,-82.5001 227.3755,-86 237.3755,-89.5001 237.3755,-82.5001"/>
</g>
<!-- Node12&#45;&gt;Node13 -->
<g id="edge17" class="edge">
<title>Node12&#45;&gt;Node13</title>
<path fill="none" stroke="#191970" d="M394.2288,-77.7966C413.6469,-75.5121 433.9315,-73.1257 450.477,-71.1792"/>
<polygon fill="#191970" stroke="#191970" points="393.7003,-74.3346 384.1778,-78.9791 394.5183,-81.2866 393.7003,-74.3346"/>
</g>
<!-- Node14 -->
<g id="node14" class="node">
<title>Node14</title>
<g id="a_node14"><a xlink:href="a00050.xhtml#a2a3747fdc90ed4467eb3e468d8fba361" target="_top" xlink:title="Detecte l&#39;algorithme utilisé ainsi que le nom du fichier caché et la taille des données cachées...">
<polygon fill="#ffffff" stroke="#000000" points="592,-38.5 592,-57.5 688,-57.5 688,-38.5 592,-38.5"/>
<text text-anchor="middle" x="640" y="-45.5" font-family="Helvetica,sans-Serif" font-size="10.00" fill="#000000">stegx_detect_algo</text>
</a>
</g>
</g>
<!-- Node13&#45;&gt;Node14 -->
<g id="edge18" class="edge">
<title>Node13&#45;&gt;Node14</title>
<path fill="none" stroke="#191970" d="M531.8898,-61.3383C550.8247,-59.0021 572.7769,-56.2938 591.9332,-53.9303"/>
<polygon fill="#191970" stroke="#191970" points="531.2139,-57.895 521.7178,-62.5933 532.0711,-64.8424 531.2139,-57.895"/>
</g>
<!-- Node15 -->
<g id="node15" class="node">
<title>Node15</title>
<g id="a_node15"><a xlink:href="a00128.xhtml#adc277622e5fe0d1814be76f11263b350" target="_top" xlink:title="Propose les algorithmes de stéganographie utilisables. ">
<polygon fill="#ffffff" stroke="#000000" points="588,-76.5 588,-95.5 692,-95.5 692,-76.5 588,-76.5"/>
<text text-anchor="middle" x="640" y="-83.5" font-family="Helvetica,sans-Serif" font-size="10.00" fill="#000000">stegx_suggest_algo</text>
</a>
</g>
</g>
<!-- Node13&#45;&gt;Node15 -->
<g id="edge19" class="edge">
<title>Node13&#45;&gt;Node15</title>
<path fill="none" stroke="#191970" d="M531.7578,-72.6454C549.3867,-74.8204 569.6466,-77.32 587.8358,-79.5642"/>
<polygon fill="#191970" stroke="#191970" points="532.0711,-69.1576 521.7178,-71.4067 531.2139,-76.105 532.0711,-69.1576"/>
</g>
<!-- Node17 -->
<g id="node17" class="node">
<title>Node17</title>
<g id="a_node17"><a xlink:href="a00044.xhtml#aa5fe126b37cde4faccaaf190a3b977d3" target="_top" xlink:title="Retourne le type du fichier. ">
<polygon fill="#ffffff" stroke="#000000" points="277.5,-.5 277.5,-19.5 371.5,-19.5 371.5,-.5 277.5,-.5"/>
<text text-anchor="middle" x="324.5" y="-7.5" font-family="Helvetica,sans-Serif" font-size="10.00" fill="#000000">check_file_format</text>
</a>
</g>
</g>
<!-- Node16&#45;&gt;Node17 -->
<g id="edge22" class="edge">
<title>Node16&#45;&gt;Node17</title>
<path fill="none" stroke="#191970" d="M234.9967,-10C249.1846,-10 264.0213,-10 277.4423,-10"/>
<polygon fill="#191970" stroke="#191970" points="234.8098,-6.5001 224.8098,-10 234.8097,-13.5001 234.8098,-6.5001"/>
</g>
<!-- Node18 -->
<g id="node18" class="node">
<title>Node18</title>
<g id="a_node18"><a xlink:href="a00044.xhtml#aa5b31aaae617d7c5d0c29d564e2c8a42" target="_top" xlink:title="Vérifie la compatibilité des fichiers. ">
<polygon fill="#ffffff" stroke="#000000" points="420,-.5 420,-19.5 552,-19.5 552,-.5 420,-.5"/>
<text text-anchor="middle" x="486" y="-7.5" font-family="Helvetica,sans-Serif" font-size="10.00" fill="#000000">stegx_check_compatibility</text>
</a>
</g>
</g>
<!-- Node17&#45;&gt;Node18 -->
<g id="edge23" class="edge">
<title>Node17&#45;&gt;Node18</title>
<path fill="none" stroke="#191970" d="M381.7896,-10C394.1221,-10 407.2542,-10 419.8913,-10"/>
<polygon fill="#191970" stroke="#191970" points="381.6467,-6.5001 371.6466,-10 381.6466,-13.5001 381.6467,-6.5001"/>
</g>
<!-- Node20 -->
<g id="node20" class="node">
<title>Node20</title>
<g id="a_node20"><a xlink:href="a00041.xhtml#a069239660c8070698c4ddcbbd6debe0b" target="_top" xlink:title="Va extraire les donnees cachees en utilisant l&#39;algorithme Metadata. ">
<polygon fill="#ffffff" stroke="#000000" points="278.5,-190.5 278.5,-209.5 370.5,-209.5 370.5,-190.5 278.5,-190.5"/>
<text text-anchor="middle" x="324.5" y="-197.5" font-family="Helvetica,sans-Serif" font-size="10.00" fill="#000000">extract_metadata</text>
</a>
</g>
</g>
<!-- Node19&#45;&gt;Node20 -->
<g id="edge25" class="edge">
<title>Node19&#45;&gt;Node20</title>
<path fill="none" stroke="#191970" d="M239.1038,-200C252.3201,-200 265.9215,-200 278.2759,-200"/>
<polygon fill="#191970" stroke="#191970" points="239.0992,-196.5001 229.0992,-200 239.0992,-203.5001 239.0992,-196.5001"/>
</g>
<!-- Node20&#45;&gt;Node5 -->
<g id="edge26" class="edge">
<title>Node20&#45;&gt;Node5</title>
<path fill="none" stroke="#191970" d="M381.0562,-200C403.1718,-200 427.9548,-200 447.8818,-200"/>
<polygon fill="#191970" stroke="#191970" points="380.7795,-196.5001 370.7794,-200 380.7794,-203.5001 380.7795,-196.5001"/>
</g>
</g>
</svg>
        <g id="navigator" transform="translate(0 0)" fill="#404254">
                <rect fill="#f2f5e9" fill-opacity="0.5" stroke="#606060" stroke-width=".5" x="0" y="0" width="60" height="60"/>
                <use id="zoomplus" xlink:href="#zoomPlus" x="17" y="9" onmousedown="handleZoom(evt,'in')"/>
                <use id="zoomminus" xlink:href="#zoomMin" x="42" y="9" onmousedown="handleZoom(evt,'out')"/>
                <use id="reset" xlink:href="#resetDef" x="30" y="36" onmousedown="handleReset()"/>
                <g id="arrowUp" xlink:href="#dirArrow" transform="translate(30 24)" onmousedown="handlePan(0,-1)">
                  <use xlink:href="#rim" fill="#404040">
                        <set attributeName="fill" to="#808080" begin="arrowUp.mouseover" end="arrowUp.mouseout"/>
                  </use>
                  <path fill="none" stroke="white" stroke-width="1.5" d="M0,-3.0v7 M-2.5,-0.5L0,-3.0L2.5,-0.5"/>
                </g>
                <g id="arrowRight" xlink:href="#dirArrow" transform="rotate(90) translate(36 -43)" onmousedown="handlePan(1,0)">
                  <use xlink:href="#rim" fill="#404040">
                        <set attributeName="fill" to="#808080" begin="arrowRight.mouseover" end="arrowRight.mouseout"/>
                  </use>
                  <path fill="none" stroke="white" stroke-width="1.5" d="M0,-3.0v7 M-2.5,-0.5L0,-3.0L2.5,-0.5"/>
                </g>
                <g id="arrowDown" xlink:href="#dirArrow" transform="rotate(180) translate(-30 -48)" onmousedown="handlePan(0,1)">
                  <use xlink:href="#rim" fill="#404040">
                        <set attributeName="fill" to="#808080" begin="arrowDown.mouseover" end="arrowDown.mouseout"/>
                  </use>
                  <path fill="none" stroke="white" stroke-width="1.5" d="M0,-3.0v7 M-2.5,-0.5L0,-3.0L2.5,-0.5"/>
                </g>
                <g id="arrowLeft" xlink:href="#dirArrow" transform="rotate(270) translate(-36 17)" onmousedown="handlePan(-1,0)">
                  <use xlink:href="#rim" fill="#404040">
                        <set attributeName="fill" to="#808080" begin="arrowLeft.mouseover" end="arrowLeft.mouseout"/>
                  </use>
                  <path fill="none" stroke="white" stroke-width="1.5" d="M0,-3.0v7 M-2.5,-0.5L0,-3.0L2.5,-0.5"/>
                </g>
        </g>
        <svg viewBox="0 0 15 15" width="100%" height="30px" preserveAspectRatio="xMaxYMin meet">
         <g id="arrow_out" transform="scale(0.3 0.3)">
          <a xlink:href="a00059_a7434fd197d31a9571f92f9dca4f212e9_icgraph_org.svg" target="_base">
           <rect id="button" ry="5" rx="5" y="6" x="6" height="38" width="38"
                fill="#f2f5e9" fill-opacity="0.5" stroke="#606060" stroke-width="1.0"/>
           <path id="arrow"
             d="M 11.500037,31.436501 C 11.940474,20.09759 22.043105,11.32322 32.158766,21.979434 L 37.068811,17.246167 C 37.068811,17.246167 37.088388,32 37.088388,32 L 22.160133,31.978069 C 22.160133,31.978069 26.997745,27.140456 26.997745,27.140456 C 18.528582,18.264221 13.291696,25.230495 11.500037,31.436501 z"
             style="fill:#404040;"/>
          </a>
         </g>
        </svg>
</svg>
