<?xml version="1.0" encoding="UTF-8" standalone="no"?>
<!DOCTYPE svg PUBLIC "-//W3C//DTD SVG 1.1//EN"
 "http://www.w3.org/Graphics/SVG/1.1/DTD/svg11.dtd">
<!-- Generated by graphviz version 2.40.1 (20161225.0304)
 -->
<!-- Title: inc/stegx.h Pages: 1 -->
<svg width="198pt" height="84pt"
 viewBox="0.00 0.00 197.50 84.00" xmlns="http://www.w3.org/2000/svg" xmlns:xlink="http://www.w3.org/1999/xlink">
<g id="graph0" class="graph" transform="scale(1 1) rotate(0) translate(4 80)">
<title>inc/stegx.h</title>
<polygon fill="#ffffff" stroke="transparent" points="-4,4 -4,-80 193.5,-80 193.5,4 -4,4"/>
<!-- Node0 -->
<g id="node1" class="node">
<title>Node0</title>
<polygon fill="#bfbfbf" stroke="#000000" points="65.5,-56.5 65.5,-75.5 130.5,-75.5 130.5,-56.5 65.5,-56.5"/>
<text text-anchor="middle" x="98" y="-63.5" font-family="Helvetica,sans-Serif" font-size="10.00" fill="#000000">inc/stegx.h</text>
</g>
<!-- Node1 -->
<g id="node2" class="node">
<title>Node1</title>
<g id="a_node2"><a xlink:href="a00008.xhtml" target="_top" xlink:title="Définitions communes à la partie privée et public de la bibliothèque. ">
<polygon fill="#ffffff" stroke="#000000" points="0,-.5 0,-19.5 92,-19.5 92,-.5 0,-.5"/>
<text text-anchor="middle" x="46" y="-7.5" font-family="Helvetica,sans-Serif" font-size="10.00" fill="#000000">stegx_common.h</text>
</a>
</g>
</g>
<!-- Node0&#45;&gt;Node1 -->
<g id="edge1" class="edge">
<title>Node0&#45;&gt;Node1</title>
<path fill="none" stroke="#191970" d="M88.9423,-56.2455C81.4858,-48.2155 70.7366,-36.6394 61.8583,-27.0781"/>
<polygon fill="#191970" stroke="#191970" points="64.3232,-24.589 54.9539,-19.6427 59.1937,-29.3522 64.3232,-24.589"/>
</g>
<!-- Node2 -->
<g id="node3" class="node">
<title>Node2</title>
<g id="a_node3"><a xlink:href="a00011.xhtml" target="_top" xlink:title="Module de gestion des erreurs. ">
<polygon fill="#ffffff" stroke="#000000" points="110.5,-.5 110.5,-19.5 189.5,-19.5 189.5,-.5 110.5,-.5"/>
<text text-anchor="middle" x="150" y="-7.5" font-family="Helvetica,sans-Serif" font-size="10.00" fill="#000000">stegx_errors.h</text>
</a>
</g>
</g>
<!-- Node0&#45;&gt;Node2 -->
<g id="edge2" class="edge">
<title>Node0&#45;&gt;Node2</title>
<path fill="none" stroke="#191970" d="M107.0577,-56.2455C114.5142,-48.2155 125.2634,-36.6394 134.1417,-27.0781"/>
<polygon fill="#191970" stroke="#191970" points="136.8063,-29.3522 141.0461,-19.6427 131.6768,-24.589 136.8063,-29.3522"/>
</g>
</g>
</svg>
