<?xml version="1.0" encoding="UTF-8" standalone="no"?>
<!DOCTYPE svg PUBLIC "-//W3C//DTD SVG 1.1//EN"
 "http://www.w3.org/Graphics/SVG/1.1/DTD/svg11.dtd">
<!-- Generated by graphviz version 2.40.1 (20161225.0304)
 -->
<!-- Title: src/algo/eoc.h Pages: 1 -->
<svg width="730pt" height="196pt"
 viewBox="0.00 0.00 730.15 196.00" xmlns="http://www.w3.org/2000/svg" xmlns:xlink="http://www.w3.org/1999/xlink">
<g id="graph0" class="graph" transform="scale(1 1) rotate(0) translate(4 192)">
<title>src/algo/eoc.h</title>
<polygon fill="#ffffff" stroke="transparent" points="-4,4 -4,-192 726.1505,-192 726.1505,4 -4,4"/>
<!-- Node0 -->
<g id="node1" class="node">
<title>Node0</title>
<polygon fill="#bfbfbf" stroke="#000000" points="70.7631,-168.5 70.7631,-187.5 148.7631,-187.5 148.7631,-168.5 70.7631,-168.5"/>
<text text-anchor="middle" x="109.7631" y="-175.5" font-family="Helvetica,sans-Serif" font-size="10.00" fill="#000000">src/algo/eoc.h</text>
</g>
<!-- Node1 -->
<g id="node2" class="node">
<title>Node1</title>
<polygon fill="#ffffff" stroke="#bfbfbf" points="188.7631,-.5 188.7631,-19.5 234.7631,-19.5 234.7631,-.5 188.7631,-.5"/>
<text text-anchor="middle" x="211.7631" y="-7.5" font-family="Helvetica,sans-Serif" font-size="10.00" fill="#000000">stdio.h</text>
</g>
<!-- Node0&#45;&gt;Node1 -->
<g id="edge1" class="edge">
<title>Node0&#45;&gt;Node1</title>
<path fill="none" stroke="#191970" d="M91.0415,-168.4467C53.3871,-148.0057 -25.1296,-98.4321 8.7631,-56 29.6513,-29.8489 126.597,-17.4584 178.5952,-12.6067"/>
<polygon fill="#191970" stroke="#191970" points="179.0129,-16.0834 188.6626,-11.7092 178.3913,-9.111 179.0129,-16.0834"/>
</g>
<!-- Node2 -->
<g id="node3" class="node">
<title>Node2</title>
<g id="a_node3"><a xlink:href="a00047.xhtml" target="_top" xlink:title="Définitions communes à la partie privée de la bibliothèque. ">
<polygon fill="#ffffff" stroke="#000000" points="276.7631,-112.5 276.7631,-131.5 338.7631,-131.5 338.7631,-112.5 276.7631,-112.5"/>
<text text-anchor="middle" x="307.7631" y="-119.5" font-family="Helvetica,sans-Serif" font-size="10.00" fill="#000000">common.h</text>
</a>
</g>
</g>
<!-- Node0&#45;&gt;Node2 -->
<g id="edge2" class="edge">
<title>Node0&#45;&gt;Node2</title>
<path fill="none" stroke="#191970" d="M143.8005,-168.3733C177.8599,-158.7403 230.2858,-143.9128 266.6498,-133.628"/>
<polygon fill="#191970" stroke="#191970" points="267.7817,-136.9452 276.4517,-130.8557 265.8766,-130.2094 267.7817,-136.9452"/>
</g>
<!-- Node2&#45;&gt;Node1 -->
<g id="edge3" class="edge">
<title>Node2&#45;&gt;Node1</title>
<path fill="none" stroke="#191970" d="M276.6213,-119.3447C205.0236,-112.9255 33.5412,-95.6386 16.7631,-76 10.9892,-69.2417 11.2462,-62.9697 16.7631,-56 36.565,-30.9834 128.1238,-18.1988 178.4279,-12.9617"/>
<polygon fill="#191970" stroke="#191970" points="178.8924,-16.4329 188.4954,-11.9571 178.1972,-9.4675 178.8924,-16.4329"/>
</g>
<!-- Node3 -->
<g id="node4" class="node">
<title>Node3</title>
<polygon fill="#ffffff" stroke="#bfbfbf" points="438.2631,-.5 438.2631,-19.5 487.2631,-19.5 487.2631,-.5 438.2631,-.5"/>
<text text-anchor="middle" x="462.7631" y="-7.5" font-family="Helvetica,sans-Serif" font-size="10.00" fill="#000000">stdint.h</text>
</g>
<!-- Node2&#45;&gt;Node3 -->
<g id="edge4" class="edge">
<title>Node2&#45;&gt;Node3</title>
<path fill="none" stroke="#191970" d="M338.9807,-120.8466C430.3815,-117.1519 692.5796,-104.1669 717.7631,-76 723.6877,-69.3735 723.4633,-62.8205 717.7631,-56 690.1517,-22.9621 561.2527,-13.6124 497.9818,-10.9977"/>
<polygon fill="#191970" stroke="#191970" points="497.8174,-7.489 487.6921,-10.6082 497.5525,-14.484 497.8174,-7.489"/>
</g>
<!-- Node4 -->
<g id="node5" class="node">
<title>Node4</title>
<g id="a_node5"><a xlink:href="a00008.xhtml" target="_top" xlink:title="Définitions communes à la partie privée et public de la bibliothèque. ">
<polygon fill="#ffffff" stroke="#000000" points="416.7631,-56.5 416.7631,-75.5 508.7631,-75.5 508.7631,-56.5 416.7631,-56.5"/>
<text text-anchor="middle" x="462.7631" y="-63.5" font-family="Helvetica,sans-Serif" font-size="10.00" fill="#000000">stegx_common.h</text>
</a>
</g>
</g>
<!-- Node2&#45;&gt;Node4 -->
<g id="edge5" class="edge">
<title>Node2&#45;&gt;Node4</title>
<path fill="none" stroke="#191970" d="M334.4085,-112.3733C359.9595,-103.1419 398.7143,-89.1402 426.954,-78.9375"/>
<polygon fill="#191970" stroke="#191970" points="428.2496,-82.1909 436.4653,-75.5011 425.871,-75.6074 428.2496,-82.1909"/>
</g>
<!-- Node5 -->
<g id="node6" class="node">
<title>Node5</title>
<g id="a_node6"><a xlink:href="a00077.xhtml" target="_top" xlink:title="Fichier BMP. ">
<polygon fill="#ffffff" stroke="#000000" points="315.2631,-56.5 315.2631,-75.5 398.2631,-75.5 398.2631,-56.5 315.2631,-56.5"/>
<text text-anchor="middle" x="356.7631" y="-63.5" font-family="Helvetica,sans-Serif" font-size="10.00" fill="#000000">file_type/bmp.h</text>
</a>
</g>
</g>
<!-- Node2&#45;&gt;Node5 -->
<g id="edge6" class="edge">
<title>Node2&#45;&gt;Node5</title>
<path fill="none" stroke="#191970" d="M311.0314,-112.2455C316.5618,-104.1352 326.4977,-92.4075 335.8258,-82.7919"/>
<polygon fill="#191970" stroke="#191970" points="338.4145,-85.1547 343.0806,-75.6427 333.5012,-80.1688 338.4145,-85.1547"/>
</g>
<!-- Node6 -->
<g id="node7" class="node">
<title>Node6</title>
<g id="a_node7"><a xlink:href="a00095.xhtml" target="_top" xlink:title="Fichier PNG. ">
<polygon fill="#ffffff" stroke="#000000" points="628.7631,-56.5 628.7631,-75.5 708.7631,-75.5 708.7631,-56.5 628.7631,-56.5"/>
<text text-anchor="middle" x="668.7631" y="-63.5" font-family="Helvetica,sans-Serif" font-size="10.00" fill="#000000">file_type/png.h</text>
</a>
</g>
</g>
<!-- Node2&#45;&gt;Node6 -->
<g id="edge10" class="edge">
<title>Node2&#45;&gt;Node6</title>
<path fill="none" stroke="#191970" d="M339.1651,-117.2031C394.409,-109.4782 511.8072,-93.3788 610.7631,-76 613.3592,-75.5441 616.0288,-75.0556 618.7327,-74.5488"/>
<polygon fill="#191970" stroke="#191970" points="619.442,-77.9767 628.6053,-72.6583 618.1254,-71.1016 619.442,-77.9767"/>
</g>
<!-- Node7 -->
<g id="node8" class="node">
<title>Node7</title>
<g id="a_node8"><a xlink:href="a00104.xhtml" target="_top" xlink:title="Fichier WAVE. ">
<polygon fill="#ffffff" stroke="#000000" points="121.2631,-56.5 121.2631,-75.5 204.2631,-75.5 204.2631,-56.5 121.2631,-56.5"/>
<text text-anchor="middle" x="162.7631" y="-63.5" font-family="Helvetica,sans-Serif" font-size="10.00" fill="#000000">file_type/wav.h</text>
</a>
</g>
</g>
<!-- Node2&#45;&gt;Node7 -->
<g id="edge14" class="edge">
<title>Node2&#45;&gt;Node7</title>
<path fill="none" stroke="#191970" d="M277.5947,-112.3733C252.223,-103.2629 216.4007,-89.5062 191.4558,-79.3404"/>
<polygon fill="#191970" stroke="#191970" points="192.726,-76.0783 182.1469,-75.5011 190.0571,-82.5495 192.726,-76.0783"/>
</g>
<!-- Node8 -->
<g id="node9" class="node">
<title>Node8</title>
<g id="a_node9"><a xlink:href="a00089.xhtml" target="_top" xlink:title="Fichier MP3. ">
<polygon fill="#ffffff" stroke="#000000" points="527.2631,-56.5 527.2631,-75.5 610.2631,-75.5 610.2631,-56.5 527.2631,-56.5"/>
<text text-anchor="middle" x="568.7631" y="-63.5" font-family="Helvetica,sans-Serif" font-size="10.00" fill="#000000">file_type/mp3.h</text>
</a>
</g>
</g>
<!-- Node2&#45;&gt;Node8 -->
<g id="edge18" class="edge">
<title>Node2&#45;&gt;Node8</title>
<path fill="none" stroke="#191970" d="M338.949,-114.2722C383.0663,-104.2938 463.9206,-86.9118 517.0648,-75.9541"/>
<polygon fill="#191970" stroke="#191970" points="517.8856,-79.3587 526.9775,-73.9192 516.4779,-72.5017 517.8856,-79.3587"/>
</g>
<!-- Node9 -->
<g id="node10" class="node">
<title>Node9</title>
<g id="a_node10"><a xlink:href="a00071.xhtml" target="_top" xlink:title="Fichier AVI. ">
<polygon fill="#ffffff" stroke="#000000" points="26.2631,-56.5 26.2631,-75.5 103.2631,-75.5 103.2631,-56.5 26.2631,-56.5"/>
<text text-anchor="middle" x="64.7631" y="-63.5" font-family="Helvetica,sans-Serif" font-size="10.00" fill="#000000">file_type/avi.h</text>
</a>
</g>
</g>
<!-- Node2&#45;&gt;Node9 -->
<g id="edge22" class="edge">
<title>Node2&#45;&gt;Node9</title>
<path fill="none" stroke="#191970" d="M276.3968,-115.7931C234.2114,-106.674 159.2183,-89.4842 110.7032,-77.8862"/>
<polygon fill="#191970" stroke="#191970" points="111.3148,-74.4336 100.7739,-75.5011 109.6798,-81.24 111.3148,-74.4336"/>
</g>
<!-- Node10 -->
<g id="node11" class="node">
<title>Node10</title>
<g id="a_node11"><a xlink:href="a00083.xhtml" target="_top" xlink:title="Fichier FLV. ">
<polygon fill="#ffffff" stroke="#000000" points="222.2631,-56.5 222.2631,-75.5 297.2631,-75.5 297.2631,-56.5 222.2631,-56.5"/>
<text text-anchor="middle" x="259.7631" y="-63.5" font-family="Helvetica,sans-Serif" font-size="10.00" fill="#000000">file_type/flv.h</text>
</a>
</g>
</g>
<!-- Node2&#45;&gt;Node10 -->
<g id="edge25" class="edge">
<title>Node2&#45;&gt;Node10</title>
<path fill="none" stroke="#191970" d="M294.1353,-112.2455C285.9548,-104.4564 276.0584,-93.3308 268.7964,-83.9439"/>
<polygon fill="#191970" stroke="#191970" points="271.484,-81.6879 262.7831,-75.6427 265.8151,-85.7944 271.484,-81.6879"/>
</g>
<!-- Node5&#45;&gt;Node1 -->
<g id="edge7" class="edge">
<title>Node5&#45;&gt;Node1</title>
<path fill="none" stroke="#191970" d="M331.8367,-56.3733C307.7121,-47.0562 271.005,-32.8797 244.5282,-22.6541"/>
<polygon fill="#191970" stroke="#191970" points="245.5187,-19.2847 234.9292,-18.9469 242.9967,-25.8147 245.5187,-19.2847"/>
</g>
<!-- Node5&#45;&gt;Node2 -->
<g id="edge9" class="edge">
<title>Node5&#45;&gt;Node2</title>
<path fill="none" stroke="#191970" d="M353.5709,-75.6427C348.0811,-83.7196 338.1628,-95.4402 328.8292,-105.0751"/>
<polygon fill="#191970" stroke="#191970" points="326.2232,-102.7296 321.5651,-112.2455 331.1407,-107.7114 326.2232,-102.7296"/>
</g>
<!-- Node5&#45;&gt;Node3 -->
<g id="edge8" class="edge">
<title>Node5&#45;&gt;Node3</title>
<path fill="none" stroke="#191970" d="M375.2269,-56.2455C391.8705,-47.4527 416.5624,-34.4079 435.4823,-24.4125"/>
<polygon fill="#191970" stroke="#191970" points="437.3039,-27.4086 444.5109,-19.6427 434.034,-21.2193 437.3039,-27.4086"/>
</g>
<!-- Node6&#45;&gt;Node1 -->
<g id="edge11" class="edge">
<title>Node6&#45;&gt;Node1</title>
<path fill="none" stroke="#191970" d="M628.7045,-57.5223C625.6844,-56.9759 622.6788,-56.461 619.7631,-56 481.4202,-34.1291 315.0874,-18.7326 245.2296,-12.7561"/>
<polygon fill="#191970" stroke="#191970" points="245.125,-9.2348 234.8653,-11.8783 244.5342,-16.2098 245.125,-9.2348"/>
</g>
<!-- Node6&#45;&gt;Node2 -->
<g id="edge13" class="edge">
<title>Node6&#45;&gt;Node2</title>
<path fill="none" stroke="#191970" d="M631.3499,-75.5394C630.4813,-75.6961 629.6182,-75.8498 628.7631,-76 529.1015,-93.5028 410.7336,-109.7077 349.2207,-117.3671"/>
<polygon fill="#191970" stroke="#191970" points="348.6278,-113.9136 339.1304,-118.6092 349.4831,-120.8611 348.6278,-113.9136"/>
</g>
<!-- Node6&#45;&gt;Node3 -->
<g id="edge12" class="edge">
<title>Node6&#45;&gt;Node3</title>
<path fill="none" stroke="#191970" d="M633.3504,-56.3733C595.2861,-46.0257 535.173,-29.6842 497.4082,-19.4181"/>
<polygon fill="#191970" stroke="#191970" points="497.9541,-15.9395 487.3861,-16.6936 496.1178,-22.6944 497.9541,-15.9395"/>
</g>
<!-- Node7&#45;&gt;Node1 -->
<g id="edge15" class="edge">
<title>Node7&#45;&gt;Node1</title>
<path fill="none" stroke="#191970" d="M171.2982,-56.2455C178.2542,-48.2958 188.2513,-36.8706 196.5682,-27.3656"/>
<polygon fill="#191970" stroke="#191970" points="199.3747,-29.4732 203.3257,-19.6427 194.1066,-24.8637 199.3747,-29.4732"/>
</g>
<!-- Node7&#45;&gt;Node2 -->
<g id="edge17" class="edge">
<title>Node7&#45;&gt;Node2</title>
<path fill="none" stroke="#191970" d="M192.5815,-75.5011C217.8564,-84.5685 253.6802,-98.3201 278.7249,-108.5189"/>
<polygon fill="#191970" stroke="#191970" points="277.4994,-111.7994 288.0787,-112.3733 280.1664,-105.3273 277.4994,-111.7994"/>
</g>
<!-- Node7&#45;&gt;Node3 -->
<g id="edge16" class="edge">
<title>Node7&#45;&gt;Node3</title>
<path fill="none" stroke="#191970" d="M204.5044,-57.7768C207.6368,-57.1716 210.7495,-56.5738 213.7631,-56 290.2053,-41.4452 379.9836,-25.0254 428.108,-16.2785"/>
<polygon fill="#191970" stroke="#191970" points="428.7933,-19.7114 438.0069,-14.4808 427.5425,-12.824 428.7933,-19.7114"/>
</g>
<!-- Node8&#45;&gt;Node1 -->
<g id="edge19" class="edge">
<title>Node8&#45;&gt;Node1</title>
<path fill="none" stroke="#191970" d="M527.0424,-57.6629C523.9053,-57.084 520.7859,-56.5233 517.7631,-56 418.8013,-38.8683 301.1871,-22.2263 244.9403,-14.4952"/>
<polygon fill="#191970" stroke="#191970" points="245.2337,-11.0028 234.8513,-13.1138 244.284,-17.9381 245.2337,-11.0028"/>
</g>
<!-- Node8&#45;&gt;Node2 -->
<g id="edge21" class="edge">
<title>Node8&#45;&gt;Node2</title>
<path fill="none" stroke="#191970" d="M529.4039,-75.5671C480.757,-86.465 398.5939,-104.0669 349.068,-114.1789"/>
<polygon fill="#191970" stroke="#191970" points="348.1232,-110.7992 339.0189,-116.2179 349.5152,-117.6594 348.1232,-110.7992"/>
</g>
<!-- Node8&#45;&gt;Node3 -->
<g id="edge20" class="edge">
<title>Node8&#45;&gt;Node3</title>
<path fill="none" stroke="#191970" d="M550.2993,-56.2455C533.6556,-47.4527 508.9638,-34.4079 490.0439,-24.4125"/>
<polygon fill="#191970" stroke="#191970" points="491.4922,-21.2193 481.0153,-19.6427 488.2223,-27.4086 491.4922,-21.2193"/>
</g>
<!-- Node9&#45;&gt;Node1 -->
<g id="edge23" class="edge">
<title>Node9&#45;&gt;Node1</title>
<path fill="none" stroke="#191970" d="M90.0333,-56.3733C114.7446,-46.9594 152.4782,-32.5847 179.3788,-22.3369"/>
<polygon fill="#191970" stroke="#191970" points="180.6563,-25.5956 188.7552,-18.7649 178.1643,-19.0542 180.6563,-25.5956"/>
</g>
<!-- Node9&#45;&gt;Node2 -->
<g id="edge24" class="edge">
<title>Node9&#45;&gt;Node2</title>
<path fill="none" stroke="#191970" d="M103.5779,-73.8263C148.2804,-83.5949 221.17,-100.3474 266.7627,-111.2974"/>
<polygon fill="#191970" stroke="#191970" points="266.0726,-114.7313 276.6149,-113.6767 267.716,-107.9269 266.0726,-114.7313"/>
</g>
<!-- Node10&#45;&gt;Node1 -->
<g id="edge26" class="edge">
<title>Node10&#45;&gt;Node1</title>
<path fill="none" stroke="#191970" d="M251.4021,-56.2455C244.5881,-48.2958 234.795,-36.8706 226.6479,-27.3656"/>
<polygon fill="#191970" stroke="#191970" points="229.1936,-24.9575 220.0282,-19.6427 223.8788,-29.513 229.1936,-24.9575"/>
</g>
<!-- Node10&#45;&gt;Node2 -->
<g id="edge28" class="edge">
<title>Node10&#45;&gt;Node2</title>
<path fill="none" stroke="#191970" d="M273.2734,-75.6427C281.4373,-83.3997 291.338,-94.5176 298.6251,-103.9209"/>
<polygon fill="#191970" stroke="#191970" points="295.9616,-106.2097 304.669,-112.2455 301.6261,-102.0971 295.9616,-106.2097"/>
</g>
<!-- Node10&#45;&gt;Node3 -->
<g id="edge27" class="edge">
<title>Node10&#45;&gt;Node3</title>
<path fill="none" stroke="#191970" d="M294.66,-56.3733C332.0664,-46.0543 391.0806,-29.7745 428.3136,-19.5033"/>
<polygon fill="#191970" stroke="#191970" points="429.4924,-22.8089 438.2015,-16.7756 427.6308,-16.061 429.4924,-22.8089"/>
</g>
</g>
</svg>
