<?xml version="1.0" encoding="UTF-8" standalone="no"?>
<!DOCTYPE svg PUBLIC "-//W3C//DTD SVG 1.1//EN"
 "http://www.w3.org/Graphics/SVG/1.1/DTD/svg11.dtd">
<!-- Generated by graphviz version 2.40.1 (20161225.0304)
 -->
<!-- Title: src/detect_algo.c Pages: 1 -->
<svg width="982pt" height="196pt"
 viewBox="0.00 0.00 981.74 196.00" xmlns="http://www.w3.org/2000/svg" xmlns:xlink="http://www.w3.org/1999/xlink">
<g id="graph0" class="graph" transform="scale(1 1) rotate(0) translate(4 192)">
<title>src/detect_algo.c</title>
<polygon fill="#ffffff" stroke="transparent" points="-4,4 -4,-192 977.7404,-192 977.7404,4 -4,4"/>
<!-- Node0 -->
<g id="node1" class="node">
<title>Node0</title>
<polygon fill="#bfbfbf" stroke="#000000" points="606.2404,-168.5 606.2404,-187.5 698.2404,-187.5 698.2404,-168.5 606.2404,-168.5"/>
<text text-anchor="middle" x="652.2404" y="-175.5" font-family="Helvetica,sans-Serif" font-size="10.00" fill="#000000">src/detect_algo.c</text>
</g>
<!-- Node1 -->
<g id="node2" class="node">
<title>Node1</title>
<polygon fill="#ffffff" stroke="#bfbfbf" points="184.2404,-.5 184.2404,-19.5 230.2404,-19.5 230.2404,-.5 184.2404,-.5"/>
<text text-anchor="middle" x="207.2404" y="-7.5" font-family="Helvetica,sans-Serif" font-size="10.00" fill="#000000">stdio.h</text>
</g>
<!-- Node0&#45;&gt;Node1 -->
<g id="edge1" class="edge">
<title>Node0&#45;&gt;Node1</title>
<path fill="none" stroke="#191970" d="M605.8336,-174.1835C463.9326,-162.0446 43.0847,-122.3848 4.2404,-76 -1.4666,-69.1851 -1.3072,-62.9453 4.2404,-56 25.1286,-29.8489 122.0743,-17.4584 174.0725,-12.6067"/>
<polygon fill="#191970" stroke="#191970" points="174.4902,-16.0834 184.1399,-11.7092 173.8686,-9.111 174.4902,-16.0834"/>
</g>
<!-- Node2 -->
<g id="node3" class="node">
<title>Node2</title>
<polygon fill="#ffffff" stroke="#bfbfbf" points="628.2404,-112.5 628.2404,-131.5 676.2404,-131.5 676.2404,-112.5 628.2404,-112.5"/>
<text text-anchor="middle" x="652.2404" y="-119.5" font-family="Helvetica,sans-Serif" font-size="10.00" fill="#000000">stdlib.h</text>
</g>
<!-- Node0&#45;&gt;Node2 -->
<g id="edge2" class="edge">
<title>Node0&#45;&gt;Node2</title>
<path fill="none" stroke="#191970" d="M652.2404,-168.2455C652.2404,-160.9382 652.2404,-150.6944 652.2404,-141.7046"/>
<polygon fill="#191970" stroke="#191970" points="655.7405,-141.6426 652.2404,-131.6427 648.7405,-141.6427 655.7405,-141.6426"/>
</g>
<!-- Node3 -->
<g id="node4" class="node">
<title>Node3</title>
<polygon fill="#ffffff" stroke="#bfbfbf" points="694.2404,-112.5 694.2404,-131.5 746.2404,-131.5 746.2404,-112.5 694.2404,-112.5"/>
<text text-anchor="middle" x="720.2404" y="-119.5" font-family="Helvetica,sans-Serif" font-size="10.00" fill="#000000">assert.h</text>
</g>
<!-- Node0&#45;&gt;Node3 -->
<g id="edge3" class="edge">
<title>Node0&#45;&gt;Node3</title>
<path fill="none" stroke="#191970" d="M664.0851,-168.2455C674.1284,-159.9746 688.7398,-147.9416 700.5408,-138.2232"/>
<polygon fill="#191970" stroke="#191970" points="703.0371,-140.7015 708.5314,-131.6427 698.5871,-135.298 703.0371,-140.7015"/>
</g>
<!-- Node4 -->
<g id="node5" class="node">
<title>Node4</title>
<polygon fill="#ffffff" stroke="#bfbfbf" points="764.7404,-112.5 764.7404,-131.5 813.7404,-131.5 813.7404,-112.5 764.7404,-112.5"/>
<text text-anchor="middle" x="789.2404" y="-119.5" font-family="Helvetica,sans-Serif" font-size="10.00" fill="#000000">string.h</text>
</g>
<!-- Node0&#45;&gt;Node4 -->
<g id="edge4" class="edge">
<title>Node0&#45;&gt;Node4</title>
<path fill="none" stroke="#191970" d="M675.7915,-168.3733C698.0795,-159.2629 731.7341,-145.5062 756.6041,-135.3404"/>
<polygon fill="#191970" stroke="#191970" points="758.0643,-138.5247 765.9966,-131.5011 755.4157,-132.0451 758.0643,-138.5247"/>
</g>
<!-- Node5 -->
<g id="node6" class="node">
<title>Node5</title>
<polygon fill="#ffffff" stroke="#bfbfbf" points="832.2404,-112.5 832.2404,-131.5 876.2404,-131.5 876.2404,-112.5 832.2404,-112.5"/>
<text text-anchor="middle" x="854.2404" y="-119.5" font-family="Helvetica,sans-Serif" font-size="10.00" fill="#000000">time.h</text>
</g>
<!-- Node0&#45;&gt;Node5 -->
<g id="edge5" class="edge">
<title>Node0&#45;&gt;Node5</title>
<path fill="none" stroke="#191970" d="M689.7501,-168.4771C722.3917,-160.064 771.1869,-147.1864 822.0698,-132.2539"/>
<polygon fill="#191970" stroke="#191970" points="823.331,-135.531 831.9301,-129.3418 821.3482,-128.8176 823.331,-135.531"/>
</g>
<!-- Node6 -->
<g id="node7" class="node">
<title>Node6</title>
<g id="a_node7"><a xlink:href="a00008.xhtml" target="_top" xlink:title="Définitions communes à la partie privée et public de la bibliothèque. ">
<polygon fill="#ffffff" stroke="#000000" points="650.2404,-56.5 650.2404,-75.5 742.2404,-75.5 742.2404,-56.5 650.2404,-56.5"/>
<text text-anchor="middle" x="696.2404" y="-63.5" font-family="Helvetica,sans-Serif" font-size="10.00" fill="#000000">stegx_common.h</text>
</a>
</g>
</g>
<!-- Node0&#45;&gt;Node6 -->
<g id="edge6" class="edge">
<title>Node0&#45;&gt;Node6</title>
<path fill="none" stroke="#191970" d="M641.3265,-168.4374C627.8833,-155.4514 608.1128,-131.6098 619.2404,-112 627.499,-97.4463 642.392,-87.0054 656.8945,-79.7891"/>
<polygon fill="#191970" stroke="#191970" points="658.6487,-82.8359 666.2946,-75.5017 655.7438,-76.4671 658.6487,-82.8359"/>
</g>
<!-- Node7 -->
<g id="node8" class="node">
<title>Node7</title>
<g id="a_node8"><a xlink:href="a00011.xhtml" target="_top" xlink:title="Module de gestion des erreurs. ">
<polygon fill="#ffffff" stroke="#000000" points="894.7404,-112.5 894.7404,-131.5 973.7404,-131.5 973.7404,-112.5 894.7404,-112.5"/>
<text text-anchor="middle" x="934.2404" y="-119.5" font-family="Helvetica,sans-Serif" font-size="10.00" fill="#000000">stegx_errors.h</text>
</a>
</g>
</g>
<!-- Node0&#45;&gt;Node7 -->
<g id="edge7" class="edge">
<title>Node0&#45;&gt;Node7</title>
<path fill="none" stroke="#191970" d="M698.6757,-168.9233C743.601,-160.1213 813.8911,-146.2964 884.6757,-132.1039"/>
<polygon fill="#191970" stroke="#191970" points="885.5486,-135.4986 894.6644,-130.0993 884.1712,-128.6354 885.5486,-135.4986"/>
</g>
<!-- Node8 -->
<g id="node9" class="node">
<title>Node8</title>
<g id="a_node9"><a xlink:href="a00047.xhtml" target="_top" xlink:title="Définitions communes à la partie privée de la bibliothèque. ">
<polygon fill="#ffffff" stroke="#000000" points="327.2404,-112.5 327.2404,-131.5 389.2404,-131.5 389.2404,-112.5 327.2404,-112.5"/>
<text text-anchor="middle" x="358.2404" y="-119.5" font-family="Helvetica,sans-Serif" font-size="10.00" fill="#000000">common.h</text>
</a>
</g>
</g>
<!-- Node0&#45;&gt;Node8 -->
<g id="edge8" class="edge">
<title>Node0&#45;&gt;Node8</title>
<path fill="none" stroke="#191970" d="M605.9795,-169.1884C549.1625,-158.3661 453.6588,-140.1749 399.3219,-129.825"/>
<polygon fill="#191970" stroke="#191970" points="399.8287,-126.3587 389.3504,-127.9257 398.5188,-133.2351 399.8287,-126.3587"/>
</g>
<!-- Node16 -->
<g id="node17" class="node">
<title>Node16</title>
<g id="a_node17"><a xlink:href="a00131.xhtml" target="_top" xlink:title="Proposition des algorithmes. ">
<polygon fill="#ffffff" stroke="#000000" points="502.7404,-112.5 502.7404,-131.5 571.7404,-131.5 571.7404,-112.5 502.7404,-112.5"/>
<text text-anchor="middle" x="537.2404" y="-119.5" font-family="Helvetica,sans-Serif" font-size="10.00" fill="#000000">sugg_algo.h</text>
</a>
</g>
</g>
<!-- Node0&#45;&gt;Node16 -->
<g id="edge35" class="edge">
<title>Node0&#45;&gt;Node16</title>
<path fill="none" stroke="#191970" d="M632.4712,-168.3733C614.0935,-159.4241 586.5092,-145.9917 565.7511,-135.8835"/>
<polygon fill="#191970" stroke="#191970" points="567.2747,-132.7325 556.7516,-131.5011 564.21,-139.026 567.2747,-132.7325"/>
</g>
<!-- Node8&#45;&gt;Node1 -->
<g id="edge9" class="edge">
<title>Node8&#45;&gt;Node1</title>
<path fill="none" stroke="#191970" d="M327.0414,-120.1637C245.8577,-115.0691 32.8772,-99.562 12.2404,-76 6.3838,-69.3132 6.7235,-62.9697 12.2404,-56 32.0423,-30.9834 123.6011,-18.1988 173.9052,-12.9617"/>
<polygon fill="#191970" stroke="#191970" points="174.3697,-16.4329 183.9727,-11.9571 173.6745,-9.4675 174.3697,-16.4329"/>
</g>
<!-- Node8&#45;&gt;Node6 -->
<g id="edge11" class="edge">
<title>Node8&#45;&gt;Node6</title>
<path fill="none" stroke="#191970" d="M389.5108,-116.838C440.9677,-108.3409 546.7195,-90.8665 636.2404,-76 637.5003,-75.7908 638.775,-75.579 640.0604,-75.3654"/>
<polygon fill="#191970" stroke="#191970" points="640.7632,-78.7967 650.0535,-73.7034 639.6148,-71.8915 640.7632,-78.7967"/>
</g>
<!-- Node9 -->
<g id="node10" class="node">
<title>Node9</title>
<polygon fill="#ffffff" stroke="#bfbfbf" points="381.7404,-.5 381.7404,-19.5 430.7404,-19.5 430.7404,-.5 381.7404,-.5"/>
<text text-anchor="middle" x="406.2404" y="-7.5" font-family="Helvetica,sans-Serif" font-size="10.00" fill="#000000">stdint.h</text>
</g>
<!-- Node8&#45;&gt;Node9 -->
<g id="edge10" class="edge">
<title>Node8&#45;&gt;Node9</title>
<path fill="none" stroke="#191970" d="M389.6741,-120.8974C449.5578,-118.0656 576.4347,-108.307 603.2404,-76 608.9163,-69.1592 608.7652,-62.9634 603.2404,-56 583.3703,-30.9556 492.1352,-18.2683 441.0841,-13.0282"/>
<polygon fill="#191970" stroke="#191970" points="441.1348,-9.5165 430.8404,-12.0213 440.45,-16.4829 441.1348,-9.5165"/>
</g>
<!-- Node10 -->
<g id="node11" class="node">
<title>Node10</title>
<g id="a_node11"><a xlink:href="a00077.xhtml" target="_top" xlink:title="Fichier BMP. ">
<polygon fill="#ffffff" stroke="#000000" points="510.7404,-56.5 510.7404,-75.5 593.7404,-75.5 593.7404,-56.5 510.7404,-56.5"/>
<text text-anchor="middle" x="552.2404" y="-63.5" font-family="Helvetica,sans-Serif" font-size="10.00" fill="#000000">file_type/bmp.h</text>
</a>
</g>
</g>
<!-- Node8&#45;&gt;Node10 -->
<g id="edge12" class="edge">
<title>Node8&#45;&gt;Node10</title>
<path fill="none" stroke="#191970" d="M386.3482,-112.3733C417.181,-102.9404 466.9631,-88.5265 504.0202,-78.2747"/>
<polygon fill="#191970" stroke="#191970" points="505.3941,-81.5269 514.1085,-75.5011 503.5384,-74.7774 505.3941,-81.5269"/>
</g>
<!-- Node11 -->
<g id="node12" class="node">
<title>Node11</title>
<g id="a_node12"><a xlink:href="a00095.xhtml" target="_top" xlink:title="Fichier PNG. ">
<polygon fill="#ffffff" stroke="#000000" points="117.2404,-56.5 117.2404,-75.5 197.2404,-75.5 197.2404,-56.5 117.2404,-56.5"/>
<text text-anchor="middle" x="157.2404" y="-63.5" font-family="Helvetica,sans-Serif" font-size="10.00" fill="#000000">file_type/png.h</text>
</a>
</g>
</g>
<!-- Node8&#45;&gt;Node11 -->
<g id="edge16" class="edge">
<title>Node8&#45;&gt;Node11</title>
<path fill="none" stroke="#191970" d="M327.2319,-114.679C291.9079,-105.4802 234.4128,-89.5535 196.1397,-78.4314"/>
<polygon fill="#191970" stroke="#191970" points="196.9498,-75.0217 186.3693,-75.573 194.9843,-81.7401 196.9498,-75.0217"/>
</g>
<!-- Node12 -->
<g id="node13" class="node">
<title>Node12</title>
<g id="a_node13"><a xlink:href="a00104.xhtml" target="_top" xlink:title="Fichier WAVE. ">
<polygon fill="#ffffff" stroke="#000000" points="215.7404,-56.5 215.7404,-75.5 298.7404,-75.5 298.7404,-56.5 215.7404,-56.5"/>
<text text-anchor="middle" x="257.2404" y="-63.5" font-family="Helvetica,sans-Serif" font-size="10.00" fill="#000000">file_type/wav.h</text>
</a>
</g>
</g>
<!-- Node8&#45;&gt;Node12 -->
<g id="edge20" class="edge">
<title>Node8&#45;&gt;Node12</title>
<path fill="none" stroke="#191970" d="M335.6359,-112.3733C318.2283,-103.666 294.6091,-90.7145 277.7484,-80.7102"/>
<polygon fill="#191970" stroke="#191970" points="279.5245,-77.694 269.1591,-75.5011 275.8946,-83.6793 279.5245,-77.694"/>
</g>
<!-- Node13 -->
<g id="node14" class="node">
<title>Node13</title>
<g id="a_node14"><a xlink:href="a00089.xhtml" target="_top" xlink:title="Fichier MP3. ">
<polygon fill="#ffffff" stroke="#000000" points="316.7404,-56.5 316.7404,-75.5 399.7404,-75.5 399.7404,-56.5 316.7404,-56.5"/>
<text text-anchor="middle" x="358.2404" y="-63.5" font-family="Helvetica,sans-Serif" font-size="10.00" fill="#000000">file_type/mp3.h</text>
</a>
</g>
</g>
<!-- Node8&#45;&gt;Node13 -->
<g id="edge24" class="edge">
<title>Node8&#45;&gt;Node13</title>
<path fill="none" stroke="#191970" d="M352.9735,-112.2455C351.5625,-104.9382 351.1583,-94.6944 351.7609,-85.7046"/>
<polygon fill="#191970" stroke="#191970" points="355.2515,-85.9945 352.9953,-75.6427 348.3036,-85.1421 355.2515,-85.9945"/>
</g>
<!-- Node14 -->
<g id="node15" class="node">
<title>Node14</title>
<g id="a_node15"><a xlink:href="a00071.xhtml" target="_top" xlink:title="Fichier AVI. ">
<polygon fill="#ffffff" stroke="#000000" points="21.7404,-56.5 21.7404,-75.5 98.7404,-75.5 98.7404,-56.5 21.7404,-56.5"/>
<text text-anchor="middle" x="60.2404" y="-63.5" font-family="Helvetica,sans-Serif" font-size="10.00" fill="#000000">file_type/avi.h</text>
</a>
</g>
</g>
<!-- Node8&#45;&gt;Node14 -->
<g id="edge28" class="edge">
<title>Node8&#45;&gt;Node14</title>
<path fill="none" stroke="#191970" d="M326.8828,-117.4318C279.7494,-109.698 188.3746,-93.3542 106.6304,-77.4396"/>
<polygon fill="#191970" stroke="#191970" points="107.1986,-73.9845 96.7129,-75.5016 105.856,-80.8546 107.1986,-73.9845"/>
</g>
<!-- Node15 -->
<g id="node16" class="node">
<title>Node15</title>
<g id="a_node16"><a xlink:href="a00083.xhtml" target="_top" xlink:title="Fichier FLV. ">
<polygon fill="#ffffff" stroke="#000000" points="417.7404,-56.5 417.7404,-75.5 492.7404,-75.5 492.7404,-56.5 417.7404,-56.5"/>
<text text-anchor="middle" x="455.2404" y="-63.5" font-family="Helvetica,sans-Serif" font-size="10.00" fill="#000000">file_type/flv.h</text>
</a>
</g>
</g>
<!-- Node8&#45;&gt;Node15 -->
<g id="edge31" class="edge">
<title>Node8&#45;&gt;Node15</title>
<path fill="none" stroke="#191970" d="M369.8697,-112.2455C383.4023,-103.4527 405.7576,-90.4079 424.2887,-80.4125"/>
<polygon fill="#191970" stroke="#191970" points="426.0945,-83.4167 433.2928,-75.6427 422.8177,-77.2311 426.0945,-83.4167"/>
</g>
<!-- Node10&#45;&gt;Node1 -->
<g id="edge13" class="edge">
<title>Node10&#45;&gt;Node1</title>
<path fill="none" stroke="#191970" d="M510.5237,-57.5182C507.7229,-56.9915 504.9422,-56.4806 502.2404,-56 407.5102,-39.1492 295.0562,-22.5501 240.3873,-14.6972"/>
<polygon fill="#191970" stroke="#191970" points="240.6414,-11.198 230.2463,-13.2458 239.6495,-18.1274 240.6414,-11.198"/>
</g>
<!-- Node10&#45;&gt;Node8 -->
<g id="edge15" class="edge">
<title>Node10&#45;&gt;Node8</title>
<path fill="none" stroke="#191970" d="M524.4127,-75.541C491.5725,-85.5933 436.9638,-101.3705 399.2914,-111.7001"/>
<polygon fill="#191970" stroke="#191970" points="398.3552,-108.3275 389.6253,-114.3309 400.1935,-115.0819 398.3552,-108.3275"/>
</g>
<!-- Node10&#45;&gt;Node9 -->
<g id="edge14" class="edge">
<title>Node10&#45;&gt;Node9</title>
<path fill="none" stroke="#191970" d="M527.1421,-56.3733C503.2849,-47.2226 467.2069,-33.3844 440.6694,-23.2057"/>
<polygon fill="#191970" stroke="#191970" points="441.6014,-19.8145 431.0112,-19.5011 439.0945,-26.3503 441.6014,-19.8145"/>
</g>
<!-- Node11&#45;&gt;Node1 -->
<g id="edge17" class="edge">
<title>Node11&#45;&gt;Node1</title>
<path fill="none" stroke="#191970" d="M165.9497,-56.2455C173.0477,-48.2958 183.2488,-36.8706 191.7354,-27.3656"/>
<polygon fill="#191970" stroke="#191970" points="194.5815,-29.4331 198.6309,-19.6427 189.3599,-24.771 194.5815,-29.4331"/>
</g>
<!-- Node11&#45;&gt;Node8 -->
<g id="edge19" class="edge">
<title>Node11&#45;&gt;Node8</title>
<path fill="none" stroke="#191970" d="M196.5599,-75.5011C231.966,-84.8494 283.5633,-99.1765 318.9538,-109.4561"/>
<polygon fill="#191970" stroke="#191970" points="318.3489,-112.9257 328.9293,-112.3733 320.3137,-106.2071 318.3489,-112.9257"/>
</g>
<!-- Node11&#45;&gt;Node9 -->
<g id="edge18" class="edge">
<title>Node11&#45;&gt;Node9</title>
<path fill="none" stroke="#191970" d="M197.2466,-57.0026C245.4563,-46.1603 325.6703,-28.1202 371.4308,-17.8287"/>
<polygon fill="#191970" stroke="#191970" points="372.4774,-21.1808 381.4657,-15.5718 370.9414,-14.3514 372.4774,-21.1808"/>
</g>
<!-- Node12&#45;&gt;Node1 -->
<g id="edge21" class="edge">
<title>Node12&#45;&gt;Node1</title>
<path fill="none" stroke="#191970" d="M248.5311,-56.2455C241.4331,-48.2958 231.232,-36.8706 222.7454,-27.3656"/>
<polygon fill="#191970" stroke="#191970" points="225.1209,-24.771 215.8499,-19.6427 219.8993,-29.4331 225.1209,-24.771"/>
</g>
<!-- Node12&#45;&gt;Node8 -->
<g id="edge23" class="edge">
<title>Node12&#45;&gt;Node8</title>
<path fill="none" stroke="#191970" d="M279.8768,-75.6427C297.1405,-84.2794 320.5004,-97.0824 337.322,-107.0465"/>
<polygon fill="#191970" stroke="#191970" points="335.5467,-110.0632 345.9144,-112.2455 339.1706,-104.0741 335.5467,-110.0632"/>
</g>
<!-- Node12&#45;&gt;Node9 -->
<g id="edge22" class="edge">
<title>Node12&#45;&gt;Node9</title>
<path fill="none" stroke="#191970" d="M282.8544,-56.3733C307.4573,-47.1265 344.7952,-33.0935 371.9532,-22.8865"/>
<polygon fill="#191970" stroke="#191970" points="373.3264,-26.1095 381.4557,-19.315 370.8637,-19.557 373.3264,-26.1095"/>
</g>
<!-- Node13&#45;&gt;Node1 -->
<g id="edge25" class="edge">
<title>Node13&#45;&gt;Node1</title>
<path fill="none" stroke="#191970" d="M332.2826,-56.3733C306.7487,-46.9037 267.6793,-32.4144 240.0165,-22.1554"/>
<polygon fill="#191970" stroke="#191970" points="240.9803,-18.7799 230.3873,-18.5843 238.5463,-25.3431 240.9803,-18.7799"/>
</g>
<!-- Node13&#45;&gt;Node8 -->
<g id="edge27" class="edge">
<title>Node13&#45;&gt;Node8</title>
<path fill="none" stroke="#191970" d="M363.4855,-75.6427C364.9069,-82.9199 365.3214,-93.155 364.7291,-102.1575"/>
<polygon fill="#191970" stroke="#191970" points="361.2351,-101.8972 363.5072,-112.2455 368.1843,-102.739 361.2351,-101.8972"/>
</g>
<!-- Node13&#45;&gt;Node9 -->
<g id="edge26" class="edge">
<title>Node13&#45;&gt;Node9</title>
<path fill="none" stroke="#191970" d="M366.6014,-56.2455C373.4154,-48.2958 383.2085,-36.8706 391.3556,-27.3656"/>
<polygon fill="#191970" stroke="#191970" points="394.1247,-29.513 397.9752,-19.6427 388.8099,-24.9575 394.1247,-29.513"/>
</g>
<!-- Node14&#45;&gt;Node1 -->
<g id="edge29" class="edge">
<title>Node14&#45;&gt;Node1</title>
<path fill="none" stroke="#191970" d="M85.5106,-56.3733C110.2219,-46.9594 147.9555,-32.5847 174.8561,-22.3369"/>
<polygon fill="#191970" stroke="#191970" points="176.1336,-25.5956 184.2325,-18.7649 173.6416,-19.0542 176.1336,-25.5956"/>
</g>
<!-- Node14&#45;&gt;Node8 -->
<g id="edge30" class="edge">
<title>Node14&#45;&gt;Node8</title>
<path fill="none" stroke="#191970" d="M98.9924,-72.3496C105.1549,-73.5858 111.3932,-74.8531 117.2404,-76 187.4422,-89.7693 268.9803,-104.5452 317.0637,-113.5319"/>
<polygon fill="#191970" stroke="#191970" points="316.6159,-117.0089 327.09,-115.4139 317.9074,-110.129 316.6159,-117.0089"/>
</g>
<!-- Node15&#45;&gt;Node1 -->
<g id="edge32" class="edge">
<title>Node15&#45;&gt;Node1</title>
<path fill="none" stroke="#191970" d="M417.5745,-57.4948C369.3018,-46.5945 286.3746,-27.869 240.3888,-17.4851"/>
<polygon fill="#191970" stroke="#191970" points="240.8743,-14.0067 230.3489,-15.2181 239.3324,-20.8348 240.8743,-14.0067"/>
</g>
<!-- Node15&#45;&gt;Node8 -->
<g id="edge34" class="edge">
<title>Node15&#45;&gt;Node8</title>
<path fill="none" stroke="#191970" d="M443.783,-75.6427C430.3256,-84.3993 407.9918,-97.4388 389.4283,-107.46"/>
<polygon fill="#191970" stroke="#191970" points="387.5985,-104.4686 380.4033,-112.2455 390.8778,-110.653 387.5985,-104.4686"/>
</g>
<!-- Node15&#45;&gt;Node9 -->
<g id="edge33" class="edge">
<title>Node15&#45;&gt;Node9</title>
<path fill="none" stroke="#191970" d="M446.7052,-56.2455C439.7492,-48.2958 429.7521,-36.8706 421.4353,-27.3656"/>
<polygon fill="#191970" stroke="#191970" points="423.8968,-24.8637 414.6777,-19.6427 418.6288,-29.4732 423.8968,-24.8637"/>
</g>
<!-- Node16&#45;&gt;Node6 -->
<g id="edge36" class="edge">
<title>Node16&#45;&gt;Node6</title>
<path fill="none" stroke="#191970" d="M564.5735,-112.3733C590.7838,-103.1419 630.5388,-89.1402 659.5072,-78.9375"/>
<polygon fill="#191970" stroke="#191970" points="660.9946,-82.1244 669.264,-75.5011 658.6692,-75.5219 660.9946,-82.1244"/>
</g>
</g>
</svg>
