<?xml version="1.0" encoding="UTF-8" standalone="no"?>
<!DOCTYPE svg PUBLIC "-//W3C//DTD SVG 1.1//EN"
 "http://www.w3.org/Graphics/SVG/1.1/DTD/svg11.dtd">
<!-- Generated by graphviz version 2.40.1 (20161225.0304)
 -->
<!-- Title: stegx_extract Pages: 1 -->
<!--zoomable 786 -->
<svg id="main" version="1.1" xmlns="http://www.w3.org/2000/svg" xmlns:xlink="http://www.w3.org/1999/xlink" xml:space="preserve" onload="init(evt)">
<style type="text/css"><![CDATA[
.edge:hover path { stroke: red; }
.edge:hover polygon { stroke: red; fill: red; }
]]></style>
<script type="text/javascript"><![CDATA[
var edges = document.getElementsByTagName('g');
if (edges && edges.length) {
  for (var i=0;i<edges.length;i++) {
    if (edges[i].id.substr(0,4)=='edge') {
      edges[i].setAttribute('class','edge');
    }
  }
}
]]></script>
        <defs>
                <circle id="rim" cx="0" cy="0" r="7"/>
                <circle id="rim2" cx="0" cy="0" r="3.5"/>
                <g id="zoomPlus">
                        <use xlink:href="#rim" fill="#404040">
                                <set attributeName="fill" to="#808080" begin="zoomplus.mouseover" end="zoomplus.mouseout"/>
                        </use>
                        <path d="M-4,0h8M0,-4v8" fill="none" stroke="white" stroke-width="1.5" pointer-events="none"/>
                </g>
                <g id="zoomMin">
                        <use xlink:href="#rim" fill="#404040">
                                <set attributeName="fill" to="#808080" begin="zoomminus.mouseover" end="zoomminus.mouseout"/>
                        </use>
                        <path d="M-4,0h8" fill="none" stroke="white" stroke-width="1.5" pointer-events="none"/>
                </g>
                <g id="dirArrow">
                        <path fill="none" stroke="white" stroke-width="1.5" d="M0,-3.0v7 M-2.5,-0.5L0,-3.0L2.5,-0.5"/>
                </g>
               <g id="resetDef">
                       <use xlink:href="#rim2" fill="#404040">
                               <set attributeName="fill" to="#808080" begin="reset.mouseover" end="reset.mouseout"/>
                       </use>
               </g>
        </defs>

<script type="text/javascript">
var viewWidth = 1172;
var viewHeight = 786;
var sectionId = 'dynsection-4';
</script>
<script xlink:href="svgpan.js"/>
<svg id="graph" class="graph">
<g id="viewport">
<title>stegx_extract</title>
<polygon fill="#ffffff" stroke="transparent" points="-4,4 -4,-782.1392 1168,-782.1392 1168,4 -4,4"/>
<!-- Node36 -->
<g id="node1" class="node">
<title>Node36</title>
<polygon fill="#bfbfbf" stroke="#000000" points="0,-283.6392 0,-302.6392 76,-302.6392 76,-283.6392 0,-283.6392"/>
<text text-anchor="middle" x="38" y="-290.6392" font-family="Helvetica,sans-Serif" font-size="10.00" fill="#000000">stegx_extract</text>
</g>
<!-- Node37 -->
<g id="node2" class="node">
<title>Node37</title>
<g id="a_node2"><a xlink:href="a00032.xhtml#abc757e2627fc9971e388a584e0e0c2ca" target="_top" xlink:title="Va extraire les donnees cachees en utilisant l&#39;algorithme LSB. ">
<polygon fill="#ffffff" stroke="#000000" points="274.5,-473.6392 274.5,-492.6392 339.5,-492.6392 339.5,-473.6392 274.5,-473.6392"/>
<text text-anchor="middle" x="307" y="-480.6392" font-family="Helvetica,sans-Serif" font-size="10.00" fill="#000000">extract_lsb</text>
</a>
</g>
</g>
<!-- Node36&#45;&gt;Node37 -->
<g id="edge1" class="edge">
<title>Node36&#45;&gt;Node37</title>
<path fill="none" stroke="#191970" d="M51.7096,-302.8225C95.3308,-333.6331 231.1869,-429.5909 284.8615,-467.5023"/>
<polygon fill="#191970" stroke="#191970" points="283.1308,-470.5649 293.318,-473.4754 287.1693,-464.8473 283.1308,-470.5649"/>
</g>
<!-- Node50 -->
<g id="node15" class="node">
<title>Node50</title>
<g id="a_node15"><a xlink:href="a00020.xhtml#a0204ccf62793e17621fea9abae71e9da" target="_top" xlink:title="Va extraire les donnees cachees en utilisant l&#39;algorithme EOF. ">
<polygon fill="#ffffff" stroke="#000000" points="130,-283.6392 130,-302.6392 195,-302.6392 195,-283.6392 130,-283.6392"/>
<text text-anchor="middle" x="162.5" y="-290.6392" font-family="Helvetica,sans-Serif" font-size="10.00" fill="#000000">extract_eof</text>
</a>
</g>
</g>
<!-- Node36&#45;&gt;Node50 -->
<g id="edge23" class="edge">
<title>Node36&#45;&gt;Node50</title>
<path fill="none" stroke="#191970" d="M76.0306,-293.1392C89.841,-293.1392 105.5356,-293.1392 119.728,-293.1392"/>
<polygon fill="#191970" stroke="#191970" points="119.7484,-296.6393 129.7484,-293.1392 119.7484,-289.6393 119.7484,-296.6393"/>
</g>
<!-- Node56 -->
<g id="node21" class="node">
<title>Node56</title>
<g id="a_node21"><a xlink:href="a00038.xhtml#a069239660c8070698c4ddcbbd6debe0b" target="_top" xlink:title="Va extraire les donnees cachees en utilisant l&#39;algorithme Metadata. ">
<polygon fill="#ffffff" stroke="#000000" points="116.5,-131.6392 116.5,-150.6392 208.5,-150.6392 208.5,-131.6392 116.5,-131.6392"/>
<text text-anchor="middle" x="162.5" y="-138.6392" font-family="Helvetica,sans-Serif" font-size="10.00" fill="#000000">extract_metadata</text>
</a>
</g>
</g>
<!-- Node36&#45;&gt;Node56 -->
<g id="edge38" class="edge">
<title>Node36&#45;&gt;Node56</title>
<path fill="none" stroke="#191970" d="M45.788,-283.6309C66.2251,-258.6796 121.6325,-191.0337 148.0773,-158.7477"/>
<polygon fill="#191970" stroke="#191970" points="151.086,-160.5979 154.7149,-150.6439 145.6707,-156.1623 151.086,-160.5979"/>
</g>
<!-- Node61 -->
<g id="node26" class="node">
<title>Node61</title>
<g id="a_node26"><a xlink:href="a00014.xhtml#ad0cda2ae23fda82b16083952ca1b698a" target="_top" xlink:title="Va extraire les donnees cachees en utilisant l&#39;algorithme EOC. ">
<polygon fill="#ffffff" stroke="#000000" points="273,-359.6392 273,-378.6392 341,-378.6392 341,-359.6392 273,-359.6392"/>
<text text-anchor="middle" x="307" y="-366.6392" font-family="Helvetica,sans-Serif" font-size="10.00" fill="#000000">extract_eoc</text>
</a>
</g>
</g>
<!-- Node36&#45;&gt;Node61 -->
<g id="edge52" class="edge">
<title>Node36&#45;&gt;Node61</title>
<path fill="none" stroke="#191970" d="M71.7967,-302.6877C120.3156,-316.3957 209.7433,-341.6615 263.2523,-356.7793"/>
<polygon fill="#191970" stroke="#191970" points="262.5551,-360.2192 273.13,-359.57 264.4583,-353.4829 262.5551,-360.2192"/>
</g>
<!-- Node62 -->
<g id="node27" class="node">
<title>Node62</title>
<g id="a_node27"><a xlink:href="a00026.xhtml#ad04f5216bd1375440a90d0c51a4ba590" target="_top" xlink:title="Va extraire les donnees cachees en utilisant l&#39;algorithme Junk Chunk. ">
<polygon fill="#ffffff" stroke="#000000" points="112,-245.6392 112,-264.6392 213,-264.6392 213,-245.6392 112,-245.6392"/>
<text text-anchor="middle" x="162.5" y="-252.6392" font-family="Helvetica,sans-Serif" font-size="10.00" fill="#000000">extract_junk_chunk</text>
</a>
</g>
</g>
<!-- Node36&#45;&gt;Node62 -->
<g id="edge58" class="edge">
<title>Node36&#45;&gt;Node62</title>
<path fill="none" stroke="#191970" d="M69.4166,-283.5502C85.1935,-278.7348 104.5054,-272.8404 121.4412,-267.6712"/>
<polygon fill="#191970" stroke="#191970" points="122.5508,-270.992 131.0934,-264.7251 120.5073,-264.2969 122.5508,-270.992"/>
</g>
<!-- Node38 -->
<g id="node3" class="node">
<title>Node38</title>
<g id="a_node3"><a xlink:href="a00122.xhtml#a4e9a217b960dc65fd08dff9f78e317e4" target="_top" xlink:title="Initialise la seed de la suite pseudo aléatoire. ">
<polygon fill="#ffffff" stroke="#000000" points="566.5,-207.6392 566.5,-226.6392 636.5,-226.6392 636.5,-207.6392 566.5,-207.6392"/>
<text text-anchor="middle" x="601.5" y="-214.6392" font-family="Helvetica,sans-Serif" font-size="10.00" fill="#000000">stegx_srand</text>
</a>
</g>
</g>
<!-- Node37&#45;&gt;Node38 -->
<g id="edge2" class="edge">
<title>Node37&#45;&gt;Node38</title>
<path fill="none" stroke="#191970" d="M339.5113,-476.4985C383.4571,-465.7773 461.1221,-440.3504 503,-388.1392 546.438,-333.983 491.469,-286.7411 539,-236.1392 543.7995,-231.0297 549.925,-227.2799 556.4564,-224.531"/>
<polygon fill="#191970" stroke="#191970" points="557.8902,-227.7393 566.209,-221.1782 555.6143,-221.1196 557.8902,-227.7393"/>
</g>
<!-- Node39 -->
<g id="node4" class="node">
<title>Node39</title>
<g id="a_node4"><a xlink:href="a00122.xhtml#a2a891bbe3514201de3cfc5acced104b7" target="_top" xlink:title="Cree un seed a partir d&#39;un mot de passe. ">
<polygon fill="#ffffff" stroke="#000000" points="566.5,-302.6392 566.5,-321.6392 636.5,-321.6392 636.5,-302.6392 566.5,-302.6392"/>
<text text-anchor="middle" x="601.5" y="-309.6392" font-family="Helvetica,sans-Serif" font-size="10.00" fill="#000000">create_seed</text>
</a>
</g>
</g>
<!-- Node37&#45;&gt;Node39 -->
<g id="edge3" class="edge">
<title>Node37&#45;&gt;Node39</title>
<path fill="none" stroke="#191970" d="M313.2982,-492.9341C326.6361,-512.6481 359.9059,-556.6384 401,-573.1392 443.0686,-590.0313 465.7123,-598.9217 503,-573.1392 544.7411,-544.2774 584.1494,-387.7692 597.0729,-331.9388"/>
<polygon fill="#191970" stroke="#191970" points="600.5494,-332.4357 599.359,-321.9079 593.7244,-330.8802 600.5494,-332.4357"/>
</g>
<!-- Node40 -->
<g id="node5" class="node">
<title>Node40</title>
<g id="a_node5"><a xlink:href="a00122.xhtml#a9966534d45c62d0df7a3d5df48668715" target="_top" xlink:title="Renvoie un entier pseudo&#45;aléatoire. ">
<polygon fill="#ffffff" stroke="#000000" points="569,-245.6392 569,-264.6392 634,-264.6392 634,-245.6392 569,-245.6392"/>
<text text-anchor="middle" x="601.5" y="-252.6392" font-family="Helvetica,sans-Serif" font-size="10.00" fill="#000000">stegx_rand</text>
</a>
</g>
</g>
<!-- Node37&#45;&gt;Node40 -->
<g id="edge4" class="edge">
<title>Node37&#45;&gt;Node40</title>
<path fill="none" stroke="#191970" d="M325.516,-492.7557C363.6398,-511.0647 451.6242,-545.4222 503,-502.1392 575.0849,-441.4093 485.9697,-371.0631 539,-293.1392 545.8521,-283.0706 556.342,-275.2128 566.7824,-269.3224"/>
<polygon fill="#191970" stroke="#191970" points="568.5676,-272.3398 575.8518,-264.6463 565.3597,-266.1181 568.5676,-272.3398"/>
</g>
<!-- Node41 -->
<g id="node6" class="node">
<title>Node41</title>
<g id="a_node6"><a xlink:href="a00032.xhtml#a72239fe09f5e932458901b822ccdf945" target="_top" xlink:title="Cache les octets de data dans pixels selon l&#39;algorithme de protection des données en LSB...">
<polygon fill="#ffffff" stroke="#000000" points="407.5,-473.6392 407.5,-492.6392 496.5,-492.6392 496.5,-473.6392 407.5,-473.6392"/>
<text text-anchor="middle" x="452" y="-480.6392" font-family="Helvetica,sans-Serif" font-size="10.00" fill="#000000">protect_data_lsb</text>
</a>
</g>
</g>
<!-- Node37&#45;&gt;Node41 -->
<g id="edge5" class="edge">
<title>Node37&#45;&gt;Node41</title>
<path fill="none" stroke="#191970" d="M339.5408,-483.1392C356.5274,-483.1392 377.77,-483.1392 397.2046,-483.1392"/>
<polygon fill="#191970" stroke="#191970" points="397.4728,-486.6393 407.4727,-483.1392 397.4727,-479.6393 397.4728,-486.6393"/>
</g>
<!-- Node42 -->
<g id="node7" class="node">
<title>Node42</title>
<g id="a_node7"><a xlink:href="a00056.xhtml#a7434fd197d31a9571f92f9dca4f212e9" target="_top" xlink:title="Convertit un nombre en big endian dans l&#39;endian de la machine. ">
<polygon fill="#ffffff" stroke="#000000" points="412,-359.6392 412,-378.6392 492,-378.6392 492,-359.6392 412,-359.6392"/>
<text text-anchor="middle" x="452" y="-366.6392" font-family="Helvetica,sans-Serif" font-size="10.00" fill="#000000">stegx_be32toh</text>
</a>
</g>
</g>
<!-- Node37&#45;&gt;Node42 -->
<g id="edge9" class="edge">
<title>Node37&#45;&gt;Node42</title>
<path fill="none" stroke="#191970" d="M319.3626,-473.4196C344.296,-453.8169 400.8333,-409.3668 431.4236,-385.3165"/>
<polygon fill="#191970" stroke="#191970" points="433.9706,-387.7663 439.6687,-378.8342 429.6441,-382.2634 433.9706,-387.7663"/>
</g>
<!-- Node43 -->
<g id="node8" class="node">
<title>Node43</title>
<g id="a_node8"><a xlink:href="a00086.xhtml#aee166f42b332d8c5b51d25a9ef8c14b7" target="_top" xlink:title="Saute la frame MP3 actuelle. ">
<polygon fill="#ffffff" stroke="#000000" points="401,-625.6392 401,-644.6392 503,-644.6392 503,-625.6392 401,-625.6392"/>
<text text-anchor="middle" x="452" y="-632.6392" font-family="Helvetica,sans-Serif" font-size="10.00" fill="#000000">mp3_mpeg_fr_seek</text>
</a>
</g>
</g>
<!-- Node37&#45;&gt;Node43 -->
<g id="edge10" class="edge">
<title>Node37&#45;&gt;Node43</title>
<path fill="none" stroke="#191970" d="M311.8619,-492.7532C323.999,-515.9263 357.7847,-575.5732 401,-611.1392 405.5984,-614.9237 410.8927,-618.2651 416.2923,-621.1604"/>
<polygon fill="#191970" stroke="#191970" points="414.8544,-624.3534 425.3743,-625.611 417.9347,-618.0675 414.8544,-624.3534"/>
</g>
<!-- Node41&#45;&gt;Node38 -->
<g id="edge6" class="edge">
<title>Node41&#45;&gt;Node38</title>
<path fill="none" stroke="#191970" d="M484.4933,-473.5727C491.5438,-470.0813 498.2904,-465.3926 503,-459.1392 563.3973,-378.9446 472.9629,-311.7574 539,-236.1392 543.6612,-230.8017 549.7705,-226.9378 556.3432,-224.1462"/>
<polygon fill="#191970" stroke="#191970" points="557.8618,-227.3258 566.1899,-220.7765 555.5953,-220.7029 557.8618,-227.3258"/>
</g>
<!-- Node41&#45;&gt;Node39 -->
<g id="edge7" class="edge">
<title>Node41&#45;&gt;Node39</title>
<path fill="none" stroke="#191970" d="M479.3055,-473.556C487.4818,-469.8619 496.0993,-465.0723 503,-459.1392 546.3221,-421.8919 578.6841,-361.182 593.1467,-330.757"/>
<polygon fill="#191970" stroke="#191970" points="596.3252,-332.2222 597.3551,-321.6776 589.9742,-329.2784 596.3252,-332.2222"/>
</g>
<!-- Node41&#45;&gt;Node40 -->
<g id="edge8" class="edge">
<title>Node41&#45;&gt;Node40</title>
<path fill="none" stroke="#191970" d="M483.9937,-473.521C491.1456,-470.0208 498.0639,-465.3409 503,-459.1392 550.0134,-400.0723 495.1952,-354.6233 539,-293.1392 546.1239,-283.1402 556.781,-275.2738 567.2866,-269.3554"/>
<polygon fill="#191970" stroke="#191970" points="569.111,-272.3524 576.3872,-264.6512 565.8966,-266.134 569.111,-272.3524"/>
</g>
<!-- Node44 -->
<g id="node9" class="node">
<title>Node44</title>
<g id="a_node9"><a xlink:href="a00086.xhtml#a75bc8b052a4d00ab95b05b576918360d" target="_top" xlink:title="Test si le header est un header MPEG 1/2 Layer III. ">
<polygon fill="#ffffff" stroke="#000000" points="1059,-663.6392 1059,-682.6392 1164,-682.6392 1164,-663.6392 1059,-663.6392"/>
<text text-anchor="middle" x="1111.5" y="-670.6392" font-family="Helvetica,sans-Serif" font-size="10.00" fill="#000000">mp3_mpeg_hdr_test</text>
</a>
</g>
</g>
<!-- Node43&#45;&gt;Node44 -->
<g id="edge11" class="edge">
<title>Node43&#45;&gt;Node44</title>
<path fill="none" stroke="#191970" d="M501.89,-625.6074C602.3897,-608.2816 835.6012,-577.5909 1023,-625.1392 1047.7302,-631.414 1073.0314,-646.1387 1090.2123,-657.6372"/>
<polygon fill="#191970" stroke="#191970" points="1088.6503,-660.8123 1098.8666,-663.6192 1092.6306,-655.054 1088.6503,-660.8123"/>
</g>
<!-- Node45 -->
<g id="node10" class="node">
<title>Node45</title>
<g id="a_node10"><a xlink:href="a00086.xhtml#a3f5f1c770ad5013ccf94bce56b7d0a04" target="_top" xlink:title="Obtient la taille d&#39;une frame MP3. ">
<polygon fill="#ffffff" stroke="#000000" points="539,-682.6392 539,-701.6392 664,-701.6392 664,-682.6392 539,-682.6392"/>
<text text-anchor="middle" x="601.5" y="-689.6392" font-family="Helvetica,sans-Serif" font-size="10.00" fill="#000000">mp3_mpeg_hdr_get_size</text>
</a>
</g>
</g>
<!-- Node43&#45;&gt;Node45 -->
<g id="edge12" class="edge">
<title>Node43&#45;&gt;Node45</title>
<path fill="none" stroke="#191970" d="M477.0229,-644.6797C501.6014,-654.0508 539.307,-668.4268 566.78,-678.9015"/>
<polygon fill="#191970" stroke="#191970" points="565.8046,-682.2753 576.3954,-682.5676 568.2984,-675.7346 565.8046,-682.2753"/>
</g>
<!-- Node45&#45;&gt;Node44 -->
<g id="edge13" class="edge">
<title>Node45&#45;&gt;Node44</title>
<path fill="none" stroke="#191970" d="M641.5049,-701.6498C659.3019,-705.4149 680.5826,-709.2836 700,-711.1392 843.0797,-724.8127 881.2779,-719.0894 1023,-695.1392 1037.823,-692.6342 1053.8253,-688.9608 1068.0929,-685.3304"/>
<polygon fill="#191970" stroke="#191970" points="1069.3405,-688.6222 1078.1336,-682.7118 1067.574,-681.8487 1069.3405,-688.6222"/>
</g>
<!-- Node46 -->
<g id="node11" class="node">
<title>Node46</title>
<g id="a_node11"><a xlink:href="a00086.xhtml#aa48df36af23103ce104d13854d4cbb87" target="_top" xlink:title="Obtient la débit binaire d&#39;une frame MP3. ">
<polygon fill="#ffffff" stroke="#000000" points="707,-682.6392 707,-701.6392 841,-701.6392 841,-682.6392 707,-682.6392"/>
<text text-anchor="middle" x="774" y="-689.6392" font-family="Helvetica,sans-Serif" font-size="10.00" fill="#000000">mp3_mpeg_hdr_get_bitrate</text>
</a>
</g>
</g>
<!-- Node45&#45;&gt;Node46 -->
<g id="edge14" class="edge">
<title>Node45&#45;&gt;Node46</title>
<path fill="none" stroke="#191970" d="M664.2644,-692.1392C674.7767,-692.1392 685.7927,-692.1392 696.6204,-692.1392"/>
<polygon fill="#191970" stroke="#191970" points="696.9212,-695.6393 706.9212,-692.1392 696.9211,-688.6393 696.9212,-695.6393"/>
</g>
<!-- Node48 -->
<g id="node13" class="node">
<title>Node48</title>
<g id="a_node13"><a xlink:href="a00086.xhtml#a85aeeafb97867c551e217ba3283e6fec" target="_top" xlink:title="Obtient la fréquence d&#39;échantillonage d&#39;une frame MP3. ">
<polygon fill="#ffffff" stroke="#000000" points="700,-644.6392 700,-663.6392 848,-663.6392 848,-644.6392 700,-644.6392"/>
<text text-anchor="middle" x="774" y="-651.6392" font-family="Helvetica,sans-Serif" font-size="10.00" fill="#000000">mp3_mpeg_hdr_get_samprate</text>
</a>
</g>
</g>
<!-- Node45&#45;&gt;Node48 -->
<g id="edge18" class="edge">
<title>Node45&#45;&gt;Node48</title>
<path fill="none" stroke="#191970" d="M645.029,-682.5502C668.0999,-677.4679 696.6266,-671.1838 720.9805,-665.8189"/>
<polygon fill="#191970" stroke="#191970" points="721.7711,-669.2287 730.784,-663.6593 720.2651,-662.3926 721.7711,-669.2287"/>
</g>
<!-- Node49 -->
<g id="node14" class="node">
<title>Node49</title>
<g id="a_node14"><a xlink:href="a00086.xhtml#a407e3a1d9a7c3350620818a2ef19f142" target="_top" xlink:title="Permet de savoir si une frame MP3 contient du padding. ">
<polygon fill="#ffffff" stroke="#000000" points="886,-758.6392 886,-777.6392 1021,-777.6392 1021,-758.6392 886,-758.6392"/>
<text text-anchor="middle" x="953.5" y="-765.6392" font-family="Helvetica,sans-Serif" font-size="10.00" fill="#000000">mp3_mpeg_hdr_is_padding</text>
</a>
</g>
</g>
<!-- Node45&#45;&gt;Node49 -->
<g id="edge21" class="edge">
<title>Node45&#45;&gt;Node49</title>
<path fill="none" stroke="#191970" d="M615.4202,-701.7648C633.8408,-713.9515 667.7585,-734.5157 700,-744.1392 757.2657,-761.2319 824.7416,-766.9649 875.6752,-768.5692"/>
<polygon fill="#191970" stroke="#191970" points="875.8678,-772.0755 885.9579,-768.8444 876.0551,-765.078 875.8678,-772.0755"/>
</g>
<!-- Node46&#45;&gt;Node44 -->
<g id="edge15" class="edge">
<title>Node46&#45;&gt;Node44</title>
<path fill="none" stroke="#191970" d="M841.0827,-688.3627C901.4716,-684.963 989.5546,-680.0043 1048.615,-676.6794"/>
<polygon fill="#191970" stroke="#191970" points="1049.1396,-680.1555 1058.927,-676.0989 1048.7461,-673.1666 1049.1396,-680.1555"/>
</g>
<!-- Node47 -->
<g id="node12" class="node">
<title>Node47</title>
<g id="a_node12"><a xlink:href="a00086.xhtml#a2f08a046bc257029ca74b86b48204380" target="_top" xlink:title="Obtient la version de la norme MPEG du header d&#39;une frame MP3. ">
<polygon fill="#ffffff" stroke="#000000" points="884,-644.6392 884,-663.6392 1023,-663.6392 1023,-644.6392 884,-644.6392"/>
<text text-anchor="middle" x="953.5" y="-651.6392" font-family="Helvetica,sans-Serif" font-size="10.00" fill="#000000">mp3_mpeg_hdr_get_version</text>
</a>
</g>
</g>
<!-- Node46&#45;&gt;Node47 -->
<g id="edge16" class="edge">
<title>Node46&#45;&gt;Node47</title>
<path fill="none" stroke="#191970" d="M819.2954,-682.5502C843.4092,-677.4453 873.2508,-671.1279 898.6666,-665.7474"/>
<polygon fill="#191970" stroke="#191970" points="899.472,-669.1545 908.5303,-663.6593 898.0222,-662.3063 899.472,-669.1545"/>
</g>
<!-- Node47&#45;&gt;Node44 -->
<g id="edge17" class="edge">
<title>Node47&#45;&gt;Node44</title>
<path fill="none" stroke="#191970" d="M1023.261,-662.5282C1031.7242,-663.5459 1040.3307,-664.5809 1048.6849,-665.5855"/>
<polygon fill="#191970" stroke="#191970" points="1048.3772,-669.0736 1058.7236,-666.7927 1049.213,-662.1237 1048.3772,-669.0736"/>
</g>
<!-- Node48&#45;&gt;Node44 -->
<g id="edge19" class="edge">
<title>Node48&#45;&gt;Node44</title>
<path fill="none" stroke="#191970" d="M812.8106,-644.5864C862.1558,-633.9404 949.7454,-620.0771 1023,-635.1392 1045.2491,-639.7139 1068.8054,-650.1335 1086.0167,-658.9069"/>
<polygon fill="#191970" stroke="#191970" points="1084.397,-662.0095 1094.8772,-663.564 1087.6538,-655.8133 1084.397,-662.0095"/>
</g>
<!-- Node48&#45;&gt;Node47 -->
<g id="edge20" class="edge">
<title>Node48&#45;&gt;Node47</title>
<path fill="none" stroke="#191970" d="M848.0459,-654.1392C856.5835,-654.1392 865.3168,-654.1392 873.9237,-654.1392"/>
<polygon fill="#191970" stroke="#191970" points="873.9501,-657.6393 883.9501,-654.1392 873.9501,-650.6393 873.9501,-657.6393"/>
</g>
<!-- Node49&#45;&gt;Node44 -->
<g id="edge22" class="edge">
<title>Node49&#45;&gt;Node44</title>
<path fill="none" stroke="#191970" d="M988.7927,-758.5544C1000.0747,-754.8147 1012.3828,-749.999 1023,-744.1392 1050.2698,-729.0887 1077.6166,-705.5427 1094.5413,-689.7382"/>
<polygon fill="#191970" stroke="#191970" points="1097.1348,-692.1017 1101.9665,-682.6727 1092.3094,-687.0306 1097.1348,-692.1017"/>
</g>
<!-- Node51 -->
<g id="node16" class="node">
<title>Node51</title>
<g id="a_node16"><a xlink:href="a00050.xhtml#ae586a372b92d84d36a5733129260dd93" target="_top" xlink:title="Saute la signature. ">
<polygon fill="#ffffff" stroke="#000000" points="277.5,-283.6392 277.5,-302.6392 336.5,-302.6392 336.5,-283.6392 277.5,-283.6392"/>
<text text-anchor="middle" x="307" y="-290.6392" font-family="Helvetica,sans-Serif" font-size="10.00" fill="#000000">sig_fseek</text>
</a>
</g>
</g>
<!-- Node50&#45;&gt;Node51 -->
<g id="edge24" class="edge">
<title>Node50&#45;&gt;Node51</title>
<path fill="none" stroke="#191970" d="M195.2893,-293.1392C216.567,-293.1392 244.4315,-293.1392 267.008,-293.1392"/>
<polygon fill="#191970" stroke="#191970" points="267.2894,-296.6393 277.2894,-293.1392 267.2894,-289.6393 267.2894,-296.6393"/>
</g>
<!-- Node52 -->
<g id="node17" class="node">
<title>Node52</title>
<g id="a_node17"><a xlink:href="a00116.xhtml#aed2bc32539848b035b9ad4fc2efd98e8" target="_top" xlink:title="Écrit des données XORées avec un mot de passe. ">
<polygon fill="#ffffff" stroke="#000000" points="403,-321.6392 403,-340.6392 501,-340.6392 501,-321.6392 403,-321.6392"/>
<text text-anchor="middle" x="452" y="-328.6392" font-family="Helvetica,sans-Serif" font-size="10.00" fill="#000000">data_xor_write_file</text>
</a>
</g>
</g>
<!-- Node50&#45;&gt;Node52 -->
<g id="edge25" class="edge">
<title>Node50&#45;&gt;Node52</title>
<path fill="none" stroke="#191970" d="M195.1807,-301.3121C211.2954,-305.0871 231.0739,-309.3424 249,-312.1392 297.2012,-319.6595 352.3391,-324.5894 392.9745,-327.5383"/>
<polygon fill="#191970" stroke="#191970" points="392.7581,-331.0317 402.98,-328.2458 393.2518,-324.0491 392.7581,-331.0317"/>
</g>
<!-- Node53 -->
<g id="node18" class="node">
<title>Node53</title>
<g id="a_node18"><a xlink:href="a00116.xhtml#af1d405b272ef2dc101b959264bad47e1" target="_top" xlink:title="Écrit des données mélangé ou remise en ordre avec un mot de passe. ">
<polygon fill="#ffffff" stroke="#000000" points="253.5,-207.6392 253.5,-226.6392 360.5,-226.6392 360.5,-207.6392 253.5,-207.6392"/>
<text text-anchor="middle" x="307" y="-214.6392" font-family="Helvetica,sans-Serif" font-size="10.00" fill="#000000">data_scramble_write</text>
</a>
</g>
</g>
<!-- Node50&#45;&gt;Node53 -->
<g id="edge29" class="edge">
<title>Node50&#45;&gt;Node53</title>
<path fill="none" stroke="#191970" d="M190.6731,-283.5925C198.0535,-280.8075 205.9233,-277.5793 213,-274.1392 238.5192,-261.734 266.1012,-244.513 284.7433,-232.2537"/>
<polygon fill="#191970" stroke="#191970" points="286.7401,-235.1291 293.1285,-226.6769 282.8636,-229.3005 286.7401,-235.1291"/>
</g>
<!-- Node52&#45;&gt;Node38 -->
<g id="edge26" class="edge">
<title>Node52&#45;&gt;Node38</title>
<path fill="none" stroke="#191970" d="M460.7133,-321.3488C481.794,-297.7001 534.175,-239.1792 539,-236.1392 544.4153,-232.7273 550.4806,-229.8963 556.646,-227.5559"/>
<polygon fill="#191970" stroke="#191970" points="557.9918,-230.7953 566.338,-224.269 555.7436,-224.1662 557.9918,-230.7953"/>
</g>
<!-- Node52&#45;&gt;Node39 -->
<g id="edge27" class="edge">
<title>Node52&#45;&gt;Node39</title>
<path fill="none" stroke="#191970" d="M501.3662,-324.8652C518.9744,-322.6274 538.715,-320.1186 555.9844,-317.9238"/>
<polygon fill="#191970" stroke="#191970" points="556.8977,-321.336 566.3766,-316.6031 556.0151,-314.3918 556.8977,-321.336"/>
</g>
<!-- Node52&#45;&gt;Node40 -->
<g id="edge28" class="edge">
<title>Node52&#45;&gt;Node40</title>
<path fill="none" stroke="#191970" d="M470.9343,-321.5138C496.883,-308.3224 543.6805,-284.5324 573.634,-269.3052"/>
<polygon fill="#191970" stroke="#191970" points="575.3913,-272.3382 582.7195,-264.6865 572.2191,-266.0982 575.3913,-272.3382"/>
</g>
<!-- Node54 -->
<g id="node19" class="node">
<title>Node54</title>
<g id="a_node19"><a xlink:href="a00116.xhtml#a3fd0a8f9ba189acd34f864c97f059b0f" target="_top" xlink:title="Fait le mélange ou réarrange les octets selon l&#39;algorithme de protection des données. ">
<polygon fill="#ffffff" stroke="#000000" points="416.5,-169.6392 416.5,-188.6392 487.5,-188.6392 487.5,-169.6392 416.5,-169.6392"/>
<text text-anchor="middle" x="452" y="-176.6392" font-family="Helvetica,sans-Serif" font-size="10.00" fill="#000000">protect_data</text>
</a>
</g>
</g>
<!-- Node53&#45;&gt;Node54 -->
<g id="edge30" class="edge">
<title>Node53&#45;&gt;Node54</title>
<path fill="none" stroke="#191970" d="M343.5896,-207.5502C362.6807,-202.547 386.2162,-196.3791 406.4745,-191.07"/>
<polygon fill="#191970" stroke="#191970" points="407.6386,-194.3832 416.4246,-188.4624 405.8639,-187.6119 407.6386,-194.3832"/>
</g>
<!-- Node55 -->
<g id="node20" class="node">
<title>Node55</title>
<g id="a_node20"><a xlink:href="a00116.xhtml#a7a07539cd0f2054ed61e4300f1e9a3d5" target="_top" xlink:title="Écrit des données XORées avec un mot de passe. ">
<polygon fill="#ffffff" stroke="#000000" points="402.5,-245.6392 402.5,-264.6392 501.5,-264.6392 501.5,-245.6392 402.5,-245.6392"/>
<text text-anchor="middle" x="452" y="-252.6392" font-family="Helvetica,sans-Serif" font-size="10.00" fill="#000000">data_xor_write_tab</text>
</a>
</g>
</g>
<!-- Node53&#45;&gt;Node55 -->
<g id="edge34" class="edge">
<title>Node53&#45;&gt;Node55</title>
<path fill="none" stroke="#191970" d="M343.5896,-226.7282C362.4654,-231.675 385.6859,-237.7603 405.7879,-243.0284"/>
<polygon fill="#191970" stroke="#191970" points="405.1129,-246.4697 415.6735,-245.6192 406.8875,-239.6983 405.1129,-246.4697"/>
</g>
<!-- Node54&#45;&gt;Node38 -->
<g id="edge31" class="edge">
<title>Node54&#45;&gt;Node38</title>
<path fill="none" stroke="#191970" d="M487.809,-188.2412C508.4843,-193.4964 534.674,-200.1533 556.7044,-205.753"/>
<polygon fill="#191970" stroke="#191970" points="555.945,-209.1712 566.499,-208.2426 557.6695,-202.387 555.945,-209.1712"/>
</g>
<!-- Node54&#45;&gt;Node39 -->
<g id="edge32" class="edge">
<title>Node54&#45;&gt;Node39</title>
<path fill="none" stroke="#191970" d="M460.5153,-188.7423C480.6634,-211.4198 530.2306,-266.9339 539,-274.1392 549.6549,-282.8938 562.5166,-291.0588 573.7956,-297.5592"/>
<polygon fill="#191970" stroke="#191970" points="572.3785,-300.7768 582.8146,-302.6043 575.796,-294.6677 572.3785,-300.7768"/>
</g>
<!-- Node54&#45;&gt;Node40 -->
<g id="edge33" class="edge">
<title>Node54&#45;&gt;Node40</title>
<path fill="none" stroke="#191970" d="M464.3004,-188.8394C480.5763,-201.2777 510.5406,-222.8257 539,-236.1392 545.2807,-239.0774 552.1263,-241.6958 558.9088,-243.9797"/>
<polygon fill="#191970" stroke="#191970" points="558.1377,-247.4066 568.7277,-247.0848 560.2484,-240.7324 558.1377,-247.4066"/>
</g>
<!-- Node55&#45;&gt;Node38 -->
<g id="edge35" class="edge">
<title>Node55&#45;&gt;Node38</title>
<path fill="none" stroke="#191970" d="M489.7252,-245.5502C510.0365,-240.3875 535.2272,-233.9845 556.5497,-228.5647"/>
<polygon fill="#191970" stroke="#191970" points="557.5249,-231.9282 566.3544,-226.0725 555.8004,-225.1439 557.5249,-231.9282"/>
</g>
<!-- Node55&#45;&gt;Node39 -->
<g id="edge36" class="edge">
<title>Node55&#45;&gt;Node39</title>
<path fill="none" stroke="#191970" d="M477.0229,-264.6797C501.6014,-274.0508 539.307,-288.4268 566.78,-298.9015"/>
<polygon fill="#191970" stroke="#191970" points="565.8046,-302.2753 576.3954,-302.5676 568.2984,-295.7346 565.8046,-302.2753"/>
</g>
<!-- Node55&#45;&gt;Node40 -->
<g id="edge37" class="edge">
<title>Node55&#45;&gt;Node40</title>
<path fill="none" stroke="#191970" d="M501.7813,-255.1392C520.2427,-255.1392 540.9996,-255.1392 558.7765,-255.1392"/>
<polygon fill="#191970" stroke="#191970" points="558.8591,-258.6393 568.859,-255.1392 558.859,-251.6393 558.8591,-258.6393"/>
</g>
<!-- Node57 -->
<g id="node22" class="node">
<title>Node57</title>
<g id="a_node22"><a xlink:href="a00074.xhtml#a14e9a0ddec04cc168cbfe21cd839166e" target="_top" xlink:title="Va extraire les donnees cachees en utilisant l&#39;algorithme Metadata dans le formar BMP...">
<polygon fill="#ffffff" stroke="#000000" points="249,-55.6392 249,-74.6392 365,-74.6392 365,-55.6392 249,-55.6392"/>
<text text-anchor="middle" x="307" y="-62.6392" font-family="Helvetica,sans-Serif" font-size="10.00" fill="#000000">extract_metadata_bmp</text>
</a>
</g>
</g>
<!-- Node56&#45;&gt;Node57 -->
<g id="edge39" class="edge">
<title>Node56&#45;&gt;Node57</title>
<path fill="none" stroke="#191970" d="M174.7644,-131.5273C190.9842,-119.1846 220.8167,-97.7397 249,-84.1392 253.4196,-82.0064 258.1383,-80.0235 262.9032,-78.206"/>
<polygon fill="#191970" stroke="#191970" points="264.4313,-81.3767 272.6679,-74.7127 262.0733,-74.7857 264.4313,-81.3767"/>
</g>
<!-- Node58 -->
<g id="node23" class="node">
<title>Node58</title>
<g id="a_node23"><a xlink:href="a00092.xhtml#a258c2aefc0d29e112eca90e652730a84" target="_top" xlink:title="Va extraire les donnees cachees en utilisant l&#39;algorithme Metadata dans le formar PNG...">
<polygon fill="#ffffff" stroke="#000000" points="250.5,-169.6392 250.5,-188.6392 363.5,-188.6392 363.5,-169.6392 250.5,-169.6392"/>
<text text-anchor="middle" x="307" y="-176.6392" font-family="Helvetica,sans-Serif" font-size="10.00" fill="#000000">extract_metadata_png</text>
</a>
</g>
</g>
<!-- Node56&#45;&gt;Node58 -->
<g id="edge44" class="edge">
<title>Node56&#45;&gt;Node58</title>
<path fill="none" stroke="#191970" d="M198.9635,-150.7282C217.7741,-155.675 240.9146,-161.7603 260.9472,-167.0284"/>
<polygon fill="#191970" stroke="#191970" points="260.2374,-170.4607 270.7988,-169.6192 262.0177,-163.6909 260.2374,-170.4607"/>
</g>
<!-- Node59 -->
<g id="node24" class="node">
<title>Node59</title>
<g id="a_node24"><a xlink:href="a00068.xhtml#aa0a2b469d42533228d073a79868e775b" target="_top" xlink:title="Va extraire les donnees cachees en utilisant l&#39;algorithme Metadata dans le formar AVI...">
<polygon fill="#ffffff" stroke="#000000" points="252,-131.6392 252,-150.6392 362,-150.6392 362,-131.6392 252,-131.6392"/>
<text text-anchor="middle" x="307" y="-138.6392" font-family="Helvetica,sans-Serif" font-size="10.00" fill="#000000">extract_metadata_avi</text>
</a>
</g>
</g>
<!-- Node56&#45;&gt;Node59 -->
<g id="edge50" class="edge">
<title>Node56&#45;&gt;Node59</title>
<path fill="none" stroke="#191970" d="M208.618,-141.1392C219.1786,-141.1392 230.6001,-141.1392 241.7939,-141.1392"/>
<polygon fill="#191970" stroke="#191970" points="241.9787,-144.6393 251.9787,-141.1392 241.9786,-137.6393 241.9787,-144.6393"/>
</g>
<!-- Node60 -->
<g id="node25" class="node">
<title>Node60</title>
<g id="a_node25"><a xlink:href="a00080.xhtml#ac1c7c5c1221f121e1c0014efe23b82f8" target="_top" xlink:title="Va extraire les donnees cachees en utilisant l&#39;algorithme Metadata dans le formar FLV...">
<polygon fill="#ffffff" stroke="#000000" points="253,-93.6392 253,-112.6392 361,-112.6392 361,-93.6392 253,-93.6392"/>
<text text-anchor="middle" x="307" y="-100.6392" font-family="Helvetica,sans-Serif" font-size="10.00" fill="#000000">extract_metadata_flv</text>
</a>
</g>
</g>
<!-- Node56&#45;&gt;Node60 -->
<g id="edge51" class="edge">
<title>Node56&#45;&gt;Node60</title>
<path fill="none" stroke="#191970" d="M198.9635,-131.5502C217.7741,-126.6035 240.9146,-120.5181 260.9472,-115.25"/>
<polygon fill="#191970" stroke="#191970" points="262.0177,-118.5875 270.7988,-112.6593 260.2374,-111.8177 262.0177,-118.5875"/>
</g>
<!-- Node57&#45;&gt;Node38 -->
<g id="edge40" class="edge">
<title>Node57&#45;&gt;Node38</title>
<path fill="none" stroke="#191970" d="M319.4801,-55.5511C352.0911,-31.7508 441.5738,25.4134 503,-13.1392 569.3565,-54.7861 592.0853,-155.1369 598.9046,-197.6179"/>
<polygon fill="#191970" stroke="#191970" points="595.4461,-198.1565 600.3714,-207.5369 602.3708,-197.1325 595.4461,-198.1565"/>
</g>
<!-- Node57&#45;&gt;Node39 -->
<g id="edge41" class="edge">
<title>Node57&#45;&gt;Node39</title>
<path fill="none" stroke="#191970" d="M346.4616,-74.7546C352.9519,-77.2487 359.3846,-80.3372 365,-84.1392 385.6388,-98.1132 380.3356,-113.2031 401,-127.1392 440.503,-153.7801 469.4271,-126.3297 503,-160.1392 540.4385,-197.8416 506.2056,-232.3345 539,-274.1392 546.6989,-283.9534 557.6912,-291.8308 568.3161,-297.8127"/>
<polygon fill="#191970" stroke="#191970" points="566.9811,-301.0637 577.4665,-302.5826 570.2169,-294.8565 566.9811,-301.0637"/>
</g>
<!-- Node57&#45;&gt;Node40 -->
<g id="edge42" class="edge">
<title>Node57&#45;&gt;Node40</title>
<path fill="none" stroke="#191970" d="M355.9634,-74.6519C399.9062,-85.5719 463.4066,-107.6044 503,-149.1392 531.8734,-179.4284 508.0074,-208.0221 539,-236.1392 544.6592,-241.2733 551.6686,-245.021 558.9256,-247.7565"/>
<polygon fill="#191970" stroke="#191970" points="558.2817,-251.2234 568.8715,-250.8944 560.3879,-244.5477 558.2817,-251.2234"/>
</g>
<!-- Node57&#45;&gt;Node54 -->
<g id="edge43" class="edge">
<title>Node57&#45;&gt;Node54</title>
<path fill="none" stroke="#191970" d="M349.6417,-74.7351C355.1877,-77.1933 360.4964,-80.2757 365,-84.1392 391.8528,-107.1757 375.6172,-130.4924 401,-155.1392 404.8075,-158.8363 409.2907,-162.0441 413.9925,-164.8039"/>
<polygon fill="#191970" stroke="#191970" points="412.6946,-168.0735 423.1832,-169.5701 415.9171,-161.8594 412.6946,-168.0735"/>
</g>
<!-- Node58&#45;&gt;Node38 -->
<g id="edge46" class="edge">
<title>Node58&#45;&gt;Node38</title>
<path fill="none" stroke="#191970" d="M349.6417,-169.5433C355.1877,-167.0852 360.4964,-164.0027 365,-160.1392 391.8528,-137.1027 370.8517,-107.655 401,-89.1392 439.6296,-65.4145 462.3279,-69.117 503,-89.1392 549.3581,-111.9605 580.014,-168.2491 593.5533,-197.9997"/>
<polygon fill="#191970" stroke="#191970" points="590.414,-199.5566 597.6261,-207.3177 596.828,-196.753 590.414,-199.5566"/>
</g>
<!-- Node58&#45;&gt;Node39 -->
<g id="edge47" class="edge">
<title>Node58&#45;&gt;Node39</title>
<path fill="none" stroke="#191970" d="M350.0337,-188.758C355.4578,-191.2107 360.6282,-194.2855 365,-198.1392 393.0376,-222.8542 371.4246,-251.2867 401,-274.1392 445.6409,-308.6327 512.3203,-314.9177 556.3505,-314.7407"/>
<polygon fill="#191970" stroke="#191970" points="556.5354,-318.2383 566.4803,-314.5847 556.4275,-311.2392 556.5354,-318.2383"/>
</g>
<!-- Node58&#45;&gt;Node40 -->
<g id="edge48" class="edge">
<title>Node58&#45;&gt;Node40</title>
<path fill="none" stroke="#191970" d="M347.1389,-169.5501C396.82,-158.6445 477.9391,-144.2799 503,-160.1392 534.5828,-180.1258 510.699,-211.7263 539,-236.1392 544.7268,-241.0792 551.7111,-244.7348 558.9092,-247.44"/>
<polygon fill="#191970" stroke="#191970" points="558.1689,-250.8771 568.7593,-250.571 560.2895,-244.2061 558.1689,-250.8771"/>
</g>
<!-- Node58&#45;&gt;Node42 -->
<g id="edge45" class="edge">
<title>Node58&#45;&gt;Node42</title>
<path fill="none" stroke="#191970" d="M352.2614,-188.6714C357.0169,-191.1374 361.4144,-194.239 365,-198.1392 411.9857,-249.2479 355.0471,-298.0999 401,-350.1392 402.1824,-351.4782 403.4684,-352.7231 404.8361,-353.8805"/>
<polygon fill="#191970" stroke="#191970" points="403.1502,-356.963 413.4122,-359.5976 407.0329,-351.1385 403.1502,-356.963"/>
</g>
<!-- Node58&#45;&gt;Node54 -->
<g id="edge49" class="edge">
<title>Node58&#45;&gt;Node54</title>
<path fill="none" stroke="#191970" d="M363.8917,-179.1392C377.79,-179.1392 392.4917,-179.1392 405.8201,-179.1392"/>
<polygon fill="#191970" stroke="#191970" points="406.1733,-182.6393 416.1733,-179.1392 406.1733,-175.6393 406.1733,-182.6393"/>
</g>
<!-- Node61&#45;&gt;Node38 -->
<g id="edge55" class="edge">
<title>Node61&#45;&gt;Node38</title>
<path fill="none" stroke="#191970" d="M319.3552,-359.2663C332.0388,-348.6522 351.7438,-330.7771 365,-312.1392 386.6628,-281.6817 370.3962,-257.5949 401,-236.1392 446.4561,-204.2708 512.6505,-204.6237 556.3748,-209.4887"/>
<polygon fill="#191970" stroke="#191970" points="556.0816,-212.979 566.4352,-210.7315 556.9398,-206.0318 556.0816,-212.979"/>
</g>
<!-- Node61&#45;&gt;Node39 -->
<g id="edge56" class="edge">
<title>Node61&#45;&gt;Node39</title>
<path fill="none" stroke="#191970" d="M312.2369,-378.7517C327.8295,-406.9654 374.51,-488.4232 401,-502.1392 441.257,-522.9835 464.2639,-525.6897 503,-502.1392 565.3927,-464.2062 590.0391,-372.5431 598.1236,-331.9983"/>
<polygon fill="#191970" stroke="#191970" points="601.5945,-332.4767 599.9822,-322.0053 594.7126,-331.1967 601.5945,-332.4767"/>
</g>
<!-- Node61&#45;&gt;Node40 -->
<g id="edge57" class="edge">
<title>Node61&#45;&gt;Node40</title>
<path fill="none" stroke="#191970" d="M326.609,-378.7046C364.4399,-395.6366 448.5626,-425.7253 503,-388.1392 540.1561,-362.485 510.1418,-327.8655 539,-293.1392 547.0351,-283.4702 558.2025,-275.5967 568.8779,-269.5759"/>
<polygon fill="#191970" stroke="#191970" points="570.8157,-272.5116 578.0416,-264.7632 567.5609,-266.3142 570.8157,-272.5116"/>
</g>
<!-- Node61&#45;&gt;Node42 -->
<g id="edge54" class="edge">
<title>Node61&#45;&gt;Node42</title>
<path fill="none" stroke="#191970" d="M341.363,-369.1392C359.4059,-369.1392 381.8542,-369.1392 401.8056,-369.1392"/>
<polygon fill="#191970" stroke="#191970" points="401.9748,-372.6393 411.9748,-369.1392 401.9747,-365.6393 401.9748,-372.6393"/>
</g>
<!-- Node61&#45;&gt;Node54 -->
<g id="edge53" class="edge">
<title>Node61&#45;&gt;Node54</title>
<path fill="none" stroke="#191970" d="M319.8302,-359.5825C332.9011,-349.2263 352.9181,-331.5589 365,-312.1392 391.9507,-268.8203 367.1689,-241.3272 401,-203.1392 404.2364,-199.486 408.1475,-196.3454 412.3476,-193.6561"/>
<polygon fill="#191970" stroke="#191970" points="414.1815,-196.6419 421.2511,-188.7507 410.8035,-190.5108 414.1815,-196.6419"/>
</g>
<!-- Node62&#45;&gt;Node51 -->
<g id="edge59" class="edge">
<title>Node62&#45;&gt;Node51</title>
<path fill="none" stroke="#191970" d="M198.9635,-264.7282C219.8947,-270.2326 246.1869,-277.1468 267.593,-282.7761"/>
<polygon fill="#191970" stroke="#191970" points="266.7936,-286.1848 277.355,-285.3433 268.574,-279.415 266.7936,-286.1848"/>
</g>
<!-- Node62&#45;&gt;Node52 -->
<g id="edge60" class="edge">
<title>Node62&#45;&gt;Node52</title>
<path fill="none" stroke="#191970" d="M213.0036,-251.1616C255.3867,-249.8208 316.5889,-252.6506 365,-274.1392 384.8385,-282.9451 382.9752,-295.0472 401,-307.1392 406.4396,-310.7884 412.5213,-314.17 418.5376,-317.1747"/>
<polygon fill="#191970" stroke="#191970" points="417.2994,-320.4607 427.836,-321.57 420.291,-314.1321 417.2994,-320.4607"/>
</g>
<!-- Node62&#45;&gt;Node53 -->
<g id="edge61" class="edge">
<title>Node62&#45;&gt;Node53</title>
<path fill="none" stroke="#191970" d="M198.9635,-245.5502C217.7741,-240.6035 240.9146,-234.5181 260.9472,-229.25"/>
<polygon fill="#191970" stroke="#191970" points="262.0177,-232.5875 270.7988,-226.6593 260.2374,-225.8177 262.0177,-232.5875"/>
</g>
</g>
</svg>
        <g id="navigator" transform="translate(0 0)" fill="#404254">
                <rect fill="#f2f5e9" fill-opacity="0.5" stroke="#606060" stroke-width=".5" x="0" y="0" width="60" height="60"/>
                <use id="zoomplus" xlink:href="#zoomPlus" x="17" y="9" onmousedown="handleZoom(evt,'in')"/>
                <use id="zoomminus" xlink:href="#zoomMin" x="42" y="9" onmousedown="handleZoom(evt,'out')"/>
                <use id="reset" xlink:href="#resetDef" x="30" y="36" onmousedown="handleReset()"/>
                <g id="arrowUp" xlink:href="#dirArrow" transform="translate(30 24)" onmousedown="handlePan(0,-1)">
                  <use xlink:href="#rim" fill="#404040">
                        <set attributeName="fill" to="#808080" begin="arrowUp.mouseover" end="arrowUp.mouseout"/>
                  </use>
                  <path fill="none" stroke="white" stroke-width="1.5" d="M0,-3.0v7 M-2.5,-0.5L0,-3.0L2.5,-0.5"/>
                </g>
                <g id="arrowRight" xlink:href="#dirArrow" transform="rotate(90) translate(36 -43)" onmousedown="handlePan(1,0)">
                  <use xlink:href="#rim" fill="#404040">
                        <set attributeName="fill" to="#808080" begin="arrowRight.mouseover" end="arrowRight.mouseout"/>
                  </use>
                  <path fill="none" stroke="white" stroke-width="1.5" d="M0,-3.0v7 M-2.5,-0.5L0,-3.0L2.5,-0.5"/>
                </g>
                <g id="arrowDown" xlink:href="#dirArrow" transform="rotate(180) translate(-30 -48)" onmousedown="handlePan(0,1)">
                  <use xlink:href="#rim" fill="#404040">
                        <set attributeName="fill" to="#808080" begin="arrowDown.mouseover" end="arrowDown.mouseout"/>
                  </use>
                  <path fill="none" stroke="white" stroke-width="1.5" d="M0,-3.0v7 M-2.5,-0.5L0,-3.0L2.5,-0.5"/>
                </g>
                <g id="arrowLeft" xlink:href="#dirArrow" transform="rotate(270) translate(-36 17)" onmousedown="handlePan(-1,0)">
                  <use xlink:href="#rim" fill="#404040">
                        <set attributeName="fill" to="#808080" begin="arrowLeft.mouseover" end="arrowLeft.mouseout"/>
                  </use>
                  <path fill="none" stroke="white" stroke-width="1.5" d="M0,-3.0v7 M-2.5,-0.5L0,-3.0L2.5,-0.5"/>
                </g>
        </g>
        <svg viewBox="0 0 15 15" width="100%" height="30px" preserveAspectRatio="xMaxYMin meet">
         <g id="arrow_out" transform="scale(0.3 0.3)">
          <a xlink:href="a00005_a43c63dd958bfa1f4ab2ecbd7faa14abb_cgraph_org.svg" target="_base">
           <rect id="button" ry="5" rx="5" y="6" x="6" height="38" width="38"
                fill="#f2f5e9" fill-opacity="0.5" stroke="#606060" stroke-width="1.0"/>
           <path id="arrow"
             d="M 11.500037,31.436501 C 11.940474,20.09759 22.043105,11.32322 32.158766,21.979434 L 37.068811,17.246167 C 37.068811,17.246167 37.088388,32 37.088388,32 L 22.160133,31.978069 C 22.160133,31.978069 26.997745,27.140456 26.997745,27.140456 C 18.528582,18.264221 13.291696,25.230495 11.500037,31.436501 z"
             style="fill:#404040;"/>
          </a>
         </g>
        </svg>
</svg>
