<?xml version="1.0" encoding="UTF-8" standalone="no"?>
<!DOCTYPE svg PUBLIC "-//W3C//DTD SVG 1.1//EN"
 "http://www.w3.org/Graphics/SVG/1.1/DTD/svg11.dtd">
<!-- Generated by graphviz version 2.40.1 (20161225.0304)
 -->
<!-- Title: src/file_type/bmp.h Pages: 1 -->
<svg width="671pt" height="196pt"
 viewBox="0.00 0.00 671.43 196.00" xmlns="http://www.w3.org/2000/svg" xmlns:xlink="http://www.w3.org/1999/xlink">
<g id="graph0" class="graph" transform="scale(1 1) rotate(0) translate(4 192)">
<title>src/file_type/bmp.h</title>
<polygon fill="#ffffff" stroke="transparent" points="-4,4 -4,-192 667.434,-192 667.434,4 -4,4"/>
<!-- Node0 -->
<g id="node1" class="node">
<title>Node0</title>
<polygon fill="#bfbfbf" stroke="#000000" points="342.2439,-168.5 342.2439,-187.5 442.2439,-187.5 442.2439,-168.5 342.2439,-168.5"/>
<text text-anchor="middle" x="392.2439" y="-175.5" font-family="Helvetica,sans-Serif" font-size="10.00" fill="#000000">src/file_type/bmp.h</text>
</g>
<!-- Node1 -->
<g id="node2" class="node">
<title>Node1</title>
<polygon fill="#ffffff" stroke="#bfbfbf" points="272.2439,-.5 272.2439,-19.5 318.2439,-19.5 318.2439,-.5 272.2439,-.5"/>
<text text-anchor="middle" x="295.2439" y="-7.5" font-family="Helvetica,sans-Serif" font-size="10.00" fill="#000000">stdio.h</text>
</g>
<!-- Node0&#45;&gt;Node1 -->
<g id="edge1" class="edge">
<title>Node0&#45;&gt;Node1</title>
<path fill="none" stroke="#191970" d="M341.884,-172.318C246.5281,-160.4116 45.4455,-129.4329 4.2439,-76 -1.184,-68.9608 -1.53,-62.7583 4.2439,-56 20.8689,-36.5406 189.387,-19.3902 262.1168,-12.8338"/>
<polygon fill="#191970" stroke="#191970" points="262.4722,-16.3161 272.123,-11.9443 261.8523,-9.3436 262.4722,-16.3161"/>
</g>
<!-- Node2 -->
<g id="node3" class="node">
<title>Node2</title>
<polygon fill="#ffffff" stroke="#bfbfbf" points="518.7439,-.5 518.7439,-19.5 567.7439,-19.5 567.7439,-.5 518.7439,-.5"/>
<text text-anchor="middle" x="543.2439" y="-7.5" font-family="Helvetica,sans-Serif" font-size="10.00" fill="#000000">stdint.h</text>
</g>
<!-- Node0&#45;&gt;Node2 -->
<g id="edge2" class="edge">
<title>Node0&#45;&gt;Node2</title>
<path fill="none" stroke="#191970" d="M432.4626,-168.4772C500.0971,-151.5588 631.8338,-114.4123 658.2439,-76 680.9673,-42.9498 619.4891,-24.3152 577.8991,-15.7831"/>
<polygon fill="#191970" stroke="#191970" points="578.3006,-12.2958 567.8172,-13.829 576.9685,-19.1679 578.3006,-12.2958"/>
</g>
<!-- Node3 -->
<g id="node4" class="node">
<title>Node3</title>
<g id="a_node4"><a xlink:href="a00047.xhtml" target="_top" xlink:title="Définitions communes à la partie privée de la bibliothèque. ">
<polygon fill="#ffffff" stroke="#000000" points="361.2439,-112.5 361.2439,-131.5 423.2439,-131.5 423.2439,-112.5 361.2439,-112.5"/>
<text text-anchor="middle" x="392.2439" y="-119.5" font-family="Helvetica,sans-Serif" font-size="10.00" fill="#000000">common.h</text>
</a>
</g>
</g>
<!-- Node0&#45;&gt;Node3 -->
<g id="edge3" class="edge">
<title>Node0&#45;&gt;Node3</title>
<path fill="none" stroke="#191970" d="M386.9771,-168.2455C385.566,-160.9382 385.1618,-150.6944 385.7644,-141.7046"/>
<polygon fill="#191970" stroke="#191970" points="389.255,-141.9945 386.9988,-131.6427 382.3071,-141.1421 389.255,-141.9945"/>
</g>
<!-- Node3&#45;&gt;Node0 -->
<g id="edge7" class="edge">
<title>Node3&#45;&gt;Node0</title>
<path fill="none" stroke="#191970" d="M397.4891,-131.6427C398.9104,-138.9199 399.3249,-149.155 398.7326,-158.1575"/>
<polygon fill="#191970" stroke="#191970" points="395.2386,-157.8972 397.5108,-168.2455 402.1878,-158.739 395.2386,-157.8972"/>
</g>
<!-- Node3&#45;&gt;Node1 -->
<g id="edge4" class="edge">
<title>Node3&#45;&gt;Node1</title>
<path fill="none" stroke="#191970" d="M361.0855,-116.3783C323.1646,-108.8288 262.5303,-94.2308 249.2439,-76 236.8727,-59.0249 254.912,-39.2169 271.9011,-25.7627"/>
<polygon fill="#191970" stroke="#191970" points="274.0952,-28.4926 280.019,-19.7085 269.9103,-22.8812 274.0952,-28.4926"/>
</g>
<!-- Node3&#45;&gt;Node2 -->
<g id="edge5" class="edge">
<title>Node3&#45;&gt;Node2</title>
<path fill="none" stroke="#191970" d="M423.3726,-121.0412C484.0678,-118.447 614.7087,-109.064 642.2439,-76 664.5371,-49.2306 614.4947,-29.0885 577.7467,-18.4592"/>
<polygon fill="#191970" stroke="#191970" points="578.3764,-15.0022 567.8056,-15.7159 576.5142,-21.75 578.3764,-15.0022"/>
</g>
<!-- Node4 -->
<g id="node5" class="node">
<title>Node4</title>
<g id="a_node5"><a xlink:href="a00008.xhtml" target="_top" xlink:title="Définitions communes à la partie privée et public de la bibliothèque. ">
<polygon fill="#ffffff" stroke="#000000" points="109.2439,-56.5 109.2439,-75.5 201.2439,-75.5 201.2439,-56.5 109.2439,-56.5"/>
<text text-anchor="middle" x="155.2439" y="-63.5" font-family="Helvetica,sans-Serif" font-size="10.00" fill="#000000">stegx_common.h</text>
</a>
</g>
</g>
<!-- Node3&#45;&gt;Node4 -->
<g id="edge6" class="edge">
<title>Node3&#45;&gt;Node4</title>
<path fill="none" stroke="#191970" d="M360.7721,-114.5636C321.1221,-105.1948 252.5008,-88.9805 205.5425,-77.8849"/>
<polygon fill="#191970" stroke="#191970" points="206.1126,-74.4233 195.5757,-75.5299 204.5028,-81.2357 206.1126,-74.4233"/>
</g>
<!-- Node5 -->
<g id="node6" class="node">
<title>Node5</title>
<g id="a_node6"><a xlink:href="a00095.xhtml" target="_top" xlink:title="Fichier PNG. ">
<polygon fill="#ffffff" stroke="#000000" points="553.2439,-56.5 553.2439,-75.5 633.2439,-75.5 633.2439,-56.5 553.2439,-56.5"/>
<text text-anchor="middle" x="593.2439" y="-63.5" font-family="Helvetica,sans-Serif" font-size="10.00" fill="#000000">file_type/png.h</text>
</a>
</g>
</g>
<!-- Node3&#45;&gt;Node5 -->
<g id="edge8" class="edge">
<title>Node3&#45;&gt;Node5</title>
<path fill="none" stroke="#191970" d="M421.555,-112.3733C453.7038,-102.9001 505.5921,-88.4032 543.9802,-78.1435"/>
<polygon fill="#191970" stroke="#191970" points="545.1586,-81.4519 553.9244,-75.5011 543.3609,-74.6867 545.1586,-81.4519"/>
</g>
<!-- Node6 -->
<g id="node7" class="node">
<title>Node6</title>
<g id="a_node7"><a xlink:href="a00104.xhtml" target="_top" xlink:title="Fichier WAVE. ">
<polygon fill="#ffffff" stroke="#000000" points="451.7439,-56.5 451.7439,-75.5 534.7439,-75.5 534.7439,-56.5 451.7439,-56.5"/>
<text text-anchor="middle" x="493.2439" y="-63.5" font-family="Helvetica,sans-Serif" font-size="10.00" fill="#000000">file_type/wav.h</text>
</a>
</g>
</g>
<!-- Node3&#45;&gt;Node6 -->
<g id="edge12" class="edge">
<title>Node3&#45;&gt;Node6</title>
<path fill="none" stroke="#191970" d="M404.5699,-112.2455C418.7953,-103.4125 442.2305,-90.2887 461.5261,-80.2758"/>
<polygon fill="#191970" stroke="#191970" points="463.2904,-83.3049 470.6075,-75.6427 460.1092,-77.0695 463.2904,-83.3049"/>
</g>
<!-- Node7 -->
<g id="node8" class="node">
<title>Node7</title>
<g id="a_node8"><a xlink:href="a00089.xhtml" target="_top" xlink:title="Fichier MP3. ">
<polygon fill="#ffffff" stroke="#000000" points="350.7439,-56.5 350.7439,-75.5 433.7439,-75.5 433.7439,-56.5 350.7439,-56.5"/>
<text text-anchor="middle" x="392.2439" y="-63.5" font-family="Helvetica,sans-Serif" font-size="10.00" fill="#000000">file_type/mp3.h</text>
</a>
</g>
</g>
<!-- Node3&#45;&gt;Node7 -->
<g id="edge16" class="edge">
<title>Node3&#45;&gt;Node7</title>
<path fill="none" stroke="#191970" d="M386.9771,-112.2455C385.566,-104.9382 385.1618,-94.6944 385.7644,-85.7046"/>
<polygon fill="#191970" stroke="#191970" points="389.255,-85.9945 386.9988,-75.6427 382.3071,-85.1421 389.255,-85.9945"/>
</g>
<!-- Node8 -->
<g id="node9" class="node">
<title>Node8</title>
<g id="a_node9"><a xlink:href="a00071.xhtml" target="_top" xlink:title="Fichier AVI. ">
<polygon fill="#ffffff" stroke="#000000" points="13.7439,-56.5 13.7439,-75.5 90.7439,-75.5 90.7439,-56.5 13.7439,-56.5"/>
<text text-anchor="middle" x="52.2439" y="-63.5" font-family="Helvetica,sans-Serif" font-size="10.00" fill="#000000">file_type/avi.h</text>
</a>
</g>
</g>
<!-- Node3&#45;&gt;Node8 -->
<g id="edge20" class="edge">
<title>Node3&#45;&gt;Node8</title>
<path fill="none" stroke="#191970" d="M360.8825,-118.3067C307.5978,-111.2435 196.6192,-94.9861 98.7455,-77.3527"/>
<polygon fill="#191970" stroke="#191970" points="99.1751,-73.8735 88.7108,-75.5313 97.925,-80.761 99.1751,-73.8735"/>
</g>
<!-- Node9 -->
<g id="node10" class="node">
<title>Node9</title>
<g id="a_node10"><a xlink:href="a00083.xhtml" target="_top" xlink:title="Fichier FLV. ">
<polygon fill="#ffffff" stroke="#000000" points="257.7439,-56.5 257.7439,-75.5 332.7439,-75.5 332.7439,-56.5 257.7439,-56.5"/>
<text text-anchor="middle" x="295.2439" y="-63.5" font-family="Helvetica,sans-Serif" font-size="10.00" fill="#000000">file_type/flv.h</text>
</a>
</g>
</g>
<!-- Node3&#45;&gt;Node9 -->
<g id="edge23" class="edge">
<title>Node3&#45;&gt;Node9</title>
<path fill="none" stroke="#191970" d="M370.081,-112.2455C353.539,-103.6534 331.3567,-91.0014 315.3341,-81.1018"/>
<polygon fill="#191970" stroke="#191970" points="317.0238,-78.0292 306.7013,-75.6427 313.2825,-83.9456 317.0238,-78.0292"/>
</g>
<!-- Node5&#45;&gt;Node1 -->
<g id="edge9" class="edge">
<title>Node5&#45;&gt;Node1</title>
<path fill="none" stroke="#191970" d="M553.1447,-57.7531C550.134,-57.1534 547.1416,-56.5633 544.2439,-56 467.0154,-40.9873 376.075,-24.4839 328.3368,-15.911"/>
<polygon fill="#191970" stroke="#191970" points="328.7322,-12.4262 318.2714,-14.1061 327.4966,-19.3163 328.7322,-12.4262"/>
</g>
<!-- Node5&#45;&gt;Node2 -->
<g id="edge10" class="edge">
<title>Node5&#45;&gt;Node2</title>
<path fill="none" stroke="#191970" d="M584.5346,-56.2455C577.4366,-48.2958 567.2355,-36.8706 558.7489,-27.3656"/>
<polygon fill="#191970" stroke="#191970" points="561.1244,-24.771 551.8534,-19.6427 555.9028,-29.4331 561.1244,-24.771"/>
</g>
<!-- Node5&#45;&gt;Node3 -->
<g id="edge11" class="edge">
<title>Node5&#45;&gt;Node3</title>
<path fill="none" stroke="#191970" d="M564.115,-75.573C529.6078,-85.7444 472.1798,-101.7508 433.2239,-112.06"/>
<polygon fill="#191970" stroke="#191970" points="432.0352,-108.7534 423.2524,-114.679 433.8135,-115.5237 432.0352,-108.7534"/>
</g>
<!-- Node6&#45;&gt;Node1 -->
<g id="edge13" class="edge">
<title>Node6&#45;&gt;Node1</title>
<path fill="none" stroke="#191970" d="M459.2065,-56.3733C422.5755,-46.013 364.6999,-29.6441 328.41,-19.3803"/>
<polygon fill="#191970" stroke="#191970" points="328.9105,-15.8846 318.3354,-16.5309 327.0054,-22.6204 328.9105,-15.8846"/>
</g>
<!-- Node6&#45;&gt;Node2 -->
<g id="edge14" class="edge">
<title>Node6&#45;&gt;Node2</title>
<path fill="none" stroke="#191970" d="M501.9532,-56.2455C509.0512,-48.2958 519.2523,-36.8706 527.7389,-27.3656"/>
<polygon fill="#191970" stroke="#191970" points="530.585,-29.4331 534.6344,-19.6427 525.3634,-24.771 530.585,-29.4331"/>
</g>
<!-- Node6&#45;&gt;Node3 -->
<g id="edge15" class="edge">
<title>Node6&#45;&gt;Node3</title>
<path fill="none" stroke="#191970" d="M481.3252,-75.5011C467.1548,-84.3278 443.4817,-97.5932 424.0098,-107.6992"/>
<polygon fill="#191970" stroke="#191970" points="422.1655,-104.7109 414.8485,-112.3733 425.3468,-110.9463 422.1655,-104.7109"/>
</g>
<!-- Node7&#45;&gt;Node1 -->
<g id="edge17" class="edge">
<title>Node7&#45;&gt;Node1</title>
<path fill="none" stroke="#191970" d="M375.3478,-56.2455C360.3259,-47.5731 338.1396,-34.7645 320.9229,-24.825"/>
<polygon fill="#191970" stroke="#191970" points="322.3567,-21.6114 311.9464,-19.6427 318.8568,-27.6737 322.3567,-21.6114"/>
</g>
<!-- Node7&#45;&gt;Node2 -->
<g id="edge18" class="edge">
<title>Node7&#45;&gt;Node2</title>
<path fill="none" stroke="#191970" d="M418.2017,-56.3733C443.2851,-47.0708 481.4303,-32.9242 508.9927,-22.7024"/>
<polygon fill="#191970" stroke="#191970" points="510.4658,-25.8892 518.6247,-19.1303 508.0317,-19.326 510.4658,-25.8892"/>
</g>
<!-- Node7&#45;&gt;Node3 -->
<g id="edge19" class="edge">
<title>Node7&#45;&gt;Node3</title>
<path fill="none" stroke="#191970" d="M397.4891,-75.6427C398.9104,-82.9199 399.3249,-93.155 398.7326,-102.1575"/>
<polygon fill="#191970" stroke="#191970" points="395.2386,-101.8972 397.5108,-112.2455 402.1878,-102.739 395.2386,-101.8972"/>
</g>
<!-- Node8&#45;&gt;Node1 -->
<g id="edge21" class="edge">
<title>Node8&#45;&gt;Node1</title>
<path fill="none" stroke="#191970" d="M90.748,-57.1266C138.0514,-46.2254 217.5051,-27.9151 262.1732,-17.6212"/>
<polygon fill="#191970" stroke="#191970" points="262.9881,-21.0253 271.9466,-15.3689 261.416,-14.2041 262.9881,-21.0253"/>
</g>
<!-- Node8&#45;&gt;Node3 -->
<g id="edge22" class="edge">
<title>Node8&#45;&gt;Node3</title>
<path fill="none" stroke="#191970" d="M90.9733,-72.4688C97.1377,-73.6952 103.3825,-74.9284 109.2439,-76 195.0856,-91.6935 295.7193,-106.8339 350.9845,-115.2321"/>
<polygon fill="#191970" stroke="#191970" points="350.6756,-118.7253 361.0885,-116.7702 351.7291,-111.805 350.6756,-118.7253"/>
</g>
<!-- Node9&#45;&gt;Node1 -->
<g id="edge24" class="edge">
<title>Node9&#45;&gt;Node1</title>
<path fill="none" stroke="#191970" d="M295.2439,-56.2455C295.2439,-48.9382 295.2439,-38.6944 295.2439,-29.7046"/>
<polygon fill="#191970" stroke="#191970" points="298.744,-29.6426 295.2439,-19.6427 291.744,-29.6427 298.744,-29.6426"/>
</g>
<!-- Node9&#45;&gt;Node2 -->
<g id="edge25" class="edge">
<title>Node9&#45;&gt;Node2</title>
<path fill="none" stroke="#191970" d="M332.9098,-57.4948C380.6543,-46.7138 462.2989,-28.2779 508.5727,-17.829"/>
<polygon fill="#191970" stroke="#191970" points="509.4513,-21.2188 518.4348,-15.6021 507.9095,-14.3907 509.4513,-21.2188"/>
</g>
<!-- Node9&#45;&gt;Node3 -->
<g id="edge26" class="edge">
<title>Node9&#45;&gt;Node3</title>
<path fill="none" stroke="#191970" d="M317.1915,-75.6427C333.6842,-84.1994 355.8686,-96.8456 371.9445,-106.769"/>
<polygon fill="#191970" stroke="#191970" points="370.2909,-109.8642 380.6146,-112.2455 374.0292,-103.946 370.2909,-109.8642"/>
</g>
</g>
</svg>
