<?xml version="1.0" encoding="UTF-8" standalone="no"?>
<!DOCTYPE svg PUBLIC "-//W3C//DTD SVG 1.1//EN"
 "http://www.w3.org/Graphics/SVG/1.1/DTD/svg11.dtd">
<!-- Generated by graphviz version 2.40.1 (20161225.0304)
 -->
<!-- Title: stegx_test_file_flv Pages: 1 -->
<svg width="402pt" height="28pt"
 viewBox="0.00 0.00 402.00 28.00" xmlns="http://www.w3.org/2000/svg" xmlns:xlink="http://www.w3.org/1999/xlink">
<g id="graph0" class="graph" transform="scale(1 1) rotate(0) translate(4 24)">
<title>stegx_test_file_flv</title>
<polygon fill="#ffffff" stroke="transparent" points="-4,4 -4,-24 398,-24 398,4 -4,4"/>
<!-- Node9 -->
<g id="node1" class="node">
<title>Node9</title>
<polygon fill="#bfbfbf" stroke="#000000" points="0,-.5 0,-19.5 96,-19.5 96,-.5 0,-.5"/>
<text text-anchor="middle" x="48" y="-7.5" font-family="Helvetica,sans-Serif" font-size="10.00" fill="#000000">stegx_test_file_flv</text>
</g>
<!-- Node10 -->
<g id="node2" class="node">
<title>Node10</title>
<g id="a_node2"><a xlink:href="a00044.xhtml#aa5fe126b37cde4faccaaf190a3b977d3" target="_top" xlink:title="Retourne le type du fichier. ">
<polygon fill="#ffffff" stroke="#000000" points="132,-.5 132,-19.5 226,-19.5 226,-.5 132,-.5"/>
<text text-anchor="middle" x="179" y="-7.5" font-family="Helvetica,sans-Serif" font-size="10.00" fill="#000000">check_file_format</text>
</a>
</g>
</g>
<!-- Node9&#45;&gt;Node10 -->
<g id="edge1" class="edge">
<title>Node9&#45;&gt;Node10</title>
<path fill="none" stroke="#191970" d="M106.047,-10C114.6746,-10 123.4769,-10 131.8448,-10"/>
<polygon fill="#191970" stroke="#191970" points="106.0357,-6.5001 96.0357,-10 106.0357,-13.5001 106.0357,-6.5001"/>
</g>
<!-- Node11 -->
<g id="node3" class="node">
<title>Node11</title>
<g id="a_node3"><a xlink:href="a00044.xhtml#aa5b31aaae617d7c5d0c29d564e2c8a42" target="_top" xlink:title="Vérifie la compatibilité des fichiers. ">
<polygon fill="#ffffff" stroke="#000000" points="262,-.5 262,-19.5 394,-19.5 394,-.5 262,-.5"/>
<text text-anchor="middle" x="328" y="-7.5" font-family="Helvetica,sans-Serif" font-size="10.00" fill="#000000">stegx_check_compatibility</text>
</a>
</g>
</g>
<!-- Node10&#45;&gt;Node11 -->
<g id="edge2" class="edge">
<title>Node10&#45;&gt;Node11</title>
<path fill="none" stroke="#191970" d="M236.1932,-10C244.5826,-10 253.2819,-10 261.833,-10"/>
<polygon fill="#191970" stroke="#191970" points="236.1446,-6.5001 226.1445,-10 236.1445,-13.5001 236.1446,-6.5001"/>
</g>
</g>
</svg>
