<?xml version="1.0" encoding="UTF-8" standalone="no"?>
<!DOCTYPE svg PUBLIC "-//W3C//DTD SVG 1.1//EN"
 "http://www.w3.org/Graphics/SVG/1.1/DTD/svg11.dtd">
<!-- Generated by graphviz version 2.40.1 (20161225.0304)
 -->
<!-- Title: src/file_type/avi.h Pages: 1 -->
<svg width="2834pt" height="196pt"
 viewBox="0.00 0.00 2834.00 196.00" xmlns="http://www.w3.org/2000/svg" xmlns:xlink="http://www.w3.org/1999/xlink">
<g id="graph0" class="graph" transform="scale(1 1) rotate(0) translate(4 192)">
<title>src/file_type/avi.h</title>
<polygon fill="#ffffff" stroke="transparent" points="-4,4 -4,-192 2830,-192 2830,4 -4,4"/>
<!-- Node10 -->
<g id="node1" class="node">
<title>Node10</title>
<polygon fill="#bfbfbf" stroke="#000000" points="1300,-168.5 1300,-187.5 1394,-187.5 1394,-168.5 1300,-168.5"/>
<text text-anchor="middle" x="1347" y="-175.5" font-family="Helvetica,sans-Serif" font-size="10.00" fill="#000000">src/file_type/avi.h</text>
</g>
<!-- Node11 -->
<g id="node2" class="node">
<title>Node11</title>
<g id="a_node2"><a xlink:href="a00026.xhtml" target="_top" xlink:title="Algorithme JUNK CHUNK. ">
<polygon fill="#ffffff" stroke="#000000" points="0,-56.5 0,-75.5 112,-75.5 112,-56.5 0,-56.5"/>
<text text-anchor="middle" x="56" y="-63.5" font-family="Helvetica,sans-Serif" font-size="10.00" fill="#000000">src/algo/junk_chunk.c</text>
</a>
</g>
</g>
<!-- Node10&#45;&gt;Node11 -->
<g id="edge1" class="edge">
<title>Node10&#45;&gt;Node11</title>
<path fill="none" stroke="#191970" d="M1289.6065,-173.6568C1116.6882,-160.4574 585.56,-119.0784 146,-76 135.0477,-74.9266 123.3558,-73.6926 112.1476,-72.466"/>
<polygon fill="#191970" stroke="#191970" points="1289.5145,-177.1599 1299.7516,-174.4303 1290.0466,-170.1801 1289.5145,-177.1599"/>
</g>
<!-- Node12 -->
<g id="node3" class="node">
<title>Node12</title>
<g id="a_node3"><a xlink:href="a00047.xhtml" target="_top" xlink:title="Définitions communes à la partie privée de la bibliothèque. ">
<polygon fill="#ffffff" stroke="#000000" points="1307.5,-112.5 1307.5,-131.5 1386.5,-131.5 1386.5,-112.5 1307.5,-112.5"/>
<text text-anchor="middle" x="1347" y="-119.5" font-family="Helvetica,sans-Serif" font-size="10.00" fill="#000000">src/common.h</text>
</a>
</g>
</g>
<!-- Node10&#45;&gt;Node12 -->
<g id="edge2" class="edge">
<title>Node10&#45;&gt;Node12</title>
<path fill="none" stroke="#191970" d="M1340.5113,-158.1575C1339.919,-149.155 1340.3335,-138.9199 1341.7549,-131.6427"/>
<polygon fill="#191970" stroke="#191970" points="1337.0561,-158.739 1341.7332,-168.2455 1344.0053,-157.8972 1337.0561,-158.739"/>
</g>
<!-- Node12&#45;&gt;Node10 -->
<g id="edge12" class="edge">
<title>Node12&#45;&gt;Node10</title>
<path fill="none" stroke="#191970" d="M1353.4795,-141.7046C1354.0821,-150.6944 1353.6779,-160.9382 1352.2668,-168.2455"/>
<polygon fill="#191970" stroke="#191970" points="1356.9368,-141.1421 1352.2451,-131.6427 1349.9889,-141.9945 1356.9368,-141.1421"/>
</g>
<!-- Node12&#45;&gt;Node11 -->
<g id="edge11" class="edge">
<title>Node12&#45;&gt;Node11</title>
<path fill="none" stroke="#191970" d="M1297.3223,-120.821C1098.4481,-115.9936 359.2472,-96.9966 126,-76 121.4761,-75.5928 116.7977,-75.0944 112.1038,-74.5396"/>
<polygon fill="#191970" stroke="#191970" points="1297.3908,-124.3235 1307.4725,-121.0664 1297.5601,-117.3256 1297.3908,-124.3235"/>
</g>
<!-- Node13 -->
<g id="node4" class="node">
<title>Node13</title>
<g id="a_node4"><a xlink:href="a00014.xhtml" target="_top" xlink:title="Algorithme End Of Chunk (EOC). ">
<polygon fill="#ffffff" stroke="#000000" points="2592,-56.5 2592,-75.5 2670,-75.5 2670,-56.5 2592,-56.5"/>
<text text-anchor="middle" x="2631" y="-63.5" font-family="Helvetica,sans-Serif" font-size="10.00" fill="#000000">src/algo/eoc.c</text>
</a>
</g>
</g>
<!-- Node12&#45;&gt;Node13 -->
<g id="edge3" class="edge">
<title>Node12&#45;&gt;Node13</title>
<path fill="none" stroke="#191970" d="M1396.9972,-121.2623C1597.9898,-118.1229 2347.5477,-104.7007 2583,-76 2585.8729,-75.6498 2588.8294,-75.2162 2591.7965,-74.7276"/>
<polygon fill="#191970" stroke="#191970" points="1396.6859,-117.7666 1386.7412,-121.421 1396.7942,-124.7657 1396.6859,-117.7666"/>
</g>
<!-- Node14 -->
<g id="node5" class="node">
<title>Node14</title>
<g id="a_node5"><a xlink:href="a00017.xhtml" target="_top" xlink:title="Algorithme End Of Chunk (EOC). ">
<polygon fill="#ffffff" stroke="#000000" points="168,-56.5 168,-75.5 246,-75.5 246,-56.5 168,-56.5"/>
<text text-anchor="middle" x="207" y="-63.5" font-family="Helvetica,sans-Serif" font-size="10.00" fill="#000000">src/algo/eoc.h</text>
</a>
</g>
</g>
<!-- Node12&#45;&gt;Node14 -->
<g id="edge4" class="edge">
<title>Node12&#45;&gt;Node14</title>
<path fill="none" stroke="#191970" d="M1297.4225,-120.9882C1112.2053,-117.0407 460.9438,-101.6159 255,-76 252.128,-75.6428 249.1721,-75.204 246.2054,-74.7117"/>
<polygon fill="#191970" stroke="#191970" points="1297.3497,-124.4873 1307.4215,-121.1998 1297.4978,-117.4889 1297.3497,-124.4873"/>
</g>
<!-- Node15 -->
<g id="node6" class="node">
<title>Node15</title>
<g id="a_node6"><a xlink:href="a00065.xhtml" target="_top" xlink:title="Extraction des données cachées dans un fichier hôte. ">
<polygon fill="#ffffff" stroke="#000000" points="315.5,-.5 315.5,-19.5 386.5,-19.5 386.5,-.5 315.5,-.5"/>
<text text-anchor="middle" x="351" y="-7.5" font-family="Helvetica,sans-Serif" font-size="10.00" fill="#000000">src/extract.c</text>
</a>
</g>
</g>
<!-- Node12&#45;&gt;Node15 -->
<g id="edge37" class="edge">
<title>Node12&#45;&gt;Node15</title>
<path fill="none" stroke="#191970" d="M1297.0965,-121.0038C1074.117,-116.4369 179.0399,-96.8309 159,-76 111.3478,-26.467 247.6921,-14.1002 315.3743,-11.019"/>
<polygon fill="#191970" stroke="#191970" points="1297.131,-124.5051 1307.2004,-121.2098 1297.2738,-117.5066 1297.131,-124.5051"/>
</g>
<!-- Node16 -->
<g id="node7" class="node">
<title>Node16</title>
<g id="a_node7"><a xlink:href="a00110.xhtml" target="_top" xlink:title="Insertion des données cachées dans une copie de l&#39;hôte. ">
<polygon fill="#ffffff" stroke="#000000" points="408.5,-.5 408.5,-19.5 473.5,-19.5 473.5,-.5 408.5,-.5"/>
<text text-anchor="middle" x="441" y="-7.5" font-family="Helvetica,sans-Serif" font-size="10.00" fill="#000000">src/insert.c</text>
</a>
</g>
</g>
<!-- Node12&#45;&gt;Node16 -->
<g id="edge45" class="edge">
<title>Node12&#45;&gt;Node16</title>
<path fill="none" stroke="#191970" d="M1396.5566,-113.7091C1443.1637,-103.9247 1501.9218,-85.1928 1474,-56 1438.5976,-18.9861 645.1381,-11.4076 473.5345,-10.1996"/>
<polygon fill="#191970" stroke="#191970" points="1395.6492,-110.3213 1386.5324,-115.719 1397.0254,-117.1847 1395.6492,-110.3213"/>
</g>
<!-- Node17 -->
<g id="node8" class="node">
<title>Node17</title>
<g id="a_node8"><a xlink:href="a00020.xhtml" target="_top" xlink:title="Algorithme EOF. ">
<polygon fill="#ffffff" stroke="#000000" points="573,-56.5 573,-75.5 649,-75.5 649,-56.5 573,-56.5"/>
<text text-anchor="middle" x="611" y="-63.5" font-family="Helvetica,sans-Serif" font-size="10.00" fill="#000000">src/algo/eof.c</text>
</a>
</g>
</g>
<!-- Node12&#45;&gt;Node17 -->
<g id="edge7" class="edge">
<title>Node12&#45;&gt;Node17</title>
<path fill="none" stroke="#191970" d="M1297.0319,-121.1091C1183.1448,-118.5457 895.7793,-109.0603 658,-76 655.108,-75.5979 652.1282,-75.1188 649.1388,-74.5914"/>
<polygon fill="#191970" stroke="#191970" points="1297.1104,-124.6116 1307.1841,-121.3295 1297.2624,-117.6132 1297.1104,-124.6116"/>
</g>
<!-- Node18 -->
<g id="node9" class="node">
<title>Node18</title>
<g id="a_node9"><a xlink:href="a00023.xhtml" target="_top" xlink:title="Algorithme EOF. ">
<polygon fill="#ffffff" stroke="#000000" points="264,-56.5 264,-75.5 340,-75.5 340,-56.5 264,-56.5"/>
<text text-anchor="middle" x="302" y="-63.5" font-family="Helvetica,sans-Serif" font-size="10.00" fill="#000000">src/algo/eof.h</text>
</a>
</g>
</g>
<!-- Node12&#45;&gt;Node18 -->
<g id="edge8" class="edge">
<title>Node12&#45;&gt;Node18</title>
<path fill="none" stroke="#191970" d="M1297.1329,-120.7821C1121.9851,-116.3358 535.5007,-99.9748 349,-76 346.104,-75.6277 343.1214,-75.1703 340.1299,-74.658"/>
<polygon fill="#191970" stroke="#191970" points="1297.2599,-124.2864 1307.345,-121.0397 1297.4365,-117.2886 1297.2599,-124.2864"/>
</g>
<!-- Node19 -->
<g id="node10" class="node">
<title>Node19</title>
<g id="a_node10"><a xlink:href="a00029.xhtml" target="_top" xlink:title="Algorithme JUNK CHUNK. ">
<polygon fill="#ffffff" stroke="#000000" points="1353,-56.5 1353,-75.5 1465,-75.5 1465,-56.5 1353,-56.5"/>
<text text-anchor="middle" x="1409" y="-63.5" font-family="Helvetica,sans-Serif" font-size="10.00" fill="#000000">src/algo/junk_chunk.h</text>
</a>
</g>
</g>
<!-- Node12&#45;&gt;Node19 -->
<g id="edge13" class="edge">
<title>Node12&#45;&gt;Node19</title>
<path fill="none" stroke="#191970" d="M1365.4221,-105.3607C1376.1481,-95.6727 1389.2934,-83.7995 1398.3242,-75.6427"/>
<polygon fill="#191970" stroke="#191970" points="1362.8746,-102.9453 1357.7996,-112.2455 1367.5666,-108.14 1362.8746,-102.9453"/>
</g>
<!-- Node20 -->
<g id="node11" class="node">
<title>Node20</title>
<g id="a_node11"><a xlink:href="a00032.xhtml" target="_top" xlink:title="Algorithme LSB. ">
<polygon fill="#ffffff" stroke="#000000" points="667.5,-56.5 667.5,-75.5 742.5,-75.5 742.5,-56.5 667.5,-56.5"/>
<text text-anchor="middle" x="705" y="-63.5" font-family="Helvetica,sans-Serif" font-size="10.00" fill="#000000">src/algo/lsb.c</text>
</a>
</g>
</g>
<!-- Node12&#45;&gt;Node20 -->
<g id="edge16" class="edge">
<title>Node12&#45;&gt;Node20</title>
<path fill="none" stroke="#191970" d="M1297.3234,-120.4665C1194.7487,-116.7949 952.2766,-105.5033 751,-76 748.2507,-75.597 745.4202,-75.1247 742.5787,-74.6085"/>
<polygon fill="#191970" stroke="#191970" points="1297.2732,-123.9668 1307.3894,-120.8182 1297.5178,-116.971 1297.2732,-123.9668"/>
</g>
<!-- Node21 -->
<g id="node12" class="node">
<title>Node21</title>
<g id="a_node12"><a xlink:href="a00035.xhtml" target="_top" xlink:title="Algorithme LSB. ">
<polygon fill="#ffffff" stroke="#000000" points="358.5,-56.5 358.5,-75.5 433.5,-75.5 433.5,-56.5 358.5,-56.5"/>
<text text-anchor="middle" x="396" y="-63.5" font-family="Helvetica,sans-Serif" font-size="10.00" fill="#000000">src/algo/lsb.h</text>
</a>
</g>
</g>
<!-- Node12&#45;&gt;Node21 -->
<g id="edge17" class="edge">
<title>Node12&#45;&gt;Node21</title>
<path fill="none" stroke="#191970" d="M1297.2016,-120.5416C1132.975,-115.5634 609.471,-98.3075 442,-76 439.2456,-75.6331 436.4115,-75.1873 433.5673,-74.69"/>
<polygon fill="#191970" stroke="#191970" points="1297.3908,-124.0488 1307.4917,-120.8516 1297.6017,-117.0519 1297.3908,-124.0488"/>
</g>
<!-- Node22 -->
<g id="node13" class="node">
<title>Node22</title>
<g id="a_node13"><a xlink:href="a00038.xhtml" target="_top" xlink:title="Algorithme METADATA. ">
<polygon fill="#ffffff" stroke="#000000" points="760.5,-56.5 760.5,-75.5 863.5,-75.5 863.5,-56.5 760.5,-56.5"/>
<text text-anchor="middle" x="812" y="-63.5" font-family="Helvetica,sans-Serif" font-size="10.00" fill="#000000">src/algo/metadata.c</text>
</a>
</g>
</g>
<!-- Node12&#45;&gt;Node22 -->
<g id="edge20" class="edge">
<title>Node12&#45;&gt;Node22</title>
<path fill="none" stroke="#191970" d="M1297.2033,-118.2511C1210.7156,-111.4982 1027.2162,-96.1016 873,-76 869.9139,-75.5977 866.7443,-75.1583 863.5495,-74.6952"/>
<polygon fill="#191970" stroke="#191970" points="1297.0204,-121.7474 1307.2612,-119.0316 1297.562,-114.7683 1297.0204,-121.7474"/>
</g>
<!-- Node23 -->
<g id="node14" class="node">
<title>Node23</title>
<g id="a_node14"><a xlink:href="a00041.xhtml" target="_top" xlink:title="Algorithme METADATA. ">
<polygon fill="#ffffff" stroke="#000000" points="451.5,-56.5 451.5,-75.5 554.5,-75.5 554.5,-56.5 451.5,-56.5"/>
<text text-anchor="middle" x="503" y="-63.5" font-family="Helvetica,sans-Serif" font-size="10.00" fill="#000000">src/algo/metadata.h</text>
</a>
</g>
</g>
<!-- Node12&#45;&gt;Node23 -->
<g id="edge21" class="edge">
<title>Node12&#45;&gt;Node23</title>
<path fill="none" stroke="#191970" d="M1297.0326,-120.8629C1172.7544,-117.6443 839.8364,-106.6283 564,-76 560.9068,-75.6565 557.7317,-75.2626 554.5328,-74.8339"/>
<polygon fill="#191970" stroke="#191970" points="1297.2753,-124.3701 1307.3609,-121.1247 1297.4528,-117.3723 1297.2753,-124.3701"/>
</g>
<!-- Node24 -->
<g id="node15" class="node">
<title>Node24</title>
<g id="a_node15"><a xlink:href="a00044.xhtml" target="_top" xlink:title="Module de vérification de la compatibilité. ">
<polygon fill="#ffffff" stroke="#000000" points="882,-56.5 882,-75.5 984,-75.5 984,-56.5 882,-56.5"/>
<text text-anchor="middle" x="933" y="-63.5" font-family="Helvetica,sans-Serif" font-size="10.00" fill="#000000">src/check_compa.c</text>
</a>
</g>
</g>
<!-- Node12&#45;&gt;Node24 -->
<g id="edge24" class="edge">
<title>Node12&#45;&gt;Node24</title>
<path fill="none" stroke="#191970" d="M1297.3004,-116.1131C1228.7366,-107.8616 1101.3137,-92.0582 993,-76 990.0751,-75.5664 987.0722,-75.108 984.0434,-74.6354"/>
<polygon fill="#191970" stroke="#191970" points="1297.0378,-119.6066 1307.3836,-117.3232 1297.8719,-112.6565 1297.0378,-119.6066"/>
</g>
<!-- Node25 -->
<g id="node16" class="node">
<title>Node25</title>
<g id="a_node16"><a xlink:href="a00077.xhtml" target="_top" xlink:title="Fichier BMP. ">
<polygon fill="#ffffff" stroke="#000000" points="1002,-56.5 1002,-75.5 1102,-75.5 1102,-56.5 1002,-56.5"/>
<text text-anchor="middle" x="1052" y="-63.5" font-family="Helvetica,sans-Serif" font-size="10.00" fill="#000000">src/file_type/bmp.h</text>
</a>
</g>
</g>
<!-- Node12&#45;&gt;Node25 -->
<g id="edge25" class="edge">
<title>Node12&#45;&gt;Node25</title>
<path fill="none" stroke="#191970" d="M1297.3949,-113.5328C1241.3423,-103.3204 1151.079,-86.1998 1096.9941,-75.5328"/>
<polygon fill="#191970" stroke="#191970" points="1296.9825,-117.015 1307.4467,-115.3562 1298.232,-110.1274 1296.9825,-117.015"/>
</g>
<!-- Node26 -->
<g id="node17" class="node">
<title>Node26</title>
<g id="a_node17"><a xlink:href="a00095.xhtml" target="_top" xlink:title="Fichier PNG. ">
<polygon fill="#ffffff" stroke="#000000" points="1120.5,-56.5 1120.5,-75.5 1217.5,-75.5 1217.5,-56.5 1120.5,-56.5"/>
<text text-anchor="middle" x="1169" y="-63.5" font-family="Helvetica,sans-Serif" font-size="10.00" fill="#000000">src/file_type/png.h</text>
</a>
</g>
</g>
<!-- Node12&#45;&gt;Node26 -->
<g id="edge27" class="edge">
<title>Node12&#45;&gt;Node26</title>
<path fill="none" stroke="#191970" d="M1301.3912,-109.4561C1267.2108,-99.1765 1221.8443,-84.8494 1193.9827,-75.5011"/>
<polygon fill="#191970" stroke="#191970" points="1300.5753,-112.8651 1311.1587,-112.3733 1302.5785,-106.1579 1300.5753,-112.8651"/>
</g>
<!-- Node27 -->
<g id="node18" class="node">
<title>Node27</title>
<g id="a_node18"><a xlink:href="a00104.xhtml" target="_top" xlink:title="Fichier WAVE. ">
<polygon fill="#ffffff" stroke="#000000" points="1235.5,-56.5 1235.5,-75.5 1334.5,-75.5 1334.5,-56.5 1235.5,-56.5"/>
<text text-anchor="middle" x="1285" y="-63.5" font-family="Helvetica,sans-Serif" font-size="10.00" fill="#000000">src/file_type/wav.h</text>
</a>
</g>
</g>
<!-- Node12&#45;&gt;Node27 -->
<g id="edge29" class="edge">
<title>Node12&#45;&gt;Node27</title>
<path fill="none" stroke="#191970" d="M1323.0329,-105.928C1311.1901,-96.1397 1298.0142,-83.9595 1290.4307,-75.6427"/>
<polygon fill="#191970" stroke="#191970" points="1320.9376,-108.734 1330.9336,-112.2455 1325.3092,-103.2668 1320.9376,-108.734"/>
</g>
<!-- Node28 -->
<g id="node19" class="node">
<title>Node28</title>
<g id="a_node19"><a xlink:href="a00089.xhtml" target="_top" xlink:title="Fichier MP3. ">
<polygon fill="#ffffff" stroke="#000000" points="2726,-56.5 2726,-75.5 2826,-75.5 2826,-56.5 2726,-56.5"/>
<text text-anchor="middle" x="2776" y="-63.5" font-family="Helvetica,sans-Serif" font-size="10.00" fill="#000000">src/file_type/mp3.h</text>
</a>
</g>
</g>
<!-- Node12&#45;&gt;Node28 -->
<g id="edge31" class="edge">
<title>Node12&#45;&gt;Node28</title>
<path fill="none" stroke="#191970" d="M1396.8909,-121.0738C1609.653,-117.1243 2441.4069,-100.7526 2703,-76 2710.3893,-75.3008 2718.2224,-74.2975 2725.9335,-73.1933"/>
<polygon fill="#191970" stroke="#191970" points="1396.584,-117.5788 1386.6504,-121.2632 1396.7135,-124.5776 1396.584,-117.5788"/>
</g>
<!-- Node29 -->
<g id="node20" class="node">
<title>Node29</title>
<g id="a_node20"><a xlink:href="a00086.xhtml" target="_top" xlink:title="Fichier MP3. ">
<polygon fill="#ffffff" stroke="#000000" points="2687,-.5 2687,-19.5 2787,-19.5 2787,-.5 2687,-.5"/>
<text text-anchor="middle" x="2737" y="-7.5" font-family="Helvetica,sans-Serif" font-size="10.00" fill="#000000">src/file_type/mp3.c</text>
</a>
</g>
</g>
<!-- Node12&#45;&gt;Node29 -->
<g id="edge41" class="edge">
<title>Node12&#45;&gt;Node29</title>
<path fill="none" stroke="#191970" d="M1396.9853,-121.3816C1632.2209,-118.3307 2620.0738,-103.8979 2679,-76 2704.3681,-63.9898 2723.2324,-35.1486 2731.837,-19.8754"/>
<polygon fill="#191970" stroke="#191970" points="1396.6326,-117.8857 1386.6785,-121.5142 1396.7227,-124.8852 1396.6326,-117.8857"/>
</g>
<!-- Node30 -->
<g id="node21" class="node">
<title>Node30</title>
<g id="a_node21"><a xlink:href="a00083.xhtml" target="_top" xlink:title="Fichier FLV. ">
<polygon fill="#ffffff" stroke="#000000" points="1521,-56.5 1521,-75.5 1613,-75.5 1613,-56.5 1521,-56.5"/>
<text text-anchor="middle" x="1567" y="-63.5" font-family="Helvetica,sans-Serif" font-size="10.00" fill="#000000">src/file_type/flv.h</text>
</a>
</g>
</g>
<!-- Node12&#45;&gt;Node30 -->
<g id="edge34" class="edge">
<title>Node12&#45;&gt;Node30</title>
<path fill="none" stroke="#191970" d="M1389.5453,-109.7199C1428.4502,-99.4228 1485.548,-84.9296 1524.4569,-75.5011"/>
<polygon fill="#191970" stroke="#191970" points="1388.3405,-106.4187 1379.5773,-112.3733 1390.1412,-113.1831 1388.3405,-106.4187"/>
</g>
<!-- Node31 -->
<g id="node22" class="node">
<title>Node31</title>
<g id="a_node22"><a xlink:href="a00050.xhtml" target="_top" xlink:title="Module de détection de l&#39;algorithme. ">
<polygon fill="#ffffff" stroke="#000000" points="1631,-56.5 1631,-75.5 1723,-75.5 1723,-56.5 1631,-56.5"/>
<text text-anchor="middle" x="1677" y="-63.5" font-family="Helvetica,sans-Serif" font-size="10.00" fill="#000000">src/detect_algo.c</text>
</a>
</g>
</g>
<!-- Node12&#45;&gt;Node31 -->
<g id="edge36" class="edge">
<title>Node12&#45;&gt;Node31</title>
<path fill="none" stroke="#191970" d="M1396.8417,-113.8799C1451.9617,-104.8493 1543.379,-89.7222 1622,-76 1624.8682,-75.4994 1627.8195,-74.9788 1630.7949,-74.4498"/>
<polygon fill="#191970" stroke="#191970" points="1395.9532,-110.4787 1386.6499,-115.548 1397.0839,-117.3868 1395.9532,-110.4787"/>
</g>
<!-- Node32 -->
<g id="node23" class="node">
<title>Node32</title>
<g id="a_node23"><a xlink:href="a00068.xhtml" target="_top" xlink:title="Fichier AVI. ">
<polygon fill="#ffffff" stroke="#000000" points="1741,-56.5 1741,-75.5 1835,-75.5 1835,-56.5 1741,-56.5"/>
<text text-anchor="middle" x="1788" y="-63.5" font-family="Helvetica,sans-Serif" font-size="10.00" fill="#000000">src/file_type/avi.c</text>
</a>
</g>
</g>
<!-- Node12&#45;&gt;Node32 -->
<g id="edge38" class="edge">
<title>Node12&#45;&gt;Node32</title>
<path fill="none" stroke="#191970" d="M1397.0803,-116.9505C1470.6564,-109.3204 1612.2181,-93.8354 1732,-76 1734.9305,-75.5637 1737.9432,-75.0922 1740.9786,-74.6"/>
<polygon fill="#191970" stroke="#191970" points="1396.3167,-113.5106 1386.7288,-118.0186 1397.0353,-120.4736 1396.3167,-113.5106"/>
</g>
<!-- Node33 -->
<g id="node24" class="node">
<title>Node33</title>
<g id="a_node24"><a xlink:href="a00074.xhtml" target="_top" xlink:title="Fichier BMP. ">
<polygon fill="#ffffff" stroke="#000000" points="1853,-56.5 1853,-75.5 1953,-75.5 1953,-56.5 1853,-56.5"/>
<text text-anchor="middle" x="1903" y="-63.5" font-family="Helvetica,sans-Serif" font-size="10.00" fill="#000000">src/file_type/bmp.c</text>
</a>
</g>
</g>
<!-- Node12&#45;&gt;Node33 -->
<g id="edge39" class="edge">
<title>Node12&#45;&gt;Node33</title>
<path fill="none" stroke="#191970" d="M1396.8887,-118.6368C1486.5932,-112.3103 1680.9751,-97.3291 1844,-76 1846.8844,-75.6226 1849.8436,-75.2082 1852.8268,-74.7693"/>
<polygon fill="#191970" stroke="#191970" points="1396.4654,-115.1577 1386.7341,-119.3474 1396.9541,-122.1407 1396.4654,-115.1577"/>
</g>
<!-- Node34 -->
<g id="node25" class="node">
<title>Node34</title>
<g id="a_node25"><a xlink:href="a00080.xhtml" target="_top" xlink:title="Fichier FLV. ">
<polygon fill="#ffffff" stroke="#000000" points="1971,-56.5 1971,-75.5 2063,-75.5 2063,-56.5 1971,-56.5"/>
<text text-anchor="middle" x="2017" y="-63.5" font-family="Helvetica,sans-Serif" font-size="10.00" fill="#000000">src/file_type/flv.c</text>
</a>
</g>
</g>
<!-- Node12&#45;&gt;Node34 -->
<g id="edge40" class="edge">
<title>Node12&#45;&gt;Node34</title>
<path fill="none" stroke="#191970" d="M1397.0134,-120.0443C1502.0282,-115.5457 1753.0522,-102.7342 1962,-76 1964.888,-75.6305 1967.8544,-75.2103 1970.8413,-74.7563"/>
<polygon fill="#191970" stroke="#191970" points="1396.5615,-116.5601 1386.7179,-120.4786 1396.8566,-123.5539 1396.5615,-116.5601"/>
</g>
<!-- Node35 -->
<g id="node26" class="node">
<title>Node35</title>
<g id="a_node26"><a xlink:href="a00092.xhtml" target="_top" xlink:title="Fichier PNG. ">
<polygon fill="#ffffff" stroke="#000000" points="2081.5,-56.5 2081.5,-75.5 2178.5,-75.5 2178.5,-56.5 2081.5,-56.5"/>
<text text-anchor="middle" x="2130" y="-63.5" font-family="Helvetica,sans-Serif" font-size="10.00" fill="#000000">src/file_type/png.c</text>
</a>
</g>
</g>
<!-- Node12&#45;&gt;Node35 -->
<g id="edge42" class="edge">
<title>Node12&#45;&gt;Node35</title>
<path fill="none" stroke="#191970" d="M1396.9809,-120.6771C1514.8735,-117.154 1819.3999,-105.7024 2072,-76 2075.0444,-75.642 2078.1718,-75.2306 2081.3209,-74.7832"/>
<polygon fill="#191970" stroke="#191970" points="1396.7163,-117.1832 1386.8231,-120.9747 1396.9213,-124.1802 1396.7163,-117.1832"/>
</g>
<!-- Node36 -->
<g id="node27" class="node">
<title>Node36</title>
<g id="a_node27"><a xlink:href="a00101.xhtml" target="_top" xlink:title="Fichier WAVE. ">
<polygon fill="#ffffff" stroke="#000000" points="2196.5,-56.5 2196.5,-75.5 2295.5,-75.5 2295.5,-56.5 2196.5,-56.5"/>
<text text-anchor="middle" x="2246" y="-63.5" font-family="Helvetica,sans-Serif" font-size="10.00" fill="#000000">src/file_type/wav.c</text>
</a>
</g>
</g>
<!-- Node12&#45;&gt;Node36 -->
<g id="edge43" class="edge">
<title>Node12&#45;&gt;Node36</title>
<path fill="none" stroke="#191970" d="M1397.0021,-121.2343C1527.4065,-118.8105 1888.4594,-109.3659 2187,-76 2190.0975,-75.6538 2193.2792,-75.2514 2196.4829,-74.8108"/>
<polygon fill="#191970" stroke="#191970" points="1396.8561,-117.7362 1386.9208,-121.4161 1396.9823,-124.7351 1396.8561,-117.7362"/>
</g>
<!-- Node37 -->
<g id="node28" class="node">
<title>Node37</title>
<g id="a_node28"><a xlink:href="a00107.xhtml" target="_top" xlink:title="Fonction d&#39;initialisation et de libération de la bibliothèque. ">
<polygon fill="#ffffff" stroke="#000000" points="2314,-56.5 2314,-75.5 2368,-75.5 2368,-56.5 2314,-56.5"/>
<text text-anchor="middle" x="2341" y="-63.5" font-family="Helvetica,sans-Serif" font-size="10.00" fill="#000000">src/init.c</text>
</a>
</g>
</g>
<!-- Node12&#45;&gt;Node37 -->
<g id="edge44" class="edge">
<title>Node12&#45;&gt;Node37</title>
<path fill="none" stroke="#191970" d="M1396.8457,-121.025C1567.3548,-117.4673 2126.5548,-103.9076 2304,-76 2307.1552,-75.5038 2310.4279,-74.8421 2313.6633,-74.0944"/>
<polygon fill="#191970" stroke="#191970" points="1396.5796,-117.5296 1386.654,-121.2353 1396.7241,-124.5281 1396.5796,-117.5296"/>
</g>
<!-- Node38 -->
<g id="node29" class="node">
<title>Node38</title>
<g id="a_node29"><a xlink:href="a00116.xhtml" target="_top" xlink:title="Algorithme de protection des données avec le mot de passe. ">
<polygon fill="#ffffff" stroke="#000000" points="2386,-56.5 2386,-75.5 2470,-75.5 2470,-56.5 2386,-56.5"/>
<text text-anchor="middle" x="2428" y="-63.5" font-family="Helvetica,sans-Serif" font-size="10.00" fill="#000000">src/protection.c</text>
</a>
</g>
</g>
<!-- Node12&#45;&gt;Node38 -->
<g id="edge46" class="edge">
<title>Node12&#45;&gt;Node38</title>
<path fill="none" stroke="#191970" d="M1396.664,-120.7641C1575.1415,-116.1693 2183.6827,-99.1387 2377,-76 2379.8668,-75.6569 2382.8138,-75.2433 2385.7761,-74.7822"/>
<polygon fill="#191970" stroke="#191970" points="1396.4238,-117.269 1386.5166,-121.0238 1396.6029,-124.2667 1396.4238,-117.269"/>
</g>
<!-- Node39 -->
<g id="node30" class="node">
<title>Node39</title>
<g id="a_node30"><a xlink:href="a00128.xhtml" target="_top" xlink:title="Proposition des algorithmes. ">
<polygon fill="#ffffff" stroke="#000000" points="2488,-56.5 2488,-75.5 2574,-75.5 2574,-56.5 2488,-56.5"/>
<text text-anchor="middle" x="2531" y="-63.5" font-family="Helvetica,sans-Serif" font-size="10.00" fill="#000000">src/sugg_algo.c</text>
</a>
</g>
</g>
<!-- Node12&#45;&gt;Node39 -->
<g id="edge47" class="edge">
<title>Node12&#45;&gt;Node39</title>
<path fill="none" stroke="#191970" d="M1396.7771,-120.9677C1586.5468,-116.8781 2264.7097,-100.818 2479,-76 2481.9223,-75.6616 2484.9265,-75.2515 2487.9465,-74.7929"/>
<polygon fill="#191970" stroke="#191970" points="1396.4669,-117.4734 1386.5442,-121.1868 1396.6168,-124.4718 1396.4669,-117.4734"/>
</g>
<!-- Node14&#45;&gt;Node15 -->
<g id="edge5" class="edge">
<title>Node14&#45;&gt;Node15</title>
<path fill="none" stroke="#191970" d="M241.3182,-52.6541C267.578,-42.4419 303.1492,-28.6086 326.5685,-19.5011"/>
<polygon fill="#191970" stroke="#191970" points="239.806,-49.4867 231.7545,-56.3733 242.3431,-56.0108 239.806,-49.4867"/>
</g>
<!-- Node14&#45;&gt;Node16 -->
<g id="edge6" class="edge">
<title>Node14&#45;&gt;Node16</title>
<path fill="none" stroke="#191970" d="M256.148,-54.2381C301.8281,-43.3061 368.5948,-27.3277 408.1388,-17.8642"/>
<polygon fill="#191970" stroke="#191970" points="255.0771,-50.8955 246.1663,-56.6269 256.7064,-57.7032 255.0771,-50.8955"/>
</g>
<!-- Node18&#45;&gt;Node15 -->
<g id="edge9" class="edge">
<title>Node18&#45;&gt;Node15</title>
<path fill="none" stroke="#191970" d="M317.3122,-48.5004C325.6447,-38.9775 335.6353,-27.5596 342.5627,-19.6427"/>
<polygon fill="#191970" stroke="#191970" points="314.4862,-46.415 310.5351,-56.2455 319.7543,-51.0245 314.4862,-46.415"/>
</g>
<!-- Node18&#45;&gt;Node16 -->
<g id="edge10" class="edge">
<title>Node18&#45;&gt;Node16</title>
<path fill="none" stroke="#191970" d="M335.4621,-52.5189C360.7769,-42.3201 394.9103,-28.5685 417.4169,-19.5011"/>
<polygon fill="#191970" stroke="#191970" points="333.8626,-49.3899 325.895,-56.3733 336.4784,-55.8827 333.8626,-49.3899"/>
</g>
<!-- Node19&#45;&gt;Node15 -->
<g id="edge14" class="edge">
<title>Node19&#45;&gt;Node15</title>
<path fill="none" stroke="#191970" d="M1342.9131,-56.1258C923.2769,-17.3343 812.4964,-70.596 399,-20 394.9444,-19.5037 390.7221,-18.842 386.5383,-18.0943"/>
<polygon fill="#191970" stroke="#191970" points="1342.6007,-59.6118 1352.8835,-57.0594 1343.2533,-52.6423 1342.6007,-59.6118"/>
</g>
<!-- Node19&#45;&gt;Node16 -->
<g id="edge15" class="edge">
<title>Node19&#45;&gt;Node16</title>
<path fill="none" stroke="#191970" d="M1342.9092,-56.1074C996.6322,-21.6306 590.624,-12.5104 473.8533,-10.4968"/>
<polygon fill="#191970" stroke="#191970" points="1342.5789,-59.5917 1352.8787,-57.1087 1343.2785,-52.6268 1342.5789,-59.5917"/>
</g>
<!-- Node21&#45;&gt;Node15 -->
<g id="edge18" class="edge">
<title>Node21&#45;&gt;Node15</title>
<path fill="none" stroke="#191970" d="M381.7054,-48.2112C374.1004,-38.7472 365.0462,-27.4797 358.7486,-19.6427"/>
<polygon fill="#191970" stroke="#191970" points="379.1694,-50.6428 388.1616,-56.2455 384.6259,-46.2581 379.1694,-50.6428"/>
</g>
<!-- Node21&#45;&gt;Node16 -->
<g id="edge19" class="edge">
<title>Node21&#45;&gt;Node16</title>
<path fill="none" stroke="#191970" d="M410.2946,-48.2112C417.8996,-38.7472 426.9538,-27.4797 433.2514,-19.6427"/>
<polygon fill="#191970" stroke="#191970" points="407.3741,-46.2581 403.8384,-56.2455 412.8306,-50.6428 407.3741,-46.2581"/>
</g>
<!-- Node23&#45;&gt;Node15 -->
<g id="edge22" class="edge">
<title>Node23&#45;&gt;Node15</title>
<path fill="none" stroke="#191970" d="M467.141,-52.7888C439.3877,-42.5639 401.6181,-28.6488 376.7888,-19.5011"/>
<polygon fill="#191970" stroke="#191970" points="466.2768,-56.2003 476.8703,-56.3733 468.6968,-49.6319 466.2768,-56.2003"/>
</g>
<!-- Node23&#45;&gt;Node16 -->
<g id="edge23" class="edge">
<title>Node23&#45;&gt;Node16</title>
<path fill="none" stroke="#191970" d="M484.5779,-49.3607C473.8519,-39.6727 460.7066,-27.7995 451.6758,-19.6427"/>
<polygon fill="#191970" stroke="#191970" points="482.4334,-52.14 492.2004,-56.2455 487.1254,-46.9453 482.4334,-52.14"/>
</g>
<!-- Node25&#45;&gt;Node12 -->
<g id="edge26" class="edge">
<title>Node25&#45;&gt;Node12</title>
<path fill="none" stroke="#191970" d="M1112.1766,-76.4006C1170.4493,-87.0953 1257.0101,-103.5511 1307.2052,-113.4948"/>
<polygon fill="#191970" stroke="#191970" points="1112.4668,-72.8957 1102.0002,-74.5392 1111.2073,-79.7815 1112.4668,-72.8957"/>
</g>
<!-- Node26&#45;&gt;Node12 -->
<g id="edge28" class="edge">
<title>Node26&#45;&gt;Node12</title>
<path fill="none" stroke="#191970" d="M1214.1513,-78.4064C1248.2311,-88.6496 1293.6252,-102.9807 1321.6427,-112.3733"/>
<polygon fill="#191970" stroke="#191970" points="1215.0006,-75.0073 1204.4173,-75.5011 1212.9986,-81.715 1215.0006,-75.0073"/>
</g>
<!-- Node27&#45;&gt;Node12 -->
<g id="edge30" class="edge">
<title>Node27&#45;&gt;Node12</title>
<path fill="none" stroke="#191970" d="M1308.8084,-81.9408C1320.6391,-91.7076 1333.8339,-103.8943 1341.4673,-112.2455"/>
<polygon fill="#191970" stroke="#191970" points="1310.9193,-79.1475 1300.921,-75.6427 1306.5514,-84.6176 1310.9193,-79.1475"/>
</g>
<!-- Node28&#45;&gt;Node12 -->
<g id="edge32" class="edge">
<title>Node28&#45;&gt;Node12</title>
<path fill="none" stroke="#191970" d="M2715.4822,-76.46C2431.3606,-101.8106 1580.8218,-118.0264 1386.6861,-121.3613"/>
<polygon fill="#191970" stroke="#191970" points="2716.1162,-79.9165 2725.7538,-75.5159 2715.4755,-72.9459 2716.1162,-79.9165"/>
</g>
<!-- Node28&#45;&gt;Node29 -->
<g id="edge33" class="edge">
<title>Node28&#45;&gt;Node29</title>
<path fill="none" stroke="#191970" d="M2763.4092,-47.9209C2756.8605,-38.5176 2749.1176,-27.3997 2743.7154,-19.6427"/>
<polygon fill="#191970" stroke="#191970" points="2760.6196,-50.0397 2769.2067,-56.2455 2766.3639,-46.0392 2760.6196,-50.0397"/>
</g>
<!-- Node30&#45;&gt;Node12 -->
<g id="edge35" class="edge">
<title>Node30&#45;&gt;Node12</title>
<path fill="none" stroke="#191970" d="M1525.17,-78.0907C1485.2966,-88.652 1425.8527,-103.7328 1386.6927,-113.1884"/>
<polygon fill="#191970" stroke="#191970" points="1526.0993,-81.4653 1534.8614,-75.5092 1524.2974,-74.7012 1526.0993,-81.4653"/>
</g>
</g>
</svg>
