<?xml version="1.0" encoding="UTF-8" standalone="no"?>
<!DOCTYPE svg PUBLIC "-//W3C//DTD SVG 1.1//EN"
 "http://www.w3.org/Graphics/SVG/1.1/DTD/svg11.dtd">
<!-- Generated by graphviz version 2.40.1 (20161225.0304)
 -->
<!-- Title: src/protection.h Pages: 1 -->
<svg width="740pt" height="84pt"
 viewBox="0.00 0.00 740.00 84.00" xmlns="http://www.w3.org/2000/svg" xmlns:xlink="http://www.w3.org/1999/xlink">
<g id="graph0" class="graph" transform="scale(1 1) rotate(0) translate(4 80)">
<title>src/protection.h</title>
<polygon fill="#ffffff" stroke="transparent" points="-4,4 -4,-80 736,-80 736,4 -4,4"/>
<!-- Node5 -->
<g id="node1" class="node">
<title>Node5</title>
<polygon fill="#bfbfbf" stroke="#000000" points="316,-56.5 316,-75.5 400,-75.5 400,-56.5 316,-56.5"/>
<text text-anchor="middle" x="358" y="-63.5" font-family="Helvetica,sans-Serif" font-size="10.00" fill="#000000">src/protection.h</text>
</g>
<!-- Node6 -->
<g id="node2" class="node">
<title>Node6</title>
<g id="a_node2"><a xlink:href="a00014.xhtml" target="_top" xlink:title="Algorithme End Of Chunk (EOC). ">
<polygon fill="#ffffff" stroke="#000000" points="0,-.5 0,-19.5 78,-19.5 78,-.5 0,-.5"/>
<text text-anchor="middle" x="39" y="-7.5" font-family="Helvetica,sans-Serif" font-size="10.00" fill="#000000">src/algo/eoc.c</text>
</a>
</g>
</g>
<!-- Node5&#45;&gt;Node6 -->
<g id="edge1" class="edge">
<title>Node5&#45;&gt;Node6</title>
<path fill="none" stroke="#191970" d="M305.5251,-57.6873C250.8573,-48.888 162.7704,-34.3183 87,-20 84.0725,-19.4468 81.0483,-18.8579 78.0085,-18.2535"/>
<polygon fill="#191970" stroke="#191970" points="305.2379,-61.1859 315.6662,-59.3151 306.3474,-54.2744 305.2379,-61.1859"/>
</g>
<!-- Node7 -->
<g id="node3" class="node">
<title>Node7</title>
<g id="a_node3"><a xlink:href="a00020.xhtml" target="_top" xlink:title="Algorithme EOF. ">
<polygon fill="#ffffff" stroke="#000000" points="96,-.5 96,-19.5 172,-19.5 172,-.5 96,-.5"/>
<text text-anchor="middle" x="134" y="-7.5" font-family="Helvetica,sans-Serif" font-size="10.00" fill="#000000">src/algo/eof.c</text>
</a>
</g>
</g>
<!-- Node5&#45;&gt;Node7 -->
<g id="edge2" class="edge">
<title>Node5&#45;&gt;Node7</title>
<path fill="none" stroke="#191970" d="M309.928,-53.982C268.7125,-43.6781 210.1322,-29.0331 172.0947,-19.5237"/>
<polygon fill="#191970" stroke="#191970" points="309.1972,-57.407 319.7475,-56.4369 310.895,-50.616 309.1972,-57.407"/>
</g>
<!-- Node8 -->
<g id="node4" class="node">
<title>Node8</title>
<g id="a_node4"><a xlink:href="a00026.xhtml" target="_top" xlink:title="Algorithme JUNK CHUNK. ">
<polygon fill="#ffffff" stroke="#000000" points="190,-.5 190,-19.5 302,-19.5 302,-.5 190,-.5"/>
<text text-anchor="middle" x="246" y="-7.5" font-family="Helvetica,sans-Serif" font-size="10.00" fill="#000000">src/algo/junk_chunk.c</text>
</a>
</g>
</g>
<!-- Node5&#45;&gt;Node8 -->
<g id="edge3" class="edge">
<title>Node5&#45;&gt;Node8</title>
<path fill="none" stroke="#191970" d="M329.6737,-51.8368C309.4279,-41.7139 282.7358,-28.3679 265.0022,-19.5011"/>
<polygon fill="#191970" stroke="#191970" points="328.237,-55.0316 338.7465,-56.3733 331.3675,-48.7706 328.237,-55.0316"/>
</g>
<!-- Node9 -->
<g id="node5" class="node">
<title>Node9</title>
<g id="a_node5"><a xlink:href="a00032.xhtml" target="_top" xlink:title="Algorithme LSB. ">
<polygon fill="#ffffff" stroke="#000000" points="320.5,-.5 320.5,-19.5 395.5,-19.5 395.5,-.5 320.5,-.5"/>
<text text-anchor="middle" x="358" y="-7.5" font-family="Helvetica,sans-Serif" font-size="10.00" fill="#000000">src/algo/lsb.c</text>
</a>
</g>
</g>
<!-- Node5&#45;&gt;Node9 -->
<g id="edge4" class="edge">
<title>Node5&#45;&gt;Node9</title>
<path fill="none" stroke="#191970" d="M358,-46.1575C358,-37.155 358,-26.9199 358,-19.6427"/>
<polygon fill="#191970" stroke="#191970" points="354.5001,-46.2455 358,-56.2455 361.5001,-46.2456 354.5001,-46.2455"/>
</g>
<!-- Node10 -->
<g id="node6" class="node">
<title>Node10</title>
<g id="a_node6"><a xlink:href="a00074.xhtml" target="_top" xlink:title="Fichier BMP. ">
<polygon fill="#ffffff" stroke="#000000" points="414,-.5 414,-19.5 514,-19.5 514,-.5 414,-.5"/>
<text text-anchor="middle" x="464" y="-7.5" font-family="Helvetica,sans-Serif" font-size="10.00" fill="#000000">src/file_type/bmp.c</text>
</a>
</g>
</g>
<!-- Node5&#45;&gt;Node10 -->
<g id="edge5" class="edge">
<title>Node5&#45;&gt;Node10</title>
<path fill="none" stroke="#191970" d="M385.5222,-51.46C404.4908,-41.4388 429.1727,-28.3993 445.7478,-19.6427"/>
<polygon fill="#191970" stroke="#191970" points="383.6708,-48.4796 376.4638,-56.2455 386.9407,-54.669 383.6708,-48.4796"/>
</g>
<!-- Node11 -->
<g id="node7" class="node">
<title>Node11</title>
<g id="a_node7"><a xlink:href="a00092.xhtml" target="_top" xlink:title="Fichier PNG. ">
<polygon fill="#ffffff" stroke="#000000" points="532.5,-.5 532.5,-19.5 629.5,-19.5 629.5,-.5 532.5,-.5"/>
<text text-anchor="middle" x="581" y="-7.5" font-family="Helvetica,sans-Serif" font-size="10.00" fill="#000000">src/file_type/png.c</text>
</a>
</g>
</g>
<!-- Node5&#45;&gt;Node11 -->
<g id="edge6" class="edge">
<title>Node5&#45;&gt;Node11</title>
<path fill="none" stroke="#191970" d="M405.8574,-53.982C446.8889,-43.6781 505.2076,-29.0331 543.0754,-19.5237"/>
<polygon fill="#191970" stroke="#191970" points="404.9281,-50.6066 396.0817,-56.4369 406.633,-57.3958 404.9281,-50.6066"/>
</g>
<!-- Node12 -->
<g id="node8" class="node">
<title>Node12</title>
<g id="a_node8"><a xlink:href="a00116.xhtml" target="_top" xlink:title="Algorithme de protection des données avec le mot de passe. ">
<polygon fill="#ffffff" stroke="#000000" points="648,-.5 648,-19.5 732,-19.5 732,-.5 648,-.5"/>
<text text-anchor="middle" x="690" y="-7.5" font-family="Helvetica,sans-Serif" font-size="10.00" fill="#000000">src/protection.c</text>
</a>
</g>
</g>
<!-- Node5&#45;&gt;Node12 -->
<g id="edge7" class="edge">
<title>Node5&#45;&gt;Node12</title>
<path fill="none" stroke="#191970" d="M410.5636,-57.8995C467.0813,-49.072 559.5323,-34.2918 639,-20 641.9305,-19.473 644.9529,-18.9156 647.9949,-18.3446"/>
<polygon fill="#191970" stroke="#191970" points="409.7817,-54.4791 400.4399,-59.4771 410.8596,-61.3956 409.7817,-54.4791"/>
</g>
</g>
</svg>
