<?xml version="1.0" encoding="UTF-8" standalone="no"?>
<!DOCTYPE svg PUBLIC "-//W3C//DTD SVG 1.1//EN"
 "http://www.w3.org/Graphics/SVG/1.1/DTD/svg11.dtd">
<!-- Generated by graphviz version 2.40.1 (20161225.0304)
 -->
<!-- Title: data_xor_write_tab Pages: 1 -->
<svg width="213pt" height="104pt"
 viewBox="0.00 0.00 213.00 104.00" xmlns="http://www.w3.org/2000/svg" xmlns:xlink="http://www.w3.org/1999/xlink">
<g id="graph0" class="graph" transform="scale(1 1) rotate(0) translate(4 100)">
<title>data_xor_write_tab</title>
<polygon fill="#ffffff" stroke="transparent" points="-4,4 -4,-100 209,-100 209,4 -4,4"/>
<!-- Node12 -->
<g id="node1" class="node">
<title>Node12</title>
<polygon fill="#bfbfbf" stroke="#000000" points="0,-38.5 0,-57.5 99,-57.5 99,-38.5 0,-38.5"/>
<text text-anchor="middle" x="49.5" y="-45.5" font-family="Helvetica,sans-Serif" font-size="10.00" fill="#000000">data_xor_write_tab</text>
</g>
<!-- Node13 -->
<g id="node2" class="node">
<title>Node13</title>
<g id="a_node2"><a xlink:href="a00122.xhtml#a4e9a217b960dc65fd08dff9f78e317e4" target="_top" xlink:title="Initialise la seed de la suite pseudo aléatoire. ">
<polygon fill="#ffffff" stroke="#000000" points="135,-76.5 135,-95.5 205,-95.5 205,-76.5 135,-76.5"/>
<text text-anchor="middle" x="170" y="-83.5" font-family="Helvetica,sans-Serif" font-size="10.00" fill="#000000">stegx_srand</text>
</a>
</g>
</g>
<!-- Node12&#45;&gt;Node13 -->
<g id="edge1" class="edge">
<title>Node12&#45;&gt;Node13</title>
<path fill="none" stroke="#191970" d="M79.9072,-57.589C95.0345,-62.3594 113.5196,-68.1888 129.8002,-73.3229"/>
<polygon fill="#191970" stroke="#191970" points="129.0128,-76.7444 139.6025,-76.4141 131.1181,-70.0685 129.0128,-76.7444"/>
</g>
<!-- Node14 -->
<g id="node3" class="node">
<title>Node14</title>
<g id="a_node3"><a xlink:href="a00122.xhtml#a2a891bbe3514201de3cfc5acced104b7" target="_top" xlink:title="Cree un seed a partir d&#39;un mot de passe. ">
<polygon fill="#ffffff" stroke="#000000" points="135,-38.5 135,-57.5 205,-57.5 205,-38.5 135,-38.5"/>
<text text-anchor="middle" x="170" y="-45.5" font-family="Helvetica,sans-Serif" font-size="10.00" fill="#000000">create_seed</text>
</a>
</g>
</g>
<!-- Node12&#45;&gt;Node14 -->
<g id="edge2" class="edge">
<title>Node12&#45;&gt;Node14</title>
<path fill="none" stroke="#191970" d="M99.2077,-48C107.5951,-48 116.2638,-48 124.5362,-48"/>
<polygon fill="#191970" stroke="#191970" points="124.7516,-51.5001 134.7515,-48 124.7515,-44.5001 124.7516,-51.5001"/>
</g>
<!-- Node15 -->
<g id="node4" class="node">
<title>Node15</title>
<g id="a_node4"><a xlink:href="a00122.xhtml#a9966534d45c62d0df7a3d5df48668715" target="_top" xlink:title="Renvoie un entier pseudo&#45;aléatoire. ">
<polygon fill="#ffffff" stroke="#000000" points="137.5,-.5 137.5,-19.5 202.5,-19.5 202.5,-.5 137.5,-.5"/>
<text text-anchor="middle" x="170" y="-7.5" font-family="Helvetica,sans-Serif" font-size="10.00" fill="#000000">stegx_rand</text>
</a>
</g>
</g>
<!-- Node12&#45;&gt;Node15 -->
<g id="edge3" class="edge">
<title>Node12&#45;&gt;Node15</title>
<path fill="none" stroke="#191970" d="M79.9072,-38.411C95.0345,-33.6406 113.5196,-27.8112 129.8002,-22.6771"/>
<polygon fill="#191970" stroke="#191970" points="131.1181,-25.9315 139.6025,-19.5859 129.0128,-19.2556 131.1181,-25.9315"/>
</g>
</g>
</svg>
