<?xml version="1.0" encoding="UTF-8" standalone="no"?>
<!DOCTYPE svg PUBLIC "-//W3C//DTD SVG 1.1//EN"
 "http://www.w3.org/Graphics/SVG/1.1/DTD/svg11.dtd">
<!-- Generated by graphviz version 2.40.1 (20161225.0304)
 -->
<!-- Title: src/sugg_algo.c Pages: 1 -->
<!--zoomable 196 -->
<svg id="main" version="1.1" xmlns="http://www.w3.org/2000/svg" xmlns:xlink="http://www.w3.org/1999/xlink" xml:space="preserve" onload="init(evt)">
<style type="text/css"><![CDATA[
.edge:hover path { stroke: red; }
.edge:hover polygon { stroke: red; fill: red; }
]]></style>
<script type="text/javascript"><![CDATA[
var edges = document.getElementsByTagName('g');
if (edges && edges.length) {
  for (var i=0;i<edges.length;i++) {
    if (edges[i].id.substr(0,4)=='edge') {
      edges[i].setAttribute('class','edge');
    }
  }
}
]]></script>
        <defs>
                <circle id="rim" cx="0" cy="0" r="7"/>
                <circle id="rim2" cx="0" cy="0" r="3.5"/>
                <g id="zoomPlus">
                        <use xlink:href="#rim" fill="#404040">
                                <set attributeName="fill" to="#808080" begin="zoomplus.mouseover" end="zoomplus.mouseout"/>
                        </use>
                        <path d="M-4,0h8M0,-4v8" fill="none" stroke="white" stroke-width="1.5" pointer-events="none"/>
                </g>
                <g id="zoomMin">
                        <use xlink:href="#rim" fill="#404040">
                                <set attributeName="fill" to="#808080" begin="zoomminus.mouseover" end="zoomminus.mouseout"/>
                        </use>
                        <path d="M-4,0h8" fill="none" stroke="white" stroke-width="1.5" pointer-events="none"/>
                </g>
                <g id="dirArrow">
                        <path fill="none" stroke="white" stroke-width="1.5" d="M0,-3.0v7 M-2.5,-0.5L0,-3.0L2.5,-0.5"/>
                </g>
               <g id="resetDef">
                       <use xlink:href="#rim2" fill="#404040">
                               <set attributeName="fill" to="#808080" begin="reset.mouseover" end="reset.mouseout"/>
                       </use>
               </g>
        </defs>

<script type="text/javascript">
var viewWidth = 1143;
var viewHeight = 196;
var sectionId = 'dynsection-0';
</script>
<script xlink:href="svgpan.js"/>
<svg id="graph" class="graph">
<g id="viewport">
<title>src/sugg_algo.c</title>
<polygon fill="#ffffff" stroke="transparent" points="-4,4 -4,-192 1138.8156,-192 1138.8156,4 -4,4"/>
<!-- Node0 -->
<g id="node1" class="node">
<title>Node0</title>
<polygon fill="#bfbfbf" stroke="#000000" points="806.3156,-168.5 806.3156,-187.5 892.3156,-187.5 892.3156,-168.5 806.3156,-168.5"/>
<text text-anchor="middle" x="849.3156" y="-175.5" font-family="Helvetica,sans-Serif" font-size="10.00" fill="#000000">src/sugg_algo.c</text>
</g>
<!-- Node1 -->
<g id="node2" class="node">
<title>Node1</title>
<polygon fill="#ffffff" stroke="#bfbfbf" points="278.3156,-.5 278.3156,-19.5 324.3156,-19.5 324.3156,-.5 278.3156,-.5"/>
<text text-anchor="middle" x="301.3156" y="-7.5" font-family="Helvetica,sans-Serif" font-size="10.00" fill="#000000">stdio.h</text>
</g>
<!-- Node0&#45;&gt;Node1 -->
<g id="edge1" class="edge">
<title>Node0&#45;&gt;Node1</title>
<path fill="none" stroke="#191970" d="M806.1309,-176.1809C641.0121,-168.7788 56.2835,-138.3049 4.3156,-76 -1.378,-69.1739 -1.4688,-62.7493 4.3156,-56 21.3464,-36.1284 194.1057,-19.1503 268.0372,-12.7358"/>
<polygon fill="#191970" stroke="#191970" points="268.5323,-16.2063 278.1977,-11.867 267.9359,-9.2318 268.5323,-16.2063"/>
</g>
<!-- Node2 -->
<g id="node3" class="node">
<title>Node2</title>
<polygon fill="#ffffff" stroke="#bfbfbf" points="825.3156,-.5 825.3156,-19.5 873.3156,-19.5 873.3156,-.5 825.3156,-.5"/>
<text text-anchor="middle" x="849.3156" y="-7.5" font-family="Helvetica,sans-Serif" font-size="10.00" fill="#000000">stdlib.h</text>
</g>
<!-- Node0&#45;&gt;Node2 -->
<g id="edge2" class="edge">
<title>Node0&#45;&gt;Node2</title>
<path fill="none" stroke="#191970" d="M856.2167,-168.4162C870.2384,-147.712 899.5681,-97.3372 885.3156,-56 881.5969,-45.2144 874.1943,-35.0249 867.0637,-26.9904"/>
<polygon fill="#191970" stroke="#191970" points="869.5947,-24.5729 860.1704,-19.7321 864.5189,-29.3934 869.5947,-24.5729"/>
</g>
<!-- Node3 -->
<g id="node4" class="node">
<title>Node3</title>
<polygon fill="#ffffff" stroke="#bfbfbf" points="923.3156,-112.5 923.3156,-131.5 975.3156,-131.5 975.3156,-112.5 923.3156,-112.5"/>
<text text-anchor="middle" x="949.3156" y="-119.5" font-family="Helvetica,sans-Serif" font-size="10.00" fill="#000000">assert.h</text>
</g>
<!-- Node0&#45;&gt;Node3 -->
<g id="edge3" class="edge">
<title>Node0&#45;&gt;Node3</title>
<path fill="none" stroke="#191970" d="M866.7343,-168.2455C882.3641,-159.4928 905.5175,-146.527 923.3341,-136.5496"/>
<polygon fill="#191970" stroke="#191970" points="925.0816,-139.5825 932.0965,-131.6427 921.6613,-133.475 925.0816,-139.5825"/>
</g>
<!-- Node4 -->
<g id="node5" class="node">
<title>Node4</title>
<polygon fill="#ffffff" stroke="#bfbfbf" points="993.3156,-112.5 993.3156,-131.5 1037.3156,-131.5 1037.3156,-112.5 993.3156,-112.5"/>
<text text-anchor="middle" x="1015.3156" y="-119.5" font-family="Helvetica,sans-Serif" font-size="10.00" fill="#000000">time.h</text>
</g>
<!-- Node0&#45;&gt;Node4 -->
<g id="edge4" class="edge">
<title>Node0&#45;&gt;Node4</title>
<path fill="none" stroke="#191970" d="M877.852,-168.3733C907.2513,-158.4554 952.973,-143.0313 983.5155,-132.7278"/>
<polygon fill="#191970" stroke="#191970" points="984.8894,-135.9581 993.246,-129.4452 982.6518,-129.3254 984.8894,-135.9581"/>
</g>
<!-- Node5 -->
<g id="node6" class="node">
<title>Node5</title>
<g id="a_node6"><a xlink:href="a00059.xhtml" target="_top" xlink:title="Module qui fait des conversions entre endianness. ">
<polygon fill="#ffffff" stroke="#000000" points="822.8156,-56.5 822.8156,-75.5 875.8156,-75.5 875.8156,-56.5 822.8156,-56.5"/>
<text text-anchor="middle" x="849.3156" y="-63.5" font-family="Helvetica,sans-Serif" font-size="10.00" fill="#000000">endian.h</text>
</a>
</g>
</g>
<!-- Node0&#45;&gt;Node5 -->
<g id="edge5" class="edge">
<title>Node0&#45;&gt;Node5</title>
<path fill="none" stroke="#191970" d="M849.3156,-168.4509C849.3156,-150.184 849.3156,-109.9553 849.3156,-85.6976"/>
<polygon fill="#191970" stroke="#191970" points="852.8157,-85.5249 849.3156,-75.5249 845.8157,-85.5249 852.8157,-85.5249"/>
</g>
<!-- Node7 -->
<g id="node8" class="node">
<title>Node7</title>
<g id="a_node8"><a xlink:href="a00047.xhtml" target="_top" xlink:title="Définitions communes à la partie privée de la bibliothèque. ">
<polygon fill="#ffffff" stroke="#000000" points="320.3156,-112.5 320.3156,-131.5 382.3156,-131.5 382.3156,-112.5 320.3156,-112.5"/>
<text text-anchor="middle" x="351.3156" y="-119.5" font-family="Helvetica,sans-Serif" font-size="10.00" fill="#000000">common.h</text>
</a>
</g>
</g>
<!-- Node0&#45;&gt;Node7 -->
<g id="edge9" class="edge">
<title>Node0&#45;&gt;Node7</title>
<path fill="none" stroke="#191970" d="M805.9925,-173.1283C711.089,-162.4564 485.896,-137.1335 392.7495,-126.6592"/>
<polygon fill="#191970" stroke="#191970" points="392.9119,-123.1555 382.5834,-125.5161 392.1296,-130.1117 392.9119,-123.1555"/>
</g>
<!-- Node8 -->
<g id="node9" class="node">
<title>Node8</title>
<g id="a_node9"><a xlink:href="a00008.xhtml" target="_top" xlink:title="Définitions communes à la partie privée et public de la bibliothèque. ">
<polygon fill="#ffffff" stroke="#000000" points="650.3156,-56.5 650.3156,-75.5 742.3156,-75.5 742.3156,-56.5 650.3156,-56.5"/>
<text text-anchor="middle" x="696.3156" y="-63.5" font-family="Helvetica,sans-Serif" font-size="10.00" fill="#000000">stegx_common.h</text>
</a>
</g>
</g>
<!-- Node0&#45;&gt;Node8 -->
<g id="edge36" class="edge">
<title>Node0&#45;&gt;Node8</title>
<path fill="none" stroke="#191970" d="M836.2709,-168.4509C809.849,-149.1094 749.7926,-105.1465 717.6132,-81.5904"/>
<polygon fill="#191970" stroke="#191970" points="719.4638,-78.6075 709.3273,-75.5249 715.329,-84.2559 719.4638,-78.6075"/>
</g>
<!-- Node15 -->
<g id="node16" class="node">
<title>Node15</title>
<g id="a_node16"><a xlink:href="a00011.xhtml" target="_top" xlink:title="Module de gestion des erreurs. ">
<polygon fill="#ffffff" stroke="#000000" points="1055.8156,-112.5 1055.8156,-131.5 1134.8156,-131.5 1134.8156,-112.5 1055.8156,-112.5"/>
<text text-anchor="middle" x="1095.3156" y="-119.5" font-family="Helvetica,sans-Serif" font-size="10.00" fill="#000000">stegx_errors.h</text>
</a>
</g>
</g>
<!-- Node0&#45;&gt;Node15 -->
<g id="edge37" class="edge">
<title>Node0&#45;&gt;Node15</title>
<path fill="none" stroke="#191970" d="M891.325,-168.4369C934.0639,-158.7077 1000.2877,-143.6324 1045.6109,-133.3149"/>
<polygon fill="#191970" stroke="#191970" points="1046.5428,-136.6924 1055.5164,-131.06 1044.989,-129.867 1046.5428,-136.6924"/>
</g>
<!-- Node16 -->
<g id="node17" class="node">
<title>Node16</title>
<g id="a_node17"><a xlink:href="a00125.xhtml" target="_top" xlink:title="Module qui s&#39;occupe de l&#39;aléatoire. ">
<polygon fill="#ffffff" stroke="#000000" points="760.3156,-56.5 760.3156,-75.5 804.3156,-75.5 804.3156,-56.5 760.3156,-56.5"/>
<text text-anchor="middle" x="782.3156" y="-63.5" font-family="Helvetica,sans-Serif" font-size="10.00" fill="#000000">rand.h</text>
</a>
</g>
</g>
<!-- Node0&#45;&gt;Node16 -->
<g id="edge38" class="edge">
<title>Node0&#45;&gt;Node16</title>
<path fill="none" stroke="#191970" d="M843.6032,-168.4509C832.4779,-149.8533 807.7348,-108.4919 793.3206,-84.3964"/>
<polygon fill="#191970" stroke="#191970" points="796.1509,-82.3098 788.0135,-75.5249 790.1437,-85.9034 796.1509,-82.3098"/>
</g>
<!-- Node5&#45;&gt;Node1 -->
<g id="edge6" class="edge">
<title>Node5&#45;&gt;Node1</title>
<path fill="none" stroke="#191970" d="M822.7043,-58.0285C819.5588,-57.2587 816.3787,-56.5583 813.3156,-56 720.7536,-39.1302 433.3503,-18.8451 334.8438,-12.214"/>
<polygon fill="#191970" stroke="#191970" points="334.7937,-8.7029 324.5822,-11.5267 334.3259,-15.6872 334.7937,-8.7029"/>
</g>
<!-- Node5&#45;&gt;Node2 -->
<g id="edge7" class="edge">
<title>Node5&#45;&gt;Node2</title>
<path fill="none" stroke="#191970" d="M849.3156,-56.2455C849.3156,-48.9382 849.3156,-38.6944 849.3156,-29.7046"/>
<polygon fill="#191970" stroke="#191970" points="852.8157,-29.6426 849.3156,-19.6427 845.8157,-29.6427 852.8157,-29.6426"/>
</g>
<!-- Node6 -->
<g id="node7" class="node">
<title>Node6</title>
<polygon fill="#ffffff" stroke="#bfbfbf" points="476.8156,-.5 476.8156,-19.5 525.8156,-19.5 525.8156,-.5 476.8156,-.5"/>
<text text-anchor="middle" x="501.3156" y="-7.5" font-family="Helvetica,sans-Serif" font-size="10.00" fill="#000000">stdint.h</text>
</g>
<!-- Node5&#45;&gt;Node6 -->
<g id="edge8" class="edge">
<title>Node5&#45;&gt;Node6</title>
<path fill="none" stroke="#191970" d="M822.6705,-58.2002C819.5311,-57.3997 816.3617,-56.645 813.3156,-56 713.7242,-34.9119 594.2207,-20.1913 536.2613,-13.7127"/>
<polygon fill="#191970" stroke="#191970" points="536.4976,-10.2176 526.1739,-12.5992 535.7295,-17.1753 536.4976,-10.2176"/>
</g>
<!-- Node7&#45;&gt;Node1 -->
<g id="edge10" class="edge">
<title>Node7&#45;&gt;Node1</title>
<path fill="none" stroke="#191970" d="M320.1658,-120.0767C240.1891,-114.8231 32.4622,-99.065 12.3156,-76 6.468,-69.3054 6.5453,-62.7614 12.3156,-56 28.7795,-36.7083 195.3868,-19.5253 267.8976,-12.8985"/>
<polygon fill="#191970" stroke="#191970" points="268.2386,-16.382 277.884,-11.9983 267.6102,-9.4103 268.2386,-16.382"/>
</g>
<!-- Node7&#45;&gt;Node6 -->
<g id="edge11" class="edge">
<title>Node7&#45;&gt;Node6</title>
<path fill="none" stroke="#191970" d="M382.5674,-121.0614C443.5029,-118.5033 574.662,-109.1821 602.3156,-76 624.9925,-48.7895 573.6414,-28.7292 536.1666,-18.2456"/>
<polygon fill="#191970" stroke="#191970" points="536.602,-14.7395 526.0378,-15.5447 534.7983,-21.5032 536.602,-14.7395"/>
</g>
<!-- Node7&#45;&gt;Node8 -->
<g id="edge12" class="edge">
<title>Node7&#45;&gt;Node8</title>
<path fill="none" stroke="#191970" d="M382.5316,-117.0153C434.9726,-108.6292 544.0754,-91.1305 636.3156,-76 637.5759,-75.7933 638.851,-75.5838 640.1368,-75.3722"/>
<polygon fill="#191970" stroke="#191970" points="640.8356,-78.8043 650.1318,-73.7218 639.6951,-71.8978 640.8356,-78.8043"/>
</g>
<!-- Node9 -->
<g id="node10" class="node">
<title>Node9</title>
<g id="a_node10"><a xlink:href="a00077.xhtml" target="_top" xlink:title="Fichier BMP. ">
<polygon fill="#ffffff" stroke="#000000" points="209.8156,-56.5 209.8156,-75.5 292.8156,-75.5 292.8156,-56.5 209.8156,-56.5"/>
<text text-anchor="middle" x="251.3156" y="-63.5" font-family="Helvetica,sans-Serif" font-size="10.00" fill="#000000">file_type/bmp.h</text>
</a>
</g>
</g>
<!-- Node7&#45;&gt;Node9 -->
<g id="edge13" class="edge">
<title>Node7&#45;&gt;Node9</title>
<path fill="none" stroke="#191970" d="M328.883,-112.3733C311.7906,-103.7466 288.6756,-90.954 272.0261,-80.9889"/>
<polygon fill="#191970" stroke="#191970" points="273.4205,-77.7387 263.0646,-75.5011 269.7648,-83.7083 273.4205,-77.7387"/>
</g>
<!-- Node10 -->
<g id="node11" class="node">
<title>Node10</title>
<g id="a_node11"><a xlink:href="a00095.xhtml" target="_top" xlink:title="Fichier PNG. ">
<polygon fill="#ffffff" stroke="#000000" points="311.3156,-56.5 311.3156,-75.5 391.3156,-75.5 391.3156,-56.5 311.3156,-56.5"/>
<text text-anchor="middle" x="351.3156" y="-63.5" font-family="Helvetica,sans-Serif" font-size="10.00" fill="#000000">file_type/png.h</text>
</a>
</g>
</g>
<!-- Node7&#45;&gt;Node10 -->
<g id="edge17" class="edge">
<title>Node7&#45;&gt;Node10</title>
<path fill="none" stroke="#191970" d="M346.0488,-112.2455C344.6377,-104.9382 344.2335,-94.6944 344.8361,-85.7046"/>
<polygon fill="#191970" stroke="#191970" points="348.3267,-85.9945 346.0705,-75.6427 341.3788,-85.1421 348.3267,-85.9945"/>
</g>
<!-- Node11 -->
<g id="node12" class="node">
<title>Node11</title>
<g id="a_node12"><a xlink:href="a00104.xhtml" target="_top" xlink:title="Fichier WAVE. ">
<polygon fill="#ffffff" stroke="#000000" points="409.8156,-56.5 409.8156,-75.5 492.8156,-75.5 492.8156,-56.5 409.8156,-56.5"/>
<text text-anchor="middle" x="451.3156" y="-63.5" font-family="Helvetica,sans-Serif" font-size="10.00" fill="#000000">file_type/wav.h</text>
</a>
</g>
</g>
<!-- Node7&#45;&gt;Node11 -->
<g id="edge21" class="edge">
<title>Node7&#45;&gt;Node11</title>
<path fill="none" stroke="#191970" d="M363.4674,-112.2455C377.535,-103.4125 400.7359,-90.2887 419.8528,-80.2758"/>
<polygon fill="#191970" stroke="#191970" points="421.5628,-83.3321 428.8514,-75.6427 418.3585,-77.1085 421.5628,-83.3321"/>
</g>
<!-- Node12 -->
<g id="node13" class="node">
<title>Node12</title>
<g id="a_node13"><a xlink:href="a00089.xhtml" target="_top" xlink:title="Fichier MP3. ">
<polygon fill="#ffffff" stroke="#000000" points="510.8156,-56.5 510.8156,-75.5 593.8156,-75.5 593.8156,-56.5 510.8156,-56.5"/>
<text text-anchor="middle" x="552.3156" y="-63.5" font-family="Helvetica,sans-Serif" font-size="10.00" fill="#000000">file_type/mp3.h</text>
</a>
</g>
</g>
<!-- Node7&#45;&gt;Node12 -->
<g id="edge25" class="edge">
<title>Node7&#45;&gt;Node12</title>
<path fill="none" stroke="#191970" d="M380.6267,-112.3733C412.7755,-102.9001 464.6637,-88.4032 503.0519,-78.1435"/>
<polygon fill="#191970" stroke="#191970" points="504.2303,-81.4519 512.9961,-75.5011 502.4326,-74.6867 504.2303,-81.4519"/>
</g>
<!-- Node13 -->
<g id="node14" class="node">
<title>Node13</title>
<g id="a_node14"><a xlink:href="a00071.xhtml" target="_top" xlink:title="Fichier AVI. ">
<polygon fill="#ffffff" stroke="#000000" points="21.8156,-56.5 21.8156,-75.5 98.8156,-75.5 98.8156,-56.5 21.8156,-56.5"/>
<text text-anchor="middle" x="60.3156" y="-63.5" font-family="Helvetica,sans-Serif" font-size="10.00" fill="#000000">file_type/avi.h</text>
</a>
</g>
</g>
<!-- Node7&#45;&gt;Node13 -->
<g id="edge29" class="edge">
<title>Node7&#45;&gt;Node13</title>
<path fill="none" stroke="#191970" d="M320.1975,-117.3616C274.0908,-109.6082 185.4355,-93.3473 105.981,-77.5275"/>
<polygon fill="#191970" stroke="#191970" points="106.3328,-74.0287 95.8407,-75.5008 104.9608,-80.893 106.3328,-74.0287"/>
</g>
<!-- Node14 -->
<g id="node15" class="node">
<title>Node14</title>
<g id="a_node15"><a xlink:href="a00083.xhtml" target="_top" xlink:title="Fichier FLV. ">
<polygon fill="#ffffff" stroke="#000000" points="116.8156,-56.5 116.8156,-75.5 191.8156,-75.5 191.8156,-56.5 116.8156,-56.5"/>
<text text-anchor="middle" x="154.3156" y="-63.5" font-family="Helvetica,sans-Serif" font-size="10.00" fill="#000000">file_type/flv.h</text>
</a>
</g>
</g>
<!-- Node7&#45;&gt;Node14 -->
<g id="edge32" class="edge">
<title>Node7&#45;&gt;Node14</title>
<path fill="none" stroke="#191970" d="M319.9588,-114.4476C285.3609,-105.2512 229.9292,-89.5841 192.7642,-78.5611"/>
<polygon fill="#191970" stroke="#191970" points="193.3821,-75.0929 182.7987,-75.5845 191.3787,-81.8001 193.3821,-75.0929"/>
</g>
<!-- Node9&#45;&gt;Node1 -->
<g id="edge14" class="edge">
<title>Node9&#45;&gt;Node1</title>
<path fill="none" stroke="#191970" d="M260.0249,-56.2455C267.1229,-48.2958 277.324,-36.8706 285.8106,-27.3656"/>
<polygon fill="#191970" stroke="#191970" points="288.6567,-29.4331 292.7061,-19.6427 283.4351,-24.771 288.6567,-29.4331"/>
</g>
<!-- Node9&#45;&gt;Node6 -->
<g id="edge15" class="edge">
<title>Node9&#45;&gt;Node6</title>
<path fill="none" stroke="#191970" d="M292.8787,-56.6899C341.5692,-45.7832 421.3442,-27.9136 466.7802,-17.7359"/>
<polygon fill="#191970" stroke="#191970" points="467.7488,-21.1058 476.7419,-15.5045 466.2187,-14.275 467.7488,-21.1058"/>
</g>
<!-- Node9&#45;&gt;Node7 -->
<g id="edge16" class="edge">
<title>Node9&#45;&gt;Node7</title>
<path fill="none" stroke="#191970" d="M273.7798,-75.6427C290.7309,-84.1994 313.5927,-96.8456 330.2002,-106.769"/>
<polygon fill="#191970" stroke="#191970" points="328.8056,-110.0185 339.1638,-112.2455 332.4553,-104.0451 328.8056,-110.0185"/>
</g>
<!-- Node10&#45;&gt;Node1 -->
<g id="edge18" class="edge">
<title>Node10&#45;&gt;Node1</title>
<path fill="none" stroke="#191970" d="M342.6063,-56.2455C335.5083,-48.2958 325.3072,-36.8706 316.8206,-27.3656"/>
<polygon fill="#191970" stroke="#191970" points="319.1961,-24.771 309.9251,-19.6427 313.9745,-29.4331 319.1961,-24.771"/>
</g>
<!-- Node10&#45;&gt;Node6 -->
<g id="edge19" class="edge">
<title>Node10&#45;&gt;Node6</title>
<path fill="none" stroke="#191970" d="M377.1015,-56.3733C401.8695,-47.1265 439.458,-33.0935 466.7983,-22.8865"/>
<polygon fill="#191970" stroke="#191970" points="468.2203,-26.0916 476.3646,-19.315 465.772,-19.5337 468.2203,-26.0916"/>
</g>
<!-- Node10&#45;&gt;Node7 -->
<g id="edge20" class="edge">
<title>Node10&#45;&gt;Node7</title>
<path fill="none" stroke="#191970" d="M356.5607,-75.6427C357.9821,-82.9199 358.3966,-93.155 357.8043,-102.1575"/>
<polygon fill="#191970" stroke="#191970" points="354.3103,-101.8972 356.5824,-112.2455 361.2595,-102.739 354.3103,-101.8972"/>
</g>
<!-- Node11&#45;&gt;Node1 -->
<g id="edge22" class="edge">
<title>Node11&#45;&gt;Node1</title>
<path fill="none" stroke="#191970" d="M425.5297,-56.3733C400.3141,-46.9594 361.8104,-32.5847 334.3608,-22.3369"/>
<polygon fill="#191970" stroke="#191970" points="335.3856,-18.9836 324.793,-18.7649 332.9373,-25.5415 335.3856,-18.9836"/>
</g>
<!-- Node11&#45;&gt;Node6 -->
<g id="edge23" class="edge">
<title>Node11&#45;&gt;Node6</title>
<path fill="none" stroke="#191970" d="M460.0249,-56.2455C467.1229,-48.2958 477.324,-36.8706 485.8106,-27.3656"/>
<polygon fill="#191970" stroke="#191970" points="488.6567,-29.4331 492.7061,-19.6427 483.4351,-24.771 488.6567,-29.4331"/>
</g>
<!-- Node11&#45;&gt;Node7 -->
<g id="edge24" class="edge">
<title>Node11&#45;&gt;Node7</title>
<path fill="none" stroke="#191970" d="M439.5666,-75.5011C425.5538,-84.3278 402.1176,-97.5932 382.8262,-107.6992"/>
<polygon fill="#191970" stroke="#191970" points="381.0368,-104.6838 373.7482,-112.3733 384.2412,-110.9073 381.0368,-104.6838"/>
</g>
<!-- Node12&#45;&gt;Node1 -->
<g id="edge26" class="edge">
<title>Node12&#45;&gt;Node1</title>
<path fill="none" stroke="#191970" d="M510.5863,-56.6899C461.1836,-45.6678 379.9083,-27.5346 334.5526,-17.4154"/>
<polygon fill="#191970" stroke="#191970" points="335.1618,-13.9654 324.6396,-15.2038 333.6374,-20.7974 335.1618,-13.9654"/>
</g>
<!-- Node12&#45;&gt;Node6 -->
<g id="edge27" class="edge">
<title>Node12&#45;&gt;Node6</title>
<path fill="none" stroke="#191970" d="M543.4321,-56.2455C536.119,-48.2155 525.5765,-36.6394 516.8689,-27.0781"/>
<polygon fill="#191970" stroke="#191970" points="519.4184,-24.6795 510.0973,-19.6427 514.2429,-29.3928 519.4184,-24.6795"/>
</g>
<!-- Node12&#45;&gt;Node7 -->
<g id="edge28" class="edge">
<title>Node12&#45;&gt;Node7</title>
<path fill="none" stroke="#191970" d="M523.1867,-75.573C488.6795,-85.7444 431.2515,-101.7508 392.2956,-112.06"/>
<polygon fill="#191970" stroke="#191970" points="391.1069,-108.7534 382.3241,-114.679 392.8852,-115.5237 391.1069,-108.7534"/>
</g>
<!-- Node13&#45;&gt;Node1 -->
<g id="edge30" class="edge">
<title>Node13&#45;&gt;Node1</title>
<path fill="none" stroke="#191970" d="M99.0364,-57.0026C145.8454,-46.1259 223.8274,-28.0056 268.0452,-17.7309"/>
<polygon fill="#191970" stroke="#191970" points="269.0471,-21.0914 277.9954,-15.4188 267.4627,-14.2731 269.0471,-21.0914"/>
</g>
<!-- Node13&#45;&gt;Node7 -->
<g id="edge31" class="edge">
<title>Node13&#45;&gt;Node7</title>
<path fill="none" stroke="#191970" d="M98.9613,-72.4528C104.8303,-73.6556 110.7536,-74.8842 116.3156,-76 184.2932,-89.6375 263.1659,-104.296 310.1798,-113.3097"/>
<polygon fill="#191970" stroke="#191970" points="309.8002,-116.8008 320.2817,-115.2551 311.124,-109.9271 309.8002,-116.8008"/>
</g>
<!-- Node14&#45;&gt;Node1 -->
<g id="edge33" class="edge">
<title>Node14&#45;&gt;Node1</title>
<path fill="none" stroke="#191970" d="M179.5858,-56.3733C204.2971,-46.9594 242.0307,-32.5847 268.9313,-22.3369"/>
<polygon fill="#191970" stroke="#191970" points="270.2088,-25.5956 278.3077,-18.7649 267.7168,-19.0542 270.2088,-25.5956"/>
</g>
<!-- Node14&#45;&gt;Node6 -->
<g id="edge34" class="edge">
<title>Node14&#45;&gt;Node6</title>
<path fill="none" stroke="#191970" d="M191.9326,-57.6222C194.7652,-57.0527 197.5832,-56.5053 200.3156,-56 296.2763,-38.2548 410.3589,-22.1823 466.5292,-14.5975"/>
<polygon fill="#191970" stroke="#191970" points="467.2025,-18.0385 476.6476,-13.2385 466.2707,-11.1008 467.2025,-18.0385"/>
</g>
<!-- Node14&#45;&gt;Node7 -->
<g id="edge35" class="edge">
<title>Node14&#45;&gt;Node7</title>
<path fill="none" stroke="#191970" d="M191.9203,-75.2225C226.652,-84.5545 277.8315,-99.048 312.8316,-109.4284"/>
<polygon fill="#191970" stroke="#191970" points="312.1087,-112.8652 322.6921,-112.3733 314.1119,-106.1579 312.1087,-112.8652"/>
</g>
<!-- Node16&#45;&gt;Node1 -->
<g id="edge39" class="edge">
<title>Node16&#45;&gt;Node1</title>
<path fill="none" stroke="#191970" d="M760.1156,-58.2213C757.1813,-57.3756 754.1935,-56.6042 751.3156,-56 671.4608,-39.2336 424.7399,-19.3771 334.6698,-12.4947"/>
<polygon fill="#191970" stroke="#191970" points="334.7204,-8.9885 324.484,-11.7207 334.19,-15.9684 334.7204,-8.9885"/>
</g>
<!-- Node16&#45;&gt;Node2 -->
<g id="edge40" class="edge">
<title>Node16&#45;&gt;Node2</title>
<path fill="none" stroke="#191970" d="M793.9861,-56.2455C803.8817,-47.9746 818.2783,-35.9416 829.9057,-26.2232"/>
<polygon fill="#191970" stroke="#191970" points="832.3506,-28.7413 837.7788,-19.6427 827.8614,-23.3703 832.3506,-28.7413"/>
</g>
<!-- Node16&#45;&gt;Node6 -->
<g id="edge41" class="edge">
<title>Node16&#45;&gt;Node6</title>
<path fill="none" stroke="#191970" d="M760.0651,-58.4399C757.139,-57.5585 754.167,-56.719 751.3156,-56 675.3695,-36.85 584.5695,-22.1435 536.0129,-14.9234"/>
<polygon fill="#191970" stroke="#191970" points="536.4319,-11.4475 526.0292,-13.4562 535.414,-18.3731 536.4319,-11.4475"/>
</g>
</g>
</svg>
        <g id="navigator" transform="translate(0 0)" fill="#404254">
                <rect fill="#f2f5e9" fill-opacity="0.5" stroke="#606060" stroke-width=".5" x="0" y="0" width="60" height="60"/>
                <use id="zoomplus" xlink:href="#zoomPlus" x="17" y="9" onmousedown="handleZoom(evt,'in')"/>
                <use id="zoomminus" xlink:href="#zoomMin" x="42" y="9" onmousedown="handleZoom(evt,'out')"/>
                <use id="reset" xlink:href="#resetDef" x="30" y="36" onmousedown="handleReset()"/>
                <g id="arrowUp" xlink:href="#dirArrow" transform="translate(30 24)" onmousedown="handlePan(0,-1)">
                  <use xlink:href="#rim" fill="#404040">
                        <set attributeName="fill" to="#808080" begin="arrowUp.mouseover" end="arrowUp.mouseout"/>
                  </use>
                  <path fill="none" stroke="white" stroke-width="1.5" d="M0,-3.0v7 M-2.5,-0.5L0,-3.0L2.5,-0.5"/>
                </g>
                <g id="arrowRight" xlink:href="#dirArrow" transform="rotate(90) translate(36 -43)" onmousedown="handlePan(1,0)">
                  <use xlink:href="#rim" fill="#404040">
                        <set attributeName="fill" to="#808080" begin="arrowRight.mouseover" end="arrowRight.mouseout"/>
                  </use>
                  <path fill="none" stroke="white" stroke-width="1.5" d="M0,-3.0v7 M-2.5,-0.5L0,-3.0L2.5,-0.5"/>
                </g>
                <g id="arrowDown" xlink:href="#dirArrow" transform="rotate(180) translate(-30 -48)" onmousedown="handlePan(0,1)">
                  <use xlink:href="#rim" fill="#404040">
                        <set attributeName="fill" to="#808080" begin="arrowDown.mouseover" end="arrowDown.mouseout"/>
                  </use>
                  <path fill="none" stroke="white" stroke-width="1.5" d="M0,-3.0v7 M-2.5,-0.5L0,-3.0L2.5,-0.5"/>
                </g>
                <g id="arrowLeft" xlink:href="#dirArrow" transform="rotate(270) translate(-36 17)" onmousedown="handlePan(-1,0)">
                  <use xlink:href="#rim" fill="#404040">
                        <set attributeName="fill" to="#808080" begin="arrowLeft.mouseover" end="arrowLeft.mouseout"/>
                  </use>
                  <path fill="none" stroke="white" stroke-width="1.5" d="M0,-3.0v7 M-2.5,-0.5L0,-3.0L2.5,-0.5"/>
                </g>
        </g>
        <svg viewBox="0 0 15 15" width="100%" height="30px" preserveAspectRatio="xMaxYMin meet">
         <g id="arrow_out" transform="scale(0.3 0.3)">
          <a xlink:href="a00129_org.svg" target="_base">
           <rect id="button" ry="5" rx="5" y="6" x="6" height="38" width="38"
                fill="#f2f5e9" fill-opacity="0.5" stroke="#606060" stroke-width="1.0"/>
           <path id="arrow"
             d="M 11.500037,31.436501 C 11.940474,20.09759 22.043105,11.32322 32.158766,21.979434 L 37.068811,17.246167 C 37.068811,17.246167 37.088388,32 37.088388,32 L 22.160133,31.978069 C 22.160133,31.978069 26.997745,27.140456 26.997745,27.140456 C 18.528582,18.264221 13.291696,25.230495 11.500037,31.436501 z"
             style="fill:#404040;"/>
          </a>
         </g>
        </svg>
</svg>
