<?xml version="1.0" encoding="UTF-8" standalone="no"?>
<!DOCTYPE svg PUBLIC "-//W3C//DTD SVG 1.1//EN"
 "http://www.w3.org/Graphics/SVG/1.1/DTD/svg11.dtd">
<!-- Generated by graphviz version 2.40.1 (20161225.0304)
 -->
<!-- Title: stegx_rand Pages: 1 -->
<!--zoomable 457 -->
<svg id="main" version="1.1" xmlns="http://www.w3.org/2000/svg" xmlns:xlink="http://www.w3.org/1999/xlink" xml:space="preserve" onload="init(evt)">
<style type="text/css"><![CDATA[
.edge:hover path { stroke: red; }
.edge:hover polygon { stroke: red; fill: red; }
]]></style>
<script type="text/javascript"><![CDATA[
var edges = document.getElementsByTagName('g');
if (edges && edges.length) {
  for (var i=0;i<edges.length;i++) {
    if (edges[i].id.substr(0,4)=='edge') {
      edges[i].setAttribute('class','edge');
    }
  }
}
]]></script>
        <defs>
                <circle id="rim" cx="0" cy="0" r="7"/>
                <circle id="rim2" cx="0" cy="0" r="3.5"/>
                <g id="zoomPlus">
                        <use xlink:href="#rim" fill="#404040">
                                <set attributeName="fill" to="#808080" begin="zoomplus.mouseover" end="zoomplus.mouseout"/>
                        </use>
                        <path d="M-4,0h8M0,-4v8" fill="none" stroke="white" stroke-width="1.5" pointer-events="none"/>
                </g>
                <g id="zoomMin">
                        <use xlink:href="#rim" fill="#404040">
                                <set attributeName="fill" to="#808080" begin="zoomminus.mouseover" end="zoomminus.mouseout"/>
                        </use>
                        <path d="M-4,0h8" fill="none" stroke="white" stroke-width="1.5" pointer-events="none"/>
                </g>
                <g id="dirArrow">
                        <path fill="none" stroke="white" stroke-width="1.5" d="M0,-3.0v7 M-2.5,-0.5L0,-3.0L2.5,-0.5"/>
                </g>
               <g id="resetDef">
                       <use xlink:href="#rim2" fill="#404040">
                               <set attributeName="fill" to="#808080" begin="reset.mouseover" end="reset.mouseout"/>
                       </use>
               </g>
        </defs>

<script type="text/javascript">
var viewWidth = 611;
var viewHeight = 457;
var sectionId = 'dynsection-2';
</script>
<script xlink:href="svgpan.js"/>
<svg id="graph" class="graph">
<g id="viewport">
<title>stegx_rand</title>
<polygon fill="#ffffff" stroke="transparent" points="-4,4 -4,-452.8635 607,-452.8635 607,4 -4,4"/>
<!-- Node23 -->
<g id="node1" class="node">
<title>Node23</title>
<polygon fill="#bfbfbf" stroke="#000000" points="0,-228.5 0,-247.5 65,-247.5 65,-228.5 0,-228.5"/>
<text text-anchor="middle" x="32.5" y="-235.5" font-family="Helvetica,sans-Serif" font-size="10.00" fill="#000000">stegx_rand</text>
</g>
<!-- Node24 -->
<g id="node2" class="node">
<title>Node24</title>
<g id="a_node2"><a xlink:href="a00017.xhtml#a049b8f5bf7a416fe54b10c6de98487a1" target="_top" xlink:title="Va inserer les donnees cachees en utilisant l&#39;algorithme EOC. ">
<polygon fill="#ffffff" stroke="#000000" points="265,-380.5 265,-399.5 327,-399.5 327,-380.5 265,-380.5"/>
<text text-anchor="middle" x="296" y="-387.5" font-family="Helvetica,sans-Serif" font-size="10.00" fill="#000000">insert_eoc</text>
</a>
</g>
</g>
<!-- Node23&#45;&gt;Node24 -->
<g id="edge1" class="edge">
<title>Node23&#45;&gt;Node24</title>
<path fill="none" stroke="#191970" d="M33.6143,-257.6685C36.9017,-294.757 49.8721,-374.4035 101,-409 126.9878,-426.5851 216.8022,-408.9541 264.9447,-397.7337"/>
<polygon fill="#191970" stroke="#191970" points="37.0995,-257.3371 32.8735,-247.6216 30.1185,-257.852 37.0995,-257.3371"/>
</g>
<!-- Node26 -->
<g id="node4" class="node">
<title>Node26</title>
<g id="a_node4"><a xlink:href="a00017.xhtml#ad0cda2ae23fda82b16083952ca1b698a" target="_top" xlink:title="Va extraire les donnees cachees en utilisant l&#39;algorithme EOC. ">
<polygon fill="#ffffff" stroke="#000000" points="262,-152.5 262,-171.5 330,-171.5 330,-152.5 262,-152.5"/>
<text text-anchor="middle" x="296" y="-159.5" font-family="Helvetica,sans-Serif" font-size="10.00" fill="#000000">extract_eoc</text>
</a>
</g>
</g>
<!-- Node23&#45;&gt;Node26 -->
<g id="edge3" class="edge">
<title>Node23&#45;&gt;Node26</title>
<path fill="none" stroke="#191970" d="M43.8985,-219.7464C55.7814,-202.5833 76.1312,-177.9414 101,-167 153.3863,-143.9519 221.5886,-149.1555 261.8945,-155.3542"/>
<polygon fill="#191970" stroke="#191970" points="40.7877,-218.1054 38.193,-228.3776 46.6272,-221.9655 40.7877,-218.1054"/>
</g>
<!-- Node28 -->
<g id="node6" class="node">
<title>Node28</title>
<g id="a_node6"><a xlink:href="a00035.xhtml#a72239fe09f5e932458901b822ccdf945" target="_top" xlink:title="Cache les octets de data dans pixels selon l&#39;algorithme de protection des données en LSB...">
<polygon fill="#ffffff" stroke="#000000" points="107,-380.5 107,-399.5 196,-399.5 196,-380.5 107,-380.5"/>
<text text-anchor="middle" x="151.5" y="-387.5" font-family="Helvetica,sans-Serif" font-size="10.00" fill="#000000">protect_data_lsb</text>
</a>
</g>
</g>
<!-- Node23&#45;&gt;Node28 -->
<g id="edge5" class="edge">
<title>Node23&#45;&gt;Node28</title>
<path fill="none" stroke="#191970" d="M38.4679,-257.2281C47.8184,-284.5742 68.3078,-334.832 101,-366 107.3232,-372.0284 115.442,-376.7844 123.3124,-380.4175"/>
<polygon fill="#191970" stroke="#191970" points="41.7689,-256.0617 35.3307,-247.6475 35.1165,-258.2402 41.7689,-256.0617"/>
</g>
<!-- Node29 -->
<g id="node7" class="node">
<title>Node29</title>
<g id="a_node7"><a xlink:href="a00035.xhtml#a14e9d876697b0225ded31095c1076b64" target="_top" xlink:title="Va inserer les donnees cachees en utilisant l&#39;algorithme LSB. ">
<polygon fill="#ffffff" stroke="#000000" points="266.5,-418.5 266.5,-437.5 325.5,-437.5 325.5,-418.5 266.5,-418.5"/>
<text text-anchor="middle" x="296" y="-425.5" font-family="Helvetica,sans-Serif" font-size="10.00" fill="#000000">insert_lsb</text>
</a>
</g>
</g>
<!-- Node23&#45;&gt;Node29 -->
<g id="edge10" class="edge">
<title>Node23&#45;&gt;Node29</title>
<path fill="none" stroke="#191970" d="M36.6852,-257.5324C46.5345,-301.471 72.5061,-405.8372 101,-426 150.1932,-460.81 225.2517,-448.1792 266.4236,-437.2508"/>
<polygon fill="#191970" stroke="#191970" points="40.1007,-256.7677 34.5368,-247.7515 33.2637,-258.2696 40.1007,-256.7677"/>
</g>
<!-- Node30 -->
<g id="node8" class="node">
<title>Node30</title>
<g id="a_node8"><a xlink:href="a00035.xhtml#abc757e2627fc9971e388a584e0e0c2ca" target="_top" xlink:title="Va extraire les donnees cachees en utilisant l&#39;algorithme LSB. ">
<polygon fill="#ffffff" stroke="#000000" points="263.5,-342.5 263.5,-361.5 328.5,-361.5 328.5,-342.5 263.5,-342.5"/>
<text text-anchor="middle" x="296" y="-349.5" font-family="Helvetica,sans-Serif" font-size="10.00" fill="#000000">extract_lsb</text>
</a>
</g>
</g>
<!-- Node23&#45;&gt;Node30 -->
<g id="edge11" class="edge">
<title>Node23&#45;&gt;Node30</title>
<path fill="none" stroke="#191970" d="M47.5157,-255.1946C60.409,-268.9393 80.1658,-287.7137 101,-299 153.7482,-327.5749 223.0336,-341.6232 263.2283,-347.8019"/>
<polygon fill="#191970" stroke="#191970" points="50.0822,-252.8146 40.7612,-247.7777 44.9067,-257.5278 50.0822,-252.8146"/>
</g>
<!-- Node31 -->
<g id="node9" class="node">
<title>Node31</title>
<g id="a_node9"><a xlink:href="a00077.xhtml#a9b0bec96351bc1e6be9134900590d215" target="_top" xlink:title="Va inserer les donnees cachees en utilisant l&#39;algorithme Metadata dans le format BMP. ">
<polygon fill="#ffffff" stroke="#000000" points="241,-304.5 241,-323.5 351,-323.5 351,-304.5 241,-304.5"/>
<text text-anchor="middle" x="296" y="-311.5" font-family="Helvetica,sans-Serif" font-size="10.00" fill="#000000">insert_metadata_bmp</text>
</a>
</g>
</g>
<!-- Node23&#45;&gt;Node31 -->
<g id="edge12" class="edge">
<title>Node23&#45;&gt;Node31</title>
<path fill="none" stroke="#191970" d="M57.8837,-252.4902C70.5193,-259.2084 86.2196,-266.8309 101,-272 146.9281,-288.0624 201.1794,-299.1447 240.7837,-305.8752"/>
<polygon fill="#191970" stroke="#191970" points="59.34,-249.2978 48.8846,-247.5845 55.9896,-255.4439 59.34,-249.2978"/>
</g>
<!-- Node33 -->
<g id="node11" class="node">
<title>Node33</title>
<g id="a_node11"><a xlink:href="a00077.xhtml#a14e9a0ddec04cc168cbfe21cd839166e" target="_top" xlink:title="Va extraire les donnees cachees en utilisant l&#39;algorithme Metadata dans le formar BMP...">
<polygon fill="#ffffff" stroke="#000000" points="238,-190.5 238,-209.5 354,-209.5 354,-190.5 238,-190.5"/>
<text text-anchor="middle" x="296" y="-197.5" font-family="Helvetica,sans-Serif" font-size="10.00" fill="#000000">extract_metadata_bmp</text>
</a>
</g>
</g>
<!-- Node23&#45;&gt;Node33 -->
<g id="edge15" class="edge">
<title>Node23&#45;&gt;Node33</title>
<path fill="none" stroke="#191970" d="M47.0197,-220.5767C59.657,-206.878 79.313,-188.843 101,-181 158.5766,-160.1778 231.5912,-178.0301 269.869,-190.4651"/>
<polygon fill="#191970" stroke="#191970" points="44.0946,-218.6018 40.1028,-228.4159 49.3435,-223.2332 44.0946,-218.6018"/>
</g>
<!-- Node35 -->
<g id="node13" class="node">
<title>Node35</title>
<g id="a_node13"><a xlink:href="a00095.xhtml#a2386f518ec5df78485cca31c6fe4f858" target="_top" xlink:title="Va inserer les donnees cachees en utilisant l&#39;algorithme Metadata dans le format PNG. ">
<polygon fill="#ffffff" stroke="#000000" points="242.5,-266.5 242.5,-285.5 349.5,-285.5 349.5,-266.5 242.5,-266.5"/>
<text text-anchor="middle" x="296" y="-273.5" font-family="Helvetica,sans-Serif" font-size="10.00" fill="#000000">insert_metadata_png</text>
</a>
</g>
</g>
<!-- Node23&#45;&gt;Node35 -->
<g id="edge18" class="edge">
<title>Node23&#45;&gt;Node35</title>
<path fill="none" stroke="#191970" d="M74.9962,-247.2295C83.5818,-248.9405 92.5621,-250.6207 101,-252 148.6329,-259.7863 203.1846,-266.2975 242.454,-270.5643"/>
<polygon fill="#191970" stroke="#191970" points="75.6526,-243.7914 65.155,-245.2229 74.2541,-250.6503 75.6526,-243.7914"/>
</g>
<!-- Node36 -->
<g id="node14" class="node">
<title>Node36</title>
<g id="a_node14"><a xlink:href="a00095.xhtml#a258c2aefc0d29e112eca90e652730a84" target="_top" xlink:title="Va extraire les donnees cachees en utilisant l&#39;algorithme Metadata dans le formar PNG...">
<polygon fill="#ffffff" stroke="#000000" points="239.5,-228.5 239.5,-247.5 352.5,-247.5 352.5,-228.5 239.5,-228.5"/>
<text text-anchor="middle" x="296" y="-235.5" font-family="Helvetica,sans-Serif" font-size="10.00" fill="#000000">extract_metadata_png</text>
</a>
</g>
</g>
<!-- Node23&#45;&gt;Node36 -->
<g id="edge20" class="edge">
<title>Node23&#45;&gt;Node36</title>
<path fill="none" stroke="#191970" d="M75.2877,-238C119.8997,-238 190.0515,-238 239.2631,-238"/>
<polygon fill="#191970" stroke="#191970" points="75.0746,-234.5001 65.0746,-238 75.0745,-241.5001 75.0746,-234.5001"/>
</g>
<!-- Node37 -->
<g id="node15" class="node">
<title>Node37</title>
<g id="a_node15"><a xlink:href="a00119.xhtml#a3fd0a8f9ba189acd34f864c97f059b0f" target="_top" xlink:title="Fait le mélange ou réarrange les octets selon l&#39;algorithme de protection des données. ">
<polygon fill="#ffffff" stroke="#000000" points="116,-190.5 116,-209.5 187,-209.5 187,-190.5 116,-190.5"/>
<text text-anchor="middle" x="151.5" y="-197.5" font-family="Helvetica,sans-Serif" font-size="10.00" fill="#000000">protect_data</text>
</a>
</g>
</g>
<!-- Node23&#45;&gt;Node37 -->
<g id="edge22" class="edge">
<title>Node23&#45;&gt;Node37</title>
<path fill="none" stroke="#191970" d="M72.2098,-225.3196C88.2886,-220.1852 106.5433,-214.3559 121.4809,-209.5859"/>
<polygon fill="#191970" stroke="#191970" points="70.9901,-222.0348 62.5287,-228.411 73.1195,-228.7031 70.9901,-222.0348"/>
</g>
<!-- Node42 -->
<g id="node20" class="node">
<title>Node42</title>
<g id="a_node20"><a xlink:href="a00119.xhtml#aed2bc32539848b035b9ad4fc2efd98e8" target="_top" xlink:title="Écrit des données XORées avec un mot de passe. ">
<polygon fill="#ffffff" stroke="#000000" points="247,-57.5 247,-76.5 345,-76.5 345,-57.5 247,-57.5"/>
<text text-anchor="middle" x="296" y="-64.5" font-family="Helvetica,sans-Serif" font-size="10.00" fill="#000000">data_xor_write_file</text>
</a>
</g>
</g>
<!-- Node23&#45;&gt;Node42 -->
<g id="edge36" class="edge">
<title>Node23&#45;&gt;Node42</title>
<path fill="none" stroke="#191970" d="M33.6143,-218.3315C36.9017,-181.243 49.8721,-101.5965 101,-67 150.6278,-33.4186 224.848,-46.274 265.9297,-57.4061"/>
<polygon fill="#191970" stroke="#191970" points="30.1185,-218.148 32.8735,-228.3784 37.0995,-218.6629 30.1185,-218.148"/>
</g>
<!-- Node43 -->
<g id="node21" class="node">
<title>Node43</title>
<g id="a_node21"><a xlink:href="a00119.xhtml#a7a07539cd0f2054ed61e4300f1e9a3d5" target="_top" xlink:title="Écrit des données XORées avec un mot de passe. ">
<polygon fill="#ffffff" stroke="#000000" points="102,-76.5 102,-95.5 201,-95.5 201,-76.5 102,-76.5"/>
<text text-anchor="middle" x="151.5" y="-83.5" font-family="Helvetica,sans-Serif" font-size="10.00" fill="#000000">data_xor_write_tab</text>
</a>
</g>
</g>
<!-- Node23&#45;&gt;Node43 -->
<g id="edge40" class="edge">
<title>Node23&#45;&gt;Node43</title>
<path fill="none" stroke="#191970" d="M38.4679,-218.7719C47.8184,-191.4258 68.3078,-141.168 101,-110 107.3232,-103.9716 115.442,-99.2156 123.3124,-95.5825"/>
<polygon fill="#191970" stroke="#191970" points="35.1165,-217.7598 35.3307,-228.3525 41.7689,-219.9383 35.1165,-217.7598"/>
</g>
<!-- Node44 -->
<g id="node22" class="node">
<title>Node44</title>
<g id="a_node22"><a xlink:href="a00128.xhtml#a58f7de82387e9b66f9bd7c40c32aeb8f" target="_top" xlink:title="Initialise l&#39;algorithme à utiliser pour la dissimulation. ">
<polygon fill="#ffffff" stroke="#000000" points="101,-.5 101,-19.5 202,-19.5 202,-.5 101,-.5"/>
<text text-anchor="middle" x="151.5" y="-7.5" font-family="Helvetica,sans-Serif" font-size="10.00" fill="#000000">stegx_choose_algo</text>
</a>
</g>
</g>
<!-- Node23&#45;&gt;Node44 -->
<g id="edge42" class="edge">
<title>Node23&#45;&gt;Node44</title>
<path fill="none" stroke="#191970" d="M34.0682,-218.1723C38.1895,-178.5145 52.6118,-88.5566 101,-34 106.475,-27.8271 113.8816,-23.1075 121.3335,-19.5567"/>
<polygon fill="#191970" stroke="#191970" points="30.5805,-217.8784 33.1425,-228.1587 37.5506,-218.5245 30.5805,-217.8784"/>
</g>
<!-- Node25 -->
<g id="node3" class="node">
<title>Node25</title>
<g id="a_node3"><a xlink:href="a00110.xhtml#a45a1d0709604d55e9d467cb39d6a5b54" target="_top" xlink:title="Va faire l&#39;insertion selon l&#39;algorithme, ainsi que les fichiers en entrée choisis par l&#39;utilisateur...">
<polygon fill="#ffffff" stroke="#000000" points="530,-342.5 530,-361.5 600,-361.5 600,-342.5 530,-342.5"/>
<text text-anchor="middle" x="565" y="-349.5" font-family="Helvetica,sans-Serif" font-size="10.00" fill="#000000">stegx_insert</text>
</a>
</g>
</g>
<!-- Node24&#45;&gt;Node25 -->
<g id="edge2" class="edge">
<title>Node24&#45;&gt;Node25</title>
<path fill="none" stroke="#191970" d="M337.2135,-385.7087C376.7547,-381.4071 438.0968,-374.2511 491,-366 503.6606,-364.0254 517.4722,-361.5109 529.6984,-359.1594"/>
<polygon fill="#191970" stroke="#191970" points="336.7244,-382.241 327.1569,-386.7922 337.4743,-389.2007 336.7244,-382.241"/>
</g>
<!-- Node27 -->
<g id="node5" class="node">
<title>Node27</title>
<g id="a_node5"><a xlink:href="a00065.xhtml#a43c63dd958bfa1f4ab2ecbd7faa14abb" target="_top" xlink:title="Va faire l&#39;extraction selon l&#39;algorithme détecté, ainsi que les fichiers en entrée choisis par l&#39;util...">
<polygon fill="#ffffff" stroke="#000000" points="527,-171.5 527,-190.5 603,-190.5 603,-171.5 527,-171.5"/>
<text text-anchor="middle" x="565" y="-178.5" font-family="Helvetica,sans-Serif" font-size="10.00" fill="#000000">stegx_extract</text>
</a>
</g>
</g>
<!-- Node26&#45;&gt;Node27 -->
<g id="edge4" class="edge">
<title>Node26&#45;&gt;Node27</title>
<path fill="none" stroke="#191970" d="M340.3212,-165.1305C392.3336,-168.8042 477.7059,-174.8342 526.8782,-178.3074"/>
<polygon fill="#191970" stroke="#191970" points="340.2908,-161.6197 330.069,-164.4064 339.7976,-168.6023 340.2908,-161.6197"/>
</g>
<!-- Node28&#45;&gt;Node29 -->
<g id="edge6" class="edge">
<title>Node28&#45;&gt;Node29</title>
<path fill="none" stroke="#191970" d="M197.6644,-402.1401C220.17,-408.0585 246.5761,-415.0027 266.355,-420.2041"/>
<polygon fill="#191970" stroke="#191970" points="198.5248,-398.7475 187.9635,-399.589 196.7445,-405.5173 198.5248,-398.7475"/>
</g>
<!-- Node28&#45;&gt;Node30 -->
<g id="edge8" class="edge">
<title>Node28&#45;&gt;Node30</title>
<path fill="none" stroke="#191970" d="M197.8315,-377.8159C219.2306,-372.1885 244.1267,-365.6414 263.4926,-360.5487"/>
<polygon fill="#191970" stroke="#191970" points="196.7445,-374.4827 187.9635,-380.411 198.5248,-381.2526 196.7445,-374.4827"/>
</g>
<!-- Node29&#45;&gt;Node25 -->
<g id="edge7" class="edge">
<title>Node29&#45;&gt;Node25</title>
<path fill="none" stroke="#191970" d="M335.7254,-422.0619C375.6151,-415.4934 438.5186,-403.4744 491,-386 510.8532,-379.3896 532.4841,-369.0587 547.2016,-361.5185"/>
<polygon fill="#191970" stroke="#191970" points="334.9226,-418.646 325.6067,-423.6922 336.0362,-425.5569 334.9226,-418.646"/>
</g>
<!-- Node30&#45;&gt;Node27 -->
<g id="edge9" class="edge">
<title>Node30&#45;&gt;Node27</title>
<path fill="none" stroke="#191970" d="M338.6205,-359.0681C381.0813,-363.7174 446.2328,-364.1177 491,-333 541.6096,-297.8212 558.9834,-218.0749 563.593,-190.5519"/>
<polygon fill="#191970" stroke="#191970" points="338.9546,-355.583 328.6044,-357.8467 338.1072,-362.5315 338.9546,-355.583"/>
</g>
<!-- Node32 -->
<g id="node10" class="node">
<title>Node32</title>
<g id="a_node10"><a xlink:href="a00041.xhtml#a77aaebb61a9a73cbe45380c64c3d8389" target="_top" xlink:title="Va inserer les donnees cachees en utilisant l&#39;algorithme Metadata. ">
<polygon fill="#ffffff" stroke="#000000" points="397.5,-304.5 397.5,-323.5 483.5,-323.5 483.5,-304.5 397.5,-304.5"/>
<text text-anchor="middle" x="440.5" y="-311.5" font-family="Helvetica,sans-Serif" font-size="10.00" fill="#000000">insert_metadata</text>
</a>
</g>
</g>
<!-- Node31&#45;&gt;Node32 -->
<g id="edge13" class="edge">
<title>Node31&#45;&gt;Node32</title>
<path fill="none" stroke="#191970" d="M361.2169,-314C373.4436,-314 385.9414,-314 397.2921,-314"/>
<polygon fill="#191970" stroke="#191970" points="361.0415,-310.5001 351.0415,-314 361.0414,-317.5001 361.0415,-310.5001"/>
</g>
<!-- Node32&#45;&gt;Node25 -->
<g id="edge14" class="edge">
<title>Node32&#45;&gt;Node25</title>
<path fill="none" stroke="#191970" d="M481.5696,-326.5353C498.5064,-331.7048 517.8181,-337.5991 533.5934,-342.4141"/>
<polygon fill="#191970" stroke="#191970" points="482.5028,-323.1608 471.9166,-323.589 480.4593,-329.8559 482.5028,-323.1608"/>
</g>
<!-- Node34 -->
<g id="node12" class="node">
<title>Node34</title>
<g id="a_node12"><a xlink:href="a00041.xhtml#a069239660c8070698c4ddcbbd6debe0b" target="_top" xlink:title="Va extraire les donnees cachees en utilisant l&#39;algorithme Metadata. ">
<polygon fill="#ffffff" stroke="#000000" points="394.5,-209.5 394.5,-228.5 486.5,-228.5 486.5,-209.5 394.5,-209.5"/>
<text text-anchor="middle" x="440.5" y="-216.5" font-family="Helvetica,sans-Serif" font-size="10.00" fill="#000000">extract_metadata</text>
</a>
</g>
</g>
<!-- Node33&#45;&gt;Node34 -->
<g id="edge16" class="edge">
<title>Node33&#45;&gt;Node34</title>
<path fill="none" stroke="#191970" d="M364.437,-208.9986C374.58,-210.3323 384.8235,-211.6792 394.3649,-212.9338"/>
<polygon fill="#191970" stroke="#191970" points="364.7281,-205.5069 354.3572,-207.6733 363.8155,-212.4471 364.7281,-205.5069"/>
</g>
<!-- Node34&#45;&gt;Node27 -->
<g id="edge17" class="edge">
<title>Node34&#45;&gt;Node27</title>
<path fill="none" stroke="#191970" d="M481.5696,-206.4647C498.5064,-201.2952 517.8181,-195.4009 533.5934,-190.5859"/>
<polygon fill="#191970" stroke="#191970" points="480.4593,-203.1441 471.9166,-209.411 482.5028,-209.8392 480.4593,-203.1441"/>
</g>
<!-- Node35&#45;&gt;Node32 -->
<g id="edge19" class="edge">
<title>Node35&#45;&gt;Node32</title>
<path fill="none" stroke="#191970" d="M342.3325,-288.1843C362.3939,-293.46 385.5285,-299.5438 404.2988,-304.4799"/>
<polygon fill="#191970" stroke="#191970" points="343.0248,-284.7474 332.4635,-285.589 341.2445,-291.5173 343.0248,-284.7474"/>
</g>
<!-- Node36&#45;&gt;Node34 -->
<g id="edge21" class="edge">
<title>Node36&#45;&gt;Node34</title>
<path fill="none" stroke="#191970" d="M362.8001,-229.2166C373.4214,-227.82 384.2006,-226.4027 394.2126,-225.0862"/>
<polygon fill="#191970" stroke="#191970" points="362.1538,-225.7714 352.6955,-230.5452 363.0665,-232.7116 362.1538,-225.7714"/>
</g>
<!-- Node37&#45;&gt;Node24 -->
<g id="edge23" class="edge">
<title>Node37&#45;&gt;Node24</title>
<path fill="none" stroke="#191970" d="M156.1625,-219.8046C165.5228,-255.2634 189.9431,-329.7333 238,-371 245.5565,-377.4888 255.3837,-381.7741 264.7951,-384.5992"/>
<polygon fill="#191970" stroke="#191970" points="159.4695,-218.6024 153.6418,-209.7544 152.6798,-220.3054 159.4695,-218.6024"/>
</g>
<!-- Node37&#45;&gt;Node26 -->
<g id="edge24" class="edge">
<title>Node37&#45;&gt;Node26</title>
<path fill="none" stroke="#191970" d="M197.1606,-187.9924C218.0517,-182.4985 242.3894,-176.0983 261.6868,-171.0235"/>
<polygon fill="#191970" stroke="#191970" points="196.0001,-184.6785 187.2191,-190.6067 197.7805,-191.4483 196.0001,-184.6785"/>
</g>
<!-- Node37&#45;&gt;Node31 -->
<g id="edge25" class="edge">
<title>Node37&#45;&gt;Node31</title>
<path fill="none" stroke="#191970" d="M163.4851,-218.0363C178.511,-239.3213 206.191,-274.4142 238,-295 243.8711,-298.7996 250.57,-301.9029 257.2797,-304.4164"/>
<polygon fill="#191970" stroke="#191970" points="166.2239,-215.842 157.6734,-209.5858 160.4562,-219.8087 166.2239,-215.842"/>
</g>
<!-- Node37&#45;&gt;Node33 -->
<g id="edge26" class="edge">
<title>Node37&#45;&gt;Node33</title>
<path fill="none" stroke="#191970" d="M197.2549,-200C210.1667,-200 224.3889,-200 237.9208,-200"/>
<polygon fill="#191970" stroke="#191970" points="197.2191,-196.5001 187.2191,-200 197.2191,-203.5001 197.2191,-196.5001"/>
</g>
<!-- Node37&#45;&gt;Node35 -->
<g id="edge27" class="edge">
<title>Node37&#45;&gt;Node35</title>
<path fill="none" stroke="#191970" d="M171.8372,-215.6545C188.8044,-228.1482 214.0001,-245.4183 238,-257 245.4435,-260.592 253.7355,-263.759 261.6679,-266.4265"/>
<polygon fill="#191970" stroke="#191970" points="173.8675,-212.8023 163.7644,-209.6119 169.6728,-218.4063 173.8675,-212.8023"/>
</g>
<!-- Node37&#45;&gt;Node36 -->
<g id="edge28" class="edge">
<title>Node37&#45;&gt;Node36</title>
<path fill="none" stroke="#191970" d="M197.1355,-212.001C217.3172,-217.3083 240.7197,-223.4626 259.6881,-228.4509"/>
<polygon fill="#191970" stroke="#191970" points="197.7805,-208.5517 187.2191,-209.3933 196.0001,-215.3215 197.7805,-208.5517"/>
</g>
<!-- Node38 -->
<g id="node16" class="node">
<title>Node38</title>
<g id="a_node16"><a xlink:href="a00119.xhtml#af1d405b272ef2dc101b959264bad47e1" target="_top" xlink:title="Écrit des données mélangé ou remise en ordre avec un mot de passe. ">
<polygon fill="#ffffff" stroke="#000000" points="242.5,-95.5 242.5,-114.5 349.5,-114.5 349.5,-95.5 242.5,-95.5"/>
<text text-anchor="middle" x="296" y="-102.5" font-family="Helvetica,sans-Serif" font-size="10.00" fill="#000000">data_scramble_write</text>
</a>
</g>
</g>
<!-- Node37&#45;&gt;Node38 -->
<g id="edge29" class="edge">
<title>Node37&#45;&gt;Node38</title>
<path fill="none" stroke="#191970" d="M174.5961,-184.7568C192.0135,-173.2673 216.4971,-157.1288 238,-143 252.6886,-133.3486 269.4879,-122.3461 281.2128,-114.6728"/>
<polygon fill="#191970" stroke="#191970" points="172.6047,-181.8775 166.1852,-190.3061 176.4597,-187.7204 172.6047,-181.8775"/>
</g>
<!-- Node39 -->
<g id="node17" class="node">
<title>Node39</title>
<g id="a_node17"><a xlink:href="a00023.xhtml#a1c15f35d77081a076fe7cb19c7eb13b1" target="_top" xlink:title="Va inserer les donnees cachees en utilisant l&#39;algorithme EOF. ">
<polygon fill="#ffffff" stroke="#000000" points="411,-133.5 411,-152.5 470,-152.5 470,-133.5 411,-133.5"/>
<text text-anchor="middle" x="440.5" y="-140.5" font-family="Helvetica,sans-Serif" font-size="10.00" fill="#000000">insert_eof</text>
</a>
</g>
</g>
<!-- Node38&#45;&gt;Node39 -->
<g id="edge30" class="edge">
<title>Node38&#45;&gt;Node39</title>
<path fill="none" stroke="#191970" d="M342.1644,-117.1401C364.67,-123.0585 391.0761,-130.0027 410.855,-135.2041"/>
<polygon fill="#191970" stroke="#191970" points="343.0248,-113.7475 332.4635,-114.589 341.2445,-120.5173 343.0248,-113.7475"/>
</g>
<!-- Node40 -->
<g id="node18" class="node">
<title>Node40</title>
<g id="a_node18"><a xlink:href="a00023.xhtml#a0204ccf62793e17621fea9abae71e9da" target="_top" xlink:title="Va extraire les donnees cachees en utilisant l&#39;algorithme EOF. ">
<polygon fill="#ffffff" stroke="#000000" points="408,-57.5 408,-76.5 473,-76.5 473,-57.5 408,-57.5"/>
<text text-anchor="middle" x="440.5" y="-64.5" font-family="Helvetica,sans-Serif" font-size="10.00" fill="#000000">extract_eof</text>
</a>
</g>
</g>
<!-- Node38&#45;&gt;Node40 -->
<g id="edge32" class="edge">
<title>Node38&#45;&gt;Node40</title>
<path fill="none" stroke="#191970" d="M342.3315,-92.8159C363.7306,-87.1885 388.6267,-80.6414 407.9926,-75.5487"/>
<polygon fill="#191970" stroke="#191970" points="341.2445,-89.4827 332.4635,-95.411 343.0248,-96.2526 341.2445,-89.4827"/>
</g>
<!-- Node41 -->
<g id="node19" class="node">
<title>Node41</title>
<g id="a_node19"><a xlink:href="a00029.xhtml#ad04f5216bd1375440a90d0c51a4ba590" target="_top" xlink:title="Va extraire les donnees cachees en utilisant l&#39;algorithme Junk Chunk. ">
<polygon fill="#ffffff" stroke="#000000" points="390,-95.5 390,-114.5 491,-114.5 491,-95.5 390,-95.5"/>
<text text-anchor="middle" x="440.5" y="-102.5" font-family="Helvetica,sans-Serif" font-size="10.00" fill="#000000">extract_junk_chunk</text>
</a>
</g>
</g>
<!-- Node38&#45;&gt;Node41 -->
<g id="edge34" class="edge">
<title>Node38&#45;&gt;Node41</title>
<path fill="none" stroke="#191970" d="M359.8103,-105C369.9184,-105 380.25,-105 389.999,-105"/>
<polygon fill="#191970" stroke="#191970" points="359.8065,-101.5001 349.8065,-105 359.8064,-108.5001 359.8065,-101.5001"/>
</g>
<!-- Node39&#45;&gt;Node25 -->
<g id="edge31" class="edge">
<title>Node39&#45;&gt;Node25</title>
<path fill="none" stroke="#191970" d="M457.75,-159.9588C468.1873,-170.7952 481.3068,-185.4928 491,-200 524.4267,-250.0279 551.771,-317.4031 561.3393,-342.2624"/>
<polygon fill="#191970" stroke="#191970" points="460.2209,-157.4796 450.7113,-152.8085 455.2323,-162.3903 460.2209,-157.4796"/>
</g>
<!-- Node40&#45;&gt;Node27 -->
<g id="edge33" class="edge">
<title>Node40&#45;&gt;Node27</title>
<path fill="none" stroke="#191970" d="M482.395,-80.6183C485.4151,-82.2392 488.3217,-84.0289 491,-86 523.6657,-110.0399 549.3191,-152.2009 559.829,-171.2126"/>
<polygon fill="#191970" stroke="#191970" points="483.6478,-77.3398 473.1092,-76.2501 480.6681,-83.6739 483.6478,-77.3398"/>
</g>
<!-- Node41&#45;&gt;Node27 -->
<g id="edge35" class="edge">
<title>Node41&#45;&gt;Node27</title>
<path fill="none" stroke="#191970" d="M479.8415,-118.4779C483.6837,-120.1855 487.4643,-122.0311 491,-124 515.6523,-137.7281 540.979,-159.1271 554.6746,-171.4274"/>
<polygon fill="#191970" stroke="#191970" points="480.8475,-115.1067 470.2686,-114.5252 478.1759,-121.5769 480.8475,-115.1067"/>
</g>
<!-- Node42&#45;&gt;Node39 -->
<g id="edge37" class="edge">
<title>Node42&#45;&gt;Node39</title>
<path fill="none" stroke="#191970" d="M343.8623,-80.5133C347.392,-82.1584 350.8136,-83.9823 354,-86 373.6552,-98.4462 370.6188,-111.1313 390,-124 396.3211,-128.197 403.6978,-131.6403 410.8293,-134.3866"/>
<polygon fill="#191970" stroke="#191970" points="344.9312,-77.1675 334.3534,-76.5664 342.2476,-83.6327 344.9312,-77.1675"/>
</g>
<!-- Node42&#45;&gt;Node40 -->
<g id="edge38" class="edge">
<title>Node42&#45;&gt;Node40</title>
<path fill="none" stroke="#191970" d="M355.6552,-67C373.4655,-67 392.3295,-67 407.7361,-67"/>
<polygon fill="#191970" stroke="#191970" points="355.3246,-63.5001 345.3246,-67 355.3245,-70.5001 355.3246,-63.5001"/>
</g>
<!-- Node42&#45;&gt;Node41 -->
<g id="edge39" class="edge">
<title>Node42&#45;&gt;Node41</title>
<path fill="none" stroke="#191970" d="M342.3325,-79.1843C362.3939,-84.46 385.5285,-90.5438 404.2988,-95.4799"/>
<polygon fill="#191970" stroke="#191970" points="343.0248,-75.7474 332.4635,-76.589 341.2445,-82.5173 343.0248,-75.7474"/>
</g>
<!-- Node43&#45;&gt;Node38 -->
<g id="edge41" class="edge">
<title>Node43&#45;&gt;Node38</title>
<path fill="none" stroke="#191970" d="M211.3257,-93.8664C221.569,-95.2132 232.1558,-96.6053 242.2288,-97.9297"/>
<polygon fill="#191970" stroke="#191970" points="211.5997,-90.3723 201.2287,-92.5387 210.6871,-97.3126 211.5997,-90.3723"/>
</g>
</g>
</svg>
        <g id="navigator" transform="translate(0 0)" fill="#404254">
                <rect fill="#f2f5e9" fill-opacity="0.5" stroke="#606060" stroke-width=".5" x="0" y="0" width="60" height="60"/>
                <use id="zoomplus" xlink:href="#zoomPlus" x="17" y="9" onmousedown="handleZoom(evt,'in')"/>
                <use id="zoomminus" xlink:href="#zoomMin" x="42" y="9" onmousedown="handleZoom(evt,'out')"/>
                <use id="reset" xlink:href="#resetDef" x="30" y="36" onmousedown="handleReset()"/>
                <g id="arrowUp" xlink:href="#dirArrow" transform="translate(30 24)" onmousedown="handlePan(0,-1)">
                  <use xlink:href="#rim" fill="#404040">
                        <set attributeName="fill" to="#808080" begin="arrowUp.mouseover" end="arrowUp.mouseout"/>
                  </use>
                  <path fill="none" stroke="white" stroke-width="1.5" d="M0,-3.0v7 M-2.5,-0.5L0,-3.0L2.5,-0.5"/>
                </g>
                <g id="arrowRight" xlink:href="#dirArrow" transform="rotate(90) translate(36 -43)" onmousedown="handlePan(1,0)">
                  <use xlink:href="#rim" fill="#404040">
                        <set attributeName="fill" to="#808080" begin="arrowRight.mouseover" end="arrowRight.mouseout"/>
                  </use>
                  <path fill="none" stroke="white" stroke-width="1.5" d="M0,-3.0v7 M-2.5,-0.5L0,-3.0L2.5,-0.5"/>
                </g>
                <g id="arrowDown" xlink:href="#dirArrow" transform="rotate(180) translate(-30 -48)" onmousedown="handlePan(0,1)">
                  <use xlink:href="#rim" fill="#404040">
                        <set attributeName="fill" to="#808080" begin="arrowDown.mouseover" end="arrowDown.mouseout"/>
                  </use>
                  <path fill="none" stroke="white" stroke-width="1.5" d="M0,-3.0v7 M-2.5,-0.5L0,-3.0L2.5,-0.5"/>
                </g>
                <g id="arrowLeft" xlink:href="#dirArrow" transform="rotate(270) translate(-36 17)" onmousedown="handlePan(-1,0)">
                  <use xlink:href="#rim" fill="#404040">
                        <set attributeName="fill" to="#808080" begin="arrowLeft.mouseover" end="arrowLeft.mouseout"/>
                  </use>
                  <path fill="none" stroke="white" stroke-width="1.5" d="M0,-3.0v7 M-2.5,-0.5L0,-3.0L2.5,-0.5"/>
                </g>
        </g>
        <svg viewBox="0 0 15 15" width="100%" height="30px" preserveAspectRatio="xMaxYMin meet">
         <g id="arrow_out" transform="scale(0.3 0.3)">
          <a xlink:href="a00122_a9966534d45c62d0df7a3d5df48668715_icgraph_org.svg" target="_base">
           <rect id="button" ry="5" rx="5" y="6" x="6" height="38" width="38"
                fill="#f2f5e9" fill-opacity="0.5" stroke="#606060" stroke-width="1.0"/>
           <path id="arrow"
             d="M 11.500037,31.436501 C 11.940474,20.09759 22.043105,11.32322 32.158766,21.979434 L 37.068811,17.246167 C 37.068811,17.246167 37.088388,32 37.088388,32 L 22.160133,31.978069 C 22.160133,31.978069 26.997745,27.140456 26.997745,27.140456 C 18.528582,18.264221 13.291696,25.230495 11.500037,31.436501 z"
             style="fill:#404040;"/>
          </a>
         </g>
        </svg>
</svg>
