<?xml version="1.0" encoding="UTF-8" standalone="no"?>
<!DOCTYPE svg PUBLIC "-//W3C//DTD SVG 1.1//EN"
 "http://www.w3.org/Graphics/SVG/1.1/DTD/svg11.dtd">
<!-- Generated by graphviz version 2.40.1 (20161225.0304)
 -->
<!-- Title: data_xor_write_tab Pages: 1 -->
<svg width="499pt" height="104pt"
 viewBox="0.00 0.00 499.00 104.00" xmlns="http://www.w3.org/2000/svg" xmlns:xlink="http://www.w3.org/1999/xlink">
<g id="graph0" class="graph" transform="scale(1 1) rotate(0) translate(4 100)">
<title>data_xor_write_tab</title>
<polygon fill="#ffffff" stroke="transparent" points="-4,4 -4,-100 495,-100 495,4 -4,4"/>
<!-- Node16 -->
<g id="node1" class="node">
<title>Node16</title>
<polygon fill="#bfbfbf" stroke="#000000" points="0,-38.5 0,-57.5 99,-57.5 99,-38.5 0,-38.5"/>
<text text-anchor="middle" x="49.5" y="-45.5" font-family="Helvetica,sans-Serif" font-size="10.00" fill="#000000">data_xor_write_tab</text>
</g>
<!-- Node17 -->
<g id="node2" class="node">
<title>Node17</title>
<g id="a_node2"><a xlink:href="a00119.xhtml#af1d405b272ef2dc101b959264bad47e1" target="_top" xlink:title="Écrit des données mélangé ou remise en ordre avec un mot de passe. ">
<polygon fill="#ffffff" stroke="#000000" points="135,-38.5 135,-57.5 242,-57.5 242,-38.5 135,-38.5"/>
<text text-anchor="middle" x="188.5" y="-45.5" font-family="Helvetica,sans-Serif" font-size="10.00" fill="#000000">data_scramble_write</text>
</a>
</g>
</g>
<!-- Node16&#45;&gt;Node17 -->
<g id="edge1" class="edge">
<title>Node16&#45;&gt;Node17</title>
<path fill="none" stroke="#191970" d="M109.451,-48C117.8874,-48 126.5151,-48 134.8242,-48"/>
<polygon fill="#191970" stroke="#191970" points="109.2896,-44.5001 99.2896,-48 109.2895,-51.5001 109.2896,-44.5001"/>
</g>
<!-- Node18 -->
<g id="node3" class="node">
<title>Node18</title>
<g id="a_node3"><a xlink:href="a00023.xhtml#a1c15f35d77081a076fe7cb19c7eb13b1" target="_top" xlink:title="Va inserer les donnees cachees en utilisant l&#39;algorithme EOF. ">
<polygon fill="#ffffff" stroke="#000000" points="299,-76.5 299,-95.5 358,-95.5 358,-76.5 299,-76.5"/>
<text text-anchor="middle" x="328.5" y="-83.5" font-family="Helvetica,sans-Serif" font-size="10.00" fill="#000000">insert_eof</text>
</a>
</g>
</g>
<!-- Node17&#45;&gt;Node18 -->
<g id="edge2" class="edge">
<title>Node17&#45;&gt;Node18</title>
<path fill="none" stroke="#191970" d="M233.6723,-60.2611C255.0332,-66.059 279.9378,-72.8188 298.8631,-77.9557"/>
<polygon fill="#191970" stroke="#191970" points="234.3956,-56.8308 223.8279,-57.589 232.5619,-63.5864 234.3956,-56.8308"/>
</g>
<!-- Node20 -->
<g id="node5" class="node">
<title>Node20</title>
<g id="a_node5"><a xlink:href="a00023.xhtml#a0204ccf62793e17621fea9abae71e9da" target="_top" xlink:title="Va extraire les donnees cachees en utilisant l&#39;algorithme EOF. ">
<polygon fill="#ffffff" stroke="#000000" points="296,-38.5 296,-57.5 361,-57.5 361,-38.5 296,-38.5"/>
<text text-anchor="middle" x="328.5" y="-45.5" font-family="Helvetica,sans-Serif" font-size="10.00" fill="#000000">extract_eof</text>
</a>
</g>
</g>
<!-- Node17&#45;&gt;Node20 -->
<g id="edge4" class="edge">
<title>Node17&#45;&gt;Node20</title>
<path fill="none" stroke="#191970" d="M252.504,-48C267.4825,-48 282.8298,-48 295.7756,-48"/>
<polygon fill="#191970" stroke="#191970" points="252.2273,-44.5001 242.2273,-48 252.2272,-51.5001 252.2273,-44.5001"/>
</g>
<!-- Node22 -->
<g id="node7" class="node">
<title>Node22</title>
<g id="a_node7"><a xlink:href="a00029.xhtml#ad04f5216bd1375440a90d0c51a4ba590" target="_top" xlink:title="Va extraire les donnees cachees en utilisant l&#39;algorithme Junk Chunk. ">
<polygon fill="#ffffff" stroke="#000000" points="278,-.5 278,-19.5 379,-19.5 379,-.5 278,-.5"/>
<text text-anchor="middle" x="328.5" y="-7.5" font-family="Helvetica,sans-Serif" font-size="10.00" fill="#000000">extract_junk_chunk</text>
</a>
</g>
</g>
<!-- Node17&#45;&gt;Node22 -->
<g id="edge6" class="edge">
<title>Node17&#45;&gt;Node22</title>
<path fill="none" stroke="#191970" d="M233.6176,-35.7538C252.9149,-30.516 275.1124,-24.4909 293.1834,-19.5859"/>
<polygon fill="#191970" stroke="#191970" points="232.5619,-32.4136 223.8279,-38.411 234.3956,-39.1692 232.5619,-32.4136"/>
</g>
<!-- Node19 -->
<g id="node4" class="node">
<title>Node19</title>
<g id="a_node4"><a xlink:href="a00110.xhtml#a45a1d0709604d55e9d467cb39d6a5b54" target="_top" xlink:title="Va faire l&#39;insertion selon l&#39;algorithme, ainsi que les fichiers en entrée choisis par l&#39;utilisateur...">
<polygon fill="#ffffff" stroke="#000000" points="418,-76.5 418,-95.5 488,-95.5 488,-76.5 418,-76.5"/>
<text text-anchor="middle" x="453" y="-83.5" font-family="Helvetica,sans-Serif" font-size="10.00" fill="#000000">stegx_insert</text>
</a>
</g>
</g>
<!-- Node18&#45;&gt;Node19 -->
<g id="edge3" class="edge">
<title>Node18&#45;&gt;Node19</title>
<path fill="none" stroke="#191970" d="M368.135,-86C384.1377,-86 402.4481,-86 417.9548,-86"/>
<polygon fill="#191970" stroke="#191970" points="368.0048,-82.5001 358.0048,-86 368.0047,-89.5001 368.0048,-82.5001"/>
</g>
<!-- Node21 -->
<g id="node6" class="node">
<title>Node21</title>
<g id="a_node6"><a xlink:href="a00065.xhtml#a43c63dd958bfa1f4ab2ecbd7faa14abb" target="_top" xlink:title="Va faire l&#39;extraction selon l&#39;algorithme détecté, ainsi que les fichiers en entrée choisis par l&#39;util...">
<polygon fill="#ffffff" stroke="#000000" points="415,-19.5 415,-38.5 491,-38.5 491,-19.5 415,-19.5"/>
<text text-anchor="middle" x="453" y="-26.5" font-family="Helvetica,sans-Serif" font-size="10.00" fill="#000000">stegx_extract</text>
</a>
</g>
</g>
<!-- Node20&#45;&gt;Node21 -->
<g id="edge5" class="edge">
<title>Node20&#45;&gt;Node21</title>
<path fill="none" stroke="#191970" d="M371.1966,-41.4841C385.3399,-39.3256 400.982,-36.9385 414.768,-34.8346"/>
<polygon fill="#191970" stroke="#191970" points="370.5684,-38.0393 361.2109,-43.008 371.6245,-44.9592 370.5684,-38.0393"/>
</g>
<!-- Node22&#45;&gt;Node21 -->
<g id="edge7" class="edge">
<title>Node22&#45;&gt;Node21</title>
<path fill="none" stroke="#191970" d="M389.2342,-19.2687C397.8832,-20.5886 406.5713,-21.9145 414.63,-23.1443"/>
<polygon fill="#191970" stroke="#191970" points="389.5525,-15.7768 379.1389,-17.728 388.4964,-22.6967 389.5525,-15.7768"/>
</g>
</g>
</svg>
