<?xml version="1.0" encoding="UTF-8" standalone="no"?>
<!DOCTYPE svg PUBLIC "-//W3C//DTD SVG 1.1//EN"
 "http://www.w3.org/Graphics/SVG/1.1/DTD/svg11.dtd">
<!-- Generated by graphviz version 2.40.1 (20161225.0304)
 -->
<!-- Title: src/file_type/wav.h Pages: 1 -->
<!--zoomable 196 -->
<svg id="main" version="1.1" xmlns="http://www.w3.org/2000/svg" xmlns:xlink="http://www.w3.org/1999/xlink" xml:space="preserve" onload="init(evt)">
<style type="text/css"><![CDATA[
.edge:hover path { stroke: red; }
.edge:hover polygon { stroke: red; fill: red; }
]]></style>
<script type="text/javascript"><![CDATA[
var edges = document.getElementsByTagName('g');
if (edges && edges.length) {
  for (var i=0;i<edges.length;i++) {
    if (edges[i].id.substr(0,4)=='edge') {
      edges[i].setAttribute('class','edge');
    }
  }
}
]]></script>
        <defs>
                <circle id="rim" cx="0" cy="0" r="7"/>
                <circle id="rim2" cx="0" cy="0" r="3.5"/>
                <g id="zoomPlus">
                        <use xlink:href="#rim" fill="#404040">
                                <set attributeName="fill" to="#808080" begin="zoomplus.mouseover" end="zoomplus.mouseout"/>
                        </use>
                        <path d="M-4,0h8M0,-4v8" fill="none" stroke="white" stroke-width="1.5" pointer-events="none"/>
                </g>
                <g id="zoomMin">
                        <use xlink:href="#rim" fill="#404040">
                                <set attributeName="fill" to="#808080" begin="zoomminus.mouseover" end="zoomminus.mouseout"/>
                        </use>
                        <path d="M-4,0h8" fill="none" stroke="white" stroke-width="1.5" pointer-events="none"/>
                </g>
                <g id="dirArrow">
                        <path fill="none" stroke="white" stroke-width="1.5" d="M0,-3.0v7 M-2.5,-0.5L0,-3.0L2.5,-0.5"/>
                </g>
               <g id="resetDef">
                       <use xlink:href="#rim2" fill="#404040">
                               <set attributeName="fill" to="#808080" begin="reset.mouseover" end="reset.mouseout"/>
                       </use>
               </g>
        </defs>

<script type="text/javascript">
var viewWidth = 2737;
var viewHeight = 196;
var sectionId = 'dynsection-1';
</script>
<script xlink:href="svgpan.js"/>
<svg id="graph" class="graph">
<g id="viewport">
<title>src/file_type/wav.h</title>
<polygon fill="#ffffff" stroke="transparent" points="-4,4 -4,-192 2733,-192 2733,4 -4,4"/>
<!-- Node10 -->
<g id="node1" class="node">
<title>Node10</title>
<polygon fill="#bfbfbf" stroke="#000000" points="1286.5,-168.5 1286.5,-187.5 1385.5,-187.5 1385.5,-168.5 1286.5,-168.5"/>
<text text-anchor="middle" x="1336" y="-175.5" font-family="Helvetica,sans-Serif" font-size="10.00" fill="#000000">src/file_type/wav.h</text>
</g>
<!-- Node11 -->
<g id="node2" class="node">
<title>Node11</title>
<g id="a_node2"><a xlink:href="a00047.xhtml" target="_top" xlink:title="Définitions communes à la partie privée de la bibliothèque. ">
<polygon fill="#ffffff" stroke="#000000" points="1296.5,-112.5 1296.5,-131.5 1375.5,-131.5 1375.5,-112.5 1296.5,-112.5"/>
<text text-anchor="middle" x="1336" y="-119.5" font-family="Helvetica,sans-Serif" font-size="10.00" fill="#000000">src/common.h</text>
</a>
</g>
</g>
<!-- Node10&#45;&gt;Node11 -->
<g id="edge1" class="edge">
<title>Node10&#45;&gt;Node11</title>
<path fill="none" stroke="#191970" d="M1329.5113,-158.1575C1328.919,-149.155 1329.3335,-138.9199 1330.7549,-131.6427"/>
<polygon fill="#191970" stroke="#191970" points="1326.0561,-158.739 1330.7332,-168.2455 1333.0053,-157.8972 1326.0561,-158.739"/>
</g>
<!-- Node11&#45;&gt;Node10 -->
<g id="edge30" class="edge">
<title>Node11&#45;&gt;Node10</title>
<path fill="none" stroke="#191970" d="M1342.4795,-141.7046C1343.0821,-150.6944 1342.6779,-160.9382 1341.2668,-168.2455"/>
<polygon fill="#191970" stroke="#191970" points="1345.9368,-141.1421 1341.2451,-131.6427 1338.9889,-141.9945 1345.9368,-141.1421"/>
</g>
<!-- Node12 -->
<g id="node3" class="node">
<title>Node12</title>
<g id="a_node3"><a xlink:href="a00014.xhtml" target="_top" xlink:title="Algorithme End Of Chunk (EOC). ">
<polygon fill="#ffffff" stroke="#000000" points="0,-56.5 0,-75.5 78,-75.5 78,-56.5 0,-56.5"/>
<text text-anchor="middle" x="39" y="-63.5" font-family="Helvetica,sans-Serif" font-size="10.00" fill="#000000">src/algo/eoc.c</text>
</a>
</g>
</g>
<!-- Node11&#45;&gt;Node12 -->
<g id="edge2" class="edge">
<title>Node11&#45;&gt;Node12</title>
<path fill="none" stroke="#191970" d="M1286.0308,-121.1509C1084.2966,-117.5682 329.3717,-102.631 92,-76 87.5334,-75.4989 82.8785,-74.8341 78.263,-74.0847"/>
<polygon fill="#191970" stroke="#191970" points="1286.2619,-124.6554 1296.3221,-121.3323 1286.3853,-117.6565 1286.2619,-124.6554"/>
</g>
<!-- Node13 -->
<g id="node4" class="node">
<title>Node13</title>
<g id="a_node4"><a xlink:href="a00017.xhtml" target="_top" xlink:title="Algorithme End Of Chunk (EOC). ">
<polygon fill="#ffffff" stroke="#000000" points="134,-56.5 134,-75.5 212,-75.5 212,-56.5 134,-56.5"/>
<text text-anchor="middle" x="173" y="-63.5" font-family="Helvetica,sans-Serif" font-size="10.00" fill="#000000">src/algo/eoc.h</text>
</a>
</g>
</g>
<!-- Node11&#45;&gt;Node13 -->
<g id="edge3" class="edge">
<title>Node11&#45;&gt;Node13</title>
<path fill="none" stroke="#191970" d="M1286.3291,-121.0359C1098.5,-117.2218 431.639,-102.1072 221,-76 218.1278,-75.644 215.1719,-75.2062 212.2051,-74.7146"/>
<polygon fill="#191970" stroke="#191970" points="1286.3936,-124.5379 1296.4621,-121.2402 1286.5347,-117.5393 1286.3936,-124.5379"/>
</g>
<!-- Node14 -->
<g id="node5" class="node">
<title>Node14</title>
<g id="a_node5"><a xlink:href="a00065.xhtml" target="_top" xlink:title="Extraction des données cachées dans un fichier hôte. ">
<polygon fill="#ffffff" stroke="#000000" points="294.5,-.5 294.5,-19.5 365.5,-19.5 365.5,-.5 294.5,-.5"/>
<text text-anchor="middle" x="330" y="-7.5" font-family="Helvetica,sans-Serif" font-size="10.00" fill="#000000">src/extract.c</text>
</a>
</g>
</g>
<!-- Node11&#45;&gt;Node14 -->
<g id="edge37" class="edge">
<title>Node11&#45;&gt;Node14</title>
<path fill="none" stroke="#191970" d="M1286.2485,-121.0443C1060.8444,-116.5991 145.4688,-97.2611 125,-76 118.8351,-69.5964 119.4451,-62.9394 125,-56 145.7997,-30.0158 241.1273,-17.7016 294.1516,-12.7725"/>
<polygon fill="#191970" stroke="#191970" points="1286.3873,-124.5476 1296.4541,-121.2446 1286.5248,-117.5489 1286.3873,-124.5476"/>
</g>
<!-- Node15 -->
<g id="node6" class="node">
<title>Node15</title>
<g id="a_node6"><a xlink:href="a00110.xhtml" target="_top" xlink:title="Insertion des données cachées dans une copie de l&#39;hôte. ">
<polygon fill="#ffffff" stroke="#000000" points="396.5,-.5 396.5,-19.5 461.5,-19.5 461.5,-.5 396.5,-.5"/>
<text text-anchor="middle" x="429" y="-7.5" font-family="Helvetica,sans-Serif" font-size="10.00" fill="#000000">src/insert.c</text>
</a>
</g>
</g>
<!-- Node11&#45;&gt;Node15 -->
<g id="edge45" class="edge">
<title>Node11&#45;&gt;Node15</title>
<path fill="none" stroke="#191970" d="M1286.3392,-120.9789C1156.344,-117.8988 808.4991,-106.9284 698,-76 679.2413,-70.7495 677.3928,-62.4158 659,-56 590.9447,-32.2609 507.0473,-19.3586 461.7478,-13.6561"/>
<polygon fill="#191970" stroke="#191970" points="1286.3338,-124.4796 1296.4121,-121.212 1286.4958,-117.4815 1286.3338,-124.4796"/>
</g>
<!-- Node16 -->
<g id="node7" class="node">
<title>Node16</title>
<g id="a_node7"><a xlink:href="a00020.xhtml" target="_top" xlink:title="Algorithme EOF. ">
<polygon fill="#ffffff" stroke="#000000" points="707,-56.5 707,-75.5 783,-75.5 783,-56.5 707,-56.5"/>
<text text-anchor="middle" x="745" y="-63.5" font-family="Helvetica,sans-Serif" font-size="10.00" fill="#000000">src/algo/eof.c</text>
</a>
</g>
</g>
<!-- Node11&#45;&gt;Node16 -->
<g id="edge6" class="edge">
<title>Node11&#45;&gt;Node16</title>
<path fill="none" stroke="#191970" d="M1286.0659,-119.492C1190.6822,-114.3134 976.1117,-100.7957 797,-76 792.5379,-75.3823 787.8788,-74.6347 783.2617,-73.8295"/>
<polygon fill="#191970" stroke="#191970" points="1286.1094,-122.9992 1296.2823,-120.0394 1286.484,-116.0093 1286.1094,-122.9992"/>
</g>
<!-- Node17 -->
<g id="node8" class="node">
<title>Node17</title>
<g id="a_node8"><a xlink:href="a00023.xhtml" target="_top" xlink:title="Algorithme EOF. ">
<polygon fill="#ffffff" stroke="#000000" points="230,-56.5 230,-75.5 306,-75.5 306,-56.5 230,-56.5"/>
<text text-anchor="middle" x="268" y="-63.5" font-family="Helvetica,sans-Serif" font-size="10.00" fill="#000000">src/algo/eof.h</text>
</a>
</g>
</g>
<!-- Node11&#45;&gt;Node17 -->
<g id="edge7" class="edge">
<title>Node11&#45;&gt;Node17</title>
<path fill="none" stroke="#191970" d="M1286.1572,-120.8423C1108.4353,-116.5447 506.2211,-100.4809 315,-76 312.1038,-75.6292 309.121,-75.1729 306.1294,-74.6614"/>
<polygon fill="#191970" stroke="#191970" points="1286.1849,-124.3439 1296.2661,-121.0851 1286.3531,-117.3459 1286.1849,-124.3439"/>
</g>
<!-- Node18 -->
<g id="node9" class="node">
<title>Node18</title>
<g id="a_node9"><a xlink:href="a00026.xhtml" target="_top" xlink:title="Algorithme JUNK CHUNK. ">
<polygon fill="#ffffff" stroke="#000000" points="792,-.5 792,-19.5 904,-19.5 904,-.5 792,-.5"/>
<text text-anchor="middle" x="848" y="-7.5" font-family="Helvetica,sans-Serif" font-size="10.00" fill="#000000">src/algo/junk_chunk.c</text>
</a>
</g>
</g>
<!-- Node11&#45;&gt;Node18 -->
<g id="edge10" class="edge">
<title>Node11&#45;&gt;Node18</title>
<path fill="none" stroke="#191970" d="M1286.1333,-121.1998C1164.5188,-118.7332 860.3803,-109.2674 830,-76 815.5838,-60.2138 830.3393,-33.9975 840.371,-19.823"/>
<polygon fill="#191970" stroke="#191970" points="1286.224,-124.7021 1296.2905,-121.3981 1286.3607,-117.7035 1286.224,-124.7021"/>
</g>
<!-- Node19 -->
<g id="node10" class="node">
<title>Node19</title>
<g id="a_node10"><a xlink:href="a00071.xhtml" target="_top" xlink:title="Fichier AVI. ">
<polygon fill="#ffffff" stroke="#000000" points="839,-56.5 839,-75.5 933,-75.5 933,-56.5 839,-56.5"/>
<text text-anchor="middle" x="886" y="-63.5" font-family="Helvetica,sans-Serif" font-size="10.00" fill="#000000">src/file_type/avi.h</text>
</a>
</g>
</g>
<!-- Node11&#45;&gt;Node19 -->
<g id="edge11" class="edge">
<title>Node11&#45;&gt;Node19</title>
<path fill="none" stroke="#191970" d="M1286.023,-117.7003C1209.5203,-110.4256 1059.3975,-94.6466 933,-76 931.9253,-75.8415 930.8395,-75.6781 929.7464,-75.5106"/>
<polygon fill="#191970" stroke="#191970" points="1286.035,-121.2168 1296.3191,-118.6698 1286.6913,-114.2477 1286.035,-121.2168"/>
</g>
<!-- Node20 -->
<g id="node11" class="node">
<title>Node20</title>
<g id="a_node11"><a xlink:href="a00029.xhtml" target="_top" xlink:title="Algorithme JUNK CHUNK. ">
<polygon fill="#ffffff" stroke="#000000" points="324,-56.5 324,-75.5 436,-75.5 436,-56.5 324,-56.5"/>
<text text-anchor="middle" x="380" y="-63.5" font-family="Helvetica,sans-Serif" font-size="10.00" fill="#000000">src/algo/junk_chunk.h</text>
</a>
</g>
</g>
<!-- Node11&#45;&gt;Node20 -->
<g id="edge14" class="edge">
<title>Node11&#45;&gt;Node20</title>
<path fill="none" stroke="#191970" d="M1286.3076,-121.1947C1150.9562,-118.6211 764.4958,-108.7393 445,-76 442.1605,-75.709 439.2557,-75.3795 436.3254,-75.0218"/>
<polygon fill="#191970" stroke="#191970" points="1286.306,-124.6951 1296.3692,-121.3812 1286.4359,-117.6963 1286.306,-124.6951"/>
</g>
<!-- Node21 -->
<g id="node12" class="node">
<title>Node21</title>
<g id="a_node12"><a xlink:href="a00032.xhtml" target="_top" xlink:title="Algorithme LSB. ">
<polygon fill="#ffffff" stroke="#000000" points="951.5,-56.5 951.5,-75.5 1026.5,-75.5 1026.5,-56.5 951.5,-56.5"/>
<text text-anchor="middle" x="989" y="-63.5" font-family="Helvetica,sans-Serif" font-size="10.00" fill="#000000">src/algo/lsb.c</text>
</a>
</g>
</g>
<!-- Node11&#45;&gt;Node21 -->
<g id="edge17" class="edge">
<title>Node11&#45;&gt;Node21</title>
<path fill="none" stroke="#191970" d="M1286.5006,-115.4009C1226.7222,-107.2089 1123.2055,-92.3111 1035,-76 1032.2676,-75.4947 1029.4496,-74.9473 1026.617,-74.3778"/>
<polygon fill="#191970" stroke="#191970" points="1286.0435,-118.8709 1296.4248,-116.7543 1286.9894,-111.9351 1286.0435,-118.8709"/>
</g>
<!-- Node22 -->
<g id="node13" class="node">
<title>Node22</title>
<g id="a_node13"><a xlink:href="a00035.xhtml" target="_top" xlink:title="Algorithme LSB. ">
<polygon fill="#ffffff" stroke="#000000" points="454.5,-56.5 454.5,-75.5 529.5,-75.5 529.5,-56.5 454.5,-56.5"/>
<text text-anchor="middle" x="492" y="-63.5" font-family="Helvetica,sans-Serif" font-size="10.00" fill="#000000">src/algo/lsb.h</text>
</a>
</g>
</g>
<!-- Node11&#45;&gt;Node22 -->
<g id="edge18" class="edge">
<title>Node11&#45;&gt;Node22</title>
<path fill="none" stroke="#191970" d="M1286.1148,-120.1486C1134.9944,-114.3781 683.6842,-95.9095 538,-76 535.2469,-75.6238 532.4137,-75.1711 529.5702,-74.6689"/>
<polygon fill="#191970" stroke="#191970" points="1286.3426,-123.6597 1296.4684,-120.542 1286.6085,-116.6647 1286.3426,-123.6597"/>
</g>
<!-- Node23 -->
<g id="node14" class="node">
<title>Node23</title>
<g id="a_node14"><a xlink:href="a00038.xhtml" target="_top" xlink:title="Algorithme METADATA. ">
<polygon fill="#ffffff" stroke="#000000" points="1044.5,-56.5 1044.5,-75.5 1147.5,-75.5 1147.5,-56.5 1044.5,-56.5"/>
<text text-anchor="middle" x="1096" y="-63.5" font-family="Helvetica,sans-Serif" font-size="10.00" fill="#000000">src/algo/metadata.c</text>
</a>
</g>
</g>
<!-- Node11&#45;&gt;Node23 -->
<g id="edge21" class="edge">
<title>Node11&#45;&gt;Node23</title>
<path fill="none" stroke="#191970" d="M1286.4156,-110.4303C1242.1999,-100.1133 1178.2472,-85.191 1136.8954,-75.5423"/>
<polygon fill="#191970" stroke="#191970" points="1285.8351,-113.8888 1296.3689,-112.7527 1287.4258,-107.0719 1285.8351,-113.8888"/>
</g>
<!-- Node24 -->
<g id="node15" class="node">
<title>Node24</title>
<g id="a_node15"><a xlink:href="a00041.xhtml" target="_top" xlink:title="Algorithme METADATA. ">
<polygon fill="#ffffff" stroke="#000000" points="547.5,-56.5 547.5,-75.5 650.5,-75.5 650.5,-56.5 547.5,-56.5"/>
<text text-anchor="middle" x="599" y="-63.5" font-family="Helvetica,sans-Serif" font-size="10.00" fill="#000000">src/algo/metadata.h</text>
</a>
</g>
</g>
<!-- Node11&#45;&gt;Node24 -->
<g id="edge22" class="edge">
<title>Node11&#45;&gt;Node24</title>
<path fill="none" stroke="#191970" d="M1285.9096,-119.971C1174.2101,-115.1388 896.3477,-101.4131 665,-76 660.3921,-75.4938 655.6128,-74.9017 650.8282,-74.2628"/>
<polygon fill="#191970" stroke="#191970" points="1286.0529,-123.4802 1296.1934,-120.4109 1286.3522,-116.4866 1286.0529,-123.4802"/>
</g>
<!-- Node25 -->
<g id="node16" class="node">
<title>Node25</title>
<g id="a_node16"><a xlink:href="a00044.xhtml" target="_top" xlink:title="Module de vérification de la compatibilité. ">
<polygon fill="#ffffff" stroke="#000000" points="1166,-56.5 1166,-75.5 1268,-75.5 1268,-56.5 1166,-56.5"/>
<text text-anchor="middle" x="1217" y="-63.5" font-family="Helvetica,sans-Serif" font-size="10.00" fill="#000000">src/check_compa.c</text>
</a>
</g>
</g>
<!-- Node11&#45;&gt;Node25 -->
<g id="edge25" class="edge">
<title>Node11&#45;&gt;Node25</title>
<path fill="none" stroke="#191970" d="M1306.4856,-108.1109C1284.9062,-97.9559 1256.2024,-84.4482 1237.1899,-75.5011"/>
<polygon fill="#191970" stroke="#191970" points="1305.0047,-111.2821 1315.5432,-112.3733 1307.9853,-104.9484 1305.0047,-111.2821"/>
</g>
<!-- Node26 -->
<g id="node17" class="node">
<title>Node26</title>
<g id="a_node17"><a xlink:href="a00077.xhtml" target="_top" xlink:title="Fichier BMP. ">
<polygon fill="#ffffff" stroke="#000000" points="1286,-56.5 1286,-75.5 1386,-75.5 1386,-56.5 1286,-56.5"/>
<text text-anchor="middle" x="1336" y="-63.5" font-family="Helvetica,sans-Serif" font-size="10.00" fill="#000000">src/file_type/bmp.h</text>
</a>
</g>
</g>
<!-- Node11&#45;&gt;Node26 -->
<g id="edge26" class="edge">
<title>Node11&#45;&gt;Node26</title>
<path fill="none" stroke="#191970" d="M1329.5113,-102.1575C1328.919,-93.155 1329.3335,-82.9199 1330.7549,-75.6427"/>
<polygon fill="#191970" stroke="#191970" points="1326.0561,-102.739 1330.7332,-112.2455 1333.0053,-101.8972 1326.0561,-102.739"/>
</g>
<!-- Node27 -->
<g id="node18" class="node">
<title>Node27</title>
<g id="a_node18"><a xlink:href="a00095.xhtml" target="_top" xlink:title="Fichier PNG. ">
<polygon fill="#ffffff" stroke="#000000" points="1404.5,-56.5 1404.5,-75.5 1501.5,-75.5 1501.5,-56.5 1404.5,-56.5"/>
<text text-anchor="middle" x="1453" y="-63.5" font-family="Helvetica,sans-Serif" font-size="10.00" fill="#000000">src/file_type/png.h</text>
</a>
</g>
</g>
<!-- Node11&#45;&gt;Node27 -->
<g id="edge28" class="edge">
<title>Node11&#45;&gt;Node27</title>
<path fill="none" stroke="#191970" d="M1360.1058,-107.5971C1379.8562,-97.558 1407.5118,-84.4393 1427.6086,-75.6427"/>
<polygon fill="#191970" stroke="#191970" points="1358.3892,-104.5444 1351.113,-112.2455 1361.6036,-110.7628 1358.3892,-104.5444"/>
</g>
<!-- Node28 -->
<g id="node19" class="node">
<title>Node28</title>
<g id="a_node19"><a xlink:href="a00089.xhtml" target="_top" xlink:title="Fichier MP3. ">
<polygon fill="#ffffff" stroke="#000000" points="1558,-56.5 1558,-75.5 1658,-75.5 1658,-56.5 1558,-56.5"/>
<text text-anchor="middle" x="1608" y="-63.5" font-family="Helvetica,sans-Serif" font-size="10.00" fill="#000000">src/file_type/mp3.h</text>
</a>
</g>
</g>
<!-- Node11&#45;&gt;Node28 -->
<g id="edge31" class="edge">
<title>Node11&#45;&gt;Node28</title>
<path fill="none" stroke="#191970" d="M1385.7869,-110.6053C1434.7038,-100.1823 1508.8042,-84.9531 1557.8489,-75.261"/>
<polygon fill="#191970" stroke="#191970" points="1384.7954,-107.2381 1375.7489,-112.7527 1386.2599,-114.0832 1384.7954,-107.2381"/>
</g>
<!-- Node29 -->
<g id="node20" class="node">
<title>Node29</title>
<g id="a_node20"><a xlink:href="a00086.xhtml" target="_top" xlink:title="Fichier MP3. ">
<polygon fill="#ffffff" stroke="#000000" points="1519,-.5 1519,-19.5 1619,-19.5 1619,-.5 1519,-.5"/>
<text text-anchor="middle" x="1569" y="-7.5" font-family="Helvetica,sans-Serif" font-size="10.00" fill="#000000">src/file_type/mp3.c</text>
</a>
</g>
</g>
<!-- Node11&#45;&gt;Node29 -->
<g id="edge41" class="edge">
<title>Node11&#45;&gt;Node29</title>
<path fill="none" stroke="#191970" d="M1385.4709,-116.6795C1422.0413,-110.9759 1471.8916,-99.3591 1510,-76 1533.8483,-61.3818 1553.6078,-34.1904 1563.0386,-19.6917"/>
<polygon fill="#191970" stroke="#191970" points="1384.916,-113.2233 1375.5292,-118.1363 1385.931,-120.1494 1384.916,-113.2233"/>
</g>
<!-- Node30 -->
<g id="node21" class="node">
<title>Node30</title>
<g id="a_node21"><a xlink:href="a00083.xhtml" target="_top" xlink:title="Fichier FLV. ">
<polygon fill="#ffffff" stroke="#000000" points="1676,-56.5 1676,-75.5 1768,-75.5 1768,-56.5 1676,-56.5"/>
<text text-anchor="middle" x="1722" y="-63.5" font-family="Helvetica,sans-Serif" font-size="10.00" fill="#000000">src/file_type/flv.h</text>
</a>
</g>
</g>
<!-- Node11&#45;&gt;Node30 -->
<g id="edge34" class="edge">
<title>Node11&#45;&gt;Node30</title>
<path fill="none" stroke="#191970" d="M1385.7163,-114.9211C1449.0979,-106.4433 1561.6795,-91.4425 1658,-76 1663.7497,-75.0782 1669.8254,-74.0392 1675.8744,-72.9885"/>
<polygon fill="#191970" stroke="#191970" points="1385.0469,-111.4794 1375.5996,-116.2753 1385.9756,-118.4175 1385.0469,-111.4794"/>
</g>
<!-- Node31 -->
<g id="node22" class="node">
<title>Node31</title>
<g id="a_node22"><a xlink:href="a00050.xhtml" target="_top" xlink:title="Module de détection de l&#39;algorithme. ">
<polygon fill="#ffffff" stroke="#000000" points="1786,-56.5 1786,-75.5 1878,-75.5 1878,-56.5 1786,-56.5"/>
<text text-anchor="middle" x="1832" y="-63.5" font-family="Helvetica,sans-Serif" font-size="10.00" fill="#000000">src/detect_algo.c</text>
</a>
</g>
</g>
<!-- Node11&#45;&gt;Node31 -->
<g id="edge36" class="edge">
<title>Node11&#45;&gt;Node31</title>
<path fill="none" stroke="#191970" d="M1385.6692,-118.0569C1467.4762,-111.2853 1635.5927,-96.2005 1777,-76 1779.8823,-75.5883 1782.8443,-75.1357 1785.8279,-74.6575"/>
<polygon fill="#191970" stroke="#191970" points="1385.3348,-114.5725 1375.6551,-118.8799 1385.9082,-121.549 1385.3348,-114.5725"/>
</g>
<!-- Node32 -->
<g id="node23" class="node">
<title>Node32</title>
<g id="a_node23"><a xlink:href="a00068.xhtml" target="_top" xlink:title="Fichier AVI. ">
<polygon fill="#ffffff" stroke="#000000" points="1896,-56.5 1896,-75.5 1990,-75.5 1990,-56.5 1896,-56.5"/>
<text text-anchor="middle" x="1943" y="-63.5" font-family="Helvetica,sans-Serif" font-size="10.00" fill="#000000">src/file_type/avi.c</text>
</a>
</g>
</g>
<!-- Node11&#45;&gt;Node32 -->
<g id="edge38" class="edge">
<title>Node11&#45;&gt;Node32</title>
<path fill="none" stroke="#191970" d="M1385.6299,-119.4149C1482.3814,-114.0311 1702.8683,-100.0729 1887,-76 1889.9378,-75.6159 1892.9561,-75.1845 1895.9957,-74.7222"/>
<polygon fill="#191970" stroke="#191970" points="1385.347,-115.9251 1375.5544,-119.9693 1385.7316,-122.9145 1385.347,-115.9251"/>
</g>
<!-- Node33 -->
<g id="node24" class="node">
<title>Node33</title>
<g id="a_node24"><a xlink:href="a00074.xhtml" target="_top" xlink:title="Fichier BMP. ">
<polygon fill="#ffffff" stroke="#000000" points="2008,-56.5 2008,-75.5 2108,-75.5 2108,-56.5 2008,-56.5"/>
<text text-anchor="middle" x="2058" y="-63.5" font-family="Helvetica,sans-Serif" font-size="10.00" fill="#000000">src/file_type/bmp.c</text>
</a>
</g>
</g>
<!-- Node11&#45;&gt;Node33 -->
<g id="edge39" class="edge">
<title>Node11&#45;&gt;Node33</title>
<path fill="none" stroke="#191970" d="M1385.9298,-120.2192C1496.6289,-115.9025 1770.915,-103.1746 1999,-76 2001.8885,-75.6559 2004.851,-75.2674 2007.8367,-74.8483"/>
<polygon fill="#191970" stroke="#191970" points="1385.593,-116.7294 1375.7347,-120.6109 1385.8618,-123.7243 1385.593,-116.7294"/>
</g>
<!-- Node34 -->
<g id="node25" class="node">
<title>Node34</title>
<g id="a_node25"><a xlink:href="a00080.xhtml" target="_top" xlink:title="Fichier FLV. ">
<polygon fill="#ffffff" stroke="#000000" points="2126,-56.5 2126,-75.5 2218,-75.5 2218,-56.5 2126,-56.5"/>
<text text-anchor="middle" x="2172" y="-63.5" font-family="Helvetica,sans-Serif" font-size="10.00" fill="#000000">src/file_type/flv.c</text>
</a>
</g>
</g>
<!-- Node11&#45;&gt;Node34 -->
<g id="edge40" class="edge">
<title>Node11&#45;&gt;Node34</title>
<path fill="none" stroke="#191970" d="M1385.8741,-121.1534C1509.9129,-118.5944 1842.1438,-108.9586 2117,-76 2119.8908,-75.6534 2122.8594,-75.2506 2125.8479,-74.8097"/>
<polygon fill="#191970" stroke="#191970" points="1385.4937,-117.6603 1375.5657,-121.3596 1385.6337,-124.6589 1385.4937,-117.6603"/>
</g>
<!-- Node35 -->
<g id="node26" class="node">
<title>Node35</title>
<g id="a_node26"><a xlink:href="a00092.xhtml" target="_top" xlink:title="Fichier PNG. ">
<polygon fill="#ffffff" stroke="#000000" points="2236.5,-56.5 2236.5,-75.5 2333.5,-75.5 2333.5,-56.5 2236.5,-56.5"/>
<text text-anchor="middle" x="2285" y="-63.5" font-family="Helvetica,sans-Serif" font-size="10.00" fill="#000000">src/file_type/png.c</text>
</a>
</g>
</g>
<!-- Node11&#45;&gt;Node35 -->
<g id="edge42" class="edge">
<title>Node11&#45;&gt;Node35</title>
<path fill="none" stroke="#191970" d="M1385.7259,-121.5076C1521.1613,-119.7188 1907.8133,-111.6271 2227,-76 2230.0465,-75.66 2233.1755,-75.2623 2236.3258,-74.8252"/>
<polygon fill="#191970" stroke="#191970" points="1385.6128,-118.0086 1375.6579,-121.6349 1385.7014,-125.0081 1385.6128,-118.0086"/>
</g>
<!-- Node36 -->
<g id="node27" class="node">
<title>Node36</title>
<g id="a_node27"><a xlink:href="a00101.xhtml" target="_top" xlink:title="Fichier WAVE. ">
<polygon fill="#ffffff" stroke="#000000" points="2351.5,-56.5 2351.5,-75.5 2450.5,-75.5 2450.5,-56.5 2351.5,-56.5"/>
<text text-anchor="middle" x="2401" y="-63.5" font-family="Helvetica,sans-Serif" font-size="10.00" fill="#000000">src/file_type/wav.c</text>
</a>
</g>
</g>
<!-- Node11&#45;&gt;Node36 -->
<g id="edge43" class="edge">
<title>Node11&#45;&gt;Node36</title>
<path fill="none" stroke="#191970" d="M1385.7241,-120.5538C1561.6522,-115.3081 2154.1812,-96.5087 2343,-76 2345.7427,-75.7021 2348.5521,-75.3558 2351.3835,-74.9746"/>
<polygon fill="#191970" stroke="#191970" points="1385.6045,-117.0557 1375.7129,-120.8511 1385.8124,-124.0526 1385.6045,-117.0557"/>
</g>
<!-- Node37 -->
<g id="node28" class="node">
<title>Node37</title>
<g id="a_node28"><a xlink:href="a00107.xhtml" target="_top" xlink:title="Fonction d&#39;initialisation et de libération de la bibliothèque. ">
<polygon fill="#ffffff" stroke="#000000" points="2469,-56.5 2469,-75.5 2523,-75.5 2523,-56.5 2469,-56.5"/>
<text text-anchor="middle" x="2496" y="-63.5" font-family="Helvetica,sans-Serif" font-size="10.00" fill="#000000">src/init.c</text>
</a>
</g>
</g>
<!-- Node11&#45;&gt;Node37 -->
<g id="edge44" class="edge">
<title>Node11&#45;&gt;Node37</title>
<path fill="none" stroke="#191970" d="M1385.8145,-121.4832C1574.944,-119.2851 2248.5163,-109.2454 2460,-76 2462.8195,-75.5568 2465.7333,-74.9705 2468.6256,-74.3034"/>
<polygon fill="#191970" stroke="#191970" points="1385.573,-117.9857 1375.6136,-121.5996 1385.6529,-124.9852 1385.573,-117.9857"/>
</g>
<!-- Node38 -->
<g id="node29" class="node">
<title>Node38</title>
<g id="a_node29"><a xlink:href="a00116.xhtml" target="_top" xlink:title="Algorithme de protection des données avec le mot de passe. ">
<polygon fill="#ffffff" stroke="#000000" points="2541,-56.5 2541,-75.5 2625,-75.5 2625,-56.5 2541,-56.5"/>
<text text-anchor="middle" x="2583" y="-63.5" font-family="Helvetica,sans-Serif" font-size="10.00" fill="#000000">src/protection.c</text>
</a>
</g>
</g>
<!-- Node11&#45;&gt;Node38 -->
<g id="edge46" class="edge">
<title>Node11&#45;&gt;Node38</title>
<path fill="none" stroke="#191970" d="M1385.6754,-121.1182C1582.0474,-117.4732 2304.5206,-102.5141 2532,-76 2534.8679,-75.6657 2537.8156,-75.2588 2540.7785,-74.8025"/>
<polygon fill="#191970" stroke="#191970" points="1385.5795,-117.6193 1375.6457,-121.303 1385.7085,-124.6181 1385.5795,-117.6193"/>
</g>
<!-- Node39 -->
<g id="node30" class="node">
<title>Node39</title>
<g id="a_node30"><a xlink:href="a00128.xhtml" target="_top" xlink:title="Proposition des algorithmes. ">
<polygon fill="#ffffff" stroke="#000000" points="2643,-56.5 2643,-75.5 2729,-75.5 2729,-56.5 2643,-56.5"/>
<text text-anchor="middle" x="2686" y="-63.5" font-family="Helvetica,sans-Serif" font-size="10.00" fill="#000000">src/sugg_algo.c</text>
</a>
</g>
</g>
<!-- Node11&#45;&gt;Node39 -->
<g id="edge47" class="edge">
<title>Node11&#45;&gt;Node39</title>
<path fill="none" stroke="#191970" d="M1386.0903,-121.2609C1593.4735,-118.041 2385.5542,-104.1206 2634,-76 2636.9232,-75.6691 2639.928,-75.2647 2642.9485,-74.8104"/>
<polygon fill="#191970" stroke="#191970" points="1385.7541,-117.7656 1375.8092,-121.4192 1385.8619,-124.7648 1385.7541,-117.7656"/>
</g>
<!-- Node13&#45;&gt;Node14 -->
<g id="edge4" class="edge">
<title>Node13&#45;&gt;Node14</title>
<path fill="none" stroke="#191970" d="M209.6619,-52.9231C238.3624,-42.686 277.6044,-28.6889 303.3629,-19.5011"/>
<polygon fill="#191970" stroke="#191970" points="208.2322,-49.7171 199.9893,-56.3733 210.5839,-56.3102 208.2322,-49.7171"/>
</g>
<!-- Node13&#45;&gt;Node15 -->
<g id="edge5" class="edge">
<title>Node13&#45;&gt;Node15</title>
<path fill="none" stroke="#191970" d="M222.0207,-55.2767C273.2677,-44.0664 352.2413,-26.791 396.3459,-17.1431"/>
<polygon fill="#191970" stroke="#191970" points="221.1806,-51.8776 212.1596,-57.4338 222.6765,-58.716 221.1806,-51.8776"/>
</g>
<!-- Node17&#45;&gt;Node14 -->
<g id="edge8" class="edge">
<title>Node17&#45;&gt;Node14</title>
<path fill="none" stroke="#191970" d="M286.4221,-49.3607C297.1481,-39.6727 310.2934,-27.7995 319.3242,-19.6427"/>
<polygon fill="#191970" stroke="#191970" points="283.8746,-46.9453 278.7996,-56.2455 288.5666,-52.14 283.8746,-46.9453"/>
</g>
<!-- Node17&#45;&gt;Node15 -->
<g id="edge9" class="edge">
<title>Node17&#45;&gt;Node15</title>
<path fill="none" stroke="#191970" d="M305.2111,-53.057C334.6759,-42.8084 375.1541,-28.729 401.6843,-19.5011"/>
<polygon fill="#191970" stroke="#191970" points="303.972,-49.7822 295.6769,-56.3733 306.2717,-56.3937 303.972,-49.7822"/>
</g>
<!-- Node19&#45;&gt;Node11 -->
<g id="edge13" class="edge">
<title>Node19&#45;&gt;Node11</title>
<path fill="none" stroke="#191970" d="M943.0003,-74.7684C945.7108,-75.2008 948.388,-75.6147 951,-76 1076.8702,-94.5688 1226.2682,-110.2939 1296.2962,-117.6088"/>
<polygon fill="#191970" stroke="#191970" points="943.5319,-71.3089 933.0967,-73.1406 942.3965,-78.2163 943.5319,-71.3089"/>
</g>
<!-- Node19&#45;&gt;Node18 -->
<g id="edge12" class="edge">
<title>Node19&#45;&gt;Node18</title>
<path fill="none" stroke="#191970" d="M873.7321,-47.9209C867.3512,-38.5176 859.8069,-27.3997 854.5432,-19.6427"/>
<polygon fill="#191970" stroke="#191970" points="870.8697,-49.936 879.3809,-56.2455 876.662,-46.0055 870.8697,-49.936"/>
</g>
<!-- Node20&#45;&gt;Node14 -->
<g id="edge15" class="edge">
<title>Node20&#45;&gt;Node14</title>
<path fill="none" stroke="#191970" d="M364.3753,-48.5004C355.8727,-38.9775 345.6782,-27.5596 338.6095,-19.6427"/>
<polygon fill="#191970" stroke="#191970" points="362.0197,-51.1172 371.2907,-56.2455 367.2413,-46.4551 362.0197,-51.1172"/>
</g>
<!-- Node20&#45;&gt;Node15 -->
<g id="edge16" class="edge">
<title>Node20&#45;&gt;Node15</title>
<path fill="none" stroke="#191970" d="M395.3122,-48.5004C403.6447,-38.9775 413.6353,-27.5596 420.5627,-19.6427"/>
<polygon fill="#191970" stroke="#191970" points="392.4862,-46.415 388.5351,-56.2455 397.7543,-51.0245 392.4862,-46.415"/>
</g>
<!-- Node22&#45;&gt;Node14 -->
<g id="edge19" class="edge">
<title>Node22&#45;&gt;Node14</title>
<path fill="none" stroke="#191970" d="M454.5578,-53.057C424.9099,-42.8084 384.1804,-28.729 357.4854,-19.5011"/>
<polygon fill="#191970" stroke="#191970" points="453.5564,-56.414 464.1512,-56.3733 455.8435,-49.7982 453.5564,-56.414"/>
</g>
<!-- Node22&#45;&gt;Node15 -->
<g id="edge20" class="edge">
<title>Node22&#45;&gt;Node15</title>
<path fill="none" stroke="#191970" d="M473.2808,-49.3607C462.3818,-39.6727 449.0245,-27.7995 439.848,-19.6427"/>
<polygon fill="#191970" stroke="#191970" points="471.2268,-52.2178 481.0262,-56.2455 475.8774,-46.9859 471.2268,-52.2178"/>
</g>
<!-- Node24&#45;&gt;Node14 -->
<g id="edge23" class="edge">
<title>Node24&#45;&gt;Node14</title>
<path fill="none" stroke="#191970" d="M543.0942,-54.3616C489.8213,-43.2713 411.208,-26.9058 365.8498,-17.4632"/>
<polygon fill="#191970" stroke="#191970" points="542.5594,-57.8253 553.0629,-56.4369 543.9861,-50.9722 542.5594,-57.8253"/>
</g>
<!-- Node24&#45;&gt;Node15 -->
<g id="edge24" class="edge">
<title>Node24&#45;&gt;Node15</title>
<path fill="none" stroke="#191970" d="M560.114,-53.1905C528.9688,-42.9309 485.9777,-28.7691 457.8427,-19.5011"/>
<polygon fill="#191970" stroke="#191970" points="559.1829,-56.5687 569.776,-56.3733 561.3731,-49.9202 559.1829,-56.5687"/>
</g>
<!-- Node26&#45;&gt;Node11 -->
<g id="edge27" class="edge">
<title>Node26&#45;&gt;Node11</title>
<path fill="none" stroke="#191970" d="M1342.4795,-85.7046C1343.0821,-94.6944 1342.6779,-104.9382 1341.2668,-112.2455"/>
<polygon fill="#191970" stroke="#191970" points="1345.9368,-85.1421 1341.2451,-75.6427 1338.9889,-85.9945 1345.9368,-85.1421"/>
</g>
<!-- Node27&#45;&gt;Node11 -->
<g id="edge29" class="edge">
<title>Node27&#45;&gt;Node11</title>
<path fill="none" stroke="#191970" d="M1429.3766,-80.1575C1409.5844,-90.2334 1381.6189,-103.5047 1361.355,-112.3733"/>
<polygon fill="#191970" stroke="#191970" points="1431.0968,-83.2082 1438.3667,-75.5011 1427.8774,-76.9925 1431.0968,-83.2082"/>
</g>
<!-- Node28&#45;&gt;Node11 -->
<g id="edge32" class="edge">
<title>Node28&#45;&gt;Node11</title>
<path fill="none" stroke="#191970" d="M1557.1973,-77.6111C1504.6333,-88.8029 1423.791,-105.3857 1375.7047,-114.7936"/>
<polygon fill="#191970" stroke="#191970" points="1557.9441,-81.0306 1566.9916,-75.5177 1556.4809,-74.1852 1557.9441,-81.0306"/>
</g>
<!-- Node28&#45;&gt;Node29 -->
<g id="edge33" class="edge">
<title>Node28&#45;&gt;Node29</title>
<path fill="none" stroke="#191970" d="M1595.4092,-47.9209C1588.8605,-38.5176 1581.1176,-27.3997 1575.7154,-19.6427"/>
<polygon fill="#191970" stroke="#191970" points="1592.6196,-50.0397 1601.2067,-56.2455 1598.3639,-46.0392 1592.6196,-50.0397"/>
</g>
<!-- Node30&#45;&gt;Node11 -->
<g id="edge35" class="edge">
<title>Node30&#45;&gt;Node11</title>
<path fill="none" stroke="#191970" d="M1668.7697,-77.1439C1560.1447,-94.3429 1437.3242,-110.3449 1375.5323,-117.7335"/>
<polygon fill="#191970" stroke="#191970" points="1669.5747,-80.5599 1678.8993,-75.5298 1668.4731,-73.6471 1669.5747,-80.5599"/>
</g>
</g>
</svg>
        <g id="navigator" transform="translate(0 0)" fill="#404254">
                <rect fill="#f2f5e9" fill-opacity="0.5" stroke="#606060" stroke-width=".5" x="0" y="0" width="60" height="60"/>
                <use id="zoomplus" xlink:href="#zoomPlus" x="17" y="9" onmousedown="handleZoom(evt,'in')"/>
                <use id="zoomminus" xlink:href="#zoomMin" x="42" y="9" onmousedown="handleZoom(evt,'out')"/>
                <use id="reset" xlink:href="#resetDef" x="30" y="36" onmousedown="handleReset()"/>
                <g id="arrowUp" xlink:href="#dirArrow" transform="translate(30 24)" onmousedown="handlePan(0,-1)">
                  <use xlink:href="#rim" fill="#404040">
                        <set attributeName="fill" to="#808080" begin="arrowUp.mouseover" end="arrowUp.mouseout"/>
                  </use>
                  <path fill="none" stroke="white" stroke-width="1.5" d="M0,-3.0v7 M-2.5,-0.5L0,-3.0L2.5,-0.5"/>
                </g>
                <g id="arrowRight" xlink:href="#dirArrow" transform="rotate(90) translate(36 -43)" onmousedown="handlePan(1,0)">
                  <use xlink:href="#rim" fill="#404040">
                        <set attributeName="fill" to="#808080" begin="arrowRight.mouseover" end="arrowRight.mouseout"/>
                  </use>
                  <path fill="none" stroke="white" stroke-width="1.5" d="M0,-3.0v7 M-2.5,-0.5L0,-3.0L2.5,-0.5"/>
                </g>
                <g id="arrowDown" xlink:href="#dirArrow" transform="rotate(180) translate(-30 -48)" onmousedown="handlePan(0,1)">
                  <use xlink:href="#rim" fill="#404040">
                        <set attributeName="fill" to="#808080" begin="arrowDown.mouseover" end="arrowDown.mouseout"/>
                  </use>
                  <path fill="none" stroke="white" stroke-width="1.5" d="M0,-3.0v7 M-2.5,-0.5L0,-3.0L2.5,-0.5"/>
                </g>
                <g id="arrowLeft" xlink:href="#dirArrow" transform="rotate(270) translate(-36 17)" onmousedown="handlePan(-1,0)">
                  <use xlink:href="#rim" fill="#404040">
                        <set attributeName="fill" to="#808080" begin="arrowLeft.mouseover" end="arrowLeft.mouseout"/>
                  </use>
                  <path fill="none" stroke="white" stroke-width="1.5" d="M0,-3.0v7 M-2.5,-0.5L0,-3.0L2.5,-0.5"/>
                </g>
        </g>
        <svg viewBox="0 0 15 15" width="100%" height="30px" preserveAspectRatio="xMaxYMin meet">
         <g id="arrow_out" transform="scale(0.3 0.3)">
          <a xlink:href="a00106_org.svg" target="_base">
           <rect id="button" ry="5" rx="5" y="6" x="6" height="38" width="38"
                fill="#f2f5e9" fill-opacity="0.5" stroke="#606060" stroke-width="1.0"/>
           <path id="arrow"
             d="M 11.500037,31.436501 C 11.940474,20.09759 22.043105,11.32322 32.158766,21.979434 L 37.068811,17.246167 C 37.068811,17.246167 37.088388,32 37.088388,32 L 22.160133,31.978069 C 22.160133,31.978069 26.997745,27.140456 26.997745,27.140456 C 18.528582,18.264221 13.291696,25.230495 11.500037,31.436501 z"
             style="fill:#404040;"/>
          </a>
         </g>
        </svg>
</svg>
