<?xml version="1.0" encoding="UTF-8" standalone="no"?>
<!DOCTYPE svg PUBLIC "-//W3C//DTD SVG 1.1//EN"
 "http://www.w3.org/Graphics/SVG/1.1/DTD/svg11.dtd">
<!-- Generated by graphviz version 2.40.1 (20161225.0304)
 -->
<!-- Title: stegx_srand Pages: 1 -->
<!--zoomable 457 -->
<svg id="main" version="1.1" xmlns="http://www.w3.org/2000/svg" xmlns:xlink="http://www.w3.org/1999/xlink" xml:space="preserve" onload="init(evt)">
<style type="text/css"><![CDATA[
.edge:hover path { stroke: red; }
.edge:hover polygon { stroke: red; fill: red; }
]]></style>
<script type="text/javascript"><![CDATA[
var edges = document.getElementsByTagName('g');
if (edges && edges.length) {
  for (var i=0;i<edges.length;i++) {
    if (edges[i].id.substr(0,4)=='edge') {
      edges[i].setAttribute('class','edge');
    }
  }
}
]]></script>
        <defs>
                <circle id="rim" cx="0" cy="0" r="7"/>
                <circle id="rim2" cx="0" cy="0" r="3.5"/>
                <g id="zoomPlus">
                        <use xlink:href="#rim" fill="#404040">
                                <set attributeName="fill" to="#808080" begin="zoomplus.mouseover" end="zoomplus.mouseout"/>
                        </use>
                        <path d="M-4,0h8M0,-4v8" fill="none" stroke="white" stroke-width="1.5" pointer-events="none"/>
                </g>
                <g id="zoomMin">
                        <use xlink:href="#rim" fill="#404040">
                                <set attributeName="fill" to="#808080" begin="zoomminus.mouseover" end="zoomminus.mouseout"/>
                        </use>
                        <path d="M-4,0h8" fill="none" stroke="white" stroke-width="1.5" pointer-events="none"/>
                </g>
                <g id="dirArrow">
                        <path fill="none" stroke="white" stroke-width="1.5" d="M0,-3.0v7 M-2.5,-0.5L0,-3.0L2.5,-0.5"/>
                </g>
               <g id="resetDef">
                       <use xlink:href="#rim2" fill="#404040">
                               <set attributeName="fill" to="#808080" begin="reset.mouseover" end="reset.mouseout"/>
                       </use>
               </g>
        </defs>

<script type="text/javascript">
var viewWidth = 616;
var viewHeight = 457;
var sectionId = 'dynsection-3';
</script>
<script xlink:href="svgpan.js"/>
<svg id="graph" class="graph">
<g id="viewport">
<title>stegx_srand</title>
<polygon fill="#ffffff" stroke="transparent" points="-4,4 -4,-452.6776 612,-452.6776 612,4 -4,4"/>
<!-- Node46 -->
<g id="node1" class="node">
<title>Node46</title>
<polygon fill="#bfbfbf" stroke="#000000" points="0,-228.5 0,-247.5 70,-247.5 70,-228.5 0,-228.5"/>
<text text-anchor="middle" x="35" y="-235.5" font-family="Helvetica,sans-Serif" font-size="10.00" fill="#000000">stegx_srand</text>
</g>
<!-- Node47 -->
<g id="node2" class="node">
<title>Node47</title>
<g id="a_node2"><a xlink:href="a00017.xhtml#a049b8f5bf7a416fe54b10c6de98487a1" target="_top" xlink:title="Va inserer les donnees cachees en utilisant l&#39;algorithme EOC. ">
<polygon fill="#ffffff" stroke="#000000" points="270,-380.5 270,-399.5 332,-399.5 332,-380.5 270,-380.5"/>
<text text-anchor="middle" x="301" y="-387.5" font-family="Helvetica,sans-Serif" font-size="10.00" fill="#000000">insert_eoc</text>
</a>
</g>
</g>
<!-- Node46&#45;&gt;Node47 -->
<g id="edge1" class="edge">
<title>Node46&#45;&gt;Node47</title>
<path fill="none" stroke="#191970" d="M36.4068,-257.6949C40.2447,-294.8285 54.3932,-374.549 106,-409 132.0975,-426.4219 221.8634,-408.8629 269.9703,-397.6955"/>
<polygon fill="#191970" stroke="#191970" points="39.8845,-257.2878 35.5166,-247.6352 32.9117,-257.9048 39.8845,-257.2878"/>
</g>
<!-- Node49 -->
<g id="node4" class="node">
<title>Node49</title>
<g id="a_node4"><a xlink:href="a00017.xhtml#ad0cda2ae23fda82b16083952ca1b698a" target="_top" xlink:title="Va extraire les donnees cachees en utilisant l&#39;algorithme EOC. ">
<polygon fill="#ffffff" stroke="#000000" points="267,-152.5 267,-171.5 335,-171.5 335,-152.5 267,-152.5"/>
<text text-anchor="middle" x="301" y="-159.5" font-family="Helvetica,sans-Serif" font-size="10.00" fill="#000000">extract_eoc</text>
</a>
</g>
</g>
<!-- Node46&#45;&gt;Node49 -->
<g id="edge3" class="edge">
<title>Node46&#45;&gt;Node49</title>
<path fill="none" stroke="#191970" d="M46.9739,-219.7321C59.4105,-202.5582 80.5909,-177.9084 106,-167 158.5907,-144.4222 226.7275,-149.4751 266.9653,-155.5171"/>
<polygon fill="#191970" stroke="#191970" points="43.8085,-218.1554 40.9929,-228.3693 49.5634,-222.1406 43.8085,-218.1554"/>
</g>
<!-- Node51 -->
<g id="node6" class="node">
<title>Node51</title>
<g id="a_node6"><a xlink:href="a00035.xhtml#a72239fe09f5e932458901b822ccdf945" target="_top" xlink:title="Cache les octets de data dans pixels selon l&#39;algorithme de protection des données en LSB...">
<polygon fill="#ffffff" stroke="#000000" points="112,-380.5 112,-399.5 201,-399.5 201,-380.5 112,-380.5"/>
<text text-anchor="middle" x="156.5" y="-387.5" font-family="Helvetica,sans-Serif" font-size="10.00" fill="#000000">protect_data_lsb</text>
</a>
</g>
</g>
<!-- Node46&#45;&gt;Node51 -->
<g id="edge5" class="edge">
<title>Node46&#45;&gt;Node51</title>
<path fill="none" stroke="#191970" d="M41.3715,-257.2261C51.2903,-284.5696 72.8028,-334.8243 106,-366 112.4392,-372.0471 120.6816,-376.8276 128.6316,-380.478"/>
<polygon fill="#191970" stroke="#191970" points="44.6292,-255.9383 38.0342,-247.6464 38.0189,-258.2412 44.6292,-255.9383"/>
</g>
<!-- Node52 -->
<g id="node7" class="node">
<title>Node52</title>
<g id="a_node7"><a xlink:href="a00035.xhtml#a14e9d876697b0225ded31095c1076b64" target="_top" xlink:title="Va inserer les donnees cachees en utilisant l&#39;algorithme LSB. ">
<polygon fill="#ffffff" stroke="#000000" points="271.5,-418.5 271.5,-437.5 330.5,-437.5 330.5,-418.5 271.5,-418.5"/>
<text text-anchor="middle" x="301" y="-425.5" font-family="Helvetica,sans-Serif" font-size="10.00" fill="#000000">insert_lsb</text>
</a>
</g>
</g>
<!-- Node46&#45;&gt;Node52 -->
<g id="edge10" class="edge">
<title>Node46&#45;&gt;Node52</title>
<path fill="none" stroke="#191970" d="M39.4486,-257.5435C49.8899,-301.5054 77.2644,-405.9171 106,-426 155.3958,-460.5219 230.3751,-448.0037 271.4801,-437.1706"/>
<polygon fill="#191970" stroke="#191970" points="42.8464,-256.7021 37.1683,-247.7572 36.029,-258.2906 42.8464,-256.7021"/>
</g>
<!-- Node53 -->
<g id="node8" class="node">
<title>Node53</title>
<g id="a_node8"><a xlink:href="a00035.xhtml#abc757e2627fc9971e388a584e0e0c2ca" target="_top" xlink:title="Va extraire les donnees cachees en utilisant l&#39;algorithme LSB. ">
<polygon fill="#ffffff" stroke="#000000" points="268.5,-342.5 268.5,-361.5 333.5,-361.5 333.5,-342.5 268.5,-342.5"/>
<text text-anchor="middle" x="301" y="-349.5" font-family="Helvetica,sans-Serif" font-size="10.00" fill="#000000">extract_lsb</text>
</a>
</g>
</g>
<!-- Node46&#45;&gt;Node53 -->
<g id="edge11" class="edge">
<title>Node46&#45;&gt;Node53</title>
<path fill="none" stroke="#191970" d="M50.6855,-255.1723C64.1215,-268.9039 84.6369,-287.6714 106,-299 158.9999,-327.1053 228.2008,-341.3113 268.3115,-347.6466"/>
<polygon fill="#191970" stroke="#191970" points="53.0674,-252.598 43.6398,-247.7636 47.9949,-257.422 53.0674,-252.598"/>
</g>
<!-- Node54 -->
<g id="node9" class="node">
<title>Node54</title>
<g id="a_node9"><a xlink:href="a00077.xhtml#a9b0bec96351bc1e6be9134900590d215" target="_top" xlink:title="Va inserer les donnees cachees en utilisant l&#39;algorithme Metadata dans le format BMP. ">
<polygon fill="#ffffff" stroke="#000000" points="246,-304.5 246,-323.5 356,-323.5 356,-304.5 246,-304.5"/>
<text text-anchor="middle" x="301" y="-311.5" font-family="Helvetica,sans-Serif" font-size="10.00" fill="#000000">insert_metadata_bmp</text>
</a>
</g>
</g>
<!-- Node46&#45;&gt;Node54 -->
<g id="edge12" class="edge">
<title>Node46&#45;&gt;Node54</title>
<path fill="none" stroke="#191970" d="M60.9847,-252.2544C74.1611,-259.0108 90.5986,-266.7354 106,-272 152.0404,-287.7378 206.2807,-298.8518 245.8522,-305.6769"/>
<polygon fill="#191970" stroke="#191970" points="62.5094,-249.1019 52.0281,-247.5548 59.2569,-255.3004 62.5094,-249.1019"/>
</g>
<!-- Node56 -->
<g id="node11" class="node">
<title>Node56</title>
<g id="a_node11"><a xlink:href="a00077.xhtml#a14e9a0ddec04cc168cbfe21cd839166e" target="_top" xlink:title="Va extraire les donnees cachees en utilisant l&#39;algorithme Metadata dans le formar BMP...">
<polygon fill="#ffffff" stroke="#000000" points="243,-190.5 243,-209.5 359,-209.5 359,-190.5 243,-190.5"/>
<text text-anchor="middle" x="301" y="-197.5" font-family="Helvetica,sans-Serif" font-size="10.00" fill="#000000">extract_metadata_bmp</text>
</a>
</g>
</g>
<!-- Node46&#45;&gt;Node56 -->
<g id="edge15" class="edge">
<title>Node46&#45;&gt;Node56</title>
<path fill="none" stroke="#191970" d="M49.81,-220.9506C62.9727,-207.1987 83.5627,-188.8922 106,-181 163.5968,-160.7406 236.2933,-178.2331 274.5975,-190.4966"/>
<polygon fill="#191970" stroke="#191970" points="47.1473,-218.6756 42.9604,-228.408 52.3027,-223.4108 47.1473,-218.6756"/>
</g>
<!-- Node58 -->
<g id="node13" class="node">
<title>Node58</title>
<g id="a_node13"><a xlink:href="a00095.xhtml#a2386f518ec5df78485cca31c6fe4f858" target="_top" xlink:title="Va inserer les donnees cachees en utilisant l&#39;algorithme Metadata dans le format PNG. ">
<polygon fill="#ffffff" stroke="#000000" points="247.5,-266.5 247.5,-285.5 354.5,-285.5 354.5,-266.5 247.5,-266.5"/>
<text text-anchor="middle" x="301" y="-273.5" font-family="Helvetica,sans-Serif" font-size="10.00" fill="#000000">insert_metadata_png</text>
</a>
</g>
</g>
<!-- Node46&#45;&gt;Node58 -->
<g id="edge18" class="edge">
<title>Node46&#45;&gt;Node58</title>
<path fill="none" stroke="#191970" d="M80.1501,-247.4106C88.7152,-249.0516 97.6181,-250.6596 106,-252 153.6595,-259.6215 208.2084,-266.1501 247.47,-270.4654"/>
<polygon fill="#191970" stroke="#191970" points="80.7881,-243.9691 70.302,-245.4831 79.4435,-250.8388 80.7881,-243.9691"/>
</g>
<!-- Node59 -->
<g id="node14" class="node">
<title>Node59</title>
<g id="a_node14"><a xlink:href="a00095.xhtml#a258c2aefc0d29e112eca90e652730a84" target="_top" xlink:title="Va extraire les donnees cachees en utilisant l&#39;algorithme Metadata dans le formar PNG...">
<polygon fill="#ffffff" stroke="#000000" points="244.5,-228.5 244.5,-247.5 357.5,-247.5 357.5,-228.5 244.5,-228.5"/>
<text text-anchor="middle" x="301" y="-235.5" font-family="Helvetica,sans-Serif" font-size="10.00" fill="#000000">extract_metadata_png</text>
</a>
</g>
</g>
<!-- Node46&#45;&gt;Node59 -->
<g id="edge20" class="edge">
<title>Node46&#45;&gt;Node59</title>
<path fill="none" stroke="#191970" d="M80.1739,-238C125.5143,-238 195.48,-238 244.4745,-238"/>
<polygon fill="#191970" stroke="#191970" points="80.0484,-234.5001 70.0484,-238 80.0484,-241.5001 80.0484,-234.5001"/>
</g>
<!-- Node60 -->
<g id="node15" class="node">
<title>Node60</title>
<g id="a_node15"><a xlink:href="a00119.xhtml#a3fd0a8f9ba189acd34f864c97f059b0f" target="_top" xlink:title="Fait le mélange ou réarrange les octets selon l&#39;algorithme de protection des données. ">
<polygon fill="#ffffff" stroke="#000000" points="121,-190.5 121,-209.5 192,-209.5 192,-190.5 121,-190.5"/>
<text text-anchor="middle" x="156.5" y="-197.5" font-family="Helvetica,sans-Serif" font-size="10.00" fill="#000000">protect_data</text>
</a>
</g>
</g>
<!-- Node46&#45;&gt;Node60 -->
<g id="edge22" class="edge">
<title>Node46&#45;&gt;Node60</title>
<path fill="none" stroke="#191970" d="M75.544,-225.3196C91.9606,-220.1852 110.5989,-214.3559 125.8502,-209.5859"/>
<polygon fill="#191970" stroke="#191970" points="74.1589,-222.0855 65.6596,-228.411 76.2485,-228.7664 74.1589,-222.0855"/>
</g>
<!-- Node65 -->
<g id="node20" class="node">
<title>Node65</title>
<g id="a_node20"><a xlink:href="a00119.xhtml#aed2bc32539848b035b9ad4fc2efd98e8" target="_top" xlink:title="Écrit des données XORées avec un mot de passe. ">
<polygon fill="#ffffff" stroke="#000000" points="252,-57.5 252,-76.5 350,-76.5 350,-57.5 252,-57.5"/>
<text text-anchor="middle" x="301" y="-64.5" font-family="Helvetica,sans-Serif" font-size="10.00" fill="#000000">data_xor_write_file</text>
</a>
</g>
</g>
<!-- Node46&#45;&gt;Node65 -->
<g id="edge36" class="edge">
<title>Node46&#45;&gt;Node65</title>
<path fill="none" stroke="#191970" d="M36.4068,-218.3051C40.2447,-181.1715 54.3932,-101.451 106,-67 155.8373,-33.7303 229.9773,-46.4663 270.9895,-57.4952"/>
<polygon fill="#191970" stroke="#191970" points="32.9117,-218.0952 35.5166,-228.3648 39.8845,-218.7122 32.9117,-218.0952"/>
</g>
<!-- Node66 -->
<g id="node21" class="node">
<title>Node66</title>
<g id="a_node21"><a xlink:href="a00119.xhtml#a7a07539cd0f2054ed61e4300f1e9a3d5" target="_top" xlink:title="Écrit des données XORées avec un mot de passe. ">
<polygon fill="#ffffff" stroke="#000000" points="107,-76.5 107,-95.5 206,-95.5 206,-76.5 107,-76.5"/>
<text text-anchor="middle" x="156.5" y="-83.5" font-family="Helvetica,sans-Serif" font-size="10.00" fill="#000000">data_xor_write_tab</text>
</a>
</g>
</g>
<!-- Node46&#45;&gt;Node66 -->
<g id="edge40" class="edge">
<title>Node46&#45;&gt;Node66</title>
<path fill="none" stroke="#191970" d="M41.3715,-218.7739C51.2903,-191.4304 72.8028,-141.1757 106,-110 112.4392,-103.9529 120.6816,-99.1724 128.6316,-95.522"/>
<polygon fill="#191970" stroke="#191970" points="38.0189,-217.7588 38.0342,-228.3536 44.6292,-220.0617 38.0189,-217.7588"/>
</g>
<!-- Node67 -->
<g id="node22" class="node">
<title>Node67</title>
<g id="a_node22"><a xlink:href="a00128.xhtml#a58f7de82387e9b66f9bd7c40c32aeb8f" target="_top" xlink:title="Initialise l&#39;algorithme à utiliser pour la dissimulation. ">
<polygon fill="#ffffff" stroke="#000000" points="106,-.5 106,-19.5 207,-19.5 207,-.5 106,-.5"/>
<text text-anchor="middle" x="156.5" y="-7.5" font-family="Helvetica,sans-Serif" font-size="10.00" fill="#000000">stegx_choose_algo</text>
</a>
</g>
</g>
<!-- Node46&#45;&gt;Node67 -->
<g id="edge42" class="edge">
<title>Node46&#45;&gt;Node67</title>
<path fill="none" stroke="#191970" d="M36.8428,-218.1618C41.5074,-178.4849 57.1303,-88.4943 106,-34 111.5087,-27.8572 118.9267,-23.1478 126.3787,-19.597"/>
<polygon fill="#191970" stroke="#191970" points="33.3575,-217.839 35.7797,-228.1532 40.3182,-218.5797 33.3575,-217.839"/>
</g>
<!-- Node48 -->
<g id="node3" class="node">
<title>Node48</title>
<g id="a_node3"><a xlink:href="a00110.xhtml#a45a1d0709604d55e9d467cb39d6a5b54" target="_top" xlink:title="Va faire l&#39;insertion selon l&#39;algorithme, ainsi que les fichiers en entrée choisis par l&#39;utilisateur...">
<polygon fill="#ffffff" stroke="#000000" points="535,-342.5 535,-361.5 605,-361.5 605,-342.5 535,-342.5"/>
<text text-anchor="middle" x="570" y="-349.5" font-family="Helvetica,sans-Serif" font-size="10.00" fill="#000000">stegx_insert</text>
</a>
</g>
</g>
<!-- Node47&#45;&gt;Node48 -->
<g id="edge2" class="edge">
<title>Node47&#45;&gt;Node48</title>
<path fill="none" stroke="#191970" d="M342.2135,-385.7087C381.7547,-381.4071 443.0968,-374.2511 496,-366 508.6606,-364.0254 522.4722,-361.5109 534.6984,-359.1594"/>
<polygon fill="#191970" stroke="#191970" points="341.7244,-382.241 332.1569,-386.7922 342.4743,-389.2007 341.7244,-382.241"/>
</g>
<!-- Node50 -->
<g id="node5" class="node">
<title>Node50</title>
<g id="a_node5"><a xlink:href="a00065.xhtml#a43c63dd958bfa1f4ab2ecbd7faa14abb" target="_top" xlink:title="Va faire l&#39;extraction selon l&#39;algorithme détecté, ainsi que les fichiers en entrée choisis par l&#39;util...">
<polygon fill="#ffffff" stroke="#000000" points="532,-171.5 532,-190.5 608,-190.5 608,-171.5 532,-171.5"/>
<text text-anchor="middle" x="570" y="-178.5" font-family="Helvetica,sans-Serif" font-size="10.00" fill="#000000">stegx_extract</text>
</a>
</g>
</g>
<!-- Node49&#45;&gt;Node50 -->
<g id="edge4" class="edge">
<title>Node49&#45;&gt;Node50</title>
<path fill="none" stroke="#191970" d="M345.3212,-165.1305C397.3336,-168.8042 482.7059,-174.8342 531.8782,-178.3074"/>
<polygon fill="#191970" stroke="#191970" points="345.2908,-161.6197 335.069,-164.4064 344.7976,-168.6023 345.2908,-161.6197"/>
</g>
<!-- Node51&#45;&gt;Node52 -->
<g id="edge6" class="edge">
<title>Node51&#45;&gt;Node52</title>
<path fill="none" stroke="#191970" d="M202.6644,-402.1401C225.17,-408.0585 251.5761,-415.0027 271.355,-420.2041"/>
<polygon fill="#191970" stroke="#191970" points="203.5248,-398.7475 192.9635,-399.589 201.7445,-405.5173 203.5248,-398.7475"/>
</g>
<!-- Node51&#45;&gt;Node53 -->
<g id="edge8" class="edge">
<title>Node51&#45;&gt;Node53</title>
<path fill="none" stroke="#191970" d="M202.8315,-377.8159C224.2306,-372.1885 249.1267,-365.6414 268.4926,-360.5487"/>
<polygon fill="#191970" stroke="#191970" points="201.7445,-374.4827 192.9635,-380.411 203.5248,-381.2526 201.7445,-374.4827"/>
</g>
<!-- Node52&#45;&gt;Node48 -->
<g id="edge7" class="edge">
<title>Node52&#45;&gt;Node48</title>
<path fill="none" stroke="#191970" d="M340.7254,-422.0619C380.6151,-415.4934 443.5186,-403.4744 496,-386 515.8532,-379.3896 537.4841,-369.0587 552.2016,-361.5185"/>
<polygon fill="#191970" stroke="#191970" points="339.9226,-418.646 330.6067,-423.6922 341.0362,-425.5569 339.9226,-418.646"/>
</g>
<!-- Node53&#45;&gt;Node50 -->
<g id="edge9" class="edge">
<title>Node53&#45;&gt;Node50</title>
<path fill="none" stroke="#191970" d="M343.6205,-359.0681C386.0813,-363.7174 451.2328,-364.1177 496,-333 546.6096,-297.8212 563.9834,-218.0749 568.593,-190.5519"/>
<polygon fill="#191970" stroke="#191970" points="343.9546,-355.583 333.6044,-357.8467 343.1072,-362.5315 343.9546,-355.583"/>
</g>
<!-- Node55 -->
<g id="node10" class="node">
<title>Node55</title>
<g id="a_node10"><a xlink:href="a00041.xhtml#a77aaebb61a9a73cbe45380c64c3d8389" target="_top" xlink:title="Va inserer les donnees cachees en utilisant l&#39;algorithme Metadata. ">
<polygon fill="#ffffff" stroke="#000000" points="402.5,-304.5 402.5,-323.5 488.5,-323.5 488.5,-304.5 402.5,-304.5"/>
<text text-anchor="middle" x="445.5" y="-311.5" font-family="Helvetica,sans-Serif" font-size="10.00" fill="#000000">insert_metadata</text>
</a>
</g>
</g>
<!-- Node54&#45;&gt;Node55 -->
<g id="edge13" class="edge">
<title>Node54&#45;&gt;Node55</title>
<path fill="none" stroke="#191970" d="M366.2169,-314C378.4436,-314 390.9414,-314 402.2921,-314"/>
<polygon fill="#191970" stroke="#191970" points="366.0415,-310.5001 356.0415,-314 366.0414,-317.5001 366.0415,-310.5001"/>
</g>
<!-- Node55&#45;&gt;Node48 -->
<g id="edge14" class="edge">
<title>Node55&#45;&gt;Node48</title>
<path fill="none" stroke="#191970" d="M486.5696,-326.5353C503.5064,-331.7048 522.8181,-337.5991 538.5934,-342.4141"/>
<polygon fill="#191970" stroke="#191970" points="487.5028,-323.1608 476.9166,-323.589 485.4593,-329.8559 487.5028,-323.1608"/>
</g>
<!-- Node57 -->
<g id="node12" class="node">
<title>Node57</title>
<g id="a_node12"><a xlink:href="a00041.xhtml#a069239660c8070698c4ddcbbd6debe0b" target="_top" xlink:title="Va extraire les donnees cachees en utilisant l&#39;algorithme Metadata. ">
<polygon fill="#ffffff" stroke="#000000" points="399.5,-209.5 399.5,-228.5 491.5,-228.5 491.5,-209.5 399.5,-209.5"/>
<text text-anchor="middle" x="445.5" y="-216.5" font-family="Helvetica,sans-Serif" font-size="10.00" fill="#000000">extract_metadata</text>
</a>
</g>
</g>
<!-- Node56&#45;&gt;Node57 -->
<g id="edge16" class="edge">
<title>Node56&#45;&gt;Node57</title>
<path fill="none" stroke="#191970" d="M369.437,-208.9986C379.58,-210.3323 389.8235,-211.6792 399.3649,-212.9338"/>
<polygon fill="#191970" stroke="#191970" points="369.7281,-205.5069 359.3572,-207.6733 368.8155,-212.4471 369.7281,-205.5069"/>
</g>
<!-- Node57&#45;&gt;Node50 -->
<g id="edge17" class="edge">
<title>Node57&#45;&gt;Node50</title>
<path fill="none" stroke="#191970" d="M486.5696,-206.4647C503.5064,-201.2952 522.8181,-195.4009 538.5934,-190.5859"/>
<polygon fill="#191970" stroke="#191970" points="485.4593,-203.1441 476.9166,-209.411 487.5028,-209.8392 485.4593,-203.1441"/>
</g>
<!-- Node58&#45;&gt;Node55 -->
<g id="edge19" class="edge">
<title>Node58&#45;&gt;Node55</title>
<path fill="none" stroke="#191970" d="M347.3325,-288.1843C367.3939,-293.46 390.5285,-299.5438 409.2988,-304.4799"/>
<polygon fill="#191970" stroke="#191970" points="348.0248,-284.7474 337.4635,-285.589 346.2445,-291.5173 348.0248,-284.7474"/>
</g>
<!-- Node59&#45;&gt;Node57 -->
<g id="edge21" class="edge">
<title>Node59&#45;&gt;Node57</title>
<path fill="none" stroke="#191970" d="M367.8001,-229.2166C378.4214,-227.82 389.2006,-226.4027 399.2126,-225.0862"/>
<polygon fill="#191970" stroke="#191970" points="367.1538,-225.7714 357.6955,-230.5452 368.0665,-232.7116 367.1538,-225.7714"/>
</g>
<!-- Node60&#45;&gt;Node47 -->
<g id="edge23" class="edge">
<title>Node60&#45;&gt;Node47</title>
<path fill="none" stroke="#191970" d="M161.1625,-219.8046C170.5228,-255.2634 194.9431,-329.7333 243,-371 250.5565,-377.4888 260.3837,-381.7741 269.7951,-384.5992"/>
<polygon fill="#191970" stroke="#191970" points="164.4695,-218.6024 158.6418,-209.7544 157.6798,-220.3054 164.4695,-218.6024"/>
</g>
<!-- Node60&#45;&gt;Node49 -->
<g id="edge24" class="edge">
<title>Node60&#45;&gt;Node49</title>
<path fill="none" stroke="#191970" d="M202.1606,-187.9924C223.0517,-182.4985 247.3894,-176.0983 266.6868,-171.0235"/>
<polygon fill="#191970" stroke="#191970" points="201.0001,-184.6785 192.2191,-190.6067 202.7805,-191.4483 201.0001,-184.6785"/>
</g>
<!-- Node60&#45;&gt;Node54 -->
<g id="edge25" class="edge">
<title>Node60&#45;&gt;Node54</title>
<path fill="none" stroke="#191970" d="M168.4851,-218.0363C183.511,-239.3213 211.191,-274.4142 243,-295 248.8711,-298.7996 255.57,-301.9029 262.2797,-304.4164"/>
<polygon fill="#191970" stroke="#191970" points="171.2239,-215.842 162.6734,-209.5858 165.4562,-219.8087 171.2239,-215.842"/>
</g>
<!-- Node60&#45;&gt;Node56 -->
<g id="edge26" class="edge">
<title>Node60&#45;&gt;Node56</title>
<path fill="none" stroke="#191970" d="M202.2549,-200C215.1667,-200 229.3889,-200 242.9208,-200"/>
<polygon fill="#191970" stroke="#191970" points="202.2191,-196.5001 192.2191,-200 202.2191,-203.5001 202.2191,-196.5001"/>
</g>
<!-- Node60&#45;&gt;Node58 -->
<g id="edge27" class="edge">
<title>Node60&#45;&gt;Node58</title>
<path fill="none" stroke="#191970" d="M176.8372,-215.6545C193.8044,-228.1482 219.0001,-245.4183 243,-257 250.4435,-260.592 258.7355,-263.759 266.6679,-266.4265"/>
<polygon fill="#191970" stroke="#191970" points="178.8675,-212.8023 168.7644,-209.6119 174.6728,-218.4063 178.8675,-212.8023"/>
</g>
<!-- Node60&#45;&gt;Node59 -->
<g id="edge28" class="edge">
<title>Node60&#45;&gt;Node59</title>
<path fill="none" stroke="#191970" d="M202.1355,-212.001C222.3172,-217.3083 245.7197,-223.4626 264.6881,-228.4509"/>
<polygon fill="#191970" stroke="#191970" points="202.7805,-208.5517 192.2191,-209.3933 201.0001,-215.3215 202.7805,-208.5517"/>
</g>
<!-- Node61 -->
<g id="node16" class="node">
<title>Node61</title>
<g id="a_node16"><a xlink:href="a00119.xhtml#af1d405b272ef2dc101b959264bad47e1" target="_top" xlink:title="Écrit des données mélangé ou remise en ordre avec un mot de passe. ">
<polygon fill="#ffffff" stroke="#000000" points="247.5,-95.5 247.5,-114.5 354.5,-114.5 354.5,-95.5 247.5,-95.5"/>
<text text-anchor="middle" x="301" y="-102.5" font-family="Helvetica,sans-Serif" font-size="10.00" fill="#000000">data_scramble_write</text>
</a>
</g>
</g>
<!-- Node60&#45;&gt;Node61 -->
<g id="edge29" class="edge">
<title>Node60&#45;&gt;Node61</title>
<path fill="none" stroke="#191970" d="M179.5961,-184.7568C197.0135,-173.2673 221.4971,-157.1288 243,-143 257.6886,-133.3486 274.4879,-122.3461 286.2128,-114.6728"/>
<polygon fill="#191970" stroke="#191970" points="177.6047,-181.8775 171.1852,-190.3061 181.4597,-187.7204 177.6047,-181.8775"/>
</g>
<!-- Node62 -->
<g id="node17" class="node">
<title>Node62</title>
<g id="a_node17"><a xlink:href="a00023.xhtml#a1c15f35d77081a076fe7cb19c7eb13b1" target="_top" xlink:title="Va inserer les donnees cachees en utilisant l&#39;algorithme EOF. ">
<polygon fill="#ffffff" stroke="#000000" points="416,-133.5 416,-152.5 475,-152.5 475,-133.5 416,-133.5"/>
<text text-anchor="middle" x="445.5" y="-140.5" font-family="Helvetica,sans-Serif" font-size="10.00" fill="#000000">insert_eof</text>
</a>
</g>
</g>
<!-- Node61&#45;&gt;Node62 -->
<g id="edge30" class="edge">
<title>Node61&#45;&gt;Node62</title>
<path fill="none" stroke="#191970" d="M347.1644,-117.1401C369.67,-123.0585 396.0761,-130.0027 415.855,-135.2041"/>
<polygon fill="#191970" stroke="#191970" points="348.0248,-113.7475 337.4635,-114.589 346.2445,-120.5173 348.0248,-113.7475"/>
</g>
<!-- Node63 -->
<g id="node18" class="node">
<title>Node63</title>
<g id="a_node18"><a xlink:href="a00023.xhtml#a0204ccf62793e17621fea9abae71e9da" target="_top" xlink:title="Va extraire les donnees cachees en utilisant l&#39;algorithme EOF. ">
<polygon fill="#ffffff" stroke="#000000" points="413,-57.5 413,-76.5 478,-76.5 478,-57.5 413,-57.5"/>
<text text-anchor="middle" x="445.5" y="-64.5" font-family="Helvetica,sans-Serif" font-size="10.00" fill="#000000">extract_eof</text>
</a>
</g>
</g>
<!-- Node61&#45;&gt;Node63 -->
<g id="edge32" class="edge">
<title>Node61&#45;&gt;Node63</title>
<path fill="none" stroke="#191970" d="M347.3315,-92.8159C368.7306,-87.1885 393.6267,-80.6414 412.9926,-75.5487"/>
<polygon fill="#191970" stroke="#191970" points="346.2445,-89.4827 337.4635,-95.411 348.0248,-96.2526 346.2445,-89.4827"/>
</g>
<!-- Node64 -->
<g id="node19" class="node">
<title>Node64</title>
<g id="a_node19"><a xlink:href="a00029.xhtml#ad04f5216bd1375440a90d0c51a4ba590" target="_top" xlink:title="Va extraire les donnees cachees en utilisant l&#39;algorithme Junk Chunk. ">
<polygon fill="#ffffff" stroke="#000000" points="395,-95.5 395,-114.5 496,-114.5 496,-95.5 395,-95.5"/>
<text text-anchor="middle" x="445.5" y="-102.5" font-family="Helvetica,sans-Serif" font-size="10.00" fill="#000000">extract_junk_chunk</text>
</a>
</g>
</g>
<!-- Node61&#45;&gt;Node64 -->
<g id="edge34" class="edge">
<title>Node61&#45;&gt;Node64</title>
<path fill="none" stroke="#191970" d="M364.8103,-105C374.9184,-105 385.25,-105 394.999,-105"/>
<polygon fill="#191970" stroke="#191970" points="364.8065,-101.5001 354.8065,-105 364.8064,-108.5001 364.8065,-101.5001"/>
</g>
<!-- Node62&#45;&gt;Node48 -->
<g id="edge31" class="edge">
<title>Node62&#45;&gt;Node48</title>
<path fill="none" stroke="#191970" d="M462.75,-159.9588C473.1873,-170.7952 486.3068,-185.4928 496,-200 529.4267,-250.0279 556.771,-317.4031 566.3393,-342.2624"/>
<polygon fill="#191970" stroke="#191970" points="465.2209,-157.4796 455.7113,-152.8085 460.2323,-162.3903 465.2209,-157.4796"/>
</g>
<!-- Node63&#45;&gt;Node50 -->
<g id="edge33" class="edge">
<title>Node63&#45;&gt;Node50</title>
<path fill="none" stroke="#191970" d="M487.395,-80.6183C490.4151,-82.2392 493.3217,-84.0289 496,-86 528.6657,-110.0399 554.3191,-152.2009 564.829,-171.2126"/>
<polygon fill="#191970" stroke="#191970" points="488.6478,-77.3398 478.1092,-76.2501 485.6681,-83.6739 488.6478,-77.3398"/>
</g>
<!-- Node64&#45;&gt;Node50 -->
<g id="edge35" class="edge">
<title>Node64&#45;&gt;Node50</title>
<path fill="none" stroke="#191970" d="M484.8415,-118.4779C488.6837,-120.1855 492.4643,-122.0311 496,-124 520.6523,-137.7281 545.979,-159.1271 559.6746,-171.4274"/>
<polygon fill="#191970" stroke="#191970" points="485.8475,-115.1067 475.2686,-114.5252 483.1759,-121.5769 485.8475,-115.1067"/>
</g>
<!-- Node65&#45;&gt;Node62 -->
<g id="edge37" class="edge">
<title>Node65&#45;&gt;Node62</title>
<path fill="none" stroke="#191970" d="M348.8623,-80.5133C352.392,-82.1584 355.8136,-83.9823 359,-86 378.6552,-98.4462 375.6188,-111.1313 395,-124 401.3211,-128.197 408.6978,-131.6403 415.8293,-134.3866"/>
<polygon fill="#191970" stroke="#191970" points="349.9312,-77.1675 339.3534,-76.5664 347.2476,-83.6327 349.9312,-77.1675"/>
</g>
<!-- Node65&#45;&gt;Node63 -->
<g id="edge38" class="edge">
<title>Node65&#45;&gt;Node63</title>
<path fill="none" stroke="#191970" d="M360.6552,-67C378.4655,-67 397.3295,-67 412.7361,-67"/>
<polygon fill="#191970" stroke="#191970" points="360.3246,-63.5001 350.3246,-67 360.3245,-70.5001 360.3246,-63.5001"/>
</g>
<!-- Node65&#45;&gt;Node64 -->
<g id="edge39" class="edge">
<title>Node65&#45;&gt;Node64</title>
<path fill="none" stroke="#191970" d="M347.3325,-79.1843C367.3939,-84.46 390.5285,-90.5438 409.2988,-95.4799"/>
<polygon fill="#191970" stroke="#191970" points="348.0248,-75.7474 337.4635,-76.589 346.2445,-82.5173 348.0248,-75.7474"/>
</g>
<!-- Node66&#45;&gt;Node61 -->
<g id="edge41" class="edge">
<title>Node66&#45;&gt;Node61</title>
<path fill="none" stroke="#191970" d="M216.3257,-93.8664C226.569,-95.2132 237.1558,-96.6053 247.2288,-97.9297"/>
<polygon fill="#191970" stroke="#191970" points="216.5997,-90.3723 206.2287,-92.5387 215.6871,-97.3126 216.5997,-90.3723"/>
</g>
</g>
</svg>
        <g id="navigator" transform="translate(0 0)" fill="#404254">
                <rect fill="#f2f5e9" fill-opacity="0.5" stroke="#606060" stroke-width=".5" x="0" y="0" width="60" height="60"/>
                <use id="zoomplus" xlink:href="#zoomPlus" x="17" y="9" onmousedown="handleZoom(evt,'in')"/>
                <use id="zoomminus" xlink:href="#zoomMin" x="42" y="9" onmousedown="handleZoom(evt,'out')"/>
                <use id="reset" xlink:href="#resetDef" x="30" y="36" onmousedown="handleReset()"/>
                <g id="arrowUp" xlink:href="#dirArrow" transform="translate(30 24)" onmousedown="handlePan(0,-1)">
                  <use xlink:href="#rim" fill="#404040">
                        <set attributeName="fill" to="#808080" begin="arrowUp.mouseover" end="arrowUp.mouseout"/>
                  </use>
                  <path fill="none" stroke="white" stroke-width="1.5" d="M0,-3.0v7 M-2.5,-0.5L0,-3.0L2.5,-0.5"/>
                </g>
                <g id="arrowRight" xlink:href="#dirArrow" transform="rotate(90) translate(36 -43)" onmousedown="handlePan(1,0)">
                  <use xlink:href="#rim" fill="#404040">
                        <set attributeName="fill" to="#808080" begin="arrowRight.mouseover" end="arrowRight.mouseout"/>
                  </use>
                  <path fill="none" stroke="white" stroke-width="1.5" d="M0,-3.0v7 M-2.5,-0.5L0,-3.0L2.5,-0.5"/>
                </g>
                <g id="arrowDown" xlink:href="#dirArrow" transform="rotate(180) translate(-30 -48)" onmousedown="handlePan(0,1)">
                  <use xlink:href="#rim" fill="#404040">
                        <set attributeName="fill" to="#808080" begin="arrowDown.mouseover" end="arrowDown.mouseout"/>
                  </use>
                  <path fill="none" stroke="white" stroke-width="1.5" d="M0,-3.0v7 M-2.5,-0.5L0,-3.0L2.5,-0.5"/>
                </g>
                <g id="arrowLeft" xlink:href="#dirArrow" transform="rotate(270) translate(-36 17)" onmousedown="handlePan(-1,0)">
                  <use xlink:href="#rim" fill="#404040">
                        <set attributeName="fill" to="#808080" begin="arrowLeft.mouseover" end="arrowLeft.mouseout"/>
                  </use>
                  <path fill="none" stroke="white" stroke-width="1.5" d="M0,-3.0v7 M-2.5,-0.5L0,-3.0L2.5,-0.5"/>
                </g>
        </g>
        <svg viewBox="0 0 15 15" width="100%" height="30px" preserveAspectRatio="xMaxYMin meet">
         <g id="arrow_out" transform="scale(0.3 0.3)">
          <a xlink:href="a00122_a4e9a217b960dc65fd08dff9f78e317e4_icgraph_org.svg" target="_base">
           <rect id="button" ry="5" rx="5" y="6" x="6" height="38" width="38"
                fill="#f2f5e9" fill-opacity="0.5" stroke="#606060" stroke-width="1.0"/>
           <path id="arrow"
             d="M 11.500037,31.436501 C 11.940474,20.09759 22.043105,11.32322 32.158766,21.979434 L 37.068811,17.246167 C 37.068811,17.246167 37.088388,32 37.088388,32 L 22.160133,31.978069 C 22.160133,31.978069 26.997745,27.140456 26.997745,27.140456 C 18.528582,18.264221 13.291696,25.230495 11.500037,31.436501 z"
             style="fill:#404040;"/>
          </a>
         </g>
        </svg>
</svg>
