<?xml version="1.0" encoding="UTF-8" standalone="no"?>
<!DOCTYPE svg PUBLIC "-//W3C//DTD SVG 1.1//EN"
 "http://www.w3.org/Graphics/SVG/1.1/DTD/svg11.dtd">
<!-- Generated by graphviz version 2.40.1 (20161225.0304)
 -->
<!-- Title: src/insert.h Pages: 1 -->
<svg width="638pt" height="84pt"
 viewBox="0.00 0.00 637.50 84.00" xmlns="http://www.w3.org/2000/svg" xmlns:xlink="http://www.w3.org/1999/xlink">
<g id="graph0" class="graph" transform="scale(1 1) rotate(0) translate(4 80)">
<title>src/insert.h</title>
<polygon fill="#ffffff" stroke="transparent" points="-4,4 -4,-80 633.5,-80 633.5,4 -4,4"/>
<!-- Node2 -->
<g id="node1" class="node">
<title>Node2</title>
<polygon fill="#bfbfbf" stroke="#000000" points="269.5,-56.5 269.5,-75.5 334.5,-75.5 334.5,-56.5 269.5,-56.5"/>
<text text-anchor="middle" x="302" y="-63.5" font-family="Helvetica,sans-Serif" font-size="10.00" fill="#000000">src/insert.h</text>
</g>
<!-- Node3 -->
<g id="node2" class="node">
<title>Node3</title>
<g id="a_node2"><a xlink:href="a00014.xhtml" target="_top" xlink:title="Algorithme End Of Chunk (EOC). ">
<polygon fill="#ffffff" stroke="#000000" points="0,-.5 0,-19.5 78,-19.5 78,-.5 0,-.5"/>
<text text-anchor="middle" x="39" y="-7.5" font-family="Helvetica,sans-Serif" font-size="10.00" fill="#000000">src/algo/eoc.c</text>
</a>
</g>
</g>
<!-- Node2&#45;&gt;Node3 -->
<g id="edge1" class="edge">
<title>Node2&#45;&gt;Node3</title>
<path fill="none" stroke="#191970" d="M259.6262,-56.9774C209.5671,-46.3185 126.9575,-28.7286 78.2849,-18.3649"/>
<polygon fill="#191970" stroke="#191970" points="258.9776,-60.4177 269.4873,-59.0771 260.4355,-53.5712 258.9776,-60.4177"/>
</g>
<!-- Node4 -->
<g id="node3" class="node">
<title>Node4</title>
<g id="a_node3"><a xlink:href="a00020.xhtml" target="_top" xlink:title="Algorithme EOF. ">
<polygon fill="#ffffff" stroke="#000000" points="96,-.5 96,-19.5 172,-19.5 172,-.5 96,-.5"/>
<text text-anchor="middle" x="134" y="-7.5" font-family="Helvetica,sans-Serif" font-size="10.00" fill="#000000">src/algo/eof.c</text>
</a>
</g>
</g>
<!-- Node2&#45;&gt;Node4 -->
<g id="edge2" class="edge">
<title>Node2&#45;&gt;Node4</title>
<path fill="none" stroke="#191970" d="M263.5714,-53.1905C232.7927,-42.9309 190.3074,-28.7691 162.5034,-19.5011"/>
<polygon fill="#191970" stroke="#191970" points="262.5261,-56.5313 273.1198,-56.3733 264.7398,-49.8905 262.5261,-56.5313"/>
</g>
<!-- Node5 -->
<g id="node4" class="node">
<title>Node5</title>
<g id="a_node4"><a xlink:href="a00026.xhtml" target="_top" xlink:title="Algorithme JUNK CHUNK. ">
<polygon fill="#ffffff" stroke="#000000" points="190,-.5 190,-19.5 302,-19.5 302,-.5 190,-.5"/>
<text text-anchor="middle" x="246" y="-7.5" font-family="Helvetica,sans-Serif" font-size="10.00" fill="#000000">src/algo/junk_chunk.c</text>
</a>
</g>
</g>
<!-- Node2&#45;&gt;Node5 -->
<g id="edge3" class="edge">
<title>Node2&#45;&gt;Node5</title>
<path fill="none" stroke="#191970" d="M285.0751,-49.0751C275.4402,-39.4402 263.7196,-27.7196 255.6427,-19.6427"/>
<polygon fill="#191970" stroke="#191970" points="282.6996,-51.6493 292.2455,-56.2455 287.6493,-46.6996 282.6996,-51.6493"/>
</g>
<!-- Node6 -->
<g id="node5" class="node">
<title>Node6</title>
<g id="a_node5"><a xlink:href="a00032.xhtml" target="_top" xlink:title="Algorithme LSB. ">
<polygon fill="#ffffff" stroke="#000000" points="320.5,-.5 320.5,-19.5 395.5,-19.5 395.5,-.5 320.5,-.5"/>
<text text-anchor="middle" x="358" y="-7.5" font-family="Helvetica,sans-Serif" font-size="10.00" fill="#000000">src/algo/lsb.c</text>
</a>
</g>
</g>
<!-- Node2&#45;&gt;Node6 -->
<g id="edge4" class="edge">
<title>Node2&#45;&gt;Node6</title>
<path fill="none" stroke="#191970" d="M318.9249,-49.0751C328.5598,-39.4402 340.2804,-27.7196 348.3573,-19.6427"/>
<polygon fill="#191970" stroke="#191970" points="316.3507,-46.6996 311.7545,-56.2455 321.3004,-51.6493 316.3507,-46.6996"/>
</g>
<!-- Node7 -->
<g id="node6" class="node">
<title>Node7</title>
<g id="a_node6"><a xlink:href="a00074.xhtml" target="_top" xlink:title="Fichier BMP. ">
<polygon fill="#ffffff" stroke="#000000" points="414,-.5 414,-19.5 514,-19.5 514,-.5 414,-.5"/>
<text text-anchor="middle" x="464" y="-7.5" font-family="Helvetica,sans-Serif" font-size="10.00" fill="#000000">src/file_type/bmp.c</text>
</a>
</g>
</g>
<!-- Node2&#45;&gt;Node7 -->
<g id="edge5" class="edge">
<title>Node2&#45;&gt;Node7</title>
<path fill="none" stroke="#191970" d="M339.4422,-53.057C369.0901,-42.8084 409.8196,-28.729 436.5146,-19.5011"/>
<polygon fill="#191970" stroke="#191970" points="338.1565,-49.7982 329.8488,-56.3733 340.4436,-56.414 338.1565,-49.7982"/>
</g>
<!-- Node8 -->
<g id="node7" class="node">
<title>Node8</title>
<g id="a_node7"><a xlink:href="a00092.xhtml" target="_top" xlink:title="Fichier PNG. ">
<polygon fill="#ffffff" stroke="#000000" points="532.5,-.5 532.5,-19.5 629.5,-19.5 629.5,-.5 532.5,-.5"/>
<text text-anchor="middle" x="581" y="-7.5" font-family="Helvetica,sans-Serif" font-size="10.00" fill="#000000">src/file_type/png.c</text>
</a>
</g>
</g>
<!-- Node2&#45;&gt;Node8 -->
<g id="edge6" class="edge">
<title>Node2&#45;&gt;Node8</title>
<path fill="none" stroke="#191970" d="M344.5559,-57.4583C395.4106,-47.2509 480.2651,-30.2192 533.2946,-19.5753"/>
<polygon fill="#191970" stroke="#191970" points="343.6665,-54.0669 334.5509,-59.4665 345.0441,-60.9301 343.6665,-54.0669"/>
</g>
</g>
</svg>
